<?xml version="1.0" standalone="no"?>
<!DOCTYPE svg PUBLIC "-//W3C//DTD SVG 1.1//EN" "http://www.w3.org/Graphics/SVG/1.1/DTD/svg11.dtd" >
<svg xmlns="http://www.w3.org/2000/svg" xmlns:xlink="http://www.w3.org/1999/xlink" version="1.1">
<metadata>
Created by FontForge 20170910 at Thu Feb  5 11:03:24 2015
 By Jimmy Wärting
Copyright (c) 2015 Monotype Imaging Inc.  All rights reserved.
</metadata>
<defs>
<font id="NeueHaasUnicaPro-BoldItalic" horiz-adv-x="600" >
  <font-face 
    font-family="Neue Haas Unica Pro"
    font-weight="700"
    font-style="italic"
    font-variant="small-caps"
    font-stretch="normal"
    units-per-em="1000"
    panose-1="2 11 8 4 3 2 6 9 2 3"
    ascent="764"
    descent="-236"
    x-height="508"
    cap-height="712"
    bbox="-219 -275 1075 966"
    underline-thickness="50"
    underline-position="-100"
    slope="-14"
    stemh="106"
    stemv="143"
    unicode-range="U+0020-FEFF"
  />
<missing-glyph horiz-adv-x="642" 
d="M151 777h340c83 0 135 -52 135 -135v-572c0 -83 -52 -135 -135 -135h-340c-83 0 -135 52 -135 135v572c0 83 52 135 135 135zM491 713h-340c-44 0 -71 -27 -71 -71v-572c0 -44 27 -71 71 -71h340c44 0 71 27 71 71v572c0 44 -27 71 -71 71zM323 647
c112 0 180 -57 180 -151c0 -54 -15 -84 -72 -137c-52 -49 -65 -73 -65 -140h-102c-1 11 -1 23 -1 31c0 73 12 101 67 157c41 41 47 57 47 87c0 32 -19 52 -54 52c-42 0 -63 -24 -64 -80h-125c2 119 71 181 189 181zM379 65h-128v112h128v-112z" />
    <glyph glyph-name="f_f" unicode="ff" horiz-adv-x="652" 
d="M683 720c26 0 56 -5 73 -10l-24 -97c-6 2 -15 3 -23 3c-51 0 -81 -23 -97 -87l-5 -21h95l-26 -104h-95l-101 -404h-138l101 404h-173l-101 -404h-138l101 404h-85l26 104h85l14 58c26 104 96 154 200 154c26 0 56 -5 73 -10l-24 -97c-6 2 -15 3 -23 3
c-51 0 -81 -23 -97 -87l-5 -21h173l14 58c26 104 96 154 200 154z" />
    <glyph glyph-name="f_f_i" unicode="ffi" horiz-adv-x="928" 
d="M581 404l-101 -404h-138l101 404h-173l-101 -404h-138l101 404h-85l26 104h85l14 58c26 104 96 154 200 154c26 0 56 -5 73 -10l-24 -97c-6 2 -15 3 -23 3c-51 0 -81 -23 -97 -87l-5 -21h173l14 58c26 104 96 154 200 154c26 0 56 -5 73 -10l-24 -97c-6 2 -15 3 -23 3
c-51 0 -81 -23 -97 -87l-5 -21h95l-26 -104h-95zM974 712l-30 -120h-140l30 120h140zM783 508h140l-126 -508h-140z" />
    <glyph glyph-name="f_f_l" unicode="ffl" horiz-adv-x="928" 
d="M581 404l-101 -404h-138l101 404h-173l-101 -404h-138l101 404h-85l26 104h85l14 58c26 104 96 154 200 154c26 0 56 -5 73 -10l-24 -97c-6 2 -15 3 -23 3c-51 0 -81 -23 -97 -87l-5 -21h173l14 58c26 104 96 154 200 154c26 0 56 -5 73 -10l-24 -97c-6 2 -15 3 -23 3
c-51 0 -81 -23 -97 -87l-5 -21h95l-26 -104h-95zM974 712l-177 -712h-140l177 712h140z" />
    <glyph glyph-name="f_i" unicode="fi" horiz-adv-x="617" 
d="M270 404l-101 -404h-138l101 404h-85l26 104h85l14 58c26 104 96 154 200 154c26 0 56 -5 73 -10l-24 -97c-6 2 -15 3 -23 3c-51 0 -81 -23 -97 -87l-5 -21h95l-26 -104h-95zM663 712l-30 -120h-140l30 120h140zM472 508h140l-126 -508h-140z" />
    <glyph glyph-name="f_l" unicode="fl" horiz-adv-x="617" 
d="M270 404l-101 -404h-138l101 404h-85l26 104h85l14 58c26 104 96 154 200 154c26 0 56 -5 73 -10l-24 -97c-6 2 -15 3 -23 3c-51 0 -81 -23 -97 -87l-5 -21h95l-26 -104h-95zM663 712l-177 -712h-140l177 712h140z" />
    <glyph glyph-name=".notdef" horiz-adv-x="642" 
d="M151 777h340c83 0 135 -52 135 -135v-572c0 -83 -52 -135 -135 -135h-340c-83 0 -135 52 -135 135v572c0 83 52 135 135 135zM491 713h-340c-44 0 -71 -27 -71 -71v-572c0 -44 27 -71 71 -71h340c44 0 71 27 71 71v572c0 44 -27 71 -71 71zM323 647
c112 0 180 -57 180 -151c0 -54 -15 -84 -72 -137c-52 -49 -65 -73 -65 -140h-102c-1 11 -1 23 -1 31c0 73 12 101 67 157c41 41 47 57 47 87c0 32 -19 52 -54 52c-42 0 -63 -24 -64 -80h-125c2 119 71 181 189 181zM379 65h-128v112h128v-112z" />
    <glyph glyph-name="NULL" 
 />
    <glyph glyph-name="space" unicode=" " horiz-adv-x="230" 
 />
    <glyph glyph-name="exclam" unicode="!" horiz-adv-x="324" 
d="M202 198h-108l97 514h170zM176 0h-154l33 132h154z" />
    <glyph glyph-name="quotedbl" unicode="&#x22;" horiz-adv-x="436" 
d="M223 439h-102l53 273h132zM407 439h-102l53 273h132z" />
    <glyph glyph-name="numbersign" unicode="#" horiz-adv-x="672" 
d="M559 402l-53 -129h100l-41 -100h-99l-71 -173h-120l71 173h-111l-71 -173h-120l71 173h-100l41 100h99l53 129h-100l41 100h100l70 172h120l-70 -172h111l70 172h120l-70 -172h99l-41 -100h-99zM439 402h-111l-53 -129h111z" />
    <glyph glyph-name="dollar" unicode="$" 
d="M598 466h-129c3 11 4 23 4 34c0 39 -18 65 -52 78l-46 -185c94 -32 172 -69 172 -186c0 -99 -91 -217 -274 -221l-21 -85h-81l22 90c-109 17 -171 77 -171 175c0 17 2 37 6 56h132c-3 -14 -5 -27 -5 -40c0 -44 22 -73 65 -86l50 202c-88 31 -162 70 -162 177
c0 94 87 208 259 213l19 76h81l-20 -81c105 -16 158 -72 158 -164c0 -16 -2 -35 -7 -53zM239 495c0 -35 20 -55 61 -74l42 165c-63 -8 -103 -47 -103 -91zM413 189c0 43 -23 63 -69 82l-45 -182c80 7 114 57 114 100z" />
    <glyph glyph-name="percent" unicode="%" horiz-adv-x="909" 
d="M236 -30h-82l560 734h82zM299 690c92 0 140 -50 140 -142c0 -112 -65 -254 -199 -254c-92 0 -141 50 -141 143c0 112 65 253 200 253zM295 610c-63 0 -89 -117 -89 -172c0 -43 12 -64 38 -64c63 0 89 118 89 173c0 42 -12 63 -38 63zM711 380c92 0 140 -50 140 -142
c0 -112 -65 -254 -199 -254c-92 0 -141 50 -141 143c0 112 65 253 200 253zM707 300c-63 0 -89 -117 -89 -172c0 -43 12 -64 38 -64c63 0 89 118 89 173c0 42 -12 63 -38 63z" />
    <glyph glyph-name="ampersand" unicode="&#x26;" horiz-adv-x="753" 
d="M588 402h139c-28 -106 -76 -193 -140 -259l107 -143h-170l-45 60c-57 -48 -143 -76 -224 -76c-151 0 -227 70 -227 184c0 89 56 186 207 237c-30 47 -43 85 -43 130c0 89 76 193 227 193c111 0 176 -59 176 -155c0 -73 -47 -145 -174 -208l92 -123c34 39 57 91 75 160z
M403 614c-50 0 -75 -41 -75 -77c0 -27 9 -50 33 -93c78 44 100 89 100 117c0 33 -22 53 -58 53zM290 104c41 0 81 13 124 42l-126 167c-86 -40 -110 -83 -110 -126c0 -48 38 -83 112 -83z" />
    <glyph glyph-name="quotesingle" unicode="'" horiz-adv-x="252" 
d="M223 439h-102l53 273h132z" />
    <glyph glyph-name="parenleft" unicode="(" horiz-adv-x="328" 
d="M300 741h119c-166 -220 -239 -442 -239 -638c0 -82 6 -163 18 -250h-111c-33 99 -49 197 -49 301c0 187 80 399 262 587z" />
    <glyph glyph-name="parenright" unicode=")" horiz-adv-x="328" 
d="M49 -147h-119c166 220 239 442 239 638c0 82 -6 163 -18 250h111c33 -99 49 -197 49 -301c0 -187 -80 -399 -262 -587z" />
    <glyph glyph-name="asterisk" unicode="*" horiz-adv-x="426" 
d="M327 570l133 26l6 -100l-135 6l65 -118l-92 -37l-36 130l-92 -98l-64 76l113 74l-122 57l52 86l106 -85l17 134l97 -24z" />
    <glyph glyph-name="plus" unicode="+" horiz-adv-x="566" 
d="M337 371h165v-109h-165v-165h-108v165h-165v109h165v165h108v-165z" />
    <glyph glyph-name="comma" unicode="," horiz-adv-x="258" 
d="M143 0l-117 -172h-84l98 172h-51l41 167h154z" />
    <glyph glyph-name="hyphen" unicode="-" horiz-adv-x="320" 
d="M286 237h-260l27 110h260z" />
    <glyph glyph-name="period" unicode="." horiz-adv-x="258" 
d="M143 0h-154l41 167h154z" />
    <glyph glyph-name="slash" unicode="/" horiz-adv-x="494" 
d="M62 -89h-118l503 834h118z" />
    <glyph glyph-name="zero" unicode="0" 
d="M382 690c144 0 216 -89 216 -251c0 -186 -107 -455 -338 -455c-143 0 -216 89 -216 250c0 186 108 456 338 456zM372 569c-122 0 -181 -234 -181 -336c0 -85 26 -130 78 -130c123 0 182 234 182 336c0 83 -27 130 -79 130z" />
    <glyph glyph-name="one" unicode="1" 
d="M340 0h-144l114 457h-163l25 102c114 0 174 34 205 115h131z" />
    <glyph glyph-name="two" unicode="2" 
d="M384 690c131 0 210 -67 210 -175c0 -105 -70 -183 -225 -261c-135 -68 -165 -95 -178 -136h325l-28 -118h-505c30 166 105 246 284 335c132 66 176 107 176 168c0 42 -25 68 -72 68c-63 0 -101 -38 -119 -108h-145c37 148 139 227 277 227z" />
    <glyph glyph-name="three" unicode="3" 
d="M384 690c137 0 215 -65 215 -172c0 -74 -41 -144 -158 -180v-2c60 -25 90 -70 90 -134c0 -100 -87 -218 -268 -218c-150 0 -232 64 -232 185c0 15 2 33 5 51h144c-3 -15 -5 -28 -5 -40c0 -52 32 -77 94 -77c76 0 119 55 119 98c0 52 -38 78 -112 78h-20l28 116h19
c108 0 151 60 151 106c0 43 -30 70 -83 70c-61 0 -104 -35 -123 -111h-145c34 145 136 230 281 230z" />
    <glyph glyph-name="four" unicode="4" 
d="M487 264h94l-28 -113h-94l-38 -151h-144l38 151h-327l33 131l367 392h201zM153 264h193l20 82c19 72 38 143 62 215h-2c-59 -69 -119 -137 -182 -203z" />
    <glyph glyph-name="five" unicode="5" 
d="M593 557h-309l-52 -145h2c36 26 79 37 120 37c120 0 191 -76 191 -193c0 -118 -103 -272 -301 -272c-135 0 -216 60 -216 161c0 12 1 26 4 40h145c-2 -7 -2 -13 -2 -19c0 -42 37 -64 87 -64c96 0 132 84 132 144c0 58 -33 88 -88 88c-48 0 -87 -28 -106 -70l-140 9
l138 401h424z" />
    <glyph glyph-name="six" unicode="6" 
d="M398 690c133 0 209 -65 209 -177c0 -7 0 -15 -1 -23h-145c0 5 1 9 1 12c0 46 -25 70 -73 70c-65 0 -132 -51 -171 -179h2c42 31 92 47 143 47c116 0 186 -78 186 -198c0 -110 -99 -258 -280 -258c-138 0 -213 79 -213 238c0 187 114 468 342 468zM319 331
c-82 0 -124 -78 -124 -137c0 -56 27 -92 80 -92c81 0 123 76 123 132c0 61 -27 97 -79 97z" />
    <glyph glyph-name="seven" unicode="7" 
d="M647 674l-29 -124c-131 -141 -257 -340 -343 -550h-167c107 243 250 444 360 552h-352l30 122h501z" />
    <glyph glyph-name="eight" unicode="8" 
d="M383 690c135 0 220 -67 220 -174c0 -75 -54 -154 -161 -177v-2c59 -25 94 -78 94 -146c0 -95 -91 -207 -276 -207c-143 0 -230 71 -230 192c0 77 59 162 177 185v2c-53 25 -84 73 -84 133c0 87 92 194 260 194zM371 573c-78 0 -115 -52 -115 -93c0 -49 33 -76 91 -76
c80 0 114 56 114 93c0 48 -33 76 -90 76zM299 289c-85 0 -124 -62 -124 -107c0 -50 36 -79 97 -79c86 0 126 60 126 105c0 51 -37 81 -99 81z" />
    <glyph glyph-name="nine" unicode="9" 
d="M223 -16c-133 0 -209 65 -209 177c0 7 0 15 1 23h145c0 -5 -1 -9 -1 -12c0 -46 25 -70 73 -70c65 0 132 51 171 179h-2c-42 -31 -92 -47 -143 -47c-116 0 -186 78 -186 198c0 110 99 258 280 258c138 0 213 -79 213 -238c0 -187 -114 -468 -342 -468zM302 343
c82 0 124 78 124 137c0 56 -27 92 -80 92c-81 0 -123 -76 -123 -132c0 -61 27 -97 79 -97z" />
    <glyph glyph-name="colon" unicode=":" horiz-adv-x="258" 
d="M228 341h-154l41 167h154zM143 0h-154l41 167h154z" />
    <glyph glyph-name="semicolon" unicode=";" horiz-adv-x="258" 
d="M228 341h-154l41 167h154zM143 0l-117 -172h-84l98 172h-51l41 167h154z" />
    <glyph glyph-name="less" unicode="&#x3c;" horiz-adv-x="566" 
d="M502 441l-309 -123v-2l309 -123v-118l-438 181v122l438 181v-118z" />
    <glyph glyph-name="equal" unicode="=" horiz-adv-x="566" 
d="M502 357h-438v109h438v-109zM502 167h-438v109h438v-109z" />
    <glyph glyph-name="greater" unicode="&#x3e;" horiz-adv-x="566" 
d="M502 378v-122l-438 -181v118l309 123v2l-309 123v118z" />
    <glyph glyph-name="question" unicode="?" horiz-adv-x="547" 
d="M358 727c141 0 220 -67 220 -179c0 -68 -29 -120 -142 -196c-85 -57 -108 -85 -130 -166h-119c25 122 50 158 147 228c90 65 100 96 100 129c0 40 -26 63 -79 63c-60 0 -98 -31 -116 -101h-146c35 147 130 222 265 222zM276 0h-154l33 132h154z" />
    <glyph glyph-name="at" unicode="@" horiz-adv-x="872" 
d="M503 704c224 0 354 -120 354 -314c0 -157 -99 -321 -262 -321c-67 0 -103 28 -103 83h-2c-39 -55 -86 -83 -142 -83c-79 0 -124 54 -124 156c0 115 94 293 241 293c63 0 92 -31 101 -80h2c8 20 20 48 31 70h111c-57 -127 -116 -275 -116 -315c0 -23 11 -32 33 -32
c96 0 145 131 145 226c0 143 -101 232 -273 232c-254 0 -372 -234 -372 -394c0 -163 91 -257 245 -257c87 0 164 18 231 53l30 -76c-72 -39 -159 -62 -253 -62c-213 0 -338 123 -338 337c0 204 162 484 461 484zM470 415c-75 0 -126 -113 -126 -176c0 -43 18 -66 51 -66
c74 0 125 121 125 178c0 41 -17 64 -50 64z" />
    <glyph glyph-name="A" unicode="A" horiz-adv-x="698" 
d="M476 174h-273l-99 -174h-164l424 712h198l70 -712h-144zM467 300l-3 47c-6 92 -11 186 -13 278h-2c-46 -92 -96 -186 -148 -278l-27 -47h193z" />
    <glyph glyph-name="B" unicode="B" horiz-adv-x="650" 
d="M196 712h236c162 0 235 -62 235 -158c0 -73 -37 -159 -168 -195v-2c75 -18 101 -66 101 -134c0 -104 -87 -223 -283 -223h-298zM313 592l-43 -173h114c108 0 135 50 135 100s-33 73 -105 73h-101zM241 303l-45 -182h119c112 0 139 50 139 106c0 55 -32 76 -108 76h-105z
" />
    <glyph glyph-name="C" unicode="C" horiz-adv-x="702" 
d="M453 728c158 0 256 -92 256 -233c0 -14 -1 -29 -4 -44h-148c1 9 2 17 2 28c0 74 -44 119 -119 119c-154 0 -230 -182 -230 -316c0 -100 43 -168 130 -168c72 0 139 45 169 122h151c-50 -160 -175 -252 -333 -252c-172 0 -269 112 -269 288c0 202 128 456 395 456z" />
    <glyph glyph-name="D" unicode="D" horiz-adv-x="734" 
d="M196 712h187c225 0 340 -108 340 -306c0 -186 -131 -406 -437 -406h-267zM311 586l-115 -460h99c205 0 276 152 276 271c0 126 -63 189 -195 189h-65z" />
    <glyph glyph-name="E" unicode="E" horiz-adv-x="633" 
d="M657 586h-345l-40 -161h322l-32 -125h-322l-43 -174h354l-31 -126h-501l177 712h492z" />
    <glyph glyph-name="F" unicode="F" horiz-adv-x="584" 
d="M640 586h-328l-49 -194h303l-31 -126h-303l-66 -266h-147l177 712h475z" />
    <glyph glyph-name="G" unicode="G" horiz-adv-x="744" 
d="M474 728c163 0 256 -83 256 -220c0 -10 -1 -22 -3 -34h-158c1 5 1 9 1 14c0 71 -42 110 -117 110c-163 0 -245 -181 -245 -325c0 -104 43 -171 136 -171c86 0 162 57 188 153h-169l30 120h306l-93 -375h-124l15 61h-2c-47 -46 -117 -75 -195 -75
c-154 0 -242 111 -242 281c0 212 138 461 416 461z" />
    <glyph glyph-name="H" unicode="H" horiz-adv-x="750" 
d="M605 0h-147l76 307h-292l-76 -307h-147l177 712h147l-69 -279h292l69 279h147z" />
    <glyph glyph-name="I" unicode="I" horiz-adv-x="311" 
d="M166 0h-147l177 712h147z" />
    <glyph glyph-name="J" unicode="J" horiz-adv-x="392" 
d="M429 712l-125 -501c-37 -149 -123 -218 -279 -218c-27 0 -54 4 -73 10l31 123c13 -3 30 -5 40 -5c76 0 119 26 148 145l111 446h147z" />
    <glyph glyph-name="K" unicode="K" horiz-adv-x="663" 
d="M393 367l203 -367h-171l-171 348h-2l-86 -348h-147l177 712h147l-75 -301h2l292 301h188z" />
    <glyph glyph-name="L" unicode="L" horiz-adv-x="575" 
d="M197 126h336l-31 -126h-483l177 712h147z" />
    <glyph glyph-name="M" unicode="M" horiz-adv-x="984" 
d="M839 0h-141l88 354c22 89 46 178 73 267h-2c-45 -87 -93 -176 -142 -262l-202 -359h-168l-24 359c-5 86 -9 175 -10 262h-2c-19 -89 -39 -178 -61 -267l-88 -354h-141l177 712h227l22 -327c5 -86 9 -175 8 -262h2c39 87 83 176 132 262l184 327h245z" />
    <glyph glyph-name="N" unicode="N" horiz-adv-x="776" 
d="M631 0h-197l-72 289c-23 94 -46 195 -66 294h-2c-19 -103 -40 -206 -66 -309l-68 -274h-141l177 712h197l72 -289c23 -94 45 -195 66 -294h2c18 103 40 206 66 309l68 274h141z" />
    <glyph glyph-name="O" unicode="O" horiz-adv-x="748" 
d="M448 728c185 0 290 -119 290 -304c0 -200 -129 -440 -388 -440c-185 0 -289 119 -289 304c0 200 128 440 387 440zM442 598c-155 0 -233 -177 -233 -309c0 -108 52 -175 147 -175c155 0 234 178 234 310c0 107 -53 174 -148 174z" />
    <glyph glyph-name="P" unicode="P" horiz-adv-x="636" 
d="M196 712h219c172 0 252 -80 252 -208c0 -110 -82 -252 -286 -252h-152l-63 -252h-147zM313 590l-54 -216h122c102 0 136 63 136 117c0 63 -34 99 -112 99h-92z" />
    <glyph glyph-name="Q" unicode="Q" horiz-adv-x="748" 
d="M740 432c0 -127 -51 -269 -153 -359l56 -88l-91 -58l-56 88c-45 -20 -95 -31 -152 -31c-182 0 -285 116 -285 296c0 204 131 448 395 448c182 0 286 -116 286 -296zM358 106c26 0 49 5 71 13l-77 121l91 58l72 -113c54 64 81 158 81 236c0 109 -54 177 -150 177
c-158 0 -237 -180 -237 -314c0 -110 53 -178 149 -178z" />
    <glyph glyph-name="R" unicode="R" horiz-adv-x="666" 
d="M196 712h252c152 0 222 -62 222 -170c0 -88 -58 -184 -178 -213v-2c41 -17 59 -50 71 -137l26 -190h-152l-19 169c-9 76 -34 103 -104 103h-81l-67 -272h-147zM314 593l-51 -204h114c105 0 138 67 138 117c0 61 -34 87 -95 87h-106z" />
    <glyph glyph-name="S" unicode="S" horiz-adv-x="630" 
d="M395 728c162 0 244 -61 244 -181c0 -16 -3 -34 -8 -53h-149c2 10 3 21 3 29c0 56 -36 88 -108 88c-66 0 -118 -36 -118 -86c0 -48 40 -69 129 -98c102 -34 192 -72 192 -208c0 -107 -102 -235 -301 -235c-166 0 -263 68 -263 194c0 18 2 36 7 56h152
c-3 -13 -4 -26 -4 -36c0 -62 41 -95 125 -95c90 0 128 54 128 94c0 58 -42 74 -120 102c-103 36 -199 71 -199 205c0 101 100 224 290 224z" />
    <glyph glyph-name="T" unicode="T" horiz-adv-x="615" 
d="M688 586h-224l-146 -586h-147l146 586h-224l31 126h595z" />
    <glyph glyph-name="U" unicode="U" horiz-adv-x="718" 
d="M756 712l-120 -482c-40 -160 -153 -246 -314 -246c-158 0 -245 83 -245 232c0 29 4 61 13 97l100 399h147l-105 -423c-6 -24 -9 -45 -9 -64c0 -73 38 -111 111 -111c82 0 140 53 164 151l111 447h147z" />
    <glyph glyph-name="V" unicode="V" horiz-adv-x="638" 
d="M348 0h-184l-44 712h140l16 -277c6 -96 9 -194 7 -291h2c44 97 93 195 147 291l154 277h160z" />
    <glyph glyph-name="W" unicode="W" horiz-adv-x="956" 
d="M735 0h-191l4 282c1 101 6 203 14 305h-2c-42 -102 -89 -204 -138 -305l-136 -282h-191l28 712h137l-13 -259c-5 -102 -14 -207 -25 -308h2c43 101 92 205 142 308l126 259h186l-2 -259c-1 -103 -5 -207 -12 -308h2c39 101 84 206 129 308l115 259h151z" />
    <glyph glyph-name="X" unicode="X" horiz-adv-x="630" 
d="M425 355l139 -355h-156l-83 245h-2l-197 -245h-186l319 369l-131 343h153l77 -239h2l187 239h183z" />
    <glyph glyph-name="Y" unicode="Y" horiz-adv-x="638" 
d="M398 277l-69 -277h-147l69 277l-135 435h149l35 -134c15 -59 28 -120 39 -181h2c39 61 82 122 127 181l101 134h180z" />
    <glyph glyph-name="Z" unicode="Z" horiz-adv-x="582" 
d="M625 575l-456 -449v-2h361l-31 -124h-542l34 137l456 449v2h-328l31 124h509z" />
    <glyph glyph-name="bracketleft" unicode="[" horiz-adv-x="329" 
d="M415 660h-112l-181 -728h112l-20 -81h-244l221 890h244z" />
    <glyph glyph-name="backslash" unicode="\" horiz-adv-x="488" 
d="M256 745l95 -834h-104l-95 834h104z" />
    <glyph glyph-name="bracketright" unicode="]" horiz-adv-x="329" 
d="M-65 -68h112l181 728h-112l20 81h244l-221 -890h-244z" />
    <glyph glyph-name="asciicircum" unicode="^" horiz-adv-x="496" 
d="M488 371h-129l-110 231h-2l-110 -231h-129l166 341h148z" />
    <glyph glyph-name="underscore" unicode="_" horiz-adv-x="500" 
d="M405 -126h-500l19 76h500z" />
    <glyph glyph-name="grave" unicode="`" horiz-adv-x="351" 
d="M332 712l47 -146h-104l-110 146h167z" />
    <glyph glyph-name="a" unicode="a" horiz-adv-x="547" 
d="M311 524c130 0 195 -53 195 -158c0 -20 -3 -43 -9 -67l-40 -160c-16 -64 -22 -105 -21 -139h-122c0 18 2 38 8 59h-2c-49 -48 -107 -71 -171 -71c-100 0 -152 55 -152 135c0 75 49 154 231 181c42 6 103 12 138 14l3 12c3 12 5 23 5 33c0 44 -28 63 -72 63
c-50 0 -85 -29 -95 -77h-136c21 97 106 175 240 175zM337 201l8 32c-31 -2 -73 -6 -105 -11c-75 -12 -98 -43 -98 -80c0 -33 22 -54 64 -54c68 0 113 41 131 113z" />
    <glyph glyph-name="b" unicode="b" horiz-adv-x="598" 
d="M261 466h2c38 36 85 55 130 55c112 0 176 -75 176 -198c0 -142 -96 -336 -275 -336c-62 0 -114 31 -133 86h-2l-18 -73h-136l178 712h140zM339 414c-93 0 -142 -120 -142 -208c0 -70 29 -112 82 -112c93 0 142 120 142 208c0 70 -29 112 -82 112z" />
    <glyph glyph-name="c" unicode="c" horiz-adv-x="562" 
d="M330 524c136 0 214 -77 214 -188c0 -9 0 -18 -2 -27h-146c1 5 2 13 2 19c0 55 -28 88 -76 88c-96 0 -146 -132 -146 -208c0 -73 29 -116 84 -116c49 0 93 37 111 97h147c-38 -123 -143 -205 -266 -205c-138 0 -219 84 -219 223c0 135 97 317 297 317z" />
    <glyph glyph-name="d" unicode="d" horiz-adv-x="596" 
d="M465 0h-136l12 46h-2c-39 -38 -89 -59 -135 -59c-112 0 -176 75 -176 198c0 142 96 336 275 336c60 0 110 -28 131 -78h2l66 269h140zM318 414c-93 0 -142 -120 -142 -208c0 -70 29 -112 82 -112c93 0 142 120 142 208c0 70 -29 112 -82 112z" />
    <glyph glyph-name="e" unicode="e" horiz-adv-x="573" 
d="M531 225h-364c-3 -16 -4 -30 -4 -43c0 -72 41 -99 92 -99s93 30 108 71h143c-39 -93 -137 -170 -259 -170c-144 0 -216 84 -216 215c0 140 100 325 297 325c143 0 215 -83 215 -207c0 -25 -3 -53 -12 -92zM320 425c-54 0 -104 -35 -131 -112h222c1 8 2 15 2 22
c0 62 -39 90 -93 90z" />
    <glyph glyph-name="f" unicode="f" horiz-adv-x="341" 
d="M372 720c26 0 56 -5 73 -10l-24 -97c-6 2 -15 3 -23 3c-51 0 -81 -23 -97 -87l-5 -21h95l-26 -104h-95l-101 -404h-138l101 404h-85l26 104h85l14 58c26 104 96 154 200 154z" />
    <glyph glyph-name="g" unicode="g" horiz-adv-x="591" 
d="M292 522c75 0 121 -39 141 -90h2l19 76h132l-126 -508c-33 -132 -138 -194 -270 -194c-139 0 -207 50 -207 135c0 9 1 17 3 27h136c-1 -4 -1 -8 -1 -12c0 -32 27 -50 77 -50c61 0 108 27 131 115l9 37h-2c-42 -36 -84 -52 -135 -52c-107 0 -168 76 -168 202
c0 133 91 314 259 314zM309 407c-84 0 -128 -110 -128 -178c0 -67 30 -108 81 -108c88 0 133 104 133 177c0 67 -32 109 -86 109z" />
    <glyph glyph-name="h" unicode="h" 
d="M259 461h2c39 36 88 59 142 59c96 0 155 -51 155 -150c0 -22 -3 -46 -10 -73l-74 -297h-140l73 294c5 20 7 37 7 52c0 44 -24 64 -67 64c-58 0 -111 -46 -134 -138l-68 -272h-140l177 712h140z" />
    <glyph glyph-name="i" unicode="i" horiz-adv-x="276" 
d="M292 592h-140l30 120h140zM145 0h-140l126 508h140z" />
    <glyph glyph-name="j" unicode="j" horiz-adv-x="278" 
d="M294 592h-140l30 120h140zM273 508l-133 -535c-29 -117 -111 -163 -206 -163c-29 0 -54 3 -75 9l25 100c7 -2 15 -3 23 -3c52 0 85 23 104 102l122 490h140z" />
    <glyph glyph-name="k" unicode="k" horiz-adv-x="543" 
d="M342 263l148 -263h-153l-129 244h-2l-61 -244h-140l177 712h140l-100 -403h2l193 199h178z" />
    <glyph glyph-name="l" unicode="l" horiz-adv-x="276" 
d="M145 0h-140l177 712h140z" />
    <glyph glyph-name="m" unicode="m" horiz-adv-x="897" 
d="M709 520c92 0 147 -49 147 -146c0 -22 -4 -48 -11 -77l-74 -297h-140l74 298c5 19 7 35 7 49c0 43 -22 63 -59 63c-60 0 -106 -53 -130 -149l-65 -261h-140l76 307c4 15 6 29 6 41c0 40 -20 62 -60 62c-61 0 -107 -54 -130 -149l-65 -261h-140l126 508h132l-12 -51h2
c44 43 88 63 143 63c73 0 119 -31 134 -90c50 56 103 90 179 90z" />
    <glyph glyph-name="n" unicode="n" 
d="M403 520c97 0 155 -51 155 -150c0 -22 -3 -46 -10 -73l-74 -297h-140l73 294c5 20 7 37 7 52c0 44 -24 64 -67 64c-58 0 -111 -46 -134 -138l-68 -272h-140l127 508h131l-14 -56h2c41 41 95 68 152 68z" />
    <glyph glyph-name="o" unicode="o" horiz-adv-x="590" 
d="M332 524c146 0 225 -84 225 -224c0 -137 -101 -316 -301 -316c-145 0 -223 84 -223 224c0 137 101 316 299 316zM321 416c-101 0 -144 -128 -144 -207c0 -73 30 -117 91 -117c101 0 144 128 144 207c0 73 -30 117 -91 117z" />
    <glyph glyph-name="p" unicode="p" horiz-adv-x="598" 
d="M393 521c112 0 176 -75 176 -198c0 -142 -96 -336 -275 -336c-60 0 -110 28 -131 78h-2l-62 -250h-140l173 693h136l-12 -46h2c39 38 89 59 135 59zM339 414c-93 0 -142 -120 -142 -208c0 -70 29 -112 82 -112c93 0 142 120 142 208c0 70 -29 112 -82 112z" />
    <glyph glyph-name="q" unicode="q" horiz-adv-x="597" 
d="M303 521c62 0 114 -31 133 -86h2l18 73h136l-172 -693h-140l56 227h-2c-38 -36 -85 -55 -130 -55c-112 0 -176 75 -176 198c0 142 96 336 275 336zM318 414c-93 0 -142 -120 -142 -208c0 -70 29 -112 82 -112c93 0 142 120 142 208c0 70 -29 112 -82 112z" />
    <glyph glyph-name="r" unicode="r" horiz-adv-x="392" 
d="M403 516c14 0 32 -2 45 -6l-30 -121c-16 3 -29 5 -43 5c-86 0 -146 -54 -170 -154l-60 -240h-140l126 508h129l-16 -65h2c48 50 98 73 157 73z" />
    <glyph glyph-name="s" unicode="s" horiz-adv-x="524" 
d="M305 524c124 0 192 -48 192 -140c0 -10 -1 -21 -3 -32h-133c1 7 2 15 2 21c0 37 -26 53 -70 53c-55 0 -74 -28 -74 -50c0 -29 22 -42 92 -66c71 -24 148 -50 148 -153c0 -85 -78 -173 -241 -173c-131 0 -209 48 -209 145c0 11 1 23 5 36h141c-2 -8 -3 -15 -3 -22
c0 -37 26 -58 78 -58c51 0 80 22 80 55c0 38 -34 51 -98 73c-67 23 -135 44 -135 145c0 80 75 166 228 166z" />
    <glyph glyph-name="t" unicode="t" horiz-adv-x="357" 
d="M267 404l-53 -213c-3 -14 -5 -26 -5 -36c0 -36 16 -50 54 -50c12 0 24 2 33 4l-28 -109c-14 -4 -38 -7 -55 -7c-102 0 -149 37 -149 127c0 21 4 46 11 74l52 210h-82l26 104h82l33 132h140l-33 -132h97l-26 -104h-97z" />
    <glyph glyph-name="u" unicode="u" 
d="M197 -12c-97 0 -155 51 -155 150c0 22 3 46 10 73l74 297h140l-73 -294c-5 -20 -7 -37 -7 -52c0 -44 24 -64 67 -64c58 0 111 46 134 138l68 272h140l-127 -508h-131l14 56h-2c-41 -41 -95 -68 -152 -68z" />
    <glyph glyph-name="v" unicode="v" horiz-adv-x="510" 
d="M282 0h-182l-44 508h137l9 -200c3 -72 5 -146 4 -220h2c33 74 69 148 108 220l109 200h155z" />
    <glyph glyph-name="w" unicode="w" horiz-adv-x="810" 
d="M630 0h-200l5 200c2 71 5 144 9 217h-2c-28 -73 -59 -146 -93 -217l-95 -200h-200l14 508h133l-11 -196c-4 -73 -8 -148 -15 -221h2c29 73 60 145 95 219l94 198h192l-4 -198c-1 -74 -4 -146 -9 -219h2c26 73 56 148 89 221l87 196h145z" />
    <glyph glyph-name="x" unicode="x" horiz-adv-x="508" 
d="M337 255l114 -255h-148l-60 166h-2l-132 -166h-178l244 267l-107 241h146l57 -143h2l117 143h176z" />
    <glyph glyph-name="y" unicode="y" horiz-adv-x="504" 
d="M574 508l-309 -511c-87 -143 -162 -188 -289 -188c-25 0 -51 3 -71 8l28 112c13 -5 31 -8 52 -8c73 0 117 49 117 110c0 12 -1 26 -5 64l-41 413h138l12 -170c5 -70 8 -142 7 -213h2c33 71 68 142 108 213l95 170h156z" />
    <glyph glyph-name="z" unicode="z" horiz-adv-x="484" 
d="M480 388l-311 -276v-2h251l-27 -110h-428l30 120l311 276v2h-232l28 110h408z" />
    <glyph glyph-name="braceleft" unicode="{" horiz-adv-x="338" 
d="M434 741l-20 -80c-56 -2 -85 -22 -100 -82l-40 -160c-18 -70 -55 -104 -124 -120l-1 -3c45 -16 66 -44 66 -93c0 -14 -2 -30 -7 -49l-32 -128c-4 -16 -6 -29 -6 -40c0 -41 19 -56 62 -57l-20 -81h-14c-111 0 -155 39 -155 123c0 22 4 46 11 75l29 117c4 16 6 29 6 40
c0 32 -14 50 -47 60l22 87c52 13 74 33 87 84l37 150c28 112 83 157 212 157h34z" />
    <glyph glyph-name="bar" unicode="|" horiz-adv-x="294" 
d="M210 -205h-126v937h126v-937z" />
    <glyph glyph-name="braceright" unicode="}" horiz-adv-x="338" 
d="M-76 -152l20 80c56 2 85 22 100 82l40 160c18 70 55 104 124 120l1 3c-45 16 -66 44 -66 93c0 14 2 30 7 49l32 128c4 16 6 29 6 40c0 41 -19 56 -62 57l20 81h14c111 0 155 -39 155 -123c0 -22 -4 -46 -11 -75l-29 -117c-4 -16 -6 -29 -6 -40c0 -32 14 -50 47 -60
l-22 -87c-52 -13 -74 -33 -87 -84l-37 -150c-28 -112 -83 -157 -212 -157h-34z" />
    <glyph glyph-name="asciitilde" unicode="~" horiz-adv-x="594" 
d="M216 419c108 0 138 -96 208 -96c43 0 81 34 94 87h90c-30 -126 -110 -195 -199 -195c-108 0 -138 95 -209 95c-43 0 -80 -34 -93 -87h-90c30 126 110 196 199 196z" />
    <glyph glyph-name="Aacute" unicode="&#xc1;" horiz-adv-x="698" 
d="M506 760h-116l108 146h179zM562 712l70 -712h-144l-12 174h-273l-99 -174h-164l424 712h198zM467 300l-3 47c-6 92 -11 186 -13 278h-2c-46 -92 -96 -186 -148 -278l-27 -47h193z" />
    <glyph glyph-name="Abreve" unicode="&#x102;" horiz-adv-x="698" 
d="M580 906h107c-27 -96 -104 -151 -208 -151c-91 0 -144 45 -144 123c0 9 1 18 2 28h83c-1 -5 -1 -9 -1 -13c0 -32 24 -51 67 -51c48 0 83 24 94 64zM562 712l70 -712h-144l-12 174h-273l-99 -174h-164l424 712h198zM467 300l-3 47c-6 92 -11 186 -13 278h-2
c-46 -92 -96 -186 -148 -278l-27 -47h193z" />
    <glyph glyph-name="Acircumflex" unicode="&#xc2;" horiz-adv-x="698" 
d="M428 760h-142l151 146h149l77 -146h-114l-42 76zM562 712l70 -712h-144l-12 174h-273l-99 -174h-164l424 712h198zM467 300l-3 47c-6 92 -11 186 -13 278h-2c-46 -92 -96 -186 -148 -278l-27 -47h193z" />
    <glyph glyph-name="Adieresis" unicode="&#xc4;" horiz-adv-x="698" 
d="M430 769h-123l30 120h123zM677 889l-30 -120h-123l30 120h123zM562 712l70 -712h-144l-12 174h-273l-99 -174h-164l424 712h198zM467 300l-3 47c-6 92 -11 186 -13 278h-2c-46 -92 -96 -186 -148 -278l-27 -47h193z" />
    <glyph glyph-name="Agrave" unicode="&#xc0;" horiz-adv-x="698" 
d="M456 760l-109 146h167l46 -146h-104zM476 174h-273l-99 -174h-164l424 712h198l70 -712h-144zM467 300l-3 47c-6 92 -11 186 -13 278h-2c-46 -92 -96 -186 -148 -278l-27 -47h193z" />
    <glyph glyph-name="Amacron" unicode="&#x100;" horiz-adv-x="698" 
d="M665 869l-22 -91h-326l22 91h326zM562 712l70 -712h-144l-12 174h-273l-99 -174h-164l424 712h198zM467 300l-3 47c-6 92 -11 186 -13 278h-2c-46 -92 -96 -186 -148 -278l-27 -47h193z" />
    <glyph glyph-name="Aogonek" unicode="&#x104;" horiz-adv-x="698" 
d="M541 -98c0 -14 9 -21 28 -21c12 0 26 2 37 6l-19 -75c-18 -5 -43 -9 -69 -9c-69 0 -103 27 -103 75c0 44 34 83 107 122h-34l-12 174h-273l-99 -174h-164l424 712h198l70 -712c-75 -44 -91 -72 -91 -98zM467 300l-3 47c-6 92 -11 186 -13 278h-2
c-46 -92 -96 -186 -148 -278l-27 -47h193z" />
    <glyph glyph-name="Aring" unicode="&#xc5;" horiz-adv-x="698" 
d="M489 750c-60 0 -108 48 -108 108s48 108 108 108s108 -48 108 -108s-48 -108 -108 -108zM489 912c-30 0 -54 -24 -54 -54s24 -54 54 -54s54 24 54 54s-24 54 -54 54zM476 174h-273l-99 -174h-164l424 712h198l70 -712h-144zM467 300l-3 47c-6 92 -11 186 -13 278h-2
c-46 -92 -96 -186 -148 -278l-27 -47h193z" />
    <glyph glyph-name="Atilde" unicode="&#xc3;" horiz-adv-x="698" 
d="M622 906h78c-24 -83 -75 -135 -143 -135s-86 46 -130 46c-29 0 -46 -15 -57 -46h-80c23 83 75 135 143 135s87 -46 130 -46c30 0 47 15 59 46zM562 712l70 -712h-144l-12 174h-273l-99 -174h-164l424 712h198zM467 300l-3 47c-6 92 -11 186 -13 278h-2
c-46 -92 -96 -186 -148 -278l-27 -47h193z" />
    <glyph glyph-name="AE" unicode="&#xc6;" horiz-adv-x="965" 
d="M657 586l-17 -161h286l-32 -125h-268l-18 -174h275l-31 -126h-393l19 179h-254l-122 -179h-171l509 712h580l-31 -126h-332zM521 595h-14l-199 -292h182z" />
    <glyph glyph-name="Cacute" unicode="&#x106;" horiz-adv-x="702" 
d="M501 760h-116l108 146h179zM453 728c158 0 256 -92 256 -233c0 -14 -1 -29 -4 -44h-148c1 9 2 17 2 28c0 74 -44 119 -119 119c-154 0 -230 -182 -230 -316c0 -100 43 -168 130 -168c72 0 139 45 169 122h151c-50 -160 -175 -252 -333 -252c-172 0 -269 112 -269 288
c0 202 128 456 395 456z" />
    <glyph glyph-name="Ccaron" unicode="&#x10c;" horiz-adv-x="702" 
d="M544 760h-149l-77 146h114l42 -76l79 76h142zM453 728c158 0 256 -92 256 -233c0 -14 -1 -29 -4 -44h-148c1 9 2 17 2 28c0 74 -44 119 -119 119c-154 0 -230 -182 -230 -316c0 -100 43 -168 130 -168c72 0 139 45 169 122h151c-50 -160 -175 -252 -333 -252
c-172 0 -269 112 -269 288c0 202 128 456 395 456z" />
    <glyph glyph-name="Ccedilla" unicode="&#xc7;" horiz-adv-x="702" 
d="M705 451h-148c1 9 2 17 2 28c0 74 -44 119 -119 119c-154 0 -230 -182 -230 -316c0 -100 43 -168 130 -168c72 0 139 45 169 122h151c-47 -152 -163 -243 -310 -251l-39 -45c6 2 15 3 23 3c40 0 71 -26 71 -70c0 -56 -62 -99 -141 -99c-41 0 -77 11 -106 30l25 45
c28 -16 54 -22 79 -22c34 0 57 16 57 40c0 21 -14 33 -38 33c-12 0 -23 -2 -34 -6l-20 18l65 74c-150 14 -234 122 -234 286c0 202 128 456 395 456c158 0 256 -92 256 -233c0 -14 -1 -29 -4 -44z" />
    <glyph glyph-name="Ccircumflex" unicode="&#x108;" horiz-adv-x="702" 
d="M432 906h149l77 -146h-114l-42 76l-79 -76h-142zM453 728c158 0 256 -92 256 -233c0 -14 -1 -29 -4 -44h-148c1 9 2 17 2 28c0 74 -44 119 -119 119c-154 0 -230 -182 -230 -316c0 -100 43 -168 130 -168c72 0 139 45 169 122h151c-50 -160 -175 -252 -333 -252
c-172 0 -269 112 -269 288c0 202 128 456 395 456z" />
    <glyph glyph-name="Cdotaccent" unicode="&#x10a;" horiz-adv-x="702" 
d="M542 769h-140l30 120h140zM453 728c158 0 256 -92 256 -233c0 -14 -1 -29 -4 -44h-148c1 9 2 17 2 28c0 74 -44 119 -119 119c-154 0 -230 -182 -230 -316c0 -100 43 -168 130 -168c72 0 139 45 169 122h151c-50 -160 -175 -252 -333 -252c-172 0 -269 112 -269 288
c0 202 128 456 395 456z" />
    <glyph glyph-name="Eth" unicode="&#xd0;" horiz-adv-x="735" 
d="M196 712h187c225 0 340 -108 340 -306c0 -186 -131 -406 -437 -406h-267l76 307h-64l27 106h64zM196 126h99c205 0 276 152 276 271c0 126 -63 189 -195 189h-65l-43 -173h166l-27 -106h-166z" />
    <glyph glyph-name="Dcaron" unicode="&#x10e;" horiz-adv-x="734" 
d="M534 760h-149l-77 146h114l42 -76l79 76h142zM196 712h187c225 0 340 -108 340 -306c0 -186 -131 -406 -437 -406h-267zM311 586l-115 -460h99c205 0 276 152 276 271c0 126 -63 189 -195 189h-65z" />
    <glyph glyph-name="Dcroat" unicode="&#x110;" horiz-adv-x="735" 
d="M196 712h187c225 0 340 -108 340 -306c0 -186 -131 -406 -437 -406h-267l76 307h-64l27 106h64zM196 126h99c205 0 276 152 276 271c0 126 -63 189 -195 189h-65l-43 -173h166l-27 -106h-166z" />
    <glyph glyph-name="Eacute" unicode="&#xc9;" horiz-adv-x="633" 
d="M475 760h-116l108 146h179zM657 586h-345l-40 -161h322l-32 -125h-322l-43 -174h354l-31 -126h-501l177 712h492z" />
    <glyph glyph-name="Ebreve" unicode="&#x114;" horiz-adv-x="633" 
d="M549 906h107c-27 -96 -104 -151 -208 -151c-91 0 -144 45 -144 123c0 9 1 18 2 28h83c-1 -5 -1 -9 -1 -13c0 -32 24 -51 67 -51c48 0 83 24 94 64zM657 586h-345l-40 -161h322l-32 -125h-322l-43 -174h354l-31 -126h-501l177 712h492z" />
    <glyph glyph-name="Ecaron" unicode="&#x11a;" horiz-adv-x="633" 
d="M518 760h-149l-77 146h114l42 -76l79 76h142zM657 586h-345l-40 -161h322l-32 -125h-322l-43 -174h354l-31 -126h-501l177 712h492z" />
    <glyph glyph-name="Ecircumflex" unicode="&#xca;" horiz-adv-x="633" 
d="M406 906h149l77 -146h-114l-42 76l-79 -76h-142zM657 586h-345l-40 -161h322l-32 -125h-322l-43 -174h354l-31 -126h-501l177 712h492z" />
    <glyph glyph-name="Edieresis" unicode="&#xcb;" horiz-adv-x="633" 
d="M399 769h-123l30 120h123zM616 769h-123l30 120h123zM657 586h-345l-40 -161h322l-32 -125h-322l-43 -174h354l-31 -126h-501l177 712h492z" />
    <glyph glyph-name="Edotaccent" unicode="&#x116;" horiz-adv-x="633" 
d="M516 769h-140l30 120h140zM657 586h-345l-40 -161h322l-32 -125h-322l-43 -174h354l-31 -126h-501l177 712h492z" />
    <glyph glyph-name="Egrave" unicode="&#xc8;" horiz-adv-x="633" 
d="M529 760h-104l-109 146h167zM657 586h-345l-40 -161h322l-32 -125h-322l-43 -174h354l-31 -126h-501l177 712h492z" />
    <glyph glyph-name="Emacron" unicode="&#x112;" horiz-adv-x="633" 
d="M612 778h-326l22 91h326zM657 586h-345l-40 -161h322l-32 -125h-322l-43 -174h354l-31 -126h-501l177 712h492z" />
    <glyph glyph-name="Eogonek" unicode="&#x118;" horiz-adv-x="633" 
d="M312 586l-40 -161h322l-32 -125h-322l-43 -174h354l-31 -126c-75 -44 -91 -72 -91 -98c0 -14 9 -21 28 -21c12 0 26 2 37 6l-19 -75c-18 -5 -43 -9 -69 -9c-69 0 -103 27 -103 75c0 44 34 83 107 122h-391l177 712h492l-31 -126h-345z" />
    <glyph glyph-name="Gbreve" unicode="&#x11e;" horiz-adv-x="744" 
d="M578 906h107c-27 -96 -104 -151 -208 -151c-91 0 -144 45 -144 123c0 9 1 18 2 28h83c-1 -5 -1 -9 -1 -13c0 -32 24 -51 67 -51c48 0 83 24 94 64zM474 728c163 0 256 -83 256 -220c0 -10 -1 -22 -3 -34h-158c1 5 1 9 1 14c0 71 -42 110 -117 110
c-163 0 -245 -181 -245 -325c0 -104 43 -171 136 -171c86 0 162 57 188 153h-169l30 120h306l-93 -375h-124l15 61h-2c-47 -46 -117 -75 -195 -75c-154 0 -242 111 -242 281c0 212 138 461 416 461z" />
    <glyph glyph-name="Gcircumflex" unicode="&#x11c;" horiz-adv-x="744" 
d="M435 906h149l77 -146h-114l-42 76l-79 -76h-142zM474 728c163 0 256 -83 256 -220c0 -10 -1 -22 -3 -34h-158c1 5 1 9 1 14c0 71 -42 110 -117 110c-163 0 -245 -181 -245 -325c0 -104 43 -171 136 -171c86 0 162 57 188 153h-169l30 120h306l-93 -375h-124l15 61h-2
c-47 -46 -117 -75 -195 -75c-154 0 -242 111 -242 281c0 212 138 461 416 461z" />
    <glyph glyph-name="Gcommaaccent" unicode="&#x122;" horiz-adv-x="744" 
d="M474 728c163 0 256 -83 256 -220c0 -10 -1 -22 -3 -34h-158c1 5 1 9 1 14c0 71 -42 110 -117 110c-163 0 -245 -181 -245 -325c0 -104 43 -171 136 -171c86 0 162 57 188 153h-169l30 120h306l-93 -375h-124l15 61h-2c-47 -46 -117 -75 -195 -75
c-154 0 -242 111 -242 281c0 212 138 461 416 461zM324 -163l-95 -107h-56l72 107h-45l26 104h124z" />
    <glyph glyph-name="Gdotaccent" unicode="&#x120;" horiz-adv-x="744" 
d="M545 769h-140l30 120h140zM474 728c163 0 256 -83 256 -220c0 -10 -1 -22 -3 -34h-158c1 5 1 9 1 14c0 71 -42 110 -117 110c-163 0 -245 -181 -245 -325c0 -104 43 -171 136 -171c86 0 162 57 188 153h-169l30 120h306l-93 -375h-124l15 61h-2
c-47 -46 -117 -75 -195 -75c-154 0 -242 111 -242 281c0 212 138 461 416 461z" />
    <glyph glyph-name="Hbar" unicode="&#x126;" horiz-adv-x="750" 
d="M801 568h-55l-141 -568h-147l76 307h-292l-76 -307h-147l141 568h-55l18 72h55l18 72h147l-18 -72h292l18 72h147l-18 -72h55zM599 568h-292l-33 -135h292z" />
    <glyph glyph-name="Hcircumflex" unicode="&#x124;" horiz-adv-x="750" 
d="M463 906h149l77 -146h-114l-42 76l-79 -76h-142zM605 0h-147l76 307h-292l-76 -307h-147l177 712h147l-69 -279h292l69 279h147z" />
    <glyph glyph-name="IJ" unicode="&#x132;" horiz-adv-x="703" 
d="M166 0h-147l177 712h147zM740 712l-125 -501c-37 -149 -123 -218 -279 -218c-27 0 -54 4 -73 10l31 123c13 -3 30 -5 40 -5c76 0 119 26 148 145l111 446h147z" />
    <glyph glyph-name="Iacute" unicode="&#xcd;" horiz-adv-x="311" 
d="M313 760h-116l108 146h179zM166 0h-147l177 712h147z" />
    <glyph glyph-name="Ibreve" unicode="&#x12c;" horiz-adv-x="311" 
d="M387 906h107c-27 -96 -104 -151 -208 -151c-91 0 -144 45 -144 123c0 9 1 18 2 28h83c-1 -5 -1 -9 -1 -13c0 -32 24 -51 67 -51c48 0 83 24 94 64zM166 0h-147l177 712h147z" />
    <glyph glyph-name="Icircumflex" unicode="&#xce;" horiz-adv-x="311" 
d="M244 906h149l77 -146h-114l-42 76l-79 -76h-142zM166 0h-147l177 712h147z" />
    <glyph glyph-name="Idieresis" unicode="&#xcf;" horiz-adv-x="311" 
d="M237 769h-123l30 120h123zM454 769h-123l30 120h123zM166 0h-147l177 712h147z" />
    <glyph glyph-name="Idotaccent" unicode="&#x130;" horiz-adv-x="311" 
d="M354 769h-140l30 120h140zM166 0h-147l177 712h147z" />
    <glyph glyph-name="Igrave" unicode="&#xcc;" horiz-adv-x="311" 
d="M367 760h-104l-109 146h167zM166 0h-147l177 712h147z" />
    <glyph glyph-name="Imacron" unicode="&#x12a;" horiz-adv-x="311" 
d="M450 778h-326l22 91h326zM166 0h-147l177 712h147z" />
    <glyph glyph-name="Iogonek" unicode="&#x12e;" horiz-adv-x="311" 
d="M343 712l-177 -712c-75 -44 -91 -72 -91 -98c0 -14 9 -21 28 -21c12 0 26 2 37 6l-19 -75c-18 -5 -43 -9 -69 -9c-69 0 -103 27 -103 75c0 44 34 83 107 122h-37l177 712h147z" />
    <glyph glyph-name="Itilde" unicode="&#x128;" horiz-adv-x="311" 
d="M429 906h78c-24 -83 -75 -135 -143 -135s-86 46 -130 46c-29 0 -46 -15 -57 -46h-80c23 83 75 135 143 135s87 -46 130 -46c30 0 47 15 59 46zM166 0h-147l177 712h147z" />
    <glyph glyph-name="Jcircumflex" unicode="&#x134;" horiz-adv-x="392" 
d="M330 906h149l77 -146h-114l-42 76l-79 -76h-142zM429 712l-125 -501c-37 -149 -123 -218 -279 -218c-27 0 -54 4 -73 10l31 123c13 -3 30 -5 40 -5c76 0 119 26 148 145l111 446h147z" />
    <glyph glyph-name="Kcommaaccent" unicode="&#x136;" horiz-adv-x="663" 
d="M393 367l203 -367h-171l-171 348h-2l-86 -348h-147l177 712h147l-75 -301h2l292 301h188zM192 -59h124l-26 -104l-95 -107h-56l72 107h-45z" />
    <glyph glyph-name="Lacute" unicode="&#x139;" horiz-adv-x="575" 
d="M342 760h-116l108 146h179zM197 126h336l-31 -126h-483l177 712h147z" />
    <glyph glyph-name="Lcaron" unicode="&#x13d;" horiz-adv-x="575" 
d="M197 126h336l-31 -126h-483l177 712h147zM406 488h-79l82 224h111z" />
    <glyph glyph-name="Lcommaaccent" unicode="&#x13b;" horiz-adv-x="575" 
d="M197 126h336l-31 -126h-483l177 712h147zM282 -163l-95 -107h-56l72 107h-45l26 104h124z" />
    <glyph glyph-name="Ldot" unicode="&#x13f;" horiz-adv-x="655" 
d="M197 126h336l-31 -126h-483l177 712h147zM576 348h-154l41 167h154z" />
    <glyph glyph-name="Lslash" unicode="&#x141;" horiz-adv-x="575" 
d="M533 126l-31 -126h-483l68 273l-80 -41l34 135l80 41l75 304h147l-56 -226l159 83l-33 -135l-160 -83l-56 -225h336z" />
    <glyph glyph-name="Nacute" unicode="&#x143;" horiz-adv-x="776" 
d="M545 760h-116l108 146h179zM631 0h-197l-72 289c-23 94 -46 195 -66 294h-2c-19 -103 -40 -206 -66 -309l-68 -274h-141l177 712h197l72 -289c23 -94 45 -195 66 -294h2c18 103 40 206 66 309l68 274h141z" />
    <glyph glyph-name="Ncaron" unicode="&#x147;" horiz-adv-x="776" 
d="M588 760h-149l-77 146h114l42 -76l79 76h142zM631 0h-197l-72 289c-23 94 -46 195 -66 294h-2c-19 -103 -40 -206 -66 -309l-68 -274h-141l177 712h197l72 -289c23 -94 45 -195 66 -294h2c18 103 40 206 66 309l68 274h141z" />
    <glyph glyph-name="Ncommaaccent" unicode="&#x145;" horiz-adv-x="776" 
d="M631 0h-197l-72 289c-23 94 -46 195 -66 294h-2c-19 -103 -40 -206 -66 -309l-68 -274h-141l177 712h197l72 -289c23 -94 45 -195 66 -294h2c18 103 40 206 66 309l68 274h141zM346 -163l-95 -107h-56l72 107h-45l26 104h124z" />
    <glyph glyph-name="Eng" unicode="&#x14a;" horiz-adv-x="745" 
d="M778 712l-181 -726c-32 -128 -116 -179 -217 -179c-26 0 -49 3 -67 8l25 101c8 -2 18 -3 29 -3c52 0 86 28 86 89c0 23 -5 37 -26 101l-71 216c-26 77 -48 157 -66 236h-2c-14 -85 -32 -169 -53 -254l-75 -301h-141l177 712h171l87 -266c25 -77 48 -158 66 -237h2
c14 85 32 169 53 254l62 249h141z" />
    <glyph glyph-name="Ntilde" unicode="&#xd1;" horiz-adv-x="776" 
d="M661 906h78c-24 -83 -75 -135 -143 -135s-86 46 -130 46c-29 0 -46 -15 -57 -46h-80c23 83 75 135 143 135s87 -46 130 -46c30 0 47 15 59 46zM631 0h-197l-72 289c-23 94 -46 195 -66 294h-2c-19 -103 -40 -206 -66 -309l-68 -274h-141l177 712h197l72 -289
c23 -94 45 -195 66 -294h2c18 103 40 206 66 309l68 274h141z" />
    <glyph glyph-name="Oacute" unicode="&#xd3;" horiz-adv-x="748" 
d="M507 760h-116l108 146h179zM448 728c185 0 290 -119 290 -304c0 -200 -129 -440 -388 -440c-185 0 -289 119 -289 304c0 200 128 440 387 440zM442 598c-155 0 -233 -177 -233 -309c0 -108 52 -175 147 -175c155 0 234 178 234 310c0 107 -53 174 -148 174z" />
    <glyph glyph-name="Obreve" unicode="&#x14e;" horiz-adv-x="748" 
d="M581 906h107c-27 -96 -104 -151 -208 -151c-91 0 -144 45 -144 123c0 9 1 18 2 28h83c-1 -5 -1 -9 -1 -13c0 -32 24 -51 67 -51c48 0 83 24 94 64zM448 728c185 0 290 -119 290 -304c0 -200 -129 -440 -388 -440c-185 0 -289 119 -289 304c0 200 128 440 387 440z
M442 598c-155 0 -233 -177 -233 -309c0 -108 52 -175 147 -175c155 0 234 178 234 310c0 107 -53 174 -148 174z" />
    <glyph glyph-name="Ocircumflex" unicode="&#xd4;" horiz-adv-x="748" 
d="M438 906h149l77 -146h-114l-42 76l-79 -76h-142zM448 728c185 0 290 -119 290 -304c0 -200 -129 -440 -388 -440c-185 0 -289 119 -289 304c0 200 128 440 387 440zM442 598c-155 0 -233 -177 -233 -309c0 -108 52 -175 147 -175c155 0 234 178 234 310
c0 107 -53 174 -148 174z" />
    <glyph glyph-name="Odieresis" unicode="&#xd6;" horiz-adv-x="748" 
d="M431 769h-123l30 120h123zM648 769h-123l30 120h123zM448 728c185 0 290 -119 290 -304c0 -200 -129 -440 -388 -440c-185 0 -289 119 -289 304c0 200 128 440 387 440zM442 598c-155 0 -233 -177 -233 -309c0 -108 52 -175 147 -175c155 0 234 178 234 310
c0 107 -53 174 -148 174z" />
    <glyph glyph-name="Ograve" unicode="&#xd2;" horiz-adv-x="748" 
d="M561 760h-104l-109 146h167zM448 728c185 0 290 -119 290 -304c0 -200 -129 -440 -388 -440c-185 0 -289 119 -289 304c0 200 128 440 387 440zM442 598c-155 0 -233 -177 -233 -309c0 -108 52 -175 147 -175c155 0 234 178 234 310c0 107 -53 174 -148 174z" />
    <glyph glyph-name="Ohungarumlaut" unicode="&#x150;" horiz-adv-x="748" 
d="M399 760h-116l128 146h159zM589 760h-116l128 146h159zM448 728c185 0 290 -119 290 -304c0 -200 -129 -440 -388 -440c-185 0 -289 119 -289 304c0 200 128 440 387 440zM442 598c-155 0 -233 -177 -233 -309c0 -108 52 -175 147 -175c155 0 234 178 234 310
c0 107 -53 174 -148 174z" />
    <glyph glyph-name="Omacron" unicode="&#x14c;" horiz-adv-x="748" 
d="M644 778h-326l22 91h326zM448 728c185 0 290 -119 290 -304c0 -200 -129 -440 -388 -440c-185 0 -289 119 -289 304c0 200 128 440 387 440zM442 598c-155 0 -233 -177 -233 -309c0 -108 52 -175 147 -175c155 0 234 178 234 310c0 107 -53 174 -148 174z" />
    <glyph glyph-name="Oslash" unicode="&#xd8;" horiz-adv-x="748" 
d="M770 674l-74 -74c28 -48 42 -107 42 -176c0 -200 -129 -440 -388 -440c-84 0 -151 24 -200 69l-67 -68l-53 53l73 73c-28 48 -42 108 -42 177c0 200 128 440 387 440c84 0 152 -25 201 -69l68 68zM203 289c0 -25 3 -48 8 -69l340 341c-26 29 -63 45 -109 45
c-158 0 -239 -183 -239 -317zM596 424c0 24 -3 47 -8 67l-340 -341c26 -28 62 -44 108 -44c158 0 240 184 240 318z" />
    <glyph glyph-name="Otilde" unicode="&#xd5;" horiz-adv-x="748" 
d="M623 906h78c-24 -83 -75 -135 -143 -135s-86 46 -130 46c-29 0 -46 -15 -57 -46h-80c23 83 75 135 143 135s87 -46 130 -46c30 0 47 15 59 46zM448 728c185 0 290 -119 290 -304c0 -200 -129 -440 -388 -440c-185 0 -289 119 -289 304c0 200 128 440 387 440zM442 598
c-155 0 -233 -177 -233 -309c0 -108 52 -175 147 -175c155 0 234 178 234 310c0 107 -53 174 -148 174z" />
    <glyph glyph-name="OE" unicode="&#x152;" horiz-adv-x="1020" 
d="M1044 586h-345l-40 -161h322l-32 -125h-322l-43 -174h354l-31 -126h-527c-210 0 -318 108 -318 306c0 186 130 406 435 406h578zM552 586h-64c-204 0 -274 -152 -274 -271c0 -126 58 -189 179 -189h44z" />
    <glyph glyph-name="Thorn" unicode="&#xde;" horiz-adv-x="635" 
d="M313 595h82c166 0 244 -77 244 -200c0 -114 -83 -260 -288 -260h-152l-33 -135h-147l177 712h147zM283 473l-54 -216h122c102 0 136 63 136 117c0 63 -34 99 -112 99h-92z" />
    <glyph glyph-name="Racute" unicode="&#x154;" horiz-adv-x="666" 
d="M462 760h-116l108 146h179zM196 712h252c152 0 222 -62 222 -170c0 -88 -58 -184 -178 -213v-2c41 -17 59 -50 71 -137l26 -190h-152l-19 169c-9 76 -34 103 -104 103h-81l-67 -272h-147zM314 593l-51 -204h114c105 0 138 67 138 117c0 61 -34 87 -95 87h-106z" />
    <glyph glyph-name="Rcaron" unicode="&#x158;" horiz-adv-x="666" 
d="M505 760h-149l-77 146h114l42 -76l79 76h142zM196 712h252c152 0 222 -62 222 -170c0 -88 -58 -184 -178 -213v-2c41 -17 59 -50 71 -137l26 -190h-152l-19 169c-9 76 -34 103 -104 103h-81l-67 -272h-147zM314 593l-51 -204h114c105 0 138 67 138 117
c0 61 -34 87 -95 87h-106z" />
    <glyph glyph-name="Rcommaaccent" unicode="&#x156;" horiz-adv-x="666" 
d="M196 712h252c152 0 222 -62 222 -170c0 -88 -58 -184 -178 -213v-2c41 -17 59 -50 71 -137l26 -190h-152l-19 169c-9 76 -34 103 -104 103h-81l-67 -272h-147zM314 593l-51 -204h114c105 0 138 67 138 117c0 61 -34 87 -95 87h-106zM320 -163l-95 -107h-56l72 107h-45
l26 104h124z" />
    <glyph glyph-name="Sacute" unicode="&#x15a;" horiz-adv-x="630" 
d="M438 760h-116l108 146h179zM395 728c162 0 244 -61 244 -181c0 -16 -3 -34 -8 -53h-149c2 10 3 21 3 29c0 56 -36 88 -108 88c-66 0 -118 -36 -118 -86c0 -48 40 -69 129 -98c102 -34 192 -72 192 -208c0 -107 -102 -235 -301 -235c-166 0 -263 68 -263 194
c0 18 2 36 7 56h152c-3 -13 -4 -26 -4 -36c0 -62 41 -95 125 -95c90 0 128 54 128 94c0 58 -42 74 -120 102c-103 36 -199 71 -199 205c0 101 100 224 290 224z" />
    <glyph glyph-name="Scaron" unicode="&#x160;" horiz-adv-x="630" 
d="M481 760h-149l-77 146h114l42 -76l79 76h142zM395 728c162 0 244 -61 244 -181c0 -16 -3 -34 -8 -53h-149c2 10 3 21 3 29c0 56 -36 88 -108 88c-66 0 -118 -36 -118 -86c0 -48 40 -69 129 -98c102 -34 192 -72 192 -208c0 -107 -102 -235 -301 -235
c-166 0 -263 68 -263 194c0 18 2 36 7 56h152c-3 -13 -4 -26 -4 -36c0 -62 41 -95 125 -95c90 0 128 54 128 94c0 58 -42 74 -120 102c-103 36 -199 71 -199 205c0 101 100 224 290 224z" />
    <glyph glyph-name="Scedilla" unicode="&#x15e;" horiz-adv-x="630" 
d="M631 494h-149c2 10 3 21 3 29c0 56 -36 88 -108 88c-66 0 -118 -36 -118 -86c0 -48 40 -69 129 -98c102 -34 192 -72 192 -208c0 -104 -97 -228 -286 -235l-39 -44c6 2 15 3 23 3c40 0 71 -26 71 -70c0 -56 -62 -99 -141 -99c-41 0 -77 11 -106 30l25 45
c28 -16 54 -22 79 -22c34 0 57 16 57 40c0 21 -14 33 -38 33c-12 0 -23 -2 -34 -6l-20 18l65 74c-140 11 -220 77 -220 192c0 18 2 36 7 56h152c-3 -13 -4 -26 -4 -36c0 -62 41 -95 125 -95c90 0 128 54 128 94c0 58 -42 74 -120 102c-103 36 -199 71 -199 205
c0 101 100 224 290 224c162 0 244 -61 244 -181c0 -16 -3 -34 -8 -53z" />
    <glyph glyph-name="Scircumflex" unicode="&#x15c;" horiz-adv-x="630" 
d="M369 906h149l77 -146h-114l-42 76l-79 -76h-142zM395 728c162 0 244 -61 244 -181c0 -16 -3 -34 -8 -53h-149c2 10 3 21 3 29c0 56 -36 88 -108 88c-66 0 -118 -36 -118 -86c0 -48 40 -69 129 -98c102 -34 192 -72 192 -208c0 -107 -102 -235 -301 -235
c-166 0 -263 68 -263 194c0 18 2 36 7 56h152c-3 -13 -4 -26 -4 -36c0 -62 41 -95 125 -95c90 0 128 54 128 94c0 58 -42 74 -120 102c-103 36 -199 71 -199 205c0 101 100 224 290 224z" />
    <glyph glyph-name="Scommaaccent" unicode="&#x218;" horiz-adv-x="630" 
d="M395 728c162 0 244 -61 244 -181c0 -16 -3 -34 -8 -53h-149c2 10 3 21 3 29c0 56 -36 88 -108 88c-66 0 -118 -36 -118 -86c0 -48 40 -69 129 -98c102 -34 192 -72 192 -208c0 -107 -102 -235 -301 -235c-166 0 -263 68 -263 194c0 18 2 36 7 56h152
c-3 -13 -4 -26 -4 -36c0 -62 41 -95 125 -95c90 0 128 54 128 94c0 58 -42 74 -120 102c-103 36 -199 71 -199 205c0 101 100 224 290 224zM286 -163l-95 -107h-56l72 107h-45l26 104h124z" />
    <glyph glyph-name="Germandbls" unicode="&#x1e9e;" horiz-adv-x="801" 
d="M785 582l-185 -163c95 -34 148 -99 148 -198c0 -110 -89 -235 -278 -235c-138 0 -210 51 -210 153c0 16 2 34 6 53h141c-2 -10 -3 -17 -3 -25c0 -40 26 -61 79 -61c81 0 112 58 112 104c0 75 -61 112 -172 121l25 100l153 135c-24 25 -64 40 -112 40
c-119 0 -198 -65 -231 -194l-102 -412h-147l105 421c50 201 188 305 395 305c133 0 229 -58 276 -144z" />
    <glyph glyph-name="Tbar" unicode="&#x166;" horiz-adv-x="615" 
d="M464 586l-46 -186h134l-26 -106h-135l-73 -294h-147l73 294h-135l26 106h136l46 186h-224l31 126h595l-31 -126h-224z" />
    <glyph glyph-name="Tcaron" unicode="&#x164;" horiz-adv-x="615" 
d="M494 760h-149l-77 146h114l42 -76l79 76h142zM688 586h-224l-146 -586h-147l146 586h-224l31 126h595z" />
    <glyph glyph-name="Tcedilla" unicode="&#x162;" horiz-adv-x="615" 
d="M688 586h-224l-146 -586h-147l146 586h-224l31 126h595zM271 -163l-95 -107h-56l72 107h-45l26 104h124z" />
    <glyph glyph-name="Tcommaaccent" unicode="&#x21a;" horiz-adv-x="615" 
d="M688 586h-224l-146 -586h-147l146 586h-224l31 126h595zM271 -163l-95 -107h-56l72 107h-45l26 104h124z" />
    <glyph glyph-name="Uacute" unicode="&#xda;" horiz-adv-x="718" 
d="M506 760h-116l108 146h179zM756 712l-120 -482c-40 -160 -153 -246 -314 -246c-158 0 -245 83 -245 232c0 29 4 61 13 97l100 399h147l-105 -423c-6 -24 -9 -45 -9 -64c0 -73 38 -111 111 -111c82 0 140 53 164 151l111 447h147z" />
    <glyph glyph-name="Ubreve" unicode="&#x16c;" horiz-adv-x="718" 
d="M580 906h107c-27 -96 -104 -151 -208 -151c-91 0 -144 45 -144 123c0 9 1 18 2 28h83c-1 -5 -1 -9 -1 -13c0 -32 24 -51 67 -51c48 0 83 24 94 64zM756 712l-120 -482c-40 -160 -153 -246 -314 -246c-158 0 -245 83 -245 232c0 29 4 61 13 97l100 399h147l-105 -423
c-6 -24 -9 -45 -9 -64c0 -73 38 -111 111 -111c82 0 140 53 164 151l111 447h147z" />
    <glyph glyph-name="Ucircumflex" unicode="&#xdb;" horiz-adv-x="718" 
d="M437 906h149l77 -146h-114l-42 76l-79 -76h-142zM756 712l-120 -482c-40 -160 -153 -246 -314 -246c-158 0 -245 83 -245 232c0 29 4 61 13 97l100 399h147l-105 -423c-6 -24 -9 -45 -9 -64c0 -73 38 -111 111 -111c82 0 140 53 164 151l111 447h147z" />
    <glyph glyph-name="Udieresis" unicode="&#xdc;" horiz-adv-x="718" 
d="M430 769h-123l30 120h123zM647 769h-123l30 120h123zM756 712l-120 -482c-40 -160 -153 -246 -314 -246c-158 0 -245 83 -245 232c0 29 4 61 13 97l100 399h147l-105 -423c-6 -24 -9 -45 -9 -64c0 -73 38 -111 111 -111c82 0 140 53 164 151l111 447h147z" />
    <glyph glyph-name="Ugrave" unicode="&#xd9;" horiz-adv-x="718" 
d="M560 760h-104l-109 146h167zM756 712l-120 -482c-40 -160 -153 -246 -314 -246c-158 0 -245 83 -245 232c0 29 4 61 13 97l100 399h147l-105 -423c-6 -24 -9 -45 -9 -64c0 -73 38 -111 111 -111c82 0 140 53 164 151l111 447h147z" />
    <glyph glyph-name="Uhungarumlaut" unicode="&#x170;" horiz-adv-x="718" 
d="M398 760h-116l128 146h159zM588 760h-116l128 146h159zM756 712l-120 -482c-40 -160 -153 -246 -314 -246c-158 0 -245 83 -245 232c0 29 4 61 13 97l100 399h147l-105 -423c-6 -24 -9 -45 -9 -64c0 -73 38 -111 111 -111c82 0 140 53 164 151l111 447h147z" />
    <glyph glyph-name="Umacron" unicode="&#x16a;" horiz-adv-x="718" 
d="M643 778h-326l22 91h326zM756 712l-120 -482c-40 -160 -153 -246 -314 -246c-158 0 -245 83 -245 232c0 29 4 61 13 97l100 399h147l-105 -423c-6 -24 -9 -45 -9 -64c0 -73 38 -111 111 -111c82 0 140 53 164 151l111 447h147z" />
    <glyph glyph-name="Uogonek" unicode="&#x172;" horiz-adv-x="718" 
d="M756 712l-120 -482c-22 -89 -67 -154 -129 -197c-103 -71 -127 -98 -127 -131c0 -14 9 -21 28 -21c12 0 26 2 37 6l-19 -75c-18 -5 -43 -9 -69 -9c-69 0 -103 27 -103 75c0 37 24 71 76 104v2h-8c-161 0 -245 80 -245 232c0 29 4 61 13 97l100 399h147l-105 -423
c-6 -24 -9 -45 -9 -64c0 -73 38 -111 111 -111c82 0 140 53 164 151l111 447h147z" />
    <glyph glyph-name="Uring" unicode="&#x16e;" horiz-adv-x="718" 
d="M489 966c60 0 108 -48 108 -108s-48 -108 -108 -108s-108 48 -108 108s48 108 108 108zM489 912c-30 0 -54 -24 -54 -54s24 -54 54 -54s54 24 54 54s-24 54 -54 54zM756 712l-120 -482c-40 -160 -153 -246 -314 -246c-158 0 -245 83 -245 232c0 29 4 61 13 97l100 399
h147l-105 -423c-6 -24 -9 -45 -9 -64c0 -73 38 -111 111 -111c82 0 140 53 164 151l111 447h147z" />
    <glyph glyph-name="Utilde" unicode="&#x168;" horiz-adv-x="718" 
d="M622 906h78c-24 -83 -75 -135 -143 -135s-86 46 -130 46c-29 0 -46 -15 -57 -46h-80c23 83 75 135 143 135s87 -46 130 -46c30 0 47 15 59 46zM756 712l-120 -482c-40 -160 -153 -246 -314 -246c-158 0 -245 83 -245 232c0 29 4 61 13 97l100 399h147l-105 -423
c-6 -24 -9 -45 -9 -64c0 -73 38 -111 111 -111c82 0 140 53 164 151l111 447h147z" />
    <glyph glyph-name="Wacute" unicode="&#x1e82;" horiz-adv-x="956" 
d="M628 760h-116l108 146h179zM735 0h-191l4 282c1 101 6 203 14 305h-2c-42 -102 -89 -204 -138 -305l-136 -282h-191l28 712h137l-13 -259c-5 -102 -14 -207 -25 -308h2c43 101 92 205 142 308l126 259h186l-2 -259c-1 -103 -5 -207 -12 -308h2c39 101 84 206 129 308
l115 259h151z" />
    <glyph glyph-name="Wcircumflex" unicode="&#x174;" horiz-adv-x="956" 
d="M559 906h149l77 -146h-114l-42 76l-79 -76h-142zM735 0h-191l4 282c1 101 6 203 14 305h-2c-42 -102 -89 -204 -138 -305l-136 -282h-191l28 712h137l-13 -259c-5 -102 -14 -207 -25 -308h2c43 101 92 205 142 308l126 259h186l-2 -259c-1 -103 -5 -207 -12 -308h2
c39 101 84 206 129 308l115 259h151z" />
    <glyph glyph-name="Wdieresis" unicode="&#x1e84;" horiz-adv-x="956" 
d="M552 769h-123l30 120h123zM769 769h-123l30 120h123zM735 0h-191l4 282c1 101 6 203 14 305h-2c-42 -102 -89 -204 -138 -305l-136 -282h-191l28 712h137l-13 -259c-5 -102 -14 -207 -25 -308h2c43 101 92 205 142 308l126 259h186l-2 -259c-1 -103 -5 -207 -12 -308h2
c39 101 84 206 129 308l115 259h151z" />
    <glyph glyph-name="Wgrave" unicode="&#x1e80;" horiz-adv-x="956" 
d="M682 760h-104l-109 146h167zM735 0h-191l4 282c1 101 6 203 14 305h-2c-42 -102 -89 -204 -138 -305l-136 -282h-191l28 712h137l-13 -259c-5 -102 -14 -207 -25 -308h2c43 101 92 205 142 308l126 259h186l-2 -259c-1 -103 -5 -207 -12 -308h2c39 101 84 206 129 308
l115 259h151z" />
    <glyph glyph-name="Yacute" unicode="&#xdd;" horiz-adv-x="638" 
d="M450 760h-116l108 146h179zM398 277l-69 -277h-147l69 277l-135 435h149l35 -134c15 -59 28 -120 39 -181h2c39 61 82 122 127 181l101 134h180z" />
    <glyph glyph-name="Ycircumflex" unicode="&#x176;" horiz-adv-x="638" 
d="M381 906h149l77 -146h-114l-42 76l-79 -76h-142zM398 277l-69 -277h-147l69 277l-135 435h149l35 -134c15 -59 28 -120 39 -181h2c39 61 82 122 127 181l101 134h180z" />
    <glyph glyph-name="Ydieresis" unicode="&#x178;" horiz-adv-x="638" 
d="M374 769h-123l30 120h123zM591 769h-123l30 120h123zM398 277l-69 -277h-147l69 277l-135 435h149l35 -134c15 -59 28 -120 39 -181h2c39 61 82 122 127 181l101 134h180z" />
    <glyph glyph-name="Ygrave" unicode="&#x1ef2;" horiz-adv-x="638" 
d="M504 760h-104l-109 146h167zM398 277l-69 -277h-147l69 277l-135 435h149l35 -134c15 -59 28 -120 39 -181h2c39 61 82 122 127 181l101 134h180z" />
    <glyph glyph-name="Zacute" unicode="&#x179;" horiz-adv-x="582" 
d="M438 760h-116l108 146h179zM625 575l-456 -449v-2h361l-31 -124h-542l34 137l456 449v2h-328l31 124h509z" />
    <glyph glyph-name="Zcaron" unicode="&#x17d;" horiz-adv-x="582" 
d="M481 760h-149l-77 146h114l42 -76l79 76h142zM625 575l-456 -449v-2h361l-31 -124h-542l34 137l456 449v2h-328l31 124h509z" />
    <glyph glyph-name="Zdotaccent" unicode="&#x17b;" horiz-adv-x="582" 
d="M479 769h-140l30 120h140zM625 575l-456 -449v-2h361l-31 -124h-542l34 137l456 449v2h-328l31 124h509z" />
    <glyph glyph-name="J.acute.loclNLD" horiz-adv-x="392" 
d="M402 770h-116l107 146h179zM429 712l-125 -501c-37 -149 -123 -218 -279 -218c-27 0 -54 4 -73 10l31 123c13 -3 30 -5 40 -5c76 0 119 26 148 145l111 446h147z" />
    <glyph glyph-name="Ccedilla.ss01" horiz-adv-x="702" 
d="M453 728c158 0 256 -92 256 -233c0 -14 -1 -29 -4 -44h-148c1 9 2 17 2 28c0 74 -44 119 -119 119c-154 0 -230 -182 -230 -316c0 -100 43 -168 130 -168c72 0 139 45 169 122h151c-50 -160 -175 -252 -333 -252c-172 0 -269 112 -269 288c0 202 128 456 395 456z
M249 -217h-169l175 168h126z" />
    <glyph glyph-name="Scedilla.ss01" horiz-adv-x="630" 
d="M395 728c162 0 244 -61 244 -181c0 -16 -3 -34 -8 -53h-149c2 10 3 21 3 29c0 56 -36 88 -108 88c-66 0 -118 -36 -118 -86c0 -48 40 -69 129 -98c102 -34 192 -72 192 -208c0 -107 -102 -235 -301 -235c-166 0 -263 68 -263 194c0 18 2 36 7 56h152
c-3 -13 -4 -26 -4 -36c0 -62 41 -95 125 -95c90 0 128 54 128 94c0 58 -42 74 -120 102c-103 36 -199 71 -199 205c0 101 100 224 290 224zM193 -217h-169l175 168h126z" />
    <glyph glyph-name="Tcedilla.ss01" horiz-adv-x="615" 
d="M688 586h-224l-146 -586h-147l146 586h-224l31 126h595zM178 -217h-169l175 168h126z" />
    <glyph glyph-name="aacute" unicode="&#xe1;" horiz-adv-x="547" 
d="M360 566h-116l107 146h179zM311 524c130 0 195 -53 195 -158c0 -20 -3 -43 -9 -67l-40 -160c-16 -64 -22 -105 -21 -139h-122c0 18 2 38 8 59h-2c-49 -48 -107 -71 -171 -71c-100 0 -152 55 -152 135c0 75 49 154 231 181c42 6 103 12 138 14l3 12c3 12 5 23 5 33
c0 44 -28 63 -72 63c-50 0 -85 -29 -95 -77h-136c21 97 106 175 240 175zM337 201l8 32c-31 -2 -73 -6 -105 -11c-75 -12 -98 -43 -98 -80c0 -33 22 -54 64 -54c68 0 113 41 131 113z" />
    <glyph glyph-name="abreve" unicode="&#x103;" horiz-adv-x="547" 
d="M433 712h107c-27 -96 -104 -151 -208 -151c-91 0 -144 45 -144 123c0 9 1 18 2 28h83c-1 -5 -1 -9 -1 -13c0 -32 24 -51 67 -51c48 0 83 24 94 64zM311 524c130 0 195 -53 195 -158c0 -20 -3 -43 -9 -67l-40 -160c-16 -64 -22 -105 -21 -139h-122c0 18 2 38 8 59h-2
c-49 -48 -107 -71 -171 -71c-100 0 -152 55 -152 135c0 75 49 154 231 181c42 6 103 12 138 14l3 12c3 12 5 23 5 33c0 44 -28 63 -72 63c-50 0 -85 -29 -95 -77h-136c21 97 106 175 240 175zM337 201l8 32c-31 -2 -73 -6 -105 -11c-75 -12 -98 -43 -98 -80
c0 -33 22 -54 64 -54c68 0 113 41 131 113z" />
    <glyph glyph-name="acircumflex" unicode="&#xe2;" horiz-adv-x="547" 
d="M517 566h-118l-42 76l-79 -76h-138l150 146h149zM311 524c130 0 195 -53 195 -158c0 -20 -3 -43 -9 -67l-40 -160c-16 -64 -22 -105 -21 -139h-122c0 18 2 38 8 59h-2c-49 -48 -107 -71 -171 -71c-100 0 -152 55 -152 135c0 75 49 154 231 181c42 6 103 12 138 14l3 12
c3 12 5 23 5 33c0 44 -28 63 -72 63c-50 0 -85 -29 -95 -77h-136c21 97 106 175 240 175zM337 201l8 32c-31 -2 -73 -6 -105 -11c-75 -12 -98 -43 -98 -80c0 -33 22 -54 64 -54c68 0 113 41 131 113z" />
    <glyph glyph-name="adieresis" unicode="&#xe4;" horiz-adv-x="547" 
d="M288 592h-123l30 120h123zM505 592h-123l30 120h123zM311 524c130 0 195 -53 195 -158c0 -20 -3 -43 -9 -67l-40 -160c-16 -64 -22 -105 -21 -139h-122c0 18 2 38 8 59h-2c-49 -48 -107 -71 -171 -71c-100 0 -152 55 -152 135c0 75 49 154 231 181c42 6 103 12 138 14
l3 12c3 12 5 23 5 33c0 44 -28 63 -72 63c-50 0 -85 -29 -95 -77h-136c21 97 106 175 240 175zM337 201l8 32c-31 -2 -73 -6 -105 -11c-75 -12 -98 -43 -98 -80c0 -33 22 -54 64 -54c68 0 113 41 131 113z" />
    <glyph glyph-name="agrave" unicode="&#xe0;" horiz-adv-x="547" 
d="M367 712l47 -146h-104l-110 146h167zM311 524c130 0 195 -53 195 -158c0 -20 -3 -43 -9 -67l-40 -160c-16 -64 -22 -105 -21 -139h-122c0 18 2 38 8 59h-2c-49 -48 -107 -71 -171 -71c-100 0 -152 55 -152 135c0 75 49 154 231 181c42 6 103 12 138 14l3 12
c3 12 5 23 5 33c0 44 -28 63 -72 63c-50 0 -85 -29 -95 -77h-136c21 97 106 175 240 175zM337 201l8 32c-31 -2 -73 -6 -105 -11c-75 -12 -98 -43 -98 -80c0 -33 22 -54 64 -54c68 0 113 41 131 113z" />
    <glyph glyph-name="amacron" unicode="&#x101;" horiz-adv-x="547" 
d="M500 598h-326l22 91h326zM311 524c130 0 195 -53 195 -158c0 -20 -3 -43 -9 -67l-40 -160c-16 -64 -22 -105 -21 -139h-122c0 18 2 38 8 59h-2c-49 -48 -107 -71 -171 -71c-100 0 -152 55 -152 135c0 75 49 154 231 181c42 6 103 12 138 14l3 12c3 12 5 23 5 33
c0 44 -28 63 -72 63c-50 0 -85 -29 -95 -77h-136c21 97 106 175 240 175zM337 201l8 32c-31 -2 -73 -6 -105 -11c-75 -12 -98 -43 -98 -80c0 -33 22 -54 64 -54c68 0 113 41 131 113z" />
    <glyph glyph-name="aogonek" unicode="&#x105;" horiz-adv-x="547" 
d="M311 524c130 0 195 -53 195 -158c0 -20 -3 -43 -9 -67l-40 -160c-16 -64 -22 -105 -21 -139c-75 -44 -91 -72 -91 -98c0 -14 9 -21 28 -21c12 0 26 2 37 6l-19 -75c-18 -5 -43 -9 -69 -9c-69 0 -103 27 -103 75c0 44 34 83 107 122h-12c0 18 2 38 8 59h-2
c-49 -48 -107 -71 -171 -71c-100 0 -152 55 -152 135c0 75 49 154 231 181c42 6 103 12 138 14l3 12c3 12 5 23 5 33c0 44 -28 63 -72 63c-50 0 -85 -29 -95 -77h-136c21 97 106 175 240 175zM206 88c68 0 113 41 131 113l8 32c-31 -2 -73 -6 -105 -11
c-75 -12 -98 -43 -98 -80c0 -33 22 -54 64 -54z" />
    <glyph glyph-name="aring" unicode="&#xe5;" horiz-adv-x="547" 
d="M343 772c60 0 108 -48 108 -108s-48 -108 -108 -108s-108 48 -108 108s48 108 108 108zM343 718c-30 0 -54 -24 -54 -54s24 -54 54 -54s54 24 54 54s-24 54 -54 54zM311 524c130 0 195 -53 195 -158c0 -20 -3 -43 -9 -67l-40 -160c-16 -64 -22 -105 -21 -139h-122
c0 18 2 38 8 59h-2c-49 -48 -107 -71 -171 -71c-100 0 -152 55 -152 135c0 75 49 154 231 181c42 6 103 12 138 14l3 12c3 12 5 23 5 33c0 44 -28 63 -72 63c-50 0 -85 -29 -95 -77h-136c21 97 106 175 240 175zM337 201l8 32c-31 -2 -73 -6 -105 -11
c-75 -12 -98 -43 -98 -80c0 -33 22 -54 64 -54c68 0 113 41 131 113z" />
    <glyph glyph-name="atilde" unicode="&#xe3;" horiz-adv-x="547" 
d="M475 712h78c-24 -83 -75 -135 -143 -135s-85 46 -129 46c-29 0 -46 -15 -57 -46h-80c23 83 75 135 143 135s86 -46 129 -46c30 0 47 15 59 46zM311 524c130 0 195 -53 195 -158c0 -20 -3 -43 -9 -67l-40 -160c-16 -64 -22 -105 -21 -139h-122c0 18 2 38 8 59h-2
c-49 -48 -107 -71 -171 -71c-100 0 -152 55 -152 135c0 75 49 154 231 181c42 6 103 12 138 14l3 12c3 12 5 23 5 33c0 44 -28 63 -72 63c-50 0 -85 -29 -95 -77h-136c21 97 106 175 240 175zM337 201l8 32c-31 -2 -73 -6 -105 -11c-75 -12 -98 -43 -98 -80
c0 -33 22 -54 64 -54c68 0 113 41 131 113z" />
    <glyph glyph-name="ae" unicode="&#xe6;" horiz-adv-x="879" 
d="M837 225h-354c-3 -16 -4 -30 -4 -43c0 -72 39 -99 87 -99c49 0 89 30 103 71h143c-38 -93 -134 -170 -254 -170c-85 0 -143 34 -174 92c-52 -62 -123 -92 -199 -92c-123 0 -187 59 -187 143c0 82 63 181 286 181h88l4 16c3 13 5 24 5 34c0 49 -28 68 -77 68
c-52 0 -88 -29 -98 -77h-136c21 97 106 175 238 175c80 0 134 -21 164 -62c44 38 99 62 167 62c140 0 210 -83 210 -207c0 -25 -3 -53 -12 -92zM631 425c-52 0 -100 -35 -126 -112h212c1 8 2 15 2 22c0 62 -37 90 -88 90zM352 225h-73c-118 0 -139 -45 -139 -83
c0 -35 23 -58 72 -58c73 0 115 42 136 125z" />
    <glyph glyph-name="cacute" unicode="&#x107;" horiz-adv-x="562" 
d="M380 566h-116l107 146h179zM330 524c136 0 214 -77 214 -188c0 -9 0 -18 -2 -27h-146c1 5 2 13 2 19c0 55 -28 88 -76 88c-96 0 -146 -132 -146 -208c0 -73 29 -116 84 -116c49 0 93 37 111 97h147c-38 -123 -143 -205 -266 -205c-138 0 -219 84 -219 223
c0 135 97 317 297 317z" />
    <glyph glyph-name="ccaron" unicode="&#x10d;" horiz-adv-x="562" 
d="M423 566h-149l-78 146h118l42 -76l79 76h138zM330 524c136 0 214 -77 214 -188c0 -9 0 -18 -2 -27h-146c1 5 2 13 2 19c0 55 -28 88 -76 88c-96 0 -146 -132 -146 -208c0 -73 29 -116 84 -116c49 0 93 37 111 97h147c-38 -123 -143 -205 -266 -205
c-138 0 -219 84 -219 223c0 135 97 317 297 317z" />
    <glyph glyph-name="ccedilla" unicode="&#xe7;" horiz-adv-x="562" 
d="M542 309h-146c1 5 2 13 2 19c0 55 -28 88 -76 88c-96 0 -146 -132 -146 -208c0 -73 29 -116 84 -116c49 0 93 37 111 97h147c-35 -114 -128 -193 -240 -204l-40 -45c6 2 15 3 23 3c40 0 71 -26 71 -70c0 -56 -62 -99 -141 -99c-41 0 -77 11 -106 30l25 45
c28 -16 54 -22 79 -22c34 0 57 16 57 40c0 21 -14 33 -38 33c-12 0 -23 -2 -34 -6l-20 18l65 74c-118 12 -186 93 -186 221c0 135 97 317 297 317c136 0 214 -77 214 -188c0 -9 0 -18 -2 -27z" />
    <glyph glyph-name="ccircumflex" unicode="&#x109;" horiz-adv-x="562" 
d="M537 566h-118l-42 76l-79 -76h-138l150 146h149zM330 524c136 0 214 -77 214 -188c0 -9 0 -18 -2 -27h-146c1 5 2 13 2 19c0 55 -28 88 -76 88c-96 0 -146 -132 -146 -208c0 -73 29 -116 84 -116c49 0 93 37 111 97h147c-38 -123 -143 -205 -266 -205
c-138 0 -219 84 -219 223c0 135 97 317 297 317z" />
    <glyph glyph-name="cdotaccent" unicode="&#x10b;" horiz-adv-x="562" 
d="M425 592h-140l30 120h140zM330 524c136 0 214 -77 214 -188c0 -9 0 -18 -2 -27h-146c1 5 2 13 2 19c0 55 -28 88 -76 88c-96 0 -146 -132 -146 -208c0 -73 29 -116 84 -116c49 0 93 37 111 97h147c-38 -123 -143 -205 -266 -205c-138 0 -219 84 -219 223
c0 135 97 317 297 317z" />
    <glyph glyph-name="eth" unicode="&#xf0;" horiz-adv-x="590" 
d="M563 664l-111 -40c68 -88 110 -190 110 -298c0 -154 -103 -342 -311 -342c-139 0 -219 85 -220 222c1 127 101 302 283 302c28 0 52 -5 70 -12l1 2c-16 27 -35 54 -57 80l-144 -52l-22 60l120 44c-15 14 -29 28 -44 41l114 57c20 -17 38 -34 56 -53l133 49zM260 92
c102 0 155 131 155 210c0 72 -31 114 -88 114c-99 0 -150 -136 -151 -218c1 -67 30 -106 84 -106z" />
    <glyph glyph-name="dcaron" unicode="&#x10f;" horiz-adv-x="596" 
d="M465 0h-136l12 46h-2c-39 -38 -89 -59 -135 -59c-112 0 -176 75 -176 198c0 142 96 336 275 336c60 0 110 -28 131 -78h2l66 269h140zM706 535h-79l70 177h111zM318 414c-93 0 -142 -120 -142 -208c0 -70 29 -112 82 -112c93 0 142 120 142 208c0 70 -29 112 -82 112z
" />
    <glyph glyph-name="dcroat" unicode="&#x111;" horiz-adv-x="590" 
d="M676 576h-68l-143 -576h-136l12 46h-2c-39 -38 -89 -59 -135 -59c-112 0 -176 75 -176 198c0 142 96 336 275 336c60 0 110 -28 131 -78h2l33 133h-119l18 72h118l16 64h140l-16 -64h68zM258 94c93 0 142 120 142 208c0 70 -29 112 -82 112c-93 0 -142 -120 -142 -208
c0 -70 29 -112 82 -112z" />
    <glyph glyph-name="eacute" unicode="&#xe9;" horiz-adv-x="573" 
d="M375 566h-116l107 146h179zM328 524c143 0 215 -83 215 -207c0 -25 -3 -53 -12 -92h-364c-3 -16 -4 -30 -4 -43c0 -72 41 -99 92 -99s93 30 108 71h143c-39 -93 -137 -170 -259 -170c-144 0 -216 84 -216 215c0 140 100 325 297 325zM320 425c-54 0 -104 -35 -131 -112
h222c1 8 2 15 2 22c0 62 -39 90 -93 90z" />
    <glyph glyph-name="ebreve" unicode="&#x115;" horiz-adv-x="573" 
d="M347 561c-91 0 -144 45 -144 123c0 9 1 18 2 28h83c-1 -5 -1 -9 -1 -13c0 -32 24 -51 67 -51c48 0 83 24 94 64h107c-27 -96 -104 -151 -208 -151zM328 524c143 0 215 -83 215 -207c0 -25 -3 -53 -12 -92h-364c-3 -16 -4 -30 -4 -43c0 -72 41 -99 92 -99s93 30 108 71
h143c-39 -93 -137 -170 -259 -170c-144 0 -216 84 -216 215c0 140 100 325 297 325zM320 425c-54 0 -104 -35 -131 -112h222c1 8 2 15 2 22c0 62 -39 90 -93 90z" />
    <glyph glyph-name="ecaron" unicode="&#x11b;" horiz-adv-x="573" 
d="M269 566l-78 146h118l42 -76l79 76h138l-150 -146h-149zM328 524c143 0 215 -83 215 -207c0 -25 -3 -53 -12 -92h-364c-3 -16 -4 -30 -4 -43c0 -72 41 -99 92 -99s93 30 108 71h143c-39 -93 -137 -170 -259 -170c-144 0 -216 84 -216 215c0 140 100 325 297 325zM320 425
c-54 0 -104 -35 -131 -112h222c1 8 2 15 2 22c0 62 -39 90 -93 90z" />
    <glyph glyph-name="ecircumflex" unicode="&#xea;" horiz-adv-x="573" 
d="M293 566h-138l150 146h149l78 -146h-118l-42 76zM531 225h-364c-3 -16 -4 -30 -4 -43c0 -72 41 -99 92 -99s93 30 108 71h143c-39 -93 -137 -170 -259 -170c-144 0 -216 84 -216 215c0 140 100 325 297 325c143 0 215 -83 215 -207c0 -25 -3 -53 -12 -92zM320 425
c-54 0 -104 -35 -131 -112h222c1 8 2 15 2 22c0 62 -39 90 -93 90z" />
    <glyph glyph-name="edieresis" unicode="&#xeb;" horiz-adv-x="573" 
d="M303 592h-123l30 120h123zM520 592h-123l30 120h123zM328 524c143 0 215 -83 215 -207c0 -25 -3 -53 -12 -92h-364c-3 -16 -4 -30 -4 -43c0 -72 41 -99 92 -99s93 30 108 71h143c-39 -93 -137 -170 -259 -170c-144 0 -216 84 -216 215c0 140 100 325 297 325zM320 425
c-54 0 -104 -35 -131 -112h222c1 8 2 15 2 22c0 62 -39 90 -93 90z" />
    <glyph glyph-name="edotaccent" unicode="&#x117;" horiz-adv-x="573" 
d="M420 592h-140l30 120h140zM531 225h-364c-3 -16 -4 -30 -4 -43c0 -72 41 -99 92 -99s93 30 108 71h143c-39 -93 -137 -170 -259 -170c-144 0 -216 84 -216 215c0 140 100 325 297 325c143 0 215 -83 215 -207c0 -25 -3 -53 -12 -92zM320 425c-54 0 -104 -35 -131 -112
h222c1 8 2 15 2 22c0 62 -39 90 -93 90z" />
    <glyph glyph-name="egrave" unicode="&#xe8;" horiz-adv-x="573" 
d="M325 566l-110 146h167l47 -146h-104zM531 225h-364c-3 -16 -4 -30 -4 -43c0 -72 41 -99 92 -99s93 30 108 71h143c-39 -93 -137 -170 -259 -170c-144 0 -216 84 -216 215c0 140 100 325 297 325c143 0 215 -83 215 -207c0 -25 -3 -53 -12 -92zM320 425
c-54 0 -104 -35 -131 -112h222c1 8 2 15 2 22c0 62 -39 90 -93 90z" />
    <glyph glyph-name="emacron" unicode="&#x113;" horiz-adv-x="573" 
d="M515 598h-326l22 91h326zM531 225h-364c-3 -16 -4 -30 -4 -43c0 -72 41 -99 92 -99s93 30 108 71h143c-39 -93 -137 -170 -259 -170c-144 0 -216 84 -216 215c0 140 100 325 297 325c143 0 215 -83 215 -207c0 -25 -3 -53 -12 -92zM320 425c-54 0 -104 -35 -131 -112h222
c1 8 2 15 2 22c0 62 -39 90 -93 90z" />
    <glyph glyph-name="eogonek" unicode="&#x119;" horiz-adv-x="573" 
d="M531 225h-364c-3 -16 -4 -30 -4 -43c0 -72 41 -99 92 -99s93 30 108 71h143c-23 -54 -64 -96 -115 -135c-73 -56 -91 -85 -91 -117c0 -14 9 -21 28 -21c12 0 26 2 37 6l-19 -75c-18 -5 -43 -9 -69 -9c-69 0 -103 27 -103 75c0 38 24 71 76 104v2h-3
c-144 0 -216 84 -216 215c0 140 100 325 297 325c143 0 215 -83 215 -207c0 -25 -3 -53 -12 -92zM320 425c-54 0 -104 -35 -131 -112h222c1 8 2 15 2 22c0 62 -39 90 -93 90z" />
    <glyph glyph-name="gbreve" unicode="&#x11f;" horiz-adv-x="591" 
d="M459 712h107c-27 -96 -104 -151 -208 -151c-91 0 -144 45 -144 123c0 9 1 18 2 28h83c-1 -5 -1 -9 -1 -13c0 -32 24 -51 67 -51c48 0 83 24 94 64zM292 522c75 0 121 -39 141 -90h2l19 76h132l-126 -508c-33 -132 -138 -194 -270 -194c-139 0 -207 50 -207 135
c0 9 1 17 3 27h136c-1 -4 -1 -8 -1 -12c0 -32 27 -50 77 -50c61 0 108 27 131 115l9 37h-2c-42 -36 -84 -52 -135 -52c-107 0 -168 76 -168 202c0 133 91 314 259 314zM309 407c-84 0 -128 -110 -128 -178c0 -67 30 -108 81 -108c88 0 133 104 133 177c0 67 -32 109 -86 109
z" />
    <glyph glyph-name="gcircumflex" unicode="&#x11d;" horiz-adv-x="591" 
d="M543 566h-118l-42 76l-79 -76h-138l150 146h149zM292 522c75 0 121 -39 141 -90h2l19 76h132l-126 -508c-33 -132 -138 -194 -270 -194c-139 0 -207 50 -207 135c0 9 1 17 3 27h136c-1 -4 -1 -8 -1 -12c0 -32 27 -50 77 -50c61 0 108 27 131 115l9 37h-2
c-42 -36 -84 -52 -135 -52c-107 0 -168 76 -168 202c0 133 91 314 259 314zM309 407c-84 0 -128 -110 -128 -178c0 -67 30 -108 81 -108c88 0 133 104 133 177c0 67 -32 109 -86 109z" />
    <glyph glyph-name="gcommaaccent" unicode="&#x123;" horiz-adv-x="591" 
d="M400 681h45l-25 -104h-124l25 104l95 107h56zM292 522c75 0 121 -39 141 -90h2l19 76h132l-126 -508c-33 -132 -138 -194 -270 -194c-139 0 -207 50 -207 135c0 9 1 17 3 27h136c-1 -4 -1 -8 -1 -12c0 -32 27 -50 77 -50c61 0 108 27 131 115l9 37h-2
c-42 -36 -84 -52 -135 -52c-107 0 -168 76 -168 202c0 133 91 314 259 314zM309 407c-84 0 -128 -110 -128 -178c0 -67 30 -108 81 -108c88 0 133 104 133 177c0 67 -32 109 -86 109z" />
    <glyph glyph-name="gdotaccent" unicode="&#x121;" horiz-adv-x="591" 
d="M431 592h-140l30 120h140zM292 522c75 0 121 -39 141 -90h2l19 76h132l-126 -508c-33 -132 -138 -194 -270 -194c-139 0 -207 50 -207 135c0 9 1 17 3 27h136c-1 -4 -1 -8 -1 -12c0 -32 27 -50 77 -50c61 0 108 27 131 115l9 37h-2c-42 -36 -84 -52 -135 -52
c-107 0 -168 76 -168 202c0 133 91 314 259 314zM309 407c-84 0 -128 -110 -128 -178c0 -67 30 -108 81 -108c88 0 133 104 133 177c0 67 -32 109 -86 109z" />
    <glyph glyph-name="hbar" unicode="&#x127;" 
d="M403 520c96 0 155 -51 155 -150c0 -22 -3 -46 -10 -73l-74 -297h-140l73 294c5 20 7 37 7 52c0 44 -24 64 -67 64c-58 0 -111 -46 -134 -138l-68 -272h-140l143 576h-74l16 64h74l18 72h140l-18 -72h112l-16 -64h-112l-29 -115h2c39 36 88 59 142 59z" />
    <glyph glyph-name="hcircumflex" unicode="&#x125;" 
d="M387 906h149l77 -146h-114l-42 76l-79 -76h-142zM259 461h2c39 36 88 59 142 59c96 0 155 -51 155 -150c0 -22 -3 -46 -10 -73l-74 -297h-140l73 294c5 20 7 37 7 52c0 44 -24 64 -67 64c-58 0 -111 -46 -134 -138l-68 -272h-140l177 712h140z" />
    <glyph glyph-name="dotlessi" unicode="&#x131;" horiz-adv-x="276" 
d="M145 0h-140l126 508h140z" />
    <glyph glyph-name="iacute" unicode="&#xed;" horiz-adv-x="276" 
d="M247 566h-116l107 146h179zM145 0h-140l126 508h140z" />
    <glyph glyph-name="ibreve" unicode="&#x12d;" horiz-adv-x="276" 
d="M310 712h101c-26 -96 -97 -151 -192 -151c-82 0 -129 44 -129 119c0 11 1 22 3 32h81c-1 -5 -1 -10 -1 -15c0 -31 19 -49 55 -49c42 0 71 24 82 64zM145 0h-140l126 508h140z" />
    <glyph glyph-name="icircumflex" unicode="&#xee;" horiz-adv-x="276" 
d="M389 567h-110l-34 77l-72 -77h-131l139 145h141zM145 0h-140l126 508h140z" />
    <glyph glyph-name="idieresis" unicode="&#xef;" horiz-adv-x="276" 
d="M197 592h-123l30 120h123zM370 592h-123l30 120h123zM145 0h-140l126 508h140z" />
    <glyph glyph-name="idotaccent" horiz-adv-x="276" 
d="M292 592h-140l30 120h140zM145 0h-140l126 508h140z" />
    <glyph glyph-name="igrave" unicode="&#xec;" horiz-adv-x="276" 
d="M254 712l47 -146h-104l-110 146h167zM145 0h-140l126 508h140z" />
    <glyph glyph-name="ij" unicode="&#x133;" horiz-adv-x="554" 
d="M292 592h-140l30 120h140zM570 592h-140l30 120h140zM145 0h-140l126 508h140zM549 508l-133 -535c-29 -117 -111 -163 -206 -163c-29 0 -54 3 -75 9l25 100c7 -2 15 -3 23 -3c52 0 85 23 104 102l122 490h140z" />
    <glyph glyph-name="imacron" unicode="&#x12b;" horiz-adv-x="276" 
d="M366 598h-286l23 91h286zM145 0h-140l126 508h140z" />
    <glyph glyph-name="iogonek" unicode="&#x12f;" horiz-adv-x="276" 
d="M322 712l-30 -120h-140l30 120h140zM131 508h140l-126 -508c-75 -44 -91 -72 -91 -98c0 -14 9 -21 28 -21c12 0 26 2 37 6l-19 -75c-18 -5 -43 -9 -69 -9c-69 0 -103 27 -103 75c0 44 34 83 107 122h-30z" />
    <glyph glyph-name="itilde" unicode="&#x129;" horiz-adv-x="276" 
d="M346 712h76c-25 -83 -72 -135 -135 -135c-59 0 -75 46 -113 46c-24 0 -39 -15 -49 -46h-77c24 83 72 135 135 135c59 0 76 -46 113 -46c24 0 39 15 50 46zM145 0h-140l126 508h140z" />
    <glyph glyph-name="dotlessj" unicode="&#x237;" horiz-adv-x="278" 
d="M273 508l-133 -535c-29 -117 -111 -163 -206 -163c-29 0 -54 3 -75 9l25 100c7 -2 15 -3 23 -3c52 0 85 23 104 102l122 490h140z" />
    <glyph glyph-name="jcircumflex" unicode="&#x135;" horiz-adv-x="278" 
d="M391 567h-110l-34 77l-72 -77h-131l139 145h141zM273 508l-133 -535c-29 -117 -111 -163 -206 -163c-29 0 -54 3 -75 9l25 100c7 -2 15 -3 23 -3c52 0 85 23 104 102l122 490h140z" />
    <glyph glyph-name="kcommaaccent" unicode="&#x137;" horiz-adv-x="543" 
d="M342 263l148 -263h-153l-129 244h-2l-61 -244h-140l177 712h140l-100 -403h2l193 199h178zM161 -59h124l-26 -104l-95 -107h-56l72 107h-45z" />
    <glyph glyph-name="kgreenlandic" unicode="&#x138;" horiz-adv-x="560" 
d="M342 263l148 -263h-153l-129 244h-2l-61 -244h-140l126 508h140l-49 -199h2l193 199h178z" />
    <glyph glyph-name="lacute" unicode="&#x13a;" horiz-adv-x="276" 
d="M313 770h-116l107 146h179zM145 0h-140l177 712h140z" />
    <glyph glyph-name="lcaron" unicode="&#x13e;" horiz-adv-x="276" 
d="M145 0h-140l177 712h140zM385 535h-79l70 177h111z" />
    <glyph glyph-name="lcommaaccent" unicode="&#x13c;" horiz-adv-x="276" 
d="M145 0h-140l177 712h140zM101 -163l-95 -107h-56l72 107h-45l26 104h124z" />
    <glyph glyph-name="ldot" unicode="&#x140;" horiz-adv-x="504" 
d="M145 0h-140l177 712h140zM471 272h-154l41 167h154z" />
    <glyph glyph-name="lslash" unicode="&#x142;" horiz-adv-x="332" 
d="M356 390l-99 -51l-84 -339h-140l68 273l-99 -51l32 128l99 51l77 311h140l-61 -246l99 52z" />
    <glyph glyph-name="nacute" unicode="&#x144;" 
d="M412 566h-116l107 146h179zM403 520c97 0 155 -51 155 -150c0 -22 -3 -46 -10 -73l-74 -297h-140l73 294c5 20 7 37 7 52c0 44 -24 64 -67 64c-58 0 -111 -46 -134 -138l-68 -272h-140l127 508h131l-14 -56h2c41 41 95 68 152 68z" />
    <glyph glyph-name="napostrophe" unicode="&#x149;" horiz-adv-x="750" 
d="M272 570l-100 -146h-71l84 146h-44l35 142h131zM553 520c97 0 155 -51 155 -150c0 -22 -3 -46 -10 -73l-74 -297h-140l73 294c5 20 7 37 7 52c0 44 -24 64 -67 64c-58 0 -111 -46 -134 -138l-68 -272h-140l127 508h131l-14 -56h2c41 41 95 68 152 68z" />
    <glyph glyph-name="ncaron" unicode="&#x148;" 
d="M455 566h-149l-78 146h118l42 -76l79 76h138zM403 520c97 0 155 -51 155 -150c0 -22 -3 -46 -10 -73l-74 -297h-140l73 294c5 20 7 37 7 52c0 44 -24 64 -67 64c-58 0 -111 -46 -134 -138l-68 -272h-140l127 508h131l-14 -56h2c41 41 95 68 152 68z" />
    <glyph glyph-name="ncommaaccent" unicode="&#x146;" 
d="M403 520c97 0 155 -51 155 -150c0 -22 -3 -46 -10 -73l-74 -297h-140l73 294c5 20 7 37 7 52c0 44 -24 64 -67 64c-58 0 -111 -46 -134 -138l-68 -272h-140l127 508h131l-14 -56h2c41 41 95 68 152 68zM261 -163l-95 -107h-56l72 107h-45l26 104h124z" />
    <glyph glyph-name="eng" unicode="&#x14b;" 
d="M403 520c96 0 155 -51 155 -150c0 -22 -3 -46 -10 -73l-81 -324c-29 -117 -111 -163 -206 -163c-29 0 -54 3 -75 9l25 100c7 -2 15 -3 23 -3c52 0 84 23 104 102l69 276c5 20 7 37 7 52c0 44 -24 64 -67 64c-58 0 -111 -46 -134 -138l-68 -272h-140l127 508h131l-14 -56
h2c41 41 94 68 152 68z" />
    <glyph glyph-name="ntilde" unicode="&#xf1;" 
d="M527 712h78c-24 -83 -75 -135 -143 -135s-85 46 -129 46c-29 0 -46 -15 -57 -46h-80c23 83 75 135 143 135s86 -46 129 -46c30 0 47 15 59 46zM403 520c97 0 155 -51 155 -150c0 -22 -3 -46 -10 -73l-74 -297h-140l73 294c5 20 7 37 7 52c0 44 -24 64 -67 64
c-58 0 -111 -46 -134 -138l-68 -272h-140l127 508h131l-14 -56h2c41 41 95 68 152 68z" />
    <glyph glyph-name="oacute" unicode="&#xf3;" horiz-adv-x="590" 
d="M384 566h-116l107 146h179zM332 524c146 0 225 -84 225 -224c0 -137 -101 -316 -301 -316c-145 0 -223 84 -223 224c0 137 101 316 299 316zM321 416c-101 0 -144 -128 -144 -207c0 -73 30 -117 91 -117c101 0 144 128 144 207c0 73 -30 117 -91 117z" />
    <glyph glyph-name="obreve" unicode="&#x14f;" horiz-adv-x="590" 
d="M457 712h107c-27 -96 -104 -151 -208 -151c-91 0 -144 45 -144 123c0 9 1 18 2 28h83c-1 -5 -1 -9 -1 -13c0 -32 24 -51 67 -51c48 0 83 24 94 64zM332 524c146 0 225 -84 225 -224c0 -137 -101 -316 -301 -316c-145 0 -223 84 -223 224c0 137 101 316 299 316zM321 416
c-101 0 -144 -128 -144 -207c0 -73 30 -117 91 -117c101 0 144 128 144 207c0 73 -30 117 -91 117z" />
    <glyph glyph-name="ocircumflex" unicode="&#xf4;" horiz-adv-x="590" 
d="M541 566h-118l-42 76l-79 -76h-138l150 146h149zM332 524c146 0 225 -84 225 -224c0 -137 -101 -316 -301 -316c-145 0 -223 84 -223 224c0 137 101 316 299 316zM321 416c-101 0 -144 -128 -144 -207c0 -73 30 -117 91 -117c101 0 144 128 144 207c0 73 -30 117 -91 117
z" />
    <glyph glyph-name="odieresis" unicode="&#xf6;" horiz-adv-x="590" 
d="M312 592h-123l30 120h123zM529 592h-123l30 120h123zM332 524c146 0 225 -84 225 -224c0 -137 -101 -316 -301 -316c-145 0 -223 84 -223 224c0 137 101 316 299 316zM321 416c-101 0 -144 -128 -144 -207c0 -73 30 -117 91 -117c101 0 144 128 144 207
c0 73 -30 117 -91 117z" />
    <glyph glyph-name="ograve" unicode="&#xf2;" horiz-adv-x="590" 
d="M391 712l47 -146h-104l-110 146h167zM332 524c146 0 225 -84 225 -224c0 -137 -101 -316 -301 -316c-145 0 -223 84 -223 224c0 137 101 316 299 316zM321 416c-101 0 -144 -128 -144 -207c0 -73 30 -117 91 -117c101 0 144 128 144 207c0 73 -30 117 -91 117z" />
    <glyph glyph-name="ohungarumlaut" unicode="&#x151;" horiz-adv-x="590" 
d="M296 566h-116l127 146h159zM486 566h-116l127 146h159zM332 524c146 0 225 -84 225 -224c0 -137 -101 -316 -301 -316c-145 0 -223 84 -223 224c0 137 101 316 299 316zM321 416c-101 0 -144 -128 -144 -207c0 -73 30 -117 91 -117c101 0 144 128 144 207
c0 73 -30 117 -91 117z" />
    <glyph glyph-name="omacron" unicode="&#x14d;" horiz-adv-x="590" 
d="M524 598h-326l22 91h326zM332 524c146 0 225 -84 225 -224c0 -137 -101 -316 -301 -316c-145 0 -223 84 -223 224c0 137 101 316 299 316zM321 416c-101 0 -144 -128 -144 -207c0 -73 30 -117 91 -117c101 0 144 128 144 207c0 73 -30 117 -91 117z" />
    <glyph glyph-name="oslash" unicode="&#xf8;" horiz-adv-x="590" 
d="M583 498l-61 -61c23 -36 35 -82 35 -137c0 -137 -101 -316 -301 -316c-60 0 -109 15 -145 42l-61 -61l-46 46l63 63c-23 35 -34 80 -34 134c0 137 101 316 299 316c60 0 108 -14 145 -40l60 60zM321 421c-107 0 -152 -133 -152 -212c0 -11 1 -21 2 -31l217 217
c-16 17 -38 26 -67 26zM268 87c107 0 152 133 152 212c0 12 -1 23 -3 33l-218 -218c16 -17 39 -27 69 -27z" />
    <glyph glyph-name="otilde" unicode="&#xf5;" horiz-adv-x="590" 
d="M499 712h78c-24 -83 -75 -135 -143 -135s-85 46 -129 46c-29 0 -46 -15 -57 -46h-80c23 83 75 135 143 135s86 -46 129 -46c30 0 47 15 59 46zM332 524c146 0 225 -84 225 -224c0 -137 -101 -316 -301 -316c-145 0 -223 84 -223 224c0 137 101 316 299 316zM321 416
c-101 0 -144 -128 -144 -207c0 -73 30 -117 91 -117c101 0 144 128 144 207c0 73 -30 117 -91 117z" />
    <glyph glyph-name="oe" unicode="&#x153;" horiz-adv-x="928" 
d="M886 225h-354c-3 -16 -4 -30 -4 -43c0 -72 37 -99 82 -99c51 0 93 30 108 71h143c-39 -93 -137 -170 -259 -170c-76 0 -131 29 -162 79c-48 -47 -112 -79 -194 -79c-138 0 -213 84 -213 224c0 137 98 316 289 316c83 0 143 -30 179 -84c47 50 111 84 192 84
c136 0 205 -83 205 -207c0 -25 -3 -53 -12 -92zM675 425c-50 0 -96 -35 -121 -112h213c1 8 1 15 1 22c0 62 -39 90 -93 90zM268 92c101 0 144 128 144 207c0 73 -30 117 -91 117c-101 0 -144 -128 -144 -207c0 -73 30 -117 91 -117z" />
    <glyph glyph-name="thorn" unicode="&#xfe;" horiz-adv-x="598" 
d="M261 467h2c38 35 86 54 130 54c112 0 176 -75 176 -198c0 -142 -96 -336 -275 -336c-60 0 -110 28 -131 78h-2l-62 -250h-140l223 897h140zM339 414c-93 0 -142 -120 -142 -208c0 -70 29 -112 82 -112c93 0 142 120 142 208c0 70 -29 112 -82 112z" />
    <glyph glyph-name="racute" unicode="&#x155;" horiz-adv-x="392" 
d="M318 566h-116l107 146h179zM403 516c14 0 32 -2 45 -6l-30 -121c-16 3 -29 5 -43 5c-86 0 -146 -54 -170 -154l-60 -240h-140l126 508h129l-16 -65h2c48 50 98 73 157 73z" />
    <glyph glyph-name="rcaron" unicode="&#x159;" horiz-adv-x="392" 
d="M361 566h-149l-78 146h118l42 -76l79 76h138zM403 516c14 0 32 -2 45 -6l-30 -121c-16 3 -29 5 -43 5c-86 0 -146 -54 -170 -154l-60 -240h-140l126 508h129l-16 -65h2c48 50 98 73 157 73z" />
    <glyph glyph-name="rcommaaccent" unicode="&#x157;" horiz-adv-x="392" 
d="M403 516c14 0 32 -2 45 -6l-30 -121c-16 3 -29 5 -43 5c-86 0 -146 -54 -170 -154l-60 -240h-140l126 508h129l-16 -65h2c48 50 98 73 157 73zM101 -163l-95 -107h-56l72 107h-45l26 104h124z" />
    <glyph glyph-name="sacute" unicode="&#x15b;" horiz-adv-x="524" 
d="M356 566h-116l107 146h179zM305 524c124 0 192 -48 192 -140c0 -10 -1 -21 -3 -32h-133c1 7 2 15 2 21c0 37 -26 53 -70 53c-55 0 -74 -28 -74 -50c0 -29 22 -42 92 -66c71 -24 148 -50 148 -153c0 -85 -78 -173 -241 -173c-131 0 -209 48 -209 145c0 11 1 23 5 36h141
c-2 -8 -3 -15 -3 -22c0 -37 26 -58 78 -58c51 0 80 22 80 55c0 38 -34 51 -98 73c-67 23 -135 44 -135 145c0 80 75 166 228 166z" />
    <glyph glyph-name="scaron" unicode="&#x161;" horiz-adv-x="524" 
d="M399 566h-149l-78 146h118l42 -76l79 76h138zM305 524c124 0 192 -48 192 -140c0 -10 -1 -21 -3 -32h-133c1 7 2 15 2 21c0 37 -26 53 -70 53c-55 0 -74 -28 -74 -50c0 -29 22 -42 92 -66c71 -24 148 -50 148 -153c0 -85 -78 -173 -241 -173c-131 0 -209 48 -209 145
c0 11 1 23 5 36h141c-2 -8 -3 -15 -3 -22c0 -37 26 -58 78 -58c51 0 80 22 80 55c0 38 -34 51 -98 73c-67 23 -135 44 -135 145c0 80 75 166 228 166z" />
    <glyph glyph-name="scedilla" unicode="&#x15f;" horiz-adv-x="524" 
d="M494 352h-133c1 7 2 15 2 21c0 37 -26 53 -70 53c-55 0 -74 -28 -74 -50c0 -29 22 -42 92 -66c71 -24 148 -50 148 -153c0 -82 -72 -166 -222 -173l-39 -44c6 2 15 3 23 3c40 0 71 -26 71 -70c0 -56 -62 -99 -141 -99c-41 0 -77 11 -106 30l25 45c28 -16 54 -22 79 -22
c34 0 57 16 57 40c0 21 -14 33 -38 33c-12 0 -23 -2 -34 -6l-20 18l65 74c-107 8 -170 56 -170 143c0 11 1 23 5 36h141c-2 -8 -3 -15 -3 -22c0 -37 26 -58 78 -58c51 0 80 22 80 55c0 38 -34 51 -98 73c-67 23 -135 44 -135 145c0 80 75 166 228 166
c124 0 192 -48 192 -140c0 -10 -1 -21 -3 -32z" />
    <glyph glyph-name="scircumflex" unicode="&#x15d;" horiz-adv-x="524" 
d="M513 566h-118l-42 76l-79 -76h-138l150 146h149zM305 524c124 0 192 -48 192 -140c0 -10 -1 -21 -3 -32h-133c1 7 2 15 2 21c0 37 -26 53 -70 53c-55 0 -74 -28 -74 -50c0 -29 22 -42 92 -66c71 -24 148 -50 148 -153c0 -85 -78 -173 -241 -173c-131 0 -209 48 -209 145
c0 11 1 23 5 36h141c-2 -8 -3 -15 -3 -22c0 -37 26 -58 78 -58c51 0 80 22 80 55c0 38 -34 51 -98 73c-67 23 -135 44 -135 145c0 80 75 166 228 166z" />
    <glyph glyph-name="scommaaccent" unicode="&#x219;" horiz-adv-x="524" 
d="M305 524c124 0 192 -48 192 -140c0 -10 -1 -21 -3 -32h-133c1 7 2 15 2 21c0 37 -26 53 -70 53c-55 0 -74 -28 -74 -50c0 -29 22 -42 92 -66c71 -24 148 -50 148 -153c0 -85 -78 -173 -241 -173c-131 0 -209 48 -209 145c0 11 1 23 5 36h141c-2 -8 -3 -15 -3 -22
c0 -37 26 -58 78 -58c51 0 80 22 80 55c0 38 -34 51 -98 73c-67 23 -135 44 -135 145c0 80 75 166 228 166zM229 -163l-95 -107h-56l72 107h-45l26 104h124z" />
    <glyph glyph-name="germandbls" unicode="&#xdf;" horiz-adv-x="575" 
d="M392 728c121 0 192 -58 192 -151c0 -74 -47 -156 -163 -184v-2c74 -23 111 -72 111 -152c0 -114 -94 -244 -271 -244c-16 0 -41 3 -57 8l27 110c8 -2 15 -2 21 -2c102 0 138 76 138 134c0 56 -32 88 -100 88h-4l28 115c108 0 132 62 132 103c0 44 -22 66 -67 66
c-56 0 -90 -36 -110 -117l-124 -500h-140l129 518c33 133 127 210 258 210z" />
    <glyph glyph-name="longs" unicode="&#x17f;" horiz-adv-x="341" 
d="M372 720c26 0 56 -5 73 -10l-24 -97c-6 2 -15 3 -23 3c-51 0 -81 -23 -97 -87l-132 -529h-138l101 404h-85l26 104h85l14 58c26 104 96 154 200 154z" />
    <glyph glyph-name="tbar" unicode="&#x167;" horiz-adv-x="357" 
d="M267 404l-24 -96h94l-20 -83h-95l-8 -34c-3 -14 -5 -26 -5 -36c0 -36 16 -50 54 -50c12 0 24 2 33 4l-28 -109c-14 -4 -38 -7 -55 -7c-102 0 -148 37 -148 127c0 21 4 46 11 74l8 31h-80l20 83h80l24 96h-83l26 104h83l33 132h139l-33 -132h97l-26 -104h-97z" />
    <glyph glyph-name="tcaron" unicode="&#x165;" horiz-adv-x="357" 
d="M509 712l-102 -177h-79l70 177h111zM293 508h97l-26 -104h-97l-53 -213c-3 -14 -5 -26 -5 -36c0 -36 16 -50 54 -50c12 0 24 2 33 4l-28 -109c-14 -4 -38 -7 -55 -7c-102 0 -149 37 -149 127c0 21 4 46 11 74l52 210h-82l26 104h82l33 132h140z" />
    <glyph glyph-name="tcedilla" unicode="&#x163;" horiz-adv-x="357" 
d="M267 404l-53 -213c-3 -14 -5 -26 -5 -36c0 -36 16 -50 54 -50c12 0 24 2 33 4l-28 -109c-14 -4 -38 -7 -55 -7c-102 0 -149 37 -149 127c0 21 4 46 11 74l52 210h-82l26 104h82l33 132h140l-33 -132h97l-26 -104h-97zM69 -59h124l-26 -104l-95 -107h-56l72 107h-45z" />
    <glyph glyph-name="tcommaaccent" unicode="&#x21b;" horiz-adv-x="357" 
d="M267 404l-53 -213c-3 -14 -5 -26 -5 -36c0 -36 16 -50 54 -50c12 0 24 2 33 4l-28 -109c-14 -4 -38 -7 -55 -7c-102 0 -149 37 -149 127c0 21 4 46 11 74l52 210h-82l26 104h82l33 132h140l-33 -132h97l-26 -104h-97zM69 -59h124l-26 -104l-95 -107h-56l72 107h-45z" />
    <glyph glyph-name="uacute" unicode="&#xfa;" 
d="M399 566h-116l107 146h179zM197 -12c-97 0 -155 51 -155 150c0 22 3 46 10 73l74 297h140l-73 -294c-5 -20 -7 -37 -7 -52c0 -44 24 -64 67 -64c58 0 111 46 134 138l68 272h140l-127 -508h-131l14 56h-2c-41 -41 -95 -68 -152 -68z" />
    <glyph glyph-name="ubreve" unicode="&#x16d;" 
d="M472 712h107c-27 -96 -104 -151 -208 -151c-91 0 -144 45 -144 123c0 9 1 18 2 28h83c-1 -5 -1 -9 -1 -13c0 -32 24 -51 67 -51c48 0 83 24 94 64zM197 -12c-97 0 -155 51 -155 150c0 22 3 46 10 73l74 297h140l-73 -294c-5 -20 -7 -37 -7 -52c0 -44 24 -64 67 -64
c58 0 111 46 134 138l68 272h140l-127 -508h-131l14 56h-2c-41 -41 -95 -68 -152 -68z" />
    <glyph glyph-name="ucircumflex" unicode="&#xfb;" 
d="M556 566h-118l-42 76l-79 -76h-138l150 146h149zM197 -12c-97 0 -155 51 -155 150c0 22 3 46 10 73l74 297h140l-73 -294c-5 -20 -7 -37 -7 -52c0 -44 24 -64 67 -64c58 0 111 46 134 138l68 272h140l-127 -508h-131l14 56h-2c-41 -41 -95 -68 -152 -68z" />
    <glyph glyph-name="udieresis" unicode="&#xfc;" 
d="M327 592h-123l30 120h123zM544 592h-123l30 120h123zM197 -12c-97 0 -155 51 -155 150c0 22 3 46 10 73l74 297h140l-73 -294c-5 -20 -7 -37 -7 -52c0 -44 24 -64 67 -64c58 0 111 46 134 138l68 272h140l-127 -508h-131l14 56h-2c-41 -41 -95 -68 -152 -68z" />
    <glyph glyph-name="ugrave" unicode="&#xf9;" 
d="M406 712l47 -146h-104l-110 146h167zM197 -12c-97 0 -155 51 -155 150c0 22 3 46 10 73l74 297h140l-73 -294c-5 -20 -7 -37 -7 -52c0 -44 24 -64 67 -64c58 0 111 46 134 138l68 272h140l-127 -508h-131l14 56h-2c-41 -41 -95 -68 -152 -68z" />
    <glyph glyph-name="uhungarumlaut" unicode="&#x171;" 
d="M311 566h-116l127 146h159zM501 566h-116l127 146h159zM197 -12c-97 0 -155 51 -155 150c0 22 3 46 10 73l74 297h140l-73 -294c-5 -20 -7 -37 -7 -52c0 -44 24 -64 67 -64c58 0 111 46 134 138l68 272h140l-127 -508h-131l14 56h-2c-41 -41 -95 -68 -152 -68z" />
    <glyph glyph-name="umacron" unicode="&#x16b;" 
d="M539 598h-326l22 91h326zM197 -12c-97 0 -155 51 -155 150c0 22 3 46 10 73l74 297h140l-73 -294c-5 -20 -7 -37 -7 -52c0 -44 24 -64 67 -64c58 0 111 46 134 138l68 272h140l-127 -508h-131l14 56h-2c-41 -41 -95 -68 -152 -68z" />
    <glyph glyph-name="uogonek" unicode="&#x173;" 
d="M595 508l-127 -508c-75 -44 -91 -72 -91 -98c0 -14 9 -21 28 -21c12 0 26 2 37 6l-19 -75c-18 -5 -43 -9 -69 -9c-69 0 -103 27 -103 75c0 44 34 83 107 122h-21l14 56h-2c-41 -41 -95 -68 -152 -68c-97 0 -155 51 -155 150c0 22 3 46 10 73l74 297h140l-73 -294
c-5 -20 -7 -37 -7 -52c0 -44 24 -64 67 -64c58 0 111 46 134 138l68 272h140z" />
    <glyph glyph-name="uring" unicode="&#x16f;" 
d="M382 772c60 0 108 -48 108 -108s-48 -108 -108 -108s-108 48 -108 108s48 108 108 108zM382 718c-30 0 -54 -24 -54 -54s24 -54 54 -54s54 24 54 54s-24 54 -54 54zM197 -12c-97 0 -155 51 -155 150c0 22 3 46 10 73l74 297h140l-73 -294c-5 -20 -7 -37 -7 -52
c0 -44 24 -64 67 -64c58 0 111 46 134 138l68 272h140l-127 -508h-131l14 56h-2c-41 -41 -95 -68 -152 -68z" />
    <glyph glyph-name="utilde" unicode="&#x169;" 
d="M514 712h78c-24 -83 -75 -135 -143 -135s-85 46 -129 46c-29 0 -46 -15 -57 -46h-80c23 83 75 135 143 135s86 -46 129 -46c30 0 47 15 59 46zM197 -12c-97 0 -155 51 -155 150c0 22 3 46 10 73l74 297h140l-73 -294c-5 -20 -7 -37 -7 -52c0 -44 24 -64 67 -64
c58 0 111 46 134 138l68 272h140l-127 -508h-131l14 56h-2c-41 -41 -95 -68 -152 -68z" />
    <glyph glyph-name="wacute" unicode="&#x1e83;" horiz-adv-x="810" 
d="M508 566h-116l107 146h179zM630 0h-200l5 200c2 71 5 144 9 217h-2c-28 -73 -59 -146 -93 -217l-95 -200h-200l14 508h133l-11 -196c-4 -73 -8 -148 -15 -221h2c29 73 60 145 95 219l94 198h192l-4 -198c-1 -74 -4 -146 -9 -219h2c26 73 56 148 89 221l87 196h145z" />
    <glyph glyph-name="wcircumflex" unicode="&#x175;" horiz-adv-x="810" 
d="M665 566h-118l-42 76l-79 -76h-138l150 146h149zM630 0h-200l5 200c2 71 5 144 9 217h-2c-28 -73 -59 -146 -93 -217l-95 -200h-200l14 508h133l-11 -196c-4 -73 -8 -148 -15 -221h2c29 73 60 145 95 219l94 198h192l-4 -198c-1 -74 -4 -146 -9 -219h2
c26 73 56 148 89 221l87 196h145z" />
    <glyph glyph-name="wdieresis" unicode="&#x1e85;" horiz-adv-x="810" 
d="M436 592h-123l30 120h123zM653 592h-123l30 120h123zM630 0h-200l5 200c2 71 5 144 9 217h-2c-28 -73 -59 -146 -93 -217l-95 -200h-200l14 508h133l-11 -196c-4 -73 -8 -148 -15 -221h2c29 73 60 145 95 219l94 198h192l-4 -198c-1 -74 -4 -146 -9 -219h2
c26 73 56 148 89 221l87 196h145z" />
    <glyph glyph-name="wgrave" unicode="&#x1e81;" horiz-adv-x="810" 
d="M515 712l47 -146h-104l-110 146h167zM630 0h-200l5 200c2 71 5 144 9 217h-2c-28 -73 -59 -146 -93 -217l-95 -200h-200l14 508h133l-11 -196c-4 -73 -8 -148 -15 -221h2c29 73 60 145 95 219l94 198h192l-4 -198c-1 -74 -4 -146 -9 -219h2c26 73 56 148 89 221l87 196
h145z" />
    <glyph glyph-name="yacute" unicode="&#xfd;" horiz-adv-x="504" 
d="M341 566h-116l107 146h179zM574 508l-309 -511c-87 -143 -162 -188 -289 -188c-25 0 -51 3 -71 8l28 112c13 -5 31 -8 52 -8c73 0 117 49 117 110c0 12 -1 26 -5 64l-41 413h138l12 -170c5 -70 8 -142 7 -213h2c33 71 68 142 108 213l95 170h156z" />
    <glyph glyph-name="ycircumflex" unicode="&#x177;" horiz-adv-x="504" 
d="M498 566h-118l-42 76l-79 -76h-138l150 146h149zM574 508l-309 -511c-87 -143 -162 -188 -289 -188c-25 0 -51 3 -71 8l28 112c13 -5 31 -8 52 -8c73 0 117 49 117 110c0 12 -1 26 -5 64l-41 413h138l12 -170c5 -70 8 -142 7 -213h2c33 71 68 142 108 213l95 170h156z
" />
    <glyph glyph-name="ydieresis" unicode="&#xff;" horiz-adv-x="504" 
d="M269 592h-123l30 120h123zM486 592h-123l30 120h123zM574 508l-309 -511c-87 -143 -162 -188 -289 -188c-25 0 -51 3 -71 8l28 112c13 -5 31 -8 52 -8c73 0 117 49 117 110c0 12 -1 26 -5 64l-41 413h138l12 -170c5 -70 8 -142 7 -213h2c33 71 68 142 108 213l95 170h156
z" />
    <glyph glyph-name="ygrave" unicode="&#x1ef3;" horiz-adv-x="504" 
d="M348 712l47 -146h-104l-110 146h167zM574 508l-309 -511c-87 -143 -162 -188 -289 -188c-25 0 -51 3 -71 8l28 112c13 -5 31 -8 52 -8c73 0 117 49 117 110c0 12 -1 26 -5 64l-41 413h138l12 -170c5 -70 8 -142 7 -213h2c33 71 68 142 108 213l95 170h156z" />
    <glyph glyph-name="zacute" unicode="&#x17a;" horiz-adv-x="484" 
d="M334 566h-116l107 146h179zM480 388l-311 -276v-2h251l-27 -110h-428l30 120l311 276v2h-232l28 110h408z" />
    <glyph glyph-name="zcaron" unicode="&#x17e;" horiz-adv-x="484" 
d="M377 566h-149l-78 146h118l42 -76l79 76h138zM480 388l-311 -276v-2h251l-27 -110h-428l30 120l311 276v2h-232l28 110h408z" />
    <glyph glyph-name="zdotaccent" unicode="&#x17c;" horiz-adv-x="484" 
d="M379 592h-140l30 120h140zM480 388l-311 -276v-2h251l-27 -110h-428l30 120l311 276v2h-232l28 110h408z" />
    <glyph glyph-name="j.acute.loclNLD" horiz-adv-x="278" 
d="M249 566h-116l107 146h179zM273 508l-133 -535c-29 -117 -111 -163 -206 -163c-29 0 -54 3 -75 9l25 100c7 -2 15 -3 23 -3c52 0 85 23 104 102l122 490h140z" />
    <glyph glyph-name="ccedilla.ss01" horiz-adv-x="562" 
d="M330 524c136 0 214 -77 214 -188c0 -9 0 -18 -2 -27h-146c1 5 2 13 2 19c0 55 -28 88 -76 88c-96 0 -146 -132 -146 -208c0 -73 29 -116 84 -116c49 0 93 37 111 97h147c-38 -123 -143 -205 -266 -205c-138 0 -219 84 -219 223c0 135 97 317 297 317zM176 -217h-169
l175 168h126z" />
    <glyph glyph-name="scedilla.ss01" horiz-adv-x="524" 
d="M305 524c124 0 192 -48 192 -140c0 -10 -1 -21 -3 -32h-133c1 7 2 15 2 21c0 37 -26 53 -70 53c-55 0 -74 -28 -74 -50c0 -29 22 -42 92 -66c71 -24 148 -50 148 -153c0 -85 -78 -173 -241 -173c-131 0 -209 48 -209 145c0 11 1 23 5 36h141c-2 -8 -3 -15 -3 -22
c0 -37 26 -58 78 -58c51 0 80 22 80 55c0 38 -34 51 -98 73c-67 23 -135 44 -135 145c0 80 75 166 228 166zM136 -217h-169l175 168h126z" />
    <glyph glyph-name="tcedilla.ss01" horiz-adv-x="357" 
d="M267 404l-53 -213c-3 -14 -5 -26 -5 -36c0 -36 16 -50 54 -50c12 0 24 2 33 4l-28 -109c-14 -4 -38 -7 -55 -7c-102 0 -149 37 -149 127c0 21 4 46 11 74l52 210h-82l26 104h82l33 132h140l-33 -132h97l-26 -104h-97zM80 -49h126l-132 -168h-169z" />
    <glyph glyph-name="a.sups" horiz-adv-x="412" 
d="M294 697c102 0 150 -40 150 -114c0 -14 -2 -30 -6 -47l-26 -105c-12 -48 -16 -76 -14 -101h-107c0 12 1 26 5 40h-2c-35 -33 -76 -49 -122 -49c-72 0 -110 39 -110 97c0 54 37 110 171 128c29 4 70 8 94 9l2 7c2 7 3 15 3 21c0 28 -18 39 -45 39c-30 0 -51 -17 -58 -49
h-116c15 67 77 124 181 124zM306 470l5 21c-19 -1 -47 -4 -67 -8c-47 -8 -60 -28 -60 -50c0 -21 14 -34 41 -34c43 0 70 28 81 71z" />
    <glyph glyph-name="b.sups" horiz-adv-x="446" 
d="M269 660h1c27 23 61 36 93 36c81 0 126 -54 126 -142c0 -101 -69 -234 -199 -234c-43 0 -80 20 -94 57h-1l-12 -47h-116l124 498h120zM311 605c-57 0 -89 -74 -89 -126c0 -42 18 -68 51 -68c58 0 89 74 89 126c0 42 -18 68 -51 68z" />
    <glyph glyph-name="c.sups" horiz-adv-x="420" 
d="M307 697c104 0 165 -54 165 -137c0 -6 -1 -12 -2 -18h-125c1 3 2 8 2 13c0 33 -18 51 -48 51c-60 0 -89 -83 -89 -129c0 -43 17 -68 50 -68c29 0 55 21 66 58h125c-28 -91 -105 -148 -199 -148c-104 0 -166 61 -166 161c0 94 73 217 221 217z" />
    <glyph glyph-name="d.sups" horiz-adv-x="446" 
d="M418 330h-116l8 30h-2c-28 -26 -65 -40 -98 -40c-81 0 -126 54 -126 142c0 100 70 234 200 234c40 0 75 -18 91 -51h1l45 183h121zM300 605c-58 0 -89 -74 -89 -127c0 -42 18 -67 51 -67c57 0 89 73 89 126c0 42 -18 68 -51 68z" />
    <glyph glyph-name="e.sups" horiz-adv-x="427" 
d="M460 483h-258c-2 -10 -3 -18 -3 -26c0 -43 25 -58 57 -58c31 0 56 17 65 40h122c-28 -67 -101 -120 -189 -120c-112 0 -167 64 -167 160c0 94 71 218 215 218c109 0 166 -61 166 -154c0 -16 -2 -34 -8 -60zM299 619c-33 0 -63 -19 -81 -69h137c1 5 1 10 1 15
c0 38 -24 54 -57 54z" />
    <glyph glyph-name="egrave.sups" horiz-adv-x="427" 
d="M279 724l-97 104h145l52 -104h-100zM460 483h-258c-2 -10 -3 -18 -3 -26c0 -43 25 -58 57 -58c31 0 56 17 65 40h122c-28 -67 -101 -120 -189 -120c-112 0 -167 64 -167 160c0 94 71 218 215 218c109 0 166 -61 166 -154c0 -16 -2 -34 -8 -60zM299 619
c-33 0 -63 -19 -81 -69h137c1 5 1 10 1 15c0 38 -24 54 -57 54z" />
    <glyph glyph-name="f.sups" horiz-adv-x="262" 
d="M338 835c21 0 45 -4 60 -8l-20 -81c-4 1 -11 2 -17 2c-36 0 -57 -15 -67 -55l-2 -7h67l-21 -87h-68l-67 -269h-119l67 269h-58l21 87h58l9 35c20 77 75 114 157 114z" />
    <glyph glyph-name="g.sups" horiz-adv-x="441" 
d="M273 696c52 0 87 -27 101 -64h1l14 54h112l-89 -357c-23 -94 -100 -136 -204 -136c-103 0 -155 36 -155 97c0 6 0 11 2 18h113c-1 -3 -1 -5 -1 -7c0 -20 17 -31 48 -31c39 0 69 17 84 72l6 26h-1c-28 -22 -59 -34 -93 -34c-79 0 -123 56 -123 147s64 215 185 215z
M294 602c-53 0 -81 -68 -81 -108c0 -41 19 -66 51 -66c55 0 83 65 83 108c0 41 -20 66 -53 66z" />
    <glyph glyph-name="h.sups" horiz-adv-x="446" 
d="M268 657h1c27 23 61 38 98 38c70 0 113 -37 113 -106c0 -15 -2 -32 -7 -51l-52 -208h-120l51 204c3 12 4 22 4 31c0 25 -14 37 -40 37c-37 0 -68 -29 -83 -89l-46 -183h-120l124 498h120z" />
    <glyph glyph-name="i.sups" horiz-adv-x="215" 
d="M288 735h-120l23 93h120zM187 330h-120l88 356h120z" />
    <glyph glyph-name="j.sups" horiz-adv-x="218" 
d="M291 735h-121l23 93h120zM278 686l-92 -367c-21 -87 -84 -122 -156 -122c-26 0 -48 2 -65 8l20 82c4 -1 9 -2 15 -2c38 0 62 16 76 73l82 328h120z" />
    <glyph glyph-name="k.sups" horiz-adv-x="411" 
d="M340 511l97 -181h-132l-74 167h-2l-42 -167h-120l124 498h120l-69 -275h2l118 133h152z" />
    <glyph glyph-name="l.sups" horiz-adv-x="215" 
d="M187 330h-120l124 498h120z" />
    <glyph glyph-name="m.sups" horiz-adv-x="662" 
d="M589 695c67 0 107 -36 107 -105c0 -16 -3 -34 -7 -53l-52 -207h-120l51 206c3 12 5 22 5 30c0 24 -13 36 -36 36c-36 0 -64 -30 -80 -92l-45 -180h-120l52 210c3 10 4 19 4 26c0 23 -12 36 -36 36c-37 0 -65 -31 -80 -92l-45 -180h-120l88 356h112l-8 -36h1
c30 29 64 45 104 45c51 0 85 -21 96 -64c35 39 75 64 129 64z" />
    <glyph glyph-name="n.sups" horiz-adv-x="445" 
d="M366 695c71 0 113 -37 113 -106c0 -15 -2 -32 -7 -51l-52 -208h-120l51 204c3 12 4 22 4 31c0 25 -14 37 -40 37c-37 0 -68 -29 -83 -89l-46 -183h-120l89 356h112l-10 -37h2c29 28 66 46 107 46z" />
    <glyph glyph-name="o.sups" horiz-adv-x="442" 
d="M305 697c112 0 176 -62 176 -164c0 -94 -73 -214 -218 -214c-112 0 -175 62 -175 164c0 94 72 214 217 214zM300 606c-62 0 -88 -78 -88 -126c0 -44 17 -71 56 -71c62 0 88 78 88 126c0 45 -18 71 -56 71z" />
    <glyph glyph-name="p.sups" horiz-adv-x="445" 
d="M362 696c81 0 126 -54 126 -142c0 -101 -69 -234 -199 -234c-41 0 -75 17 -91 50h-2l-42 -169h-120l121 485h116l-8 -31h1c28 27 65 41 98 41zM310 605c-57 0 -88 -74 -88 -126c0 -42 18 -68 51 -68c57 0 89 74 89 126c0 42 -19 68 -52 68z" />
    <glyph glyph-name="q.sups" horiz-adv-x="447" 
d="M284 696c42 0 79 -20 93 -58h2l12 48h115l-120 -485h-120l38 155h-1c-27 -24 -61 -36 -93 -36c-81 0 -126 54 -126 142c0 100 70 234 200 234zM300 605c-58 0 -89 -74 -89 -127c0 -42 18 -67 51 -67c57 0 89 73 89 126c0 42 -18 68 -51 68z" />
    <glyph glyph-name="r.sups" horiz-adv-x="305" 
d="M373 691c10 0 24 -1 33 -4l-24 -103c-12 3 -25 4 -37 4c-60 0 -103 -37 -119 -105l-39 -153h-120l88 356h111l-10 -44h1c35 34 72 49 116 49z" />
    <glyph glyph-name="s.sups" horiz-adv-x="397" 
d="M293 697c94 0 148 -31 148 -95c0 -8 0 -16 -3 -24h-114c1 4 2 9 2 13c0 22 -16 31 -43 31c-33 0 -45 -15 -45 -28c0 -18 15 -26 63 -42c54 -18 114 -40 114 -110c0 -61 -58 -123 -183 -123c-104 0 -163 33 -163 100c0 8 1 17 4 27h121c-2 -6 -2 -10 -2 -15
c0 -22 16 -34 49 -34c32 0 49 12 49 31c0 23 -22 31 -71 47c-51 16 -101 33 -101 103c0 58 55 119 175 119z" />
    <glyph glyph-name="t.sups" horiz-adv-x="273" 
d="M268 599l-30 -121c-2 -10 -3 -18 -3 -25c0 -24 11 -34 38 -34c8 0 17 1 24 3l-23 -92c-13 -3 -33 -6 -47 -6c-80 0 -117 30 -117 98c0 15 3 33 8 53l31 124h-57l21 87h58l24 96h119l-24 -96h69l-21 -87h-70z" />
    <glyph glyph-name="u.sups" horiz-adv-x="446" 
d="M206 321c-71 0 -113 37 -113 106c0 15 2 32 7 51l52 208h120l-51 -204c-3 -12 -4 -22 -4 -31c0 -25 14 -37 40 -37c37 0 68 29 83 89l46 183h120l-89 -356h-112l10 37h-2c-29 -28 -66 -46 -107 -46z" />
    <glyph glyph-name="v.sups" horiz-adv-x="387" 
d="M292 330h-160l-29 356h120l3 -128c1 -50 1 -100 -1 -151h2c21 51 44 101 69 151l68 128h135z" />
    <glyph glyph-name="w.sups" horiz-adv-x="612" 
d="M546 330h-164l4 132c2 49 4 99 7 149h-2c-17 -50 -38 -100 -61 -149l-62 -132h-164l7 356h112l-10 -130c-3 -50 -7 -100 -13 -150h2c20 50 42 101 66 151l62 129h156l-2 -129c0 -50 -2 -101 -6 -151h2c16 50 36 100 58 150l56 130h122z" />
    <glyph glyph-name="x.sups" horiz-adv-x="386" 
d="M329 508l80 -178h-126l-36 108h-2l-82 -108h-148l171 187l-75 169h126l32 -97h2l71 97h147z" />
    <glyph glyph-name="y.sups" horiz-adv-x="387" 
d="M499 686l-211 -349c-66 -108 -116 -141 -210 -141c-20 0 -41 2 -57 6l22 90c9 -3 21 -5 32 -5c46 0 71 26 71 59c0 9 -1 20 -6 54l-37 286h120l7 -119c2 -49 4 -99 2 -148h1c21 49 44 98 70 148l62 119h134z" />
    <glyph glyph-name="z.sups" horiz-adv-x="359" 
d="M418 589l-205 -165v-2h168l-22 -92h-320l24 97l205 165v2h-157l23 92h308z" />
    <glyph glyph-name="ff" unicode="&#xfb00;" horiz-adv-x="652" 
d="M683 720c26 0 56 -5 73 -10l-24 -97c-6 2 -15 3 -23 3c-51 0 -81 -23 -97 -87l-5 -21h95l-26 -104h-95l-101 -404h-138l101 404h-173l-101 -404h-138l101 404h-85l26 104h85l14 58c26 104 96 154 200 154c26 0 56 -5 73 -10l-24 -97c-6 2 -15 3 -23 3
c-51 0 -81 -23 -97 -87l-5 -21h173l14 58c26 104 96 154 200 154z" />
    <glyph glyph-name="ffi" unicode="&#xfb03;" horiz-adv-x="928" 
d="M581 404l-101 -404h-138l101 404h-173l-101 -404h-138l101 404h-85l26 104h85l14 58c26 104 96 154 200 154c26 0 56 -5 73 -10l-24 -97c-6 2 -15 3 -23 3c-51 0 -81 -23 -97 -87l-5 -21h173l14 58c26 104 96 154 200 154c26 0 56 -5 73 -10l-24 -97c-6 2 -15 3 -23 3
c-51 0 -81 -23 -97 -87l-5 -21h95l-26 -104h-95zM974 712l-30 -120h-140l30 120h140zM783 508h140l-126 -508h-140z" />
    <glyph glyph-name="ffl" unicode="&#xfb04;" horiz-adv-x="928" 
d="M581 404l-101 -404h-138l101 404h-173l-101 -404h-138l101 404h-85l26 104h85l14 58c26 104 96 154 200 154c26 0 56 -5 73 -10l-24 -97c-6 2 -15 3 -23 3c-51 0 -81 -23 -97 -87l-5 -21h173l14 58c26 104 96 154 200 154c26 0 56 -5 73 -10l-24 -97c-6 2 -15 3 -23 3
c-51 0 -81 -23 -97 -87l-5 -21h95l-26 -104h-95zM974 712l-177 -712h-140l177 712h140z" />
    <glyph glyph-name="fi" unicode="&#xfb01;" horiz-adv-x="617" 
d="M270 404l-101 -404h-138l101 404h-85l26 104h85l14 58c26 104 96 154 200 154c26 0 56 -5 73 -10l-24 -97c-6 2 -15 3 -23 3c-51 0 -81 -23 -97 -87l-5 -21h95l-26 -104h-95zM663 712l-30 -120h-140l30 120h140zM472 508h140l-126 -508h-140z" />
    <glyph glyph-name="fl" unicode="&#xfb02;" horiz-adv-x="617" 
d="M270 404l-101 -404h-138l101 404h-85l26 104h85l14 58c26 104 96 154 200 154c26 0 56 -5 73 -10l-24 -97c-6 2 -15 3 -23 3c-51 0 -81 -23 -97 -87l-5 -21h95l-26 -104h-95zM663 712l-177 -712h-140l177 712h140z" />
    <glyph glyph-name="a.smcp" horiz-adv-x="586" 
d="M371 107h-208l-60 -107h-163l330 548h192l58 -548h-143zM364 226l-2 34c-5 63 -9 130 -11 194h-2c-30 -64 -65 -131 -100 -194l-19 -34h134z" />
    <glyph glyph-name="aacute.smcp" horiz-adv-x="586" 
d="M402 606h-116l107 146h179zM462 548l58 -548h-143l-6 107h-208l-60 -107h-163l330 548h192zM364 226l-2 34c-5 63 -9 130 -11 194h-2c-30 -64 -65 -131 -100 -194l-19 -34h134z" />
    <glyph glyph-name="abreve.smcp" horiz-adv-x="586" 
d="M475 752h107c-27 -96 -104 -151 -208 -151c-91 0 -144 45 -144 123c0 9 1 18 2 28h83c-1 -5 -1 -9 -1 -13c0 -32 24 -51 67 -51c48 0 83 24 94 64zM462 548l58 -548h-143l-6 107h-208l-60 -107h-163l330 548h192zM364 226l-2 34c-5 63 -9 130 -11 194h-2
c-30 -64 -65 -131 -100 -194l-19 -34h134z" />
    <glyph glyph-name="acircumflex.smcp" horiz-adv-x="586" 
d="M320 606h-138l150 146h149l78 -146h-118l-42 76zM462 548l58 -548h-143l-6 107h-208l-60 -107h-163l330 548h192zM364 226l-2 34c-5 63 -9 130 -11 194h-2c-30 -64 -65 -131 -100 -194l-19 -34h134z" />
    <glyph glyph-name="adieresis.smcp" horiz-adv-x="586" 
d="M330 632h-123l30 120h123zM577 752l-30 -120h-123l30 120h123zM462 548l58 -548h-143l-6 107h-208l-60 -107h-163l330 548h192zM364 226l-2 34c-5 63 -9 130 -11 194h-2c-30 -64 -65 -131 -100 -194l-19 -34h134z" />
    <glyph glyph-name="agrave.smcp" horiz-adv-x="586" 
d="M352 606l-110 146h167l47 -146h-104zM371 107h-208l-60 -107h-163l330 548h192l58 -548h-143zM364 226l-2 34c-5 63 -9 130 -11 194h-2c-30 -64 -65 -131 -100 -194l-19 -34h134z" />
    <glyph glyph-name="amacron.smcp" horiz-adv-x="586" 
d="M564 729l-22 -91h-326l22 91h326zM462 548l58 -548h-143l-6 107h-208l-60 -107h-163l330 548h192zM364 226l-2 34c-5 63 -9 130 -11 194h-2c-30 -64 -65 -131 -100 -194l-19 -34h134z" />
    <glyph glyph-name="aogonek.smcp" horiz-adv-x="586" 
d="M429 -98c0 -14 9 -21 28 -21c12 0 26 2 37 6l-19 -75c-18 -5 -43 -9 -69 -9c-69 0 -103 27 -103 75c0 44 34 83 107 122h-33l-6 107h-208l-60 -107h-163l330 548h192l58 -548c-75 -44 -91 -72 -91 -98zM364 226l-2 34c-5 63 -9 130 -11 194h-2
c-30 -64 -65 -131 -100 -194l-19 -34h134z" />
    <glyph glyph-name="aring.smcp" horiz-adv-x="586" 
d="M385 596c-60 0 -108 48 -108 108s48 108 108 108s108 -48 108 -108s-48 -108 -108 -108zM385 758c-30 0 -54 -24 -54 -54s24 -54 54 -54s54 24 54 54s-24 54 -54 54zM371 107h-208l-60 -107h-163l330 548h192l58 -548h-143zM364 226l-2 34c-5 63 -9 130 -11 194h-2
c-30 -64 -65 -131 -100 -194l-19 -34h134z" />
    <glyph glyph-name="atilde.smcp" horiz-adv-x="586" 
d="M517 752h78c-24 -83 -75 -135 -143 -135s-85 46 -129 46c-29 0 -46 -15 -57 -46h-80c23 83 75 135 143 135s86 -46 129 -46c30 0 47 15 59 46zM462 548l58 -548h-143l-6 107h-208l-60 -107h-163l330 548h192zM364 226l-2 34c-5 63 -9 130 -11 194h-2
c-30 -64 -65 -131 -100 -194l-19 -34h134z" />
    <glyph glyph-name="ae.smcp" horiz-adv-x="815" 
d="M550 428l-9 -92h224l-29 -118h-205l-9 -98h215l-30 -120h-335l11 115h-199l-79 -115h-173l394 548h512l-30 -120h-258zM394 233l18 199h-11l-136 -199h129z" />
    <glyph glyph-name="b.smcp" horiz-adv-x="566" 
d="M142 548h214c128 0 186 -50 186 -128c0 -60 -40 -121 -134 -142v-2c59 -13 87 -46 87 -101c0 -82 -73 -175 -230 -175h-259zM258 437l-27 -107h71c79 0 94 28 94 61c0 31 -23 46 -74 46h-64zM205 224l-28 -112h74c84 0 97 30 97 64c0 35 -25 48 -84 48h-59z" />
    <glyph glyph-name="c.smcp" horiz-adv-x="589" 
d="M355 564c136 0 216 -70 216 -187c0 -12 -1 -25 -3 -38h-149c1 5 1 11 1 16c1 55 -30 84 -82 84c-106 0 -159 -132 -160 -219c1 -71 34 -111 95 -111c53 0 94 28 114 78h152c-42 -131 -150 -203 -287 -203c-144 0 -223 83 -223 226c0 156 110 354 326 354z" />
    <glyph glyph-name="cacute.smcp" horiz-adv-x="589" 
d="M397 606h-116l107 146h179zM355 564c136 0 216 -70 216 -187c0 -12 -1 -25 -3 -38h-149c1 5 1 11 1 16c1 55 -30 84 -82 84c-106 0 -159 -132 -160 -219c1 -71 34 -111 95 -111c53 0 94 28 114 78h152c-42 -131 -150 -203 -287 -203c-144 0 -223 83 -223 226
c0 156 110 354 326 354z" />
    <glyph glyph-name="ccaron.smcp" horiz-adv-x="589" 
d="M440 606h-149l-78 146h118l42 -76l79 76h138zM355 564c136 0 216 -70 216 -187c0 -12 -1 -25 -3 -38h-149c1 5 1 11 1 16c1 55 -30 84 -82 84c-106 0 -159 -132 -160 -219c1 -71 34 -111 95 -111c53 0 94 28 114 78h152c-42 -131 -150 -203 -287 -203
c-144 0 -223 83 -223 226c0 156 110 354 326 354z" />
    <glyph glyph-name="ccedilla.smcp" horiz-adv-x="589" 
d="M568 339h-149c1 5 1 11 1 16c1 55 -30 84 -82 84c-106 0 -159 -132 -160 -219c1 -71 34 -111 95 -111c53 0 94 28 114 78h152c-38 -120 -132 -190 -253 -201l-40 -46c6 2 15 3 23 3c40 0 71 -26 71 -70c0 -56 -62 -99 -141 -99c-41 0 -77 11 -106 30l25 45
c28 -16 54 -22 79 -22c34 0 57 16 57 40c0 21 -14 33 -38 33c-12 0 -23 -2 -34 -6l-20 18l65 73c-128 9 -198 91 -198 225c0 156 110 354 326 354c136 0 216 -70 216 -187c0 -12 -1 -25 -3 -38z" />
    <glyph glyph-name="ccircumflex.smcp" horiz-adv-x="589" 
d="M554 606h-118l-42 76l-79 -76h-138l150 146h149zM355 564c136 0 216 -70 216 -187c0 -12 -1 -25 -3 -38h-149c1 5 1 11 1 16c1 55 -30 84 -82 84c-106 0 -159 -132 -160 -219c1 -71 34 -111 95 -111c53 0 94 28 114 78h152c-42 -131 -150 -203 -287 -203
c-144 0 -223 83 -223 226c0 156 110 354 326 354z" />
    <glyph glyph-name="cdotaccent.smcp" horiz-adv-x="589" 
d="M442 632h-140l30 120h140zM355 564c136 0 216 -70 216 -187c0 -12 -1 -25 -3 -38h-149c1 5 1 11 1 16c1 55 -30 84 -82 84c-106 0 -159 -132 -160 -219c1 -71 34 -111 95 -111c53 0 94 28 114 78h152c-42 -131 -150 -203 -287 -203c-144 0 -223 83 -223 226
c0 156 110 354 326 354z" />
    <glyph glyph-name="d.smcp" horiz-adv-x="621" 
d="M142 548h169c183 0 276 -86 276 -241c0 -140 -93 -307 -326 -307h-255zM256 425l-76 -302h89c124 0 170 97 170 181c0 81 -44 121 -134 121h-49z" />
    <glyph glyph-name="eth.smcp" horiz-adv-x="631" 
d="M151 548h169c183 0 276 -86 276 -241c0 -140 -93 -307 -326 -307h-255l57 231h-62l23 92h62zM189 123h89c124 0 170 97 170 181c0 81 -44 121 -134 121h-49l-26 -102h109l-23 -92h-109z" />
    <glyph glyph-name="dcaron.smcp" horiz-adv-x="621" 
d="M433 606h-149l-78 146h118l42 -76l79 76h138zM142 548h169c183 0 276 -86 276 -241c0 -140 -93 -307 -326 -307h-255zM256 425l-76 -302h89c124 0 170 97 170 181c0 81 -44 121 -134 121h-49z" />
    <glyph glyph-name="dcroat.smcp" horiz-adv-x="631" 
d="M151 548h169c183 0 276 -86 276 -241c0 -140 -93 -307 -326 -307h-255l57 231h-62l23 92h62zM189 123h89c124 0 170 97 170 181c0 81 -44 121 -134 121h-49l-26 -102h109l-23 -92h-109z" />
    <glyph glyph-name="e.smcp" horiz-adv-x="536" 
d="M529 428h-268l-23 -92h248l-29 -118h-248l-24 -98h273l-30 -120h-417l136 548h412z" />
    <glyph glyph-name="eacute.smcp" horiz-adv-x="536" 
d="M399 606h-116l107 146h179zM529 428h-268l-23 -92h248l-29 -118h-248l-24 -98h273l-30 -120h-417l136 548h412z" />
    <glyph glyph-name="ebreve.smcp" horiz-adv-x="536" 
d="M472 752h107c-27 -96 -104 -151 -208 -151c-91 0 -144 45 -144 123c0 9 1 18 2 28h83c-1 -5 -1 -9 -1 -13c0 -32 24 -51 67 -51c48 0 83 24 94 64zM529 428h-268l-23 -92h248l-29 -118h-248l-24 -98h273l-30 -120h-417l136 548h412z" />
    <glyph glyph-name="ecaron.smcp" horiz-adv-x="536" 
d="M442 606h-149l-78 146h118l42 -76l79 76h138zM529 428h-268l-23 -92h248l-29 -118h-248l-24 -98h273l-30 -120h-417l136 548h412z" />
    <glyph glyph-name="ecircumflex.smcp" horiz-adv-x="536" 
d="M556 606h-118l-42 76l-79 -76h-138l150 146h149zM529 428h-268l-23 -92h248l-29 -118h-248l-24 -98h273l-30 -120h-417l136 548h412z" />
    <glyph glyph-name="edieresis.smcp" horiz-adv-x="536" 
d="M327 632h-123l30 120h123zM544 632h-123l30 120h123zM529 428h-268l-23 -92h248l-29 -118h-248l-24 -98h273l-30 -120h-417l136 548h412z" />
    <glyph glyph-name="edotaccent.smcp" horiz-adv-x="536" 
d="M444 632h-140l30 120h140zM529 428h-268l-23 -92h248l-29 -118h-248l-24 -98h273l-30 -120h-417l136 548h412z" />
    <glyph glyph-name="egrave.smcp" horiz-adv-x="536" 
d="M406 752l47 -146h-104l-110 146h167zM529 428h-268l-23 -92h248l-29 -118h-248l-24 -98h273l-30 -120h-417l136 548h412z" />
    <glyph glyph-name="emacron.smcp" horiz-adv-x="536" 
d="M539 638h-326l22 91h326zM529 428h-268l-23 -92h248l-29 -118h-248l-24 -98h273l-30 -120h-417l136 548h412z" />
    <glyph glyph-name="eogonek.smcp" horiz-adv-x="536" 
d="M261 428l-23 -92h248l-29 -118h-248l-24 -98h273l-30 -120c-75 -44 -91 -72 -91 -98c0 -14 9 -21 28 -21c12 0 26 2 37 6l-19 -75c-18 -5 -43 -9 -69 -9c-69 0 -103 27 -103 75c0 44 34 83 107 122h-307l136 548h412l-30 -120h-268z" />
    <glyph glyph-name="f.smcp" horiz-adv-x="496" 
d="M515 426h-254l-29 -116h235l-30 -122h-235l-47 -188h-144l136 548h398z" />
    <glyph glyph-name="fi.smcp" horiz-adv-x="788" 
d="M515 426h-254l-29 -116h235l-30 -122h-235l-47 -188h-144l136 548h398zM651 0h-144l136 548h144z" />
    <glyph glyph-name="fl.smcp" horiz-adv-x="983" 
d="M515 426h-254l-29 -116h235l-30 -122h-235l-47 -188h-144l136 548h398zM681 122h259l-30 -122h-403l136 548h144z" />
    <glyph glyph-name="g.smcp" horiz-adv-x="622" 
d="M371 564c137 0 215 -69 215 -183c0 -6 0 -12 -1 -18h-153v4c0 51 -30 76 -85 76c-111 0 -169 -135 -169 -229c0 -74 36 -117 101 -117c66 0 109 36 125 92h-122l27 110h258l-74 -299h-123l10 41h-2c-38 -35 -92 -54 -153 -54c-126 0 -198 80 -198 217
c0 160 114 360 344 360z" />
    <glyph glyph-name="gbreve.smcp" horiz-adv-x="622" 
d="M480 752h107c-27 -96 -104 -151 -208 -151c-91 0 -144 45 -144 123c0 9 1 18 2 28h83c-1 -5 -1 -9 -1 -13c0 -32 24 -51 67 -51c48 0 83 24 94 64zM371 564c137 0 215 -69 215 -183c0 -6 0 -12 -1 -18h-153v4c0 51 -30 76 -85 76c-111 0 -169 -135 -169 -229
c0 -74 36 -117 101 -117c66 0 109 36 125 92h-122l27 110h258l-74 -299h-123l10 41h-2c-38 -35 -92 -54 -153 -54c-126 0 -198 80 -198 217c0 160 114 360 344 360z" />
    <glyph glyph-name="gcircumflex.smcp" horiz-adv-x="622" 
d="M564 606h-118l-42 76l-79 -76h-138l150 146h149zM371 564c137 0 215 -69 215 -183c0 -6 0 -12 -1 -18h-153v4c0 51 -30 76 -85 76c-111 0 -169 -135 -169 -229c0 -74 36 -117 101 -117c66 0 109 36 125 92h-122l27 110h258l-74 -299h-123l10 41h-2
c-38 -35 -92 -54 -153 -54c-126 0 -198 80 -198 217c0 160 114 360 344 360z" />
    <glyph glyph-name="gcommaaccent.smcp" horiz-adv-x="622" 
d="M371 564c137 0 215 -69 215 -183c0 -6 0 -12 -1 -18h-153v4c0 51 -30 76 -85 76c-111 0 -169 -135 -169 -229c0 -74 36 -117 101 -117c66 0 109 36 125 92h-122l27 110h258l-74 -299h-123l10 41h-2c-38 -35 -92 -54 -153 -54c-126 0 -198 80 -198 217
c0 160 114 360 344 360zM282 -163l-95 -107h-56l72 107h-45l26 104h124z" />
    <glyph glyph-name="gdotaccent.smcp" horiz-adv-x="622" 
d="M452 632h-140l30 120h140zM371 564c137 0 215 -69 215 -183c0 -6 0 -12 -1 -18h-153v4c0 51 -30 76 -85 76c-111 0 -169 -135 -169 -229c0 -74 36 -117 101 -117c66 0 109 36 125 92h-122l27 110h258l-74 -299h-123l10 41h-2c-38 -35 -92 -54 -153 -54
c-126 0 -198 80 -198 217c0 160 114 360 344 360z" />
    <glyph glyph-name="h.smcp" horiz-adv-x="642" 
d="M505 0h-144l55 222h-206l-55 -222h-144l136 548h144l-51 -204h206l51 204h144z" />
    <glyph glyph-name="hbar.smcp" horiz-adv-x="642" 
d="M653 434h-40l-108 -434h-144l55 222h-206l-55 -222h-144l108 434h-40l15 62h40l13 52h144l-13 -52h206l13 52h144l-13 -52h40zM469 434h-206l-23 -90h206z" />
    <glyph glyph-name="hcircumflex.smcp" horiz-adv-x="642" 
d="M597 606h-118l-42 76l-79 -76h-138l150 146h149zM505 0h-144l55 222h-206l-55 -222h-144l136 548h144l-51 -204h206l51 204h144z" />
    <glyph glyph-name="i.smcp" horiz-adv-x="292" 
d="M155 0h-144l136 548h144z" />
    <glyph glyph-name="iacute.smcp" horiz-adv-x="292" 
d="M265 606h-116l107 146h179zM155 0h-144l136 548h144z" />
    <glyph glyph-name="ibreve.smcp" horiz-adv-x="292" 
d="M328 752h101c-26 -96 -97 -151 -192 -151c-82 0 -129 44 -129 119c0 11 1 22 3 32h81c-1 -5 -1 -10 -1 -15c0 -31 19 -49 55 -49c42 0 71 24 82 64zM155 0h-144l136 548h144z" />
    <glyph glyph-name="icircumflex.smcp" horiz-adv-x="292" 
d="M407 607h-110l-34 77l-72 -77h-131l139 145h141zM155 0h-144l136 548h144z" />
    <glyph glyph-name="idieresis.smcp" horiz-adv-x="292" 
d="M215 632h-123l30 120h123zM388 632h-123l30 120h123zM155 0h-144l136 548h144z" />
    <glyph glyph-name="idotaccent.smcp" horiz-adv-x="292" 
d="M310 632h-140l30 120h140zM155 0h-144l136 548h144z" />
    <glyph glyph-name="igrave.smcp" horiz-adv-x="292" 
d="M272 752l47 -146h-104l-110 146h167zM155 0h-144l136 548h144z" />
    <glyph glyph-name="ij.smcp" horiz-adv-x="635" 
d="M155 0h-144l136 548h144zM638 548l-91 -367c-32 -129 -104 -187 -237 -187c-25 0 -51 4 -68 9l29 116c11 -2 25 -3 33 -3c60 0 89 23 112 114l79 318h143z" />
    <glyph glyph-name="imacron.smcp" horiz-adv-x="292" 
d="M384 638h-286l23 91h286zM155 0h-144l136 548h144z" />
    <glyph glyph-name="iogonek.smcp" horiz-adv-x="292" 
d="M291 548l-136 -548c-75 -44 -91 -72 -91 -98c0 -14 9 -21 28 -21c12 0 26 2 37 6l-19 -75c-18 -5 -43 -9 -69 -9c-69 0 -103 27 -103 75c0 44 34 83 107 122h-34l136 548h144z" />
    <glyph glyph-name="itilde.smcp" horiz-adv-x="292" 
d="M364 752h76c-25 -83 -72 -135 -135 -135c-59 0 -75 46 -113 46c-24 0 -39 -15 -49 -46h-77c24 83 72 135 135 135c59 0 76 -46 113 -46c24 0 39 15 50 46zM155 0h-144l136 548h144z" />
    <glyph glyph-name="j.smcp" horiz-adv-x="343" 
d="M346 548l-91 -367c-32 -129 -104 -187 -237 -187c-25 0 -51 4 -68 9l29 116c11 -2 25 -3 33 -3c60 0 89 23 112 114l79 318h143z" />
    <glyph glyph-name="jcircumflex.smcp" horiz-adv-x="343" 
d="M464 607h-110l-34 77l-72 -77h-131l139 145h141zM346 548l-91 -367c-32 -129 -104 -187 -237 -187c-25 0 -51 4 -68 9l29 116c11 -2 25 -3 33 -3c60 0 89 23 112 114l79 318h143z" />
    <glyph glyph-name="k.smcp" horiz-adv-x="571" 
d="M352 277l147 -277h-166l-116 258h-3l-64 -258h-144l136 548h144l-56 -226h3l200 226h186z" />
    <glyph glyph-name="kcommaaccent.smcp" horiz-adv-x="571" 
d="M352 277l147 -277h-166l-116 258h-3l-64 -258h-144l136 548h144l-56 -226h3l200 226h186zM252 -163l-95 -107h-56l72 107h-45l26 104h124z" />
    <glyph glyph-name="l.smcp" horiz-adv-x="487" 
d="M185 122h259l-30 -122h-403l136 548h144z" />
    <glyph glyph-name="lacute.smcp" horiz-adv-x="487" 
d="M292 606h-116l107 146h179zM185 122h259l-30 -122h-403l136 548h144z" />
    <glyph glyph-name="lcaron.smcp" horiz-adv-x="487" 
d="M185 122h259l-30 -122h-403l136 548h144zM367 371h-79l70 177h111z" />
    <glyph glyph-name="lcommaaccent.smcp" horiz-adv-x="487" 
d="M185 122h259l-30 -122h-403l136 548h144zM225 -163l-95 -107h-56l72 107h-45l26 104h124z" />
    <glyph glyph-name="ldot.smcp" horiz-adv-x="547" 
d="M185 122h259l-30 -122h-403l136 548h144zM501 272h-154l42 167h154z" />
    <glyph glyph-name="j.acute.loclNLD.smcp" horiz-adv-x="343" 
d="M322 606h-116l107 146h179zM346 548l-91 -367c-32 -129 -104 -187 -237 -187c-25 0 -51 4 -68 9l29 116c11 -2 25 -3 33 -3c60 0 89 23 112 114l79 318h143z" />
    <glyph glyph-name="lslash.smcp" horiz-adv-x="488" 
d="M445 122l-30 -122h-403l54 217l-73 -36l26 104l73 36l56 227h144l-38 -153l117 58l-26 -104l-117 -58l-42 -169h259z" />
    <glyph glyph-name="m.smcp" horiz-adv-x="850" 
d="M713 0h-138l66 265c17 67 35 134 56 200h-2c-32 -65 -66 -132 -101 -197l-146 -268h-172l-12 268c-3 65 -4 132 -3 197h-2c-13 -66 -27 -133 -44 -200l-66 -265h-138l136 548h226l10 -238c3 -65 4 -132 1 -199h2c27 67 60 134 95 199l128 238h240z" />
    <glyph glyph-name="n.smcp" horiz-adv-x="672" 
d="M530 0h-198l-47 213c-15 69 -29 142 -40 213h-2c-14 -74 -30 -149 -49 -225l-50 -201h-138l136 548h198l48 -213c15 -68 29 -142 39 -213h2c14 74 30 149 49 225l50 201h138z" />
    <glyph glyph-name="nacute.smcp" horiz-adv-x="672" 
d="M440 606h-116l107 146h179zM530 0h-198l-47 213c-15 69 -29 142 -40 213h-2c-14 -74 -30 -149 -49 -225l-50 -201h-138l136 548h198l48 -213c15 -68 29 -142 39 -213h2c14 74 30 149 49 225l50 201h138z" />
    <glyph glyph-name="ncaron.smcp" horiz-adv-x="672" 
d="M483 606h-149l-78 146h118l42 -76l79 76h138zM530 0h-198l-47 213c-15 69 -29 142 -40 213h-2c-14 -74 -30 -149 -49 -225l-50 -201h-138l136 548h198l48 -213c15 -68 29 -142 39 -213h2c14 74 30 149 49 225l50 201h138z" />
    <glyph glyph-name="ncommaaccent.smcp" horiz-adv-x="672" 
d="M530 0h-198l-47 213c-15 69 -29 142 -40 213h-2c-14 -74 -30 -149 -49 -225l-50 -201h-138l136 548h198l48 -213c15 -68 29 -142 39 -213h2c14 74 30 149 49 225l50 201h138zM299 -163l-95 -107h-56l72 107h-45l26 104h124z" />
    <glyph glyph-name="eng.smcp" horiz-adv-x="649" 
d="M643 548l-143 -576c-24 -97 -92 -137 -173 -137c-32 0 -59 3 -80 9l23 92c6 -1 13 -2 23 -2c44 0 68 24 68 62c0 18 -5 32 -21 78l-55 157c-19 53 -35 111 -48 168h-2c-10 -62 -23 -125 -38 -187l-53 -212h-138l136 548h168l66 -184c18 -54 36 -112 48 -168h2
c9 63 23 124 38 187l41 165h138z" />
    <glyph glyph-name="ntilde.smcp" horiz-adv-x="672" 
d="M555 752h78c-24 -83 -75 -135 -143 -135s-85 46 -129 46c-29 0 -46 -15 -57 -46h-80c23 83 75 135 143 135s86 -46 129 -46c30 0 47 15 59 46zM530 0h-198l-47 213c-15 69 -29 142 -40 213h-2c-14 -74 -30 -149 -49 -225l-50 -201h-138l136 548h198l48 -213
c15 -68 29 -142 39 -213h2c14 74 30 149 49 225l50 201h138z" />
    <glyph glyph-name="o.smcp" horiz-adv-x="628" 
d="M352 564c155 0 242 -95 242 -252c0 -143 -103 -328 -318 -328c-156 0 -242 95 -242 252c0 143 102 328 318 328zM342 441c-111 0 -162 -128 -162 -212c0 -77 37 -122 106 -122c112 0 163 128 163 212c0 77 -37 122 -107 122z" />
    <glyph glyph-name="oacute.smcp" horiz-adv-x="628" 
d="M408 606h-116l107 146h179zM352 564c155 0 242 -95 242 -252c0 -143 -103 -328 -318 -328c-156 0 -242 95 -242 252c0 143 102 328 318 328zM342 441c-111 0 -162 -128 -162 -212c0 -77 37 -122 106 -122c112 0 163 128 163 212c0 77 -37 122 -107 122z" />
    <glyph glyph-name="obreve.smcp" horiz-adv-x="628" 
d="M481 752h107c-27 -96 -104 -151 -208 -151c-91 0 -144 45 -144 123c0 9 1 18 2 28h83c-1 -5 -1 -9 -1 -13c0 -32 24 -51 67 -51c48 0 83 24 94 64zM352 564c155 0 242 -95 242 -252c0 -143 -103 -328 -318 -328c-156 0 -242 95 -242 252c0 143 102 328 318 328zM342 441
c-111 0 -162 -128 -162 -212c0 -77 37 -122 106 -122c112 0 163 128 163 212c0 77 -37 122 -107 122z" />
    <glyph glyph-name="ocircumflex.smcp" horiz-adv-x="628" 
d="M565 606h-118l-42 76l-79 -76h-138l150 146h149zM352 564c155 0 242 -95 242 -252c0 -143 -103 -328 -318 -328c-156 0 -242 95 -242 252c0 143 102 328 318 328zM342 441c-111 0 -162 -128 -162 -212c0 -77 37 -122 106 -122c112 0 163 128 163 212
c0 77 -37 122 -107 122z" />
    <glyph glyph-name="odieresis.smcp" horiz-adv-x="628" 
d="M336 632h-123l30 120h123zM553 632h-123l30 120h123zM352 564c155 0 242 -95 242 -252c0 -143 -103 -328 -318 -328c-156 0 -242 95 -242 252c0 143 102 328 318 328zM342 441c-111 0 -162 -128 -162 -212c0 -77 37 -122 106 -122c112 0 163 128 163 212
c0 77 -37 122 -107 122z" />
    <glyph glyph-name="ograve.smcp" horiz-adv-x="628" 
d="M415 752l47 -146h-104l-110 146h167zM352 564c155 0 242 -95 242 -252c0 -143 -103 -328 -318 -328c-156 0 -242 95 -242 252c0 143 102 328 318 328zM342 441c-111 0 -162 -128 -162 -212c0 -77 37 -122 106 -122c112 0 163 128 163 212c0 77 -37 122 -107 122z" />
    <glyph glyph-name="ohungarumlaut.smcp" horiz-adv-x="628" 
d="M320 606h-116l127 146h159zM510 606h-116l127 146h159zM352 564c155 0 242 -95 242 -252c0 -143 -103 -328 -318 -328c-156 0 -242 95 -242 252c0 143 102 328 318 328zM342 441c-111 0 -162 -128 -162 -212c0 -77 37 -122 106 -122c112 0 163 128 163 212
c0 77 -37 122 -107 122z" />
    <glyph glyph-name="omacron.smcp" horiz-adv-x="628" 
d="M548 638h-326l22 91h326zM352 564c155 0 242 -95 242 -252c0 -143 -103 -328 -318 -328c-156 0 -242 95 -242 252c0 143 102 328 318 328zM342 441c-111 0 -162 -128 -162 -212c0 -77 37 -122 106 -122c112 0 163 128 163 212c0 77 -37 122 -107 122z" />
    <glyph glyph-name="oslash.smcp" horiz-adv-x="628" 
d="M616 518l-58 -57c24 -39 36 -90 36 -149c0 -143 -103 -328 -318 -328c-66 0 -119 17 -159 48l-55 -53l-51 53l58 56c-23 40 -35 90 -35 148c0 143 102 328 318 328c65 0 118 -17 158 -48l55 55zM342 447c-117 0 -170 -133 -170 -218c0 -13 1 -26 3 -37l240 233
c-19 14 -43 22 -73 22zM286 101c118 0 171 133 171 218c0 14 -2 28 -4 40l-241 -234c19 -16 43 -24 74 -24z" />
    <glyph glyph-name="otilde.smcp" horiz-adv-x="628" 
d="M523 752h78c-24 -83 -75 -135 -143 -135s-85 46 -129 46c-29 0 -46 -15 -57 -46h-80c23 83 75 135 143 135s86 -46 129 -46c30 0 47 15 59 46zM352 564c155 0 242 -95 242 -252c0 -143 -103 -328 -318 -328c-156 0 -242 95 -242 252c0 143 102 328 318 328zM342 441
c-111 0 -162 -128 -162 -212c0 -77 37 -122 106 -122c112 0 163 128 163 212c0 77 -37 122 -107 122z" />
    <glyph glyph-name="oe.smcp" horiz-adv-x="841" 
d="M834 428h-268l-23 -92h248l-29 -118h-248l-24 -98h273l-30 -120h-419c-185 0 -279 86 -279 241c0 140 94 307 329 307h500zM423 428h-66c-127 0 -174 -99 -174 -184c0 -83 45 -124 136 -124h27z" />
    <glyph glyph-name="p.smcp" horiz-adv-x="547" 
d="M142 548h180c151 0 220 -68 220 -177c0 -93 -67 -201 -234 -201h-116l-42 -170h-144zM257 431l-36 -145h87c68 0 90 44 90 81c0 42 -26 64 -85 64h-56z" />
    <glyph glyph-name="thorn.smcp" horiz-adv-x="547" 
d="M266 468h36c151 0 220 -68 220 -177c0 -93 -67 -201 -234 -201h-116l-22 -90h-144l136 548h144zM237 351l-36 -145h87c68 0 90 44 90 81c0 42 -26 64 -85 64h-56z" />
    <glyph glyph-name="q.smcp" horiz-adv-x="628" 
d="M594 312c0 -87 -38 -189 -116 -256l47 -67l-84 -58l-51 73c-33 -13 -72 -20 -114 -20c-156 0 -242 95 -242 252c0 143 102 328 318 328c155 0 242 -95 242 -252zM180 225c0 -78 38 -124 108 -124c11 0 22 1 33 4l-58 83l84 58l57 -83c34 45 50 106 50 154
c0 78 -38 124 -109 124c-113 0 -165 -130 -165 -216z" />
    <glyph glyph-name="r.smcp" horiz-adv-x="569" 
d="M147 548h213c122 0 194 -41 194 -136c0 -69 -46 -139 -140 -163v-2c32 -14 43 -36 54 -102l25 -145h-144l-19 120c-9 55 -27 75 -80 75h-47l-48 -195h-144zM264 438l-34 -135h82c73 0 92 45 92 77c0 41 -29 58 -79 58h-61z" />
    <glyph glyph-name="racute.smcp" horiz-adv-x="569" 
d="M401 606h-116l107 146h179zM147 548h213c122 0 194 -41 194 -136c0 -69 -46 -139 -140 -163v-2c32 -14 43 -36 54 -102l25 -145h-144l-19 120c-9 55 -27 75 -80 75h-47l-48 -195h-144zM264 438l-34 -135h82c73 0 92 45 92 77c0 41 -29 58 -79 58h-61z" />
    <glyph glyph-name="rcaron.smcp" horiz-adv-x="569" 
d="M444 606h-149l-78 146h118l42 -76l79 76h138zM147 548h213c122 0 194 -41 194 -136c0 -69 -46 -139 -140 -163v-2c32 -14 43 -36 54 -102l25 -145h-144l-19 120c-9 55 -27 75 -80 75h-47l-48 -195h-144zM264 438l-34 -135h82c73 0 92 45 92 77c0 41 -29 58 -79 58h-61z
" />
    <glyph glyph-name="rcommaaccent.smcp" horiz-adv-x="569" 
d="M147 548h213c122 0 194 -41 194 -136c0 -69 -46 -139 -140 -163v-2c32 -14 43 -36 54 -102l25 -145h-144l-19 120c-9 55 -27 75 -80 75h-47l-48 -195h-144zM264 438l-34 -135h82c73 0 92 45 92 77c0 41 -29 58 -79 58h-61zM256 -163l-95 -107h-56l72 107h-45l26 104h124z
" />
    <glyph glyph-name="s.smcp" horiz-adv-x="534" 
d="M311 564c136 0 206 -49 206 -146c0 -11 -1 -24 -4 -37h-143c1 5 2 11 2 16c0 38 -25 60 -72 60c-51 0 -90 -22 -90 -57c0 -32 31 -43 100 -65c87 -28 163 -56 163 -161c0 -83 -80 -190 -258 -190c-139 0 -219 55 -219 155c0 12 1 25 5 40h146c-1 -6 -2 -13 -2 -19
c0 -44 30 -67 90 -67c52 0 91 25 91 62c0 36 -32 48 -93 68c-87 29 -168 57 -168 157c0 83 83 184 246 184z" />
    <glyph glyph-name="sacute.smcp" horiz-adv-x="534" 
d="M353 606h-116l107 146h179zM311 564c136 0 206 -49 206 -146c0 -11 -1 -24 -4 -37h-143c1 5 2 11 2 16c0 38 -25 60 -72 60c-51 0 -90 -22 -90 -57c0 -32 31 -43 100 -65c87 -28 163 -56 163 -161c0 -83 -80 -190 -258 -190c-139 0 -219 55 -219 155c0 12 1 25 5 40h146
c-1 -6 -2 -13 -2 -19c0 -44 30 -67 90 -67c52 0 91 25 91 62c0 36 -32 48 -93 68c-87 29 -168 57 -168 157c0 83 83 184 246 184z" />
    <glyph glyph-name="scaron.smcp" horiz-adv-x="534" 
d="M396 606h-149l-78 146h118l42 -76l79 76h138zM311 564c136 0 206 -49 206 -146c0 -11 -1 -24 -4 -37h-143c1 5 2 11 2 16c0 38 -25 60 -72 60c-51 0 -90 -22 -90 -57c0 -32 31 -43 100 -65c87 -28 163 -56 163 -161c0 -83 -80 -190 -258 -190c-139 0 -219 55 -219 155
c0 12 1 25 5 40h146c-1 -6 -2 -13 -2 -19c0 -44 30 -67 90 -67c52 0 91 25 91 62c0 36 -32 48 -93 68c-87 29 -168 57 -168 157c0 83 83 184 246 184z" />
    <glyph glyph-name="scedilla.smcp" horiz-adv-x="534" 
d="M513 381h-143c1 5 2 11 2 16c0 38 -25 60 -72 60c-51 0 -90 -22 -90 -57c0 -32 31 -43 100 -65c87 -28 163 -56 163 -161c0 -78 -70 -176 -224 -189l-40 -45c6 2 15 3 23 3c40 0 71 -26 71 -70c0 -56 -62 -99 -141 -99c-41 0 -77 11 -106 30l25 45c28 -16 54 -22 79 -22
c34 0 57 16 57 40c0 21 -14 33 -38 33c-12 0 -23 -2 -34 -6l-20 18l64 73c-123 6 -193 60 -193 154c0 12 1 25 5 40h146c-1 -6 -2 -13 -2 -19c0 -44 30 -67 90 -67c52 0 91 25 91 62c0 36 -32 48 -93 68c-87 29 -168 57 -168 157c0 83 83 184 246 184
c136 0 206 -49 206 -146c0 -11 -1 -24 -4 -37z" />
    <glyph glyph-name="scircumflex.smcp" horiz-adv-x="534" 
d="M510 606h-118l-42 76l-79 -76h-138l150 146h149zM311 564c136 0 206 -49 206 -146c0 -11 -1 -24 -4 -37h-143c1 5 2 11 2 16c0 38 -25 60 -72 60c-51 0 -90 -22 -90 -57c0 -32 31 -43 100 -65c87 -28 163 -56 163 -161c0 -83 -80 -190 -258 -190c-139 0 -219 55 -219 155
c0 12 1 25 5 40h146c-1 -6 -2 -13 -2 -19c0 -44 30 -67 90 -67c52 0 91 25 91 62c0 36 -32 48 -93 68c-87 29 -168 57 -168 157c0 83 83 184 246 184z" />
    <glyph glyph-name="scommaaccent.smcp" horiz-adv-x="534" 
d="M311 564c136 0 206 -49 206 -146c0 -11 -1 -24 -4 -37h-143c1 5 2 11 2 16c0 38 -25 60 -72 60c-51 0 -90 -22 -90 -57c0 -32 31 -43 100 -65c87 -28 163 -56 163 -161c0 -83 -80 -190 -258 -190c-139 0 -219 55 -219 155c0 12 1 25 5 40h146c-1 -6 -2 -13 -2 -19
c0 -44 30 -67 90 -67c52 0 91 25 91 62c0 36 -32 48 -93 68c-87 29 -168 57 -168 157c0 83 83 184 246 184zM240 -163l-95 -107h-56l72 107h-45l26 104h124z" />
    <glyph glyph-name="germandbls.smcp" horiz-adv-x="692" 
d="M646 443l-138 -120c71 -29 111 -79 111 -153c0 -90 -73 -186 -226 -186c-114 0 -177 43 -177 129c0 12 1 26 5 42h131c-1 -5 -2 -11 -2 -16c0 -28 18 -43 58 -43c44 0 62 34 62 64c0 51 -46 75 -131 82l24 95l103 89c-19 15 -48 24 -84 24c-83 0 -138 -49 -162 -146
l-75 -304h-144l78 315c41 164 153 249 325 249c116 0 202 -48 242 -121z" />
    <glyph glyph-name="t.smcp" horiz-adv-x="516" 
d="M549 427h-176l-106 -427h-144l106 427h-176l30 121h496z" />
    <glyph glyph-name="tbar.smcp" horiz-adv-x="516" 
d="M373 427l-31 -123h100l-22 -92h-100l-53 -212h-144l53 212h-100l22 92h100l31 123h-176l30 121h496l-30 -121h-176z" />
    <glyph glyph-name="tcaron.smcp" horiz-adv-x="516" 
d="M420 606h-149l-78 146h118l42 -76l79 76h138zM549 427h-176l-106 -427h-144l106 427h-176l30 121h496z" />
    <glyph glyph-name="tcedilla.smcp" horiz-adv-x="516" 
d="M549 427h-176l-106 -427h-144l106 427h-176l30 121h496zM216 -163l-95 -107h-56l72 107h-45l26 104h124z" />
    <glyph glyph-name="tcommaaccent.smcp" horiz-adv-x="516" 
d="M549 427h-176l-106 -427h-144l106 427h-176l30 121h496zM216 -163l-95 -107h-56l72 107h-45l26 104h124z" />
    <glyph glyph-name="u.smcp" horiz-adv-x="612" 
d="M617 548l-90 -362c-33 -131 -124 -202 -258 -202c-140 0 -212 68 -212 194c0 22 4 46 10 72l74 298h144l-80 -323c-4 -15 -5 -27 -5 -38c0 -51 27 -78 80 -78c55 0 93 34 108 96l85 343h144z" />
    <glyph glyph-name="uacute.smcp" horiz-adv-x="612" 
d="M415 606h-116l107 146h179zM617 548l-90 -362c-33 -131 -124 -202 -258 -202c-140 0 -212 68 -212 194c0 22 4 46 10 72l74 298h144l-80 -323c-4 -15 -5 -27 -5 -38c0 -51 27 -78 80 -78c55 0 93 34 108 96l85 343h144z" />
    <glyph glyph-name="ubreve.smcp" horiz-adv-x="612" 
d="M488 752h107c-27 -96 -104 -151 -208 -151c-91 0 -144 45 -144 123c0 9 1 18 2 28h83c-1 -5 -1 -9 -1 -13c0 -32 24 -51 67 -51c48 0 83 24 94 64zM617 548l-90 -362c-33 -131 -124 -202 -258 -202c-140 0 -212 68 -212 194c0 22 4 46 10 72l74 298h144l-80 -323
c-4 -15 -5 -27 -5 -38c0 -51 27 -78 80 -78c55 0 93 34 108 96l85 343h144z" />
    <glyph glyph-name="ucircumflex.smcp" horiz-adv-x="612" 
d="M572 606h-118l-42 76l-79 -76h-138l150 146h149zM617 548l-90 -362c-33 -131 -124 -202 -258 -202c-140 0 -212 68 -212 194c0 22 4 46 10 72l74 298h144l-80 -323c-4 -15 -5 -27 -5 -38c0 -51 27 -78 80 -78c55 0 93 34 108 96l85 343h144z" />
    <glyph glyph-name="udieresis.smcp" horiz-adv-x="612" 
d="M343 632h-123l30 120h123zM560 632h-123l30 120h123zM617 548l-90 -362c-33 -131 -124 -202 -258 -202c-140 0 -212 68 -212 194c0 22 4 46 10 72l74 298h144l-80 -323c-4 -15 -5 -27 -5 -38c0 -51 27 -78 80 -78c55 0 93 34 108 96l85 343h144z" />
    <glyph glyph-name="ugrave.smcp" horiz-adv-x="612" 
d="M422 752l47 -146h-104l-110 146h167zM617 548l-90 -362c-33 -131 -124 -202 -258 -202c-140 0 -212 68 -212 194c0 22 4 46 10 72l74 298h144l-80 -323c-4 -15 -5 -27 -5 -38c0 -51 27 -78 80 -78c55 0 93 34 108 96l85 343h144z" />
    <glyph glyph-name="uhungarumlaut.smcp" horiz-adv-x="612" 
d="M327 606h-116l127 146h159zM517 606h-116l127 146h159zM617 548l-90 -362c-33 -131 -124 -202 -258 -202c-140 0 -212 68 -212 194c0 22 4 46 10 72l74 298h144l-80 -323c-4 -15 -5 -27 -5 -38c0 -51 27 -78 80 -78c55 0 93 34 108 96l85 343h144z" />
    <glyph glyph-name="umacron.smcp" horiz-adv-x="612" 
d="M555 638h-326l22 91h326zM617 548l-90 -362c-33 -131 -124 -202 -258 -202c-140 0 -212 68 -212 194c0 22 4 46 10 72l74 298h144l-80 -323c-4 -15 -5 -27 -5 -38c0 -51 27 -78 80 -78c55 0 93 34 108 96l85 343h144z" />
    <glyph glyph-name="uogonek.smcp" horiz-adv-x="612" 
d="M617 548l-90 -362c-22 -85 -68 -143 -124 -183c-66 -47 -83 -74 -83 -101c0 -14 9 -21 28 -21c12 0 26 2 37 6l-19 -75c-18 -5 -43 -9 -69 -9c-69 0 -103 27 -103 75c0 37 26 71 83 104v2h-8c-140 0 -212 68 -212 194c0 22 4 46 10 72l74 298h144l-80 -323
c-4 -15 -5 -27 -5 -38c0 -51 27 -78 80 -78c55 0 93 34 108 96l85 343h144z" />
    <glyph glyph-name="uring.smcp" horiz-adv-x="612" 
d="M398 812c60 0 108 -48 108 -108s-48 -108 -108 -108s-108 48 -108 108s48 108 108 108zM398 758c-30 0 -54 -24 -54 -54s24 -54 54 -54s54 24 54 54s-24 54 -54 54zM617 548l-90 -362c-33 -131 -124 -202 -258 -202c-140 0 -212 68 -212 194c0 22 4 46 10 72l74 298h144
l-80 -323c-4 -15 -5 -27 -5 -38c0 -51 27 -78 80 -78c55 0 93 34 108 96l85 343h144z" />
    <glyph glyph-name="utilde.smcp" horiz-adv-x="612" 
d="M530 752h78c-24 -83 -75 -135 -143 -135s-85 46 -129 46c-29 0 -46 -15 -57 -46h-80c23 83 75 135 143 135s86 -46 129 -46c30 0 47 15 59 46zM617 548l-90 -362c-33 -131 -124 -202 -258 -202c-140 0 -212 68 -212 194c0 22 4 46 10 72l74 298h144l-80 -323
c-4 -15 -5 -27 -5 -38c0 -51 27 -78 80 -78c55 0 93 34 108 96l85 343h144z" />
    <glyph glyph-name="v.smcp" horiz-adv-x="538" 
d="M301 0h-188l-34 548h141l9 -207c3 -69 4 -141 2 -211h2c30 70 65 141 102 211l110 207h161z" />
    <glyph glyph-name="w.smcp" horiz-adv-x="811" 
d="M626 0h-193l6 216c2 71 5 144 10 216h-2c-28 -72 -59 -145 -93 -216l-102 -216h-193l22 548h135l-12 -192c-4 -74 -11 -151 -19 -226h2c31 75 64 152 100 226l93 192h185l-3 -192c-1 -75 -4 -151 -9 -226h2c27 75 58 152 90 226l84 192h147z" />
    <glyph glyph-name="wacute.smcp" horiz-adv-x="811" 
d="M510 606h-116l107 146h179zM626 0h-193l6 216c2 71 5 144 10 216h-2c-28 -72 -59 -145 -93 -216l-102 -216h-193l22 548h135l-12 -192c-4 -74 -11 -151 -19 -226h2c31 75 64 152 100 226l93 192h185l-3 -192c-1 -75 -4 -151 -9 -226h2c27 75 58 152 90 226l84 192h147z
" />
    <glyph glyph-name="wcircumflex.smcp" horiz-adv-x="811" 
d="M667 606h-118l-42 76l-79 -76h-138l150 146h149zM626 0h-193l6 216c2 71 5 144 10 216h-2c-28 -72 -59 -145 -93 -216l-102 -216h-193l22 548h135l-12 -192c-4 -74 -11 -151 -19 -226h2c31 75 64 152 100 226l93 192h185l-3 -192c-1 -75 -4 -151 -9 -226h2
c27 75 58 152 90 226l84 192h147z" />
    <glyph glyph-name="wdieresis.smcp" horiz-adv-x="811" 
d="M438 632h-123l30 120h123zM655 632h-123l30 120h123zM626 0h-193l6 216c2 71 5 144 10 216h-2c-28 -72 -59 -145 -93 -216l-102 -216h-193l22 548h135l-12 -192c-4 -74 -11 -151 -19 -226h2c31 75 64 152 100 226l93 192h185l-3 -192c-1 -75 -4 -151 -9 -226h2
c27 75 58 152 90 226l84 192h147z" />
    <glyph glyph-name="wgrave.smcp" horiz-adv-x="811" 
d="M517 752l47 -146h-104l-110 146h167zM626 0h-193l6 216c2 71 5 144 10 216h-2c-28 -72 -59 -145 -93 -216l-102 -216h-193l22 548h135l-12 -192c-4 -74 -11 -151 -19 -226h2c31 75 64 152 100 226l93 192h185l-3 -192c-1 -75 -4 -151 -9 -226h2c27 75 58 152 90 226
l84 192h147z" />
    <glyph glyph-name="x.smcp" horiz-adv-x="542" 
d="M365 276l111 -276h-152l-57 177h-2l-137 -177h-188l251 288l-105 260h150l52 -170h2l130 170h183z" />
    <glyph glyph-name="y.smcp" horiz-adv-x="541" 
d="M325 204l-51 -204h-144l51 204l-111 344h143l25 -97c12 -45 22 -90 29 -136h2c26 46 55 91 89 136l73 97h175z" />
    <glyph glyph-name="yacute.smcp" horiz-adv-x="541" 
d="M364 606h-116l107 146h179zM325 204l-51 -204h-144l51 204l-111 344h143l25 -97c12 -45 22 -90 29 -136h2c26 46 55 91 89 136l73 97h175z" />
    <glyph glyph-name="ycircumflex.smcp" horiz-adv-x="541" 
d="M521 606h-118l-42 76l-79 -76h-138l150 146h149zM325 204l-51 -204h-144l51 204l-111 344h143l25 -97c12 -45 22 -90 29 -136h2c26 46 55 91 89 136l73 97h175z" />
    <glyph glyph-name="ydieresis.smcp" horiz-adv-x="541" 
d="M292 632h-123l30 120h123zM509 632h-123l30 120h123zM325 204l-51 -204h-144l51 204l-111 344h143l25 -97c12 -45 22 -90 29 -136h2c26 46 55 91 89 136l73 97h175z" />
    <glyph glyph-name="ygrave.smcp" horiz-adv-x="541" 
d="M371 752l47 -146h-104l-110 146h167zM325 204l-51 -204h-144l51 204l-111 344h143l25 -97c12 -45 22 -90 29 -136h2c26 46 55 91 89 136l73 97h175z" />
    <glyph glyph-name="z.smcp" horiz-adv-x="486" 
d="M497 423l-327 -301v-2h265l-30 -120h-450l31 125l327 301v2h-238l30 120h423z" />
    <glyph glyph-name="zacute.smcp" horiz-adv-x="486" 
d="M343 606h-116l107 146h179zM497 423l-327 -301v-2h265l-30 -120h-450l31 125l327 301v2h-238l30 120h423z" />
    <glyph glyph-name="zcaron.smcp" horiz-adv-x="486" 
d="M386 606h-149l-78 146h118l42 -76l79 76h138zM497 423l-327 -301v-2h265l-30 -120h-450l31 125l327 301v2h-238l30 120h423z" />
    <glyph glyph-name="zdotaccent.smcp" horiz-adv-x="486" 
d="M388 632h-140l30 120h140zM497 423l-327 -301v-2h265l-30 -120h-450l31 125l327 301v2h-238l30 120h423z" />
    <glyph glyph-name="ccedilla.smcp.ss01" horiz-adv-x="589" 
d="M355 564c136 0 216 -70 216 -187c0 -12 -1 -25 -3 -38h-149c1 5 1 11 1 16c1 55 -30 84 -82 84c-106 0 -159 -132 -160 -219c1 -71 34 -111 95 -111c53 0 94 28 114 78h152c-42 -131 -150 -203 -287 -203c-144 0 -223 83 -223 226c0 156 110 354 326 354zM184 -217h-169
l175 168h126z" />
    <glyph glyph-name="scedilla.smcp.ss01" horiz-adv-x="534" 
d="M311 564c136 0 206 -49 206 -146c0 -11 -1 -24 -4 -37h-143c1 5 2 11 2 16c0 38 -25 60 -72 60c-51 0 -90 -22 -90 -57c0 -32 31 -43 100 -65c87 -28 163 -56 163 -161c0 -83 -80 -190 -258 -190c-139 0 -219 55 -219 155c0 12 1 25 5 40h146c-1 -6 -2 -13 -2 -19
c0 -44 30 -67 90 -67c52 0 91 25 91 62c0 36 -32 48 -93 68c-87 29 -168 57 -168 157c0 83 83 184 246 184zM147 -217h-169l175 168h126z" />
    <glyph glyph-name="tcedilla.smcp.ss01" horiz-adv-x="516" 
d="M549 427h-176l-106 -427h-144l106 427h-176l30 121h496zM123 -217h-169l175 168h126z" />
    <glyph glyph-name="ordfeminine" unicode="&#xaa;" horiz-adv-x="412" 
d="M294 697c102 0 150 -40 150 -114c0 -14 -2 -30 -6 -47l-26 -105c-12 -48 -16 -76 -14 -101h-107c0 12 1 26 5 40h-2c-35 -33 -76 -49 -122 -49c-72 0 -110 39 -110 97c0 54 37 110 171 128c29 4 70 8 94 9l2 7c2 7 3 15 3 21c0 28 -18 39 -45 39c-30 0 -51 -17 -58 -49
h-116c15 67 77 124 181 124zM306 470l5 21c-19 -1 -47 -4 -67 -8c-47 -8 -60 -28 -60 -50c0 -21 14 -34 41 -34c43 0 70 28 81 71z" />
    <glyph glyph-name="ordmasculine" unicode="&#xba;" horiz-adv-x="442" 
d="M305 697c112 0 176 -62 176 -164c0 -94 -73 -214 -218 -214c-112 0 -175 62 -175 164c0 94 72 214 217 214zM300 606c-62 0 -88 -78 -88 -126c0 -44 17 -71 56 -71c62 0 88 78 88 126c0 45 -18 71 -56 71z" />
    <glyph glyph-name="Delta" unicode="&#x394;" horiz-adv-x="698" 
d="M632 0h-692l426 712h198zM481 126l-16 221c-6 92 -11 186 -14 278h-2c-45 -92 -95 -186 -147 -278l-125 -221h304z" />
    <glyph glyph-name="Omega" unicode="&#x3a9;" horiz-adv-x="734" 
d="M455 728c168 0 276 -79 276 -242c0 -144 -75 -254 -208 -360v-2h148l-31 -124h-294l32 130c126 98 193 206 193 318c0 100 -54 150 -136 150c-146 0 -221 -148 -221 -268c0 -81 27 -142 64 -200l-32 -130h-278l31 124h152v2c-46 66 -80 139 -80 232
c0 168 125 370 384 370z" />
    <glyph glyph-name="mu" unicode="&#x3bc;" horiz-adv-x="613" 
d="M598 508l-84 -340c-4 -15 -6 -27 -6 -36c0 -23 12 -31 33 -31c8 0 16 1 25 3l-26 -105c-18 -5 -38 -7 -61 -7c-63 0 -92 28 -96 81h-2c-28 -49 -86 -79 -146 -79c-38 0 -67 12 -84 34l-53 -213h-140l173 693h140l-73 -292c-4 -18 -6 -33 -6 -46c0 -49 26 -72 72 -72
c55 0 104 46 127 138l67 272h140z" />
    <glyph glyph-name="pi" unicode="&#x3c0;" horiz-adv-x="672" 
d="M691 404h-100l-53 -215c-5 -18 -8 -33 -8 -45c0 -36 17 -47 50 -47c7 0 15 1 21 2l-26 -100c-14 -4 -37 -7 -55 -7c-89 0 -135 31 -135 117c0 21 4 47 12 77l54 218h-172l-100 -404h-140l100 404h-93l26 104h645z" />
    <glyph glyph-name="zero.lf" horiz-adv-x="626" 
d="M394 690c144 0 216 -89 216 -251c0 -186 -107 -455 -338 -455c-143 0 -216 89 -216 250c0 186 108 456 338 456zM384 569c-122 0 -181 -234 -181 -336c0 -85 26 -130 78 -130c123 0 182 234 182 336c0 83 -27 130 -79 130z" />
    <glyph glyph-name="one.lf" horiz-adv-x="412" 
d="M259 0h-144l114 457h-163l25 102c114 0 174 34 205 115h131z" />
    <glyph glyph-name="two.lf" horiz-adv-x="606" 
d="M390 690c131 0 210 -67 210 -175c0 -105 -70 -183 -225 -261c-135 -68 -165 -95 -178 -136h325l-28 -118h-505c30 166 105 246 284 335c132 66 176 107 176 168c0 42 -25 68 -72 68c-63 0 -101 -38 -119 -108h-145c37 148 139 227 277 227z" />
    <glyph glyph-name="three.lf" horiz-adv-x="599" 
d="M384 690c137 0 215 -65 215 -172c0 -74 -41 -144 -158 -180v-2c60 -25 90 -70 90 -134c0 -100 -87 -218 -268 -218c-150 0 -232 64 -232 185c0 15 2 33 5 51h144c-3 -15 -5 -28 -5 -40c0 -52 32 -77 94 -77c76 0 119 55 119 98c0 52 -38 78 -112 78h-20l28 116h19
c108 0 151 60 151 106c0 43 -30 70 -83 70c-61 0 -104 -35 -123 -111h-145c34 145 136 230 281 230z" />
    <glyph glyph-name="four.lf" horiz-adv-x="596" 
d="M488 264h94l-28 -113h-94l-38 -151h-144l38 151h-327l33 131l367 392h201zM154 264h193l20 82c19 72 38 143 62 215h-2c-59 -69 -119 -137 -182 -203z" />
    <glyph glyph-name="five.lf" 
d="M593 557h-309l-52 -145h2c36 26 79 37 120 37c120 0 191 -76 191 -193c0 -118 -103 -272 -301 -272c-135 0 -216 60 -216 161c0 12 1 26 4 40h145c-2 -7 -2 -13 -2 -19c0 -42 37 -64 87 -64c96 0 132 84 132 144c0 58 -33 88 -88 88c-48 0 -87 -28 -106 -70l-140 9
l138 401h424z" />
    <glyph glyph-name="six.lf" horiz-adv-x="596" 
d="M395 690c133 0 209 -65 209 -177c0 -7 0 -15 -1 -23h-145c0 5 1 9 1 12c0 46 -25 70 -73 70c-65 0 -132 -51 -171 -179h2c42 31 92 47 143 47c116 0 186 -78 186 -198c0 -110 -99 -258 -280 -258c-138 0 -213 79 -213 238c0 187 114 468 342 468zM316 331
c-82 0 -124 -78 -124 -137c0 -56 27 -92 80 -92c81 0 123 76 123 132c0 61 -27 97 -79 97z" />
    <glyph glyph-name="seven.lf" horiz-adv-x="494" 
d="M582 674l-31 -124c-129 -141 -254 -340 -339 -550h-157c106 243 249 444 357 552h-324l31 122h463z" />
    <glyph glyph-name="eight.lf" horiz-adv-x="601" 
d="M383 690c135 0 220 -67 220 -174c0 -75 -54 -154 -161 -177v-2c59 -25 94 -78 94 -146c0 -95 -91 -207 -276 -207c-143 0 -230 71 -230 192c0 77 59 162 177 185v2c-53 25 -84 73 -84 133c0 87 92 194 260 194zM371 573c-78 0 -115 -52 -115 -93c0 -49 33 -76 91 -76
c80 0 114 56 114 93c0 48 -33 76 -90 76zM299 289c-85 0 -124 -62 -124 -107c0 -50 36 -79 97 -79c86 0 126 60 126 105c0 51 -37 81 -99 81z" />
    <glyph glyph-name="nine.lf" horiz-adv-x="596" 
d="M242 -16c-133 0 -209 65 -209 177c0 7 0 15 1 23h145c0 -5 -1 -9 -1 -12c0 -46 25 -70 73 -70c65 0 132 51 171 179h-2c-42 -31 -92 -47 -143 -47c-116 0 -186 78 -186 198c0 110 99 258 280 258c138 0 213 -79 213 -238c0 -187 -114 -468 -342 -468zM321 343
c82 0 124 78 124 137c0 56 -27 92 -80 92c-81 0 -123 -76 -123 -132c0 -61 27 -97 79 -97z" />
    <glyph glyph-name="fraction" unicode="&#x2044;" horiz-adv-x="148" 
d="M-128 0h-91l537 674h91z" />
    <glyph glyph-name="onehalf" unicode="&#xbd;" horiz-adv-x="834" 
d="M152 0h-91l537 674h91zM230 270h-114l64 252h-103l19 81c74 0 113 21 133 71h102zM655 414c94 0 147 -45 147 -110c0 -61 -43 -110 -141 -149c-82 -32 -98 -45 -105 -65h206l-21 -90h-344c18 110 68 162 175 208c75 33 114 53 114 88c0 20 -13 33 -38 33
c-32 0 -54 -20 -63 -58h-116c22 92 90 143 186 143z" />
    <glyph glyph-name="onequarter" unicode="&#xbc;" horiz-adv-x="806" 
d="M689 674l-537 -674h-91l537 674h91zM180 522h-103l19 81c74 0 113 21 133 71h102l-101 -404h-114zM753 80h-67l-20 -80h-111l20 80h-201l23 95l218 229h152l-60 -240h66zM494 164h106l10 42c9 38 20 76 34 114h-2c-30 -34 -61 -67 -93 -100z" />
    <glyph glyph-name="threequarters" unicode="&#xbe;" horiz-adv-x="926" 
d="M403 393c0 -61 -58 -133 -179 -133c-106 0 -162 40 -162 115c0 9 1 20 3 31h114c-1 -7 -2 -14 -2 -20c0 -27 18 -40 52 -40c42 0 63 27 63 47c0 26 -21 39 -62 39h-12l20 82h14c53 0 78 25 78 50c0 22 -16 35 -46 35c-35 0 -58 -20 -67 -57h-112c20 89 89 142 188 142
c96 0 150 -40 150 -106c0 -44 -25 -83 -96 -105v-2c38 -14 56 -40 56 -78zM809 674l-537 -674h-91l537 674h91zM873 80h-67l-20 -80h-111l20 80h-201l23 95l218 229h152l-60 -240h66zM614 164h106l10 42c9 38 20 76 34 114h-2c-30 -34 -61 -67 -93 -100z" />
    <glyph glyph-name="oneeighth" unicode="&#x215b;" horiz-adv-x="826" 
d="M152 0h-91l537 674h91zM230 270h-114l64 252h-103l19 81c74 0 113 21 133 71h102zM649 414c93 0 150 -43 150 -110c0 -44 -33 -91 -100 -102v-2c38 -13 62 -46 62 -88c0 -56 -56 -122 -182 -122c-100 0 -158 44 -158 117c0 48 38 99 112 109v2c-35 14 -55 44 -55 80
c0 53 58 116 171 116zM642 332c-42 0 -62 -26 -62 -47c0 -24 17 -39 49 -39c40 0 62 25 62 48c0 24 -18 38 -49 38zM600 166c-47 0 -66 -31 -66 -52c0 -25 19 -40 52 -40c43 0 66 26 66 52c0 25 -19 40 -52 40z" />
    <glyph glyph-name="threeeighths" unicode="&#x215c;" horiz-adv-x="946" 
d="M293 684c96 0 150 -40 150 -106c0 -44 -25 -83 -96 -105v-2c38 -14 56 -40 56 -78c0 -61 -58 -133 -179 -133c-106 0 -162 40 -162 115c0 9 1 20 3 31h114c-1 -7 -2 -14 -2 -20c0 -27 18 -40 52 -40c42 0 63 27 63 47c0 26 -21 39 -62 39h-12l20 82h14c53 0 78 25 78 50
c0 22 -16 35 -46 35c-35 0 -58 -20 -67 -57h-112c20 89 89 142 188 142zM272 0h-91l537 674h91zM769 414c93 0 150 -43 150 -110c0 -44 -33 -91 -100 -102v-2c38 -13 62 -46 62 -88c0 -56 -56 -122 -182 -122c-100 0 -158 44 -158 117c0 48 38 99 112 109v2
c-35 14 -55 44 -55 80c0 53 58 116 171 116zM762 332c-42 0 -62 -26 -62 -47c0 -24 17 -39 49 -39c40 0 62 25 62 48c0 24 -18 38 -49 38zM720 166c-47 0 -66 -31 -66 -52c0 -25 19 -40 52 -40c43 0 66 26 66 52c0 25 -19 40 -52 40z" />
    <glyph glyph-name="fiveeighths" unicode="&#x215d;" horiz-adv-x="945" 
d="M429 584h-195l-26 -65h2c24 15 50 22 77 22c76 0 122 -46 122 -117c0 -70 -66 -164 -199 -164c-93 0 -150 38 -150 104c0 7 1 15 3 23h114c-1 -3 -2 -6 -2 -9c0 -22 20 -34 48 -34c50 0 70 40 70 72c0 29 -18 45 -47 45c-27 0 -48 -16 -58 -38l-109 7l85 244h286zM271 0
h-91l537 674h91zM768 414c93 0 150 -43 150 -110c0 -44 -33 -91 -100 -102v-2c38 -13 62 -46 62 -88c0 -56 -56 -122 -182 -122c-100 0 -158 44 -158 117c0 48 38 99 112 109v2c-35 14 -55 44 -55 80c0 53 58 116 171 116zM761 332c-42 0 -62 -26 -62 -47
c0 -24 17 -39 49 -39c40 0 62 25 62 48c0 24 -18 38 -49 38zM719 166c-47 0 -66 -31 -66 -52c0 -25 19 -40 52 -40c43 0 66 26 66 52c0 25 -19 40 -52 40z" />
    <glyph glyph-name="seveneighths" unicode="&#x215e;" horiz-adv-x="851" 
d="M177 0h-91l537 674h91zM448 674l-21 -89c-82 -83 -155 -199 -205 -315h-131c60 126 143 242 216 311h-216l22 93h335zM674 414c93 0 150 -43 150 -110c0 -44 -33 -91 -100 -102v-2c38 -13 62 -46 62 -88c0 -56 -56 -122 -182 -122c-100 0 -158 44 -158 117
c0 48 38 99 112 109v2c-35 14 -55 44 -55 80c0 53 58 116 171 116zM667 332c-42 0 -62 -26 -62 -47c0 -24 17 -39 49 -39c40 0 62 25 62 48c0 24 -18 38 -49 38zM625 166c-47 0 -66 -31 -66 -52c0 -25 19 -40 52 -40c43 0 66 26 66 52c0 25 -19 40 -52 40z" />
    <glyph glyph-name="zero.dnom" horiz-adv-x="414" 
d="M228 414c99 0 150 -56 150 -158c0 -114 -70 -266 -220 -266c-99 0 -149 57 -149 158c0 114 70 266 219 266zM221 329c-67 0 -99 -131 -99 -186c0 -44 15 -68 44 -68c67 0 99 130 99 185c0 44 -14 69 -44 69z" />
    <glyph glyph-name="one.dnom" horiz-adv-x="280" 
d="M163 0h-114l64 252h-103l19 81c74 0 113 21 133 71h102z" />
    <glyph glyph-name="two.dnom" horiz-adv-x="406" 
d="M227 414c94 0 147 -45 147 -110c0 -61 -43 -110 -141 -149c-82 -32 -98 -45 -105 -65h206l-21 -90h-344c18 110 68 162 175 208c75 33 114 53 114 88c0 20 -13 33 -38 33c-32 0 -54 -20 -63 -58h-116c22 92 90 143 186 143z" />
    <glyph glyph-name="three.dnom" horiz-adv-x="400" 
d="M225 414c96 0 150 -40 150 -106c0 -44 -25 -83 -96 -105v-2c38 -14 56 -40 56 -78c0 -61 -58 -133 -179 -133c-106 0 -162 40 -162 115c0 9 1 20 3 31h114c-1 -7 -2 -14 -2 -20c0 -27 18 -40 52 -40c42 0 63 27 63 47c0 26 -21 39 -62 39h-12l20 82h14c53 0 78 25 78 50
c0 22 -16 35 -46 35c-35 0 -58 -20 -67 -57h-112c20 89 89 142 188 142z" />
    <glyph glyph-name="four.dnom" horiz-adv-x="398" 
d="M345 80h-67l-20 -80h-111l20 80h-201l23 95l218 229h152l-60 -240h66zM86 164h106l10 42c9 38 20 76 34 114h-2c-30 -34 -61 -67 -93 -100z" />
    <glyph glyph-name="five.dnom" horiz-adv-x="399" 
d="M361 314h-195l-26 -65h2c24 15 50 22 77 22c76 0 122 -46 122 -117c0 -70 -66 -164 -199 -164c-93 0 -150 38 -150 104c0 7 1 15 3 23h114c-1 -3 -2 -6 -2 -9c0 -22 20 -34 48 -34c50 0 70 40 70 72c0 29 -18 45 -47 45c-27 0 -48 -16 -58 -38l-109 7l85 244h286z" />
    <glyph glyph-name="six.dnom" horiz-adv-x="396" 
d="M229 414c92 0 146 -40 146 -108c0 -5 0 -11 -1 -17h-113v6c0 24 -13 37 -40 37c-34 0 -68 -27 -89 -93h2c25 17 55 25 87 25c74 0 120 -47 120 -118c0 -68 -63 -156 -181 -156c-97 0 -152 52 -152 154c0 111 74 270 221 270zM182 187c-40 0 -63 -36 -63 -68
c0 -26 15 -44 44 -44c38 0 64 32 64 66c0 27 -16 46 -45 46z" />
    <glyph glyph-name="seven.dnom" horiz-adv-x="355" 
d="M381 404l-21 -89c-82 -83 -155 -199 -205 -315h-131c60 126 143 242 216 311h-216l22 93h335z" />
    <glyph glyph-name="eight.dnom" horiz-adv-x="398" 
d="M221 414c93 0 150 -43 150 -110c0 -44 -33 -91 -100 -102v-2c38 -13 62 -46 62 -88c0 -56 -56 -122 -182 -122c-100 0 -158 44 -158 117c0 48 38 99 112 109v2c-35 14 -55 44 -55 80c0 53 58 116 171 116zM214 332c-42 0 -62 -26 -62 -47c0 -24 17 -39 49 -39
c40 0 62 25 62 48c0 24 -18 38 -49 38zM172 166c-47 0 -66 -31 -66 -52c0 -25 19 -40 52 -40c43 0 66 26 66 52c0 25 -19 40 -52 40z" />
    <glyph glyph-name="nine.dnom" horiz-adv-x="396" 
d="M141 -10c-92 0 -146 40 -146 108c0 5 0 11 1 17h113v-6c0 -24 13 -37 40 -37c34 0 68 27 89 93h-2c-25 -17 -55 -25 -87 -25c-74 0 -120 47 -120 118c0 68 63 156 181 156c97 0 152 -52 152 -154c0 -111 -74 -270 -221 -270zM188 217c40 0 63 36 63 68
c0 26 -15 44 -44 44c-38 0 -64 -32 -64 -66c0 -27 16 -46 45 -46z" />
    <glyph glyph-name="zero.numr" horiz-adv-x="414" 
d="M296 684c99 0 150 -56 150 -158c0 -114 -70 -266 -220 -266c-99 0 -149 57 -149 158c0 114 70 266 219 266zM289 599c-67 0 -99 -131 -99 -186c0 -44 15 -68 44 -68c67 0 99 130 99 185c0 44 -14 69 -44 69z" />
    <glyph glyph-name="one.numr" horiz-adv-x="280" 
d="M230 270h-114l64 252h-103l19 81c74 0 113 21 133 71h102z" />
    <glyph glyph-name="two.numr" horiz-adv-x="406" 
d="M294 684c94 0 147 -45 147 -110c0 -61 -43 -110 -141 -149c-82 -32 -98 -45 -105 -65h206l-21 -90h-344c18 110 68 162 175 208c75 33 114 53 114 88c0 20 -13 33 -38 33c-32 0 -54 -20 -63 -58h-116c22 92 90 143 186 143z" />
    <glyph glyph-name="three.numr" horiz-adv-x="400" 
d="M293 684c96 0 150 -40 150 -106c0 -44 -25 -83 -96 -105v-2c38 -14 56 -40 56 -78c0 -61 -58 -133 -179 -133c-106 0 -162 40 -162 115c0 9 1 20 3 31h114c-1 -7 -2 -14 -2 -20c0 -27 18 -40 52 -40c42 0 63 27 63 47c0 26 -21 39 -62 39h-12l20 82h14c53 0 78 25 78 50
c0 22 -16 35 -46 35c-35 0 -58 -20 -67 -57h-112c20 89 89 142 188 142z" />
    <glyph glyph-name="four.numr" horiz-adv-x="398" 
d="M412 350h-67l-20 -80h-111l20 80h-201l23 95l218 229h152l-60 -240h66zM153 434h106l10 42c9 38 20 76 34 114h-2c-30 -34 -61 -67 -93 -100z" />
    <glyph glyph-name="five.numr" horiz-adv-x="399" 
d="M429 584h-195l-26 -65h2c24 15 50 22 77 22c76 0 122 -46 122 -117c0 -70 -66 -164 -199 -164c-93 0 -150 38 -150 104c0 7 1 15 3 23h114c-1 -3 -2 -6 -2 -9c0 -22 20 -34 48 -34c50 0 70 40 70 72c0 29 -18 45 -47 45c-27 0 -48 -16 -58 -38l-109 7l85 244h286z" />
    <glyph glyph-name="six.numr" horiz-adv-x="396" 
d="M296 684c92 0 146 -40 146 -108c0 -5 0 -11 -1 -17h-113v6c0 24 -13 37 -40 37c-34 0 -68 -27 -89 -93h2c25 17 55 25 87 25c74 0 120 -47 120 -118c0 -68 -63 -156 -181 -156c-97 0 -152 52 -152 154c0 111 74 270 221 270zM249 457c-40 0 -63 -36 -63 -68
c0 -26 15 -44 44 -44c38 0 64 32 64 66c0 27 -16 46 -45 46z" />
    <glyph glyph-name="seven.numr" horiz-adv-x="355" 
d="M448 674l-21 -89c-82 -83 -155 -199 -205 -315h-131c60 126 143 242 216 311h-216l22 93h335z" />
    <glyph glyph-name="eight.numr" horiz-adv-x="398" 
d="M288 684c93 0 150 -43 150 -110c0 -44 -33 -91 -100 -102v-2c38 -13 62 -46 62 -88c0 -56 -56 -122 -182 -122c-100 0 -158 44 -158 117c0 48 38 99 112 109v2c-35 14 -55 44 -55 80c0 53 58 116 171 116zM281 602c-42 0 -62 -26 -62 -47c0 -24 17 -39 49 -39
c40 0 62 25 62 48c0 24 -18 38 -49 38zM239 436c-47 0 -66 -31 -66 -52c0 -25 19 -40 52 -40c43 0 66 26 66 52c0 25 -19 40 -52 40z" />
    <glyph glyph-name="nine.numr" horiz-adv-x="396" 
d="M208 260c-92 0 -146 40 -146 108c0 5 0 11 1 17h113v-6c0 -24 13 -37 40 -37c34 0 68 27 89 93h-2c-25 -17 -55 -25 -87 -25c-74 0 -120 47 -120 118c0 68 63 156 181 156c97 0 152 -52 152 -154c0 -111 -74 -270 -221 -270zM255 487c40 0 63 36 63 68
c0 26 -15 44 -44 44c-38 0 -64 -32 -64 -66c0 -27 16 -46 45 -46z" />
    <glyph glyph-name="zeroinferior" unicode="&#x2080;" horiz-adv-x="469" 
d="M228 311c110 0 167 -65 167 -182c0 -132 -80 -312 -250 -312c-110 0 -167 64 -167 181c0 133 80 313 250 313zM220 216c-79 0 -118 -156 -118 -222c0 -54 18 -83 51 -83c80 0 118 156 118 222c0 52 -17 83 -51 83z" />
    <glyph glyph-name="oneinferior" unicode="&#x2081;" horiz-adv-x="316" 
d="M147 -172h-124l75 301h-119l22 89c84 0 129 24 153 82h111z" />
    <glyph glyph-name="twoinferior" unicode="&#x2082;" horiz-adv-x="457" 
d="M225 311c105 0 164 -51 164 -127c0 -72 -49 -128 -161 -176c-94 -40 -114 -57 -123 -81h235l-23 -99h-386c21 125 78 184 202 240c88 40 129 66 129 107c0 26 -16 41 -46 41c-39 0 -63 -24 -74 -69h-126c26 106 101 164 209 164z" />
    <glyph glyph-name="threeinferior" unicode="&#x2083;" horiz-adv-x="452" 
d="M222 311c107 0 168 -47 168 -123c0 -51 -30 -98 -111 -123v-1c43 -18 64 -49 64 -93c0 -71 -66 -154 -202 -154c-118 0 -181 46 -181 132c0 11 1 24 4 36h124c-2 -8 -3 -17 -3 -24c0 -33 21 -49 61 -49c49 0 75 33 75 59c0 32 -25 48 -73 48h-13l22 92h15
c64 0 94 32 94 62c0 27 -18 43 -54 43c-41 0 -68 -24 -79 -70h-123c24 104 102 165 212 165z" />
    <glyph glyph-name="fourinferior" unicode="&#x2084;" horiz-adv-x="449" 
d="M356 -75h-75l-24 -97h-121l24 97h-232l26 105l254 270h167l-71 -283h74zM62 17h125l13 52c12 47 24 92 40 139h-2c-37 -42 -76 -84 -114 -125z" />
    <glyph glyph-name="fiveinferior" unicode="&#x2085;" horiz-adv-x="451" 
d="M377 201h-223l-31 -83h2c27 18 57 26 87 26c87 0 139 -54 139 -136s-76 -191 -225 -191c-105 0 -167 43 -167 119c0 8 0 17 3 27h124c-1 -5 -1 -9 -1 -12c0 -26 22 -41 56 -41c60 0 83 50 83 89c0 36 -21 55 -55 55c-32 0 -57 -19 -69 -45l-119 7l98 284h322z" />
    <glyph glyph-name="sixinferior" unicode="&#x2086;" horiz-adv-x="447" 
d="M228 311c102 0 162 -46 162 -125c0 -6 0 -13 -1 -20h-123v8c0 29 -16 45 -46 45c-42 0 -83 -33 -108 -113h2c29 20 63 30 100 30c85 0 136 -55 136 -138c0 -79 -72 -181 -206 -181c-107 0 -168 59 -168 176c0 130 85 318 252 318zM174 50c-50 0 -78 -47 -78 -82
s19 -57 52 -57c48 0 77 43 77 79c0 37 -18 60 -51 60z" />
    <glyph glyph-name="seveninferior" unicode="&#x2087;" horiz-adv-x="400" 
d="M398 300l-23 -99c-93 -98 -180 -234 -238 -373h-142c69 153 168 290 249 369h-249l26 103h377z" />
    <glyph glyph-name="eightinferior" unicode="&#x2088;" horiz-adv-x="450" 
d="M219 311c104 0 168 -49 168 -126c0 -52 -38 -107 -115 -121v-2c43 -15 70 -54 70 -102c0 -66 -65 -143 -206 -143c-110 0 -177 50 -177 136c0 55 44 114 128 128v2c-39 16 -61 50 -61 93c0 61 67 135 193 135zM211 219c-50 0 -74 -32 -74 -58c0 -29 20 -47 58 -47
c49 0 73 32 73 58c0 30 -21 47 -57 47zM161 24c-54 0 -78 -36 -78 -63c0 -31 23 -51 62 -51c50 0 79 30 79 63c0 31 -22 51 -63 51z" />
    <glyph glyph-name="nineinferior" unicode="&#x2089;" horiz-adv-x="448" 
d="M124 -183c-102 0 -162 46 -162 125c0 6 0 13 1 20h123v-8c0 -29 16 -45 46 -45c42 0 83 33 108 113h-2c-29 -20 -63 -30 -100 -30c-85 0 -136 55 -136 138c0 79 72 181 206 181c107 0 168 -59 168 -176c0 -130 -85 -318 -252 -318zM178 78c50 0 78 47 78 82
s-19 57 -52 57c-48 0 -77 -43 -77 -79c0 -37 18 -60 51 -60z" />
    <glyph glyph-name="zerosuperior" unicode="&#x2070;" horiz-adv-x="469" 
d="M353 813c110 0 167 -65 167 -182c0 -132 -80 -312 -250 -312c-110 0 -167 64 -167 181c0 133 80 313 250 313zM345 718c-79 0 -118 -156 -118 -222c0 -54 18 -83 51 -83c80 0 118 156 118 222c0 52 -17 83 -51 83z" />
    <glyph glyph-name="onesuperior" unicode="&#xb9;" horiz-adv-x="317" 
d="M273 330h-124l75 301h-119l22 89c84 0 129 24 153 82h111z" />
    <glyph glyph-name="twosuperior" unicode="&#xb2;" horiz-adv-x="457" 
d="M350 813c105 0 164 -51 164 -127c0 -72 -49 -128 -161 -176c-94 -40 -114 -57 -123 -81h235l-23 -99h-386c21 125 78 184 202 240c88 40 129 66 129 107c0 26 -16 41 -46 41c-39 0 -63 -24 -74 -69h-126c26 106 101 164 209 164z" />
    <glyph glyph-name="threesuperior" unicode="&#xb3;" horiz-adv-x="452" 
d="M347 813c107 0 168 -47 168 -123c0 -51 -30 -98 -111 -123v-1c43 -18 64 -49 64 -93c0 -71 -66 -154 -202 -154c-118 0 -181 46 -181 132c0 11 1 24 4 36h124c-2 -8 -3 -17 -3 -24c0 -33 21 -49 61 -49c49 0 75 33 75 59c0 32 -25 48 -73 48h-13l22 92h15
c64 0 94 32 94 62c0 27 -18 43 -54 43c-41 0 -68 -24 -79 -70h-123c24 104 102 165 212 165z" />
    <glyph glyph-name="foursuperior" unicode="&#x2074;" horiz-adv-x="450" 
d="M482 427h-75l-24 -97h-121l24 97h-232l26 105l254 270h167l-71 -283h74zM188 519h125l13 52c12 47 24 92 40 139h-2c-37 -42 -76 -84 -114 -125z" />
    <glyph glyph-name="fivesuperior" unicode="&#x2075;" horiz-adv-x="451" 
d="M502 703h-223l-31 -83h2c27 18 57 26 87 26c87 0 139 -54 139 -136s-76 -191 -225 -191c-105 0 -167 43 -167 119c0 8 0 17 3 27h124c-1 -5 -1 -9 -1 -12c0 -26 22 -41 56 -41c60 0 83 50 83 89c0 36 -21 55 -55 55c-32 0 -57 -19 -69 -45l-119 7l98 284h322z" />
    <glyph glyph-name="sixsuperior" unicode="&#x2076;" horiz-adv-x="448" 
d="M354 813c102 0 162 -46 162 -125c0 -6 0 -13 -1 -20h-123v8c0 29 -16 45 -46 45c-42 0 -83 -33 -108 -113h2c29 20 63 30 100 30c85 0 136 -55 136 -138c0 -79 -72 -181 -206 -181c-107 0 -168 59 -168 176c0 130 85 318 252 318zM300 552c-50 0 -78 -47 -78 -82
s19 -57 52 -57c48 0 77 43 77 79c0 37 -18 60 -51 60z" />
    <glyph glyph-name="sevensuperior" unicode="&#x2077;" horiz-adv-x="400" 
d="M523 802l-23 -99c-93 -98 -180 -234 -238 -373h-142c69 153 168 290 249 369h-249l26 103h377z" />
    <glyph glyph-name="eightsuperior" unicode="&#x2078;" horiz-adv-x="450" 
d="M345 813c104 0 168 -49 168 -126c0 -52 -38 -107 -115 -121v-2c43 -15 70 -54 70 -102c0 -66 -65 -143 -206 -143c-110 0 -177 50 -177 136c0 55 44 114 128 128v2c-39 16 -61 50 -61 93c0 61 67 135 193 135zM337 721c-50 0 -74 -32 -74 -58c0 -29 20 -47 58 -47
c49 0 73 32 73 58c0 30 -21 47 -57 47zM287 526c-54 0 -78 -36 -78 -63c0 -31 23 -51 62 -51c50 0 79 30 79 63c0 31 -22 51 -63 51z" />
    <glyph glyph-name="ninesuperior" unicode="&#x2079;" horiz-adv-x="448" 
d="M249 319c-102 0 -162 46 -162 125c0 6 0 13 1 20h123v-8c0 -29 16 -45 46 -45c42 0 83 33 108 113h-2c-29 -20 -63 -30 -100 -30c-85 0 -136 55 -136 138c0 79 72 181 206 181c107 0 168 -59 168 -176c0 -130 -85 -318 -252 -318zM303 580c50 0 78 47 78 82
s-19 57 -52 57c-48 0 -77 -43 -77 -79c0 -37 18 -60 51 -60z" />
    <glyph glyph-name="zero.smcp" horiz-adv-x="512" 
d="M310 561c125 0 188 -74 188 -208c0 -155 -92 -366 -285 -366c-126 0 -190 74 -190 207c0 155 93 367 287 367zM299 450c-88 0 -132 -182 -132 -259c0 -61 18 -94 55 -94c88 0 133 182 133 259c0 60 -18 94 -56 94z" />
    <glyph glyph-name="one.smcp" horiz-adv-x="512" 
d="M293 0h-144l87 350h-139l25 102c98 0 150 29 178 96h130z" />
    <glyph glyph-name="two.smcp" horiz-adv-x="512" 
d="M310 561c118 0 186 -59 186 -147c0 -83 -56 -149 -183 -205c-106 -47 -128 -66 -138 -94h265l-28 -115h-440c25 145 89 213 230 279c100 47 146 76 146 124c0 30 -17 48 -50 48c-41 0 -69 -28 -82 -81h-146c30 123 118 191 240 191z" />
    <glyph glyph-name="three.smcp" horiz-adv-x="512" 
d="M308 561c122 0 191 -54 191 -142c0 -59 -33 -115 -126 -144v-1c48 -21 72 -56 72 -107c0 -83 -77 -180 -233 -180c-134 0 -205 53 -205 153c0 12 2 28 4 43h145c-3 -10 -4 -21 -4 -30c0 -37 23 -56 67 -56c54 0 84 39 84 69c0 37 -27 56 -80 56h-16l26 106h17
c72 0 105 38 105 73c0 31 -21 50 -59 50c-46 0 -76 -28 -88 -81h-143c28 120 117 191 243 191z" />
    <glyph glyph-name="four.smcp" horiz-adv-x="512" 
d="M461 112h-84l-28 -112h-141l28 112h-261l30 123l287 313h194l-82 -328h84zM130 220h137l15 60c13 53 28 106 46 160h-1c-40 -48 -83 -96 -127 -144z" />
    <glyph glyph-name="five.smcp" horiz-adv-x="512" 
d="M487 433h-250l-34 -96h2c31 20 64 30 98 30c97 0 155 -62 155 -157s-84 -223 -256 -223c-118 0 -191 50 -191 137c0 10 1 22 4 33h144c-1 -5 -1 -9 -1 -14c0 -31 25 -48 61 -48c67 0 92 59 92 105c0 40 -22 62 -60 62c-35 0 -63 -22 -76 -52l-138 9l113 329h365z" />
    <glyph glyph-name="six.smcp" horiz-adv-x="512" 
d="M321 561c116 0 184 -54 184 -148c0 -7 0 -14 -1 -20h-143v9c0 34 -18 52 -51 52c-45 0 -90 -38 -118 -131h2c33 23 71 35 111 35c96 0 154 -63 154 -159c0 -92 -83 -212 -236 -212c-122 0 -190 68 -190 201c0 152 97 373 288 373zM257 257c-55 0 -84 -54 -84 -96
c0 -39 19 -65 55 -65c53 0 85 50 85 94c0 41 -19 67 -56 67z" />
    <glyph glyph-name="seven.smcp" horiz-adv-x="512" 
d="M539 548l-28 -115c-106 -114 -203 -272 -269 -433h-165c79 178 191 337 282 429h-279l30 119h429z" />
    <glyph glyph-name="eight.smcp" horiz-adv-x="512" 
d="M309 561c119 0 192 -57 192 -146c0 -61 -45 -124 -132 -141v-2c49 -18 79 -63 79 -118c0 -76 -74 -167 -236 -167c-126 0 -200 58 -200 157c0 64 49 134 145 150v2c-44 19 -68 59 -68 107c0 72 75 158 220 158zM299 454c-56 0 -82 -37 -82 -67c0 -34 24 -55 65 -55
c53 0 80 37 80 68c0 34 -23 54 -63 54zM242 228c-61 0 -87 -44 -87 -76c0 -35 25 -57 68 -57c56 0 87 40 87 75c0 36 -24 58 -68 58z" />
    <glyph glyph-name="nine.smcp" horiz-adv-x="512" 
d="M201 -13c-116 0 -184 54 -184 148c0 7 0 14 1 20h143v-9c0 -34 18 -52 51 -52c45 0 90 38 118 131h-2c-33 -23 -71 -35 -111 -35c-96 0 -154 63 -154 159c0 92 83 212 236 212c122 0 190 -68 190 -201c0 -152 -97 -373 -288 -373zM265 291c55 0 84 54 84 96
c0 39 -19 65 -55 65c-53 0 -85 -50 -85 -94c0 -41 19 -67 56 -67z" />
    <glyph glyph-name="zero.lf.smcp" horiz-adv-x="542" 
d="M325 561c125 0 188 -74 188 -208c0 -155 -92 -366 -285 -366c-126 0 -190 74 -190 207c0 155 93 367 287 367zM314 450c-88 0 -132 -182 -132 -259c0 -61 18 -94 55 -94c88 0 133 182 133 259c0 60 -18 94 -56 94z" />
    <glyph glyph-name="one.lf.smcp" horiz-adv-x="378" 
d="M234 0h-144l87 350h-139l25 102c98 0 150 29 178 96h130z" />
    <glyph glyph-name="two.lf.smcp" horiz-adv-x="531" 
d="M322 561c118 0 186 -59 186 -147c0 -83 -56 -149 -183 -205c-106 -47 -128 -66 -138 -94h265l-28 -115h-440c25 145 89 213 230 279c100 47 146 76 146 124c0 30 -17 48 -50 48c-41 0 -69 -28 -82 -81h-146c30 123 118 191 240 191z" />
    <glyph glyph-name="three.lf.smcp" horiz-adv-x="527" 
d="M319 561c122 0 191 -54 191 -142c0 -59 -33 -115 -126 -144v-1c48 -21 72 -56 72 -107c0 -83 -77 -180 -233 -180c-134 0 -205 53 -205 153c0 12 2 28 4 43h145c-3 -10 -4 -21 -4 -30c0 -37 23 -56 67 -56c54 0 84 39 84 69c0 37 -27 56 -80 56h-16l26 106h17
c72 0 105 38 105 73c0 31 -21 50 -59 50c-46 0 -76 -28 -88 -81h-143c28 120 117 191 243 191z" />
    <glyph glyph-name="four.lf.smcp" horiz-adv-x="514" 
d="M464 112h-84l-28 -112h-141l28 112h-261l30 123l287 313h194l-82 -328h84zM133 220h137l15 60c13 53 28 106 46 160h-1c-40 -48 -83 -96 -127 -144z" />
    <glyph glyph-name="five.lf.smcp" horiz-adv-x="523" 
d="M492 433h-250l-34 -96h2c31 20 64 30 98 30c97 0 155 -62 155 -157s-84 -223 -256 -223c-118 0 -191 50 -191 137c0 10 1 22 4 33h144c-1 -5 -1 -9 -1 -14c0 -31 25 -48 61 -48c67 0 92 59 92 105c0 40 -22 62 -60 62c-35 0 -63 -22 -76 -52l-138 9l113 329h365z" />
    <glyph glyph-name="six.lf.smcp" horiz-adv-x="518" 
d="M324 561c116 0 184 -54 184 -148c0 -7 0 -14 -1 -20h-143v9c0 34 -18 52 -51 52c-45 0 -90 -38 -118 -131h2c33 23 71 35 111 35c96 0 154 -63 154 -159c0 -92 -83 -212 -236 -212c-122 0 -190 68 -190 201c0 152 97 373 288 373zM260 257c-55 0 -84 -54 -84 -96
c0 -39 19 -65 55 -65c53 0 85 50 85 94c0 41 -19 67 -56 67z" />
    <glyph glyph-name="seven.lf.smcp" horiz-adv-x="456" 
d="M514 548l-28 -115c-106 -114 -203 -272 -269 -433h-165c79 178 191 337 282 429h-279l30 119h429z" />
    <glyph glyph-name="eight.lf.smcp" horiz-adv-x="522" 
d="M314 561c119 0 192 -57 192 -146c0 -61 -45 -124 -132 -141v-2c49 -18 79 -63 79 -118c0 -76 -74 -167 -236 -167c-126 0 -200 58 -200 157c0 64 49 134 145 150v2c-44 19 -68 59 -68 107c0 72 75 158 220 158zM304 454c-56 0 -82 -37 -82 -67c0 -34 24 -55 65 -55
c53 0 80 37 80 68c0 34 -23 54 -63 54zM247 228c-61 0 -87 -44 -87 -76c0 -35 25 -57 68 -57c56 0 87 40 87 75c0 36 -24 58 -68 58z" />
    <glyph glyph-name="nine.lf.smcp" horiz-adv-x="518" 
d="M204 -13c-116 0 -184 54 -184 148c0 7 0 14 1 20h143v-9c0 -34 18 -52 51 -52c45 0 90 38 118 131h-2c-33 -23 -71 -35 -111 -35c-96 0 -154 63 -154 159c0 92 83 212 236 212c122 0 190 -68 190 -201c0 -152 -97 -373 -288 -373zM268 291c55 0 84 54 84 96
c0 39 -19 65 -55 65c-53 0 -85 -50 -85 -94c0 -41 19 -67 56 -67z" />
    <glyph glyph-name="periodcentered" unicode="&#xb7;" horiz-adv-x="258" 
d="M198 222h-154l41 167h154z" />
    <glyph glyph-name="bullet" unicode="&#x2022;" horiz-adv-x="360" 
d="M180 216c-77 0 -140 63 -140 140c0 78 63 140 140 140c78 0 140 -62 140 -140c0 -77 -62 -140 -140 -140z" />
    <glyph glyph-name="ellipsis" unicode="&#x2026;" horiz-adv-x="898" 
d="M143 0h-154l41 167h154zM463 0h-154l41 167h154zM783 0h-154l41 167h154z" />
    <glyph glyph-name="exclamdown" unicode="&#xa1;" horiz-adv-x="324" 
d="M148 508h154l-33 -132h-154zM122 310h108l-97 -514h-170z" />
    <glyph glyph-name="overline" unicode="&#x203e;" horiz-adv-x="500" 
d="M631 778h-500l22 91h500z" />
    <glyph glyph-name="questiondown" unicode="&#xbf;" horiz-adv-x="517" 
d="M271 508h154l-33 -132h-154zM189 -219c-141 0 -220 67 -220 179c0 68 29 120 142 196c85 57 108 85 130 166h119c-25 -122 -50 -158 -147 -228c-90 -65 -100 -96 -100 -129c0 -40 26 -63 79 -63c60 0 98 31 116 101h146c-35 -147 -130 -222 -265 -222z" />
    <glyph glyph-name="underscoredbl" unicode="&#x2017;" horiz-adv-x="500" 
d="M406 -121h-500l18 71h500zM370 -266h-500l18 71h500z" />
    <glyph glyph-name="periodcentered.case" horiz-adv-x="258" 
d="M211 272h-154l41 167h154z" />
    <glyph glyph-name="exclamdown.case" horiz-adv-x="324" 
d="M198 712h154l-33 -132h-154zM172 514h108l-97 -514h-170z" />
    <glyph glyph-name="periodcentered.loclCAT.case" horiz-adv-x="80" 
d="M1 348h-154l41 167h154z" />
    <glyph glyph-name="questiondown.case" horiz-adv-x="547" 
d="M322 712h154l-33 -132h-154zM240 -15c-141 0 -220 67 -220 179c0 68 29 120 142 196c85 57 108 85 130 166h119c-25 -122 -50 -158 -147 -228c-90 -65 -100 -96 -100 -129c0 -40 26 -63 79 -63c60 0 98 31 116 101h146c-35 -147 -130 -222 -265 -222z" />
    <glyph glyph-name="slash.case" horiz-adv-x="494" 
d="M117 0h-118l428 712h118z" />
    <glyph glyph-name="periodcentered.loclCAT" horiz-adv-x="208" 
d="M185 272h-154l41 167h154z" />
    <glyph glyph-name="parenleftinferior" unicode="&#x208d;" horiz-adv-x="251" 
d="M152 347h101c-118 -159 -169 -312 -169 -452c0 -55 5 -110 14 -170h-93c-27 72 -40 142 -40 215c0 127 56 274 187 407z" />
    <glyph glyph-name="parenleftsuperior" unicode="&#x207d;" horiz-adv-x="251" 
d="M277 849h101c-118 -159 -169 -312 -169 -452c0 -55 5 -110 14 -170h-93c-27 72 -40 142 -40 215c0 127 56 274 187 407z" />
    <glyph glyph-name="parenrightinferior" unicode="&#x208e;" horiz-adv-x="251" 
d="M-10 -275h-101c118 159 169 312 169 452c0 55 -5 110 -14 170h93c27 -72 40 -142 40 -215c0 -127 -56 -274 -187 -407z" />
    <glyph glyph-name="parenrightsuperior" unicode="&#x207e;" horiz-adv-x="251" 
d="M116 227h-101c118 159 169 312 169 452c0 55 -5 110 -14 170h93c27 -72 40 -142 40 -215c0 -127 -56 -274 -187 -407z" />
    <glyph glyph-name="braceleft.case" horiz-adv-x="338" 
d="M442 772l-20 -80c-56 -2 -85 -22 -100 -82l-32 -128c-18 -70 -55 -104 -124 -120l-1 -3c45 -16 66 -44 66 -93c0 -14 -2 -30 -7 -49l-25 -99c-4 -16 -6 -29 -6 -40c0 -41 19 -56 62 -57l-20 -81h-14c-111 0 -155 39 -155 123c0 22 4 46 11 75l22 88c4 16 6 29 6 40
c0 32 -14 50 -47 60l22 87c52 13 74 33 87 84l29 118c28 112 83 157 212 157h34z" />
    <glyph glyph-name="braceright.case" horiz-adv-x="338" 
d="M-53 -60l20 80c56 2 85 22 100 82l32 128c18 70 55 104 124 120l1 3c-45 16 -66 44 -66 93c0 14 2 30 7 49l25 99c4 16 6 29 6 40c0 41 -19 56 -62 57l20 81h14c111 0 155 -39 155 -123c0 -22 -4 -46 -11 -75l-22 -88c-4 -16 -6 -29 -6 -40c0 -32 14 -50 47 -60l-22 -87
c-52 -13 -74 -33 -87 -84l-29 -118c-28 -112 -83 -157 -212 -157h-34z" />
    <glyph glyph-name="bracketleft.case" horiz-adv-x="329" 
d="M423 691h-112l-167 -670h112l-20 -81h-244l207 832h244z" />
    <glyph glyph-name="bracketright.case" horiz-adv-x="329" 
d="M-43 21h112l167 670h-112l20 81h244l-207 -832h-244z" />
    <glyph glyph-name="parenleft.case" horiz-adv-x="328" 
d="M308 772h119c-159 -203 -229 -408 -229 -590c0 -73 7 -152 22 -242h-111c-37 99 -54 194 -54 292c0 171 77 367 253 540z" />
    <glyph glyph-name="parenright.case" horiz-adv-x="328" 
d="M71 -60h-119c159 203 229 408 229 590c0 73 -7 152 -22 242h111c37 -99 54 -194 54 -292c0 -171 -77 -367 -253 -540z" />
    <glyph glyph-name="bracketleft.sups" horiz-adv-x="255" 
d="M374 772h-83l-117 -469h82l-19 -76h-195l155 622h196z" />
    <glyph glyph-name="bracketright.sups" horiz-adv-x="255" 
d="M201 227h-196l19 77h83l117 469h-82l19 76h195z" />
    <glyph glyph-name="emdash" unicode="&#x2014;" horiz-adv-x="1000" 
d="M976 237h-960l27 110h960z" />
    <glyph glyph-name="endash" unicode="&#x2013;" horiz-adv-x="500" 
d="M476 237h-460l27 110h460z" />
    <glyph glyph-name="horizontalbar" unicode="&#x2015;" horiz-adv-x="1000" 
d="M913 237h-960l27 110h960z" />
    <glyph glyph-name="hyphentwo" unicode="&#x2010;" horiz-adv-x="320" 
d="M286 237h-260l27 110h260z" />
    <glyph glyph-name="softhyphen" unicode="&#xad;" horiz-adv-x="320" 
d="M286 237h-260l27 110h260z" />
    <glyph glyph-name="emdash.case" horiz-adv-x="1000" 
d="M992 301h-960l27 110h960z" />
    <glyph glyph-name="endash.case" horiz-adv-x="500" 
d="M492 301h-460l27 110h460z" />
    <glyph glyph-name="hyphen.case" horiz-adv-x="320" 
d="M302 301h-260l27 110h260z" />
    <glyph glyph-name="guillemetleft" unicode="&#xab;" horiz-adv-x="532" 
d="M171 250l59 -196h-116l-69 204l157 196h128zM379 250l59 -196h-116l-69 204l157 196h128z" />
    <glyph glyph-name="guillemetright" unicode="&#xbb;" horiz-adv-x="532" 
d="M153 258l-59 196h116l69 -204l-157 -196h-128zM361 258l-59 196h116l69 -204l-157 -196h-128z" />
    <glyph glyph-name="guilsinglleft" unicode="&#x2039;" horiz-adv-x="324" 
d="M171 250l59 -196h-116l-69 204l157 196h128z" />
    <glyph glyph-name="guilsinglright" unicode="&#x203a;" horiz-adv-x="324" 
d="M153 258l-59 196h116l69 -204l-157 -196h-128z" />
    <glyph glyph-name="quotedblbase" unicode="&#x201e;" horiz-adv-x="436" 
d="M130 0l-100 -146h-71l84 146h-44l35 142h131zM312 0l-100 -146h-71l84 146h-44l35 142h131z" />
    <glyph glyph-name="quotedblleft" unicode="&#x201c;" horiz-adv-x="436" 
d="M139 566l100 146h71l-84 -146h44l-35 -142h-131zM321 566l100 146h71l-84 -146h44l-35 -142h-131z" />
    <glyph glyph-name="quotedblright" unicode="&#x201d;" horiz-adv-x="436" 
d="M272 570l-100 -146h-71l84 146h-44l35 142h131zM454 570l-100 -146h-71l84 146h-44l35 142h131z" />
    <glyph glyph-name="quoteleft" unicode="&#x2018;" horiz-adv-x="254" 
d="M139 566l100 146h71l-84 -146h44l-35 -142h-131z" />
    <glyph glyph-name="quoteright" unicode="&#x2019;" horiz-adv-x="255" 
d="M272 570l-100 -146h-71l84 146h-44l35 142h131z" />
    <glyph glyph-name="quotesinglbase" unicode="&#x201a;" horiz-adv-x="254" 
d="M130 0l-100 -146h-71l84 146h-44l35 142h131z" />
    <glyph glyph-name="guillemetleft.case" horiz-adv-x="532" 
d="M196 352l59 -196h-116l-69 204l157 196h128zM404 352l59 -196h-116l-69 204l157 196h128z" />
    <glyph glyph-name="guillemetright.case" horiz-adv-x="531" 
d="M178 360l-59 196h116l69 -204l-157 -196h-128zM386 360l-59 196h116l69 -204l-157 -196h-128z" />
    <glyph glyph-name="guilsinglleft.case" horiz-adv-x="324" 
d="M196 352l59 -196h-116l-69 204l157 196h128z" />
    <glyph glyph-name="guilsinglright.case" horiz-adv-x="323" 
d="M178 360l-59 196h116l69 -204l-157 -196h-128z" />
    <glyph glyph-name="quoteright.loclFRA" horiz-adv-x="285" 
d="M288 570l-100 -146h-71l84 146h-44l35 142h131z" />
    <glyph glyph-name="periodcentered.loclCAT.smcp" horiz-adv-x="60" 
d="M14 272h-154l42 167h154z" />
    <glyph glyph-name="nbspace" unicode="&#xa0;" horiz-adv-x="230" 
 />
    <glyph glyph-name="cent" unicode="&#xa2;" 
d="M578 387h-146c1 5 2 13 2 19c0 35 -11 61 -32 76l-77 -308c37 12 68 45 82 93h147c-37 -120 -138 -201 -257 -205l-22 -88h-81l24 96c-95 25 -149 101 -149 215c0 132 92 308 282 317l22 88h81l-24 -94c96 -21 150 -90 150 -182c0 -9 0 -18 -2 -27zM212 286
c0 -47 12 -81 35 -100l75 302c-72 -28 -110 -136 -110 -202z" />
    <glyph glyph-name="currency" unicode="&#xa4;" 
d="M521 291c0 -44 -11 -84 -30 -116l72 -76l-87 -81l-71 77c-31 -14 -66 -22 -105 -22s-74 8 -105 22l-71 -77l-87 81l72 76c-19 32 -30 72 -30 116s11 84 30 116l-72 76l87 81l71 -77c31 14 66 22 105 22s74 -8 105 -22l71 77l87 -81l-72 -76c19 -32 30 -72 30 -116z
M300 179c65 0 108 45 108 112s-43 112 -108 112s-108 -45 -108 -112s43 -112 108 -112z" />
    <glyph glyph-name="euro" unicode="&#x20ac;" 
d="M498 467v12c0 58 -30 92 -90 92c-79 0 -134 -69 -166 -148h221l-30 -70h-212c-4 -14 -6 -27 -8 -40h202l-31 -70h-175c4 -91 37 -140 99 -140c57 0 103 41 126 107h141c-42 -140 -149 -226 -280 -226c-146 0 -222 91 -226 259h-71l31 70h44c1 13 3 27 6 40h-53l30 70h42
c47 140 154 267 326 267c139 0 215 -70 215 -187c0 -11 -1 -23 -3 -36h-138z" />
    <glyph glyph-name="florin" unicode="&#x192;" 
d="M612 723c30 0 60 -4 81 -11l-26 -105c-12 3 -29 5 -45 5c-54 0 -88 -23 -123 -92l-26 -52h106l-26 -104h-131l-180 -358c-71 -143 -142 -197 -261 -197c-26 0 -49 2 -69 9l27 106c12 -3 26 -5 43 -5c50 0 79 18 119 98l174 347h-97l26 104h122l32 63
c67 134 143 192 254 192z" />
    <glyph glyph-name="franc" unicode="&#x20a3;" 
d="M323 548l-32 -126h299l-31 -126h-299l-23 -92h164l-27 -107h-164l-24 -97h-147l24 97h-78l27 107h78l117 470h471l-31 -126h-324z" />
    <glyph glyph-name="lira" unicode="&#x20a4;" 
d="M626 473h-140c2 10 3 19 3 28c0 45 -24 69 -68 69c-54 0 -90 -36 -108 -107l-12 -48h122l-17 -70h-122l-10 -40h122l-17 -70h-123c-18 -62 -44 -94 -91 -117v-2h366l-29 -116h-541l29 118c55 0 95 30 119 117h-89l17 70h90l10 40h-90l17 70h91l18 74
c34 137 126 201 262 201c125 0 197 -62 197 -167c0 -15 -2 -32 -6 -50z" />
    <glyph glyph-name="liraTurkish" unicode="&#x20ba;" 
d="M447 322h152c-40 -218 -185 -330 -404 -330c-50 0 -109 5 -157 12l60 242l-99 -48l22 90l100 48l16 67l-99 -48l22 90l100 48l45 181h147l-28 -113l188 90l-22 -90l-189 -90l-16 -67l188 90l-22 -90l-189 -90l-48 -193c126 0 208 68 233 201z" />
    <glyph glyph-name="peseta" unicode="&#x20a7;" horiz-adv-x="895" 
d="M805 404l-53 -213c-3 -14 -5 -26 -5 -36c0 -36 16 -50 54 -50c12 0 24 2 33 4l-28 -109c-14 -4 -38 -7 -55 -7c-102 0 -149 37 -149 127c0 21 4 46 11 74l52 210h-46c-26 -95 -111 -190 -278 -190h-122l-53 -214h-147l167 674h189c152 0 232 -63 249 -166h67l33 132h140
l-33 -132h97l-26 -104h-97zM249 336h92c102 0 136 63 136 117c0 63 -34 99 -112 99h-62z" />
    <glyph glyph-name="ruble" unicode="&#x20bd;" 
d="M193 674h209c155 0 228 -73 228 -190c0 -100 -74 -229 -258 -229h-137l-13 -54h181l-27 -106h-181l-23 -95h-147l23 95h-79l27 106h79l13 54h-79l28 112h79zM312 562l-49 -195h96c91 0 120 56 120 105c0 58 -30 90 -99 90h-68z" />
    <glyph glyph-name="rupeeIndian" unicode="&#x20b9;" 
d="M465 588v-2c28 -13 46 -35 52 -66h122l-45 -86h-86c-24 -60 -89 -116 -207 -135v-2c46 -16 73 -49 92 -118l48 -179h-158l-40 170c-18 74 -53 103 -117 103h-16l23 93h57c82 0 131 32 154 68h-271l45 86h236c-13 46 -54 68 -120 68h-123l46 86h521l-46 -86h-167z" />
    <glyph glyph-name="sterling" unicode="&#xa3;" 
d="M626 473h-140c2 10 3 19 3 28c0 45 -24 69 -68 69c-54 0 -90 -36 -108 -107l-17 -69h122l-29 -117h-122l-7 -26c-18 -73 -44 -108 -95 -133v-2h366l-29 -116h-541l29 118c58 0 99 33 123 131l7 28h-90l29 117h90l24 95c34 137 126 201 262 201c125 0 197 -62 197 -167
c0 -15 -2 -32 -6 -50z" />
    <glyph glyph-name="yen" unicode="&#xa5;" 
d="M435 347h122l-17 -70h-160l-10 -40h160l-18 -70h-159l-42 -167h-148l42 167h-161l18 70h160l10 40h-160l17 70h123l-94 327h149l22 -96c13 -59 26 -120 36 -181h2c36 61 75 122 118 181l70 96h177z" />
    <glyph glyph-name="Ohm" unicode="&#x2126;" horiz-adv-x="734" 
d="M455 728c168 0 276 -79 276 -242c0 -144 -75 -254 -208 -360v-2h148l-31 -124h-294l32 130c126 98 193 206 193 318c0 100 -54 150 -136 150c-146 0 -221 -148 -221 -268c0 -81 27 -142 64 -200l-32 -130h-278l31 124h152v2c-46 66 -80 139 -80 232
c0 168 125 370 384 370z" />
    <glyph glyph-name="approxequal" unicode="&#x2248;" horiz-adv-x="566" 
d="M194 511c79 0 122 -77 174 -77c33 0 52 26 52 64h86c0 -99 -52 -166 -134 -166c-78 0 -122 77 -174 77c-33 0 -52 -25 -52 -64h-86c0 99 52 166 134 166zM194 302c79 0 122 -77 174 -77c33 0 52 25 52 64h86c0 -99 -52 -166 -134 -166c-78 0 -122 77 -174 77
c-33 0 -52 -26 -52 -64h-86c0 99 52 166 134 166z" />
    <glyph glyph-name="bulletoperator" unicode="&#x2219;" horiz-adv-x="362" 
d="M258 222h-154v167h154v-167z" />
    <glyph glyph-name="divide" unicode="&#xf7;" horiz-adv-x="566" 
d="M342 441h-118v110h118v-110zM502 262h-438v109h438v-109zM342 82h-118v110h118v-110z" />
    <glyph glyph-name="divisionslash" unicode="&#x2215;" horiz-adv-x="488" 
d="M-1 -89h-118l503 834h118z" />
    <glyph glyph-name="equalinferior" unicode="&#x208c;" horiz-adv-x="413" 
d="M368 77h-323v89h323v-89zM368 -67h-323v89h323v-89z" />
    <glyph glyph-name="equalsuperior" unicode="&#x207c;" horiz-adv-x="413" 
d="M368 579h-323v89h323v-89zM368 435h-323v89h323v-89z" />
    <glyph glyph-name="greaterequal" unicode="&#x2265;" horiz-adv-x="566" 
d="M502 411v-134l-438 -148v110l309 104v2l-309 104v110zM502 0h-438v105h438v-105z" />
    <glyph glyph-name="increment" unicode="&#x2206;" horiz-adv-x="698" 
d="M632 0h-692l426 712h198zM481 126l-16 221c-6 92 -11 186 -14 278h-2c-45 -92 -95 -186 -147 -278l-125 -221h304z" />
    <glyph glyph-name="infinity" unicode="&#x221e;" horiz-adv-x="674" 
d="M502 478c94 0 157 -67 157 -170s-63 -170 -157 -170c-78 0 -127 42 -165 91c-39 -49 -87 -91 -165 -91c-95 0 -157 67 -157 170s62 170 157 170c78 0 126 -42 165 -91c38 49 87 91 165 91zM184 240c40 0 68 30 96 68c-28 38 -56 68 -96 68c-41 0 -64 -27 -64 -68
s23 -68 64 -68zM490 240c41 0 64 27 64 68s-23 68 -64 68c-40 0 -69 -30 -97 -68c28 -38 57 -68 97 -68z" />
    <glyph glyph-name="integral" unicode="&#x222b;" horiz-adv-x="352" 
d="M275 720c24 0 52 -4 69 -8v-99c-6 2 -16 3 -25 3c-49 0 -74 -21 -74 -79v-564c0 -111 -59 -166 -168 -166c-24 0 -52 4 -69 8v99c6 -2 16 -3 25 -3c49 0 74 21 74 79v564c0 111 59 166 168 166z" />
    <glyph glyph-name="lessequal" unicode="&#x2264;" horiz-adv-x="566" 
d="M502 449l-309 -104v-2l309 -104v-110l-438 148v134l438 148v-110zM502 105v-105h-438v105h438z" />
    <glyph glyph-name="logicalnot" unicode="&#xac;" horiz-adv-x="566" 
d="M502 132h-108v221h-330v109h438v-330z" />
    <glyph glyph-name="micro" unicode="&#xb5;" horiz-adv-x="613" 
d="M598 508l-84 -340c-4 -15 -6 -27 -6 -36c0 -23 12 -31 33 -31c8 0 16 1 25 3l-26 -105c-18 -5 -38 -7 -61 -7c-63 0 -92 28 -96 81h-2c-28 -49 -86 -79 -146 -79c-38 0 -67 12 -84 34l-53 -213h-140l173 693h140l-73 -292c-4 -18 -6 -33 -6 -46c0 -49 26 -72 72 -72
c55 0 104 46 127 138l67 272h140z" />
    <glyph glyph-name="minus" unicode="&#x2212;" horiz-adv-x="566" 
d="M502 262h-438v109h438v-109z" />
    <glyph glyph-name="minusinferior" unicode="&#x208b;" horiz-adv-x="413" 
d="M368 3h-323v93h323v-93z" />
    <glyph glyph-name="minussuperior" unicode="&#x207b;" horiz-adv-x="413" 
d="M368 505h-323v93h323v-93z" />
    <glyph glyph-name="multiply" unicode="&#xd7;" horiz-adv-x="566" 
d="M545 492l-185 -185l185 -185l-77 -77l-185 185l-184 -185l-78 77l185 185l-185 185l78 76l184 -184l185 184z" />
    <glyph glyph-name="notequal" unicode="&#x2260;" horiz-adv-x="566" 
d="M355 357l-46 -81h193v-109h-255l-67 -117h-98l67 117h-85v109h146l47 81h-193v109h254l67 117h99l-67 -117h85v-109h-147z" />
    <glyph glyph-name="partialdiff" unicode="&#x2202;" horiz-adv-x="625" 
d="M366 728c154 0 231 -93 231 -251c0 -188 -110 -493 -355 -493c-144 0 -212 82 -212 209c0 103 80 286 280 286c76 0 123 -28 147 -64h2c7 21 12 55 12 77c0 76 -35 119 -102 119c-48 0 -79 -27 -93 -75h-145c27 115 110 192 235 192zM324 374c-98 0 -152 -114 -152 -185
c0 -56 27 -88 82 -88c109 0 155 117 155 182c0 57 -29 91 -85 91z" />
    <glyph glyph-name="perthousand" unicode="&#x2030;" horiz-adv-x="1091" 
d="M132 -30h-84l603 734h84zM268 690c82 0 124 -44 124 -123c0 -98 -57 -219 -173 -219c-82 0 -126 43 -126 124c0 96 58 218 175 218zM263 615c-53 0 -77 -100 -77 -143c0 -33 11 -49 34 -49c54 0 77 100 77 143c0 32 -10 49 -34 49zM567 326c82 0 124 -44 124 -123
c0 -98 -57 -219 -173 -219c-82 0 -126 43 -126 124c0 96 58 218 175 218zM915 326c82 0 124 -44 124 -123c0 -98 -57 -219 -173 -219c-82 0 -126 43 -126 124c0 96 58 218 175 218zM562 251c-53 0 -77 -100 -77 -143c0 -33 11 -49 34 -49c54 0 77 100 77 143
c0 32 -10 49 -34 49zM910 251c-53 0 -77 -100 -77 -143c0 -33 11 -49 34 -49c54 0 77 100 77 143c0 32 -10 49 -34 49z" />
    <glyph glyph-name="plusinferior" unicode="&#x208a;" horiz-adv-x="413" 
d="M254 96h114v-93h-114v-111h-95v111h-114v93h114v111h95v-111z" />
    <glyph glyph-name="plusminus" unicode="&#xb1;" horiz-adv-x="566" 
d="M337 411h165v-109h-165v-155h-108v155h-165v109h165v155h108v-155zM502 0h-438v109h438v-109z" />
    <glyph glyph-name="plussuperior" unicode="&#x207a;" horiz-adv-x="413" 
d="M254 598h114v-93h-114v-111h-95v111h-114v93h114v111h95v-111z" />
    <glyph glyph-name="product" unicode="&#x220f;" horiz-adv-x="679" 
d="M597 -120h-146v706h-222v-706h-147v832h515v-832z" />
    <glyph glyph-name="radical" unicode="&#x221a;" horiz-adv-x="641" 
d="M383 -120h-185l-90 385h-83v112h177l91 -380h2l204 715h122z" />
    <glyph glyph-name="summation" unicode="&#x2211;" horiz-adv-x="515" 
d="M480 584h-283l173 -289l-173 -286h283v-129h-445v129l176 286l-176 289v128h445v-128z" />
    <glyph glyph-name="lozenge" unicode="&#x25ca;" horiz-adv-x="644" 
d="M604 356l-189 -356h-186l-189 356l189 356h186zM184 356l138 -256l138 256l-138 256z" />
    <glyph glyph-name="apple" unicode="&#xf8ff;" 
d="M151 777h340c83 0 135 -52 135 -135v-572c0 -83 -52 -135 -135 -135h-340c-83 0 -135 52 -135 135v572c0 83 52 135 135 135zM491 713h-340c-44 0 -71 -27 -71 -71v-572c0 -44 27 -71 71 -71h340c44 0 71 27 71 71v572c0 44 -27 71 -71 71zM323 647
c112 0 180 -57 180 -151c0 -54 -15 -84 -72 -137c-52 -49 -65 -73 -65 -140h-102c-1 11 -1 23 -1 31c0 73 12 101 67 157c41 41 47 57 47 87c0 32 -19 52 -54 52c-42 0 -63 -24 -64 -80h-125c2 119 71 181 189 181zM379 65h-128v112h128v-112z" />
    <glyph glyph-name="brokenbar" unicode="&#xa6;" horiz-adv-x="294" 
d="M210 382h-126v350h126v-350zM210 -205h-126v350h126v-350z" />
    <glyph glyph-name="paragraph" unicode="&#xb6;" horiz-adv-x="656" 
d="M722 616h-80l-183 -736h-103l183 736h-82l-183 -736h-103l102 410c-106 16 -168 76 -168 196c0 102 76 226 220 226h421z" />
    <glyph glyph-name="copyright" unicode="&#xa9;" horiz-adv-x="802" 
d="M401 726c216 0 360 -148 360 -370s-144 -370 -360 -370s-360 148 -360 370s144 370 360 370zM401 671c-184 0 -306 -126 -306 -315s122 -315 306 -315s307 126 307 315s-123 315 -307 315zM403 587c114 0 186 -67 191 -169h-97c-4 53 -37 90 -94 90
c-66 0 -107 -58 -107 -153c0 -93 41 -151 105 -151c56 0 92 37 98 93h98c-9 -108 -84 -172 -196 -172c-125 0 -202 88 -202 230c0 144 77 232 204 232z" />
    <glyph glyph-name="registered" unicode="&#xae;" horiz-adv-x="592" 
d="M349 728c151 0 251 -103 251 -258s-100 -258 -251 -258s-251 103 -251 258s100 258 251 258zM349 692c-129 0 -215 -89 -215 -222s86 -222 215 -222s215 89 215 222s-86 222 -215 222zM229 632h128c74 0 110 -35 110 -90c0 -37 -22 -68 -58 -77v-2c21 -6 33 -20 46 -56
l33 -91h-72l-27 77c-10 32 -25 43 -56 43h-36v-120h-68v316zM297 577v-87h43c42 0 60 18 60 46c0 25 -19 41 -57 41h-46z" />
    <glyph glyph-name="published" unicode="&#x2117;" horiz-adv-x="802" 
d="M401 726c216 0 360 -148 360 -370s-144 -370 -360 -370s-360 148 -360 370s144 370 360 370zM401 671c-184 0 -306 -126 -306 -315s122 -315 306 -315s307 126 307 315s-123 315 -307 315zM258 577h178c115 0 170 -58 170 -148c0 -89 -55 -148 -170 -148h-84v-155h-94
v451zM352 499v-139h71c60 0 86 26 86 69s-26 70 -86 70h-71z" />
    <glyph glyph-name="section" unicode="&#xa7;" horiz-adv-x="646" 
d="M423 728c128 0 195 -50 195 -154c0 -10 0 -20 -2 -32h-140c1 5 1 9 1 14c0 37 -24 59 -72 59c-40 0 -72 -24 -72 -61c0 -31 24 -44 97 -80c88 -43 157 -80 157 -175c0 -70 -34 -140 -132 -191v-2c17 -18 26 -43 26 -74c0 -83 -77 -188 -242 -188c-129 0 -208 46 -208 145
c0 12 1 25 4 39h141c-1 -5 -1 -10 -1 -15c0 -36 23 -56 71 -56c49 0 89 23 89 63c0 35 -29 52 -119 100c-76 40 -138 79 -138 166c0 68 39 140 132 188v2c-17 20 -23 42 -23 67c0 82 79 185 236 185zM370 358l-90 49c-38 -17 -61 -50 -61 -87s22 -62 85 -98
c27 -15 54 -31 80 -46c41 17 62 57 62 87c0 35 -19 64 -76 95z" />
    <glyph glyph-name="trademark" unicode="&#x2122;" horiz-adv-x="829" 
d="M409 629h-106l-68 -273h-99l68 273h-106l21 83h311zM813 356h-90l41 163c11 43 23 86 35 129h-2c-20 -42 -40 -86 -61 -127l-83 -165h-114l1 165c0 42 1 85 1 127h-2c-8 -43 -18 -86 -29 -129l-41 -163h-90l89 356h148l1 -141c0 -43 -1 -88 -5 -131h2c18 43 39 88 61 131
l71 141h156z" />
    <glyph glyph-name="degree" unicode="&#xb0;" horiz-adv-x="339" 
d="M252 722c74 0 135 -60 135 -135s-61 -135 -135 -135c-75 0 -136 60 -136 135s61 135 136 135zM252 652c-36 0 -65 -29 -65 -65s29 -65 65 -65s65 29 65 65s-29 65 -65 65z" />
    <glyph glyph-name="estimated" unicode="&#x212e;" horiz-adv-x="863" 
d="M432 690c243 0 383 -168 383 -362h-612c-8 0 -14 -6 -14 -13v-167c0 -20 3 -32 16 -44c58 -57 133 -91 227 -91c98 0 187 46 239 110h69c-45 -63 -145 -135 -308 -135c-233 0 -385 147 -385 349c0 199 145 353 385 353zM432 664c-94 0 -169 -36 -227 -94
c-13 -11 -16 -22 -16 -41v-167c0 -7 6 -12 14 -12h456c8 0 13 5 13 12v167c0 19 -3 30 -15 41c-69 68 -148 94 -225 94z" />
    <glyph glyph-name="literSign" unicode="&#x2113;" horiz-adv-x="450" 
d="M211 202l-5 -18c-4 -14 -6 -28 -6 -39c0 -38 18 -56 55 -56c12 0 30 2 44 6l-25 -99c-20 -4 -46 -6 -65 -6c-103 0 -151 42 -151 131c0 20 3 41 10 66c-18 2 -34 4 -48 7l19 75c14 -3 31 -5 47 -6l58 232c38 150 95 195 188 195c73 0 126 -43 126 -155
c0 -125 -79 -282 -247 -333zM346 601c-25 0 -41 -20 -58 -88l-54 -217c99 54 143 161 143 241c0 47 -12 64 -31 64z" />
    <glyph glyph-name="dagger" unicode="&#x2020;" horiz-adv-x="564" 
d="M422 536h158l-27 -111h-158l-136 -545h-140l136 545h-158l27 111h158l44 176h140z" />
    <glyph glyph-name="daggerdbl" unicode="&#x2021;" horiz-adv-x="564" 
d="M422 536h158l-27 -111h-158l-65 -258h158l-27 -111h-158l-44 -176h-140l44 176h-158l27 111h158l65 258h-158l27 111h158l44 176h140z" />
    <glyph glyph-name="interrobang" unicode="&#x203d;" horiz-adv-x="547" 
d="M467 712l-21 -68c74 -24 115 -78 115 -156c0 -75 -32 -142 -150 -205c-72 -38 -94 -54 -105 -97h-119c17 90 34 115 140 178c75 45 88 71 88 108c0 39 -25 65 -77 65c-60 0 -97 -28 -114 -92h-146c31 122 106 192 216 209l11 58h162zM155 132h154l-33 -132h-154z" />
    <glyph glyph-name="ampersand.smcp" horiz-adv-x="624" 
d="M450 303h127c-21 -77 -57 -139 -107 -190l90 -113h-152l-35 43c-48 -35 -114 -55 -178 -55c-124 0 -188 55 -188 144c0 66 44 138 158 181c-22 36 -32 66 -32 99c0 69 63 152 188 152c95 0 150 -49 150 -125c0 -55 -38 -111 -137 -156l66 -82c22 24 37 57 50 102z
M308 470c-35 0 -54 -28 -54 -56c0 -21 7 -38 25 -63c55 32 71 61 71 81c0 23 -16 38 -42 38zM225 87c29 0 58 10 88 31l-94 116c-59 -28 -76 -58 -76 -87c0 -35 28 -60 82 -60z" />
    <glyph glyph-name="acute" unicode="&#xb4;" horiz-adv-x="350" 
d="M244 566h-116l107 146h179z" />
    <glyph glyph-name="breve" unicode="&#x2d8;" horiz-adv-x="450" 
d="M407 712h107c-27 -96 -104 -151 -208 -151c-91 0 -144 45 -144 123c0 9 1 18 2 28h83c-1 -5 -1 -9 -1 -13c0 -32 24 -51 67 -51c48 0 83 24 94 64z" />
    <glyph glyph-name="caron" unicode="&#x2c7;" horiz-adv-x="478" 
d="M392 566h-149l-78 146h118l42 -76l79 76h138z" />
    <glyph glyph-name="cedilla" unicode="&#xb8;" horiz-adv-x="332" 
d="M144 0l-53 -60c6 2 15 3 23 3c40 0 71 -26 71 -70c0 -56 -62 -99 -141 -99c-41 0 -77 11 -106 30l25 45c28 -16 54 -22 79 -22c34 0 57 16 57 40c0 21 -14 33 -38 33c-12 0 -23 -2 -34 -6l-20 18l78 88h59z" />
    <glyph glyph-name="circumflex" unicode="&#x2c6;" horiz-adv-x="477" 
d="M505 566h-118l-42 76l-79 -76h-138l150 146h149z" />
    <glyph glyph-name="dieresis" unicode="&#xa8;" horiz-adv-x="441" 
d="M258 592h-123l30 120h123zM475 592h-123l30 120h123z" />
    <glyph glyph-name="dotaccent" unicode="&#x2d9;" horiz-adv-x="241" 
d="M275 592h-140l30 120h140z" />
    <glyph glyph-name="hungarumlaut" unicode="&#x2dd;" horiz-adv-x="540" 
d="M244 566h-116l127 146h159zM434 566h-116l127 146h159z" />
    <glyph glyph-name="macron" unicode="&#xaf;" horiz-adv-x="427" 
d="M463 598h-326l22 91h326z" />
    <glyph glyph-name="ogonek" unicode="&#x2db;" horiz-adv-x="292" 
d="M66 0h110c-75 -44 -91 -72 -91 -98c0 -14 9 -21 28 -21c12 0 26 2 37 6l-19 -75c-18 -5 -43 -9 -69 -9c-69 0 -103 27 -103 75c0 44 34 83 107 122z" />
    <glyph glyph-name="ring" unicode="&#x2da;" horiz-adv-x="323" 
d="M264 772c60 0 108 -48 108 -108s-48 -108 -108 -108s-108 48 -108 108s48 108 108 108zM264 718c-30 0 -54 -24 -54 -54s24 -54 54 -54s54 24 54 54s-24 54 -54 54z" />
    <glyph glyph-name="tilde" unicode="&#x2dc;" horiz-adv-x="476" 
d="M462 712h78c-24 -83 -75 -135 -143 -135s-85 46 -129 46c-29 0 -46 -15 -57 -46h-80c23 83 75 135 143 135s86 -46 129 -46c30 0 47 15 59 46z" />
    <glyph glyph-name="acute.case" horiz-adv-x="351" 
d="M292 760h-116l108 146h179z" />
    <glyph glyph-name="breve.case" horiz-adv-x="451" 
d="M456 906h107c-27 -96 -104 -151 -208 -151c-91 0 -144 45 -144 123c0 9 1 18 2 28h83c-1 -5 -1 -9 -1 -13c0 -32 24 -51 67 -51c48 0 83 24 94 64z" />
    <glyph glyph-name="caron.alt" horiz-adv-x="237" 
d="M199 535h-79l70 177h111z" />
    <glyph glyph-name="caron.case" horiz-adv-x="478" 
d="M439 760h-149l-77 146h114l42 -76l79 76h142z" />
    <glyph glyph-name="caron.alt.case" horiz-adv-x="237" 
d="M187 488h-79l82 224h111z" />
    <glyph glyph-name="circumflex.case" horiz-adv-x="477" 
d="M327 906h149l77 -146h-114l-42 76l-79 -76h-142z" />
    <glyph glyph-name="dieresis.case" horiz-adv-x="440" 
d="M301 769h-123l30 120h123zM518 769h-123l30 120h123z" />
    <glyph glyph-name="dotaccent.case" horiz-adv-x="240" 
d="M318 769h-140l30 120h140z" />
    <glyph glyph-name="grave.case" horiz-adv-x="350" 
d="M426 760h-104l-109 146h167z" />
    <glyph glyph-name="hungarumlaut.case" horiz-adv-x="541" 
d="M292 760h-116l128 146h159zM482 760h-116l128 146h159z" />
    <glyph glyph-name="macron.case" horiz-adv-x="427" 
d="M507 778h-326l22 91h326z" />
    <glyph glyph-name="breve.narrow" horiz-adv-x="418" 
d="M381 712h101c-26 -96 -97 -151 -192 -151c-82 0 -129 44 -129 119c0 11 1 22 3 32h81c-1 -5 -1 -10 -1 -15c0 -31 19 -49 55 -49c42 0 71 24 82 64z" />
    <glyph glyph-name="circumflex.narrow" horiz-adv-x="447" 
d="M475 567h-110l-34 77l-72 -77h-131l139 145h141z" />
    <glyph glyph-name="dieresis.narrow" horiz-adv-x="397" 
d="M258 592h-123l30 120h123zM431 592h-123l30 120h123z" />
    <glyph glyph-name="macron.narrow" horiz-adv-x="387" 
d="M422 598h-286l23 91h286z" />
    <glyph glyph-name="tilde.narrow" horiz-adv-x="441" 
d="M429 712h76c-25 -83 -72 -135 -135 -135c-59 0 -75 46 -113 46c-24 0 -39 -15 -49 -46h-77c24 83 72 135 135 135c59 0 76 -46 113 -46c24 0 39 15 50 46z" />
    <glyph glyph-name="ring.case" horiz-adv-x="323" 
d="M312 966c60 0 108 -48 108 -108s-48 -108 -108 -108s-108 48 -108 108s48 108 108 108zM312 912c-30 0 -54 -24 -54 -54s24 -54 54 -54s54 24 54 54s-24 54 -54 54z" />
    <glyph glyph-name="cedilla.ss01" horiz-adv-x="360" 
d="M102 -217h-169l175 168h126z" />
    <glyph glyph-name="tilde.case" horiz-adv-x="477" 
d="M511 906h78c-24 -83 -75 -135 -143 -135s-86 46 -130 46c-29 0 -46 -15 -57 -46h-80c23 83 75 135 143 135s87 -46 130 -46c30 0 47 15 59 46z" />
    <glyph glyph-name="commaaccent" unicode="&#x326;" horiz-adv-x="0" 
d="M70 -163l-95 -107h-56l72 107h-45l26 104h124z" />
    <glyph glyph-name="commaturnedabovecomb" unicode="&#x312;" horiz-adv-x="0" 
d="M236 681h45l-25 -104h-124l25 104l95 107h56z" />
    <glyph glyph-name="apostrophemod" unicode="&#x2bc;" horiz-adv-x="255" 
d="M273 570l-100 -146h-71l84 146h-44l35 142h131z" />
    <glyph glyph-name="firsttonechinese" unicode="&#x2c9;" horiz-adv-x="427" 
d="M463 598h-326l22 91h326z" />
    <glyph glyph-name="bracketrightinferior" horiz-adv-x="251" 
d="M75 -275h-196l19 77h83l117 469h-82l19 76h195z" />
    <glyph glyph-name="bracketleftinferior" horiz-adv-x="251" 
d="M248 270h-83l-117 -469h82l-19 -76h-195l155 622h196z" />
    <glyph glyph-name="uniFEFF" unicode="&#xfeff;" horiz-adv-x="0" 
 />
    <glyph glyph-name="uni20BC" unicode="&#x20bc;" horiz-adv-x="716" 
d="M538 712l-24 -97c123 -19 183 -90 183 -226c0 -34 -5 -72 -16 -115l-68 -274h-132l69 278c9 35 13 66 13 92c0 71 -25 109 -80 120l-122 -490h-132l122 493c-94 -7 -134 -60 -164 -179l-78 -314h-132l84 338c47 188 140 277 322 282l23 92h132z" />
    </font>
</defs>
</svg>
