<?xml version="1.0" standalone="no"?>
<!DOCTYPE svg PUBLIC "-//W3C//DTD SVG 1.1//EN" "http://www.w3.org/Graphics/SVG/1.1/DTD/svg11.dtd" >
<svg xmlns="http://www.w3.org/2000/svg" xmlns:xlink="http://www.w3.org/1999/xlink" version="1.1">
<metadata>
Created by FontForge 20170910 at Thu Feb  5 11:03:25 2015
 By Jimmy Wärting
Copyright (c) 2015 Monotype Imaging Inc.  All rights reserved.
</metadata>
<defs>
<font id="NeueHaasUnicaPro-UltraLight" horiz-adv-x="538" >
  <font-face 
    font-family="Neue Haas Unica Pro"
    font-weight="250"
    font-variant="small-caps"
    font-stretch="normal"
    units-per-em="1000"
    panose-1="2 11 2 4 3 2 6 2 2 3"
    ascent="764"
    descent="-236"
    x-height="508"
    cap-height="712"
    bbox="-155 -275 980 935"
    underline-thickness="50"
    underline-position="-100"
    stemh="16"
    stemv="16"
    unicode-range="U+0020-FEFF"
  />
<missing-glyph horiz-adv-x="580" 
d="M150 777h280c74 0 120 -46 120 -120v-602c0 -74 -46 -120 -120 -120h-280c-74 0 -120 46 -120 120v602c0 74 46 120 120 120zM430 761h-280c-64 0 -104 -40 -104 -104v-602c0 -64 40 -104 104 -104h280c64 0 104 40 104 104v602c0 64 -40 104 -104 104zM287 643
c90 0 156 -57 156 -138c0 -56 -18 -86 -90 -148c-65 -56 -79 -81 -79 -181h-13v17c0 88 15 119 81 175c70 60 85 88 85 137c0 72 -59 122 -140 122c-84 0 -138 -48 -144 -136h-16c7 98 67 152 160 152zM276 65h-18v57h18v-57z" />
    <glyph glyph-name="f_f" unicode="ff" horiz-adv-x="469" 
d="M428 699c-55 0 -83 -33 -83 -105v-86h108v-16h-108v-492h-16v492h-202v-492h-16v492h-96v16h96v86c0 81 35 121 99 121c9 0 18 -1 26 -3v-16c-7 2 -17 3 -26 3c-55 0 -83 -33 -83 -105v-86h202v86c0 81 35 121 99 121c9 0 18 -1 26 -3v-16c-7 2 -17 3 -26 3z" />
    <glyph glyph-name="f_f_i" unicode="ffi" horiz-adv-x="667" 
d="M329 508v86c0 81 35 121 99 121c9 0 18 -1 26 -3v-16c-7 2 -17 3 -26 3c-55 0 -83 -33 -83 -105v-86h108v-16h-108v-492h-16v492h-202v-492h-16v492h-96v16h96v86c0 81 35 121 99 121c9 0 18 -1 26 -3v-16c-7 2 -17 3 -26 3c-55 0 -83 -33 -83 -105v-86h202zM576 712v-77
h-16v77h16zM560 508h16v-508h-16v508z" />
    <glyph glyph-name="f_f_l" unicode="ffl" horiz-adv-x="667" 
d="M329 508v86c0 81 35 121 99 121c9 0 18 -1 26 -3v-16c-7 2 -17 3 -26 3c-55 0 -83 -33 -83 -105v-86h108v-16h-108v-492h-16v492h-202v-492h-16v492h-96v16h96v86c0 81 35 121 99 121c9 0 18 -1 26 -3v-16c-7 2 -17 3 -26 3c-55 0 -83 -33 -83 -105v-86h202zM576 712
v-712h-16v712h16z" />
    <glyph glyph-name="f_i" unicode="fi" horiz-adv-x="449" 
d="M111 508v86c0 81 35 121 99 121c9 0 18 -1 26 -3v-16c-7 2 -17 3 -26 3c-55 0 -83 -33 -83 -105v-86h108v-16h-108v-492h-16v492h-96v16h96zM358 712v-77h-16v77h16zM342 508h16v-508h-16v508z" />
    <glyph glyph-name="f_l" unicode="fl" horiz-adv-x="449" 
d="M111 508v86c0 81 35 121 99 121c9 0 18 -1 26 -3v-16c-7 2 -17 3 -26 3c-55 0 -83 -33 -83 -105v-86h108v-16h-108v-492h-16v492h-96v16h96zM358 712v-712h-16v712h16z" />
    <glyph glyph-name=".notdef" horiz-adv-x="580" 
d="M150 777h280c74 0 120 -46 120 -120v-602c0 -74 -46 -120 -120 -120h-280c-74 0 -120 46 -120 120v602c0 74 46 120 120 120zM430 761h-280c-64 0 -104 -40 -104 -104v-602c0 -64 40 -104 104 -104h280c64 0 104 40 104 104v602c0 64 -40 104 -104 104zM287 643
c90 0 156 -57 156 -138c0 -56 -18 -86 -90 -148c-65 -56 -79 -81 -79 -181h-13v17c0 88 15 119 81 175c70 60 85 88 85 137c0 72 -59 122 -140 122c-84 0 -138 -48 -144 -136h-16c7 98 67 152 160 152zM276 65h-18v57h18v-57z" />
    <glyph glyph-name="NULL" horiz-adv-x="0" 
 />
    <glyph glyph-name="space" unicode=" " horiz-adv-x="230" 
 />
    <glyph glyph-name="exclam" unicode="!" horiz-adv-x="202" 
d="M106 136h-10l-4 576h18zM110 0h-18v69h18v-69z" />
    <glyph glyph-name="quotedbl" unicode="&#x22;" horiz-adv-x="278" 
d="M95 468h-12l-3 244h18zM195 468h-12l-3 244h18z" />
    <glyph glyph-name="numbersign" unicode="#" horiz-adv-x="619" 
d="M439 445l-34 -213h143l-3 -16h-143l-34 -216h-16l34 216h-191l-34 -216h-16l34 216h-144l3 16h144l34 213h-145l3 16h144l34 213h16l-34 -213h191l34 213h16l-34 -213h143l-3 -16h-142zM423 445h-191l-34 -213h191z" />
    <glyph glyph-name="dollar" unicode="$" horiz-adv-x="500" 
d="M452 167c0 -107 -73 -176 -195 -177v-89h-16v89c-130 6 -193 85 -193 230h16c0 -136 56 -209 177 -214v339c-102 29 -180 52 -180 176c0 102 62 161 180 163v80h16v-80c125 -3 189 -71 189 -218h-16c0 138 -57 199 -173 202v-311c106 -30 195 -57 195 -190zM77 521
c0 -109 64 -131 164 -160v307c-109 -2 -164 -54 -164 -147zM257 340v-334c113 1 179 63 179 161c0 119 -75 144 -179 173z" />
    <glyph glyph-name="percent" unicode="%" horiz-adv-x="749" 
d="M195 -30h-18l377 734h18zM171 684c81 0 126 -65 126 -181c0 -114 -45 -178 -126 -178s-126 64 -126 178c0 116 45 181 126 181zM171 668c-72 0 -110 -58 -110 -165c0 -105 38 -162 110 -162s110 57 110 162c0 107 -38 165 -110 165zM578 349c81 0 126 -65 126 -181
c0 -114 -45 -178 -126 -178s-126 64 -126 178c0 116 45 181 126 181zM578 333c-72 0 -110 -58 -110 -165c0 -105 38 -162 110 -162s110 57 110 162c0 107 -38 165 -110 165z" />
    <glyph glyph-name="ampersand" unicode="&#x26;" horiz-adv-x="703" 
d="M666 0l-126 123c-62 -83 -143 -133 -252 -133c-136 0 -215 81 -215 193c0 102 59 154 183 216c-86 84 -105 124 -105 185c0 79 56 138 135 138c82 0 137 -62 137 -141c0 -80 -40 -134 -139 -186l254 -248c40 60 63 139 63 248h16c0 -114 -24 -196 -67 -259l139 -136h-23z
M167 584c0 -57 19 -96 104 -177c101 52 136 101 136 174c0 70 -48 125 -121 125c-70 0 -119 -52 -119 -122zM288 6c103 0 180 47 241 128l-261 254c-124 -63 -179 -109 -179 -205c0 -103 72 -177 199 -177z" />
    <glyph glyph-name="quotesingle" unicode="'" horiz-adv-x="178" 
d="M95 468h-12l-3 244h18z" />
    <glyph glyph-name="parenleft" unicode="(" horiz-adv-x="230" 
d="M182 741h18c-87 -133 -128 -261 -128 -444s41 -311 128 -444h-18c-84 129 -126 257 -126 444s42 315 126 444z" />
    <glyph glyph-name="parenright" unicode=")" horiz-adv-x="230" 
d="M30 741h18c84 -129 126 -257 126 -444s-42 -315 -126 -444h-18c87 133 128 261 128 444s-41 311 -128 444z" />
    <glyph glyph-name="asterisk" unicode="*" horiz-adv-x="370" 
d="M191 571l133 47l6 -18l-135 -40l85 -113l-14 -10l-81 116l-81 -116l-14 10l85 113l-135 40l6 18l133 -47l-3 141h18z" />
    <glyph glyph-name="plus" unicode="+" horiz-adv-x="566" 
d="M291 325h200v-16h-200v-200h-16v200h-200v16h200v200h16v-200z" />
    <glyph glyph-name="comma" unicode="," horiz-adv-x="136" 
d="M86 0l-35 -127h-14l33 127v72h16v-72z" />
    <glyph glyph-name="hyphen" unicode="-" horiz-adv-x="274" 
d="M244 284h-214v16h214v-16z" />
    <glyph glyph-name="period" unicode="." horiz-adv-x="136" 
d="M77 0h-18v72h18v-72z" />
    <glyph glyph-name="slash" unicode="/" horiz-adv-x="395" 
d="M47 -89h-17l297 834h17z" />
    <glyph glyph-name="zero" unicode="0" horiz-adv-x="520" 
d="M260 684c143 0 216 -119 216 -347c0 -230 -73 -347 -216 -347s-216 117 -216 347c0 228 73 347 216 347zM260 668c-134 0 -200 -112 -200 -331c0 -221 66 -331 200 -331s200 110 200 331c0 219 -66 331 -200 331z" />
    <glyph glyph-name="one" unicode="1" horiz-adv-x="520" 
d="M280 0h-16v620h-1c-16 -51 -63 -74 -145 -74v16c94 0 135 30 146 112h16v-674z" />
    <glyph glyph-name="two" unicode="2" horiz-adv-x="520" 
d="M261 684c113 0 189 -74 189 -179c0 -111 -63 -150 -193 -224c-167 -95 -191 -159 -191 -265h399v-16h-414c-1 8 -1 13 -1 16c0 113 30 181 198 278c127 73 186 107 186 211c0 96 -69 163 -173 163c-112 0 -176 -67 -185 -174h-16c9 116 80 190 201 190z" />
    <glyph glyph-name="three" unicode="3" horiz-adv-x="520" 
d="M245 684c122 0 204 -71 204 -174c0 -93 -53 -146 -133 -165v-1c89 -19 148 -75 148 -172c0 -105 -92 -182 -215 -182c-126 0 -200 77 -200 190h16c0 -104 67 -174 184 -174c114 0 199 70 199 166c0 105 -76 164 -199 164h-46v16h46c119 0 184 61 184 158
c0 94 -75 158 -188 158c-107 0 -177 -62 -177 -172h-16c0 119 77 188 193 188z" />
    <glyph glyph-name="four" unicode="4" horiz-adv-x="520" 
d="M494 207h-140v-207h-16v207h-317v20l308 447h25v-451h140v-16zM37 223h301v112v323h-1l-200 -290z" />
    <glyph glyph-name="five" unicode="5" horiz-adv-x="520" 
d="M429 658h-314l-32 -326h1c29 60 86 99 170 99c125 0 204 -84 204 -218s-82 -223 -211 -223c-112 0 -185 68 -185 182h16c0 -105 66 -166 169 -166c120 0 195 82 195 207s-72 202 -188 202c-86 0 -149 -43 -176 -132l-15 1l38 390h328v-16z" />
    <glyph glyph-name="six" unicode="6" horiz-adv-x="520" 
d="M277 684c102 0 164 -63 181 -164h-16c-17 92 -71 148 -165 148c-130 0 -213 -124 -209 -400h2c15 92 87 167 193 167c124 0 207 -88 207 -219c0 -136 -82 -226 -203 -226c-139 0 -214 103 -214 314c0 253 86 380 224 380zM263 419c-106 0 -183 -83 -183 -195
c0 -122 63 -218 187 -218c113 0 187 83 187 210c0 122 -76 203 -191 203z" />
    <glyph glyph-name="seven" unicode="7" horiz-adv-x="520" 
d="M468 674v-16c-111 -166 -216 -359 -283 -658h-17c70 306 173 496 282 658h-409v16h427z" />
    <glyph glyph-name="eight" unicode="8" horiz-adv-x="520" 
d="M260 684c113 0 194 -72 194 -176c0 -85 -58 -143 -135 -159v-1c84 -20 151 -80 151 -168c0 -112 -88 -190 -210 -190s-210 78 -210 190c0 88 67 148 151 168v1c-77 16 -135 74 -135 159c0 104 81 176 194 176zM260 668c-104 0 -178 -65 -178 -160c0 -89 70 -152 178 -152
s178 63 178 152c0 95 -74 160 -178 160zM260 340c-111 0 -194 -70 -194 -160c0 -103 81 -174 194 -174s194 71 194 174c0 90 -83 160 -194 160z" />
    <glyph glyph-name="nine" unicode="9" horiz-adv-x="520" 
d="M243 -10c-102 0 -164 63 -181 164h16c17 -92 71 -148 165 -148c130 0 213 124 209 400h-2c-15 -92 -87 -167 -193 -167c-124 0 -207 88 -207 219c0 136 82 226 203 226c139 0 214 -103 214 -314c0 -253 -86 -380 -224 -380zM257 255c106 0 183 83 183 195
c0 122 -63 218 -187 218c-113 0 -187 -83 -187 -210c0 -122 76 -203 191 -203z" />
    <glyph glyph-name="colon" unicode=":" horiz-adv-x="136" 
d="M77 436h-18v72h18v-72zM77 0h-18v72h18v-72z" />
    <glyph glyph-name="semicolon" unicode=";" horiz-adv-x="138" 
d="M88 436h-18v72h18v-72zM86 0l-35 -127h-14l33 127v72h16v-72z" />
    <glyph glyph-name="less" unicode="&#x3c;" horiz-adv-x="566" 
d="M491 501l-400 -183v-2l400 -183v-18l-416 191v22l416 191v-18z" />
    <glyph glyph-name="equal" unicode="=" horiz-adv-x="566" 
d="M491 371h-416v16h416v-16zM491 246h-416v16h416v-16z" />
    <glyph glyph-name="greater" unicode="&#x3e;" horiz-adv-x="566" 
d="M491 328v-22l-416 -191v18l400 183v2l-400 183v18z" />
    <glyph glyph-name="question" unicode="?" horiz-adv-x="468" 
d="M235 722c111 0 193 -71 193 -171c0 -70 -22 -108 -112 -185c-82 -70 -100 -103 -100 -229h-13v21c0 110 20 149 102 219c89 76 107 111 107 174c0 91 -75 155 -177 155c-107 0 -175 -61 -183 -173h-16c9 122 83 189 199 189zM218 0h-18v69h18v-69z" />
    <glyph glyph-name="at" unicode="@" horiz-adv-x="837" 
d="M427 672c209 0 345 -137 345 -348c0 -163 -73 -239 -155 -239c-57 0 -91 37 -91 120h-1c-29 -82 -82 -120 -147 -120c-87 0 -139 65 -139 185c0 147 74 248 179 248c76 0 123 -52 128 -126h1c5 34 13 77 21 116h16c-24 -115 -43 -246 -43 -303c0 -74 27 -104 76 -104
c73 0 139 69 139 223c0 202 -129 332 -329 332c-221 0 -346 -171 -346 -383c0 -215 129 -342 331 -342c89 0 165 22 226 62l9 -14c-63 -40 -142 -64 -235 -64c-211 0 -347 134 -347 358c0 221 132 399 362 399zM418 502c-96 0 -163 -94 -163 -232c0 -111 45 -169 123 -169
c80 0 156 71 156 257c0 91 -42 144 -116 144z" />
    <glyph glyph-name="A" unicode="A" horiz-adv-x="634" 
d="M498 266h-363l-112 -266h-17l300 712h21l300 -712h-17zM492 282l-42 98l-133 316h-1l-133 -316l-41 -98h350z" />
    <glyph glyph-name="B" unicode="B" horiz-adv-x="588" 
d="M105 712h197c145 0 213 -70 213 -174c0 -94 -57 -156 -149 -172v-1c97 -10 166 -75 166 -176c0 -115 -77 -189 -209 -189h-218v712zM121 696v-323h182c141 0 196 76 196 165c0 95 -61 158 -197 158h-181zM121 357v-341h202c123 0 193 67 193 173c0 94 -63 168 -213 168
h-182z" />
    <glyph glyph-name="C" unicode="C" horiz-adv-x="660" 
d="M345 722c159 0 250 -110 258 -241h-16c-9 122 -92 225 -242 225c-173 0 -282 -136 -282 -350s106 -350 275 -350c147 0 239 97 253 227h16c-15 -142 -113 -243 -269 -243c-178 0 -291 143 -291 366s116 366 298 366z" />
    <glyph glyph-name="D" unicode="D" horiz-adv-x="708" 
d="M105 712h196c233 0 360 -129 360 -356s-127 -356 -360 -356h-196v712zM121 696v-680h180c224 0 344 122 344 340s-120 340 -344 340h-180z" />
    <glyph glyph-name="E" unicode="E" horiz-adv-x="586" 
d="M512 696h-391v-322h374v-16h-374v-342h405v-16h-421v712h407v-16z" />
    <glyph glyph-name="F" unicode="F" 
d="M503 696h-382v-317h363v-16h-363v-363h-16v712h398v-16z" />
    <glyph glyph-name="G" unicode="G" horiz-adv-x="697" 
d="M354 722c153 0 243 -89 255 -215h-16c-12 117 -96 199 -239 199c-181 0 -291 -134 -291 -354c0 -216 104 -346 276 -346c132 0 258 80 258 332h-238v16h253v-354h-16v95c0 42 0 83 3 126h-1c-24 -144 -119 -231 -259 -231c-181 0 -292 137 -292 362
c0 229 117 370 307 370z" />
    <glyph glyph-name="H" unicode="H" horiz-adv-x="705" 
d="M600 0h-16v362h-463v-362h-16v712h16v-334h463v334h16v-712z" />
    <glyph glyph-name="I" unicode="I" horiz-adv-x="226" 
d="M121 0h-16v712h16v-712z" />
    <glyph glyph-name="J" unicode="J" horiz-adv-x="303" 
d="M203 712v-541c0 -115 -56 -175 -149 -175c-15 0 -29 2 -39 5v16c12 -3 26 -5 39 -5c84 0 133 53 133 159v541h16z" />
    <glyph glyph-name="K" unicode="K" horiz-adv-x="532" 
d="M139 374l389 -374h-24l-382 368h-1v-368h-16v712h16v-332h1l350 332h24z" />
    <glyph glyph-name="L" unicode="L" horiz-adv-x="525" 
d="M121 16h399v-16h-415v712h16v-696z" />
    <glyph glyph-name="M" unicode="M" horiz-adv-x="849" 
d="M744 0h-16v388v308h-1l-133 -317l-159 -379h-21l-159 379l-133 317h-1v-308v-388h-16v712h27l172 -410l120 -286h1l120 286l172 410h27v-712z" />
    <glyph glyph-name="N" unicode="N" horiz-adv-x="718" 
d="M613 0h-26l-222 333l-243 364h-1v-386v-311h-16v712h26l222 -333l243 -364h1v386v311h16v-712z" />
    <glyph glyph-name="O" unicode="O" horiz-adv-x="702" 
d="M351 722c186 0 304 -143 304 -366s-118 -366 -304 -366s-304 143 -304 366s118 366 304 366zM351 706c-176 0 -288 -136 -288 -350s112 -350 288 -350s288 136 288 350s-112 350 -288 350z" />
    <glyph glyph-name="P" unicode="P" horiz-adv-x="575" 
d="M105 712h227c144 0 213 -81 213 -188s-69 -188 -213 -188h-211v-336h-16v712zM121 696v-344h211c135 0 197 74 197 172s-62 172 -197 172h-211z" />
    <glyph glyph-name="Q" unicode="Q" horiz-adv-x="702" 
d="M655 356c0 -124 -36 -223 -100 -287l81 -90l-11 -11l-81 91c-49 -45 -114 -69 -189 -69c-188 0 -308 143 -308 366s120 366 308 366c183 0 300 -143 300 -366zM355 6c71 0 132 23 178 65l-93 104l11 11l94 -105c60 61 94 156 94 275c0 214 -111 350 -284 350
c-178 0 -292 -136 -292 -350s114 -350 292 -350z" />
    <glyph glyph-name="R" unicode="R" horiz-adv-x="591" 
d="M105 712h185c155 0 230 -69 230 -179c0 -105 -63 -167 -154 -183v-1c54 -14 81 -44 114 -134l79 -215h-17l-77 210c-35 96 -66 132 -159 132h-185v-342h-16v712zM121 696v-338h185c138 0 198 79 198 175c0 101 -68 163 -214 163h-169z" />
    <glyph glyph-name="S" unicode="S" horiz-adv-x="576" 
d="M271 722c150 0 228 -80 228 -237h-16c0 149 -71 221 -212 221c-117 0 -191 -64 -191 -163c0 -104 63 -137 202 -171c151 -37 229 -67 229 -199c0 -113 -84 -183 -222 -183c-153 0 -237 81 -237 248h16c0 -158 77 -232 221 -232c129 0 206 63 206 167
c0 125 -75 148 -216 183c-146 36 -215 74 -215 187c0 108 81 179 207 179z" />
    <glyph glyph-name="T" unicode="T" horiz-adv-x="568" 
d="M563 696h-271v-696h-16v696h-271v16h558v-16z" />
    <glyph glyph-name="U" unicode="U" horiz-adv-x="670" 
d="M571 712v-452c0 -179 -84 -270 -236 -270s-236 91 -236 270v452h16v-452c0 -170 77 -254 220 -254s220 84 220 254v452h16z" />
    <glyph glyph-name="V" unicode="V" horiz-adv-x="605" 
d="M313 0h-21l-284 712h17l136 -341l141 -354h1l141 354l136 341h17z" />
    <glyph glyph-name="W" unicode="W" horiz-adv-x="861" 
d="M647 0h-23l-94 339l-99 357h-1l-99 -357l-94 -339h-23l-202 712h16l98 -346l99 -349h1l97 351l95 344h25l95 -344l97 -351h1l99 349l98 346h16z" />
    <glyph glyph-name="X" unicode="X" horiz-adv-x="593" 
d="M307 366l274 -366h-20l-264 353h-1l-264 -353h-20l274 366l-259 346h20l249 -333h1l249 333h20z" />
    <glyph glyph-name="Y" unicode="Y" horiz-adv-x="570" 
d="M293 318v-318h-16v318l-270 394h19l117 -171l141 -206h1l145 211l114 166h19z" />
    <glyph glyph-name="Z" unicode="Z" horiz-adv-x="547" 
d="M508 690l-475 -673v-1h497v-16h-513v22l475 673v1h-470v16h486v-22z" />
    <glyph glyph-name="bracketleft" unicode="[" horiz-adv-x="238" 
d="M218 725h-122v-857h122v-16h-138v889h138v-16z" />
    <glyph glyph-name="backslash" unicode="\" horiz-adv-x="395" 
d="M68 745l297 -834h-17l-297 834h17z" />
    <glyph glyph-name="bracketright" unicode="]" horiz-adv-x="238" 
d="M158 741v-889h-138v16h122v857h-122v16h138z" />
    <glyph glyph-name="asciicircum" unicode="^" horiz-adv-x="384" 
d="M369 371h-18l-158 325h-2l-158 -325h-18l166 341h22z" />
    <glyph glyph-name="underscore" unicode="_" horiz-adv-x="500" 
d="M500 -66h-500v16h500v-16z" />
    <glyph glyph-name="grave" unicode="`" horiz-adv-x="215" 
d="M71 712l94 -138h-17l-98 138h21z" />
    <glyph glyph-name="a" unicode="a" horiz-adv-x="494" 
d="M243 518c98 0 168 -56 168 -185v-219c0 -38 4 -86 9 -114h-16c-4 29 -7 63 -7 97c0 10 0 18 1 29h-1c-26 -84 -96 -136 -190 -136c-99 0 -166 54 -166 140c0 78 46 128 175 147c46 7 123 17 179 23v33c0 120 -63 169 -152 169c-106 0 -159 -62 -165 -147h-16
c7 98 70 163 181 163zM395 219v65c-53 -6 -133 -16 -177 -23c-122 -18 -161 -63 -161 -131c0 -77 60 -124 150 -124c63 0 108 22 139 57c37 42 49 73 49 156z" />
    <glyph glyph-name="b" unicode="b" horiz-adv-x="545" 
d="M107 712v-232c0 -41 0 -83 -3 -127h1c20 92 77 165 180 165c131 0 212 -100 212 -264s-81 -264 -212 -264c-103 0 -160 73 -180 165h-1c3 -44 3 -86 3 -127v-28h-16v712h16zM285 502c-110 0 -179 -94 -179 -248s69 -248 179 -248c122 0 196 94 196 248s-74 248 -196 248z
" />
    <glyph glyph-name="c" unicode="c" horiz-adv-x="493" 
d="M260 518c105 0 180 -69 189 -172h-16c-8 93 -76 156 -173 156c-123 0 -196 -92 -196 -248s73 -248 196 -248c97 0 164 64 173 161h16c-9 -107 -84 -177 -189 -177c-132 0 -212 99 -212 264s80 264 212 264z" />
    <glyph glyph-name="d" unicode="d" horiz-adv-x="545" 
d="M454 712v-712h-16v28c0 41 0 83 3 127h-1c-20 -92 -77 -165 -180 -165c-131 0 -212 100 -212 264s81 264 212 264c103 0 160 -73 180 -165h1c-3 44 -3 86 -3 127v232h16zM260 502c-122 0 -196 -94 -196 -248s74 -248 196 -248c110 0 179 94 179 248s-69 248 -179 248z
" />
    <glyph glyph-name="e" unicode="e" horiz-adv-x="515" 
d="M265 6c97 0 166 57 178 143h17c-14 -97 -90 -159 -195 -159c-132 0 -217 107 -217 274c0 155 82 254 209 254c110 0 186 -71 205 -184c4 -24 5 -50 5 -75h-403c0 -153 78 -253 201 -253zM257 502c-120 0 -190 -94 -193 -227h387c0 146 -82 227 -194 227z" />
    <glyph glyph-name="f" unicode="f" horiz-adv-x="251" 
d="M210 699c-55 0 -83 -33 -83 -105v-86h108v-16h-108v-492h-16v492h-96v16h96v86c0 81 35 121 99 121c9 0 18 -1 26 -3v-16c-7 2 -17 3 -26 3z" />
    <glyph glyph-name="g" unicode="g" horiz-adv-x="545" 
d="M260 518c88 0 154 -55 179 -159h1c-2 50 -2 99 -2 149h16v-477c0 -143 -67 -220 -199 -220c-113 0 -188 57 -188 157h16c0 -91 68 -141 172 -141c123 0 183 70 183 204c0 45 0 89 2 134h-1c-25 -104 -91 -159 -179 -159c-131 0 -212 98 -212 256s81 256 212 256zM260 502
c-122 0 -196 -91 -196 -240s74 -240 196 -240c110 0 178 92 178 240s-68 240 -178 240z" />
    <glyph glyph-name="h" unicode="h" 
d="M107 712v-204c0 -42 0 -83 -3 -126h1c22 77 87 136 177 136c106 0 172 -69 172 -209v-309h-16v309c0 131 -59 193 -156 193c-94 0 -175 -76 -175 -184v-318h-16v712h16z" />
    <glyph glyph-name="i" unicode="i" horiz-adv-x="198" 
d="M107 635h-16v77h16v-77zM107 0h-16v508h16v-508z" />
    <glyph glyph-name="j" unicode="j" horiz-adv-x="209" 
d="M118 635h-16v77h16v-77zM118 508v-556c0 -106 -42 -139 -109 -139c-7 0 -14 1 -18 2v16c4 -1 11 -2 18 -2c58 0 93 26 93 123v556h16z" />
    <glyph glyph-name="k" unicode="k" horiz-adv-x="439" 
d="M443 0h-24l-311 271h-1v-271h-16v712h16v-430h1l281 226h25l-288 -232z" />
    <glyph glyph-name="l" unicode="l" horiz-adv-x="198" 
d="M107 0h-16v712h16v-712z" />
    <glyph glyph-name="m" unicode="m" horiz-adv-x="811" 
d="M575 518c94 0 152 -66 152 -199v-319h-16v319c0 124 -51 183 -136 183c-90 0 -158 -68 -158 -172v-330h-16v340c0 99 -50 162 -134 162c-89 0 -160 -70 -160 -191v-311h-16v508h16c0 -41 0 -81 -3 -123h1c22 81 81 133 162 133c80 0 131 -52 144 -130
c20 80 83 130 164 130z" />
    <glyph glyph-name="n" unicode="n" 
d="M282 518c106 0 172 -69 172 -209v-309h-16v309c0 131 -59 193 -156 193c-94 0 -175 -76 -175 -184v-318h-16v508h16c0 -42 0 -83 -3 -126h1c22 77 87 136 177 136z" />
    <glyph glyph-name="o" unicode="o" horiz-adv-x="528" 
d="M264 518c134 0 216 -100 216 -264s-82 -264 -216 -264s-216 100 -216 264s82 264 216 264zM264 502c-125 0 -200 -93 -200 -248s75 -248 200 -248s200 93 200 248s-75 248 -200 248z" />
    <glyph glyph-name="p" unicode="p" horiz-adv-x="545" 
d="M285 518c131 0 212 -100 212 -264s-81 -264 -212 -264c-103 0 -160 73 -180 165h-1c3 -44 3 -86 3 -127v-213h-16v693h16v-28c0 -41 0 -83 -3 -127h1c20 92 77 165 180 165zM285 502c-110 0 -179 -94 -179 -248s69 -248 179 -248c122 0 196 94 196 248s-74 248 -196 248z
" />
    <glyph glyph-name="q" unicode="q" horiz-adv-x="545" 
d="M260 518c87 0 149 -54 177 -149h1v139h16v-693h-16v324h-1c-27 -94 -88 -149 -177 -149c-131 0 -212 100 -212 264s81 264 212 264zM260 502c-122 0 -196 -93 -196 -248s74 -248 196 -248c110 0 178 94 178 248s-68 248 -178 248z" />
    <glyph glyph-name="r" unicode="r" horiz-adv-x="319" 
d="M277 510c9 0 20 -1 28 -2v-16c-8 1 -19 2 -28 2c-98 0 -170 -64 -170 -201v-293h-16v508h16c0 -44 0 -87 -3 -133h1c24 91 87 135 172 135z" />
    <glyph glyph-name="s" unicode="s" horiz-adv-x="447" 
d="M215 518c107 0 171 -67 171 -174h-16c0 98 -58 158 -155 158c-82 0 -144 -45 -144 -117c0 -73 47 -92 145 -113c130 -28 185 -54 185 -144c0 -81 -71 -138 -168 -138c-120 0 -189 69 -189 184h16c0 -106 62 -168 173 -168c88 0 152 50 152 122c0 81 -51 102 -172 128
c-103 22 -158 46 -158 129c0 81 69 133 160 133z" />
    <glyph glyph-name="t" unicode="t" horiz-adv-x="270" 
d="M203 14c11 0 26 2 35 4v-16c-9 -2 -24 -4 -35 -4c-64 0 -92 35 -92 116v378h-97v16h97v117h16v-117h106v-16h-106v-378c0 -72 21 -100 76 -100z" />
    <glyph glyph-name="u" unicode="u" 
d="M256 -10c-106 0 -172 69 -172 209v309h16v-309c0 -131 59 -193 156 -193c94 0 175 76 175 184v318h16v-508h-16v111h-1c-30 -76 -97 -121 -174 -121z" />
    <glyph glyph-name="v" unicode="v" horiz-adv-x="431" 
d="M227 0h-23l-202 508h17l95 -239l101 -254h1l101 254l95 239h17z" />
    <glyph glyph-name="w" unicode="w" horiz-adv-x="742" 
d="M562 0h-24l-89 264l-77 229h-2l-77 -229l-89 -264h-24l-170 508h16l83 -247l82 -245h2l84 249l82 243h24l82 -243l84 -249h2l82 245l83 247h16z" />
    <glyph glyph-name="x" unicode="x" horiz-adv-x="440" 
d="M230 264l206 -264h-20l-195 251h-1l-196 -251h-20l207 264l-190 244h20l179 -231h1l178 231h20z" />
    <glyph glyph-name="y" unicode="y" horiz-adv-x="431" 
d="M429 508l-211 -514c-61 -150 -101 -183 -172 -183c-18 0 -30 2 -41 7v16c11 -5 23 -7 41 -7c62 0 98 27 157 172l-201 509h17l192 -486h1l200 486h17z" />
    <glyph glyph-name="z" unicode="z" horiz-adv-x="441" 
d="M411 484l-375 -466v-2h385v-16h-401v24l375 466v2h-365v16h381v-24z" />
    <glyph glyph-name="braceleft" unicode="{" horiz-adv-x="279" 
d="M259 741v-16c-94 0 -133 -39 -133 -133v-174c0 -66 -17 -100 -72 -120v-2c55 -20 72 -54 72 -120v-175c0 -94 39 -133 133 -133v-16h-2c-100 0 -147 46 -147 149v175c0 66 -18 92 -70 110v22c52 18 70 44 70 110v174c0 103 47 149 147 149h2z" />
    <glyph glyph-name="bar" unicode="|" horiz-adv-x="236" 
d="M126 -205h-16v937h16v-937z" />
    <glyph glyph-name="braceright" unicode="}" horiz-adv-x="279" 
d="M20 741h2c100 0 147 -46 147 -149v-174c0 -66 18 -92 70 -110v-22c-52 -18 -70 -44 -70 -110v-175c0 -103 -47 -149 -147 -149h-2v16c94 0 133 39 133 133v175c0 66 17 100 72 120v2c-55 20 -72 54 -72 120v174c0 94 -39 133 -133 133v16z" />
    <glyph glyph-name="asciitilde" unicode="~" horiz-adv-x="566" 
d="M147 394c122 0 158 -139 272 -139c65 0 106 50 106 126h16c0 -85 -48 -142 -122 -142c-122 0 -158 139 -272 139c-65 0 -106 -50 -106 -126h-16c0 85 48 142 122 142z" />
    <glyph glyph-name="Aacute" unicode="&#xc1;" horiz-adv-x="634" 
d="M280 760h-19l107 126h22zM498 266h-363l-112 -266h-17l300 712h21l300 -712h-17zM492 282l-42 98l-133 316h-1l-133 -316l-41 -98h350z" />
    <glyph glyph-name="Abreve" unicode="&#x102;" horiz-adv-x="634" 
d="M317 759c-85 0 -136 47 -144 127h16c8 -72 52 -111 128 -111s120 39 128 111h16c-8 -80 -59 -127 -144 -127zM498 266h-363l-112 -266h-17l300 712h21l300 -712h-17zM492 282l-42 98l-133 316h-1l-133 -316l-41 -98h350z" />
    <glyph glyph-name="Acircumflex" unicode="&#xc2;" horiz-adv-x="634" 
d="M211 760h-22l120 126h16l120 -126h-22l-106 111zM498 266h-363l-112 -266h-17l300 712h21l300 -712h-17zM492 282l-42 98l-133 316h-1l-133 -316l-41 -98h350z" />
    <glyph glyph-name="Adieresis" unicode="&#xc4;" horiz-adv-x="634" 
d="M233 779h-16v77h16v-77zM417 779h-16v77h16v-77zM498 266h-363l-112 -266h-17l300 712h21l300 -712h-17zM492 282l-42 98l-133 316h-1l-133 -316l-41 -98h350z" />
    <glyph glyph-name="Agrave" unicode="&#xc0;" horiz-adv-x="634" 
d="M354 760l-110 126h22l107 -126h-19zM498 266h-363l-112 -266h-17l300 712h21l300 -712h-17zM492 282l-42 98l-133 316h-1l-133 -316l-41 -98h350z" />
    <glyph glyph-name="Amacron" unicode="&#x100;" horiz-adv-x="634" 
d="M430 802h-226v16h226v-16zM498 266h-363l-112 -266h-17l300 712h21l300 -712h-17zM492 282l-42 98l-133 316h-1l-133 -316l-41 -98h350z" />
    <glyph glyph-name="Aogonek" unicode="&#x104;" horiz-adv-x="634" 
d="M598 -173c12 0 24 2 32 5v-16c-8 -3 -20 -5 -32 -5c-48 0 -71 26 -71 67c0 44 23 77 81 126l-110 262h-363l-112 -266h-17l300 712h21l300 -712c-64 -52 -84 -84 -84 -122c0 -32 16 -51 55 -51zM492 282l-42 98l-133 316h-1l-133 -316l-41 -98h350z" />
    <glyph glyph-name="Aring" unicode="&#xc5;" horiz-adv-x="634" 
d="M317 767c-46 0 -84 37 -84 84c0 46 38 84 84 84s84 -38 84 -84c0 -47 -38 -84 -84 -84zM317 919c-38 0 -68 -30 -68 -68s30 -68 68 -68s68 30 68 68s-30 68 -68 68zM498 266h-363l-112 -266h-17l300 712h21l300 -712h-17zM492 282l-42 98l-133 316h-1l-133 -316l-41 -98
h350z" />
    <glyph glyph-name="Atilde" unicode="&#xc3;" horiz-adv-x="634" 
d="M242 860c-31 0 -50 -22 -53 -65h-16c4 53 31 81 69 81c62 0 95 -65 150 -65c31 0 50 22 53 65h16c-4 -53 -31 -81 -69 -81c-62 0 -95 65 -150 65zM498 266h-363l-112 -266h-17l300 712h21l300 -712h-17zM492 282l-42 98l-133 316h-1l-133 -316l-41 -98h350z" />
    <glyph glyph-name="AE" unicode="&#xc6;" horiz-adv-x="905" 
d="M845 16v-16h-328l-45 285h-307l-153 -285h-18l383 712h454v-16h-408l51 -322h340v-16h-338l55 -342h314zM470 301l-63 395h-21l-212 -395h296z" />
    <glyph glyph-name="Cacute" unicode="&#x106;" horiz-adv-x="660" 
d="M308 760h-19l107 126h22zM345 722c159 0 250 -110 258 -241h-16c-9 122 -92 225 -242 225c-173 0 -282 -136 -282 -350s106 -350 275 -350c147 0 239 97 253 227h16c-15 -142 -113 -243 -269 -243c-178 0 -291 143 -291 366s116 366 298 366z" />
    <glyph glyph-name="Ccaron" unicode="&#x10c;" horiz-adv-x="660" 
d="M353 760h-16l-120 126h22l106 -111l106 111h22zM345 722c159 0 250 -110 258 -241h-16c-9 122 -92 225 -242 225c-173 0 -282 -136 -282 -350s106 -350 275 -350c147 0 239 97 253 227h16c-15 -142 -113 -243 -269 -243c-178 0 -291 143 -291 366s116 366 298 366z" />
    <glyph glyph-name="Ccedilla" unicode="&#xc7;" horiz-adv-x="660" 
d="M591 233h16c-14 -133 -101 -230 -240 -242l-41 -60c6 2 13 3 21 3c53 0 81 -26 81 -67c0 -43 -33 -72 -89 -72c-33 0 -61 9 -86 23l8 14c24 -14 49 -21 78 -21c47 0 73 22 73 56c0 33 -21 52 -65 52c-12 0 -24 -2 -33 -5l-11 11l44 65h-9c-178 0 -291 143 -291 366
s116 366 298 366c159 0 250 -110 258 -241h-16c-9 122 -92 225 -242 225c-173 0 -282 -136 -282 -350s106 -350 275 -350c147 0 239 97 253 227z" />
    <glyph glyph-name="Ccircumflex" unicode="&#x108;" horiz-adv-x="660" 
d="M337 886h16l120 -126h-22l-106 111l-106 -111h-22zM345 722c159 0 250 -110 258 -241h-16c-9 122 -92 225 -242 225c-173 0 -282 -136 -282 -350s106 -350 275 -350c147 0 239 97 253 227h16c-15 -142 -113 -243 -269 -243c-178 0 -291 143 -291 366s116 366 298 366z
" />
    <glyph glyph-name="Cdotaccent" unicode="&#x10a;" horiz-adv-x="660" 
d="M353 769h-16v77h16v-77zM345 722c159 0 250 -110 258 -241h-16c-9 122 -92 225 -242 225c-173 0 -282 -136 -282 -350s106 -350 275 -350c147 0 239 97 253 227h16c-15 -142 -113 -243 -269 -243c-178 0 -291 143 -291 366s116 366 298 366z" />
    <glyph glyph-name="Eth" unicode="&#xd0;" horiz-adv-x="708" 
d="M105 712h196c233 0 360 -129 360 -356s-127 -356 -360 -356h-196v352h-60v16h60v344zM121 16h180c224 0 344 122 344 340s-120 340 -344 340h-180v-328h256v-16h-256v-336z" />
    <glyph glyph-name="Dcaron" unicode="&#x10e;" horiz-adv-x="708" 
d="M328 760h-16l-120 126h22l106 -111l106 111h22zM105 712h196c233 0 360 -129 360 -356s-127 -356 -360 -356h-196v712zM121 696v-680h180c224 0 344 122 344 340s-120 340 -344 340h-180z" />
    <glyph glyph-name="Dcroat" unicode="&#x110;" horiz-adv-x="708" 
d="M105 712h196c233 0 360 -129 360 -356s-127 -356 -360 -356h-196v352h-60v16h60v344zM121 16h180c224 0 344 122 344 340s-120 340 -344 340h-180v-328h256v-16h-256v-336z" />
    <glyph glyph-name="Eacute" unicode="&#xc9;" horiz-adv-x="586" 
d="M272 760h-19l107 126h22zM512 696h-391v-322h374v-16h-374v-342h405v-16h-421v712h407v-16z" />
    <glyph glyph-name="Ebreve" unicode="&#x114;" horiz-adv-x="586" 
d="M437 886h16c-8 -80 -59 -127 -144 -127s-136 47 -144 127h16c8 -72 52 -111 128 -111s120 39 128 111zM512 696h-391v-322h374v-16h-374v-342h405v-16h-421v712h407v-16z" />
    <glyph glyph-name="Ecaron" unicode="&#x11a;" horiz-adv-x="586" 
d="M317 760h-16l-120 126h22l106 -111l106 111h22zM512 696h-391v-322h374v-16h-374v-342h405v-16h-421v712h407v-16z" />
    <glyph glyph-name="Ecircumflex" unicode="&#xca;" horiz-adv-x="586" 
d="M301 886h16l120 -126h-22l-106 111l-106 -111h-22zM512 696h-391v-322h374v-16h-374v-342h405v-16h-421v712h407v-16z" />
    <glyph glyph-name="Edieresis" unicode="&#xcb;" horiz-adv-x="586" 
d="M225 779h-16v77h16v-77zM409 779h-16v77h16v-77zM512 696h-391v-322h374v-16h-374v-342h405v-16h-421v712h407v-16z" />
    <glyph glyph-name="Edotaccent" unicode="&#x116;" horiz-adv-x="586" 
d="M317 769h-16v77h16v-77zM512 696h-391v-322h374v-16h-374v-342h405v-16h-421v712h407v-16z" />
    <glyph glyph-name="Egrave" unicode="&#xc8;" horiz-adv-x="586" 
d="M258 886l107 -126h-19l-110 126h22zM512 696h-391v-322h374v-16h-374v-342h405v-16h-421v712h407v-16z" />
    <glyph glyph-name="Emacron" unicode="&#x112;" horiz-adv-x="586" 
d="M422 802h-226v16h226v-16zM512 696h-391v-322h374v-16h-374v-342h405v-16h-421v712h407v-16z" />
    <glyph glyph-name="Eogonek" unicode="&#x118;" horiz-adv-x="586" 
d="M497 -173c12 0 24 2 32 5v-16c-8 -3 -20 -5 -32 -5c-48 0 -71 26 -71 67c0 43 22 75 77 122h-398v712h407v-16h-391v-322h374v-16h-374v-342h405v-16c-64 -52 -84 -84 -84 -122c0 -32 16 -51 55 -51z" />
    <glyph glyph-name="Gbreve" unicode="&#x11e;" horiz-adv-x="697" 
d="M471 886h16c-8 -80 -59 -127 -144 -127s-136 47 -144 127h16c8 -72 52 -111 128 -111s120 39 128 111zM354 722c153 0 243 -89 255 -215h-16c-12 117 -96 199 -239 199c-181 0 -291 -134 -291 -354c0 -216 104 -346 276 -346c132 0 258 80 258 332h-238v16h253v-354h-16
v95c0 42 0 83 3 126h-1c-24 -144 -119 -231 -259 -231c-181 0 -292 137 -292 362c0 229 117 370 307 370z" />
    <glyph glyph-name="Gcircumflex" unicode="&#x11c;" horiz-adv-x="697" 
d="M335 886h16l120 -126h-22l-106 111l-106 -111h-22zM354 722c153 0 243 -89 255 -215h-16c-12 117 -96 199 -239 199c-181 0 -291 -134 -291 -354c0 -216 104 -346 276 -346c132 0 258 80 258 332h-238v16h253v-354h-16v95c0 42 0 83 3 126h-1
c-24 -144 -119 -231 -259 -231c-181 0 -292 137 -292 362c0 229 117 370 307 370z" />
    <glyph glyph-name="Gcommaaccent" unicode="&#x122;" horiz-adv-x="697" 
d="M354 722c153 0 243 -89 255 -215h-16c-12 117 -96 199 -239 199c-181 0 -291 -134 -291 -354c0 -216 104 -346 276 -346c132 0 258 80 258 332h-238v16h253v-354h-16v95c0 42 0 83 3 126h-1c-24 -144 -119 -231 -259 -231c-181 0 -292 137 -292 362
c0 229 117 370 307 370zM351 -145l-30 -94h-14l28 94v66h16v-66z" />
    <glyph glyph-name="Gdotaccent" unicode="&#x120;" horiz-adv-x="697" 
d="M351 769h-16v77h16v-77zM354 722c153 0 243 -89 255 -215h-16c-12 117 -96 199 -239 199c-181 0 -291 -134 -291 -354c0 -216 104 -346 276 -346c132 0 258 80 258 332h-238v16h253v-354h-16v95c0 42 0 83 3 126h-1c-24 -144 -119 -231 -259 -231
c-181 0 -292 137 -292 362c0 229 117 370 307 370z" />
    <glyph glyph-name="Hbar" unicode="&#x126;" horiz-adv-x="705" 
d="M660 596h-60v-596h-16v362h-463v-362h-16v596h-60v16h60v100h16v-100h463v100h16v-100h60v-16zM584 596h-463v-218h463v218z" />
    <glyph glyph-name="Hcircumflex" unicode="&#x124;" horiz-adv-x="705" 
d="M345 886h16l120 -126h-22l-106 111l-106 -111h-22zM600 0h-16v362h-463v-362h-16v712h16v-334h463v334h16v-712z" />
    <glyph glyph-name="IJ" unicode="&#x132;" horiz-adv-x="529" 
d="M121 0h-16v712h16v-712zM429 712v-541c0 -115 -56 -175 -149 -175c-15 0 -29 2 -39 5v16c12 -3 26 -5 39 -5c84 0 133 53 133 159v541h16z" />
    <glyph glyph-name="Iacute" unicode="&#xcd;" horiz-adv-x="226" 
d="M76 760h-19l107 126h22zM121 0h-16v712h16v-712z" />
    <glyph glyph-name="Ibreve" unicode="&#x12c;" horiz-adv-x="226" 
d="M241 886h16c-8 -80 -59 -127 -144 -127s-136 47 -144 127h16c8 -72 52 -111 128 -111s120 39 128 111zM121 0h-16v712h16v-712z" />
    <glyph glyph-name="Icircumflex" unicode="&#xce;" horiz-adv-x="226" 
d="M105 886h16l120 -126h-22l-106 111l-106 -111h-22zM121 0h-16v712h16v-712z" />
    <glyph glyph-name="Idieresis" unicode="&#xcf;" horiz-adv-x="226" 
d="M29 779h-16v77h16v-77zM213 779h-16v77h16v-77zM121 0h-16v712h16v-712z" />
    <glyph glyph-name="Idotaccent" unicode="&#x130;" horiz-adv-x="226" 
d="M121 769h-16v77h16v-77zM121 0h-16v712h16v-712z" />
    <glyph glyph-name="Igrave" unicode="&#xcc;" horiz-adv-x="226" 
d="M62 886l107 -126h-19l-110 126h22zM121 0h-16v712h16v-712z" />
    <glyph glyph-name="Imacron" unicode="&#x12a;" horiz-adv-x="226" 
d="M226 802h-226v16h226v-16zM121 0h-16v712h16v-712z" />
    <glyph glyph-name="Iogonek" unicode="&#x12e;" horiz-adv-x="226" 
d="M92 -173c12 0 24 2 32 5v-16c-8 -3 -20 -5 -32 -5c-48 0 -71 26 -71 67c0 45 24 78 84 128v706h16v-712c-64 -52 -84 -84 -84 -122c0 -32 16 -51 55 -51z" />
    <glyph glyph-name="Itilde" unicode="&#x128;" horiz-adv-x="226" 
d="M241 876h16c-4 -53 -31 -81 -69 -81c-62 0 -95 65 -150 65c-31 0 -50 -22 -53 -65h-16c4 53 31 81 69 81c62 0 95 -65 150 -65c31 0 50 22 53 65zM121 0h-16v712h16v-712z" />
    <glyph glyph-name="Jcircumflex" unicode="&#x134;" horiz-adv-x="303" 
d="M187 886h16l120 -126h-22l-106 111l-106 -111h-22zM203 712v-541c0 -115 -56 -175 -149 -175c-15 0 -29 2 -39 5v16c12 -3 26 -5 39 -5c84 0 133 53 133 159v541h16z" />
    <glyph glyph-name="Kcommaaccent" unicode="&#x136;" horiz-adv-x="532" 
d="M139 374l389 -374h-24l-382 368h-1v-368h-16v712h16v-332h1l350 332h24zM316 -145l-30 -94h-14l28 94v66h16v-66z" />
    <glyph glyph-name="Lacute" unicode="&#x139;" horiz-adv-x="525" 
d="M116 760h-19l107 126h22zM121 16h399v-16h-415v712h16v-696z" />
    <glyph glyph-name="Lcaron" unicode="&#x13d;" horiz-adv-x="525" 
d="M121 16h399v-16h-415v712h16v-696zM215 498h-14l41 214h17z" />
    <glyph glyph-name="Lcommaaccent" unicode="&#x13b;" horiz-adv-x="525" 
d="M121 16h399v-16h-415v712h16v-696zM321 -145l-30 -94h-14l28 94v66h16v-66z" />
    <glyph glyph-name="Ldot" unicode="&#x13f;" horiz-adv-x="605" 
d="M121 16h399v-16h-415v712h16v-696zM425 355h-18v72h18v-72z" />
    <glyph glyph-name="Lslash" unicode="&#x141;" horiz-adv-x="525" 
d="M520 16v-16h-415v319l-80 -48v18l80 48v375h16v-367l165 99v-18l-165 -99v-311h399z" />
    <glyph glyph-name="Nacute" unicode="&#x143;" horiz-adv-x="718" 
d="M322 760h-19l107 126h22zM613 0h-26l-222 333l-243 364h-1v-386v-311h-16v712h26l222 -333l243 -364h1v386v311h16v-712z" />
    <glyph glyph-name="Ncaron" unicode="&#x147;" horiz-adv-x="718" 
d="M367 760h-16l-120 126h22l106 -111l106 111h22zM613 0h-26l-222 333l-243 364h-1v-386v-311h-16v712h26l222 -333l243 -364h1v386v311h16v-712z" />
    <glyph glyph-name="Ncommaaccent" unicode="&#x145;" horiz-adv-x="718" 
d="M613 0h-26l-222 333l-243 364h-1v-386v-311h-16v712h26l222 -333l243 -364h1v386v311h16v-712zM367 -145l-30 -94h-14l28 94v66h16v-66z" />
    <glyph glyph-name="Eng" unicode="&#x14a;" horiz-adv-x="718" 
d="M613 712v-760c0 -106 -42 -139 -109 -139c-7 0 -14 1 -18 2v16c4 -1 11 -2 18 -2c58 0 93 26 93 123v48l-242 355l-233 342h-1v-367v-330h-16v712h26l232 -340l233 -342h1v367v315h16z" />
    <glyph glyph-name="Ntilde" unicode="&#xd1;" horiz-adv-x="718" 
d="M487 876h16c-4 -53 -31 -81 -69 -81c-62 0 -95 65 -150 65c-31 0 -50 -22 -53 -65h-16c4 53 31 81 69 81c62 0 95 -65 150 -65c31 0 50 22 53 65zM613 0h-26l-222 333l-243 364h-1v-386v-311h-16v712h26l222 -333l243 -364h1v386v311h16v-712z" />
    <glyph glyph-name="Oacute" unicode="&#xd3;" horiz-adv-x="702" 
d="M314 760h-19l107 126h22zM351 722c186 0 304 -143 304 -366s-118 -366 -304 -366s-304 143 -304 366s118 366 304 366zM351 706c-176 0 -288 -136 -288 -350s112 -350 288 -350s288 136 288 350s-112 350 -288 350z" />
    <glyph glyph-name="Obreve" unicode="&#x14e;" horiz-adv-x="702" 
d="M479 886h16c-8 -80 -59 -127 -144 -127s-136 47 -144 127h16c8 -72 52 -111 128 -111s120 39 128 111zM351 722c186 0 304 -143 304 -366s-118 -366 -304 -366s-304 143 -304 366s118 366 304 366zM351 706c-176 0 -288 -136 -288 -350s112 -350 288 -350
s288 136 288 350s-112 350 -288 350z" />
    <glyph glyph-name="Ocircumflex" unicode="&#xd4;" horiz-adv-x="702" 
d="M343 886h16l120 -126h-22l-106 111l-106 -111h-22zM351 722c186 0 304 -143 304 -366s-118 -366 -304 -366s-304 143 -304 366s118 366 304 366zM351 706c-176 0 -288 -136 -288 -350s112 -350 288 -350s288 136 288 350s-112 350 -288 350z" />
    <glyph glyph-name="Odieresis" unicode="&#xd6;" horiz-adv-x="702" 
d="M267 779h-16v77h16v-77zM451 779h-16v77h16v-77zM351 722c186 0 304 -143 304 -366s-118 -366 -304 -366s-304 143 -304 366s118 366 304 366zM351 706c-176 0 -288 -136 -288 -350s112 -350 288 -350s288 136 288 350s-112 350 -288 350z" />
    <glyph glyph-name="Ograve" unicode="&#xd2;" horiz-adv-x="702" 
d="M300 886l107 -126h-19l-110 126h22zM351 722c186 0 304 -143 304 -366s-118 -366 -304 -366s-304 143 -304 366s118 366 304 366zM351 706c-176 0 -288 -136 -288 -350s112 -350 288 -350s288 136 288 350s-112 350 -288 350z" />
    <glyph glyph-name="Ohungarumlaut" unicode="&#x150;" horiz-adv-x="702" 
d="M285 760h-19l122 126h24zM384 760h-19l122 126h24zM351 722c186 0 304 -143 304 -366s-118 -366 -304 -366s-304 143 -304 366s118 366 304 366zM351 706c-176 0 -288 -136 -288 -350s112 -350 288 -350s288 136 288 350s-112 350 -288 350z" />
    <glyph glyph-name="Omacron" unicode="&#x14c;" horiz-adv-x="702" 
d="M464 802h-226v16h226v-16zM351 722c186 0 304 -143 304 -366s-118 -366 -304 -366s-304 143 -304 366s118 366 304 366zM351 706c-176 0 -288 -136 -288 -350s112 -350 288 -350s288 136 288 350s-112 350 -288 350z" />
    <glyph glyph-name="Oslash" unicode="&#xd8;" horiz-adv-x="702" 
d="M633 713l-65 -85c56 -64 87 -157 87 -272c0 -223 -118 -366 -304 -366c-85 0 -155 30 -207 83l-63 -83l-12 9l65 85c-56 64 -87 157 -87 272c0 223 118 366 304 366c85 0 155 -30 207 -83l63 83zM63 356c0 -109 29 -198 81 -259l404 529c-49 52 -116 80 -197 80
c-176 0 -288 -136 -288 -350zM351 6c176 0 288 136 288 350c0 109 -29 198 -81 259l-404 -529c49 -52 116 -80 197 -80z" />
    <glyph glyph-name="Otilde" unicode="&#xd5;" horiz-adv-x="702" 
d="M479 876h16c-4 -53 -31 -81 -69 -81c-62 0 -95 65 -150 65c-31 0 -50 -22 -53 -65h-16c4 53 31 81 69 81c62 0 95 -65 150 -65c31 0 50 22 53 65zM351 722c186 0 304 -143 304 -366s-118 -366 -304 -366s-304 143 -304 366s118 366 304 366zM351 706
c-176 0 -288 -136 -288 -350s112 -350 288 -350s288 136 288 350s-112 350 -288 350z" />
    <glyph glyph-name="OE" unicode="&#x152;" horiz-adv-x="962" 
d="M888 696h-391v-322h374v-16h-374v-342h405v-16h-510c-221 0 -345 128 -345 356s124 356 345 356h496v-16zM481 696h-89c-212 0 -329 -121 -329 -340s117 -340 329 -340h89v680z" />
    <glyph glyph-name="Thorn" unicode="&#xde;" horiz-adv-x="575" 
d="M121 557h211c144 0 213 -81 213 -188s-69 -188 -213 -188h-211v-181h-16v712h16v-155zM121 541v-344h211c135 0 197 74 197 172s-62 172 -197 172h-211z" />
    <glyph glyph-name="Racute" unicode="&#x154;" horiz-adv-x="591" 
d="M255 760h-19l107 126h22zM105 712h185c155 0 230 -69 230 -179c0 -105 -63 -167 -154 -183v-1c54 -14 81 -44 114 -134l79 -215h-17l-77 210c-35 96 -66 132 -159 132h-185v-342h-16v712zM121 696v-338h185c138 0 198 79 198 175c0 101 -68 163 -214 163h-169z" />
    <glyph glyph-name="Rcaron" unicode="&#x158;" horiz-adv-x="591" 
d="M300 760h-16l-120 126h22l106 -111l106 111h22zM105 712h185c155 0 230 -69 230 -179c0 -105 -63 -167 -154 -183v-1c54 -14 81 -44 114 -134l79 -215h-17l-77 210c-35 96 -66 132 -159 132h-185v-342h-16v712zM121 696v-338h185c138 0 198 79 198 175
c0 101 -68 163 -214 163h-169z" />
    <glyph glyph-name="Rcommaaccent" unicode="&#x156;" horiz-adv-x="591" 
d="M105 712h185c155 0 230 -69 230 -179c0 -105 -63 -167 -154 -183v-1c54 -14 81 -44 114 -134l79 -215h-17l-77 210c-35 96 -66 132 -159 132h-185v-342h-16v712zM121 696v-338h185c138 0 198 79 198 175c0 101 -68 163 -214 163h-169zM330 -145l-30 -94h-14l28 94v66h16
v-66z" />
    <glyph glyph-name="Sacute" unicode="&#x15a;" horiz-adv-x="576" 
d="M234 760h-19l107 126h22zM271 722c150 0 228 -80 228 -237h-16c0 149 -71 221 -212 221c-117 0 -191 -64 -191 -163c0 -104 63 -137 202 -171c151 -37 229 -67 229 -199c0 -113 -84 -183 -222 -183c-153 0 -237 81 -237 248h16c0 -158 77 -232 221 -232
c129 0 206 63 206 167c0 125 -75 148 -216 183c-146 36 -215 74 -215 187c0 108 81 179 207 179z" />
    <glyph glyph-name="Scaron" unicode="&#x160;" horiz-adv-x="576" 
d="M279 760h-16l-120 126h22l106 -111l106 111h22zM271 722c150 0 228 -80 228 -237h-16c0 149 -71 221 -212 221c-117 0 -191 -64 -191 -163c0 -104 63 -137 202 -171c151 -37 229 -67 229 -199c0 -113 -84 -183 -222 -183c-153 0 -237 81 -237 248h16
c0 -158 77 -232 221 -232c129 0 206 63 206 167c0 125 -75 148 -216 183c-146 36 -215 74 -215 187c0 108 81 179 207 179z" />
    <glyph glyph-name="Scedilla" unicode="&#x15e;" horiz-adv-x="576" 
d="M511 173c0 -108 -76 -176 -202 -183l-41 -59c6 2 13 3 21 3c53 0 81 -26 81 -67c0 -43 -33 -72 -89 -72c-33 0 -61 9 -86 23l8 14c24 -14 49 -21 78 -21c47 0 73 22 73 56c0 33 -21 52 -65 52c-12 0 -24 -2 -33 -5l-11 11l44 65c-153 0 -237 81 -237 248h16
c0 -158 77 -232 221 -232c129 0 206 63 206 167c0 125 -75 148 -216 183c-146 36 -215 74 -215 187c0 108 81 179 207 179c150 0 228 -80 228 -237h-16c0 149 -71 221 -212 221c-117 0 -191 -64 -191 -163c0 -104 63 -137 202 -171c151 -37 229 -67 229 -199z" />
    <glyph glyph-name="Scircumflex" unicode="&#x15c;" horiz-adv-x="576" 
d="M263 886h16l120 -126h-22l-106 111l-106 -111h-22zM271 722c150 0 228 -80 228 -237h-16c0 149 -71 221 -212 221c-117 0 -191 -64 -191 -163c0 -104 63 -137 202 -171c151 -37 229 -67 229 -199c0 -113 -84 -183 -222 -183c-153 0 -237 81 -237 248h16
c0 -158 77 -232 221 -232c129 0 206 63 206 167c0 125 -75 148 -216 183c-146 36 -215 74 -215 187c0 108 81 179 207 179z" />
    <glyph glyph-name="Scommaaccent" unicode="&#x218;" horiz-adv-x="576" 
d="M271 722c150 0 228 -80 228 -237h-16c0 149 -71 221 -212 221c-117 0 -191 -64 -191 -163c0 -104 63 -137 202 -171c151 -37 229 -67 229 -199c0 -113 -84 -183 -222 -183c-153 0 -237 81 -237 248h16c0 -158 77 -232 221 -232c129 0 206 63 206 167
c0 125 -75 148 -216 183c-146 36 -215 74 -215 187c0 108 81 179 207 179zM291 -145l-30 -94h-14l28 94v66h16v-66z" />
    <glyph glyph-name="Germandbls" unicode="&#x1e9e;" horiz-adv-x="717" 
d="M608 616l-206 -206c165 -18 262 -85 262 -223c0 -128 -85 -197 -214 -197c-128 0 -199 62 -199 168h16c0 -97 64 -152 183 -152c120 0 198 62 198 181c0 132 -94 194 -265 209v16l204 204c-51 55 -130 90 -224 90c-166 0 -252 -87 -252 -260v-446h-16v446
c0 182 93 276 268 276c104 0 192 -43 245 -106z" />
    <glyph glyph-name="Tbar" unicode="&#x166;" horiz-adv-x="568" 
d="M292 696v-278h158v-16h-158v-402h-16v402h-158v16h158v278h-271v16h558v-16h-271z" />
    <glyph glyph-name="Tcaron" unicode="&#x164;" horiz-adv-x="568" 
d="M292 760h-16l-120 126h22l106 -111l106 111h22zM563 696h-271v-696h-16v696h-271v16h558v-16z" />
    <glyph glyph-name="Tcedilla" unicode="&#x162;" horiz-adv-x="568" 
d="M563 696h-271v-696h-16v696h-271v16h558v-16zM292 -145l-30 -94h-14l28 94v66h16v-66z" />
    <glyph glyph-name="Tcommaaccent" unicode="&#x21a;" horiz-adv-x="568" 
d="M563 696h-271v-696h-16v696h-271v16h558v-16zM292 -145l-30 -94h-14l28 94v66h16v-66z" />
    <glyph glyph-name="Uacute" unicode="&#xda;" horiz-adv-x="670" 
d="M298 760h-19l107 126h22zM571 712v-452c0 -179 -84 -270 -236 -270s-236 91 -236 270v452h16v-452c0 -170 77 -254 220 -254s220 84 220 254v452h16z" />
    <glyph glyph-name="Ubreve" unicode="&#x16c;" horiz-adv-x="670" 
d="M463 886h16c-8 -80 -59 -127 -144 -127s-136 47 -144 127h16c8 -72 52 -111 128 -111s120 39 128 111zM571 712v-452c0 -179 -84 -270 -236 -270s-236 91 -236 270v452h16v-452c0 -170 77 -254 220 -254s220 84 220 254v452h16z" />
    <glyph glyph-name="Ucircumflex" unicode="&#xdb;" horiz-adv-x="670" 
d="M327 886h16l120 -126h-22l-106 111l-106 -111h-22zM571 712v-452c0 -179 -84 -270 -236 -270s-236 91 -236 270v452h16v-452c0 -170 77 -254 220 -254s220 84 220 254v452h16z" />
    <glyph glyph-name="Udieresis" unicode="&#xdc;" horiz-adv-x="670" 
d="M251 779h-16v77h16v-77zM435 779h-16v77h16v-77zM571 712v-452c0 -179 -84 -270 -236 -270s-236 91 -236 270v452h16v-452c0 -170 77 -254 220 -254s220 84 220 254v452h16z" />
    <glyph glyph-name="Ugrave" unicode="&#xd9;" horiz-adv-x="670" 
d="M284 886l107 -126h-19l-110 126h22zM571 712v-452c0 -179 -84 -270 -236 -270s-236 91 -236 270v452h16v-452c0 -170 77 -254 220 -254s220 84 220 254v452h16z" />
    <glyph glyph-name="Uhungarumlaut" unicode="&#x170;" horiz-adv-x="670" 
d="M269 760h-19l122 126h24zM368 760h-19l122 126h24zM571 712v-452c0 -179 -84 -270 -236 -270s-236 91 -236 270v452h16v-452c0 -170 77 -254 220 -254s220 84 220 254v452h16z" />
    <glyph glyph-name="Umacron" unicode="&#x16a;" horiz-adv-x="670" 
d="M448 802h-226v16h226v-16zM571 712v-452c0 -179 -84 -270 -236 -270s-236 91 -236 270v452h16v-452c0 -170 77 -254 220 -254s220 84 220 254v452h16z" />
    <glyph glyph-name="Uogonek" unicode="&#x172;" horiz-adv-x="670" 
d="M571 712v-452c0 -128 -39 -194 -113 -254c-64 -52 -84 -84 -84 -122c0 -36 16 -57 55 -57c12 0 24 2 32 5v-16c-8 -3 -20 -5 -32 -5c-48 0 -71 28 -71 73c0 44 23 77 84 126v2c-30 -14 -66 -22 -107 -22c-152 0 -236 91 -236 270v452h16v-452c0 -170 77 -254 220 -254
s220 84 220 254v452h16z" />
    <glyph glyph-name="Uring" unicode="&#x16e;" horiz-adv-x="670" 
d="M335 935c46 0 84 -38 84 -84c0 -47 -38 -84 -84 -84s-84 37 -84 84c0 46 38 84 84 84zM335 919c-38 0 -68 -30 -68 -68s30 -68 68 -68s68 30 68 68s-30 68 -68 68zM571 712v-452c0 -179 -84 -270 -236 -270s-236 91 -236 270v452h16v-452c0 -170 77 -254 220 -254
s220 84 220 254v452h16z" />
    <glyph glyph-name="Utilde" unicode="&#x168;" horiz-adv-x="670" 
d="M463 876h16c-4 -53 -31 -81 -69 -81c-62 0 -95 65 -150 65c-31 0 -50 -22 -53 -65h-16c4 53 31 81 69 81c62 0 95 -65 150 -65c31 0 50 22 53 65zM571 712v-452c0 -179 -84 -270 -236 -270s-236 91 -236 270v452h16v-452c0 -170 77 -254 220 -254s220 84 220 254v452h16z
" />
    <glyph glyph-name="Wacute" unicode="&#x1e82;" horiz-adv-x="861" 
d="M394 760h-19l107 126h22zM647 0h-23l-94 339l-99 357h-1l-99 -357l-94 -339h-23l-202 712h16l98 -346l99 -349h1l97 351l95 344h25l95 -344l97 -351h1l99 349l98 346h16z" />
    <glyph glyph-name="Wcircumflex" unicode="&#x174;" horiz-adv-x="861" 
d="M423 886h16l120 -126h-22l-106 111l-106 -111h-22zM647 0h-23l-94 339l-99 357h-1l-99 -357l-94 -339h-23l-202 712h16l98 -346l99 -349h1l97 351l95 344h25l95 -344l97 -351h1l99 349l98 346h16z" />
    <glyph glyph-name="Wdieresis" unicode="&#x1e84;" horiz-adv-x="861" 
d="M347 779h-16v77h16v-77zM531 779h-16v77h16v-77zM647 0h-23l-94 339l-99 357h-1l-99 -357l-94 -339h-23l-202 712h16l98 -346l99 -349h1l97 351l95 344h25l95 -344l97 -351h1l99 349l98 346h16z" />
    <glyph glyph-name="Wgrave" unicode="&#x1e80;" horiz-adv-x="861" 
d="M380 886l107 -126h-19l-110 126h22zM647 0h-23l-94 339l-99 357h-1l-99 -357l-94 -339h-23l-202 712h16l98 -346l99 -349h1l97 351l95 344h25l95 -344l97 -351h1l99 349l98 346h16z" />
    <glyph glyph-name="Yacute" unicode="&#xdd;" horiz-adv-x="570" 
d="M248 760h-19l107 126h22zM293 318v-318h-16v318l-270 394h19l117 -171l141 -206h1l145 211l114 166h19z" />
    <glyph glyph-name="Ycircumflex" unicode="&#x176;" horiz-adv-x="570" 
d="M277 886h16l120 -126h-22l-106 111l-106 -111h-22zM293 318v-318h-16v318l-270 394h19l117 -171l141 -206h1l145 211l114 166h19z" />
    <glyph glyph-name="Ydieresis" unicode="&#x178;" horiz-adv-x="570" 
d="M201 779h-16v77h16v-77zM385 779h-16v77h16v-77zM293 318v-318h-16v318l-270 394h19l117 -171l141 -206h1l145 211l114 166h19z" />
    <glyph glyph-name="Ygrave" unicode="&#x1ef2;" horiz-adv-x="570" 
d="M234 886l107 -126h-19l-110 126h22zM293 318v-318h-16v318l-270 394h19l117 -171l141 -206h1l145 211l114 166h19z" />
    <glyph glyph-name="Zacute" unicode="&#x179;" horiz-adv-x="547" 
d="M228 760h-19l107 126h22zM508 690l-475 -673v-1h497v-16h-513v22l475 673v1h-470v16h486v-22z" />
    <glyph glyph-name="Zcaron" unicode="&#x17d;" horiz-adv-x="547" 
d="M273 760h-16l-120 126h22l106 -111l106 111h22zM508 690l-475 -673v-1h497v-16h-513v22l475 673v1h-470v16h486v-22z" />
    <glyph glyph-name="Zdotaccent" unicode="&#x17b;" horiz-adv-x="547" 
d="M273 769h-16v77h16v-77zM508 690l-475 -673v-1h497v-16h-513v22l475 673v1h-470v16h486v-22z" />
    <glyph glyph-name="J.acute.loclNLD" horiz-adv-x="303" 
d="M164 778h-17l94 138h21zM203 712v-541c0 -115 -56 -175 -149 -175c-15 0 -29 2 -39 5v16c12 -3 26 -5 39 -5c84 0 133 53 133 159v541h16z" />
    <glyph glyph-name="Ccedilla.ss01" horiz-adv-x="660" 
d="M345 722c159 0 250 -110 258 -241h-16c-9 122 -92 225 -242 225c-173 0 -282 -136 -282 -350s106 -350 275 -350c147 0 239 97 253 227h16c-15 -142 -113 -243 -269 -243c-178 0 -291 143 -291 366s116 366 298 366zM252 -207h-22l126 158h18z" />
    <glyph glyph-name="Scedilla.ss01" horiz-adv-x="576" 
d="M271 722c150 0 228 -80 228 -237h-16c0 149 -71 221 -212 221c-117 0 -191 -64 -191 -163c0 -104 63 -137 202 -171c151 -37 229 -67 229 -199c0 -113 -84 -183 -222 -183c-153 0 -237 81 -237 248h16c0 -158 77 -232 221 -232c129 0 206 63 206 167
c0 125 -75 148 -216 183c-146 36 -215 74 -215 187c0 108 81 179 207 179zM194 -207h-22l126 158h18z" />
    <glyph glyph-name="Tcedilla.ss01" horiz-adv-x="568" 
d="M563 696h-271v-696h-16v696h-271v16h558v-16zM195 -207h-22l126 158h18z" />
    <glyph glyph-name="aacute" unicode="&#xe1;" horiz-adv-x="494" 
d="M205 574h-17l94 138h21zM243 518c98 0 168 -56 168 -185v-219c0 -38 4 -86 9 -114h-16c-4 29 -7 63 -7 97c0 10 0 18 1 29h-1c-26 -84 -96 -136 -190 -136c-99 0 -166 54 -166 140c0 78 46 128 175 147c46 7 123 17 179 23v33c0 120 -63 169 -152 169
c-106 0 -159 -62 -165 -147h-16c7 98 70 163 181 163zM395 219v65c-53 -6 -133 -16 -177 -23c-122 -18 -161 -63 -161 -131c0 -77 60 -124 150 -124c63 0 108 22 139 57c37 42 49 73 49 156z" />
    <glyph glyph-name="abreve" unicode="&#x103;" horiz-adv-x="494" 
d="M364 712h16c-8 -80 -59 -127 -144 -127s-136 47 -144 127h16c8 -72 52 -111 128 -111s120 39 128 111zM243 518c98 0 168 -56 168 -185v-219c0 -38 4 -86 9 -114h-16c-4 29 -7 63 -7 97c0 10 0 18 1 29h-1c-26 -84 -96 -136 -190 -136c-99 0 -166 54 -166 140
c0 78 46 128 175 147c46 7 123 17 179 23v33c0 120 -63 169 -152 169c-106 0 -159 -62 -165 -147h-16c7 98 70 163 181 163zM395 219v65c-53 -6 -133 -16 -177 -23c-122 -18 -161 -63 -161 -131c0 -77 60 -124 150 -124c63 0 108 22 139 57c37 42 49 73 49 156z" />
    <glyph glyph-name="acircumflex" unicode="&#xe2;" horiz-adv-x="494" 
d="M342 574l-106 123l-106 -123h-21l119 138h16l119 -138h-21zM243 518c98 0 168 -56 168 -185v-219c0 -38 4 -86 9 -114h-16c-4 29 -7 63 -7 97c0 10 0 18 1 29h-1c-26 -84 -96 -136 -190 -136c-99 0 -166 54 -166 140c0 78 46 128 175 147c46 7 123 17 179 23v33
c0 120 -63 169 -152 169c-106 0 -159 -62 -165 -147h-16c7 98 70 163 181 163zM395 219v65c-53 -6 -133 -16 -177 -23c-122 -18 -161 -63 -161 -131c0 -77 60 -124 150 -124c63 0 108 22 139 57c37 42 49 73 49 156z" />
    <glyph glyph-name="adieresis" unicode="&#xe4;" horiz-adv-x="494" 
d="M152 635h-16v77h16v-77zM336 635h-16v77h16v-77zM243 518c98 0 168 -56 168 -185v-219c0 -38 4 -86 9 -114h-16c-4 29 -7 63 -7 97c0 10 0 18 1 29h-1c-26 -84 -96 -136 -190 -136c-99 0 -166 54 -166 140c0 78 46 128 175 147c46 7 123 17 179 23v33
c0 120 -63 169 -152 169c-106 0 -159 -62 -165 -147h-16c7 98 70 163 181 163zM395 219v65c-53 -6 -133 -16 -177 -23c-122 -18 -161 -63 -161 -131c0 -77 60 -124 150 -124c63 0 108 22 139 57c37 42 49 73 49 156z" />
    <glyph glyph-name="agrave" unicode="&#xe0;" horiz-adv-x="494" 
d="M191 712l94 -138h-17l-98 138h21zM243 518c98 0 168 -56 168 -185v-219c0 -38 4 -86 9 -114h-16c-4 29 -7 63 -7 97c0 10 0 18 1 29h-1c-26 -84 -96 -136 -190 -136c-99 0 -166 54 -166 140c0 78 46 128 175 147c46 7 123 17 179 23v33c0 120 -63 169 -152 169
c-106 0 -159 -62 -165 -147h-16c7 98 70 163 181 163zM395 219v65c-53 -6 -133 -16 -177 -23c-122 -18 -161 -63 -161 -131c0 -77 60 -124 150 -124c63 0 108 22 139 57c37 42 49 73 49 156z" />
    <glyph glyph-name="amacron" unicode="&#x101;" horiz-adv-x="494" 
d="M349 648h-226v16h226v-16zM243 518c98 0 168 -56 168 -185v-219c0 -38 4 -86 9 -114h-16c-4 29 -7 63 -7 97c0 10 0 18 1 29h-1c-26 -84 -96 -136 -190 -136c-99 0 -166 54 -166 140c0 78 46 128 175 147c46 7 123 17 179 23v33c0 120 -63 169 -152 169
c-106 0 -159 -62 -165 -147h-16c7 98 70 163 181 163zM395 219v65c-53 -6 -133 -16 -177 -23c-122 -18 -161 -63 -161 -131c0 -77 60 -124 150 -124c63 0 108 22 139 57c37 42 49 73 49 156z" />
    <glyph glyph-name="aogonek" unicode="&#x105;" horiz-adv-x="494" 
d="M391 -173c12 0 24 2 32 5v-16c-8 -3 -20 -5 -32 -5c-48 0 -71 26 -71 67c0 45 24 78 83 127c-3 28 -6 60 -6 92c0 10 0 18 1 29h-1c-26 -84 -96 -136 -190 -136c-99 0 -166 54 -166 140c0 78 46 128 175 147c46 7 123 17 179 23v33c0 120 -63 169 -152 169
c-106 0 -159 -62 -165 -147h-16c7 98 70 163 181 163c98 0 168 -56 168 -185v-219c0 -38 4 -86 9 -114c-64 -52 -84 -84 -84 -122c0 -32 16 -51 55 -51zM395 219v65c-53 -6 -133 -16 -177 -23c-122 -18 -161 -63 -161 -131c0 -77 60 -124 150 -124c63 0 108 22 139 57
c37 42 49 73 49 156z" />
    <glyph glyph-name="aring" unicode="&#xe5;" horiz-adv-x="494" 
d="M236 761c46 0 84 -38 84 -84c0 -47 -38 -84 -84 -84s-84 37 -84 84c0 46 38 84 84 84zM236 745c-38 0 -68 -30 -68 -68s30 -68 68 -68s68 30 68 68s-30 68 -68 68zM243 518c98 0 168 -56 168 -185v-219c0 -38 4 -86 9 -114h-16c-4 29 -7 63 -7 97c0 10 0 18 1 29h-1
c-26 -84 -96 -136 -190 -136c-99 0 -166 54 -166 140c0 78 46 128 175 147c46 7 123 17 179 23v33c0 120 -63 169 -152 169c-106 0 -159 -62 -165 -147h-16c7 98 70 163 181 163zM395 219v65c-53 -6 -133 -16 -177 -23c-122 -18 -161 -63 -161 -131c0 -77 60 -124 150 -124
c63 0 108 22 139 57c37 42 49 73 49 156z" />
    <glyph glyph-name="atilde" unicode="&#xe3;" horiz-adv-x="494" 
d="M364 702h16c-4 -53 -31 -81 -69 -81c-62 0 -95 65 -150 65c-31 0 -50 -22 -53 -65h-16c4 53 31 81 69 81c62 0 95 -65 150 -65c31 0 50 22 53 65zM243 518c98 0 168 -56 168 -185v-219c0 -38 4 -86 9 -114h-16c-4 29 -7 63 -7 97c0 10 0 18 1 29h-1
c-26 -84 -96 -136 -190 -136c-99 0 -166 54 -166 140c0 78 46 128 175 147c46 7 123 17 179 23v33c0 120 -63 169 -152 169c-106 0 -159 -62 -165 -147h-16c7 98 70 163 181 163zM395 219v65c-53 -6 -133 -16 -177 -23c-122 -18 -161 -63 -161 -131c0 -77 60 -124 150 -124
c63 0 108 22 139 57c37 42 49 73 49 156z" />
    <glyph glyph-name="ae" unicode="&#xe6;" horiz-adv-x="815" 
d="M584 6c87 0 148 57 159 143h17c-12 -97 -81 -159 -176 -159c-93 0 -160 66 -185 174h-1c-11 -111 -97 -174 -195 -174c-96 0 -162 54 -162 140c0 93 62 145 213 145h133v58c0 120 -61 169 -148 169c-95 0 -155 -62 -161 -147h-16c7 98 76 163 177 163
c87 0 151 -47 161 -154h1c25 96 88 154 175 154c100 0 171 -73 186 -184c3 -24 5 -50 5 -75h-364c0 -153 70 -253 181 -253zM576 502c-108 0 -170 -94 -173 -227h348c0 146 -74 227 -175 227zM343 67c32 39 44 73 44 152v40h-133c-142 0 -197 -45 -197 -129
c0 -77 59 -124 146 -124c57 0 109 23 140 61z" />
    <glyph glyph-name="cacute" unicode="&#x107;" horiz-adv-x="493" 
d="M229 574h-17l94 138h21zM260 518c105 0 180 -69 189 -172h-16c-8 93 -76 156 -173 156c-123 0 -196 -92 -196 -248s73 -248 196 -248c97 0 164 64 173 161h16c-9 -107 -84 -177 -189 -177c-132 0 -212 99 -212 264s80 264 212 264z" />
    <glyph glyph-name="ccaron" unicode="&#x10d;" horiz-adv-x="493" 
d="M268 574h-16l-119 138h21l106 -123l106 123h21zM260 518c105 0 180 -69 189 -172h-16c-8 93 -76 156 -173 156c-123 0 -196 -92 -196 -248s73 -248 196 -248c97 0 164 64 173 161h16c-9 -107 -84 -177 -189 -177c-132 0 -212 99 -212 264s80 264 212 264z" />
    <glyph glyph-name="ccedilla" unicode="&#xe7;" horiz-adv-x="493" 
d="M260 6c97 0 164 64 173 161h16c-8 -98 -72 -165 -163 -175l-41 -61c6 2 13 3 21 3c53 0 81 -26 81 -67c0 -43 -33 -72 -89 -72c-33 0 -61 9 -86 23l8 14c24 -14 49 -21 78 -21c47 0 73 22 73 56c0 33 -21 52 -65 52c-12 0 -24 -2 -33 -5l-11 11l44 65h-6
c-132 0 -212 99 -212 264s80 264 212 264c105 0 180 -69 189 -172h-16c-8 93 -76 156 -173 156c-123 0 -196 -92 -196 -248s73 -248 196 -248z" />
    <glyph glyph-name="ccircumflex" unicode="&#x109;" horiz-adv-x="493" 
d="M366 574l-106 123l-106 -123h-21l119 138h16l119 -138h-21zM260 518c105 0 180 -69 189 -172h-16c-8 93 -76 156 -173 156c-123 0 -196 -92 -196 -248s73 -248 196 -248c97 0 164 64 173 161h16c-9 -107 -84 -177 -189 -177c-132 0 -212 99 -212 264s80 264 212 264z" />
    <glyph glyph-name="cdotaccent" unicode="&#x10b;" horiz-adv-x="493" 
d="M268 635h-16v77h16v-77zM260 518c105 0 180 -69 189 -172h-16c-8 93 -76 156 -173 156c-123 0 -196 -92 -196 -248s73 -248 196 -248c97 0 164 64 173 161h16c-9 -107 -84 -177 -189 -177c-132 0 -212 99 -212 264s80 264 212 264z" />
    <glyph glyph-name="eth" unicode="&#xf0;" horiz-adv-x="528" 
d="M365 545c75 -93 115 -181 115 -291c0 -164 -82 -264 -217 -264c-133 0 -215 100 -215 264s82 264 215 264c58 0 110 -22 147 -62v2c-40 65 -94 124 -156 178l-127 -68l-7 14l121 65c-26 22 -53 43 -81 64l11 11c27 -19 56 -42 85 -67l120 64l7 -14l-115 -61
c39 -35 74 -71 97 -99zM263 6c126 0 201 93 201 248s-75 248 -201 248c-124 0 -199 -93 -199 -248s75 -248 199 -248z" />
    <glyph glyph-name="dcaron" unicode="&#x10f;" horiz-adv-x="545" 
d="M454 712v-712h-16v28c0 41 0 83 3 127h-1c-20 -92 -77 -165 -180 -165c-131 0 -212 100 -212 264s81 264 212 264c103 0 160 -73 180 -165h1c-3 44 -3 86 -3 127v232h16zM528 538h-14l41 174h17zM260 502c-122 0 -196 -94 -196 -248s74 -248 196 -248
c110 0 179 94 179 248s-69 248 -179 248z" />
    <glyph glyph-name="dcroat" unicode="&#x111;" horiz-adv-x="544" 
d="M509 596h-55v-596h-16v28c0 41 0 83 3 127h-1c-20 -92 -77 -165 -180 -165c-131 0 -212 100 -212 264s81 264 212 264c103 0 160 -73 180 -165h1c-3 44 -3 86 -3 127v116h-155v16h155v100h16v-100h55v-16zM260 6c110 0 179 94 179 248s-69 248 -179 248
c-122 0 -196 -94 -196 -248s74 -248 196 -248z" />
    <glyph glyph-name="eacute" unicode="&#xe9;" horiz-adv-x="515" 
d="M226 574h-17l94 138h21zM265 6c97 0 166 57 178 143h17c-14 -97 -90 -159 -195 -159c-132 0 -217 107 -217 274c0 155 82 254 209 254c110 0 186 -71 205 -184c4 -24 5 -50 5 -75h-403c0 -153 78 -253 201 -253zM257 502c-120 0 -190 -94 -193 -227h387
c0 146 -82 227 -194 227z" />
    <glyph glyph-name="ebreve" unicode="&#x115;" horiz-adv-x="515" 
d="M257 585c-85 0 -136 47 -144 127h16c8 -72 52 -111 128 -111s120 39 128 111h16c-8 -80 -59 -127 -144 -127zM265 6c97 0 166 57 178 143h17c-14 -97 -90 -159 -195 -159c-132 0 -217 107 -217 274c0 155 82 254 209 254c110 0 186 -71 205 -184c4 -24 5 -50 5 -75h-403
c0 -153 78 -253 201 -253zM257 502c-120 0 -190 -94 -193 -227h387c0 146 -82 227 -194 227z" />
    <glyph glyph-name="ecaron" unicode="&#x11b;" horiz-adv-x="515" 
d="M249 574l-119 138h21l106 -123l106 123h21l-119 -138h-16zM265 6c97 0 166 57 178 143h17c-14 -97 -90 -159 -195 -159c-132 0 -217 107 -217 274c0 155 82 254 209 254c110 0 186 -71 205 -184c4 -24 5 -50 5 -75h-403c0 -153 78 -253 201 -253zM257 502
c-120 0 -190 -94 -193 -227h387c0 146 -82 227 -194 227z" />
    <glyph glyph-name="ecircumflex" unicode="&#xea;" horiz-adv-x="515" 
d="M151 574h-21l119 138h16l119 -138h-21l-106 123zM265 6c97 0 166 57 178 143h17c-14 -97 -90 -159 -195 -159c-132 0 -217 107 -217 274c0 155 82 254 209 254c110 0 186 -71 205 -184c4 -24 5 -50 5 -75h-403c0 -153 78 -253 201 -253zM257 502
c-120 0 -190 -94 -193 -227h387c0 146 -82 227 -194 227z" />
    <glyph glyph-name="edieresis" unicode="&#xeb;" horiz-adv-x="515" 
d="M173 635h-16v77h16v-77zM357 635h-16v77h16v-77zM265 6c97 0 166 57 178 143h17c-14 -97 -90 -159 -195 -159c-132 0 -217 107 -217 274c0 155 82 254 209 254c110 0 186 -71 205 -184c4 -24 5 -50 5 -75h-403c0 -153 78 -253 201 -253zM257 502
c-120 0 -190 -94 -193 -227h387c0 146 -82 227 -194 227z" />
    <glyph glyph-name="edotaccent" unicode="&#x117;" horiz-adv-x="515" 
d="M265 635h-16v77h16v-77zM265 6c97 0 166 57 178 143h17c-14 -97 -90 -159 -195 -159c-132 0 -217 107 -217 274c0 155 82 254 209 254c110 0 186 -71 205 -184c4 -24 5 -50 5 -75h-403c0 -153 78 -253 201 -253zM257 502c-120 0 -190 -94 -193 -227h387
c0 146 -82 227 -194 227z" />
    <glyph glyph-name="egrave" unicode="&#xe8;" horiz-adv-x="515" 
d="M289 574l-98 138h21l94 -138h-17zM265 6c97 0 166 57 178 143h17c-14 -97 -90 -159 -195 -159c-132 0 -217 107 -217 274c0 155 82 254 209 254c110 0 186 -71 205 -184c4 -24 5 -50 5 -75h-403c0 -153 78 -253 201 -253zM257 502c-120 0 -190 -94 -193 -227h387
c0 146 -82 227 -194 227z" />
    <glyph glyph-name="emacron" unicode="&#x113;" horiz-adv-x="515" 
d="M370 648h-226v16h226v-16zM265 6c97 0 166 57 178 143h17c-14 -97 -90 -159 -195 -159c-132 0 -217 107 -217 274c0 155 82 254 209 254c110 0 186 -71 205 -184c4 -24 5 -50 5 -75h-403c0 -153 78 -253 201 -253zM257 502c-120 0 -190 -94 -193 -227h387
c0 146 -82 227 -194 227z" />
    <glyph glyph-name="eogonek" unicode="&#x119;" horiz-adv-x="515" 
d="M265 6c97 0 166 57 178 143h17c-9 -57 -30 -87 -73 -125c-71 -62 -93 -101 -93 -146c0 -32 16 -51 55 -51c12 0 24 2 32 5v-16c-8 -3 -20 -5 -32 -5c-48 0 -71 26 -71 67c0 45 20 80 68 126v2c-24 -11 -51 -16 -81 -16c-132 0 -217 107 -217 274c0 155 82 254 209 254
c110 0 186 -71 205 -184c4 -24 5 -50 5 -75h-403c0 -153 78 -253 201 -253zM257 502c-120 0 -190 -94 -193 -227h387c0 146 -82 227 -194 227z" />
    <glyph glyph-name="gbreve" unicode="&#x11f;" horiz-adv-x="545" 
d="M389 712h16c-8 -80 -59 -127 -144 -127s-136 47 -144 127h16c8 -72 52 -111 128 -111s120 39 128 111zM260 518c88 0 154 -55 179 -159h1c-2 50 -2 99 -2 149h16v-477c0 -143 -67 -220 -199 -220c-113 0 -188 57 -188 157h16c0 -91 68 -141 172 -141
c123 0 183 70 183 204c0 45 0 89 2 134h-1c-25 -104 -91 -159 -179 -159c-131 0 -212 98 -212 256s81 256 212 256zM260 502c-122 0 -196 -91 -196 -240s74 -240 196 -240c110 0 178 92 178 240s-68 240 -178 240z" />
    <glyph glyph-name="gcircumflex" unicode="&#x11d;" horiz-adv-x="545" 
d="M367 574l-106 123l-106 -123h-21l119 138h16l119 -138h-21zM260 518c88 0 154 -55 179 -159h1c-2 50 -2 99 -2 149h16v-477c0 -143 -67 -220 -199 -220c-113 0 -188 57 -188 157h16c0 -91 68 -141 172 -141c123 0 183 70 183 204c0 45 0 89 2 134h-1
c-25 -104 -91 -159 -179 -159c-131 0 -212 98 -212 256s81 256 212 256zM260 502c-122 0 -196 -91 -196 -240s74 -240 196 -240c110 0 178 92 178 240s-68 240 -178 240z" />
    <glyph glyph-name="gcommaaccent" unicode="&#x123;" horiz-adv-x="545" 
d="M255 653v-66h-16v66l30 94h14zM260 518c88 0 154 -55 179 -159h1c-2 50 -2 99 -2 149h16v-477c0 -143 -67 -220 -199 -220c-113 0 -188 57 -188 157h16c0 -91 68 -141 172 -141c123 0 183 70 183 204c0 45 0 89 2 134h-1c-25 -104 -91 -159 -179 -159
c-131 0 -212 98 -212 256s81 256 212 256zM260 502c-122 0 -196 -91 -196 -240s74 -240 196 -240c110 0 178 92 178 240s-68 240 -178 240z" />
    <glyph glyph-name="gdotaccent" unicode="&#x121;" horiz-adv-x="545" 
d="M269 635h-16v77h16v-77zM260 518c88 0 154 -55 179 -159h1c-2 50 -2 99 -2 149h16v-477c0 -143 -67 -220 -199 -220c-113 0 -188 57 -188 157h16c0 -91 68 -141 172 -141c123 0 183 70 183 204c0 45 0 89 2 134h-1c-25 -104 -91 -159 -179 -159c-131 0 -212 98 -212 256
s81 256 212 256zM260 502c-122 0 -196 -91 -196 -240s74 -240 196 -240c110 0 178 92 178 240s-68 240 -178 240z" />
    <glyph glyph-name="hbar" unicode="&#x127;" 
d="M282 518c106 0 172 -69 172 -209v-309h-16v309c0 131 -59 193 -156 193c-94 0 -175 -76 -175 -184v-318h-16v596h-56v16h56v100h16v-100h154v-16h-154v-88c0 -42 0 -83 -3 -126h1c22 77 87 136 177 136z" />
    <glyph glyph-name="hcircumflex" unicode="&#x125;" 
d="M260 886h16l120 -126h-22l-106 111l-106 -111h-22zM107 712v-204c0 -42 0 -83 -3 -126h1c22 77 87 136 177 136c106 0 172 -69 172 -209v-309h-16v309c0 131 -59 193 -156 193c-94 0 -175 -76 -175 -184v-318h-16v712h16z" />
    <glyph glyph-name="dotlessi" unicode="&#x131;" horiz-adv-x="198" 
d="M107 0h-16v508h16v-508z" />
    <glyph glyph-name="iacute" unicode="&#xed;" horiz-adv-x="198" 
d="M68 574h-17l94 138h21zM107 0h-16v508h16v-508z" />
    <glyph glyph-name="ibreve" unicode="&#x12d;" horiz-adv-x="198" 
d="M201 712h16c-6 -80 -48 -127 -118 -127s-111 47 -118 127h16c7 -72 41 -111 102 -111s95 39 102 111zM107 0h-16v508h16v-508z" />
    <glyph glyph-name="icircumflex" unicode="&#xee;" horiz-adv-x="198" 
d="M204 575h-20l-85 122l-86 -122h-20l97 137h17zM107 0h-16v508h16v-508z" />
    <glyph glyph-name="idieresis" unicode="&#xef;" horiz-adv-x="198" 
d="M35 643h-16v69h16v-69zM179 643h-16v69h16v-69zM107 0h-16v508h16v-508z" />
    <glyph glyph-name="idotaccent" horiz-adv-x="198" 
d="M107 635h-16v77h16v-77zM107 0h-16v508h16v-508z" />
    <glyph glyph-name="igrave" unicode="&#xec;" horiz-adv-x="198" 
d="M54 712l94 -138h-17l-98 138h21zM107 0h-16v508h16v-508z" />
    <glyph glyph-name="ij" unicode="&#x133;" horiz-adv-x="407" 
d="M107 635h-16v77h16v-77zM316 635h-16v77h16v-77zM107 0h-16v508h16v-508zM316 508v-556c0 -106 -42 -139 -109 -139c-7 0 -14 1 -18 2v16c4 -1 11 -2 18 -2c58 0 93 26 93 123v556h16z" />
    <glyph glyph-name="imacron" unicode="&#x12b;" horiz-adv-x="198" 
d="M192 648h-186v16h186v-16zM107 0h-16v508h16v-508z" />
    <glyph glyph-name="iogonek" unicode="&#x12f;" horiz-adv-x="198" 
d="M107 635h-16v77h16v-77zM78 -173c12 0 24 2 32 5v-16c-8 -3 -20 -5 -32 -5c-48 0 -71 26 -71 67c0 45 24 78 84 128v502h16v-508c-64 -52 -84 -84 -84 -122c0 -32 16 -51 55 -51z" />
    <glyph glyph-name="itilde" unicode="&#x129;" horiz-adv-x="198" 
d="M207 702h16c-3 -53 -28 -81 -63 -81c-52 0 -79 65 -123 65c-28 0 -44 -22 -47 -65h-16c3 53 28 81 63 81c52 0 79 -65 123 -65c28 0 44 22 47 65zM107 0h-16v508h16v-508z" />
    <glyph glyph-name="dotlessj" unicode="&#x237;" horiz-adv-x="209" 
d="M118 508v-556c0 -106 -42 -139 -109 -139c-7 0 -14 1 -18 2v16c4 -1 11 -2 18 -2c58 0 93 26 93 123v556h16z" />
    <glyph glyph-name="jcircumflex" unicode="&#x135;" horiz-adv-x="209" 
d="M215 575h-20l-85 122l-86 -122h-20l97 137h17zM118 508v-556c0 -106 -42 -139 -109 -139c-7 0 -14 1 -18 2v16c4 -1 11 -2 18 -2c58 0 93 26 93 123v556h16z" />
    <glyph glyph-name="kcommaaccent" unicode="&#x137;" horiz-adv-x="439" 
d="M443 0h-24l-311 271h-1v-271h-16v712h16v-430h1l281 226h25l-288 -232zM240 -79h16v-66l-30 -94h-14l28 94v66z" />
    <glyph glyph-name="kgreenlandic" unicode="&#x138;" horiz-adv-x="453" 
d="M443 0h-24l-311 271h-1v-271h-16v508h16v-226h1l281 226h25l-288 -232z" />
    <glyph glyph-name="lacute" unicode="&#x13a;" horiz-adv-x="198" 
d="M106 778h-17l94 138h21zM107 0h-16v712h16v-712z" />
    <glyph glyph-name="lcaron" unicode="&#x13e;" horiz-adv-x="198" 
d="M107 0h-16v712h16v-712zM181 538h-14l41 174h17z" />
    <glyph glyph-name="lcommaaccent" unicode="&#x13c;" horiz-adv-x="198" 
d="M107 0h-16v712h16v-712zM107 -145l-30 -94h-14l28 94v66h16v-66z" />
    <glyph glyph-name="ldot" unicode="&#x140;" horiz-adv-x="304" 
d="M107 0h-16v712h16v-712zM260 318h-18v72h18v-72z" />
    <glyph glyph-name="lslash" unicode="&#x142;" horiz-adv-x="236" 
d="M226 466l-100 -60v-406h-16v398l-100 -60v18l100 60v296h16v-288l100 60v-18z" />
    <glyph glyph-name="nacute" unicode="&#x144;" 
d="M238 574h-17l94 138h21zM282 518c106 0 172 -69 172 -209v-309h-16v309c0 131 -59 193 -156 193c-94 0 -175 -76 -175 -184v-318h-16v508h16c0 -42 0 -83 -3 -126h1c22 77 87 136 177 136z" />
    <glyph glyph-name="napostrophe" unicode="&#x149;" horiz-adv-x="578" 
d="M96 641l-35 -127h-14l33 127v71h16v-71zM322 518c106 0 172 -69 172 -209v-309h-16v309c0 131 -59 193 -156 193c-94 0 -175 -76 -175 -184v-318h-16v508h16c0 -42 0 -83 -3 -126h1c22 77 87 136 177 136z" />
    <glyph glyph-name="ncaron" unicode="&#x148;" 
d="M277 574h-16l-119 138h21l106 -123l106 123h21zM282 518c106 0 172 -69 172 -209v-309h-16v309c0 131 -59 193 -156 193c-94 0 -175 -76 -175 -184v-318h-16v508h16c0 -42 0 -83 -3 -126h1c22 77 87 136 177 136z" />
    <glyph glyph-name="ncommaaccent" unicode="&#x146;" 
d="M282 518c106 0 172 -69 172 -209v-309h-16v309c0 131 -59 193 -156 193c-94 0 -175 -76 -175 -184v-318h-16v508h16c0 -42 0 -83 -3 -126h1c22 77 87 136 177 136zM277 -145l-30 -94h-14l28 94v66h16v-66z" />
    <glyph glyph-name="eng" unicode="&#x14b;" 
d="M282 518c56 0 96 -19 127 -54c33 -38 45 -84 45 -163v-349c0 -106 -42 -139 -109 -139c-7 0 -14 1 -18 2v16c4 -1 11 -2 18 -2c58 0 93 26 93 123v349c0 77 -12 119 -41 152c-28 32 -64 49 -115 49c-94 0 -175 -76 -175 -184v-318h-16v508h16c0 -42 0 -83 -3 -126h1
c22 77 87 136 177 136z" />
    <glyph glyph-name="ntilde" unicode="&#xf1;" 
d="M397 702h16c-4 -53 -31 -81 -69 -81c-62 0 -95 65 -150 65c-31 0 -50 -22 -53 -65h-16c4 53 31 81 69 81c62 0 95 -65 150 -65c31 0 50 22 53 65zM282 518c106 0 172 -69 172 -209v-309h-16v309c0 131 -59 193 -156 193c-94 0 -175 -76 -175 -184v-318h-16v508h16
c0 -42 0 -83 -3 -126h1c22 77 87 136 177 136z" />
    <glyph glyph-name="oacute" unicode="&#xf3;" horiz-adv-x="528" 
d="M233 574h-17l94 138h21zM264 518c134 0 216 -100 216 -264s-82 -264 -216 -264s-216 100 -216 264s82 264 216 264zM264 502c-125 0 -200 -93 -200 -248s75 -248 200 -248s200 93 200 248s-75 248 -200 248z" />
    <glyph glyph-name="obreve" unicode="&#x14f;" horiz-adv-x="528" 
d="M392 712h16c-8 -80 -59 -127 -144 -127s-136 47 -144 127h16c8 -72 52 -111 128 -111s120 39 128 111zM264 518c134 0 216 -100 216 -264s-82 -264 -216 -264s-216 100 -216 264s82 264 216 264zM264 502c-125 0 -200 -93 -200 -248s75 -248 200 -248s200 93 200 248
s-75 248 -200 248z" />
    <glyph glyph-name="ocircumflex" unicode="&#xf4;" horiz-adv-x="528" 
d="M370 574l-106 123l-106 -123h-21l119 138h16l119 -138h-21zM264 518c134 0 216 -100 216 -264s-82 -264 -216 -264s-216 100 -216 264s82 264 216 264zM264 502c-125 0 -200 -93 -200 -248s75 -248 200 -248s200 93 200 248s-75 248 -200 248z" />
    <glyph glyph-name="odieresis" unicode="&#xf6;" horiz-adv-x="528" 
d="M180 635h-16v77h16v-77zM364 635h-16v77h16v-77zM264 518c134 0 216 -100 216 -264s-82 -264 -216 -264s-216 100 -216 264s82 264 216 264zM264 502c-125 0 -200 -93 -200 -248s75 -248 200 -248s200 93 200 248s-75 248 -200 248z" />
    <glyph glyph-name="ograve" unicode="&#xf2;" horiz-adv-x="528" 
d="M219 712l94 -138h-17l-98 138h21zM264 518c134 0 216 -100 216 -264s-82 -264 -216 -264s-216 100 -216 264s82 264 216 264zM264 502c-125 0 -200 -93 -200 -248s75 -248 200 -248s200 93 200 248s-75 248 -200 248z" />
    <glyph glyph-name="ohungarumlaut" unicode="&#x151;" horiz-adv-x="528" 
d="M198 574h-19l122 138h24zM297 574h-19l122 138h24zM264 518c134 0 216 -100 216 -264s-82 -264 -216 -264s-216 100 -216 264s82 264 216 264zM264 502c-125 0 -200 -93 -200 -248s75 -248 200 -248s200 93 200 248s-75 248 -200 248z" />
    <glyph glyph-name="omacron" unicode="&#x14d;" horiz-adv-x="528" 
d="M377 648h-226v16h226v-16zM264 518c134 0 216 -100 216 -264s-82 -264 -216 -264s-216 100 -216 264s82 264 216 264zM264 502c-125 0 -200 -93 -200 -248s75 -248 200 -248s200 93 200 248s-75 248 -200 248z" />
    <glyph glyph-name="oslash" unicode="&#xf8;" horiz-adv-x="528" 
d="M476 520l-55 -72c38 -45 59 -112 59 -194c0 -164 -82 -264 -217 -264c-61 0 -111 21 -147 59l-53 -70l-12 9l55 73c-38 45 -58 111 -58 193c0 164 82 264 215 264c61 0 111 -21 148 -58l53 69zM263 502c-124 0 -199 -93 -199 -248c0 -77 18 -138 52 -181l286 374
c-34 36 -81 55 -139 55zM263 6c126 0 201 93 201 248c0 77 -18 138 -52 181l-286 -373c34 -36 80 -56 137 -56z" />
    <glyph glyph-name="otilde" unicode="&#xf5;" horiz-adv-x="528" 
d="M392 702h16c-4 -53 -31 -81 -69 -81c-62 0 -95 65 -150 65c-31 0 -50 -22 -53 -65h-16c4 53 31 81 69 81c62 0 95 -65 150 -65c31 0 50 22 53 65zM264 518c134 0 216 -100 216 -264s-82 -264 -216 -264s-216 100 -216 264s82 264 216 264zM264 502
c-125 0 -200 -93 -200 -248s75 -248 200 -248s200 93 200 248s-75 248 -200 248z" />
    <glyph glyph-name="oe" unicode="&#x153;" horiz-adv-x="852" 
d="M621 6c87 0 148 57 159 143h17c-12 -97 -81 -159 -176 -159c-97 0 -166 72 -188 189h-1c-19 -119 -88 -189 -189 -189c-121 0 -195 100 -195 264s74 264 195 264c98 0 166 -66 187 -179h2c20 111 87 179 181 179c100 0 171 -73 186 -184c3 -24 5 -50 5 -75h-364
c0 -153 70 -253 181 -253zM243 6c112 0 181 94 181 248s-69 248 -181 248c-111 0 -179 -94 -179 -248s68 -248 179 -248zM613 502c-108 0 -170 -94 -173 -227h348c0 146 -74 227 -175 227z" />
    <glyph glyph-name="thorn" unicode="&#xfe;" horiz-adv-x="545" 
d="M107 712v-232c0 -41 0 -83 -3 -127h1c20 92 77 165 180 165c131 0 212 -100 212 -264s-81 -264 -212 -264c-103 0 -160 73 -180 165h-1c3 -44 3 -86 3 -127v-213h-16v897h16zM285 502c-110 0 -179 -94 -179 -248s69 -248 179 -248c122 0 196 94 196 248s-74 248 -196 248
z" />
    <glyph glyph-name="racute" unicode="&#x155;" horiz-adv-x="319" 
d="M160 574h-17l94 138h21zM277 510c9 0 20 -1 28 -2v-16c-8 1 -19 2 -28 2c-98 0 -170 -64 -170 -201v-293h-16v508h16c0 -44 0 -87 -3 -133h1c24 91 87 135 172 135z" />
    <glyph glyph-name="rcaron" unicode="&#x159;" horiz-adv-x="319" 
d="M199 574h-16l-119 138h21l106 -123l106 123h21zM277 510c9 0 20 -1 28 -2v-16c-8 1 -19 2 -28 2c-98 0 -170 -64 -170 -201v-293h-16v508h16c0 -44 0 -87 -3 -133h1c24 91 87 135 172 135z" />
    <glyph glyph-name="rcommaaccent" unicode="&#x157;" horiz-adv-x="319" 
d="M277 510c9 0 20 -1 28 -2v-16c-8 1 -19 2 -28 2c-98 0 -170 -64 -170 -201v-293h-16v508h16c0 -44 0 -87 -3 -133h1c24 91 87 135 172 135zM107 -145l-30 -94h-14l28 94v66h16v-66z" />
    <glyph glyph-name="sacute" unicode="&#x15b;" horiz-adv-x="447" 
d="M184 574h-17l94 138h21zM215 518c107 0 171 -67 171 -174h-16c0 98 -58 158 -155 158c-82 0 -144 -45 -144 -117c0 -73 47 -92 145 -113c130 -28 185 -54 185 -144c0 -81 -71 -138 -168 -138c-120 0 -189 69 -189 184h16c0 -106 62 -168 173 -168c88 0 152 50 152 122
c0 81 -51 102 -172 128c-103 22 -158 46 -158 129c0 81 69 133 160 133z" />
    <glyph glyph-name="scaron" unicode="&#x161;" horiz-adv-x="447" 
d="M223 574h-16l-119 138h21l106 -123l106 123h21zM215 518c107 0 171 -67 171 -174h-16c0 98 -58 158 -155 158c-82 0 -144 -45 -144 -117c0 -73 47 -92 145 -113c130 -28 185 -54 185 -144c0 -81 -71 -138 -168 -138c-120 0 -189 69 -189 184h16c0 -106 62 -168 173 -168
c88 0 152 50 152 122c0 81 -51 102 -172 128c-103 22 -158 46 -158 129c0 81 69 133 160 133z" />
    <glyph glyph-name="scedilla" unicode="&#x15f;" horiz-adv-x="447" 
d="M401 128c0 -77 -64 -132 -152 -138l-41 -59c6 2 13 3 21 3c53 0 81 -26 81 -67c0 -43 -33 -72 -89 -72c-33 0 -61 9 -86 23l8 14c24 -14 49 -21 78 -21c47 0 73 22 73 56c0 33 -21 52 -65 52c-12 0 -24 -2 -33 -5l-11 11l44 65c-117 1 -185 70 -185 184h16
c0 -106 62 -168 173 -168c88 0 152 50 152 122c0 81 -51 102 -172 128c-103 22 -158 46 -158 129c0 81 69 133 160 133c107 0 171 -67 171 -174h-16c0 98 -58 158 -155 158c-82 0 -144 -45 -144 -117c0 -73 47 -92 145 -113c130 -28 185 -54 185 -144z" />
    <glyph glyph-name="scircumflex" unicode="&#x15d;" horiz-adv-x="447" 
d="M321 574l-106 123l-106 -123h-21l119 138h16l119 -138h-21zM215 518c107 0 171 -67 171 -174h-16c0 98 -58 158 -155 158c-82 0 -144 -45 -144 -117c0 -73 47 -92 145 -113c130 -28 185 -54 185 -144c0 -81 -71 -138 -168 -138c-120 0 -189 69 -189 184h16
c0 -106 62 -168 173 -168c88 0 152 50 152 122c0 81 -51 102 -172 128c-103 22 -158 46 -158 129c0 81 69 133 160 133z" />
    <glyph glyph-name="scommaaccent" unicode="&#x219;" horiz-adv-x="447" 
d="M215 518c107 0 171 -67 171 -174h-16c0 98 -58 158 -155 158c-82 0 -144 -45 -144 -117c0 -73 47 -92 145 -113c130 -28 185 -54 185 -144c0 -81 -71 -138 -168 -138c-120 0 -189 69 -189 184h16c0 -106 62 -168 173 -168c88 0 152 50 152 122c0 81 -51 102 -172 128
c-103 22 -158 46 -158 129c0 81 69 133 160 133zM231 -145l-30 -94h-14l28 94v66h16v-66z" />
    <glyph glyph-name="germandbls" unicode="&#xdf;" horiz-adv-x="529" 
d="M271 722c108 0 177 -67 177 -166c0 -85 -46 -135 -127 -151v-1c87 -11 162 -73 162 -199c0 -132 -85 -211 -232 -211c-22 0 -40 2 -58 7v17c18 -6 36 -8 58 -8c139 0 216 72 216 195c0 121 -77 191 -192 191h-16v16c122 0 173 61 173 144c0 90 -62 150 -161 150
c-107 0 -164 -73 -164 -198v-508h-16v508c0 134 64 214 180 214z" />
    <glyph glyph-name="longs" unicode="&#x17f;" horiz-adv-x="251" 
d="M210 715c9 0 18 -1 26 -3v-16c-7 2 -17 3 -26 3c-55 0 -83 -33 -83 -105v-594h-16v492h-96v16h96v86c0 81 35 121 99 121z" />
    <glyph glyph-name="tbar" unicode="&#x167;" horiz-adv-x="270" 
d="M203 14c11 0 26 2 35 4v-16c-9 -2 -24 -4 -35 -4c-64 0 -92 35 -92 116v158h-95v16h95v204h-97v16h97v117h16v-117h106v-16h-106v-204h104v-16h-104v-158c0 -72 21 -100 76 -100z" />
    <glyph glyph-name="tcaron" unicode="&#x165;" horiz-adv-x="270" 
d="M201 538h-14l41 174h17zM127 492v-378c0 -72 21 -100 76 -100c11 0 26 2 35 4v-16c-9 -2 -24 -4 -35 -4c-64 0 -92 35 -92 116v378h-97v16h97v117h16v-117h106v-16h-106z" />
    <glyph glyph-name="tcedilla" unicode="&#x163;" horiz-adv-x="270" 
d="M203 14c11 0 26 2 35 4v-16c-9 -2 -24 -4 -35 -4c-64 0 -92 35 -92 116v378h-97v16h97v117h16v-117h106v-16h-106v-378c0 -72 21 -100 76 -100zM145 -79h16v-66l-30 -94h-14l28 94v66z" />
    <glyph glyph-name="tcommaaccent" unicode="&#x21b;" horiz-adv-x="270" 
d="M203 14c11 0 26 2 35 4v-16c-9 -2 -24 -4 -35 -4c-64 0 -92 35 -92 116v378h-97v16h97v117h16v-117h106v-16h-106v-378c0 -72 21 -100 76 -100zM145 -79h16v-66l-30 -94h-14l28 94v66z" />
    <glyph glyph-name="uacute" unicode="&#xfa;" 
d="M238 574h-17l94 138h21zM256 -10c-106 0 -172 69 -172 209v309h16v-309c0 -131 59 -193 156 -193c94 0 175 76 175 184v318h16v-508h-16v111h-1c-30 -76 -97 -121 -174 -121z" />
    <glyph glyph-name="ubreve" unicode="&#x16d;" 
d="M397 712h16c-8 -80 -59 -127 -144 -127s-136 47 -144 127h16c8 -72 52 -111 128 -111s120 39 128 111zM256 -10c-106 0 -172 69 -172 209v309h16v-309c0 -131 59 -193 156 -193c94 0 175 76 175 184v318h16v-508h-16v111h-1c-30 -76 -97 -121 -174 -121z" />
    <glyph glyph-name="ucircumflex" unicode="&#xfb;" 
d="M375 574l-106 123l-106 -123h-21l119 138h16l119 -138h-21zM256 -10c-106 0 -172 69 -172 209v309h16v-309c0 -131 59 -193 156 -193c94 0 175 76 175 184v318h16v-508h-16v111h-1c-30 -76 -97 -121 -174 -121z" />
    <glyph glyph-name="udieresis" unicode="&#xfc;" 
d="M185 635h-16v77h16v-77zM369 635h-16v77h16v-77zM256 -10c-106 0 -172 69 -172 209v309h16v-309c0 -131 59 -193 156 -193c94 0 175 76 175 184v318h16v-508h-16v111h-1c-30 -76 -97 -121 -174 -121z" />
    <glyph glyph-name="ugrave" unicode="&#xf9;" 
d="M224 712l94 -138h-17l-98 138h21zM256 -10c-106 0 -172 69 -172 209v309h16v-309c0 -131 59 -193 156 -193c94 0 175 76 175 184v318h16v-508h-16v111h-1c-30 -76 -97 -121 -174 -121z" />
    <glyph glyph-name="uhungarumlaut" unicode="&#x171;" 
d="M203 574h-19l122 138h24zM302 574h-19l122 138h24zM256 -10c-106 0 -172 69 -172 209v309h16v-309c0 -131 59 -193 156 -193c94 0 175 76 175 184v318h16v-508h-16v111h-1c-30 -76 -97 -121 -174 -121z" />
    <glyph glyph-name="umacron" unicode="&#x16b;" 
d="M382 648h-226v16h226v-16zM256 -10c-106 0 -172 69 -172 209v309h16v-309c0 -131 59 -193 156 -193c94 0 175 76 175 184v318h16v-508h-16v111h-1c-30 -76 -97 -121 -174 -121z" />
    <glyph glyph-name="uogonek" unicode="&#x173;" 
d="M418 -173c12 0 24 2 32 5v-16c-8 -3 -20 -5 -32 -5c-48 0 -71 26 -71 67c0 45 24 78 84 128v105h-1c-30 -76 -97 -121 -174 -121c-106 0 -172 69 -172 209v309h16v-309c0 -131 59 -193 156 -193c94 0 175 76 175 184v318h16v-508c-64 -52 -84 -84 -84 -122
c0 -32 16 -51 55 -51z" />
    <glyph glyph-name="uring" unicode="&#x16f;" 
d="M269 761c46 0 84 -38 84 -84c0 -47 -38 -84 -84 -84s-84 37 -84 84c0 46 38 84 84 84zM269 745c-38 0 -68 -30 -68 -68s30 -68 68 -68s68 30 68 68s-30 68 -68 68zM256 -10c-106 0 -172 69 -172 209v309h16v-309c0 -131 59 -193 156 -193c94 0 175 76 175 184v318h16
v-508h-16v111h-1c-30 -76 -97 -121 -174 -121z" />
    <glyph glyph-name="utilde" unicode="&#x169;" 
d="M397 702h16c-4 -53 -31 -81 -69 -81c-62 0 -95 65 -150 65c-31 0 -50 -22 -53 -65h-16c4 53 31 81 69 81c62 0 95 -65 150 -65c31 0 50 22 53 65zM256 -10c-106 0 -172 69 -172 209v309h16v-309c0 -131 59 -193 156 -193c94 0 175 76 175 184v318h16v-508h-16v111h-1
c-30 -76 -97 -121 -174 -121z" />
    <glyph glyph-name="wacute" unicode="&#x1e83;" horiz-adv-x="742" 
d="M340 574h-17l94 138h21zM562 0h-24l-89 264l-77 229h-2l-77 -229l-89 -264h-24l-170 508h16l83 -247l82 -245h2l84 249l82 243h24l82 -243l84 -249h2l82 245l83 247h16z" />
    <glyph glyph-name="wcircumflex" unicode="&#x175;" horiz-adv-x="742" 
d="M477 574l-106 123l-106 -123h-21l119 138h16l119 -138h-21zM562 0h-24l-89 264l-77 229h-2l-77 -229l-89 -264h-24l-170 508h16l83 -247l82 -245h2l84 249l82 243h24l82 -243l84 -249h2l82 245l83 247h16z" />
    <glyph glyph-name="wdieresis" unicode="&#x1e85;" horiz-adv-x="742" 
d="M287 635h-16v77h16v-77zM471 635h-16v77h16v-77zM562 0h-24l-89 264l-77 229h-2l-77 -229l-89 -264h-24l-170 508h16l83 -247l82 -245h2l84 249l82 243h24l82 -243l84 -249h2l82 245l83 247h16z" />
    <glyph glyph-name="wgrave" unicode="&#x1e81;" horiz-adv-x="742" 
d="M326 712l94 -138h-17l-98 138h21zM562 0h-24l-89 264l-77 229h-2l-77 -229l-89 -264h-24l-170 508h16l83 -247l82 -245h2l84 249l82 243h24l82 -243l84 -249h2l82 245l83 247h16z" />
    <glyph glyph-name="yacute" unicode="&#xfd;" horiz-adv-x="431" 
d="M185 574h-17l94 138h21zM429 508l-211 -514c-61 -150 -101 -183 -172 -183c-18 0 -30 2 -41 7v16c11 -5 23 -7 41 -7c62 0 98 27 157 172l-201 509h17l192 -486h1l200 486h17z" />
    <glyph glyph-name="ycircumflex" unicode="&#x177;" horiz-adv-x="431" 
d="M322 574l-106 123l-106 -123h-21l119 138h16l119 -138h-21zM429 508l-211 -514c-61 -150 -101 -183 -172 -183c-18 0 -30 2 -41 7v16c11 -5 23 -7 41 -7c62 0 98 27 157 172l-201 509h17l192 -486h1l200 486h17z" />
    <glyph glyph-name="ydieresis" unicode="&#xff;" horiz-adv-x="431" 
d="M132 635h-16v77h16v-77zM316 635h-16v77h16v-77zM429 508l-211 -514c-61 -150 -101 -183 -172 -183c-18 0 -30 2 -41 7v16c11 -5 23 -7 41 -7c62 0 98 27 157 172l-201 509h17l192 -486h1l200 486h17z" />
    <glyph glyph-name="ygrave" unicode="&#x1ef3;" horiz-adv-x="431" 
d="M171 712l94 -138h-17l-98 138h21zM429 508l-211 -514c-61 -150 -101 -183 -172 -183c-18 0 -30 2 -41 7v16c11 -5 23 -7 41 -7c62 0 98 27 157 172l-201 509h17l192 -486h1l200 486h17z" />
    <glyph glyph-name="zacute" unicode="&#x17a;" horiz-adv-x="441" 
d="M190 574h-17l94 138h21zM411 484l-375 -466v-2h385v-16h-401v24l375 466v2h-365v16h381v-24z" />
    <glyph glyph-name="zcaron" unicode="&#x17e;" horiz-adv-x="441" 
d="M229 574h-16l-119 138h21l106 -123l106 123h21zM411 484l-375 -466v-2h385v-16h-401v24l375 466v2h-365v16h381v-24z" />
    <glyph glyph-name="zdotaccent" unicode="&#x17c;" horiz-adv-x="441" 
d="M229 635h-16v77h16v-77zM411 484l-375 -466v-2h385v-16h-401v24l375 466v2h-365v16h381v-24z" />
    <glyph glyph-name="j.acute.loclNLD" horiz-adv-x="209" 
d="M79 574h-17l94 138h21zM118 508v-556c0 -106 -42 -139 -109 -139c-7 0 -14 1 -18 2v16c4 -1 11 -2 18 -2c58 0 93 26 93 123v556h16z" />
    <glyph glyph-name="ccedilla.ss01" horiz-adv-x="493" 
d="M260 518c105 0 180 -69 189 -172h-16c-8 93 -76 156 -173 156c-123 0 -196 -92 -196 -248s73 -248 196 -248c97 0 164 64 173 161h16c-9 -107 -84 -177 -189 -177c-132 0 -212 99 -212 264s80 264 212 264zM171 -207h-22l126 158h18z" />
    <glyph glyph-name="scedilla.ss01" horiz-adv-x="447" 
d="M215 518c107 0 171 -67 171 -174h-16c0 98 -58 158 -155 158c-82 0 -144 -45 -144 -117c0 -73 47 -92 145 -113c130 -28 185 -54 185 -144c0 -81 -71 -138 -168 -138c-120 0 -189 69 -189 184h16c0 -106 62 -168 173 -168c88 0 152 50 152 122c0 81 -51 102 -172 128
c-103 22 -158 46 -158 129c0 81 69 133 160 133zM134 -207h-22l126 158h18z" />
    <glyph glyph-name="tcedilla.ss01" horiz-adv-x="270" 
d="M203 14c11 0 26 2 35 4v-16c-9 -2 -24 -4 -35 -4c-64 0 -92 35 -92 116v378h-97v16h97v117h16v-117h106v-16h-106v-378c0 -72 21 -100 76 -100zM168 -49h18l-122 -158h-22z" />
    <glyph glyph-name="a.sups" horiz-adv-x="358" 
d="M176 693c72 0 123 -40 123 -131v-154c0 -27 3 -59 7 -78h-16c-3 19 -6 49 -6 74h-1c-23 -49 -68 -81 -134 -81c-71 0 -120 39 -120 99c0 55 34 90 128 104c33 5 87 11 126 15v22c0 82 -44 115 -107 115c-73 0 -110 -42 -115 -99h-16c5 68 51 114 131 114zM283 483v43
c-37 -4 -92 -10 -124 -15c-85 -13 -113 -43 -113 -89c0 -52 42 -84 104 -84c44 0 76 15 98 39c26 29 35 50 35 106z" />
    <glyph glyph-name="b.sups" horiz-adv-x="393" 
d="M80 828v-142c0 -34 0 -69 -3 -103h1c16 70 63 110 129 110c94 0 152 -71 152 -185c0 -115 -58 -185 -152 -185c-66 0 -113 40 -129 110h-1c3 -34 3 -69 3 -103h-16v498h16zM206 678c-78 0 -126 -65 -126 -170s48 -170 126 -170c85 0 137 65 137 170s-52 170 -137 170z
" />
    <glyph glyph-name="c.sups" horiz-adv-x="357" 
d="M188 693c78 0 132 -51 138 -122h-16c-6 62 -53 106 -122 106c-87 0 -138 -63 -138 -169c0 -107 51 -170 138 -170c68 0 116 45 122 110h16c-6 -75 -61 -125 -138 -125c-96 0 -154 69 -154 185c0 115 58 185 154 185z" />
    <glyph glyph-name="d.sups" horiz-adv-x="393" 
d="M329 828v-498h-16v90h-1c-19 -61 -63 -97 -126 -97c-94 0 -152 70 -152 185c0 114 58 185 152 185c63 0 107 -36 126 -97h1v232h16zM187 678c-85 0 -137 -65 -137 -170s52 -170 137 -170c78 0 126 65 126 170s-48 170 -126 170z" />
    <glyph glyph-name="e.sups" horiz-adv-x="373" 
d="M192 339c68 0 117 38 126 96h16c-10 -67 -64 -112 -142 -112c-97 0 -158 75 -158 192c0 108 59 178 152 178c80 0 135 -50 149 -129c3 -17 4 -36 4 -55h-289c2 -105 57 -170 142 -170zM186 677c-84 0 -134 -63 -136 -153h273c-1 99 -58 153 -137 153z" />
    <glyph glyph-name="egrave.sups" horiz-adv-x="373" 
d="M203 732l-81 96h22l77 -96h-18zM192 339c68 0 117 38 126 96h16c-10 -67 -64 -112 -142 -112c-97 0 -158 75 -158 192c0 108 59 178 152 178c80 0 135 -50 149 -129c3 -17 4 -36 4 -55h-289c2 -105 57 -170 142 -170zM186 677c-84 0 -134 -63 -136 -153h273
c-1 99 -58 153 -137 153z" />
    <glyph glyph-name="f.sups" horiz-adv-x="185" 
d="M153 815c-38 0 -57 -22 -57 -71v-58h77v-16h-77v-340h-16v340h-69v16h69v58c0 58 26 87 73 87c8 0 15 -1 21 -3v-16c-6 2 -13 3 -21 3z" />
    <glyph glyph-name="g.sups" horiz-adv-x="394" 
d="M187 693c63 0 110 -38 129 -105h1c-3 32 -3 66 -3 98h16v-334c0 -101 -49 -155 -145 -155c-83 0 -137 41 -137 111h16c0 -61 47 -96 121 -96c87 0 129 48 129 140c0 29 0 57 3 87h-1c-20 -68 -66 -104 -129 -104c-94 0 -153 69 -153 179s59 179 153 179zM187 677
c-85 0 -137 -62 -137 -163s52 -163 137 -163c79 0 127 61 127 163c0 101 -48 163 -127 163z" />
    <glyph glyph-name="h.sups" horiz-adv-x="388" 
d="M204 693c78 0 125 -49 125 -147v-216h-16v216c0 89 -40 131 -110 131c-66 0 -123 -51 -123 -126v-221h-16v498h16v-142c0 -27 0 -55 -3 -83h1c20 60 72 90 126 90z" />
    <glyph glyph-name="i.sups" horiz-adv-x="144" 
d="M80 773h-16v55h16v-55zM80 330h-16v356h16v-356z" />
    <glyph glyph-name="j.sups" horiz-adv-x="153" 
d="M89 773h-16v55h16v-55zM89 686v-390c0 -73 -31 -97 -81 -97c-4 0 -10 1 -14 2v16c4 -1 10 -2 14 -2c42 0 65 17 65 81v390h16z" />
    <glyph glyph-name="k.sups" horiz-adv-x="319" 
d="M322 330h-24l-217 189h-1v-189h-16v498h16v-299h1l195 157h25l-202 -162z" />
    <glyph glyph-name="l.sups" horiz-adv-x="144" 
d="M80 330h-16v498h16v-498z" />
    <glyph glyph-name="m.sups" horiz-adv-x="586" 
d="M412 693c72 0 115 -47 115 -140v-223h-16v222c0 85 -36 125 -100 125c-62 0 -108 -47 -108 -119v-228h-16v237c0 68 -36 110 -98 110s-109 -48 -109 -131v-216h-16v356h16c0 -26 0 -52 -3 -78h1c17 50 57 85 112 85c57 0 97 -35 108 -87c16 53 59 87 114 87z" />
    <glyph glyph-name="n.sups" horiz-adv-x="388" 
d="M204 693c78 0 125 -49 125 -147v-216h-16v216c0 89 -40 131 -110 131c-66 0 -123 -51 -123 -126v-221h-16v356h16c0 -27 0 -55 -3 -83h1c20 60 72 90 126 90z" />
    <glyph glyph-name="o.sups" horiz-adv-x="382" 
d="M191 693c97 0 157 -70 157 -185s-60 -185 -157 -185s-157 70 -157 185s60 185 157 185zM191 677c-88 0 -141 -63 -141 -169s53 -169 141 -169s141 63 141 169s-53 169 -141 169z" />
    <glyph glyph-name="p.sups" horiz-adv-x="393" 
d="M64 686h16c0 -34 0 -69 -3 -103h1c16 70 63 110 129 110c94 0 152 -71 152 -185c0 -115 -58 -185 -152 -185c-66 0 -113 40 -129 110h-1c3 -34 3 -69 3 -103v-129h-16v485zM206 678c-78 0 -126 -65 -126 -170s48 -170 126 -170c85 0 137 65 137 170s-52 170 -137 170z
" />
    <glyph glyph-name="q.sups" horiz-adv-x="393" 
d="M186 693c63 0 107 -36 126 -97h1v90h16v-485h-16v219h-1c-19 -61 -63 -97 -126 -97c-94 0 -152 70 -152 185c0 114 58 185 152 185zM187 678c-85 0 -137 -65 -137 -170s52 -170 137 -170c78 0 126 65 126 170s-48 170 -126 170z" />
    <glyph glyph-name="r.sups" horiz-adv-x="232" 
d="M201 687c7 0 15 -1 21 -2v-16c-6 1 -14 2 -21 2c-71 0 -121 -45 -121 -139v-202h-16v356h16c0 -30 0 -60 -3 -88h1c17 58 63 89 123 89z" />
    <glyph glyph-name="s.sups" horiz-adv-x="324" 
d="M156 693c78 0 125 -46 125 -122h-16c0 67 -40 106 -109 106c-58 0 -101 -30 -101 -78c0 -50 33 -61 103 -76c90 -19 134 -37 134 -103c0 -58 -52 -97 -123 -97c-87 0 -138 48 -138 128h16c0 -71 44 -112 122 -112c62 0 107 32 107 81c0 55 -36 69 -122 87
c-72 15 -115 31 -115 92c0 57 50 94 117 94z" />
    <glyph glyph-name="t.sups" horiz-adv-x="197" 
d="M150 344c8 0 18 1 25 3v-16c-7 -2 -17 -3 -25 -3c-49 0 -71 26 -71 84v258h-69v16h69v82h16v-82h76v-16h-76v-258c0 -49 15 -68 55 -68z" />
    <glyph glyph-name="u.sups" horiz-adv-x="388" 
d="M184 323c-78 0 -125 49 -125 147v216h16v-216c0 -89 40 -131 110 -131c66 0 123 51 123 126v221h16v-356h-16v73h-1c-22 -51 -70 -80 -123 -80z" />
    <glyph glyph-name="v.sups" horiz-adv-x="313" 
d="M168 330h-23l-144 356h17l67 -165l71 -175h1l71 175l67 165h17z" />
    <glyph glyph-name="w.sups" horiz-adv-x="533" 
d="M406 330h-23l-61 179c-18 54 -36 106 -55 162h-1c-19 -56 -37 -108 -55 -162l-61 -179h-23l-120 356h16l58 -170l57 -170h1l58 172l57 168h25l57 -168l58 -172h1l57 170l58 170h16z" />
    <glyph glyph-name="x.sups" horiz-adv-x="321" 
d="M171 515l147 -185h-20l-137 172h-1l-137 -172h-20l147 185l-135 171h20l125 -159h1l125 159h20z" />
    <glyph glyph-name="y.sups" horiz-adv-x="313" 
d="M312 686l-152 -362c-43 -103 -72 -126 -126 -126c-13 0 -21 1 -29 3v16c8 -3 17 -4 29 -4c46 0 71 19 112 116l-145 357h17l136 -335h1l140 335h17z" />
    <glyph glyph-name="z.sups" horiz-adv-x="318" 
d="M297 666l-265 -319v-1h272v-16h-290v20l265 319v1h-258v16h276v-20z" />
    <glyph glyph-name="ff" unicode="&#xfb00;" horiz-adv-x="469" 
d="M428 699c-55 0 -83 -33 -83 -105v-86h108v-16h-108v-492h-16v492h-202v-492h-16v492h-96v16h96v86c0 81 35 121 99 121c9 0 18 -1 26 -3v-16c-7 2 -17 3 -26 3c-55 0 -83 -33 -83 -105v-86h202v86c0 81 35 121 99 121c9 0 18 -1 26 -3v-16c-7 2 -17 3 -26 3z" />
    <glyph glyph-name="ffi" unicode="&#xfb03;" horiz-adv-x="667" 
d="M329 508v86c0 81 35 121 99 121c9 0 18 -1 26 -3v-16c-7 2 -17 3 -26 3c-55 0 -83 -33 -83 -105v-86h108v-16h-108v-492h-16v492h-202v-492h-16v492h-96v16h96v86c0 81 35 121 99 121c9 0 18 -1 26 -3v-16c-7 2 -17 3 -26 3c-55 0 -83 -33 -83 -105v-86h202zM576 712v-77
h-16v77h16zM560 508h16v-508h-16v508z" />
    <glyph glyph-name="ffl" unicode="&#xfb04;" horiz-adv-x="667" 
d="M329 508v86c0 81 35 121 99 121c9 0 18 -1 26 -3v-16c-7 2 -17 3 -26 3c-55 0 -83 -33 -83 -105v-86h108v-16h-108v-492h-16v492h-202v-492h-16v492h-96v16h96v86c0 81 35 121 99 121c9 0 18 -1 26 -3v-16c-7 2 -17 3 -26 3c-55 0 -83 -33 -83 -105v-86h202zM576 712
v-712h-16v712h16z" />
    <glyph glyph-name="fi" unicode="&#xfb01;" horiz-adv-x="449" 
d="M111 508v86c0 81 35 121 99 121c9 0 18 -1 26 -3v-16c-7 2 -17 3 -26 3c-55 0 -83 -33 -83 -105v-86h108v-16h-108v-492h-16v492h-96v16h96zM358 712v-77h-16v77h16zM342 508h16v-508h-16v508z" />
    <glyph glyph-name="fl" unicode="&#xfb02;" horiz-adv-x="449" 
d="M111 508v86c0 81 35 121 99 121c9 0 18 -1 26 -3v-16c-7 2 -17 3 -26 3c-55 0 -83 -33 -83 -105v-86h108v-16h-108v-492h-16v492h-96v16h96zM358 712v-712h-16v712h16z" />
    <glyph glyph-name="a.smcp" horiz-adv-x="523" 
d="M410 202h-297l-90 -202h-17l245 548h21l245 -548h-17zM402 218l-32 73c-37 82 -73 163 -108 242h-1c-35 -79 -71 -160 -108 -242l-33 -73h282z" />
    <glyph glyph-name="aacute.smcp" horiz-adv-x="523" 
d="M231 614h-17l94 138h21zM410 202h-297l-90 -202h-17l245 548h21l245 -548h-17zM402 218l-32 73c-37 82 -73 163 -108 242h-1c-35 -79 -71 -160 -108 -242l-33 -73h282z" />
    <glyph glyph-name="abreve.smcp" horiz-adv-x="523" 
d="M262 625c-85 0 -136 47 -144 127h16c8 -72 52 -111 128 -111s120 39 128 111h16c-8 -80 -59 -127 -144 -127zM410 202h-297l-90 -202h-17l245 548h21l245 -548h-17zM402 218l-32 73c-37 82 -73 163 -108 242h-1c-35 -79 -71 -160 -108 -242l-33 -73h282z" />
    <glyph glyph-name="acircumflex.smcp" horiz-adv-x="523" 
d="M156 614h-21l119 138h16l119 -138h-21l-106 123zM410 202h-297l-90 -202h-17l245 548h21l245 -548h-17zM402 218l-32 73c-37 82 -73 163 -108 242h-1c-35 -79 -71 -160 -108 -242l-33 -73h282z" />
    <glyph glyph-name="adieresis.smcp" horiz-adv-x="523" 
d="M178 675h-16v77h16v-77zM362 675h-16v77h16v-77zM410 202h-297l-90 -202h-17l245 548h21l245 -548h-17zM402 218l-32 73c-37 82 -73 163 -108 242h-1c-35 -79 -71 -160 -108 -242l-33 -73h282z" />
    <glyph glyph-name="agrave.smcp" horiz-adv-x="523" 
d="M294 614l-98 138h21l94 -138h-17zM410 202h-297l-90 -202h-17l245 548h21l245 -548h-17zM402 218l-32 73c-37 82 -73 163 -108 242h-1c-35 -79 -71 -160 -108 -242l-33 -73h282z" />
    <glyph glyph-name="amacron.smcp" horiz-adv-x="523" 
d="M375 688h-226v16h226v-16zM410 202h-297l-90 -202h-17l245 548h21l245 -548h-17zM402 218l-32 73c-37 82 -73 163 -108 242h-1c-35 -79 -71 -160 -108 -242l-33 -73h282z" />
    <glyph glyph-name="aogonek.smcp" horiz-adv-x="523" 
d="M488 -173c12 0 24 2 32 5v-16c-8 -3 -20 -5 -32 -5c-48 0 -71 26 -71 67c0 44 23 77 81 126l-88 198h-297l-90 -202h-17l245 548h21l245 -548c-64 -52 -84 -84 -84 -122c0 -32 16 -51 55 -51zM402 218l-32 73c-37 82 -73 163 -108 242h-1c-35 -79 -71 -160 -108 -242
l-33 -73h282z" />
    <glyph glyph-name="aring.smcp" horiz-adv-x="523" 
d="M262 633c-46 0 -84 37 -84 84c0 46 38 84 84 84s84 -38 84 -84c0 -47 -38 -84 -84 -84zM262 785c-38 0 -68 -30 -68 -68s30 -68 68 -68s68 30 68 68s-30 68 -68 68zM410 202h-297l-90 -202h-17l245 548h21l245 -548h-17zM402 218l-32 73c-37 82 -73 163 -108 242h-1
c-35 -79 -71 -160 -108 -242l-33 -73h282z" />
    <glyph glyph-name="atilde.smcp" horiz-adv-x="523" 
d="M187 726c-31 0 -50 -22 -53 -65h-16c4 53 31 81 69 81c62 0 95 -65 150 -65c31 0 50 22 53 65h16c-4 -53 -31 -81 -69 -81c-62 0 -95 65 -150 65zM410 202h-297l-90 -202h-17l245 548h21l245 -548h-17zM402 218l-32 73c-37 82 -73 163 -108 242h-1
c-35 -79 -71 -160 -108 -242l-33 -73h282z" />
    <glyph glyph-name="ae.smcp" horiz-adv-x="753" 
d="M694 16v-16h-270l-37 216h-251l-123 -216h-18l313 548h375v-16h-333l41 -242h278v-16h-276l45 -258h256zM385 232l-51 300h-17l-171 -300h239z" />
    <glyph glyph-name="b.smcp" horiz-adv-x="506" 
d="M94 548h163c119 0 176 -54 176 -135c0 -71 -46 -120 -120 -131v-1c78 -9 134 -59 134 -135c0 -89 -64 -146 -174 -146h-179v548zM110 532v-243h147c115 0 160 56 160 124c0 72 -50 119 -160 119h-147zM110 273v-257h163c101 0 158 50 158 130c0 72 -52 127 -174 127h-147
z" />
    <glyph glyph-name="c.smcp" horiz-adv-x="553" 
d="M287 558c131 0 206 -84 213 -186h-16c-7 93 -76 170 -197 170c-141 0 -229 -104 -229 -268s86 -268 223 -268c119 0 195 73 206 172h16c-12 -110 -93 -188 -222 -188c-146 0 -239 111 -239 284s95 284 245 284z" />
    <glyph glyph-name="cacute.smcp" horiz-adv-x="553" 
d="M256 614h-17l94 138h21zM287 558c131 0 206 -84 213 -186h-16c-7 93 -76 170 -197 170c-141 0 -229 -104 -229 -268s86 -268 223 -268c119 0 195 73 206 172h16c-12 -110 -93 -188 -222 -188c-146 0 -239 111 -239 284s95 284 245 284z" />
    <glyph glyph-name="ccaron.smcp" horiz-adv-x="553" 
d="M295 614h-16l-119 138h21l106 -123l106 123h21zM287 558c131 0 206 -84 213 -186h-16c-7 93 -76 170 -197 170c-141 0 -229 -104 -229 -268s86 -268 223 -268c119 0 195 73 206 172h16c-12 -110 -93 -188 -222 -188c-146 0 -239 111 -239 284s95 284 245 284z" />
    <glyph glyph-name="ccedilla.smcp" horiz-adv-x="553" 
d="M487 178h16c-11 -102 -82 -177 -196 -187l-41 -60c6 2 13 3 21 3c53 0 81 -26 81 -67c0 -43 -33 -72 -89 -72c-33 0 -61 9 -86 23l8 14c24 -14 49 -21 78 -21c47 0 73 22 73 56c0 33 -21 52 -65 52c-12 0 -24 -2 -33 -5l-11 11l44 65h-6c-146 0 -239 111 -239 284
s95 284 245 284c131 0 206 -84 213 -186h-16c-7 93 -76 170 -197 170c-141 0 -229 -104 -229 -268s86 -268 223 -268c119 0 195 73 206 172z" />
    <glyph glyph-name="ccircumflex.smcp" horiz-adv-x="553" 
d="M393 614l-106 123l-106 -123h-21l119 138h16l119 -138h-21zM287 558c131 0 206 -84 213 -186h-16c-7 93 -76 170 -197 170c-141 0 -229 -104 -229 -268s86 -268 223 -268c119 0 195 73 206 172h16c-12 -110 -93 -188 -222 -188c-146 0 -239 111 -239 284s95 284 245 284z
" />
    <glyph glyph-name="cdotaccent.smcp" horiz-adv-x="553" 
d="M295 675h-16v77h16v-77zM287 558c131 0 206 -84 213 -186h-16c-7 93 -76 170 -197 170c-141 0 -229 -104 -229 -268s86 -268 223 -268c119 0 195 73 206 172h16c-12 -110 -93 -188 -222 -188c-146 0 -239 111 -239 284s95 284 245 284z" />
    <glyph glyph-name="d.smcp" horiz-adv-x="593" 
d="M94 548h161c191 0 296 -99 296 -274s-105 -274 -296 -274h-161v548zM110 532v-516h145c182 0 280 92 280 258s-98 258 -280 258h-145z" />
    <glyph glyph-name="eth.smcp" horiz-adv-x="594" 
d="M95 548h161c191 0 296 -99 296 -274s-105 -274 -296 -274h-161v269h-58v16h58v263zM111 16h145c182 0 280 92 280 258s-98 258 -280 258h-145v-247h200v-16h-200v-253z" />
    <glyph glyph-name="dcaron.smcp" horiz-adv-x="593" 
d="M279 614h-16l-119 138h21l106 -123l106 123h21zM94 548h161c191 0 296 -99 296 -274s-105 -274 -296 -274h-161v548zM110 532v-516h145c182 0 280 92 280 258s-98 258 -280 258h-145z" />
    <glyph glyph-name="dcroat.smcp" horiz-adv-x="594" 
d="M95 548h161c191 0 296 -99 296 -274s-105 -274 -296 -274h-161v269h-58v16h58v263zM111 16h145c182 0 280 92 280 258s-98 258 -280 258h-145v-247h200v-16h-200v-253z" />
    <glyph glyph-name="e.smcp" horiz-adv-x="496" 
d="M431 532h-320v-242h306v-16h-306v-258h331v-16h-347v548h336v-16z" />
    <glyph glyph-name="eacute.smcp" horiz-adv-x="496" 
d="M232 614h-17l94 138h21zM431 532h-320v-242h306v-16h-306v-258h331v-16h-347v548h336v-16z" />
    <glyph glyph-name="ebreve.smcp" horiz-adv-x="496" 
d="M391 752h16c-8 -80 -59 -127 -144 -127s-136 47 -144 127h16c8 -72 52 -111 128 -111s120 39 128 111zM431 532h-320v-242h306v-16h-306v-258h331v-16h-347v548h336v-16z" />
    <glyph glyph-name="ecaron.smcp" horiz-adv-x="496" 
d="M271 614h-16l-119 138h21l106 -123l106 123h21zM431 532h-320v-242h306v-16h-306v-258h331v-16h-347v548h336v-16z" />
    <glyph glyph-name="ecircumflex.smcp" horiz-adv-x="496" 
d="M369 614l-106 123l-106 -123h-21l119 138h16l119 -138h-21zM431 532h-320v-242h306v-16h-306v-258h331v-16h-347v548h336v-16z" />
    <glyph glyph-name="edieresis.smcp" horiz-adv-x="496" 
d="M179 675h-16v77h16v-77zM363 675h-16v77h16v-77zM431 532h-320v-242h306v-16h-306v-258h331v-16h-347v548h336v-16z" />
    <glyph glyph-name="edotaccent.smcp" horiz-adv-x="496" 
d="M271 675h-16v77h16v-77zM431 532h-320v-242h306v-16h-306v-258h331v-16h-347v548h336v-16z" />
    <glyph glyph-name="egrave.smcp" horiz-adv-x="496" 
d="M218 752l94 -138h-17l-98 138h21zM431 532h-320v-242h306v-16h-306v-258h331v-16h-347v548h336v-16z" />
    <glyph glyph-name="emacron.smcp" horiz-adv-x="496" 
d="M376 688h-226v16h226v-16zM431 532h-320v-242h306v-16h-306v-258h331v-16h-347v548h336v-16z" />
    <glyph glyph-name="eogonek.smcp" horiz-adv-x="496" 
d="M413 -173c12 0 24 2 32 5v-16c-8 -3 -20 -5 -32 -5c-48 0 -71 26 -71 67c0 43 22 75 77 122h-324v548h336v-16h-320v-242h306v-16h-306v-258h331v-16c-64 -52 -84 -84 -84 -122c0 -32 16 -51 55 -51z" />
    <glyph glyph-name="f.smcp" horiz-adv-x="455" 
d="M423 532h-313v-240h297v-16h-297v-276h-16v548h329v-16z" />
    <glyph glyph-name="fi.smcp" horiz-adv-x="660" 
d="M423 532h-313v-240h297v-16h-297v-276h-16v548h329v-16zM566 0h-16v548h16v-548z" />
    <glyph glyph-name="fl.smcp" horiz-adv-x="897" 
d="M423 532h-313v-240h297v-16h-297v-276h-16v548h329v-16zM566 16h326v-16h-342v548h16v-532z" />
    <glyph glyph-name="g.smcp" horiz-adv-x="584" 
d="M294 556c125 0 201 -68 211 -166h-16c-10 89 -79 150 -195 150c-146 0 -236 -102 -236 -269c0 -164 86 -263 224 -263c108 0 209 61 209 250h-193v16h209v-274h-16v49c0 38 0 78 3 116h-1c-20 -110 -98 -173 -211 -173c-148 0 -240 106 -240 279c0 176 97 285 252 285z
" />
    <glyph glyph-name="gbreve.smcp" horiz-adv-x="584" 
d="M414 752h16c-8 -80 -59 -127 -144 -127s-136 47 -144 127h16c8 -72 52 -111 128 -111s120 39 128 111zM294 556c125 0 201 -68 211 -166h-16c-10 89 -79 150 -195 150c-146 0 -236 -102 -236 -269c0 -164 86 -263 224 -263c108 0 209 61 209 250h-193v16h209v-274h-16v49
c0 38 0 78 3 116h-1c-20 -110 -98 -173 -211 -173c-148 0 -240 106 -240 279c0 176 97 285 252 285z" />
    <glyph glyph-name="gcircumflex.smcp" horiz-adv-x="584" 
d="M392 614l-106 123l-106 -123h-21l119 138h16l119 -138h-21zM294 556c125 0 201 -68 211 -166h-16c-10 89 -79 150 -195 150c-146 0 -236 -102 -236 -269c0 -164 86 -263 224 -263c108 0 209 61 209 250h-193v16h209v-274h-16v49c0 38 0 78 3 116h-1
c-20 -110 -98 -173 -211 -173c-148 0 -240 106 -240 279c0 176 97 285 252 285z" />
    <glyph glyph-name="gcommaaccent.smcp" horiz-adv-x="584" 
d="M294 556c125 0 201 -68 211 -166h-16c-10 89 -79 150 -195 150c-146 0 -236 -102 -236 -269c0 -164 86 -263 224 -263c108 0 209 61 209 250h-193v16h209v-274h-16v49c0 38 0 78 3 116h-1c-20 -110 -98 -173 -211 -173c-148 0 -240 106 -240 279c0 176 97 285 252 285z
M294 -145l-30 -94h-14l28 94v66h16v-66z" />
    <glyph glyph-name="gdotaccent.smcp" horiz-adv-x="584" 
d="M294 675h-16v77h16v-77zM294 556c125 0 201 -68 211 -166h-16c-10 89 -79 150 -195 150c-146 0 -236 -102 -236 -269c0 -164 86 -263 224 -263c108 0 209 61 209 250h-193v16h209v-274h-16v49c0 38 0 78 3 116h-1c-20 -110 -98 -173 -211 -173c-148 0 -240 106 -240 279
c0 176 97 285 252 285z" />
    <glyph glyph-name="h.smcp" horiz-adv-x="598" 
d="M503 0h-16v277h-376v-277h-16v548h16v-255h376v255h16v-548z" />
    <glyph glyph-name="hbar.smcp" horiz-adv-x="597" 
d="M551 457h-48v-457h-16v277h-376v-277h-16v457h-50v16h50v75h16v-75h376v75h16v-75h48v-16zM487 457h-376v-164h376v164z" />
    <glyph glyph-name="hcircumflex.smcp" horiz-adv-x="598" 
d="M405 614l-106 123l-106 -123h-21l119 138h16l119 -138h-21zM503 0h-16v277h-376v-277h-16v548h16v-255h376v255h16v-548z" />
    <glyph glyph-name="i.smcp" horiz-adv-x="206" 
d="M111 0h-16v548h16v-548z" />
    <glyph glyph-name="iacute.smcp" horiz-adv-x="206" 
d="M72 614h-17l94 138h21zM111 0h-16v548h16v-548z" />
    <glyph glyph-name="ibreve.smcp" horiz-adv-x="206" 
d="M205 752h16c-6 -80 -48 -127 -118 -127s-111 47 -118 127h16c7 -72 41 -111 102 -111s95 39 102 111zM111 0h-16v548h16v-548z" />
    <glyph glyph-name="icircumflex.smcp" horiz-adv-x="206" 
d="M208 615h-20l-85 122l-86 -122h-20l97 137h17zM111 0h-16v548h16v-548z" />
    <glyph glyph-name="idieresis.smcp" horiz-adv-x="206" 
d="M39 683h-16v69h16v-69zM183 683h-16v69h16v-69zM111 0h-16v548h16v-548z" />
    <glyph glyph-name="idotaccent.smcp" horiz-adv-x="206" 
d="M111 675h-16v77h16v-77zM111 0h-16v548h16v-548z" />
    <glyph glyph-name="igrave.smcp" horiz-adv-x="206" 
d="M58 752l94 -138h-17l-98 138h21zM111 0h-16v548h16v-548z" />
    <glyph glyph-name="ij.smcp" horiz-adv-x="467" 
d="M111 0h-16v548h16v-548zM377 548v-415c0 -89 -47 -136 -125 -136c-12 0 -24 1 -32 4v16c10 -3 21 -4 32 -4c69 0 109 40 109 120v415h16z" />
    <glyph glyph-name="imacron.smcp" horiz-adv-x="206" 
d="M196 688h-186v16h186v-16zM111 0h-16v548h16v-548z" />
    <glyph glyph-name="iogonek.smcp" horiz-adv-x="206" 
d="M82 -173c12 0 24 2 32 5v-16c-8 -3 -20 -5 -32 -5c-48 0 -71 26 -71 67c0 45 24 78 84 128v542h16v-548c-64 -52 -84 -84 -84 -122c0 -32 16 -51 55 -51z" />
    <glyph glyph-name="itilde.smcp" horiz-adv-x="206" 
d="M211 742h16c-3 -53 -28 -81 -63 -81c-52 0 -79 65 -123 65c-28 0 -44 -22 -47 -65h-16c3 53 28 81 63 81c52 0 79 -65 123 -65c28 0 44 22 47 65zM111 0h-16v548h16v-548z" />
    <glyph glyph-name="j.smcp" horiz-adv-x="261" 
d="M171 548v-415c0 -89 -47 -136 -125 -136c-12 0 -24 1 -32 4v16c10 -3 21 -4 32 -4c69 0 109 40 109 120v415h16z" />
    <glyph glyph-name="jcircumflex.smcp" horiz-adv-x="261" 
d="M268 615h-20l-85 122l-86 -122h-20l97 137h17zM171 548v-415c0 -89 -47 -136 -125 -136c-12 0 -24 1 -32 4v16c10 -3 21 -4 32 -4c69 0 109 40 109 120v415h16z" />
    <glyph glyph-name="k.smcp" horiz-adv-x="451" 
d="M130 288l317 -288h-24l-311 282h-1v-282h-16v548h16v-255h1l285 255h24z" />
    <glyph glyph-name="kcommaaccent.smcp" horiz-adv-x="451" 
d="M130 288l317 -288h-24l-311 282h-1v-282h-16v548h16v-255h1l285 255h24zM271 -145l-30 -94h-14l28 94v66h16v-66z" />
    <glyph glyph-name="l.smcp" horiz-adv-x="442" 
d="M111 16h326v-16h-342v548h16v-532z" />
    <glyph glyph-name="lacute.smcp" horiz-adv-x="442" 
d="M114 614h-17l94 138h21zM111 16h326v-16h-342v548h16v-532z" />
    <glyph glyph-name="lcaron.smcp" horiz-adv-x="442" 
d="M111 16h326v-16h-342v548h16v-532zM193 374h-14l41 174h17z" />
    <glyph glyph-name="lcommaaccent.smcp" horiz-adv-x="442" 
d="M111 16h326v-16h-342v548h16v-532zM274 -145l-30 -94h-14l28 94v66h16v-66z" />
    <glyph glyph-name="ldot.smcp" horiz-adv-x="501" 
d="M111 16h326v-16h-342v548h16v-532zM362 270h-18v72h18v-72z" />
    <glyph glyph-name="j.acute.loclNLD.smcp" horiz-adv-x="261" 
d="M132 614h-17l94 138h21zM171 548v-415c0 -89 -47 -136 -125 -136c-12 0 -24 1 -32 4v16c10 -3 21 -4 32 -4c69 0 109 40 109 120v415h16z" />
    <glyph glyph-name="lslash.smcp" horiz-adv-x="435" 
d="M430 16v-16h-342v245l-65 -37v18l65 37v285h16v-277l136 76v-18l-136 -76v-237h326z" />
    <glyph glyph-name="m.smcp" horiz-adv-x="719" 
d="M624 0h-16v297v234h-1l-108 -241l-129 -290h-21l-129 290l-108 241h-1v-234v-297h-16v548h27l139 -312l98 -219h1l98 219l139 312h27v-548z" />
    <glyph glyph-name="n.smcp" horiz-adv-x="609" 
d="M514 0h-26l-180 255l-196 277h-1v-294v-238h-16v548h26l180 -255l196 -277h1v294v238h16v-548z" />
    <glyph glyph-name="nacute.smcp" horiz-adv-x="609" 
d="M274 614h-17l94 138h21zM514 0h-26l-180 255l-196 277h-1v-294v-238h-16v548h26l180 -255l196 -277h1v294v238h16v-548z" />
    <glyph glyph-name="ncaron.smcp" horiz-adv-x="609" 
d="M313 614h-16l-119 138h21l106 -123l106 123h21zM514 0h-26l-180 255l-196 277h-1v-294v-238h-16v548h26l180 -255l196 -277h1v294v238h16v-548z" />
    <glyph glyph-name="ncommaaccent.smcp" horiz-adv-x="609" 
d="M514 0h-26l-180 255l-196 277h-1v-294v-238h-16v548h26l180 -255l196 -277h1v294v238h16v-548zM313 -145l-30 -94h-14l28 94v66h16v-66z" />
    <glyph glyph-name="eng.smcp" horiz-adv-x="609" 
d="M514 548v-585c0 -81 -35 -108 -91 -108c-6 0 -12 1 -16 2v16c4 -1 10 -2 15 -2c48 0 76 20 76 92v37l-197 271c-62 87 -126 175 -189 262h-1v-282v-251h-16v548h26l187 -257l189 -261h1v281v237h16z" />
    <glyph glyph-name="ntilde.smcp" horiz-adv-x="609" 
d="M433 742h16c-4 -53 -31 -81 -69 -81c-62 0 -95 65 -150 65c-31 0 -50 -22 -53 -65h-16c4 53 31 81 69 81c62 0 95 -65 150 -65c31 0 50 22 53 65zM514 0h-26l-180 255l-196 277h-1v-294v-238h-16v548h26l180 -255l196 -277h1v294v238h16v-548z" />
    <glyph glyph-name="o.smcp" horiz-adv-x="584" 
d="M292 558c152 0 250 -111 250 -284s-98 -284 -250 -284s-250 111 -250 284s98 284 250 284zM292 542c-143 0 -234 -104 -234 -268s91 -268 234 -268s234 104 234 268s-91 268 -234 268z" />
    <glyph glyph-name="oacute.smcp" horiz-adv-x="584" 
d="M261 614h-17l94 138h21zM292 558c152 0 250 -111 250 -284s-98 -284 -250 -284s-250 111 -250 284s98 284 250 284zM292 542c-143 0 -234 -104 -234 -268s91 -268 234 -268s234 104 234 268s-91 268 -234 268z" />
    <glyph glyph-name="obreve.smcp" horiz-adv-x="584" 
d="M420 752h16c-8 -80 -59 -127 -144 -127s-136 47 -144 127h16c8 -72 52 -111 128 -111s120 39 128 111zM292 558c152 0 250 -111 250 -284s-98 -284 -250 -284s-250 111 -250 284s98 284 250 284zM292 542c-143 0 -234 -104 -234 -268s91 -268 234 -268s234 104 234 268
s-91 268 -234 268z" />
    <glyph glyph-name="ocircumflex.smcp" horiz-adv-x="584" 
d="M398 614l-106 123l-106 -123h-21l119 138h16l119 -138h-21zM292 558c152 0 250 -111 250 -284s-98 -284 -250 -284s-250 111 -250 284s98 284 250 284zM292 542c-143 0 -234 -104 -234 -268s91 -268 234 -268s234 104 234 268s-91 268 -234 268z" />
    <glyph glyph-name="odieresis.smcp" horiz-adv-x="584" 
d="M208 675h-16v77h16v-77zM392 675h-16v77h16v-77zM292 558c152 0 250 -111 250 -284s-98 -284 -250 -284s-250 111 -250 284s98 284 250 284zM292 542c-143 0 -234 -104 -234 -268s91 -268 234 -268s234 104 234 268s-91 268 -234 268z" />
    <glyph glyph-name="ograve.smcp" horiz-adv-x="584" 
d="M247 752l94 -138h-17l-98 138h21zM292 558c152 0 250 -111 250 -284s-98 -284 -250 -284s-250 111 -250 284s98 284 250 284zM292 542c-143 0 -234 -104 -234 -268s91 -268 234 -268s234 104 234 268s-91 268 -234 268z" />
    <glyph glyph-name="ohungarumlaut.smcp" horiz-adv-x="584" 
d="M226 614h-19l122 138h24zM325 614h-19l122 138h24zM292 558c152 0 250 -111 250 -284s-98 -284 -250 -284s-250 111 -250 284s98 284 250 284zM292 542c-143 0 -234 -104 -234 -268s91 -268 234 -268s234 104 234 268s-91 268 -234 268z" />
    <glyph glyph-name="omacron.smcp" horiz-adv-x="584" 
d="M405 688h-226v16h226v-16zM292 558c152 0 250 -111 250 -284s-98 -284 -250 -284s-250 111 -250 284s98 284 250 284zM292 542c-143 0 -234 -104 -234 -268s91 -268 234 -268s234 104 234 268s-91 268 -234 268z" />
    <glyph glyph-name="oslash.smcp" horiz-adv-x="585" 
d="M526 548l-53 -65c45 -49 70 -121 70 -209c0 -173 -97 -284 -250 -284c-69 0 -127 23 -169 63l-51 -62l-12 9l52 64c-45 50 -70 122 -70 210c0 173 97 284 250 284c69 0 127 -23 170 -64l50 63zM293 542c-144 0 -234 -104 -234 -268c0 -83 23 -151 64 -197l329 405
c-39 39 -94 60 -159 60zM293 6c144 0 234 104 234 268c0 83 -23 150 -64 197l-329 -405c40 -39 94 -60 159 -60z" />
    <glyph glyph-name="otilde.smcp" horiz-adv-x="584" 
d="M420 742h16c-4 -53 -31 -81 -69 -81c-62 0 -95 65 -150 65c-31 0 -50 -22 -53 -65h-16c4 53 31 81 69 81c62 0 95 -65 150 -65c31 0 50 22 53 65zM292 558c152 0 250 -111 250 -284s-98 -284 -250 -284s-250 111 -250 284s98 284 250 284zM292 542
c-143 0 -234 -104 -234 -268s91 -268 234 -268s234 104 234 268s-91 268 -234 268z" />
    <glyph glyph-name="oe.smcp" horiz-adv-x="805" 
d="M735 532h-320v-242h306v-16h-306v-258h331v-16h-419c-182 0 -284 99 -284 274s102 274 284 274h408v-16zM399 532h-72c-173 0 -268 -92 -268 -258s95 -258 268 -258h72v516z" />
    <glyph glyph-name="p.smcp" horiz-adv-x="489" 
d="M95 548h186c119 0 177 -62 177 -146s-58 -146 -177 -146h-170v-256h-16v548zM111 532v-260h170c110 0 161 55 161 130s-51 130 -161 130h-170z" />
    <glyph glyph-name="thorn.smcp" horiz-adv-x="489" 
d="M111 430h170c119 0 177 -62 177 -146s-58 -146 -177 -146h-170v-138h-16v548h16v-118zM111 414v-260h170c110 0 161 55 161 130s-51 130 -161 130h-170z" />
    <glyph glyph-name="q.smcp" horiz-adv-x="585" 
d="M543 274c0 -94 -29 -170 -80 -220l65 -68l-11 -12l-66 70c-41 -35 -95 -54 -158 -54c-152 0 -250 111 -250 284s98 284 250 284s250 -111 250 -284zM59 274c0 -165 91 -268 234 -268c59 0 109 17 147 49l-77 81l11 11l78 -81c48 46 75 118 75 208c0 164 -91 268 -234 268
s-234 -104 -234 -268z" />
    <glyph glyph-name="r.smcp" horiz-adv-x="499" 
d="M95 548h153c128 0 190 -52 190 -138c0 -80 -51 -130 -126 -141v-1c45 -11 66 -34 93 -103l65 -165h-17l-63 161c-28 73 -54 100 -129 100h-150v-261h-16v548zM111 532v-255h150c112 0 161 60 161 133c0 77 -55 122 -174 122h-137z" />
    <glyph glyph-name="racute.smcp" horiz-adv-x="499" 
d="M219 614h-17l94 138h21zM95 548h153c128 0 190 -52 190 -138c0 -80 -51 -130 -126 -141v-1c45 -11 66 -34 93 -103l65 -165h-17l-63 161c-28 73 -54 100 -129 100h-150v-261h-16v548zM111 532v-255h150c112 0 161 60 161 133c0 77 -55 122 -174 122h-137z" />
    <glyph glyph-name="rcaron.smcp" horiz-adv-x="499" 
d="M258 614h-16l-119 138h21l106 -123l106 123h21zM95 548h153c128 0 190 -52 190 -138c0 -80 -51 -130 -126 -141v-1c45 -11 66 -34 93 -103l65 -165h-17l-63 161c-28 73 -54 100 -129 100h-150v-261h-16v548zM111 532v-255h150c112 0 161 60 161 133
c0 77 -55 122 -174 122h-137z" />
    <glyph glyph-name="rcommaaccent.smcp" horiz-adv-x="499" 
d="M95 548h153c128 0 190 -52 190 -138c0 -80 -51 -130 -126 -141v-1c45 -11 66 -34 93 -103l65 -165h-17l-63 161c-28 73 -54 100 -129 100h-150v-261h-16v548zM111 532v-255h150c112 0 161 60 161 133c0 77 -55 122 -174 122h-137zM282 -145l-30 -94h-14l28 94v66h16v-66z
" />
    <glyph glyph-name="s.smcp" horiz-adv-x="483" 
d="M226 558c123 0 188 -62 188 -184h-16c0 113 -58 168 -172 168c-95 0 -153 -49 -153 -124c0 -79 51 -104 162 -130c123 -28 189 -51 189 -153c0 -89 -70 -145 -184 -145c-123 0 -193 63 -193 193h16c0 -121 63 -177 177 -177c105 0 168 49 168 129c0 93 -62 110 -176 137
c-117 28 -175 57 -175 146c0 84 66 140 169 140z" />
    <glyph glyph-name="sacute.smcp" horiz-adv-x="483" 
d="M195 614h-17l94 138h21zM226 558c123 0 188 -62 188 -184h-16c0 113 -58 168 -172 168c-95 0 -153 -49 -153 -124c0 -79 51 -104 162 -130c123 -28 189 -51 189 -153c0 -89 -70 -145 -184 -145c-123 0 -193 63 -193 193h16c0 -121 63 -177 177 -177c105 0 168 49 168 129
c0 93 -62 110 -176 137c-117 28 -175 57 -175 146c0 84 66 140 169 140z" />
    <glyph glyph-name="scaron.smcp" horiz-adv-x="483" 
d="M234 614h-16l-119 138h21l106 -123l106 123h21zM226 558c123 0 188 -62 188 -184h-16c0 113 -58 168 -172 168c-95 0 -153 -49 -153 -124c0 -79 51 -104 162 -130c123 -28 189 -51 189 -153c0 -89 -70 -145 -184 -145c-123 0 -193 63 -193 193h16
c0 -121 63 -177 177 -177c105 0 168 49 168 129c0 93 -62 110 -176 137c-117 28 -175 57 -175 146c0 84 66 140 169 140z" />
    <glyph glyph-name="scedilla.smcp" horiz-adv-x="483" 
d="M424 135c0 -82 -59 -136 -158 -144l-41 -60c6 2 13 3 21 3c53 0 81 -26 81 -67c0 -43 -33 -72 -89 -72c-33 0 -61 9 -86 23l8 14c24 -14 49 -21 78 -21c47 0 73 22 73 56c0 33 -21 52 -65 52c-12 0 -24 -2 -33 -5l-11 11l44 65h-6c-123 0 -193 63 -193 193h16
c0 -121 63 -177 177 -177c105 0 168 49 168 129c0 93 -62 110 -176 137c-117 28 -175 57 -175 146c0 84 66 140 169 140c123 0 188 -62 188 -184h-16c0 113 -58 168 -172 168c-95 0 -153 -49 -153 -124c0 -79 51 -104 162 -130c123 -28 189 -51 189 -153z" />
    <glyph glyph-name="scircumflex.smcp" horiz-adv-x="483" 
d="M332 614l-106 123l-106 -123h-21l119 138h16l119 -138h-21zM226 558c123 0 188 -62 188 -184h-16c0 113 -58 168 -172 168c-95 0 -153 -49 -153 -124c0 -79 51 -104 162 -130c123 -28 189 -51 189 -153c0 -89 -70 -145 -184 -145c-123 0 -193 63 -193 193h16
c0 -121 63 -177 177 -177c105 0 168 49 168 129c0 93 -62 110 -176 137c-117 28 -175 57 -175 146c0 84 66 140 169 140z" />
    <glyph glyph-name="scommaaccent.smcp" horiz-adv-x="483" 
d="M226 558c123 0 188 -62 188 -184h-16c0 113 -58 168 -172 168c-95 0 -153 -49 -153 -124c0 -79 51 -104 162 -130c123 -28 189 -51 189 -153c0 -89 -70 -145 -184 -145c-123 0 -193 63 -193 193h16c0 -121 63 -177 177 -177c105 0 168 49 168 129c0 93 -62 110 -176 137
c-117 28 -175 57 -175 146c0 84 66 140 169 140zM248 -145l-30 -94h-14l28 94v66h16v-66z" />
    <glyph glyph-name="germandbls.smcp" horiz-adv-x="618" 
d="M513 473l-166 -156c134 -15 212 -67 212 -173c0 -99 -70 -154 -176 -154c-105 0 -163 50 -163 133h16c0 -74 51 -117 147 -117c97 0 160 48 160 138c0 101 -77 147 -216 159v16l164 154c-41 43 -105 69 -180 69c-135 0 -205 -67 -205 -200v-342h-16v342
c0 142 77 216 221 216c86 0 158 -35 202 -85z" />
    <glyph glyph-name="t.smcp" horiz-adv-x="467" 
d="M463 532h-221v-532h-16v532h-221v16h458v-16z" />
    <glyph glyph-name="tbar.smcp" horiz-adv-x="468" 
d="M242 532v-213h128v-16h-128v-303h-16v303h-128v16h128v213h-221v16h458v-16h-221z" />
    <glyph glyph-name="tcaron.smcp" horiz-adv-x="467" 
d="M242 614h-16l-119 138h21l106 -123l106 123h21zM463 532h-221v-532h-16v532h-221v16h458v-16z" />
    <glyph glyph-name="tcedilla.smcp" horiz-adv-x="467" 
d="M463 532h-221v-532h-16v532h-221v16h458v-16zM242 -145l-30 -94h-14l28 94v66h16v-66z" />
    <glyph glyph-name="tcommaaccent.smcp" horiz-adv-x="467" 
d="M463 532h-221v-532h-16v532h-221v16h458v-16zM242 -145l-30 -94h-14l28 94v66h16v-66z" />
    <glyph glyph-name="u.smcp" horiz-adv-x="569" 
d="M480 548v-349c0 -138 -70 -209 -195 -209s-195 71 -195 209v349h16v-349c0 -129 63 -193 179 -193s179 64 179 193v349h16z" />
    <glyph glyph-name="uacute.smcp" horiz-adv-x="569" 
d="M254 614h-17l94 138h21zM480 548v-349c0 -138 -70 -209 -195 -209s-195 71 -195 209v349h16v-349c0 -129 63 -193 179 -193s179 64 179 193v349h16z" />
    <glyph glyph-name="ubreve.smcp" horiz-adv-x="569" 
d="M413 752h16c-8 -80 -59 -127 -144 -127s-136 47 -144 127h16c8 -72 52 -111 128 -111s120 39 128 111zM480 548v-349c0 -138 -70 -209 -195 -209s-195 71 -195 209v349h16v-349c0 -129 63 -193 179 -193s179 64 179 193v349h16z" />
    <glyph glyph-name="ucircumflex.smcp" horiz-adv-x="569" 
d="M391 614l-106 123l-106 -123h-21l119 138h16l119 -138h-21zM480 548v-349c0 -138 -70 -209 -195 -209s-195 71 -195 209v349h16v-349c0 -129 63 -193 179 -193s179 64 179 193v349h16z" />
    <glyph glyph-name="udieresis.smcp" horiz-adv-x="569" 
d="M201 675h-16v77h16v-77zM385 675h-16v77h16v-77zM480 548v-349c0 -138 -70 -209 -195 -209s-195 71 -195 209v349h16v-349c0 -129 63 -193 179 -193s179 64 179 193v349h16z" />
    <glyph glyph-name="ugrave.smcp" horiz-adv-x="569" 
d="M240 752l94 -138h-17l-98 138h21zM480 548v-349c0 -138 -70 -209 -195 -209s-195 71 -195 209v349h16v-349c0 -129 63 -193 179 -193s179 64 179 193v349h16z" />
    <glyph glyph-name="uhungarumlaut.smcp" horiz-adv-x="569" 
d="M219 614h-19l122 138h24zM318 614h-19l122 138h24zM480 548v-349c0 -138 -70 -209 -195 -209s-195 71 -195 209v349h16v-349c0 -129 63 -193 179 -193s179 64 179 193v349h16z" />
    <glyph glyph-name="umacron.smcp" horiz-adv-x="569" 
d="M398 688h-226v16h226v-16zM480 548v-349c0 -138 -70 -209 -195 -209s-195 71 -195 209v349h16v-349c0 -129 63 -193 179 -193s179 64 179 193v349h16z" />
    <glyph glyph-name="uogonek.smcp" horiz-adv-x="567" 
d="M479 548v-347c0 -98 -33 -151 -94 -201c-64 -52 -84 -84 -84 -122c0 -32 16 -51 55 -51c12 0 24 2 32 5v-16c-8 -3 -20 -5 -32 -5c-48 0 -71 26 -71 67c0 47 27 81 94 133v1c-27 -14 -58 -20 -95 -20c-125 0 -195 71 -195 209v347h16v-347c0 -129 63 -193 179 -193
s179 64 179 193v347h16z" />
    <glyph glyph-name="uring.smcp" horiz-adv-x="569" 
d="M285 801c46 0 84 -38 84 -84c0 -47 -38 -84 -84 -84s-84 37 -84 84c0 46 38 84 84 84zM285 785c-38 0 -68 -30 -68 -68s30 -68 68 -68s68 30 68 68s-30 68 -68 68zM480 548v-349c0 -138 -70 -209 -195 -209s-195 71 -195 209v349h16v-349c0 -129 63 -193 179 -193
s179 64 179 193v349h16z" />
    <glyph glyph-name="utilde.smcp" horiz-adv-x="569" 
d="M413 742h16c-4 -53 -31 -81 -69 -81c-62 0 -95 65 -150 65c-31 0 -50 -22 -53 -65h-16c4 53 31 81 69 81c62 0 95 -65 150 -65c31 0 50 22 53 65zM480 548v-349c0 -138 -70 -209 -195 -209s-195 71 -195 209v349h16v-349c0 -129 63 -193 179 -193s179 64 179 193v349h16z
" />
    <glyph glyph-name="v.smcp" horiz-adv-x="497" 
d="M259 0h-21l-231 548h17l111 -263l113 -268h1l113 268l111 263h17z" />
    <glyph glyph-name="w.smcp" horiz-adv-x="711" 
d="M535 0h-23l-76 259c-27 91 -53 180 -80 273h-1c-27 -93 -53 -182 -80 -273l-76 -259h-23l-165 548h17l79 -263c27 -89 54 -180 80 -268h1l79 270l77 261h23l77 -261l79 -270h1c26 88 53 179 80 268l79 263h17z" />
    <glyph glyph-name="wacute.smcp" horiz-adv-x="711" 
d="M325 614h-17l94 138h21zM535 0h-23l-76 259c-27 91 -53 180 -80 273h-1c-27 -93 -53 -182 -80 -273l-76 -259h-23l-165 548h17l79 -263c27 -89 54 -180 80 -268h1l79 270l77 261h23l77 -261l79 -270h1c26 88 53 179 80 268l79 263h17z" />
    <glyph glyph-name="wcircumflex.smcp" horiz-adv-x="711" 
d="M462 614l-106 123l-106 -123h-21l119 138h16l119 -138h-21zM535 0h-23l-76 259c-27 91 -53 180 -80 273h-1c-27 -93 -53 -182 -80 -273l-76 -259h-23l-165 548h17l79 -263c27 -89 54 -180 80 -268h1l79 270l77 261h23l77 -261l79 -270h1c26 88 53 179 80 268l79 263h17z
" />
    <glyph glyph-name="wdieresis.smcp" horiz-adv-x="711" 
d="M272 675h-16v77h16v-77zM456 675h-16v77h16v-77zM535 0h-23l-76 259c-27 91 -53 180 -80 273h-1c-27 -93 -53 -182 -80 -273l-76 -259h-23l-165 548h17l79 -263c27 -89 54 -180 80 -268h1l79 270l77 261h23l77 -261l79 -270h1c26 88 53 179 80 268l79 263h17z" />
    <glyph glyph-name="wgrave.smcp" horiz-adv-x="711" 
d="M311 752l94 -138h-17l-98 138h21zM535 0h-23l-76 259c-27 91 -53 180 -80 273h-1c-27 -93 -53 -182 -80 -273l-76 -259h-23l-165 548h17l79 -263c27 -89 54 -180 80 -268h1l79 270l77 261h23l77 -261l79 -270h1c26 88 53 179 80 268l79 263h17z" />
    <glyph glyph-name="x.smcp" horiz-adv-x="490" 
d="M256 282l223 -282h-20l-213 269h-1l-214 -269h-20l224 282l-212 266h20l202 -253h1l201 253h20z" />
    <glyph glyph-name="y.smcp" horiz-adv-x="471" 
d="M244 244v-244h-16v244l-222 304h20l94 -130c39 -52 78 -105 116 -157h1l115 158l94 129h19z" />
    <glyph glyph-name="yacute.smcp" horiz-adv-x="471" 
d="M205 614h-17l94 138h21zM244 244v-244h-16v244l-222 304h20l94 -130c39 -52 78 -105 116 -157h1l115 158l94 129h19z" />
    <glyph glyph-name="ycircumflex.smcp" horiz-adv-x="471" 
d="M342 614l-106 123l-106 -123h-21l119 138h16l119 -138h-21zM244 244v-244h-16v244l-222 304h20l94 -130c39 -52 78 -105 116 -157h1l115 158l94 129h19z" />
    <glyph glyph-name="ydieresis.smcp" horiz-adv-x="471" 
d="M152 675h-16v77h16v-77zM336 675h-16v77h16v-77zM244 244v-244h-16v244l-222 304h20l94 -130c39 -52 78 -105 116 -157h1l115 158l94 129h19z" />
    <glyph glyph-name="ygrave.smcp" horiz-adv-x="471" 
d="M191 752l94 -138h-17l-98 138h21zM244 244v-244h-16v244l-222 304h20l94 -130c39 -52 78 -105 116 -157h1l115 158l94 129h19z" />
    <glyph glyph-name="z.smcp" horiz-adv-x="452" 
d="M419 528l-386 -511v-1h404v-16h-421v20l386 511v1h-382v16h399v-20z" />
    <glyph glyph-name="zacute.smcp" horiz-adv-x="452" 
d="M189 614h-17l94 138h21zM419 528l-386 -511v-1h404v-16h-421v20l386 511v1h-382v16h399v-20z" />
    <glyph glyph-name="zcaron.smcp" horiz-adv-x="452" 
d="M228 614h-16l-119 138h21l106 -123l106 123h21zM419 528l-386 -511v-1h404v-16h-421v20l386 511v1h-382v16h399v-20z" />
    <glyph glyph-name="zdotaccent.smcp" horiz-adv-x="452" 
d="M228 675h-16v77h16v-77zM419 528l-386 -511v-1h404v-16h-421v20l386 511v1h-382v16h399v-20z" />
    <glyph glyph-name="ccedilla.smcp.ss01" horiz-adv-x="553" 
d="M287 558c131 0 206 -84 213 -186h-16c-7 93 -76 170 -197 170c-141 0 -229 -104 -229 -268s86 -268 223 -268c119 0 195 73 206 172h16c-12 -110 -93 -188 -222 -188c-146 0 -239 111 -239 284s95 284 245 284zM192 -207h-22l126 158h18z" />
    <glyph glyph-name="scedilla.smcp.ss01" horiz-adv-x="483" 
d="M226 558c123 0 188 -62 188 -184h-16c0 113 -58 168 -172 168c-95 0 -153 -49 -153 -124c0 -79 51 -104 162 -130c123 -28 189 -51 189 -153c0 -89 -70 -145 -184 -145c-123 0 -193 63 -193 193h16c0 -121 63 -177 177 -177c105 0 168 49 168 129c0 93 -62 110 -176 137
c-117 28 -175 57 -175 146c0 84 66 140 169 140zM151 -207h-22l126 158h18z" />
    <glyph glyph-name="tcedilla.smcp.ss01" horiz-adv-x="467" 
d="M463 532h-221v-532h-16v532h-221v16h458v-16zM145 -207h-22l126 158h18z" />
    <glyph glyph-name="ordfeminine" unicode="&#xaa;" horiz-adv-x="358" 
d="M176 693c72 0 123 -40 123 -131v-154c0 -27 3 -59 7 -78h-16c-3 19 -6 49 -6 74h-1c-23 -49 -68 -81 -134 -81c-71 0 -120 39 -120 99c0 55 34 90 128 104c33 5 87 11 126 15v22c0 82 -44 115 -107 115c-73 0 -110 -42 -115 -99h-16c5 68 51 114 131 114zM283 483v43
c-37 -4 -92 -10 -124 -15c-85 -13 -113 -43 -113 -89c0 -52 42 -84 104 -84c44 0 76 15 98 39c26 29 35 50 35 106z" />
    <glyph glyph-name="ordmasculine" unicode="&#xba;" horiz-adv-x="382" 
d="M191 693c97 0 157 -70 157 -185s-60 -185 -157 -185s-157 70 -157 185s60 185 157 185zM191 677c-88 0 -141 -63 -141 -169s53 -169 141 -169s141 63 141 169s-53 169 -141 169z" />
    <glyph glyph-name="Delta" unicode="&#x394;" horiz-adv-x="633" 
d="M627 0h-621l300 712h21zM604 16l-154 364l-133 316h-1l-133 -316l-153 -364h574z" />
    <glyph glyph-name="Omega" unicode="&#x3a9;" horiz-adv-x="714" 
d="M357 722c175 0 299 -102 299 -316c0 -159 -85 -277 -194 -389v-1h205v-16h-226v16c112 115 199 230 199 390c0 202 -118 300 -283 300s-283 -98 -283 -300c0 -160 87 -275 199 -390v-16h-226v16h205v1c-109 112 -194 230 -194 389c0 214 124 316 299 316z" />
    <glyph glyph-name="mu" unicode="&#x3bc;" horiz-adv-x="547" 
d="M451 508v-399c0 -77 13 -96 50 -96c9 0 16 1 24 4v-16c-8 -3 -15 -4 -24 -4c-42 0 -66 22 -66 103c0 3 0 10 1 19h-1c-23 -82 -94 -129 -172 -129c-81 0 -139 39 -158 125h-1c3 -39 3 -76 3 -115v-185h-16v693h16v-309c0 -131 59 -193 156 -193c92 0 172 70 172 188v314
h16z" />
    <glyph glyph-name="pi" unicode="&#x3c0;" horiz-adv-x="625" 
d="M605 492h-140v-363c0 -92 33 -116 84 -116c11 0 24 2 32 5v-16c-8 -3 -21 -5 -32 -5c-60 0 -100 32 -100 132v363h-300v-492h-16v492h-118v16h590v-16z" />
    <glyph glyph-name="zero.lf" horiz-adv-x="544" 
d="M272 684c143 0 216 -119 216 -347c0 -230 -73 -347 -216 -347s-216 117 -216 347c0 228 73 347 216 347zM272 668c-134 0 -200 -112 -200 -331c0 -221 66 -331 200 -331s200 110 200 331c0 219 -66 331 -200 331z" />
    <glyph glyph-name="one.lf" horiz-adv-x="297" 
d="M177 0h-16v620h-1c-16 -51 -63 -74 -145 -74v16c94 0 135 30 146 112h16v-674z" />
    <glyph glyph-name="two.lf" horiz-adv-x="528" 
d="M269 684c113 0 189 -74 189 -179c0 -111 -63 -150 -193 -224c-167 -95 -191 -159 -191 -265h399v-16h-414c-1 8 -1 13 -1 16c0 113 30 181 198 278c127 73 186 107 186 211c0 96 -69 163 -173 163c-112 0 -176 -67 -185 -174h-16c9 116 80 190 201 190z" />
    <glyph glyph-name="three.lf" horiz-adv-x="526" 
d="M245 684c122 0 204 -71 204 -174c0 -93 -53 -146 -133 -165v-1c89 -19 148 -75 148 -172c0 -105 -92 -182 -215 -182c-126 0 -200 77 -200 190h16c0 -104 67 -174 184 -174c114 0 199 70 199 166c0 105 -76 164 -199 164h-46v16h46c119 0 184 61 184 158
c0 94 -75 158 -188 158c-107 0 -177 -62 -177 -172h-16c0 119 77 188 193 188z" />
    <glyph glyph-name="four.lf" horiz-adv-x="504" 
d="M488 207h-140v-207h-16v207h-317v20l308 447h25v-451h140v-16zM31 223h301v112v323h-1l-200 -290z" />
    <glyph glyph-name="five.lf" horiz-adv-x="520" 
d="M429 658h-314l-32 -326h1c29 60 86 99 170 99c125 0 204 -84 204 -218s-82 -223 -211 -223c-112 0 -185 68 -185 182h16c0 -105 66 -166 169 -166c120 0 195 82 195 207s-72 202 -188 202c-86 0 -149 -43 -176 -132l-15 1l38 390h328v-16z" />
    <glyph glyph-name="six.lf" horiz-adv-x="524" 
d="M280 684c102 0 164 -63 181 -164h-16c-17 92 -71 148 -165 148c-130 0 -213 -124 -209 -400h2c15 92 87 167 193 167c124 0 207 -88 207 -219c0 -136 -82 -226 -203 -226c-139 0 -214 103 -214 314c0 253 86 380 224 380zM266 419c-106 0 -183 -83 -183 -195
c0 -122 63 -218 187 -218c113 0 187 83 187 210c0 122 -76 203 -191 203z" />
    <glyph glyph-name="seven.lf" horiz-adv-x="458" 
d="M442 674v-16c-111 -166 -216 -359 -283 -658h-17c70 306 173 496 282 658h-409v16h427z" />
    <glyph glyph-name="eight.lf" horiz-adv-x="531" 
d="M265 684c113 0 194 -72 194 -176c0 -85 -58 -143 -135 -159v-1c84 -20 151 -80 151 -168c0 -112 -88 -190 -210 -190s-210 78 -210 190c0 88 67 148 151 168v1c-77 16 -135 74 -135 159c0 104 81 176 194 176zM265 668c-104 0 -178 -65 -178 -160c0 -89 70 -152 178 -152
s178 63 178 152c0 95 -74 160 -178 160zM265 340c-111 0 -194 -70 -194 -160c0 -103 81 -174 194 -174s194 71 194 174c0 90 -83 160 -194 160z" />
    <glyph glyph-name="nine.lf" horiz-adv-x="524" 
d="M244 -10c-102 0 -164 63 -181 164h16c17 -92 71 -148 165 -148c130 0 213 124 209 400h-2c-15 -92 -87 -167 -193 -167c-124 0 -207 88 -207 219c0 136 82 226 203 226c139 0 214 -103 214 -314c0 -253 -86 -380 -224 -380zM258 255c106 0 183 83 183 195
c0 122 -63 218 -187 218c-113 0 -187 -83 -187 -210c0 -122 76 -203 191 -203z" />
    <glyph glyph-name="fraction" unicode="&#x2044;" horiz-adv-x="102" 
d="M-137 0h-18l394 674h18z" />
    <glyph glyph-name="onehalf" unicode="&#xbd;" horiz-adv-x="619" 
d="M116 270h-16v357h-1c-13 -23 -42 -36 -90 -36v16c59 0 84 18 91 67h16v-404zM51 0h-18l394 674h18zM459 411c70 0 118 -45 118 -108c0 -68 -42 -94 -120 -137c-100 -55 -116 -91 -116 -150h245v-16h-261v10c0 70 18 111 123 169c75 42 113 63 113 124
c0 54 -41 92 -102 92c-66 0 -103 -38 -109 -100h-16c6 71 51 116 125 116z" />
    <glyph glyph-name="onequarter" unicode="&#xbc;" horiz-adv-x="585" 
d="M100 627h-1c-13 -23 -42 -36 -90 -36v16c59 0 84 18 91 67h16v-404h-16v357zM445 674l-394 -674h-18l394 674h18zM575 121h-84v-121h-16v121h-196v18l189 265h23v-267h84v-16zM297 137h178v63v185h-1l-119 -167z" />
    <glyph glyph-name="threequarters" unicode="&#xbe;" horiz-adv-x="724" 
d="M291 374c0 -64 -56 -111 -132 -111c-81 0 -129 47 -129 117h16c0 -61 41 -101 113 -101c67 0 116 40 116 95c0 60 -46 94 -121 94h-26v16h26c71 0 112 35 112 91c0 54 -43 90 -110 90c-65 0 -108 -35 -108 -99h-16c0 73 50 115 124 115c76 0 126 -43 126 -106
c0 -54 -31 -84 -80 -98v-1c55 -12 89 -45 89 -102zM584 674l-394 -674h-18l394 674h18zM714 121h-84v-121h-16v121h-196v18l189 265h23v-267h84v-16zM436 137h178v63v185h-1l-119 -167z" />
    <glyph glyph-name="oneeighth" unicode="&#x215b;" horiz-adv-x="620" 
d="M116 270h-16v357h-1c-13 -23 -42 -36 -90 -36v16c59 0 84 18 91 67h16v-404zM51 0h-18l394 674h18zM455 411c74 0 123 -43 123 -107c0 -49 -35 -83 -81 -94v-1c52 -13 90 -47 90 -101c0 -68 -52 -114 -132 -114s-132 46 -132 114c0 54 38 88 90 101v1
c-46 11 -81 45 -81 94c0 64 49 107 123 107zM455 395c-65 0 -107 -36 -107 -91c0 -52 43 -87 107 -87s107 35 107 87c0 55 -42 91 -107 91zM455 201c-66 0 -116 -39 -116 -93c0 -59 45 -98 116 -98s116 39 116 98c0 54 -50 93 -116 93z" />
    <glyph glyph-name="threeeighths" unicode="&#x215c;" horiz-adv-x="759" 
d="M156 681c76 0 126 -43 126 -106c0 -54 -31 -84 -80 -98v-1c55 -12 89 -45 89 -102c0 -64 -56 -111 -132 -111c-81 0 -129 47 -129 117h16c0 -61 41 -101 113 -101c67 0 116 40 116 95c0 60 -46 94 -121 94h-26v16h26c71 0 112 35 112 91c0 54 -43 90 -110 90
c-65 0 -108 -35 -108 -99h-16c0 73 50 115 124 115zM190 0h-18l394 674h18zM594 411c74 0 123 -43 123 -107c0 -49 -35 -83 -81 -94v-1c52 -13 90 -47 90 -101c0 -68 -52 -114 -132 -114s-132 46 -132 114c0 54 38 88 90 101v1c-46 11 -81 45 -81 94c0 64 49 107 123 107z
M594 395c-65 0 -107 -36 -107 -91c0 -52 43 -87 107 -87s107 35 107 87c0 55 -42 91 -107 91zM594 201c-66 0 -116 -39 -116 -93c0 -59 45 -98 116 -98s116 39 116 98c0 54 -50 93 -116 93z" />
    <glyph glyph-name="fiveeighths" unicode="&#x215d;" horiz-adv-x="756" 
d="M269 658h-193l-17 -175h2c19 29 51 47 98 47c79 0 128 -51 128 -132s-51 -135 -132 -135c-71 0 -118 42 -118 111h16c0 -60 40 -95 102 -95c72 0 116 47 116 119s-42 116 -112 116c-52 0 -89 -25 -104 -76l-17 1l23 235h208v-16zM187 0h-18l394 674h18zM591 411
c74 0 123 -43 123 -107c0 -49 -35 -83 -81 -94v-1c52 -13 90 -47 90 -101c0 -68 -52 -114 -132 -114s-132 46 -132 114c0 54 38 88 90 101v1c-46 11 -81 45 -81 94c0 64 49 107 123 107zM591 395c-65 0 -107 -36 -107 -91c0 -52 43 -87 107 -87s107 35 107 87
c0 55 -42 91 -107 91zM591 201c-66 0 -116 -39 -116 -93c0 -59 45 -98 116 -98s116 39 116 98c0 54 -50 93 -116 93z" />
    <glyph glyph-name="seveneighths" unicode="&#x215e;" horiz-adv-x="668" 
d="M276 674v-16c-68 -98 -131 -215 -172 -388h-17c43 181 106 295 171 388h-249v16h267zM99 0h-18l394 674h18zM503 411c74 0 123 -43 123 -107c0 -49 -35 -83 -81 -94v-1c52 -13 90 -47 90 -101c0 -68 -52 -114 -132 -114s-132 46 -132 114c0 54 38 88 90 101v1
c-46 11 -81 45 -81 94c0 64 49 107 123 107zM503 395c-65 0 -107 -36 -107 -91c0 -52 43 -87 107 -87s107 35 107 87c0 55 -42 91 -107 91zM503 201c-66 0 -116 -39 -116 -93c0 -59 45 -98 116 -98s116 39 116 98c0 54 -50 93 -116 93z" />
    <glyph glyph-name="zero.dnom" horiz-adv-x="340" 
d="M170 411c90 0 136 -72 136 -209s-46 -209 -136 -209s-136 72 -136 209s46 209 136 209zM170 395c-81 0 -120 -65 -120 -193s39 -193 120 -193s120 65 120 193s-39 193 -120 193z" />
    <glyph glyph-name="one.dnom" horiz-adv-x="188" 
d="M116 0h-16v357h-1c-13 -23 -42 -36 -90 -36v16c59 0 84 18 91 67h16v-404z" />
    <glyph glyph-name="two.dnom" horiz-adv-x="329" 
d="M169 411c70 0 118 -45 118 -108c0 -68 -42 -94 -120 -137c-100 -55 -116 -91 -116 -150h245v-16h-261v10c0 70 18 111 123 169c75 42 113 63 113 124c0 54 -41 92 -102 92c-66 0 -103 -38 -109 -100h-16c6 71 51 116 125 116z" />
    <glyph glyph-name="three.dnom" horiz-adv-x="327" 
d="M155 411c76 0 126 -43 126 -106c0 -54 -31 -84 -80 -98v-1c55 -12 89 -45 89 -102c0 -64 -56 -111 -132 -111c-81 0 -129 47 -129 117h16c0 -61 41 -101 113 -101c67 0 116 40 116 95c0 60 -46 94 -121 94h-26v16h26c71 0 112 35 112 91c0 54 -43 90 -110 90
c-65 0 -108 -35 -108 -99h-16c0 73 50 115 124 115z" />
    <glyph glyph-name="four.dnom" horiz-adv-x="315" 
d="M305 121h-84v-121h-16v121h-196v18l189 265h23v-267h84v-16zM27 137h178v63v185h-1l-119 -167z" />
    <glyph glyph-name="five.dnom" horiz-adv-x="324" 
d="M269 388h-193l-17 -175h2c19 29 51 47 98 47c79 0 128 -51 128 -132s-51 -135 -132 -135c-71 0 -118 42 -118 111h16c0 -60 40 -95 102 -95c72 0 116 47 116 119s-42 116 -112 116c-52 0 -89 -25 -104 -76l-17 1l23 235h208v-16z" />
    <glyph glyph-name="six.dnom" horiz-adv-x="326" 
d="M175 411c65 0 104 -39 114 -101h-16c-10 53 -43 85 -98 85c-77 0 -127 -68 -125 -217h1c14 47 57 84 117 84c77 0 128 -53 128 -132c0 -82 -51 -136 -128 -136c-87 0 -134 62 -134 189c0 151 53 228 141 228zM168 246c-64 0 -111 -48 -111 -113c0 -70 39 -123 111 -123
c68 0 112 47 112 120c0 70 -44 116 -112 116z" />
    <glyph glyph-name="seven.dnom" horiz-adv-x="286" 
d="M276 404v-16c-68 -98 -131 -215 -172 -388h-17c43 181 106 295 171 388h-249v16h267z" />
    <glyph glyph-name="eight.dnom" horiz-adv-x="330" 
d="M165 411c74 0 123 -43 123 -107c0 -49 -35 -83 -81 -94v-1c52 -13 90 -47 90 -101c0 -68 -52 -114 -132 -114s-132 46 -132 114c0 54 38 88 90 101v1c-46 11 -81 45 -81 94c0 64 49 107 123 107zM165 395c-65 0 -107 -36 -107 -91c0 -52 43 -87 107 -87s107 35 107 87
c0 55 -42 91 -107 91zM165 201c-66 0 -116 -39 -116 -93c0 -59 45 -98 116 -98s116 39 116 98c0 54 -50 93 -116 93z" />
    <glyph glyph-name="nine.dnom" horiz-adv-x="326" 
d="M151 -6c-65 0 -104 39 -114 101h16c10 -53 43 -85 98 -85c77 0 127 68 125 217h-1c-14 -47 -57 -84 -117 -84c-77 0 -128 53 -128 132c0 82 51 136 128 136c87 0 134 -62 134 -189c0 -151 -53 -228 -141 -228zM158 159c64 0 111 48 111 113c0 70 -39 123 -111 123
c-68 0 -112 -47 -112 -120c0 -70 44 -116 112 -116z" />
    <glyph glyph-name="zero.numr" horiz-adv-x="340" 
d="M170 681c90 0 136 -72 136 -209s-46 -209 -136 -209s-136 72 -136 209s46 209 136 209zM170 665c-81 0 -120 -65 -120 -193s39 -193 120 -193s120 65 120 193s-39 193 -120 193z" />
    <glyph glyph-name="one.numr" horiz-adv-x="188" 
d="M116 270h-16v357h-1c-13 -23 -42 -36 -90 -36v16c59 0 84 18 91 67h16v-404z" />
    <glyph glyph-name="two.numr" horiz-adv-x="329" 
d="M169 681c70 0 118 -45 118 -108c0 -68 -42 -94 -120 -137c-100 -55 -116 -91 -116 -150h245v-16h-261v10c0 70 18 111 123 169c75 42 113 63 113 124c0 54 -41 92 -102 92c-66 0 -103 -38 -109 -100h-16c6 71 51 116 125 116z" />
    <glyph glyph-name="three.numr" horiz-adv-x="327" 
d="M156 681c76 0 126 -43 126 -106c0 -54 -31 -84 -80 -98v-1c55 -12 89 -45 89 -102c0 -64 -56 -111 -132 -111c-81 0 -129 47 -129 117h16c0 -61 41 -101 113 -101c67 0 116 40 116 95c0 60 -46 94 -121 94h-26v16h26c71 0 112 35 112 91c0 54 -43 90 -110 90
c-65 0 -108 -35 -108 -99h-16c0 73 50 115 124 115z" />
    <glyph glyph-name="four.numr" horiz-adv-x="315" 
d="M305 391h-84v-121h-16v121h-196v18l189 265h23v-267h84v-16zM27 407h178v63v185h-1l-119 -167z" />
    <glyph glyph-name="five.numr" horiz-adv-x="324" 
d="M269 658h-193l-17 -175h2c19 29 51 47 98 47c79 0 128 -51 128 -132s-51 -135 -132 -135c-71 0 -118 42 -118 111h16c0 -60 40 -95 102 -95c72 0 116 47 116 119s-42 116 -112 116c-52 0 -89 -25 -104 -76l-17 1l23 235h208v-16z" />
    <glyph glyph-name="six.numr" horiz-adv-x="326" 
d="M174 681c65 0 104 -39 114 -101h-16c-10 53 -43 85 -98 85c-77 0 -127 -68 -125 -217h1c14 47 57 84 117 84c77 0 128 -53 128 -132c0 -82 -51 -136 -128 -136c-87 0 -134 62 -134 189c0 151 53 228 141 228zM167 516c-64 0 -111 -48 -111 -113c0 -70 39 -123 111 -123
c68 0 112 47 112 120c0 70 -44 116 -112 116z" />
    <glyph glyph-name="seven.numr" horiz-adv-x="286" 
d="M276 674v-16c-68 -98 -131 -215 -172 -388h-17c43 181 106 295 171 388h-249v16h267z" />
    <glyph glyph-name="eight.numr" horiz-adv-x="330" 
d="M165 681c74 0 123 -43 123 -107c0 -49 -35 -83 -81 -94v-1c52 -13 90 -47 90 -101c0 -68 -52 -114 -132 -114s-132 46 -132 114c0 54 38 88 90 101v1c-46 11 -81 45 -81 94c0 64 49 107 123 107zM165 665c-65 0 -107 -36 -107 -91c0 -52 43 -87 107 -87s107 35 107 87
c0 55 -42 91 -107 91zM165 471c-66 0 -116 -39 -116 -93c0 -59 45 -98 116 -98s116 39 116 98c0 54 -50 93 -116 93z" />
    <glyph glyph-name="nine.numr" horiz-adv-x="326" 
d="M151 264c-65 0 -104 39 -114 101h16c10 -53 43 -85 98 -85c77 0 127 68 125 217h-1c-14 -47 -57 -84 -117 -84c-77 0 -128 53 -128 132c0 82 51 136 128 136c87 0 134 -62 134 -189c0 -151 -53 -228 -141 -228zM158 429c64 0 111 48 111 113c0 70 -39 123 -111 123
c-68 0 -112 -47 -112 -120c0 -70 44 -116 112 -116z" />
    <glyph glyph-name="zeroinferior" unicode="&#x2080;" horiz-adv-x="392" 
d="M196 307c104 0 157 -83 157 -243c0 -161 -53 -243 -157 -243s-157 82 -157 243c0 160 53 243 157 243zM196 291c-94 0 -140 -77 -140 -227c0 -152 46 -228 140 -228s140 76 140 228c0 150 -46 227 -140 227z" />
    <glyph glyph-name="oneinferior" unicode="&#x2081;" horiz-adv-x="216" 
d="M130 -172h-16v424h-1c-14 -32 -48 -46 -104 -46v15c68 0 98 21 106 79h15v-472z" />
    <glyph glyph-name="twoinferior" unicode="&#x2082;" horiz-adv-x="381" 
d="M194 307c82 0 138 -52 138 -126c0 -78 -47 -107 -139 -158c-117 -65 -136 -109 -136 -179h285v-16h-300c-1 5 -1 9 -1 12c0 80 22 128 143 196c89 50 132 74 132 145c0 65 -49 110 -122 110c-79 0 -124 -45 -130 -118h-16c6 82 59 134 146 134z" />
    <glyph glyph-name="threeinferior" unicode="&#x2083;" horiz-adv-x="379" 
d="M178 307c89 0 148 -50 148 -122c0 -64 -37 -102 -94 -115v-1c64 -14 104 -53 104 -120c0 -74 -66 -128 -155 -128c-93 0 -147 53 -147 135h16c0 -73 47 -119 131 -119c80 0 139 47 139 112c0 72 -54 112 -141 112h-31v16h31c84 0 131 41 131 107c0 64 -53 107 -132 107
c-76 0 -126 -42 -126 -117h-16c0 84 57 133 142 133z" />
    <glyph glyph-name="fourinferior" unicode="&#x2084;" horiz-adv-x="365" 
d="M353 -30h-99v-142h-16v142h-228v19l220 311h24v-314h99v-16zM26 -14h212v77v220h-1c-47 -67 -93 -132 -140 -198z" />
    <glyph glyph-name="fiveinferior" unicode="&#x2085;" horiz-adv-x="375" 
d="M311 284h-226l-21 -218h1c21 39 61 65 119 65c90 0 148 -59 148 -153c0 -95 -60 -157 -154 -157c-81 0 -135 48 -135 128h16c0 -71 47 -112 119 -112c85 0 138 55 138 141c0 85 -51 137 -132 137c-60 0 -105 -30 -124 -90l-16 1l27 274h240v-16z" />
    <glyph glyph-name="sixinferior" unicode="&#x2086;" horiz-adv-x="378" 
d="M202 307c74 0 120 -45 132 -117h-17c-12 63 -50 101 -115 101c-91 0 -150 -83 -148 -267h1c13 62 65 109 138 109c89 0 149 -62 149 -154c0 -95 -60 -158 -148 -158c-100 0 -155 72 -155 220c0 177 62 266 163 266zM193 117c-75 0 -130 -56 -130 -133
c0 -83 45 -147 131 -147c79 0 132 56 132 142c0 83 -53 138 -133 138z" />
    <glyph glyph-name="seveninferior" unicode="&#x2087;" horiz-adv-x="331" 
d="M319 300v-16c-79 -115 -154 -251 -201 -456h-17c50 212 124 346 200 456h-291v16h309z" />
    <glyph glyph-name="eightinferior" unicode="&#x2088;" horiz-adv-x="384" 
d="M191 307c83 0 142 -51 142 -124c0 -58 -41 -98 -95 -111v-1c60 -15 106 -56 106 -117c0 -79 -64 -133 -153 -133s-153 54 -153 133c0 61 46 102 106 117v1c-54 13 -95 53 -95 111c0 73 59 124 142 124zM191 291c-74 0 -126 -44 -126 -108c0 -61 50 -104 126 -104
s126 43 126 104c0 64 -52 108 -126 108zM191 64c-78 0 -137 -48 -137 -110c0 -70 57 -117 137 -117s137 47 137 117c0 62 -59 110 -137 110z" />
    <glyph glyph-name="nineinferior" unicode="&#x2089;" horiz-adv-x="378" 
d="M176 -179c-74 0 -120 45 -132 117h17c12 -63 50 -101 115 -101c91 0 150 83 148 267h-1c-13 -62 -65 -109 -138 -109c-89 0 -149 62 -149 154c0 95 60 158 148 158c100 0 155 -72 155 -220c0 -177 -62 -266 -163 -266zM185 11c75 0 130 56 130 133c0 83 -45 147 -131 147
c-79 0 -132 -56 -132 -142c0 -83 53 -138 133 -138z" />
    <glyph glyph-name="zerosuperior" unicode="&#x2070;" horiz-adv-x="392" 
d="M196 809c104 0 157 -83 157 -243c0 -161 -53 -243 -157 -243s-157 82 -157 243c0 160 53 243 157 243zM196 793c-94 0 -140 -77 -140 -227c0 -152 46 -228 140 -228s140 76 140 228c0 150 -46 227 -140 227z" />
    <glyph glyph-name="onesuperior" unicode="&#xb9;" horiz-adv-x="216" 
d="M131 330h-16v424h-1c-14 -32 -48 -46 -104 -46v15c68 0 98 21 106 79h15v-472z" />
    <glyph glyph-name="twosuperior" unicode="&#xb2;" horiz-adv-x="381" 
d="M194 809c82 0 138 -52 138 -126c0 -78 -47 -107 -139 -158c-117 -65 -136 -109 -136 -179h285v-16h-300c-1 5 -1 9 -1 12c0 80 22 128 143 196c89 50 132 74 132 145c0 65 -49 110 -122 110c-79 0 -124 -45 -130 -118h-16c6 82 59 134 146 134z" />
    <glyph glyph-name="threesuperior" unicode="&#xb3;" horiz-adv-x="379" 
d="M178 809c89 0 148 -50 148 -122c0 -64 -37 -102 -94 -115v-1c64 -14 104 -53 104 -120c0 -74 -66 -128 -155 -128c-93 0 -147 53 -147 135h16c0 -73 47 -119 131 -119c80 0 139 47 139 112c0 72 -54 112 -141 112h-31v16h31c84 0 131 41 131 107c0 64 -53 107 -132 107
c-76 0 -126 -42 -126 -117h-16c0 84 57 133 142 133z" />
    <glyph glyph-name="foursuperior" unicode="&#x2074;" horiz-adv-x="365" 
d="M354 472h-99v-142h-16v142h-228v19l220 311h24v-314h99v-16zM27 488h212v77v220h-1c-47 -67 -93 -132 -140 -198z" />
    <glyph glyph-name="fivesuperior" unicode="&#x2075;" horiz-adv-x="375" 
d="M311 786h-226l-21 -218h1c21 39 61 65 119 65c90 0 148 -59 148 -153c0 -95 -60 -157 -154 -157c-81 0 -135 48 -135 128h16c0 -71 47 -112 119 -112c85 0 138 55 138 141c0 85 -51 137 -132 137c-60 0 -105 -30 -124 -90l-16 1l27 274h240v-16z" />
    <glyph glyph-name="sixsuperior" unicode="&#x2076;" horiz-adv-x="378" 
d="M202 809c74 0 120 -45 132 -117h-17c-12 63 -50 101 -115 101c-91 0 -150 -83 -148 -267h1c13 62 65 109 138 109c89 0 149 -62 149 -154c0 -95 -60 -158 -148 -158c-100 0 -155 72 -155 220c0 177 62 266 163 266zM193 619c-75 0 -130 -56 -130 -133
c0 -83 45 -147 131 -147c79 0 132 56 132 142c0 83 -53 138 -133 138z" />
    <glyph glyph-name="sevensuperior" unicode="&#x2077;" horiz-adv-x="331" 
d="M320 802v-16c-79 -115 -154 -251 -201 -456h-17c50 212 124 346 200 456h-291v16h309z" />
    <glyph glyph-name="eightsuperior" unicode="&#x2078;" horiz-adv-x="384" 
d="M192 809c83 0 142 -51 142 -124c0 -58 -41 -98 -95 -111v-1c60 -15 106 -56 106 -117c0 -79 -64 -133 -153 -133s-153 54 -153 133c0 61 46 102 106 117v1c-54 13 -95 53 -95 111c0 73 59 124 142 124zM192 793c-74 0 -126 -44 -126 -108c0 -61 50 -104 126 -104
s126 43 126 104c0 64 -52 108 -126 108zM192 566c-78 0 -137 -48 -137 -110c0 -70 57 -117 137 -117s137 47 137 117c0 62 -59 110 -137 110z" />
    <glyph glyph-name="ninesuperior" unicode="&#x2079;" horiz-adv-x="378" 
d="M176 323c-74 0 -120 45 -132 117h17c12 -63 50 -101 115 -101c91 0 150 83 148 267h-1c-13 -62 -65 -109 -138 -109c-89 0 -149 62 -149 154c0 95 60 158 148 158c100 0 155 -72 155 -220c0 -177 -62 -266 -163 -266zM185 513c75 0 130 56 130 133c0 83 -45 147 -131 147
c-79 0 -132 -56 -132 -142c0 -83 53 -138 133 -138z" />
    <glyph glyph-name="zero.smcp" horiz-adv-x="438" 
d="M219 556c120 0 182 -96 182 -282s-62 -282 -182 -282s-182 96 -182 282s62 282 182 282zM219 540c-111 0 -166 -89 -166 -266s55 -266 166 -266s166 89 166 266s-55 266 -166 266z" />
    <glyph glyph-name="one.smcp" horiz-adv-x="438" 
d="M238 0h-16v498h-1c-15 -39 -55 -57 -122 -57v16c79 -1 114 24 123 91h16v-548z" />
    <glyph glyph-name="two.smcp" horiz-adv-x="438" 
d="M220 556c95 0 159 -60 159 -146c0 -90 -54 -123 -162 -183c-139 -76 -159 -127 -159 -211h334v-16h-349c-1 6 -1 12 -1 16c0 93 26 145 167 224c105 59 154 87 154 170c0 77 -57 130 -143 130c-93 0 -147 -53 -154 -139h-16c8 95 68 155 170 155z" />
    <glyph glyph-name="three.smcp" horiz-adv-x="438" 
d="M213 556c99 0 166 -58 166 -142c0 -74 -44 -117 -111 -133v-1c75 -17 123 -62 123 -140c0 -86 -77 -148 -181 -148c-106 0 -169 62 -169 155h16c0 -84 56 -139 153 -139c95 0 165 55 165 132c0 84 -63 132 -166 132h-38v15h38c99 0 154 49 154 127c0 75 -60 126 -150 126
c-93 0 -153 -49 -153 -138h-16c0 98 67 154 169 154z" />
    <glyph glyph-name="four.smcp" horiz-adv-x="438" 
d="M417 167h-117v-167h-16v167h-266v19l258 362h24v-365h117v-16zM35 183h249v90v258h-1c-55 -78 -109 -154 -165 -232z" />
    <glyph glyph-name="five.smcp" horiz-adv-x="438" 
d="M362 532h-263l-26 -259h1c24 48 72 78 141 78c105 0 172 -68 172 -177c0 -110 -70 -182 -178 -182c-95 0 -157 55 -157 148h16c0 -84 55 -132 141 -132c99 0 162 65 162 166c0 100 -60 161 -156 161c-71 0 -124 -34 -147 -106l-15 1l32 318h277v-16z" />
    <glyph glyph-name="six.smcp" horiz-adv-x="438" 
d="M233 556c86 0 139 -51 153 -134h-16c-15 74 -59 118 -137 118c-108 0 -177 -98 -174 -319h1c14 75 75 133 162 133c104 0 174 -72 174 -178c0 -111 -69 -184 -171 -184c-118 0 -181 84 -181 255c0 206 72 309 189 309zM222 338c-88 0 -153 -66 -153 -156
c0 -98 53 -174 156 -174c93 0 155 66 155 168c0 97 -63 162 -158 162z" />
    <glyph glyph-name="seven.smcp" horiz-adv-x="438" 
d="M394 548v-16c-93 -134 -182 -292 -237 -532h-17c59 247 145 402 236 532h-342v16h360z" />
    <glyph glyph-name="eight.smcp" horiz-adv-x="438" 
d="M219 556c95 0 164 -59 164 -143c0 -69 -48 -115 -112 -129v-1c70 -17 125 -65 125 -136c0 -92 -74 -155 -177 -155s-177 63 -177 155c0 71 55 119 125 136v1c-64 14 -112 60 -112 129c0 84 69 143 164 143zM219 540c-86 0 -148 -52 -148 -127c0 -72 59 -122 148 -122
s148 50 148 122c0 75 -62 127 -148 127zM219 275c-92 0 -161 -56 -161 -128c0 -83 67 -139 161 -139s161 56 161 139c0 72 -69 128 -161 128z" />
    <glyph glyph-name="nine.smcp" horiz-adv-x="438" 
d="M205 -8c-86 0 -139 51 -153 134h16c15 -74 59 -118 137 -118c108 0 177 98 174 319h-1c-14 -75 -75 -133 -162 -133c-104 0 -174 72 -174 178c0 111 69 184 171 184c118 0 181 -84 181 -255c0 -206 -72 -309 -189 -309zM216 210c88 0 153 66 153 156
c0 98 -53 174 -156 174c-93 0 -155 -66 -155 -168c0 -97 63 -162 158 -162z" />
    <glyph glyph-name="zero.lf.smcp" horiz-adv-x="465" 
d="M232 556c120 0 182 -96 182 -282s-62 -282 -182 -282s-182 96 -182 282s62 282 182 282zM232 540c-111 0 -166 -89 -166 -266s55 -266 166 -266s166 89 166 266s-55 266 -166 266z" />
    <glyph glyph-name="one.lf.smcp" horiz-adv-x="260" 
d="M152 0h-16v498h-1c-15 -39 -55 -57 -122 -57v16c79 -1 114 24 123 91h16v-548z" />
    <glyph glyph-name="two.lf.smcp" horiz-adv-x="452" 
d="M230 556c95 0 159 -60 159 -146c0 -90 -54 -123 -162 -183c-139 -76 -159 -127 -159 -211h334v-16h-349c-1 6 -1 12 -1 16c0 93 26 145 167 224c105 59 154 87 154 170c0 77 -57 130 -143 130c-93 0 -147 -53 -154 -139h-16c8 95 68 155 170 155z" />
    <glyph glyph-name="three.lf.smcp" horiz-adv-x="450" 
d="M216 556c99 0 166 -58 166 -142c0 -74 -44 -117 -111 -133v-1c75 -17 123 -62 123 -140c0 -86 -77 -148 -181 -148c-106 0 -169 62 -169 155h16c0 -84 56 -139 153 -139c95 0 165 55 165 132c0 84 -63 132 -166 132h-38v15h38c99 0 154 49 154 127c0 75 -60 126 -150 126
c-93 0 -153 -49 -153 -138h-16c0 98 67 154 169 154z" />
    <glyph glyph-name="four.lf.smcp" horiz-adv-x="426" 
d="M412 167h-117v-167h-16v167h-266v19l258 362h24v-365h117v-16zM30 183h249v90v258h-1c-55 -78 -109 -154 -165 -232z" />
    <glyph glyph-name="five.lf.smcp" horiz-adv-x="447" 
d="M366 532h-263l-26 -259h1c24 48 72 78 141 78c105 0 172 -68 172 -177c0 -110 -70 -182 -178 -182c-95 0 -157 55 -157 148h16c0 -84 55 -132 141 -132c99 0 162 65 162 166c0 100 -60 161 -156 161c-71 0 -124 -34 -147 -106l-15 1l32 318h277v-16z" />
    <glyph glyph-name="six.lf.smcp" horiz-adv-x="448" 
d="M239 556c86 0 139 -51 153 -134h-16c-15 74 -59 118 -137 118c-108 0 -177 -98 -174 -319h1c14 75 75 133 162 133c104 0 174 -72 174 -178c0 -111 -69 -184 -171 -184c-118 0 -181 84 -181 255c0 206 72 309 189 309zM228 338c-88 0 -153 -66 -153 -156
c0 -98 53 -174 156 -174c93 0 155 66 155 168c0 97 -63 162 -158 162z" />
    <glyph glyph-name="seven.lf.smcp" horiz-adv-x="387" 
d="M373 548v-16c-93 -134 -182 -292 -237 -532h-17c59 247 145 402 236 532h-342v16h360z" />
    <glyph glyph-name="eight.lf.smcp" horiz-adv-x="454" 
d="M227 556c95 0 164 -59 164 -143c0 -69 -48 -115 -112 -129v-1c70 -17 125 -65 125 -136c0 -92 -74 -155 -177 -155s-177 63 -177 155c0 71 55 119 125 136v1c-64 14 -112 60 -112 129c0 84 69 143 164 143zM227 540c-86 0 -148 -52 -148 -127c0 -72 59 -122 148 -122
s148 50 148 122c0 75 -62 127 -148 127zM227 275c-92 0 -161 -56 -161 -128c0 -83 67 -139 161 -139s161 56 161 139c0 72 -69 128 -161 128z" />
    <glyph glyph-name="nine.lf.smcp" horiz-adv-x="448" 
d="M209 -8c-86 0 -139 51 -153 134h16c15 -74 59 -118 137 -118c108 0 177 98 174 319h-1c-14 -75 -75 -133 -162 -133c-104 0 -174 72 -174 178c0 111 69 184 171 184c118 0 181 -84 181 -255c0 -206 -72 -309 -189 -309zM220 210c88 0 153 66 153 156
c0 98 -53 174 -156 174c-93 0 -155 -66 -155 -168c0 -97 63 -162 158 -162z" />
    <glyph glyph-name="periodcentered" unicode="&#xb7;" horiz-adv-x="136" 
d="M77 270h-18v72h18v-72z" />
    <glyph glyph-name="bullet" unicode="&#x2022;" horiz-adv-x="300" 
d="M150 266c-49 0 -90 40 -90 90c0 49 41 90 90 90c50 0 90 -41 90 -90c0 -50 -40 -90 -90 -90z" />
    <glyph glyph-name="ellipsis" unicode="&#x2026;" horiz-adv-x="476" 
d="M77 0h-18v72h18v-72zM247 0h-18v72h18v-72zM417 0h-18v72h18v-72z" />
    <glyph glyph-name="exclamdown" unicode="&#xa1;" horiz-adv-x="202" 
d="M92 508h18v-69h-18v69zM96 372h10l4 -576h-18z" />
    <glyph glyph-name="overline" unicode="&#x203e;" horiz-adv-x="500" 
d="M500 802h-500v16h500v-16z" />
    <glyph glyph-name="questiondown" unicode="&#xbf;" horiz-adv-x="432" 
d="M250 508h18v-69h-18v69zM233 -214c-111 0 -193 71 -193 171c0 70 22 108 112 185c82 70 100 103 100 229h13v-21c0 -110 -20 -149 -102 -219c-89 -76 -107 -111 -107 -174c0 -91 75 -155 177 -155c107 0 175 61 183 173h16c-9 -122 -83 -189 -199 -189z" />
    <glyph glyph-name="underscoredbl" unicode="&#x2017;" horiz-adv-x="500" 
d="M500 -66h-500v16h500v-16zM500 -186h-500v16h500v-16z" />
    <glyph glyph-name="periodcentered.case" horiz-adv-x="136" 
d="M77 320h-18v72h18v-72z" />
    <glyph glyph-name="exclamdown.case" horiz-adv-x="202" 
d="M92 712h18v-69h-18v69zM96 576h10l4 -576h-18z" />
    <glyph glyph-name="periodcentered.loclCAT.case" horiz-adv-x="80" 
d="M-100 355h-18v72h18v-72z" />
    <glyph glyph-name="questiondown.case" horiz-adv-x="468" 
d="M250 712h18v-69h-18v69zM233 -10c-111 0 -193 71 -193 171c0 70 22 108 112 185c82 70 100 103 100 229h13v-21c0 -110 -20 -149 -102 -219c-89 -76 -107 -111 -107 -174c0 -91 75 -155 177 -155c107 0 175 61 183 173h16c-9 -122 -83 -189 -199 -189z" />
    <glyph glyph-name="slash.case" horiz-adv-x="395" 
d="M79 0h-17l253 712h17z" />
    <glyph glyph-name="periodcentered.loclCAT" horiz-adv-x="124" 
d="M71 318h-18v72h18v-72z" />
    <glyph glyph-name="parenleftinferior" unicode="&#x208d;" horiz-adv-x="168" 
d="M130 347h17c-62 -95 -92 -185 -92 -311c0 -127 30 -217 92 -311h-17c-60 90 -91 181 -91 311s31 220 91 311z" />
    <glyph glyph-name="parenleftsuperior" unicode="&#x207d;" horiz-adv-x="168" 
d="M130 849h17c-62 -95 -92 -185 -92 -311c0 -127 30 -217 92 -311h-17c-60 90 -91 181 -91 311s31 220 91 311z" />
    <glyph glyph-name="parenrightinferior" unicode="&#x208e;" horiz-adv-x="168" 
d="M38 -275h-17c62 95 92 185 92 311c0 127 -30 217 -92 311h17c60 -90 91 -181 91 -311s-31 -220 -91 -311z" />
    <glyph glyph-name="parenrightsuperior" unicode="&#x207e;" horiz-adv-x="168" 
d="M38 227h-17c62 95 92 185 92 311c0 127 -30 217 -92 311h17c60 -90 91 -181 91 -311s-31 -220 -91 -311z" />
    <glyph glyph-name="braceleft.case" horiz-adv-x="279" 
d="M259 772v-16c-94 0 -133 -39 -133 -133v-146c0 -66 -17 -100 -72 -120v-2c55 -20 72 -54 72 -120v-146c0 -94 39 -133 133 -133v-16h-2c-100 0 -147 46 -147 149v146c0 66 -18 92 -70 110v22c52 18 70 44 70 110v146c0 103 47 149 147 149h2z" />
    <glyph glyph-name="braceright.case" horiz-adv-x="279" 
d="M20 772h2c100 0 147 -46 147 -149v-146c0 -66 18 -92 70 -110v-22c-52 -18 -70 -44 -70 -110v-146c0 -103 -47 -149 -147 -149h-2v16c94 0 133 39 133 133v146c0 66 17 100 72 120v2c-55 20 -72 54 -72 120v146c0 94 -39 133 -133 133v16z" />
    <glyph glyph-name="bracketleft.case" horiz-adv-x="238" 
d="M218 755h-122v-799h122v-16h-138v831h138v-16z" />
    <glyph glyph-name="bracketright.case" horiz-adv-x="238" 
d="M158 771v-831h-138v16h122v799h-122v16h138z" />
    <glyph glyph-name="parenleft.case" horiz-adv-x="230" 
d="M182 772h18c-87 -125 -128 -245 -128 -416s41 -291 128 -416h-18c-84 121 -126 241 -126 416s42 295 126 416z" />
    <glyph glyph-name="parenright.case" horiz-adv-x="230" 
d="M30 772h18c84 -121 126 -241 126 -416s-42 -295 -126 -416h-18c87 125 128 245 128 416s-41 291 -128 416z" />
    <glyph glyph-name="bracketleft.sups" horiz-adv-x="171" 
d="M157 833h-85v-590h85v-16h-101v622h101v-16z" />
    <glyph glyph-name="bracketright.sups" horiz-adv-x="171" 
d="M115 849v-622h-101v16h85v590h-85v16h101z" />
    <glyph glyph-name="emdash" unicode="&#x2014;" horiz-adv-x="1000" 
d="M980 284h-960v16h960v-16z" />
    <glyph glyph-name="endash" unicode="&#x2013;" horiz-adv-x="500" 
d="M480 284h-460v16h460v-16z" />
    <glyph glyph-name="horizontalbar" unicode="&#x2015;" horiz-adv-x="1000" 
d="M980 284h-960v16h960v-16z" />
    <glyph glyph-name="hyphentwo" unicode="&#x2010;" horiz-adv-x="274" 
d="M244 284h-214v16h214v-16z" />
    <glyph glyph-name="softhyphen" unicode="&#xad;" horiz-adv-x="274" 
d="M244 284h-214v16h214v-16z" />
    <glyph glyph-name="emdash.case" horiz-adv-x="1000" 
d="M980 348h-960v16h960v-16z" />
    <glyph glyph-name="endash.case" horiz-adv-x="500" 
d="M480 348h-460v16h460v-16z" />
    <glyph glyph-name="hyphen.case" horiz-adv-x="274" 
d="M244 348h-214v16h214v-16z" />
    <glyph glyph-name="guillemetleft" unicode="&#xab;" horiz-adv-x="360" 
d="M73 254l114 -200h-18l-114 200l114 200h18zM191 254l114 -200h-18l-114 200l114 200h18z" />
    <glyph glyph-name="guillemetright" unicode="&#xbb;" horiz-adv-x="360" 
d="M73 454l114 -200l-114 -200h-18l114 200l-114 200h18zM191 454l114 -200l-114 -200h-18l114 200l-114 200h18z" />
    <glyph glyph-name="guilsinglleft" unicode="&#x2039;" horiz-adv-x="242" 
d="M73 254l114 -200h-18l-114 200l114 200h18z" />
    <glyph glyph-name="guilsinglright" unicode="&#x203a;" horiz-adv-x="242" 
d="M73 454l114 -200l-114 -200h-18l114 200l-114 200h18z" />
    <glyph glyph-name="quotedblbase" unicode="&#x201e;" horiz-adv-x="258" 
d="M96 -17l-35 -127h-14l33 127v71h16v-71zM198 -17l-35 -127h-14l33 127v71h16v-71z" />
    <glyph glyph-name="quotedblleft" unicode="&#x201c;" horiz-adv-x="258" 
d="M60 585l35 127h14l-33 -127v-71h-16v71zM162 585l35 127h14l-33 -127v-71h-16v71z" />
    <glyph glyph-name="quotedblright" unicode="&#x201d;" horiz-adv-x="258" 
d="M96 641l-35 -127h-14l33 127v71h16v-71zM198 641l-35 -127h-14l33 127v71h16v-71z" />
    <glyph glyph-name="quoteleft" unicode="&#x2018;" horiz-adv-x="156" 
d="M60 585l35 127h14l-33 -127v-71h-16v71z" />
    <glyph glyph-name="quoteright" unicode="&#x2019;" horiz-adv-x="156" 
d="M96 641l-35 -127h-14l33 127v71h16v-71z" />
    <glyph glyph-name="quotesinglbase" unicode="&#x201a;" horiz-adv-x="156" 
d="M96 -17l-35 -127h-14l33 127v71h16v-71z" />
    <glyph glyph-name="guillemetleft.case" horiz-adv-x="360" 
d="M73 356l114 -200h-18l-114 200l114 200h18zM191 356l114 -200h-18l-114 200l114 200h18z" />
    <glyph glyph-name="guillemetright.case" horiz-adv-x="360" 
d="M73 556l114 -200l-114 -200h-18l114 200l-114 200h18zM191 556l114 -200l-114 -200h-18l114 200l-114 200h18z" />
    <glyph glyph-name="guilsinglleft.case" horiz-adv-x="242" 
d="M73 356l114 -200h-18l-114 200l114 200h18z" />
    <glyph glyph-name="guilsinglright.case" horiz-adv-x="242" 
d="M73 556l114 -200l-114 -200h-18l114 200l-114 200h18z" />
    <glyph glyph-name="quoteright.loclFRA" horiz-adv-x="206" 
d="M121 641l-35 -127h-14l33 127v71h16v-71z" />
    <glyph glyph-name="periodcentered.loclCAT.smcp" horiz-adv-x="60" 
d="M-79 270h-18v72h18v-72z" />
    <glyph glyph-name="nbspace" unicode="&#xa0;" horiz-adv-x="230" 
 />
    <glyph glyph-name="cent" unicode="&#xa2;" horiz-adv-x="500" 
d="M270 581v-496c93 4 156 67 165 161h16c-9 -104 -80 -173 -181 -177v-87h-16v87c-127 4 -204 102 -204 264s77 260 204 264v87h16v-87c101 -4 172 -72 181 -172h-16c-8 90 -72 152 -165 156zM66 333c0 -153 70 -244 188 -248v496c-118 -4 -188 -95 -188 -248z" />
    <glyph glyph-name="currency" unicode="&#xa4;" horiz-adv-x="500" 
d="M448 291c0 -61 -19 -112 -52 -148l79 -83l-12 -11l-78 83c-34 -31 -80 -49 -135 -49s-101 18 -135 49l-78 -83l-12 11l79 83c-33 36 -52 87 -52 148s19 112 52 148l-79 83l12 11l78 -83c34 31 80 49 135 49s101 -18 135 -49l78 83l12 -11l-79 -83c33 -36 52 -87 52 -148z
M250 99c110 0 182 76 182 192s-72 192 -182 192s-182 -76 -182 -192s72 -192 182 -192z" />
    <glyph glyph-name="euro" unicode="&#x20ac;" horiz-adv-x="500" 
d="M466 193h16c-19 -134 -91 -203 -212 -203c-135 0 -210 98 -222 288h-47l3 16h43c-1 14 -1 28 -1 43l1 37h-46l3 16h43c12 194 88 294 227 294c121 0 190 -68 204 -201h-16c-15 125 -76 185 -188 185c-130 0 -200 -93 -211 -278h285l-3 -16h-282l-1 -37c0 -15 0 -29 1 -43
h268l-3 -16h-264c12 -181 80 -272 206 -272c114 0 178 64 196 187z" />
    <glyph glyph-name="florin" unicode="&#x192;" horiz-adv-x="500" 
d="M454 713c8 0 15 -1 19 -2v-16c-4 1 -11 2 -19 2c-68 0 -92 -32 -117 -130l-25 -99h99v-16h-104l-121 -478c-32 -126 -70 -160 -141 -160c-5 0 -11 0 -18 1v16c7 -1 13 -1 18 -1c62 0 96 30 127 152l119 470h-101v16h106l26 103c27 106 57 142 132 142z" />
    <glyph glyph-name="franc" unicode="&#x20a3;" horiz-adv-x="500" 
d="M121 658v-278h325v-16h-325v-185h183v-16h-183v-163h-16v163h-74v16h74v495h360v-16h-344z" />
    <glyph glyph-name="lira" unicode="&#x20a4;" horiz-adv-x="500" 
d="M460 16v-16h-436v16c69 0 110 48 110 142v108h-110v16h110v84h-110v16h110v112c0 123 62 190 162 190c101 0 163 -73 163 -194h-16c0 112 -55 178 -147 178c-91 0 -146 -60 -146 -174v-112h136v-16h-136v-84h136v-16h-136v-108c0 -92 -39 -130 -67 -141v-1h377z" />
    <glyph glyph-name="liraTurkish" unicode="&#x20ba;" horiz-adv-x="500" 
d="M452 308h16c0 -205 -121 -310 -328 -310h-16v345l-99 -54v18l99 54v112l-99 -54v18l99 54v183h16v-176l170 92v-18l-170 -92v-112l170 92v-18l-170 -92v-336c198 0 312 98 312 294z" />
    <glyph glyph-name="peseta" unicode="&#x20a7;" horiz-adv-x="745" 
d="M678 14c11 0 26 2 35 4v-16c-9 -2 -24 -4 -35 -4c-64 0 -92 35 -92 116v378h-91v-6c0 -107 -69 -188 -213 -188h-161v-298h-16v674h177c134 0 203 -70 212 -166h92v117h16v-117h106v-16h-106v-378c0 -72 21 -100 76 -100zM121 314h161c135 0 197 74 197 172
s-62 172 -197 172h-161v-344z" />
    <glyph glyph-name="ruble" unicode="&#x20bd;" horiz-adv-x="500" 
d="M94 674h183c131 0 193 -76 193 -178s-62 -179 -193 -179h-167v-111h214v-16h-214v-190h-16v190h-83v16h83v111h-83v16h83v341zM110 658v-325h167c122 0 177 70 177 163s-55 162 -177 162h-167z" />
    <glyph glyph-name="rupeeIndian" unicode="&#x20b9;" horiz-adv-x="500" 
d="M232 661v-1c74 -14 116 -55 128 -116h113l-6 -16h-105c1 -6 1 -13 1 -20c0 -90 -70 -163 -201 -171v-1c61 -17 98 -59 137 -138l97 -198h-18l-93 190c-49 101 -103 142 -182 142h-14v16h30c148 0 228 67 228 160c0 7 0 14 -1 20h-319l6 16h311c-17 77 -88 114 -206 114
h-111l6 16h440l-6 -16h-104c-41 0 -90 0 -131 3z" />
    <glyph glyph-name="sterling" unicode="&#xa3;" horiz-adv-x="500" 
d="M460 16v-16h-436v16c69 0 110 48 110 142v158h-110v16h110v162c0 123 62 190 162 190c101 0 163 -73 163 -194h-16c0 112 -55 178 -147 178c-91 0 -146 -60 -146 -174v-162h136v-16h-136v-158c0 -94 -40 -134 -78 -144v-1c41 3 90 3 131 3h257z" />
    <glyph glyph-name="yen" unicode="&#xa5;" horiz-adv-x="500" 
d="M269 344h179v-16h-190v-90h190v-16h-190v-222h-16v222h-190v16h190v90h-190v16h179l-226 330h19l84 -123l141 -206h1l145 211l81 118h19z" />
    <glyph glyph-name="Ohm" unicode="&#x2126;" horiz-adv-x="714" 
d="M357 722c175 0 299 -102 299 -316c0 -159 -85 -277 -194 -389v-1h205v-16h-226v16c112 115 199 230 199 390c0 202 -118 300 -283 300s-283 -98 -283 -300c0 -160 87 -275 199 -390v-16h-226v16h205v1c-109 112 -194 230 -194 389c0 214 124 316 299 316z" />
    <glyph glyph-name="approxequal" unicode="&#x2248;" horiz-adv-x="566" 
d="M177 462c96 0 125 -113 212 -113c53 0 86 40 86 100h16c0 -69 -40 -116 -102 -116c-95 0 -125 113 -212 113c-53 0 -86 -40 -86 -100h-16c0 69 40 116 102 116zM177 301c96 0 125 -113 212 -113c53 0 86 40 86 100h16c0 -69 -40 -116 -102 -116c-95 0 -125 113 -212 113
c-53 0 -86 -40 -86 -100h-16c0 69 40 116 102 116z" />
    <glyph glyph-name="bulletoperator" unicode="&#x2219;" horiz-adv-x="254" 
d="M136 270h-18v72h18v-72z" />
    <glyph glyph-name="divide" unicode="&#xf7;" horiz-adv-x="566" 
d="M291 435h-16v60h16v-60zM491 309h-416v16h416v-16zM291 139h-16v60h16v-60z" />
    <glyph glyph-name="divisionslash" unicode="&#x2215;" horiz-adv-x="395" 
d="M47 -89h-17l297 834h17z" />
    <glyph glyph-name="equalinferior" unicode="&#x208c;" horiz-adv-x="405" 
d="M352 87h-300v16h300v-16zM352 -3h-300v16h300v-16z" />
    <glyph glyph-name="equalsuperior" unicode="&#x207c;" horiz-adv-x="406" 
d="M353 589h-300v16h300v-16zM353 499h-300v16h300v-16z" />
    <glyph glyph-name="greaterequal" unicode="&#x2265;" horiz-adv-x="566" 
d="M491 328v-22l-416 -191v18l400 183v2l-400 183v18zM491 0h-416v16h416v-16z" />
    <glyph glyph-name="increment" unicode="&#x2206;" horiz-adv-x="633" 
d="M627 0h-621l300 712h21zM604 16l-154 364l-133 316h-1l-133 -316l-153 -364h574z" />
    <glyph glyph-name="infinity" unicode="&#x221e;" horiz-adv-x="548" 
d="M423 427c65 0 110 -48 110 -119s-45 -119 -110 -119c-73 0 -112 52 -149 106c-37 -54 -76 -106 -149 -106c-65 0 -110 48 -110 119s45 119 110 119c73 0 112 -52 149 -106c37 54 76 106 149 106zM125 205c67 0 104 50 140 103c-36 53 -73 103 -140 103
c-56 0 -94 -41 -94 -103s38 -103 94 -103zM423 205c56 0 94 41 94 103s-38 103 -94 103c-67 0 -104 -50 -140 -103c36 -53 73 -103 140 -103z" />
    <glyph glyph-name="integral" unicode="&#x222b;" horiz-adv-x="264" 
d="M223 715c9 0 18 -1 26 -3v-16c-7 2 -17 3 -26 3c-55 0 -83 -33 -83 -105v-661c0 -81 -35 -121 -99 -121c-9 0 -18 1 -26 3v16c7 -2 17 -3 26 -3c55 0 83 33 83 105v661c0 81 35 121 99 121z" />
    <glyph glyph-name="lessequal" unicode="&#x2264;" horiz-adv-x="566" 
d="M491 501l-400 -183v-2l400 -183v-18l-416 191v22l416 191v-18zM491 16v-16h-416v16h416z" />
    <glyph glyph-name="logicalnot" unicode="&#xac;" horiz-adv-x="566" 
d="M491 159h-16v260h-400v16h416v-276z" />
    <glyph glyph-name="micro" unicode="&#xb5;" horiz-adv-x="547" 
d="M451 508v-399c0 -77 13 -96 50 -96c9 0 16 1 24 4v-16c-8 -3 -15 -4 -24 -4c-42 0 -66 22 -66 103c0 3 0 10 1 19h-1c-23 -82 -94 -129 -172 -129c-81 0 -139 39 -158 125h-1c3 -39 3 -76 3 -115v-185h-16v693h16v-309c0 -131 59 -193 156 -193c92 0 172 70 172 188v314
h16z" />
    <glyph glyph-name="minus" unicode="&#x2212;" horiz-adv-x="566" 
d="M491 309h-416v16h416v-16z" />
    <glyph glyph-name="minusinferior" unicode="&#x208b;" horiz-adv-x="405" 
d="M352 42h-300v16h300v-16z" />
    <glyph glyph-name="minussuperior" unicode="&#x207b;" horiz-adv-x="406" 
d="M353 544h-300v16h300v-16z" />
    <glyph glyph-name="multiply" unicode="&#xd7;" horiz-adv-x="566" 
d="M504 516l-210 -210l210 -210l-11 -11l-210 210l-209 -209l-11 11l209 209l-209 209l11 11l209 -209l210 210z" />
    <glyph glyph-name="notequal" unicode="&#x2260;" horiz-adv-x="566" 
d="M333 371l-80 -109h238v-16h-249l-108 -148h-19l107 148h-147v16h159l79 109h-238v16h250l107 148h20l-108 -148h147v-16h-158z" />
    <glyph glyph-name="partialdiff" unicode="&#x2202;" horiz-adv-x="566" 
d="M260 722c144 0 224 -124 224 -376c0 -247 -100 -356 -229 -356c-131 0 -198 91 -198 228c0 145 78 252 213 252c109 0 183 -75 196 -191h1c2 21 2 44 2 67c0 243 -74 360 -209 360c-106 0 -152 -58 -162 -147h-16c10 97 64 163 178 163zM271 454
c-127 0 -198 -100 -198 -236c0 -128 60 -212 182 -212c126 0 199 118 199 243c0 120 -74 205 -183 205z" />
    <glyph glyph-name="perthousand" unicode="&#x2030;" horiz-adv-x="844" 
d="M77 -30h-18l424 734h18zM141 686c71 0 111 -57 111 -158s-40 -158 -111 -158s-111 57 -111 158s40 158 111 158zM141 670c-62 0 -95 -50 -95 -142s33 -142 95 -142s95 50 95 142s-33 142 -95 142zM419 306c71 0 111 -57 111 -158s-40 -158 -111 -158s-111 57 -111 158
s40 158 111 158zM703 306c71 0 111 -57 111 -158s-40 -158 -111 -158s-111 57 -111 158s40 158 111 158zM419 290c-62 0 -95 -50 -95 -142s33 -142 95 -142s95 50 95 142s-33 142 -95 142zM703 290c-62 0 -95 -50 -95 -142s33 -142 95 -142s95 50 95 142s-33 142 -95 142z
" />
    <glyph glyph-name="plusinferior" unicode="&#x208a;" horiz-adv-x="405" 
d="M210 58h142v-16h-142v-138h-16v138h-142v16h142v138h16v-138z" />
    <glyph glyph-name="plusminus" unicode="&#xb1;" horiz-adv-x="566" 
d="M291 315h200v-16h-200v-200h-16v200h-200v16h200v200h16v-200zM491 0h-416v16h416v-16z" />
    <glyph glyph-name="plussuperior" unicode="&#x207a;" horiz-adv-x="406" 
d="M211 560h142v-16h-142v-138h-16v138h-142v16h142v138h16v-138z" />
    <glyph glyph-name="product" unicode="&#x220f;" horiz-adv-x="625" 
d="M520 -120h-16v816h-383v-816h-16v832h415v-832z" />
    <glyph glyph-name="radical" unicode="&#x221a;" horiz-adv-x="483" 
d="M225 -120h-16l-104 440h-80v16h92l100 -420h2l227 796h17z" />
    <glyph glyph-name="summation" unicode="&#x2211;" horiz-adv-x="445" 
d="M410 696h-357l240 -405l-240 -395h357v-16h-375v16l240 395l-240 405v16h375v-16z" />
    <glyph glyph-name="lozenge" unicode="&#x25ca;" horiz-adv-x="532" 
d="M492 356l-217 -356h-18l-217 356l217 356h18zM58 356l208 -341l208 341l-208 341z" />
    <glyph glyph-name="apple" unicode="&#xf8ff;" horiz-adv-x="600" 
d="M150 777h280c74 0 120 -46 120 -120v-602c0 -74 -46 -120 -120 -120h-280c-74 0 -120 46 -120 120v602c0 74 46 120 120 120zM430 761h-280c-64 0 -104 -40 -104 -104v-602c0 -64 40 -104 104 -104h280c64 0 104 40 104 104v602c0 64 -40 104 -104 104zM287 643
c90 0 156 -57 156 -138c0 -56 -18 -86 -90 -148c-65 -56 -79 -81 -79 -181h-13v17c0 88 15 119 81 175c70 60 85 88 85 137c0 72 -59 122 -140 122c-84 0 -138 -48 -144 -136h-16c7 98 67 152 160 152zM276 65h-18v57h18v-57z" />
    <glyph glyph-name="brokenbar" unicode="&#xa6;" horiz-adv-x="236" 
d="M126 382h-16v350h16v-350zM126 -205h-16v350h16v-350z" />
    <glyph glyph-name="paragraph" unicode="&#xb6;" horiz-adv-x="495" 
d="M475 696h-80v-816h-16v816h-93v-816h-16v452h-50c-110 0 -180 74 -180 190s70 190 180 190h255v-16z" />
    <glyph glyph-name="copyright" unicode="&#xa9;" horiz-adv-x="822" 
d="M411 722c213 0 356 -147 356 -366s-143 -366 -356 -366s-356 147 -356 366s143 366 356 366zM411 706c-204 0 -340 -140 -340 -350s136 -350 340 -350s340 140 340 350s-136 350 -340 350zM412 612c111 0 175 -77 181 -168h-16c-7 82 -63 152 -165 152
c-118 0 -192 -93 -192 -242c0 -146 72 -238 187 -238c101 0 164 66 173 154h16c-11 -99 -80 -170 -189 -170c-124 0 -203 99 -203 254c0 158 81 258 208 258z" />
    <glyph glyph-name="registered" unicode="&#xae;" horiz-adv-x="576" 
d="M288 722c145 0 243 -101 243 -250s-98 -250 -243 -250s-243 101 -243 250s98 250 243 250zM288 706c-136 0 -227 -94 -227 -234s91 -234 227 -234s227 94 227 234s-91 234 -227 234zM191 635h90c71 0 104 -34 104 -85c0 -43 -27 -72 -66 -79v-1c23 -6 35 -19 49 -58
l35 -97h-17l-33 92c-14 42 -30 56 -69 56h-77v-148h-16v320zM207 619v-140h77c58 0 85 32 85 71c0 42 -26 69 -88 69h-74z" />
    <glyph glyph-name="published" unicode="&#x2117;" horiz-adv-x="822" 
d="M411 722c213 0 356 -147 356 -366s-143 -366 -356 -366s-356 147 -356 366s143 366 356 366zM411 706c-204 0 -340 -140 -340 -350s136 -350 340 -350s340 140 340 350s-136 350 -340 350zM281 598h164c105 0 156 -57 156 -134s-51 -134 -156 -134h-148v-230h-16v498z
M297 582v-236h148c96 0 140 50 140 118s-44 118 -140 118h-148z" />
    <glyph glyph-name="section" unicode="&#xa7;" horiz-adv-x="489" 
d="M234 722c97 0 150 -53 152 -157h-16c-2 95 -48 141 -136 141c-76 0 -124 -45 -124 -113c0 -74 29 -89 150 -150c147 -74 165 -106 165 -174c0 -56 -29 -103 -87 -142v-1c44 -33 57 -67 57 -123c0 -88 -57 -144 -152 -144c-107 0 -157 58 -157 169h16
c0 -102 43 -153 141 -153c86 0 136 49 136 128c0 90 -37 109 -160 172c-126 64 -155 94 -155 168c0 52 29 100 85 141v1c-38 27 -55 53 -55 108c0 77 55 129 140 129zM163 476c-60 -43 -83 -86 -83 -133c0 -67 27 -93 147 -154c39 -20 76 -40 97 -53c55 34 85 81 85 133
c0 63 -18 91 -157 160c-31 16 -66 34 -89 47z" />
    <glyph glyph-name="trademark" unicode="&#x2122;" horiz-adv-x="725" 
d="M285 696h-132v-340h-16v340h-132v16h280v-16zM672 356h-16v190v147h-1c-21 -50 -41 -100 -62 -151l-76 -186h-21l-76 186c-21 51 -41 101 -62 151h-1v-147v-190h-16v356h27l80 -196l58 -142h1l58 142l80 196h27v-356z" />
    <glyph glyph-name="degree" unicode="&#xb0;" horiz-adv-x="290" 
d="M145 722c55 0 100 -45 100 -100s-45 -100 -100 -100s-100 45 -100 100s45 100 100 100zM145 706c-46 0 -84 -38 -84 -84s38 -84 84 -84s84 38 84 84s-38 84 -84 84z" />
    <glyph glyph-name="estimated" unicode="&#x212e;" horiz-adv-x="856" 
d="M428 684c241 0 380 -166 380 -359h-607c-8 0 -13 -6 -13 -12v-166c0 -20 3 -32 15 -43c58 -57 132 -91 225 -91c98 0 185 45 238 109h68c-45 -63 -144 -134 -306 -134c-231 0 -381 146 -381 346c0 197 144 350 381 350zM428 658c-93 0 -167 -35 -225 -93
c-12 -11 -15 -22 -15 -40v-166c0 -8 5 -12 13 -12h452c8 0 13 4 13 12v166c0 18 -2 29 -15 40c-68 67 -146 93 -223 93z" />
    <glyph glyph-name="literSign" unicode="&#x2113;" horiz-adv-x="433" 
d="M150 207v-95c0 -73 25 -104 84 -104c16 0 37 4 52 10v-16c-15 -6 -36 -10 -52 -10c-68 0 -100 38 -100 120v93h-15c-17 0 -35 2 -49 5v16c15 -3 32 -5 49 -5l15 1v279c0 141 29 183 87 183c56 0 102 -49 102 -186c0 -191 -71 -277 -173 -291zM150 501v-278
c93 14 157 95 157 275c0 128 -39 170 -86 170c-49 0 -71 -35 -71 -167z" />
    <glyph glyph-name="dagger" unicode="&#x2020;" horiz-adv-x="500" 
d="M258 497h188v-16h-188v-601h-16v601h-188v16h188v215h16v-215z" />
    <glyph glyph-name="daggerdbl" unicode="&#x2021;" horiz-adv-x="500" 
d="M258 497h188v-16h-188v-286h188v-16h-188v-299h-16v299h-188v16h188v286h-188v16h188v215h16v-215z" />
    <glyph glyph-name="interrobang" unicode="&#x203d;" horiz-adv-x="468" 
d="M245 712v-80c106 -4 183 -69 183 -161c0 -67 -20 -106 -106 -179c-62 -52 -78 -69 -78 -155h-13l-3 479c-103 -3 -168 -59 -176 -163h-16c9 113 80 176 192 179l-1 80h18zM312 303c84 72 100 107 100 168c0 83 -70 141 -168 145l-2 -398h1c8 27 25 47 69 85zM228 69h18
v-69h-18v69z" />
    <glyph glyph-name="ampersand.smcp" horiz-adv-x="574" 
d="M538 0l-98 92c-50 -62 -115 -100 -201 -100c-109 0 -173 63 -174 149c1 78 46 119 145 166c-68 64 -82 95 -83 142c1 63 46 109 110 109c67 0 112 -49 112 -111c0 -61 -31 -102 -111 -143l199 -188c32 47 51 107 51 188h15c0 -86 -20 -149 -54 -199l112 -105h-23z
M143 449c0 -43 16 -72 82 -134c81 40 108 78 108 132c0 53 -37 95 -95 95c-55 0 -95 -39 -95 -93zM239 8c81 0 141 35 189 95l-206 194c-98 -48 -141 -84 -141 -156c0 -77 58 -133 158 -133z" />
    <glyph glyph-name="acute" unicode="&#xb4;" horiz-adv-x="215" 
d="M67 574h-17l94 138h21z" />
    <glyph glyph-name="breve" unicode="&#x2d8;" horiz-adv-x="388" 
d="M322 712h16c-8 -80 -59 -127 -144 -127s-136 47 -144 127h16c8 -72 52 -111 128 -111s120 39 128 111z" />
    <glyph glyph-name="caron" unicode="&#x2c7;" horiz-adv-x="354" 
d="M185 574h-16l-119 138h21l106 -123l106 123h21z" />
    <glyph glyph-name="cedilla" unicode="&#xb8;" horiz-adv-x="275" 
d="M170 0l-47 -69c6 2 13 3 21 3c53 0 81 -26 81 -67c0 -43 -33 -72 -89 -72c-33 0 -61 9 -86 23l8 14c24 -14 49 -21 78 -21c47 0 73 22 73 56c0 33 -21 52 -65 52c-12 0 -24 -2 -33 -5l-11 11l51 75h19z" />
    <glyph glyph-name="circumflex" unicode="&#x2c6;" horiz-adv-x="354" 
d="M283 574l-106 123l-106 -123h-21l119 138h16l119 -138h-21z" />
    <glyph glyph-name="dieresis" unicode="&#xa8;" horiz-adv-x="300" 
d="M66 635h-16v77h16v-77zM250 635h-16v77h16v-77z" />
    <glyph glyph-name="dotaccent" unicode="&#x2d9;" horiz-adv-x="116" 
d="M66 635h-16v77h16v-77z" />
    <glyph glyph-name="hungarumlaut" unicode="&#x2dd;" horiz-adv-x="345" 
d="M69 574h-19l122 138h24zM168 574h-19l122 138h24z" />
    <glyph glyph-name="macron" unicode="&#xaf;" horiz-adv-x="326" 
d="M276 648h-226v16h226v-16z" />
    <glyph glyph-name="ogonek" unicode="&#x2db;" horiz-adv-x="203" 
d="M134 6l16 -6c-64 -52 -84 -84 -84 -122c0 -32 16 -51 55 -51c12 0 24 2 32 5v-16c-8 -3 -20 -5 -32 -5c-48 0 -71 26 -71 67c0 45 24 78 84 128z" />
    <glyph glyph-name="ring" unicode="&#x2da;" horiz-adv-x="268" 
d="M134 761c46 0 84 -38 84 -84c0 -47 -38 -84 -84 -84s-84 37 -84 84c0 46 38 84 84 84zM134 745c-38 0 -68 -30 -68 -68s30 -68 68 -68s68 30 68 68s-30 68 -68 68z" />
    <glyph glyph-name="tilde" unicode="&#x2dc;" horiz-adv-x="388" 
d="M322 702h16c-4 -53 -31 -81 -69 -81c-62 0 -95 65 -150 65c-31 0 -50 -22 -53 -65h-16c4 53 31 81 69 81c62 0 95 -65 150 -65c31 0 50 22 53 65z" />
    <glyph glyph-name="acute.case" horiz-adv-x="229" 
d="M69 760h-19l107 126h22z" />
    <glyph glyph-name="breve.case" horiz-adv-x="388" 
d="M322 886h16c-8 -80 -59 -127 -144 -127s-136 47 -144 127h16c8 -72 52 -111 128 -111s120 39 128 111z" />
    <glyph glyph-name="caron.alt" horiz-adv-x="158" 
d="M64 538h-14l41 174h17z" />
    <glyph glyph-name="caron.case" horiz-adv-x="356" 
d="M186 760h-16l-120 126h22l106 -111l106 111h22z" />
    <glyph glyph-name="caron.alt.case" horiz-adv-x="158" 
d="M64 498h-14l41 214h17z" />
    <glyph glyph-name="circumflex.case" horiz-adv-x="354" 
d="M170 886h16l120 -126h-22l-106 111l-106 -111h-22z" />
    <glyph glyph-name="dieresis.case" horiz-adv-x="300" 
d="M66 779h-16v77h16v-77zM250 779h-16v77h16v-77z" />
    <glyph glyph-name="dotaccent.case" horiz-adv-x="116" 
d="M66 769h-16v77h16v-77z" />
    <glyph glyph-name="grave.case" horiz-adv-x="229" 
d="M72 886l107 -126h-19l-110 126h22z" />
    <glyph glyph-name="hungarumlaut.case" horiz-adv-x="345" 
d="M69 760h-19l122 126h24zM168 760h-19l122 126h24z" />
    <glyph glyph-name="macron.case" horiz-adv-x="326" 
d="M276 802h-226v16h226v-16z" />
    <glyph glyph-name="breve.narrow" horiz-adv-x="336" 
d="M270 712h16c-6 -80 -48 -127 -118 -127s-111 47 -118 127h16c7 -72 41 -111 102 -111s95 39 102 111z" />
    <glyph glyph-name="circumflex.narrow" horiz-adv-x="311" 
d="M261 575h-20l-85 122l-86 -122h-20l97 137h17z" />
    <glyph glyph-name="dieresis.narrow" horiz-adv-x="260" 
d="M66 643h-16v69h16v-69zM210 643h-16v69h16v-69z" />
    <glyph glyph-name="macron.narrow" horiz-adv-x="286" 
d="M236 648h-186v16h186v-16z" />
    <glyph glyph-name="tilde.narrow" horiz-adv-x="349" 
d="M283 702h16c-3 -53 -28 -81 -63 -81c-52 0 -79 65 -123 65c-28 0 -44 -22 -47 -65h-16c3 53 28 81 63 81c52 0 79 -65 123 -65c28 0 44 22 47 65z" />
    <glyph glyph-name="ring.case" horiz-adv-x="268" 
d="M134 935c46 0 84 -38 84 -84c0 -47 -38 -84 -84 -84s-84 37 -84 84c0 46 38 84 84 84zM134 919c-38 0 -68 -30 -68 -68s30 -68 68 -68s68 30 68 68s-30 68 -68 68z" />
    <glyph glyph-name="cedilla.ss01" horiz-adv-x="244" 
d="M72 -207h-22l126 158h18z" />
    <glyph glyph-name="tilde.case" horiz-adv-x="388" 
d="M322 876h16c-4 -53 -31 -81 -69 -81c-62 0 -95 65 -150 65c-31 0 -50 -22 -53 -65h-16c4 53 31 81 69 81c62 0 95 -65 150 -65c31 0 50 22 53 65z" />
    <glyph glyph-name="commaaccent" unicode="&#x326;" horiz-adv-x="0" 
d="M94 -145l-30 -94h-14l28 94v66h16v-66z" />
    <glyph glyph-name="commaturnedabovecomb" unicode="&#x312;" horiz-adv-x="0" 
d="M66 653v-66h-16v66l30 94h14z" />
    <glyph glyph-name="apostrophemod" unicode="&#x2bc;" horiz-adv-x="156" 
d="M96 641l-35 -127h-14l33 127v71h16v-71z" />
    <glyph glyph-name="firsttonechinese" unicode="&#x2c9;" horiz-adv-x="326" 
d="M276 648h-226v16h226v-16z" />
    <glyph glyph-name="uniFEFF" unicode="&#xfeff;" horiz-adv-x="0" 
 />
    <glyph glyph-name="uni20BC" unicode="&#x20bc;" horiz-adv-x="580" 
d="M50 0v313c0 201 68 264 232 268v131h16v-131c164 -4 232 -67 232 -268v-313h-16v313c0 192 -61 248 -216 252v-565h-16v565c-155 -4 -216 -60 -216 -252v-313h-16z" />
    <glyph glyph-name="bracketleftinferior" horiz-adv-x="171" 
d="M157 331h-85v-590h85v-16h-101v622h101v-16z" />
    <glyph glyph-name="bracketrightinferior" horiz-adv-x="171" 
d="M115 347v-622h-101v16h85v590h-85v16h101z" />
    </font>
</defs>
</svg>
