<?xml version="1.0" standalone="no"?>
<!DOCTYPE svg PUBLIC "-//W3C//DTD SVG 1.1//EN" "http://www.w3.org/Graphics/SVG/1.1/DTD/svg11.dtd" >
<svg xmlns="http://www.w3.org/2000/svg" xmlns:xlink="http://www.w3.org/1999/xlink" version="1.1">
<metadata>
Created by FontForge 20170910 at Thu Feb  5 11:03:25 2015
 By Jimmy Wärting
Copyright (c) 2015 Monotype Imaging Inc.  All rights reserved.
</metadata>
<defs>
<font id="NeueHaasUnicaPro-UltLightIt" horiz-adv-x="500" >
  <font-face 
    font-family="Neue Haas Unica Pro"
    font-weight="250"
    font-style="italic"
    font-variant="small-caps"
    font-stretch="normal"
    units-per-em="1000"
    panose-1="2 11 2 4 3 2 6 9 2 3"
    ascent="764"
    descent="-236"
    x-height="508"
    cap-height="712"
    bbox="-218 -275 1007 935"
    underline-thickness="50"
    underline-position="-100"
    slope="-14"
    stemh="16"
    stemv="16"
    unicode-range="U+0020-FEFF"
  />
<missing-glyph horiz-adv-x="580" 
d="M150 777h280c74 0 120 -46 120 -120v-602c0 -74 -46 -120 -120 -120h-280c-74 0 -120 46 -120 120v602c0 74 46 120 120 120zM430 761h-280c-64 0 -104 -40 -104 -104v-602c0 -64 40 -104 104 -104h280c64 0 104 40 104 104v602c0 64 -40 104 -104 104zM287 643
c90 0 156 -57 156 -138c0 -56 -18 -86 -90 -148c-65 -56 -79 -81 -79 -181h-13v17c0 88 15 119 81 175c70 60 85 88 85 137c0 72 -59 122 -140 122c-84 0 -138 -48 -144 -136h-16c7 98 67 152 160 152zM276 65h-18v57h18v-57z" />
    <glyph glyph-name="f_f" unicode="ff" horiz-adv-x="470" 
d="M540 715c10 0 19 -1 28 -4l-4 -15c-7 2 -15 3 -24 3c-55 0 -92 -34 -111 -109l-20 -82h107l-4 -16h-107l-123 -492h-16l123 492h-202l-123 -492h-16l123 492h-97l4 16h97l21 86c20 81 64 121 126 121c10 0 19 -1 28 -4l-4 -15c-7 2 -15 3 -24 3c-55 0 -92 -34 -111 -109
l-20 -82h202l21 86c20 81 64 121 126 121z" />
    <glyph glyph-name="f_f_i" unicode="ffi" horiz-adv-x="668" 
d="M405 492l-123 -492h-16l123 492h-202l-123 -492h-16l123 492h-97l4 16h97l21 86c20 81 64 121 126 121c10 0 19 -1 28 -4l-4 -15c-7 2 -15 3 -24 3c-55 0 -92 -34 -111 -109l-20 -82h202l21 86c20 81 64 121 126 121c10 0 19 -1 28 -4l-4 -15c-7 2 -15 3 -24 3
c-55 0 -92 -34 -111 -109l-20 -82h107l-4 -16h-107zM691 712l-19 -77h-16l19 77h16zM624 508h16l-126 -508h-16z" />
    <glyph glyph-name="f_f_l" unicode="ffl" horiz-adv-x="668" 
d="M405 492l-123 -492h-16l123 492h-202l-123 -492h-16l123 492h-97l4 16h97l21 86c20 81 64 121 126 121c10 0 19 -1 28 -4l-4 -15c-7 2 -15 3 -24 3c-55 0 -92 -34 -111 -109l-20 -82h202l21 86c20 81 64 121 126 121c10 0 19 -1 28 -4l-4 -15c-7 2 -15 3 -24 3
c-55 0 -92 -34 -111 -109l-20 -82h107l-4 -16h-107zM691 712l-177 -712h-16l177 712h16z" />
    <glyph glyph-name="f_i" unicode="fi" horiz-adv-x="450" 
d="M187 492l-123 -492h-16l123 492h-97l4 16h97l21 86c20 81 64 121 126 121c10 0 19 -1 28 -4l-4 -15c-7 2 -15 3 -24 3c-55 0 -92 -34 -111 -109l-20 -82h107l-4 -16h-107zM473 712l-19 -77h-16l19 77h16zM406 508h16l-126 -508h-16z" />
    <glyph glyph-name="f_l" unicode="fl" horiz-adv-x="450" 
d="M187 492l-123 -492h-16l123 492h-97l4 16h97l21 86c20 81 64 121 126 121c10 0 19 -1 28 -4l-4 -15c-7 2 -15 3 -24 3c-55 0 -92 -34 -111 -109l-20 -82h107l-4 -16h-107zM473 712l-177 -712h-16l177 712h16z" />
    <glyph glyph-name=".notdef" horiz-adv-x="580" 
d="M150 777h280c74 0 120 -46 120 -120v-602c0 -74 -46 -120 -120 -120h-280c-74 0 -120 46 -120 120v602c0 74 46 120 120 120zM430 761h-280c-64 0 -104 -40 -104 -104v-602c0 -64 40 -104 104 -104h280c64 0 104 40 104 104v602c0 64 -40 104 -104 104zM287 643
c90 0 156 -57 156 -138c0 -56 -18 -86 -90 -148c-65 -56 -79 -81 -79 -181h-13v17c0 88 15 119 81 175c70 60 85 88 85 137c0 72 -59 122 -140 122c-84 0 -138 -48 -144 -136h-16c7 98 67 152 160 152zM276 65h-18v57h18v-57z" />
    <glyph glyph-name="NULL" horiz-adv-x="0" 
 />
    <glyph glyph-name="space" unicode=" " horiz-adv-x="230" 
 />
    <glyph glyph-name="exclam" unicode="!" horiz-adv-x="202" 
d="M77 136h-10l139 576h18zM47 0h-18l17 69h18z" />
    <glyph glyph-name="quotedbl" unicode="&#x22;" horiz-adv-x="278" 
d="M148 468h-12l58 244h18zM248 468h-12l58 244h18z" />
    <glyph glyph-name="numbersign" unicode="#" horiz-adv-x="619" 
d="M487 445l-87 -213h143l-7 -16h-143l-88 -216h-17l88 216h-190l-88 -216h-17l88 216h-143l7 16h143l87 213h-144l7 16h143l87 213h17l-87 -213h190l87 213h17l-87 -213h143l-7 -16h-142zM470 445h-190l-87 -213h190z" />
    <glyph glyph-name="dollar" unicode="$" 
d="M384 764l-20 -81c93 -9 139 -60 139 -153c0 -22 -3 -44 -9 -70h-16c6 26 9 48 9 70c0 85 -41 129 -127 137l-79 -317c95 -33 150 -66 150 -159c0 -95 -73 -201 -225 -201h-15l-22 -89h-16l23 90c-96 9 -146 62 -146 161c0 22 3 45 10 74h16c-7 -29 -10 -52 -10 -74
c0 -91 45 -138 133 -145l83 333c-92 33 -140 70 -140 152c0 87 72 192 210 192h16l20 80h16zM344 668h-12c-129 0 -194 -98 -194 -176c0 -73 45 -106 128 -136zM415 191c0 86 -52 112 -138 143l-82 -328h11c143 0 209 99 209 185z" />
    <glyph glyph-name="percent" unicode="%" horiz-adv-x="749" 
d="M126 -30h-20l558 734h20zM267 684c65 0 97 -44 97 -126c0 -90 -53 -233 -165 -233c-65 0 -97 44 -97 126c0 90 53 233 165 233zM267 668c-103 0 -149 -136 -149 -217c0 -73 25 -110 81 -110c103 0 149 136 149 217c0 73 -25 110 -81 110zM591 349c65 0 97 -44 97 -126
c0 -90 -53 -233 -165 -233c-65 0 -97 44 -97 126c0 90 53 233 165 233zM591 333c-103 0 -149 -136 -149 -217c0 -73 25 -110 81 -110c103 0 149 136 149 217c0 73 -25 110 -81 110z" />
    <glyph glyph-name="ampersand" unicode="&#x26;" horiz-adv-x="703" 
d="M635 395h17c-29 -114 -74 -196 -132 -260l106 -135h-20l-97 124c-83 -84 -176 -134 -283 -134c-116 0 -177 59 -177 146c0 108 59 182 243 264c-45 62 -62 101 -62 155c0 75 60 167 158 167c73 0 117 -50 117 -120s-39 -143 -188 -209l193 -245c56 61 98 140 125 247z
M388 706c-89 0 -142 -85 -142 -151c0 -50 17 -90 61 -148c146 63 182 130 182 195c0 61 -37 104 -101 104zM226 6c103 0 193 48 273 130l-197 251c-190 -86 -237 -153 -237 -251c0 -78 54 -130 161 -130z" />
    <glyph glyph-name="quotesingle" unicode="'" horiz-adv-x="178" 
d="M148 468h-12l58 244h18z" />
    <glyph glyph-name="parenleft" unicode="(" horiz-adv-x="230" 
d="M301 741h20c-176 -191 -257 -424 -257 -617c0 -96 13 -183 36 -271h-16c-23 87 -36 172 -36 271c0 197 80 428 253 617z" />
    <glyph glyph-name="parenright" unicode=")" horiz-adv-x="230" 
d="M-50 -147h-20c176 191 257 424 257 617c0 96 -13 183 -36 271h16c23 -87 36 -172 36 -271c0 -197 -80 -428 -253 -617z" />
    <glyph glyph-name="asterisk" unicode="*" horiz-adv-x="370" 
d="M272 579l140 13l2 -19l-141 -6l55 -130l-16 -7l-50 133l-107 -93l-11 13l110 89l-122 71l11 16l117 -77l32 137l17 -4z" />
    <glyph glyph-name="plus" unicode="+" horiz-adv-x="566" 
d="M291 325h200v-16h-200v-200h-16v200h-200v16h200v200h16v-200z" />
    <glyph glyph-name="comma" unicode="," horiz-adv-x="136" 
d="M23 0l-67 -127h-14l65 127l18 72h16z" />
    <glyph glyph-name="hyphen" unicode="-" horiz-adv-x="274" 
d="M251 284h-214l4 16h214z" />
    <glyph glyph-name="period" unicode="." horiz-adv-x="136" 
d="M14 0h-18l18 72h18z" />
    <glyph glyph-name="slash" unicode="/" horiz-adv-x="395" 
d="M-37 -89h-19l503 834h19z" />
    <glyph glyph-name="zero" unicode="0" horiz-adv-x="520" 
d="M349 684c108 0 161 -75 161 -221c0 -171 -93 -473 -298 -473c-107 0 -160 75 -160 221c0 171 93 473 297 473zM349 668c-194 0 -281 -297 -281 -457c0 -138 47 -205 144 -205c195 0 282 297 282 457c0 138 -46 205 -145 205z" />
    <glyph glyph-name="one" unicode="1" horiz-adv-x="520" 
d="M217 0h-16l154 618h-1c-28 -50 -81 -72 -163 -72l4 16c94 0 142 30 174 112h16z" />
    <glyph glyph-name="two" unicode="2" horiz-adv-x="520" 
d="M350 684c101 0 162 -62 162 -155c0 -104 -55 -167 -246 -251c-186 -82 -233 -158 -259 -262h399l-4 -16h-414c26 138 96 215 271 292c185 81 237 139 237 237c0 84 -53 139 -146 139c-105 0 -180 -67 -213 -174h-17c34 116 118 190 230 190z" />
    <glyph glyph-name="three" unicode="3" horiz-adv-x="520" 
d="M332 684c112 0 181 -62 181 -155c0 -79 -60 -163 -179 -185v-1c70 -21 111 -67 111 -147c0 -92 -86 -206 -242 -206c-116 0 -177 57 -177 147c0 14 1 28 5 43h16c-4 -15 -5 -29 -5 -43c0 -80 54 -131 161 -131c147 0 226 106 226 190c0 90 -59 140 -160 140h-46l4 16h42
c162 0 228 102 228 177c0 84 -62 139 -165 139c-99 0 -177 -62 -204 -172h-16c29 119 114 188 220 188z" />
    <glyph glyph-name="four" unicode="4" horiz-adv-x="520" 
d="M482 207h-139l-52 -207h-16l52 207h-318l5 20l420 447h25l-112 -451h139zM32 223h298l28 112l80 319h-1l-269 -286z" />
    <glyph glyph-name="five" unicode="5" horiz-adv-x="520" 
d="M530 658h-314l-111 -318h1c40 55 101 91 178 91c107 0 166 -68 166 -180s-88 -261 -255 -261c-99 0 -158 50 -158 138c0 13 1 28 5 44h16c-4 -16 -5 -31 -5 -44c0 -79 52 -122 142 -122c158 0 239 142 239 245s-52 164 -150 164c-82 0 -152 -43 -199 -132l-15 1l136 390
h328z" />
    <glyph glyph-name="six" unicode="6" horiz-adv-x="520" 
d="M370 684c104 0 155 -56 155 -147c0 -3 0 -9 -1 -17h-16c1 8 1 14 1 17c0 82 -44 131 -139 131c-118 0 -236 -122 -294 -379h2c34 80 119 146 216 146c105 0 167 -75 167 -194c0 -103 -86 -251 -240 -251c-112 0 -170 64 -170 189c0 184 113 505 319 505zM294 419
c-145 0 -227 -132 -227 -240c0 -116 51 -173 154 -173c145 0 224 141 224 235c0 110 -55 178 -151 178z" />
    <glyph glyph-name="seven" unicode="7" horiz-adv-x="520" 
d="M573 674l-4 -16c-153 -166 -305 -359 -446 -658h-18c145 306 294 496 443 658h-406l4 16h427z" />
    <glyph glyph-name="eight" unicode="8" horiz-adv-x="520" 
d="M351 684c102 0 167 -61 167 -155c0 -82 -64 -166 -177 -184v-1c63 -21 110 -73 110 -150c0 -89 -82 -204 -238 -204c-111 0 -182 65 -182 166c0 85 72 180 196 196v1c-58 17 -98 67 -98 137c0 85 80 194 222 194zM351 668c-133 0 -206 -102 -206 -178
c0 -80 55 -134 152 -134c140 0 205 97 205 173c0 85 -58 139 -151 139zM269 341c-141 0 -222 -101 -222 -185c0 -92 64 -150 166 -150c147 0 222 107 222 188c0 85 -65 147 -166 147z" />
    <glyph glyph-name="nine" unicode="9" horiz-adv-x="520" 
d="M192 -10c-104 0 -155 56 -155 147c0 3 0 9 1 17h16c-1 -8 -1 -14 -1 -17c0 -82 44 -131 139 -131c118 0 236 122 294 379h-2c-34 -80 -119 -146 -216 -146c-105 0 -167 75 -167 194c0 103 86 251 240 251c112 0 170 -64 170 -189c0 -184 -113 -505 -319 -505zM268 255
c145 0 227 132 227 240c0 116 -51 173 -154 173c-145 0 -224 -141 -224 -235c0 -110 55 -178 151 -178z" />
    <glyph glyph-name="colon" unicode=":" horiz-adv-x="137" 
d="M123 436h-18l18 72h18zM15 0h-18l18 72h18z" />
    <glyph glyph-name="semicolon" unicode=";" horiz-adv-x="137" 
d="M133 436h-18l18 72h18zM23 0l-67 -127h-14l65 127l18 72h16z" />
    <glyph glyph-name="less" unicode="&#x3c;" horiz-adv-x="566" 
d="M491 501l-400 -183v-2l400 -183v-18l-416 191v22l416 191v-18z" />
    <glyph glyph-name="equal" unicode="=" horiz-adv-x="566" 
d="M491 371h-416v16h416v-16zM491 246h-416v16h416v-16z" />
    <glyph glyph-name="greater" unicode="&#x3e;" horiz-adv-x="566" 
d="M491 328v-22l-416 -191v18l400 183v2l-400 183v18z" />
    <glyph glyph-name="question" unicode="?" horiz-adv-x="468" 
d="M332 722c103 0 168 -62 168 -153c0 -75 -32 -128 -160 -216c-95 -65 -123 -97 -153 -216h-13c30 126 51 155 158 229c124 86 152 135 152 203c0 82 -58 137 -152 137c-98 0 -176 -62 -209 -173h-17c36 122 120 189 226 189zM155 0h-18l17 69h18z" />
    <glyph glyph-name="at" unicode="@" horiz-adv-x="837" 
d="M497 672c186 0 295 -110 295 -288c0 -135 -76 -299 -209 -299c-73 0 -88 49 -69 120h-1c-46 -82 -104 -120 -163 -120c-74 0 -112 45 -112 133c0 114 91 300 232 300c83 0 114 -63 105 -139h1c15 38 36 87 55 129h16c-63 -140 -125 -292 -125 -351c0 -39 20 -56 61 -56
c124 0 193 157 193 283c0 169 -102 272 -279 272c-271 0 -413 -262 -413 -442c0 -179 99 -283 277 -283c85 0 164 22 232 62l7 -14c-69 -40 -151 -64 -239 -64c-187 0 -293 111 -293 299c0 189 149 458 429 458zM470 502c-132 0 -216 -179 -216 -284c0 -79 31 -117 96 -117
c129 0 212 201 212 302c0 63 -33 99 -92 99z" />
    <glyph glyph-name="A" unicode="A" horiz-adv-x="634" 
d="M502 266h-362l-178 -266h-19l476 712h22l123 -712h-16zM499 282l-17 98c-18 107 -36 214 -54 316h-1c-68 -102 -140 -209 -211 -316l-66 -98h349z" />
    <glyph glyph-name="B" unicode="B" horiz-adv-x="588" 
d="M219 712h183c127 0 185 -59 185 -150c0 -81 -64 -179 -193 -197v-1c72 -14 122 -64 122 -153c0 -94 -78 -211 -242 -211h-232zM231 696l-80 -323h178c178 0 242 113 242 189c0 82 -51 134 -169 134h-171zM147 357l-85 -341h212c155 0 226 110 226 195s-50 146 -171 146
h-182z" />
    <glyph glyph-name="C" unicode="C" horiz-adv-x="661" 
d="M438 722c146 0 216 -98 216 -221c0 -12 -1 -24 -2 -36h-16c1 12 2 24 2 36c0 115 -64 205 -199 205c-233 0 -358 -249 -358 -445c0 -154 78 -255 219 -255c135 0 243 90 285 211h17c-45 -133 -160 -227 -302 -227c-150 0 -235 108 -235 272c0 204 131 460 373 460z" />
    <glyph glyph-name="D" unicode="D" horiz-adv-x="708" 
d="M219 712h152c208 0 316 -108 316 -302c0 -183 -124 -410 -425 -410h-220zM231 696l-169 -680h200c292 0 409 220 409 394c0 185 -101 286 -300 286h-140z" />
    <glyph glyph-name="E" unicode="E" horiz-adv-x="586" 
d="M622 696h-391l-80 -322h374l-4 -16h-374l-85 -342h405l-4 -16h-421l177 712h407z" />
    <glyph glyph-name="F" unicode="F" horiz-adv-x="538" 
d="M613 696h-382l-79 -317h363l-4 -16h-363l-90 -363h-16l177 712h398z" />
    <glyph glyph-name="G" unicode="G" horiz-adv-x="698" 
d="M451 722c144 0 219 -81 219 -200c0 -13 -1 -21 -2 -31h-16c1 9 2 18 2 31c0 110 -68 184 -203 184c-245 0 -370 -244 -370 -442c0 -155 77 -258 217 -258c117 0 256 72 315 316h-237l4 16h253l-84 -338h-16l24 96c8 33 17 69 29 105h-1c-52 -131 -157 -211 -287 -211
c-149 0 -233 110 -233 274c0 207 132 458 386 458z" />
    <glyph glyph-name="H" unicode="H" horiz-adv-x="705" 
d="M537 0h-16l90 362h-463l-90 -362h-16l177 712h16l-83 -334h463l83 334h16z" />
    <glyph glyph-name="I" unicode="I" horiz-adv-x="226" 
d="M58 0h-16l177 712h16z" />
    <glyph glyph-name="J" unicode="J" horiz-adv-x="303" 
d="M317 712l-136 -545c-28 -113 -96 -171 -187 -171c-16 0 -32 3 -42 6l4 15c11 -3 25 -5 38 -5c84 0 146 53 172 159l135 541h16z" />
    <glyph glyph-name="K" unicode="K" horiz-adv-x="532" 
d="M168 372l297 -372h-20l-295 368h-1l-91 -368h-16l177 712h16l-83 -332h1l431 332h26z" />
    <glyph glyph-name="L" unicode="L" horiz-adv-x="525" 
d="M62 16h399l-4 -16h-415l177 712h16z" />
    <glyph glyph-name="M" unicode="M" horiz-adv-x="849" 
d="M681 0h-16l96 388c26 103 52 205 77 308h-1l-211 -317l-253 -379h-22l-65 379l-54 317h-1c-25 -103 -51 -205 -77 -308l-96 -388h-16l177 712h26l70 -410l49 -286h1l191 286l273 410h29z" />
    <glyph glyph-name="N" unicode="N" horiz-adv-x="718" 
d="M550 0h-24l-140 333l-154 364h-1l-96 -386l-77 -311h-16l177 712h24l140 -333c51 -121 102 -241 153 -364h1c33 129 64 257 97 386l77 311h16z" />
    <glyph glyph-name="O" unicode="O" horiz-adv-x="702" 
d="M433 722c162 0 253 -116 253 -283c0 -198 -128 -449 -366 -449c-162 0 -253 116 -253 283c0 198 128 449 366 449zM433 706c-229 0 -350 -244 -350 -433c0 -158 84 -267 237 -267c229 0 350 244 350 433c0 158 -84 267 -237 267z" />
    <glyph glyph-name="P" unicode="P" horiz-adv-x="575" 
d="M219 712h203c131 0 189 -68 189 -169c0 -91 -72 -207 -235 -207h-235l-83 -336h-16zM231 696l-86 -344h231c153 0 219 109 219 191c0 92 -52 153 -173 153h-191z" />
    <glyph glyph-name="Q" unicode="Q" horiz-adv-x="702" 
d="M686 439c0 -134 -59 -293 -171 -381l63 -97l-13 -9l-62 96c-51 -36 -112 -58 -183 -58c-162 0 -253 116 -253 283c0 198 128 449 366 449c162 0 253 -116 253 -283zM320 6c67 0 126 21 174 56l-74 114l13 9l74 -114c107 86 163 240 163 368c0 158 -84 267 -237 267
c-229 0 -350 -244 -350 -433c0 -158 84 -267 237 -267z" />
    <glyph glyph-name="R" unicode="R" horiz-adv-x="591" 
d="M219 712h181c130 0 190 -61 190 -156c0 -90 -69 -188 -200 -207v-1c47 -15 69 -44 80 -133l26 -215h-16l-25 210c-11 96 -34 132 -127 132h-185l-85 -342h-16zM231 696l-84 -338h181c178 0 246 117 246 198c0 86 -53 140 -174 140h-169z" />
    <glyph glyph-name="S" unicode="S" horiz-adv-x="576" 
d="M370 722c131 0 196 -56 196 -167c0 -21 -3 -44 -9 -70h-16c6 26 9 49 9 70c0 102 -58 151 -180 151c-150 0 -218 -105 -218 -184c0 -83 55 -117 160 -151c114 -37 179 -70 179 -173c0 -99 -80 -208 -250 -208c-133 0 -203 57 -203 174c0 22 3 46 10 74h16
c-7 -28 -10 -52 -10 -74c0 -108 63 -158 187 -158c166 0 234 106 234 192c0 97 -64 124 -172 159c-110 36 -167 76 -167 165c0 91 80 200 234 200z" />
    <glyph glyph-name="T" unicode="T" horiz-adv-x="568" 
d="M673 696h-271l-173 -696h-16l173 696h-271l4 16h558z" />
    <glyph glyph-name="U" unicode="U" horiz-adv-x="670" 
d="M685 712l-119 -476c-41 -164 -140 -246 -283 -246c-127 0 -192 64 -192 191c0 30 5 64 15 103l107 428h16l-108 -432c-9 -37 -14 -70 -14 -99c0 -118 58 -175 176 -175c135 0 229 77 268 234l118 472h16z" />
    <glyph glyph-name="V" unicode="V" horiz-adv-x="605" 
d="M251 0h-23l-106 712h16l51 -341c18 -118 35 -236 53 -354h1l229 354l220 341h19z" />
    <glyph glyph-name="W" unicode="W" horiz-adv-x="861" 
d="M586 0h-25l-10 339c-4 119 -7 238 -10 357h-1l-187 -357l-177 -339h-25l-25 712h16l12 -346l12 -349h1c61 116 123 236 183 351l180 344h27l9 -344c3 -116 7 -235 10 -351h1c62 116 124 233 185 349l183 346h18z" />
    <glyph glyph-name="X" unicode="X" horiz-adv-x="593" 
d="M335 366l183 -366h-18l-176 353h-1l-351 -353h-23l365 366l-173 346h18l166 -333h1l332 333h22z" />
    <glyph glyph-name="Y" unicode="Y" horiz-adv-x="570" 
d="M309 318l-79 -318h-16l79 318l-172 394h17l75 -171l90 -206h1c65 70 131 141 197 211l155 166h21z" />
    <glyph glyph-name="Z" unicode="Z" horiz-adv-x="547" 
d="M616 688l-640 -671v-1h495l-4 -16h-513l6 24l640 671v1h-468l4 16h486z" />
    <glyph glyph-name="bracketleft" unicode="[" horiz-adv-x="238" 
d="M335 725h-122l-213 -857h122l-4 -16h-138l221 889h138z" />
    <glyph glyph-name="backslash" unicode="\" horiz-adv-x="395" 
d="M168 745l90 -834h-16l-90 834h16z" />
    <glyph glyph-name="bracketright" unicode="]" horiz-adv-x="238" 
d="M-76 -132h122l213 857h-122l4 16h138l-221 -889h-138z" />
    <glyph glyph-name="asciicircum" unicode="^" horiz-adv-x="384" 
d="M369 371h-18l-158 325h-2l-158 -325h-18l166 341h22z" />
    <glyph glyph-name="underscore" unicode="_" 
d="M420 -66h-500l4 16h500z" />
    <glyph glyph-name="grave" unicode="`" horiz-adv-x="216" 
d="M184 712l62 -138h-15l-66 138h19z" />
    <glyph glyph-name="a" unicode="a" horiz-adv-x="494" 
d="M285 518c90 0 150 -46 150 -144c0 -19 -3 -38 -10 -66l-50 -199c-9 -36 -17 -83 -18 -109h-16c2 29 12 73 23 118h-1c-41 -78 -110 -128 -208 -128c-89 0 -144 48 -144 126c0 69 43 139 195 161c54 8 137 17 201 23l3 12c6 24 9 44 9 62c0 89 -53 128 -134 128
c-97 0 -161 -62 -180 -147h-17c22 98 96 163 197 163zM384 208l19 76c-59 -5 -146 -15 -196 -23c-145 -22 -180 -85 -180 -145c0 -69 48 -110 128 -110c115 0 197 74 229 202z" />
    <glyph glyph-name="b" unicode="b" horiz-adv-x="545" 
d="M222 712l-54 -216c-10 -39 -21 -84 -35 -129h1c47 97 121 151 207 151c104 0 163 -72 163 -191c0 -144 -88 -337 -257 -337c-111 0 -166 82 -159 193h-1c-8 -42 -19 -86 -29 -126l-14 -57h-16l178 712h16zM341 502c-160 0 -241 -195 -241 -321c0 -111 51 -175 147 -175
c160 0 241 186 241 321c0 110 -52 175 -147 175z" />
    <glyph glyph-name="c" unicode="c" horiz-adv-x="493" 
d="M308 518c99 0 159 -65 159 -167c0 -4 0 -9 -1 -15h-16c1 6 1 11 1 15c0 93 -53 151 -143 151c-166 0 -251 -188 -251 -323c0 -110 52 -173 155 -173c91 0 169 60 200 151h17c-33 -101 -119 -167 -217 -167c-112 0 -171 70 -171 189c0 144 92 339 267 339z" />
    <glyph glyph-name="d" unicode="d" horiz-adv-x="543" 
d="M411 141h-1c-47 -97 -121 -151 -207 -151c-104 0 -163 72 -163 191c0 144 88 337 257 337c111 0 166 -82 159 -193h1c8 42 19 86 29 126l65 261h16l-178 -712h-16l3 12c10 40 21 84 35 129zM297 502c-160 0 -241 -186 -241 -321c0 -110 52 -175 147 -175
c160 0 241 195 241 321c0 111 -51 175 -147 175z" />
    <glyph glyph-name="e" unicode="e" horiz-adv-x="515" 
d="M468 259h-403c-6 -29 -9 -56 -9 -81c0 -108 53 -172 153 -172c93 0 175 57 208 143h17c-36 -97 -125 -159 -225 -159c-109 0 -169 71 -169 188c0 146 95 340 273 340c102 0 168 -64 168 -179c0 -20 -4 -50 -13 -80zM313 502c-117 0 -209 -94 -244 -227h386
c7 21 10 44 10 64c0 106 -59 163 -152 163z" />
    <glyph glyph-name="f" unicode="f" horiz-adv-x="252" 
d="M322 715c10 0 19 -1 28 -4l-4 -15c-7 2 -15 3 -24 3c-55 0 -92 -34 -111 -109l-20 -82h107l-4 -16h-107l-123 -492h-16l123 492h-97l4 16h97l21 86c20 81 64 121 126 121z" />
    <glyph glyph-name="g" unicode="g" horiz-adv-x="545" 
d="M306 518c97 0 156 -64 153 -186h1c10 51 21 96 34 148l7 28h16l-120 -481c-35 -140 -114 -216 -240 -216c-101 0 -164 46 -164 127c0 10 1 20 3 30h16c-2 -11 -3 -20 -3 -30c0 -72 56 -111 148 -111c119 0 192 71 225 204c11 44 22 88 35 129h-1
c-44 -97 -120 -154 -210 -154c-106 0 -162 71 -162 192c0 135 88 320 262 320zM306 502c-165 0 -246 -178 -246 -304c0 -112 49 -176 146 -176c161 0 241 192 241 309c0 108 -50 171 -141 171z" />
    <glyph glyph-name="h" unicode="h" horiz-adv-x="538" 
d="M337 518c87 0 140 -48 140 -140c0 -24 -4 -50 -12 -81l-74 -297h-16l75 301c7 29 11 54 11 77c0 83 -46 124 -125 124c-94 0 -186 -76 -213 -184l-79 -318h-16l177 712h16l-50 -204c-10 -40 -20 -79 -33 -119h1c46 85 123 129 198 129z" />
    <glyph glyph-name="i" unicode="i" horiz-adv-x="198" 
d="M202 635h-16l19 77h16zM44 0h-16l126 508h16z" />
    <glyph glyph-name="j" unicode="j" horiz-adv-x="209" 
d="M213 635h-16l19 77h16zM181 508l-138 -556c-27 -107 -76 -139 -141 -139c-8 0 -15 1 -20 3l4 15c3 -1 9 -2 16 -2c58 0 101 27 126 127l137 552h16z" />
    <glyph glyph-name="k" unicode="k" horiz-adv-x="439" 
d="M131 274l249 -274h-21l-247 271h-1l-67 -271h-16l177 712h16l-107 -430h1l334 226h28z" />
    <glyph glyph-name="l" unicode="l" horiz-adv-x="198" 
d="M44 0h-16l177 712h16z" />
    <glyph glyph-name="m" unicode="m" horiz-adv-x="810" 
d="M626 518c79 0 125 -43 125 -129c0 -23 -4 -53 -12 -84l-76 -305h-16l77 309c7 30 11 58 11 80c0 77 -39 113 -109 113c-86 0 -165 -69 -191 -173l-82 -329h-16l82 330c5 21 8 43 8 61c0 69 -37 111 -109 111c-86 0 -168 -71 -198 -193l-77 -309h-16l127 508h16
c-10 -39 -20 -76 -32 -117h1c38 77 101 127 179 127c77 0 123 -46 123 -127l-1 -11c37 86 105 138 186 138z" />
    <glyph glyph-name="n" unicode="n" horiz-adv-x="537" 
d="M336 518c87 0 140 -48 140 -140c0 -24 -4 -50 -12 -81l-74 -297h-16l75 301c7 29 11 54 11 77c0 83 -46 124 -125 124c-94 0 -186 -76 -213 -184l-79 -318h-16l127 508h16c-10 -40 -20 -79 -33 -119h1c46 85 123 129 198 129z" />
    <glyph glyph-name="o" unicode="o" horiz-adv-x="528" 
d="M303 518c116 0 181 -76 181 -202c0 -140 -89 -326 -261 -326c-116 0 -181 75 -181 201c0 141 89 327 261 327zM303 502c-163 0 -245 -179 -245 -311c0 -117 58 -185 165 -185c163 0 245 179 245 310c0 117 -58 186 -165 186z" />
    <glyph glyph-name="p" unicode="p" horiz-adv-x="545" 
d="M133 367h1c47 97 121 151 207 151c104 0 163 -72 163 -191c0 -144 -88 -337 -257 -337c-111 0 -166 82 -159 193h-1c-8 -42 -19 -86 -29 -126l-60 -242h-16l173 693h16l-3 -12c-10 -40 -21 -84 -35 -129zM247 6c160 0 241 186 241 321c0 110 -52 175 -147 175
c-160 0 -241 -195 -241 -321c0 -111 51 -175 147 -175z" />
    <glyph glyph-name="q" unicode="q" horiz-adv-x="543" 
d="M411 141h-1c-47 -97 -121 -151 -207 -151c-104 0 -163 72 -163 191c0 144 88 337 257 337c111 0 166 -82 159 -193h1c8 42 19 86 29 126l14 57h16l-173 -693h-16l49 197c10 40 21 84 35 129zM297 502c-160 0 -241 -186 -241 -321c0 -110 52 -175 147 -175
c160 0 241 195 241 321c0 111 -51 175 -147 175z" />
    <glyph glyph-name="r" unicode="r" horiz-adv-x="319" 
d="M341 510c9 0 20 -1 27 -2l-4 -16c-7 1 -18 2 -27 2c-98 0 -186 -64 -220 -201l-73 -293h-16l127 508h16c-11 -44 -22 -87 -37 -132h1c48 90 118 134 206 134z" />
    <glyph glyph-name="s" unicode="s" horiz-adv-x="447" 
d="M261 518c100 0 155 -47 155 -124c0 -16 -2 -32 -7 -50h-16c5 18 7 34 7 50c0 68 -47 108 -139 108c-101 0 -156 -62 -156 -128c0 -60 40 -80 116 -103c100 -29 148 -57 148 -130c0 -80 -67 -151 -188 -151c-108 0 -164 48 -164 131c0 17 2 34 7 53h16
c-5 -19 -7 -37 -7 -53c0 -74 49 -115 148 -115c112 0 172 64 172 135c0 65 -45 88 -139 116c-80 23 -125 49 -125 117c0 75 61 144 172 144z" />
    <glyph glyph-name="t" unicode="t" horiz-adv-x="270" 
d="M187 492l-95 -378c-5 -20 -7 -36 -7 -49c0 -36 18 -51 58 -51c11 0 27 2 36 4l-4 -17c-8 -2 -22 -3 -32 -3c-49 0 -74 22 -74 67c0 15 2 30 8 53l94 374h-98l4 16h98l29 117h16l-29 -117h105l-4 -16h-105z" />
    <glyph glyph-name="u" unicode="u" horiz-adv-x="537" 
d="M201 -10c-87 0 -140 48 -140 140c0 24 4 50 12 81l74 297h16l-75 -301c-7 -29 -11 -54 -11 -77c0 -83 46 -124 125 -124c94 0 186 76 213 184l79 318h16l-127 -508h-16l27 107h-1c-45 -75 -119 -117 -192 -117z" />
    <glyph glyph-name="v" unicode="v" horiz-adv-x="431" 
d="M164 0h-24l-75 508h16l35 -239c12 -83 25 -171 38 -254h1c53 83 110 171 164 254l155 239h19z" />
    <glyph glyph-name="w" unicode="w" horiz-adv-x="746" 
d="M503 0h-26l-23 264c-7 77 -14 152 -20 229h-2c-46 -77 -89 -152 -135 -229l-154 -264h-26l-44 508h16l22 -247l21 -245h2c48 83 97 167 146 250l142 242h26l22 -243c7 -83 14 -166 22 -249h2l143 245l144 247h18z" />
    <glyph glyph-name="x" unicode="x" horiz-adv-x="440" 
d="M234 263l139 -263h-18l-133 251h-1l-257 -251h-23l271 265l-128 243h18l122 -231h1l234 231h23z" />
    <glyph glyph-name="y" unicode="y" horiz-adv-x="431" 
d="M492 508l-338 -514c-98 -149 -145 -183 -215 -183c-20 0 -32 2 -43 7l4 16c10 -5 21 -7 39 -7c61 0 105 29 200 173l-74 508h16l71 -486h1l320 486h19z" />
    <glyph glyph-name="z" unicode="z" horiz-adv-x="441" 
d="M469 484l-490 -466v-2h383l-4 -16h-401l6 24l489 466v2h-362l4 16h381z" />
    <glyph glyph-name="braceleft" unicode="{" horiz-adv-x="279" 
d="M380 741l-4 -16c-93 0 -142 -36 -164 -125l-47 -190c-16 -60 -41 -91 -100 -109l-1 -2c34 -17 48 -41 48 -81c0 -14 -2 -31 -7 -50l-40 -159c-5 -20 -8 -38 -8 -54c0 -60 33 -87 106 -87l-4 -16h-2c-77 0 -116 32 -116 103c0 16 3 36 9 58l40 159c4 18 6 33 6 46
c0 38 -14 57 -47 72l5 22c56 17 80 41 96 102l47 190c24 95 82 137 179 137h4z" />
    <glyph glyph-name="bar" unicode="|" horiz-adv-x="236" 
d="M126 -205h-16v937h16v-937z" />
    <glyph glyph-name="braceright" unicode="}" horiz-adv-x="279" 
d="M-80 -148l4 16c93 0 142 36 164 125l47 190c16 60 41 91 100 109l1 2c-34 17 -48 41 -48 81c0 14 2 31 7 50l40 159c5 20 8 38 8 54c0 60 -33 87 -106 87l4 16h2c77 0 116 -32 116 -103c0 -16 -3 -36 -9 -58l-40 -159c-4 -18 -6 -33 -6 -46c0 -38 14 -57 47 -72l-5 -22
c-56 -17 -80 -41 -96 -102l-47 -190c-24 -95 -82 -137 -179 -137h-4z" />
    <glyph glyph-name="asciitilde" unicode="~" horiz-adv-x="566" 
d="M178 394c124 0 126 -139 241 -139c65 0 119 50 138 126h16c-22 -89 -82 -142 -154 -142c-124 0 -126 139 -241 139c-65 0 -119 -50 -137 -126h-16c21 89 81 142 153 142z" />
    <glyph glyph-name="Aacute" unicode="&#xc1;" horiz-adv-x="634" 
d="M408 760h-21l137 126h24zM502 266h-362l-178 -266h-19l476 712h22l123 -712h-16zM499 282l-17 98c-18 107 -36 214 -54 316h-1c-68 -102 -140 -209 -211 -316l-66 -98h349z" />
    <glyph glyph-name="Abreve" unicode="&#x102;" horiz-adv-x="634" 
d="M602 886h17c-27 -81 -86 -127 -171 -127c-78 0 -118 39 -118 108c0 6 0 12 1 19h16c-1 -7 -1 -13 -1 -19c0 -60 33 -92 102 -92c76 0 128 39 154 111zM441 712l123 -712h-16l-46 266h-362l-178 -266h-19l476 712h22zM499 282l-17 98c-18 107 -36 214 -54 316h-1
c-68 -102 -140 -209 -211 -316l-66 -98h349z" />
    <glyph glyph-name="Acircumflex" unicode="&#xc2;" horiz-adv-x="634" 
d="M340 760h-25l152 126h16l88 -126h-19l-78 111zM441 712l123 -712h-16l-46 266h-362l-178 -266h-19l476 712h22zM499 282l-17 98c-18 107 -36 214 -54 316h-1c-68 -102 -140 -209 -211 -316l-66 -98h349z" />
    <glyph glyph-name="Adieresis" unicode="&#xc4;" horiz-adv-x="634" 
d="M364 779h-16l20 77h16zM548 779h-16l20 77h16zM441 712l123 -712h-16l-46 266h-362l-178 -266h-19l476 712h22zM499 282l-17 98c-18 107 -36 214 -54 316h-1c-68 -102 -140 -209 -211 -316l-66 -98h349z" />
    <glyph glyph-name="Agrave" unicode="&#xc0;" horiz-adv-x="634" 
d="M482 760l-80 126h20l77 -126h-17zM502 266h-362l-178 -266h-19l476 712h22l123 -712h-16zM499 282l-17 98c-18 107 -36 214 -54 316h-1c-68 -102 -140 -209 -211 -316l-66 -98h349z" />
    <glyph glyph-name="Amacron" unicode="&#x100;" horiz-adv-x="634" 
d="M570 818l-4 -16h-226l4 16h226zM441 712l123 -712h-16l-46 266h-362l-178 -266h-19l476 712h22zM499 282l-17 98c-18 107 -36 214 -54 316h-1c-68 -102 -140 -209 -211 -316l-66 -98h349z" />
    <glyph glyph-name="Aogonek" unicode="&#x104;" horiz-adv-x="634" 
d="M449 -134c0 -26 12 -39 43 -39c12 0 24 2 33 5l-4 -17c-8 -2 -19 -4 -29 -4c-40 0 -59 20 -59 55c0 43 28 82 114 140l-45 260h-362l-178 -266h-19l476 712h22l123 -712c-95 -63 -115 -100 -115 -134zM499 282l-17 98c-18 107 -36 214 -54 316h-1
c-68 -102 -140 -209 -211 -316l-66 -98h349z" />
    <glyph glyph-name="Aring" unicode="&#xc5;" horiz-adv-x="634" 
d="M456 767c-46 0 -84 37 -84 84c0 46 38 84 84 84s84 -38 84 -84c0 -47 -38 -84 -84 -84zM456 919c-38 0 -68 -30 -68 -68s30 -68 68 -68s68 30 68 68s-30 68 -68 68zM502 266h-362l-178 -266h-19l476 712h22l123 -712h-16zM499 282l-17 98c-18 107 -36 214 -54 316h-1
c-68 -102 -140 -209 -211 -316l-66 -98h349z" />
    <glyph glyph-name="Atilde" unicode="&#xc3;" horiz-adv-x="634" 
d="M600 876h17c-17 -53 -50 -81 -88 -81c-62 0 -79 65 -134 65c-31 0 -56 -22 -70 -65h-17c17 53 50 81 88 81c62 0 79 -65 134 -65c31 0 56 22 70 65zM441 712l123 -712h-16l-46 266h-362l-178 -266h-19l476 712h22zM499 282l-17 98c-18 107 -36 214 -54 316h-1
c-68 -102 -140 -209 -211 -316l-66 -98h349z" />
    <glyph glyph-name="AE" unicode="&#xc6;" horiz-adv-x="905" 
d="M533 696l-29 -322h340l-4 -16h-338l-30 -342h314l-4 -16h-328l26 285h-305l-224 -285h-20l560 712h454l-4 -16h-408zM517 696h-19l-310 -395h294z" />
    <glyph glyph-name="Cacute" unicode="&#x106;" horiz-adv-x="661" 
d="M426 760h-21l137 126h24zM438 722c146 0 216 -98 216 -221c0 -12 -1 -24 -2 -36h-16c1 12 2 24 2 36c0 115 -64 205 -199 205c-233 0 -358 -249 -358 -445c0 -154 78 -255 219 -255c135 0 243 90 285 211h17c-45 -133 -160 -227 -302 -227c-150 0 -235 108 -235 272
c0 204 131 460 373 460z" />
    <glyph glyph-name="Ccaron" unicode="&#x10c;" horiz-adv-x="661" 
d="M469 760h-16l-88 126h19l78 -111l134 111h25zM438 722c146 0 216 -98 216 -221c0 -12 -1 -24 -2 -36h-16c1 12 2 24 2 36c0 115 -64 205 -199 205c-233 0 -358 -249 -358 -445c0 -154 78 -255 219 -255c135 0 243 90 285 211h17c-45 -133 -160 -227 -302 -227
c-150 0 -235 108 -235 272c0 204 131 460 373 460z" />
    <glyph glyph-name="Ccedilla" unicode="&#xc7;" horiz-adv-x="661" 
d="M438 722c146 0 216 -98 216 -221c0 -12 -1 -24 -2 -36h-16c1 12 2 24 2 36c0 115 -64 205 -199 205c-233 0 -358 -249 -358 -445c0 -154 78 -255 219 -255c135 0 243 90 285 211h17c-44 -129 -154 -222 -290 -227l-55 -58c4 1 10 2 16 2c44 0 68 -23 68 -61
c0 -46 -40 -78 -97 -78c-36 0 -64 9 -88 23l8 14c22 -14 48 -21 80 -21c48 0 81 25 81 62c0 29 -17 46 -52 46c-12 0 -24 -2 -34 -5l-10 11l61 65c-144 5 -225 112 -225 272c0 204 131 460 373 460z" />
    <glyph glyph-name="Ccircumflex" unicode="&#x108;" horiz-adv-x="661" 
d="M485 886h16l88 -126h-19l-78 111l-134 -111h-25zM438 722c146 0 216 -98 216 -221c0 -12 -1 -24 -2 -36h-16c1 12 2 24 2 36c0 115 -64 205 -199 205c-233 0 -358 -249 -358 -445c0 -154 78 -255 219 -255c135 0 243 90 285 211h17c-45 -133 -160 -227 -302 -227
c-150 0 -235 108 -235 272c0 204 131 460 373 460z" />
    <glyph glyph-name="Cdotaccent" unicode="&#x10a;" horiz-adv-x="661" 
d="M474 779h-16l20 77h16zM438 722c146 0 216 -98 216 -221c0 -12 -1 -24 -2 -36h-16c1 12 2 24 2 36c0 115 -64 205 -199 205c-233 0 -358 -249 -358 -445c0 -154 78 -255 219 -255c135 0 243 90 285 211h17c-45 -133 -160 -227 -302 -227c-150 0 -235 108 -235 272
c0 204 131 460 373 460z" />
    <glyph glyph-name="Eth" unicode="&#xd0;" horiz-adv-x="708" 
d="M219 712h152c208 0 316 -108 316 -302c0 -183 -124 -410 -425 -410h-220l88 352h-61l4 16h60zM62 16h200c292 0 409 220 409 394c0 185 -101 286 -300 286h-140l-82 -328h256l-4 -16h-255z" />
    <glyph glyph-name="Dcaron" unicode="&#x10e;" horiz-adv-x="708" 
d="M454 760h-16l-88 126h19l78 -111l134 111h25zM219 712h152c208 0 316 -108 316 -302c0 -183 -124 -410 -425 -410h-220zM231 696l-169 -680h200c292 0 409 220 409 394c0 185 -101 286 -300 286h-140z" />
    <glyph glyph-name="Dcroat" unicode="&#x110;" horiz-adv-x="708" 
d="M219 712h152c208 0 316 -108 316 -302c0 -183 -124 -410 -425 -410h-220l88 352h-61l4 16h60zM62 16h200c292 0 409 220 409 394c0 185 -101 286 -300 286h-140l-82 -328h256l-4 -16h-255z" />
    <glyph glyph-name="Eacute" unicode="&#xc9;" horiz-adv-x="586" 
d="M390 760h-21l137 126h24zM622 696h-391l-80 -322h374l-4 -16h-374l-85 -342h405l-4 -16h-421l177 712h407z" />
    <glyph glyph-name="Ebreve" unicode="&#x114;" horiz-adv-x="586" 
d="M584 886h17c-27 -81 -86 -127 -171 -127c-78 0 -118 39 -118 108c0 6 0 12 1 19h16c-1 -7 -1 -13 -1 -19c0 -60 33 -92 102 -92c76 0 128 39 154 111zM622 696h-391l-80 -322h374l-4 -16h-374l-85 -342h405l-4 -16h-421l177 712h407z" />
    <glyph glyph-name="Ecaron" unicode="&#x11a;" horiz-adv-x="586" 
d="M433 760h-16l-88 126h19l78 -111l134 111h25zM622 696h-391l-80 -322h374l-4 -16h-374l-85 -342h405l-4 -16h-421l177 712h407z" />
    <glyph glyph-name="Ecircumflex" unicode="&#xca;" horiz-adv-x="586" 
d="M449 886h16l88 -126h-19l-78 111l-134 -111h-25zM622 696h-391l-80 -322h374l-4 -16h-374l-85 -342h405l-4 -16h-421l177 712h407z" />
    <glyph glyph-name="Edieresis" unicode="&#xcb;" horiz-adv-x="586" 
d="M346 779h-16l20 77h16zM530 779h-16l20 77h16zM622 696h-391l-80 -322h374l-4 -16h-374l-85 -342h405l-4 -16h-421l177 712h407z" />
    <glyph glyph-name="Edotaccent" unicode="&#x116;" horiz-adv-x="586" 
d="M438 779h-16l20 77h16zM622 696h-391l-80 -322h374l-4 -16h-374l-85 -342h405l-4 -16h-421l177 712h407z" />
    <glyph glyph-name="Egrave" unicode="&#xc8;" horiz-adv-x="586" 
d="M481 760h-17l-80 126h20zM622 696h-391l-80 -322h374l-4 -16h-374l-85 -342h405l-4 -16h-421l177 712h407z" />
    <glyph glyph-name="Emacron" unicode="&#x112;" horiz-adv-x="586" 
d="M548 802h-226l4 16h226zM622 696h-391l-80 -322h374l-4 -16h-374l-85 -342h405l-4 -16h-421l177 712h407z" />
    <glyph glyph-name="Eogonek" unicode="&#x118;" horiz-adv-x="586" 
d="M231 696l-80 -322h374l-4 -16h-374l-85 -342h405l-4 -16c-95 -63 -115 -100 -115 -134c0 -26 12 -39 43 -39c12 0 24 2 33 5l-4 -17c-8 -2 -19 -4 -29 -4c-40 0 -59 20 -59 55c0 42 26 79 105 134h-395l177 712h407l-4 -16h-391z" />
    <glyph glyph-name="Gbreve" unicode="&#x11e;" horiz-adv-x="698" 
d="M618 886h17c-27 -81 -86 -127 -171 -127c-78 0 -118 39 -118 108c0 6 0 12 1 19h16c-1 -7 -1 -13 -1 -19c0 -60 33 -92 102 -92c76 0 128 39 154 111zM451 722c144 0 219 -81 219 -200c0 -13 -1 -21 -2 -31h-16c1 9 2 18 2 31c0 110 -68 184 -203 184
c-245 0 -370 -244 -370 -442c0 -155 77 -258 217 -258c117 0 256 72 315 316h-237l4 16h253l-84 -338h-16l24 96c8 33 17 69 29 105h-1c-52 -131 -157 -211 -287 -211c-149 0 -233 110 -233 274c0 207 132 458 386 458z" />
    <glyph glyph-name="Gcircumflex" unicode="&#x11c;" horiz-adv-x="698" 
d="M483 886h16l88 -126h-19l-78 111l-134 -111h-25zM451 722c144 0 219 -81 219 -200c0 -13 -1 -21 -2 -31h-16c1 9 2 18 2 31c0 110 -68 184 -203 184c-245 0 -370 -244 -370 -442c0 -155 77 -258 217 -258c117 0 256 72 315 316h-237l4 16h253l-84 -338h-16l24 96
c8 33 17 69 29 105h-1c-52 -131 -157 -211 -287 -211c-149 0 -233 110 -233 274c0 207 132 458 386 458z" />
    <glyph glyph-name="Gcommaaccent" unicode="&#x122;" horiz-adv-x="698" 
d="M451 722c144 0 219 -81 219 -200c0 -13 -1 -21 -2 -31h-16c1 9 2 18 2 31c0 110 -68 184 -203 184c-245 0 -370 -244 -370 -442c0 -155 77 -258 217 -258c117 0 256 72 315 316h-237l4 16h253l-84 -338h-16l24 96c8 33 17 69 29 105h-1c-52 -131 -157 -211 -287 -211
c-149 0 -233 110 -233 274c0 207 132 458 386 458zM272 -145l-54 -94h-14l52 94l16 66h16z" />
    <glyph glyph-name="Gdotaccent" unicode="&#x120;" horiz-adv-x="698" 
d="M472 779h-16l20 77h16zM451 722c144 0 219 -81 219 -200c0 -13 -1 -21 -2 -31h-16c1 9 2 18 2 31c0 110 -68 184 -203 184c-245 0 -370 -244 -370 -442c0 -155 77 -258 217 -258c117 0 256 72 315 316h-237l4 16h253l-84 -338h-16l24 96c8 33 17 69 29 105h-1
c-52 -131 -157 -211 -287 -211c-149 0 -233 110 -233 274c0 207 132 458 386 458z" />
    <glyph glyph-name="Hbar" unicode="&#x126;" horiz-adv-x="705" 
d="M745 596h-60l-148 -596h-16l90 362h-463l-90 -362h-16l148 596h-60l4 16h60l25 100h16l-25 -100h463l25 100h16l-25 -100h60zM669 596h-463l-54 -218h463z" />
    <glyph glyph-name="Hcircumflex" unicode="&#x124;" horiz-adv-x="705" 
d="M503 886h16l88 -126h-19l-78 111l-134 -111h-25zM537 0h-16l90 362h-463l-90 -362h-16l177 712h16l-83 -334h463l83 334h16z" />
    <glyph glyph-name="IJ" unicode="&#x132;" horiz-adv-x="529" 
d="M58 0h-16l177 712h16zM543 712l-136 -545c-28 -113 -96 -171 -187 -171c-16 0 -32 3 -42 6l4 15c11 -3 25 -5 38 -5c84 0 146 53 172 159l135 541h16z" />
    <glyph glyph-name="Iacute" unicode="&#xcd;" horiz-adv-x="226" 
d="M204 760h-21l137 126h24zM58 0h-16l177 712h16z" />
    <glyph glyph-name="Ibreve" unicode="&#x12c;" horiz-adv-x="226" 
d="M398 886h17c-27 -81 -86 -127 -171 -127c-78 0 -118 39 -118 108c0 6 0 12 1 19h16c-1 -7 -1 -13 -1 -19c0 -60 33 -92 102 -92c76 0 128 39 154 111zM58 0h-16l177 712h16z" />
    <glyph glyph-name="Icircumflex" unicode="&#xce;" horiz-adv-x="226" 
d="M263 886h16l88 -126h-19l-78 111l-134 -111h-25zM58 0h-16l177 712h16z" />
    <glyph glyph-name="Idieresis" unicode="&#xcf;" horiz-adv-x="226" 
d="M160 779h-16l20 77h16zM344 779h-16l20 77h16zM58 0h-16l177 712h16z" />
    <glyph glyph-name="Idotaccent" unicode="&#x130;" horiz-adv-x="226" 
d="M252 779h-16l20 77h16zM58 0h-16l177 712h16z" />
    <glyph glyph-name="Igrave" unicode="&#xcc;" horiz-adv-x="226" 
d="M295 760h-17l-80 126h20zM58 0h-16l177 712h16z" />
    <glyph glyph-name="Imacron" unicode="&#x12a;" horiz-adv-x="226" 
d="M362 802h-226l4 16h226zM58 0h-16l177 712h16z" />
    <glyph glyph-name="Iogonek" unicode="&#x12e;" horiz-adv-x="226" 
d="M235 712l-177 -712c-95 -63 -115 -100 -115 -134c0 -26 12 -39 43 -39c12 0 24 2 33 5l-4 -17c-8 -2 -19 -4 -29 -4c-40 0 -59 20 -59 55c0 44 29 83 117 142l175 704h16z" />
    <glyph glyph-name="Itilde" unicode="&#x128;" horiz-adv-x="226" 
d="M396 876h17c-17 -53 -50 -81 -88 -81c-62 0 -79 65 -134 65c-31 0 -56 -22 -70 -65h-17c17 53 50 81 88 81c62 0 79 -65 134 -65c31 0 56 22 70 65zM58 0h-16l177 712h16z" />
    <glyph glyph-name="Jcircumflex" unicode="&#x134;" horiz-adv-x="303" 
d="M345 886h16l88 -126h-19l-78 111l-134 -111h-25zM317 712l-136 -545c-28 -113 -96 -171 -187 -171c-16 0 -32 3 -42 6l4 15c11 -3 25 -5 38 -5c84 0 146 53 172 159l135 541h16z" />
    <glyph glyph-name="Kcommaaccent" unicode="&#x136;" horiz-adv-x="532" 
d="M168 372l297 -372h-20l-295 368h-1l-91 -368h-16l177 712h16l-83 -332h1l431 332h26zM217 -79h16l-16 -66l-54 -94h-14l52 94z" />
    <glyph glyph-name="Lacute" unicode="&#x139;" horiz-adv-x="525" 
d="M244 760h-21l137 126h24zM62 16h399l-4 -16h-415l177 712h16z" />
    <glyph glyph-name="Lcaron" unicode="&#x13d;" horiz-adv-x="525" 
d="M62 16h399l-4 -16h-415l177 712h16zM276 498h-14l94 214h17z" />
    <glyph glyph-name="Lcommaaccent" unicode="&#x13b;" horiz-adv-x="525" 
d="M62 16h399l-4 -16h-415l177 712h16zM222 -145l-54 -94h-14l52 94l16 66h16z" />
    <glyph glyph-name="Ldot" unicode="&#x13f;" horiz-adv-x="605" 
d="M62 16h399l-4 -16h-415l177 712h16zM450 355h-18l18 72h18z" />
    <glyph glyph-name="Lslash" unicode="&#x141;" horiz-adv-x="525" 
d="M461 16l-4 -16h-415l79 317l-92 -48l5 20l92 48l93 375h16l-91 -366l189 98l-4 -20l-190 -99l-77 -309h399z" />
    <glyph glyph-name="Nacute" unicode="&#x143;" horiz-adv-x="718" 
d="M450 760h-21l137 126h24zM550 0h-24l-140 333l-154 364h-1l-96 -386l-77 -311h-16l177 712h24l140 -333c51 -121 102 -241 153 -364h1c33 129 64 257 97 386l77 311h16z" />
    <glyph glyph-name="Ncaron" unicode="&#x147;" horiz-adv-x="718" 
d="M493 760h-16l-88 126h19l78 -111l134 111h25zM550 0h-24l-140 333l-154 364h-1l-96 -386l-77 -311h-16l177 712h24l140 -333c51 -121 102 -241 153 -364h1c33 129 64 257 97 386l77 311h16z" />
    <glyph glyph-name="Ncommaaccent" unicode="&#x145;" horiz-adv-x="718" 
d="M550 0h-24l-140 333l-154 364h-1l-96 -386l-77 -311h-16l177 712h24l140 -333c51 -121 102 -241 153 -364h1c33 129 64 257 97 386l77 311h16zM268 -145l-54 -94h-14l52 94l16 66h16z" />
    <glyph glyph-name="Eng" unicode="&#x14a;" horiz-adv-x="718" 
d="M727 712l-189 -760c-26 -106 -75 -139 -140 -139c-8 0 -15 1 -21 3l4 15c4 -1 11 -2 17 -2c58 0 100 28 125 129l10 41l-153 356c-49 113 -98 229 -147 342h-1l-92 -368l-82 -329h-16l177 712h25l146 -340l149 -345h1c30 122 62 248 93 372l78 313h16z" />
    <glyph glyph-name="Ntilde" unicode="&#xd1;" horiz-adv-x="718" 
d="M642 876h17c-17 -53 -50 -81 -88 -81c-62 0 -79 65 -134 65c-31 0 -56 -22 -70 -65h-17c17 53 50 81 88 81c62 0 79 -65 134 -65c31 0 56 22 70 65zM550 0h-24l-140 333l-154 364h-1l-96 -386l-77 -311h-16l177 712h24l140 -333c51 -121 102 -241 153 -364h1
c33 129 64 257 97 386l77 311h16z" />
    <glyph glyph-name="Oacute" unicode="&#xd3;" horiz-adv-x="702" 
d="M418 760h-21l137 126h24zM433 722c162 0 253 -116 253 -283c0 -198 -128 -449 -366 -449c-162 0 -253 116 -253 283c0 198 128 449 366 449zM433 706c-229 0 -350 -244 -350 -433c0 -158 84 -267 237 -267c229 0 350 244 350 433c0 158 -84 267 -237 267z" />
    <glyph glyph-name="Obreve" unicode="&#x14e;" horiz-adv-x="702" 
d="M612 886h17c-27 -81 -86 -127 -171 -127c-78 0 -118 39 -118 108c0 6 0 12 1 19h16c-1 -7 -1 -13 -1 -19c0 -60 33 -92 102 -92c76 0 128 39 154 111zM433 722c162 0 253 -116 253 -283c0 -198 -128 -449 -366 -449c-162 0 -253 116 -253 283c0 198 128 449 366 449z
M433 706c-229 0 -350 -244 -350 -433c0 -158 84 -267 237 -267c229 0 350 244 350 433c0 158 -84 267 -237 267z" />
    <glyph glyph-name="Ocircumflex" unicode="&#xd4;" horiz-adv-x="702" 
d="M477 886h16l88 -126h-19l-78 111l-134 -111h-25zM433 722c162 0 253 -116 253 -283c0 -198 -128 -449 -366 -449c-162 0 -253 116 -253 283c0 198 128 449 366 449zM433 706c-229 0 -350 -244 -350 -433c0 -158 84 -267 237 -267c229 0 350 244 350 433
c0 158 -84 267 -237 267z" />
    <glyph glyph-name="Odieresis" unicode="&#xd6;" horiz-adv-x="702" 
d="M374 779h-16l20 77h16zM558 779h-16l20 77h16zM433 722c162 0 253 -116 253 -283c0 -198 -128 -449 -366 -449c-162 0 -253 116 -253 283c0 198 128 449 366 449zM433 706c-229 0 -350 -244 -350 -433c0 -158 84 -267 237 -267c229 0 350 244 350 433
c0 158 -84 267 -237 267z" />
    <glyph glyph-name="Ograve" unicode="&#xd2;" horiz-adv-x="702" 
d="M509 760h-17l-80 126h20zM433 722c162 0 253 -116 253 -283c0 -198 -128 -449 -366 -449c-162 0 -253 116 -253 283c0 198 128 449 366 449zM433 706c-229 0 -350 -244 -350 -433c0 -158 84 -267 237 -267c229 0 350 244 350 433c0 158 -84 267 -237 267z" />
    <glyph glyph-name="Ohungarumlaut" unicode="&#x150;" horiz-adv-x="702" 
d="M389 760h-21l152 126h26zM488 760h-21l152 126h26zM433 722c162 0 253 -116 253 -283c0 -198 -128 -449 -366 -449c-162 0 -253 116 -253 283c0 198 128 449 366 449zM433 706c-229 0 -350 -244 -350 -433c0 -158 84 -267 237 -267c229 0 350 244 350 433
c0 158 -84 267 -237 267z" />
    <glyph glyph-name="Omacron" unicode="&#x14c;" horiz-adv-x="702" 
d="M576 802h-226l4 16h226zM433 722c162 0 253 -116 253 -283c0 -198 -128 -449 -366 -449c-162 0 -253 116 -253 283c0 198 128 449 366 449zM433 706c-229 0 -350 -244 -350 -433c0 -158 84 -267 237 -267c229 0 350 244 350 433c0 158 -84 267 -237 267z" />
    <glyph glyph-name="Oslash" unicode="&#xd8;" horiz-adv-x="702" 
d="M718 682l-74 -73c28 -46 42 -104 42 -170c0 -198 -128 -449 -366 -449c-91 0 -160 37 -203 99l-71 -70l-11 11l74 73c-28 46 -42 104 -42 170c0 198 128 449 366 449c91 0 160 -37 203 -99l71 70zM83 273c0 -62 13 -116 37 -159l504 497c-39 60 -104 95 -191 95
c-229 0 -350 -244 -350 -433zM670 439c0 62 -12 116 -37 159l-504 -497c40 -60 104 -95 191 -95c229 0 350 244 350 433z" />
    <glyph glyph-name="Otilde" unicode="&#xd5;" horiz-adv-x="702" 
d="M610 876h17c-17 -53 -50 -81 -88 -81c-62 0 -79 65 -134 65c-31 0 -56 -22 -70 -65h-17c17 53 50 81 88 81c62 0 79 -65 134 -65c31 0 56 22 70 65zM433 722c162 0 253 -116 253 -283c0 -198 -128 -449 -366 -449c-162 0 -253 116 -253 283c0 198 128 449 366 449z
M433 706c-229 0 -350 -244 -350 -433c0 -158 84 -267 237 -267c229 0 350 244 350 433c0 158 -84 267 -237 267z" />
    <glyph glyph-name="OE" unicode="&#x152;" horiz-adv-x="963" 
d="M999 696h-391l-80 -322h374l-4 -16h-374l-85 -342h405l-4 -16h-487c-184 0 -281 108 -281 302c0 183 120 410 410 410h521zM592 696h-110c-281 0 -394 -220 -394 -394c0 -185 90 -286 265 -286h70z" />
    <glyph glyph-name="Thorn" unicode="&#xde;" horiz-adv-x="576" 
d="M197 557h187c131 0 189 -68 189 -169c0 -91 -72 -207 -235 -207h-235l-45 -181h-16l177 712h16zM193 541l-86 -344h231c153 0 219 109 219 191c0 92 -52 153 -173 153h-191z" />
    <glyph glyph-name="Racute" unicode="&#x154;" horiz-adv-x="591" 
d="M363 760h-21l137 126h24zM219 712h181c130 0 190 -61 190 -156c0 -90 -69 -188 -200 -207v-1c47 -15 69 -44 80 -133l26 -215h-16l-25 210c-11 96 -34 132 -127 132h-185l-85 -342h-16zM231 696l-84 -338h181c178 0 246 117 246 198c0 86 -53 140 -174 140h-169z" />
    <glyph glyph-name="Rcaron" unicode="&#x158;" horiz-adv-x="591" 
d="M406 760h-16l-88 126h19l78 -111l134 111h25zM219 712h181c130 0 190 -61 190 -156c0 -90 -69 -188 -200 -207v-1c47 -15 69 -44 80 -133l26 -215h-16l-25 210c-11 96 -34 132 -127 132h-185l-85 -342h-16zM231 696l-84 -338h181c178 0 246 117 246 198
c0 86 -53 140 -174 140h-169z" />
    <glyph glyph-name="Rcommaaccent" unicode="&#x156;" horiz-adv-x="591" 
d="M219 712h181c130 0 190 -61 190 -156c0 -90 -69 -188 -200 -207v-1c47 -15 69 -44 80 -133l26 -215h-16l-25 210c-11 96 -34 132 -127 132h-185l-85 -342h-16zM231 696l-84 -338h181c178 0 246 117 246 198c0 86 -53 140 -174 140h-169zM241 -145l-54 -94h-14l52 94
l16 66h16z" />
    <glyph glyph-name="Sacute" unicode="&#x15a;" horiz-adv-x="576" 
d="M347 760h-21l137 126h24zM370 722c131 0 196 -56 196 -167c0 -21 -3 -44 -9 -70h-16c6 26 9 49 9 70c0 102 -58 151 -180 151c-150 0 -218 -105 -218 -184c0 -83 55 -117 160 -151c114 -37 179 -70 179 -173c0 -99 -80 -208 -250 -208c-133 0 -203 57 -203 174
c0 22 3 46 10 74h16c-7 -28 -10 -52 -10 -74c0 -108 63 -158 187 -158c166 0 234 106 234 192c0 97 -64 124 -172 159c-110 36 -167 76 -167 165c0 91 80 200 234 200z" />
    <glyph glyph-name="Scaron" unicode="&#x160;" horiz-adv-x="576" 
d="M390 760h-16l-88 126h19l78 -111l134 111h25zM370 722c131 0 196 -56 196 -167c0 -21 -3 -44 -9 -70h-16c6 26 9 49 9 70c0 102 -58 151 -180 151c-150 0 -218 -105 -218 -184c0 -83 55 -117 160 -151c114 -37 179 -70 179 -173c0 -99 -80 -208 -250 -208
c-133 0 -203 57 -203 174c0 22 3 46 10 74h16c-7 -28 -10 -52 -10 -74c0 -108 63 -158 187 -158c166 0 234 106 234 192c0 97 -64 124 -172 159c-110 36 -167 76 -167 165c0 91 80 200 234 200z" />
    <glyph glyph-name="Scedilla" unicode="&#x15e;" horiz-adv-x="576" 
d="M370 722c131 0 196 -56 196 -167c0 -21 -3 -44 -9 -70h-16c6 26 9 49 9 70c0 102 -58 151 -180 151c-150 0 -218 -105 -218 -184c0 -83 55 -117 160 -151c114 -37 179 -70 179 -173c0 -95 -74 -200 -232 -208l-55 -58c4 1 10 2 16 2c44 0 68 -23 68 -61
c0 -46 -40 -78 -97 -78c-36 0 -64 9 -88 23l8 14c22 -14 48 -21 80 -21c48 0 81 25 81 62c0 29 -17 46 -52 46c-12 0 -24 -2 -34 -5l-10 11l61 65c-131 1 -199 58 -199 174c0 22 3 46 10 74h16c-7 -28 -10 -52 -10 -74c0 -108 63 -158 187 -158c166 0 234 106 234 192
c0 97 -64 124 -172 159c-110 36 -167 76 -167 165c0 91 80 200 234 200z" />
    <glyph glyph-name="Scircumflex" unicode="&#x15c;" horiz-adv-x="576" 
d="M406 886h16l88 -126h-19l-78 111l-134 -111h-25zM370 722c131 0 196 -56 196 -167c0 -21 -3 -44 -9 -70h-16c6 26 9 49 9 70c0 102 -58 151 -180 151c-150 0 -218 -105 -218 -184c0 -83 55 -117 160 -151c114 -37 179 -70 179 -173c0 -99 -80 -208 -250 -208
c-133 0 -203 57 -203 174c0 22 3 46 10 74h16c-7 -28 -10 -52 -10 -74c0 -108 63 -158 187 -158c166 0 234 106 234 192c0 97 -64 124 -172 159c-110 36 -167 76 -167 165c0 91 80 200 234 200z" />
    <glyph glyph-name="Scommaaccent" unicode="&#x218;" horiz-adv-x="576" 
d="M370 722c131 0 196 -56 196 -167c0 -21 -3 -44 -9 -70h-16c6 26 9 49 9 70c0 102 -58 151 -180 151c-150 0 -218 -105 -218 -184c0 -83 55 -117 160 -151c114 -37 179 -70 179 -173c0 -99 -80 -208 -250 -208c-133 0 -203 57 -203 174c0 22 3 46 10 74h16
c-7 -28 -10 -52 -10 -74c0 -108 63 -158 187 -158c166 0 234 106 234 192c0 97 -64 124 -172 159c-110 36 -167 76 -167 165c0 91 80 200 234 200zM207 -145l-54 -94h-14l52 94l16 66h16z" />
    <glyph glyph-name="Germandbls" unicode="&#x1e9e;" horiz-adv-x="717" 
d="M697 616l-254 -207c129 -19 204 -78 204 -198c0 -104 -83 -221 -250 -221c-115 0 -174 48 -174 132c0 11 1 23 4 36h16c-3 -13 -4 -25 -4 -36c0 -75 52 -116 159 -116c163 0 233 113 233 205c0 115 -72 169 -213 185l4 16l254 207c-38 54 -108 87 -200 87
c-166 0 -274 -89 -318 -264l-110 -442h-16l111 446c45 182 160 276 333 276c106 0 183 -43 221 -106z" />
    <glyph glyph-name="Tbar" unicode="&#x166;" horiz-adv-x="568" 
d="M402 696l-69 -278h158l-4 -16h-158l-100 -402h-16l100 402h-158l4 16h158l69 278h-271l4 16h558l-4 -16h-271z" />
    <glyph glyph-name="Tcaron" unicode="&#x164;" horiz-adv-x="568" 
d="M408 760h-16l-88 126h19l78 -111l134 111h25zM673 696h-271l-173 -696h-16l173 696h-271l4 16h558z" />
    <glyph glyph-name="Tcedilla" unicode="&#x162;" horiz-adv-x="568" 
d="M673 696h-271l-173 -696h-16l173 696h-271l4 16h558zM198 -145l-54 -94h-14l52 94l16 66h16z" />
    <glyph glyph-name="Tcommaaccent" unicode="&#x21a;" horiz-adv-x="568" 
d="M673 696h-271l-173 -696h-16l173 696h-271l4 16h558zM198 -145l-54 -94h-14l52 94l16 66h16z" />
    <glyph glyph-name="Uacute" unicode="&#xda;" horiz-adv-x="670" 
d="M416 760h-21l137 126h24zM685 712l-119 -476c-41 -164 -140 -246 -283 -246c-127 0 -192 64 -192 191c0 30 5 64 15 103l107 428h16l-108 -432c-9 -37 -14 -70 -14 -99c0 -118 58 -175 176 -175c135 0 229 77 268 234l118 472h16z" />
    <glyph glyph-name="Ubreve" unicode="&#x16c;" horiz-adv-x="670" 
d="M610 886h17c-27 -81 -86 -127 -171 -127c-78 0 -118 39 -118 108c0 6 0 12 1 19h16c-1 -7 -1 -13 -1 -19c0 -60 33 -92 102 -92c76 0 128 39 154 111zM685 712l-119 -476c-41 -164 -140 -246 -283 -246c-127 0 -192 64 -192 191c0 30 5 64 15 103l107 428h16l-108 -432
c-9 -37 -14 -70 -14 -99c0 -118 58 -175 176 -175c135 0 229 77 268 234l118 472h16z" />
    <glyph glyph-name="Ucircumflex" unicode="&#xdb;" horiz-adv-x="670" 
d="M475 886h16l88 -126h-19l-78 111l-134 -111h-25zM685 712l-119 -476c-41 -164 -140 -246 -283 -246c-127 0 -192 64 -192 191c0 30 5 64 15 103l107 428h16l-108 -432c-9 -37 -14 -70 -14 -99c0 -118 58 -175 176 -175c135 0 229 77 268 234l118 472h16z" />
    <glyph glyph-name="Udieresis" unicode="&#xdc;" horiz-adv-x="670" 
d="M372 779h-16l20 77h16zM556 779h-16l20 77h16zM685 712l-119 -476c-41 -164 -140 -246 -283 -246c-127 0 -192 64 -192 191c0 30 5 64 15 103l107 428h16l-108 -432c-9 -37 -14 -70 -14 -99c0 -118 58 -175 176 -175c135 0 229 77 268 234l118 472h16z" />
    <glyph glyph-name="Ugrave" unicode="&#xd9;" horiz-adv-x="670" 
d="M507 760h-17l-80 126h20zM685 712l-119 -476c-41 -164 -140 -246 -283 -246c-127 0 -192 64 -192 191c0 30 5 64 15 103l107 428h16l-108 -432c-9 -37 -14 -70 -14 -99c0 -118 58 -175 176 -175c135 0 229 77 268 234l118 472h16z" />
    <glyph glyph-name="Uhungarumlaut" unicode="&#x170;" horiz-adv-x="670" 
d="M387 760h-21l152 126h26zM486 760h-21l152 126h26zM685 712l-119 -476c-41 -164 -140 -246 -283 -246c-127 0 -192 64 -192 191c0 30 5 64 15 103l107 428h16l-108 -432c-9 -37 -14 -70 -14 -99c0 -118 58 -175 176 -175c135 0 229 77 268 234l118 472h16z" />
    <glyph glyph-name="Umacron" unicode="&#x16a;" horiz-adv-x="670" 
d="M574 802h-226l4 16h226zM685 712l-119 -476c-41 -164 -140 -246 -283 -246c-127 0 -192 64 -192 191c0 30 5 64 15 103l107 428h16l-108 -432c-9 -37 -14 -70 -14 -99c0 -118 58 -175 176 -175c135 0 229 77 268 234l118 472h16z" />
    <glyph glyph-name="Uogonek" unicode="&#x172;" horiz-adv-x="670" 
d="M685 712l-117 -468c-25 -101 -72 -172 -134 -213c-131 -87 -156 -124 -156 -165c0 -26 12 -39 43 -39c12 0 24 2 33 5l-4 -17c-8 -2 -19 -4 -29 -4c-40 0 -59 20 -59 55c0 42 26 79 105 134v1c-26 -7 -54 -11 -84 -11c-128 0 -194 61 -194 183c0 30 5 64 15 103l109 436
h16l-110 -440c-9 -37 -14 -70 -14 -99c0 -113 59 -167 178 -167c136 0 229 80 270 242l116 464h16z" />
    <glyph glyph-name="Uring" unicode="&#x16e;" horiz-adv-x="670" 
d="M464 935c46 0 84 -38 84 -84c0 -47 -38 -84 -84 -84s-84 37 -84 84c0 46 38 84 84 84zM464 919c-38 0 -68 -30 -68 -68s30 -68 68 -68s68 30 68 68s-30 68 -68 68zM685 712l-119 -476c-41 -164 -140 -246 -283 -246c-127 0 -192 64 -192 191c0 30 5 64 15 103l107 428h16
l-108 -432c-9 -37 -14 -70 -14 -99c0 -118 58 -175 176 -175c135 0 229 77 268 234l118 472h16z" />
    <glyph glyph-name="Utilde" unicode="&#x168;" horiz-adv-x="670" 
d="M608 876h17c-17 -53 -50 -81 -88 -81c-62 0 -79 65 -134 65c-31 0 -56 -22 -70 -65h-17c17 53 50 81 88 81c62 0 79 -65 134 -65c31 0 56 22 70 65zM685 712l-119 -476c-41 -164 -140 -246 -283 -246c-127 0 -192 64 -192 191c0 30 5 64 15 103l107 428h16l-108 -432
c-9 -37 -14 -70 -14 -99c0 -118 58 -175 176 -175c135 0 229 77 268 234l118 472h16z" />
    <glyph glyph-name="Wacute" unicode="&#x1e82;" horiz-adv-x="861" 
d="M521 760h-21l137 126h24zM586 0h-25l-10 339c-4 119 -7 238 -10 357h-1l-187 -357l-177 -339h-25l-25 712h16l12 -346l12 -349h1c61 116 123 236 183 351l180 344h27l9 -344c3 -116 7 -235 10 -351h1c62 116 124 233 185 349l183 346h18z" />
    <glyph glyph-name="Wcircumflex" unicode="&#x174;" horiz-adv-x="861" 
d="M580 886h16l88 -126h-19l-78 111l-134 -111h-25zM586 0h-25l-10 339c-4 119 -7 238 -10 357h-1l-187 -357l-177 -339h-25l-25 712h16l12 -346l12 -349h1c61 116 123 236 183 351l180 344h27l9 -344c3 -116 7 -235 10 -351h1c62 116 124 233 185 349l183 346h18z" />
    <glyph glyph-name="Wdieresis" unicode="&#x1e84;" horiz-adv-x="861" 
d="M477 779h-16l20 77h16zM661 779h-16l20 77h16zM586 0h-25l-10 339c-4 119 -7 238 -10 357h-1l-187 -357l-177 -339h-25l-25 712h16l12 -346l12 -349h1c61 116 123 236 183 351l180 344h27l9 -344c3 -116 7 -235 10 -351h1c62 116 124 233 185 349l183 346h18z" />
    <glyph glyph-name="Wgrave" unicode="&#x1e80;" horiz-adv-x="861" 
d="M612 760h-17l-80 126h20zM586 0h-25l-10 339c-4 119 -7 238 -10 357h-1l-187 -357l-177 -339h-25l-25 712h16l12 -346l12 -349h1c61 116 123 236 183 351l180 344h27l9 -344c3 -116 7 -235 10 -351h1c62 116 124 233 185 349l183 346h18z" />
    <glyph glyph-name="Yacute" unicode="&#xdd;" horiz-adv-x="570" 
d="M366 760h-21l137 126h24zM309 318l-79 -318h-16l79 318l-172 394h17l75 -171l90 -206h1c65 70 131 141 197 211l155 166h21z" />
    <glyph glyph-name="Ycircumflex" unicode="&#x176;" horiz-adv-x="570" 
d="M425 886h16l88 -126h-19l-78 111l-134 -111h-25zM309 318l-79 -318h-16l79 318l-172 394h17l75 -171l90 -206h1c65 70 131 141 197 211l155 166h21z" />
    <glyph glyph-name="Ydieresis" unicode="&#x178;" horiz-adv-x="570" 
d="M322 779h-16l20 77h16zM506 779h-16l20 77h16zM309 318l-79 -318h-16l79 318l-172 394h17l75 -171l90 -206h1c65 70 131 141 197 211l155 166h21z" />
    <glyph glyph-name="Ygrave" unicode="&#x1ef2;" horiz-adv-x="570" 
d="M457 760h-17l-80 126h20zM309 318l-79 -318h-16l79 318l-172 394h17l75 -171l90 -206h1c65 70 131 141 197 211l155 166h21z" />
    <glyph glyph-name="Zacute" unicode="&#x179;" horiz-adv-x="547" 
d="M346 760h-21l137 126h24zM616 688l-640 -671v-1h495l-4 -16h-513l6 24l640 671v1h-468l4 16h486z" />
    <glyph glyph-name="Zcaron" unicode="&#x17d;" horiz-adv-x="547" 
d="M389 760h-16l-88 126h19l78 -111l134 111h25zM616 688l-640 -671v-1h495l-4 -16h-513l6 24l640 671v1h-468l4 16h486z" />
    <glyph glyph-name="Zdotaccent" unicode="&#x17b;" horiz-adv-x="547" 
d="M394 779h-16l20 77h16zM616 688l-640 -671v-1h495l-4 -16h-513l6 24l640 671v1h-468l4 16h486z" />
    <glyph glyph-name="J.acute.loclNLD" horiz-adv-x="303" 
d="M297 778h-19l126 138h23zM317 712l-136 -545c-28 -113 -96 -171 -187 -171c-16 0 -32 3 -42 6l4 15c11 -3 25 -5 38 -5c84 0 146 53 172 159l135 541h16z" />
    <glyph glyph-name="Ccedilla.ss01" horiz-adv-x="661" 
d="M438 722c146 0 216 -98 216 -221c0 -12 -1 -24 -2 -36h-16c1 12 2 24 2 36c0 115 -64 205 -199 205c-233 0 -358 -249 -358 -445c0 -154 78 -255 219 -255c135 0 243 90 285 211h17c-45 -133 -160 -227 -302 -227c-150 0 -235 108 -235 272c0 204 131 460 373 460z
M149 -207h-24l163 158h20z" />
    <glyph glyph-name="Scedilla.ss01" horiz-adv-x="576" 
d="M370 722c131 0 196 -56 196 -167c0 -21 -3 -44 -9 -70h-16c6 26 9 49 9 70c0 102 -58 151 -180 151c-150 0 -218 -105 -218 -184c0 -83 55 -117 160 -151c114 -37 179 -70 179 -173c0 -99 -80 -208 -250 -208c-133 0 -203 57 -203 174c0 22 3 46 10 74h16
c-7 -28 -10 -52 -10 -74c0 -108 63 -158 187 -158c166 0 234 106 234 192c0 97 -64 124 -172 159c-110 36 -167 76 -167 165c0 91 80 200 234 200zM96 -207h-24l163 158h20z" />
    <glyph glyph-name="Tcedilla.ss01" horiz-adv-x="568" 
d="M673 696h-271l-173 -696h-16l173 696h-271l4 16h558zM87 -207h-24l163 158h20z" />
    <glyph glyph-name="aacute" unicode="&#xe1;" horiz-adv-x="494" 
d="M277 574h-19l126 138h23zM285 518c90 0 150 -46 150 -144c0 -19 -3 -38 -10 -66l-50 -199c-9 -36 -17 -83 -18 -109h-16c2 29 12 73 23 118h-1c-41 -78 -110 -128 -208 -128c-89 0 -144 48 -144 126c0 69 43 139 195 161c54 8 137 17 201 23l3 12c6 24 9 44 9 62
c0 89 -53 128 -134 128c-97 0 -161 -62 -180 -147h-17c22 98 96 163 197 163zM384 208l19 76c-59 -5 -146 -15 -196 -23c-145 -22 -180 -85 -180 -145c0 -69 48 -110 128 -110c115 0 197 74 229 202z" />
    <glyph glyph-name="abreve" unicode="&#x103;" horiz-adv-x="494" 
d="M467 712h17c-27 -81 -86 -127 -171 -127c-78 0 -118 39 -118 108c0 6 0 12 1 19h16c-1 -7 -1 -13 -1 -19c0 -60 33 -92 102 -92c76 0 128 39 154 111zM285 518c90 0 150 -46 150 -144c0 -19 -3 -38 -10 -66l-50 -199c-9 -36 -17 -83 -18 -109h-16c2 29 12 73 23 118h-1
c-41 -78 -110 -128 -208 -128c-89 0 -144 48 -144 126c0 69 43 139 195 161c54 8 137 17 201 23l3 12c6 24 9 44 9 62c0 89 -53 128 -134 128c-97 0 -161 -62 -180 -147h-17c22 98 96 163 197 163zM384 208l19 76c-59 -5 -146 -15 -196 -23c-145 -22 -180 -85 -180 -145
c0 -69 48 -110 128 -110c115 0 197 74 229 202z" />
    <glyph glyph-name="acircumflex" unicode="&#xe2;" horiz-adv-x="494" 
d="M433 574h-19l-75 123l-136 -123h-24l153 138h16zM285 518c90 0 150 -46 150 -144c0 -19 -3 -38 -10 -66l-50 -199c-9 -36 -17 -83 -18 -109h-16c2 29 12 73 23 118h-1c-41 -78 -110 -128 -208 -128c-89 0 -144 48 -144 126c0 69 43 139 195 161c54 8 137 17 201 23l3 12
c6 24 9 44 9 62c0 89 -53 128 -134 128c-97 0 -161 -62 -180 -147h-17c22 98 96 163 197 163zM384 208l19 76c-59 -5 -146 -15 -196 -23c-145 -22 -180 -85 -180 -145c0 -69 48 -110 128 -110c115 0 197 74 229 202z" />
    <glyph glyph-name="adieresis" unicode="&#xe4;" horiz-adv-x="494" 
d="M237 635h-16l19 77h16zM421 635h-16l19 77h16zM285 518c90 0 150 -46 150 -144c0 -19 -3 -38 -10 -66l-50 -199c-9 -36 -17 -83 -18 -109h-16c2 29 12 73 23 118h-1c-41 -78 -110 -128 -208 -128c-89 0 -144 48 -144 126c0 69 43 139 195 161c54 8 137 17 201 23l3 12
c6 24 9 44 9 62c0 89 -53 128 -134 128c-97 0 -161 -62 -180 -147h-17c22 98 96 163 197 163zM384 208l19 76c-59 -5 -146 -15 -196 -23c-145 -22 -180 -85 -180 -145c0 -69 48 -110 128 -110c115 0 197 74 229 202z" />
    <glyph glyph-name="agrave" unicode="&#xe0;" horiz-adv-x="494" 
d="M293 712l62 -138h-15l-66 138h19zM285 518c90 0 150 -46 150 -144c0 -19 -3 -38 -10 -66l-50 -199c-9 -36 -17 -83 -18 -109h-16c2 29 12 73 23 118h-1c-41 -78 -110 -128 -208 -128c-89 0 -144 48 -144 126c0 69 43 139 195 161c54 8 137 17 201 23l3 12c6 24 9 44 9 62
c0 89 -53 128 -134 128c-97 0 -161 -62 -180 -147h-17c22 98 96 163 197 163zM384 208l19 76c-59 -5 -146 -15 -196 -23c-145 -22 -180 -85 -180 -145c0 -69 48 -110 128 -110c115 0 197 74 229 202z" />
    <glyph glyph-name="amacron" unicode="&#x101;" horiz-adv-x="494" 
d="M437 648h-226l4 16h226zM285 518c90 0 150 -46 150 -144c0 -19 -3 -38 -10 -66l-50 -199c-9 -36 -17 -83 -18 -109h-16c2 29 12 73 23 118h-1c-41 -78 -110 -128 -208 -128c-89 0 -144 48 -144 126c0 69 43 139 195 161c54 8 137 17 201 23l3 12c6 24 9 44 9 62
c0 89 -53 128 -134 128c-97 0 -161 -62 -180 -147h-17c22 98 96 163 197 163zM384 208l19 76c-59 -5 -146 -15 -196 -23c-145 -22 -180 -85 -180 -145c0 -69 48 -110 128 -110c115 0 197 74 229 202z" />
    <glyph glyph-name="aogonek" unicode="&#x105;" horiz-adv-x="494" 
d="M285 518c90 0 150 -46 150 -144c0 -19 -3 -38 -10 -66l-50 -199c-9 -36 -17 -83 -18 -109c-95 -63 -115 -100 -115 -134c0 -26 12 -39 43 -39c12 0 24 2 33 5l-4 -17c-8 -2 -19 -4 -29 -4c-40 0 -59 20 -59 55c0 44 29 83 116 141c3 29 12 70 22 111h-1
c-41 -78 -110 -128 -208 -128c-89 0 -144 48 -144 126c0 69 43 139 195 161c54 8 137 17 201 23l3 12c6 24 9 44 9 62c0 89 -53 128 -134 128c-97 0 -161 -62 -180 -147h-17c22 98 96 163 197 163zM384 208l19 76c-59 -5 -146 -15 -196 -23c-145 -22 -180 -85 -180 -145
c0 -69 48 -110 128 -110c115 0 197 74 229 202z" />
    <glyph glyph-name="aring" unicode="&#xe5;" horiz-adv-x="494" 
d="M321 761c46 0 84 -38 84 -84c0 -47 -38 -84 -84 -84s-84 37 -84 84c0 46 38 84 84 84zM321 745c-38 0 -68 -30 -68 -68s30 -68 68 -68s68 30 68 68s-30 68 -68 68zM285 518c90 0 150 -46 150 -144c0 -19 -3 -38 -10 -66l-50 -199c-9 -36 -17 -83 -18 -109h-16
c2 29 12 73 23 118h-1c-41 -78 -110 -128 -208 -128c-89 0 -144 48 -144 126c0 69 43 139 195 161c54 8 137 17 201 23l3 12c6 24 9 44 9 62c0 89 -53 128 -134 128c-97 0 -161 -62 -180 -147h-17c22 98 96 163 197 163zM384 208l19 76c-59 -5 -146 -15 -196 -23
c-145 -22 -180 -85 -180 -145c0 -69 48 -110 128 -110c115 0 197 74 229 202z" />
    <glyph glyph-name="atilde" unicode="&#xe3;" horiz-adv-x="494" 
d="M465 702h17c-17 -53 -50 -81 -88 -81c-62 0 -78 65 -133 65c-31 0 -56 -22 -70 -65h-17c17 53 50 81 88 81c62 0 78 -65 133 -65c31 0 56 22 70 65zM285 518c90 0 150 -46 150 -144c0 -19 -3 -38 -10 -66l-50 -199c-9 -36 -17 -83 -18 -109h-16c2 29 12 73 23 118h-1
c-41 -78 -110 -128 -208 -128c-89 0 -144 48 -144 126c0 69 43 139 195 161c54 8 137 17 201 23l3 12c6 24 9 44 9 62c0 89 -53 128 -134 128c-97 0 -161 -62 -180 -147h-17c22 98 96 163 197 163zM384 208l19 76c-59 -5 -146 -15 -196 -23c-145 -22 -180 -85 -180 -145
c0 -69 48 -110 128 -110c115 0 197 74 229 202z" />
    <glyph glyph-name="ae" unicode="&#xe6;" horiz-adv-x="815" 
d="M768 259h-364c-6 -29 -9 -56 -9 -81c0 -108 48 -172 134 -172c85 0 159 57 188 143h17c-32 -97 -113 -159 -205 -159c-96 0 -147 69 -148 185h-1c-33 -118 -128 -185 -219 -185c-93 0 -150 47 -150 127c0 75 53 158 228 158h153l10 40c5 20 8 38 8 54
c0 94 -49 133 -125 133c-97 0 -161 -62 -180 -147h-17c22 98 96 163 197 163c85 0 139 -45 139 -149v-3h1c42 85 112 152 208 152c90 0 148 -64 148 -179c0 -20 -4 -50 -13 -80zM633 502c-107 0 -192 -94 -225 -227h347c7 21 10 44 10 64c0 106 -51 163 -132 163zM161 6
c109 0 188 79 217 213l10 40h-149c-166 0 -212 -76 -212 -142c0 -71 50 -111 134 -111z" />
    <glyph glyph-name="cacute" unicode="&#x107;" horiz-adv-x="493" 
d="M291 574h-19l126 138h23zM308 518c99 0 159 -65 159 -167c0 -4 0 -9 -1 -15h-16c1 6 1 11 1 15c0 93 -53 151 -143 151c-166 0 -251 -188 -251 -323c0 -110 52 -173 155 -173c91 0 169 60 200 151h17c-33 -101 -119 -167 -217 -167c-112 0 -171 70 -171 189
c0 144 92 339 267 339z" />
    <glyph glyph-name="ccaron" unicode="&#x10d;" horiz-adv-x="493" 
d="M328 574h-16l-85 138h19l75 -123l136 123h24zM308 518c99 0 159 -65 159 -167c0 -4 0 -9 -1 -15h-16c1 6 1 11 1 15c0 93 -53 151 -143 151c-166 0 -251 -188 -251 -323c0 -110 52 -173 155 -173c91 0 169 60 200 151h17c-33 -101 -119 -167 -217 -167
c-112 0 -171 70 -171 189c0 144 92 339 267 339z" />
    <glyph glyph-name="ccedilla" unicode="&#xe7;" horiz-adv-x="493" 
d="M308 518c99 0 159 -65 159 -167c0 -4 0 -9 -1 -15h-16c1 6 1 11 1 15c0 93 -53 151 -143 151c-166 0 -251 -188 -251 -323c0 -110 52 -173 155 -173c91 0 169 60 200 151h17c-31 -94 -108 -158 -198 -166l-55 -59c4 1 10 2 16 2c44 0 68 -23 68 -61
c0 -46 -40 -78 -97 -78c-36 0 -64 9 -88 23l8 14c22 -14 48 -21 80 -21c48 0 81 25 81 62c0 29 -17 46 -52 46c-12 0 -24 -2 -34 -5l-10 11l61 65c-110 1 -168 71 -168 189c0 144 92 339 267 339z" />
    <glyph glyph-name="ccircumflex" unicode="&#x109;" horiz-adv-x="493" 
d="M447 574h-19l-75 123l-136 -123h-24l153 138h16zM308 518c99 0 159 -65 159 -167c0 -4 0 -9 -1 -15h-16c1 6 1 11 1 15c0 93 -53 151 -143 151c-166 0 -251 -188 -251 -323c0 -110 52 -173 155 -173c91 0 169 60 200 151h17c-33 -101 -119 -167 -217 -167
c-112 0 -171 70 -171 189c0 144 92 339 267 339z" />
    <glyph glyph-name="cdotaccent" unicode="&#x10b;" horiz-adv-x="493" 
d="M343 635h-16l19 77h16zM308 518c99 0 159 -65 159 -167c0 -4 0 -9 -1 -15h-16c1 6 1 11 1 15c0 93 -53 151 -143 151c-166 0 -251 -188 -251 -323c0 -110 52 -173 155 -173c91 0 169 60 200 151h17c-33 -101 -119 -167 -217 -167c-112 0 -171 70 -171 189
c0 144 92 339 267 339z" />
    <glyph glyph-name="eth" unicode="&#xf0;" horiz-adv-x="528" 
d="M496 705l-136 -64c74 -92 124 -201 124 -323c0 -143 -87 -328 -263 -328c-114 0 -178 73 -178 199c0 141 91 329 262 329c69 0 120 -28 147 -79l1 1c-23 71 -60 135 -108 194l-139 -66l-7 14l136 64c-19 22 -40 43 -62 64l11 12c23 -22 45 -45 66 -69l139 66zM221 6
c167 0 247 179 247 312c0 117 -58 184 -163 184c-162 0 -246 -181 -246 -313c0 -117 57 -183 162 -183z" />
    <glyph glyph-name="dcaron" unicode="&#x10f;" horiz-adv-x="543" 
d="M411 141h-1c-47 -97 -121 -151 -207 -151c-104 0 -163 72 -163 191c0 144 88 337 257 337c111 0 166 -82 159 -193h1c8 42 19 86 29 126l65 261h16l-178 -712h-16l3 12c10 40 21 84 35 129zM598 538h-15l83 174h18zM297 502c-160 0 -241 -186 -241 -321
c0 -110 52 -175 147 -175c160 0 241 195 241 321c0 111 -51 175 -147 175z" />
    <glyph glyph-name="dcroat" unicode="&#x111;" horiz-adv-x="544" 
d="M594 596h-56l-149 -596h-16l3 12c10 40 21 84 35 129h-1c-47 -97 -121 -151 -207 -151c-104 0 -163 72 -163 191c0 144 88 337 257 337c111 0 166 -82 159 -193h1c8 42 19 86 29 126l36 145h-154l4 16h154l25 100h16l-25 -100h56zM203 6c160 0 241 195 241 321
c0 111 -51 175 -147 175c-160 0 -241 -186 -241 -321c0 -110 52 -175 147 -175z" />
    <glyph glyph-name="eacute" unicode="&#xe9;" horiz-adv-x="515" 
d="M288 574h-19l126 138h23zM468 259h-403c-6 -29 -9 -56 -9 -81c0 -108 53 -172 153 -172c93 0 175 57 208 143h17c-36 -97 -125 -159 -225 -159c-109 0 -169 71 -169 188c0 146 95 340 273 340c102 0 168 -64 168 -179c0 -20 -4 -50 -13 -80zM313 502
c-117 0 -209 -94 -244 -227h386c7 21 10 44 10 64c0 106 -59 163 -152 163z" />
    <glyph glyph-name="ebreve" unicode="&#x115;" horiz-adv-x="515" 
d="M324 585c-78 0 -118 39 -118 108c0 6 0 12 1 19h16c-1 -7 -1 -13 -1 -19c0 -60 33 -92 102 -92c76 0 128 39 154 111h17c-27 -81 -86 -127 -171 -127zM313 518c102 0 168 -64 168 -179c0 -20 -4 -50 -13 -80h-403c-6 -29 -9 -56 -9 -81c0 -108 53 -172 153 -172
c93 0 175 57 208 143h17c-36 -97 -125 -159 -225 -159c-109 0 -169 71 -169 188c0 146 95 340 273 340zM69 275h386c7 21 10 44 10 64c0 106 -59 163 -152 163c-117 0 -209 -94 -244 -227z" />
    <glyph glyph-name="ecaron" unicode="&#x11b;" horiz-adv-x="515" 
d="M309 574l-85 138h19l75 -123l136 123h24l-153 -138h-16zM468 259h-403c-6 -29 -9 -56 -9 -81c0 -108 53 -172 153 -172c93 0 175 57 208 143h17c-36 -97 -125 -159 -225 -159c-109 0 -169 71 -169 188c0 146 95 340 273 340c102 0 168 -64 168 -179c0 -20 -4 -50 -13 -80
zM313 502c-117 0 -209 -94 -244 -227h386c7 21 10 44 10 64c0 106 -59 163 -152 163z" />
    <glyph glyph-name="ecircumflex" unicode="&#xea;" horiz-adv-x="515" 
d="M214 574h-24l153 138h16l85 -138h-19l-75 123zM468 259h-403c-6 -29 -9 -56 -9 -81c0 -108 53 -172 153 -172c93 0 175 57 208 143h17c-36 -97 -125 -159 -225 -159c-109 0 -169 71 -169 188c0 146 95 340 273 340c102 0 168 -64 168 -179c0 -20 -4 -50 -13 -80zM313 502
c-117 0 -209 -94 -244 -227h386c7 21 10 44 10 64c0 106 -59 163 -152 163z" />
    <glyph glyph-name="edieresis" unicode="&#xeb;" horiz-adv-x="515" 
d="M248 635h-16l19 77h16zM432 635h-16l19 77h16zM468 259h-403c-6 -29 -9 -56 -9 -81c0 -108 53 -172 153 -172c93 0 175 57 208 143h17c-36 -97 -125 -159 -225 -159c-109 0 -169 71 -169 188c0 146 95 340 273 340c102 0 168 -64 168 -179c0 -20 -4 -50 -13 -80zM313 502
c-117 0 -209 -94 -244 -227h386c7 21 10 44 10 64c0 106 -59 163 -152 163z" />
    <glyph glyph-name="edotaccent" unicode="&#x117;" horiz-adv-x="515" 
d="M340 635h-16l19 77h16zM468 259h-403c-6 -29 -9 -56 -9 -81c0 -108 53 -172 153 -172c93 0 175 57 208 143h17c-36 -97 -125 -159 -225 -159c-109 0 -169 71 -169 188c0 146 95 340 273 340c102 0 168 -64 168 -179c0 -20 -4 -50 -13 -80zM313 502
c-117 0 -209 -94 -244 -227h386c7 21 10 44 10 64c0 106 -59 163 -152 163z" />
    <glyph glyph-name="egrave" unicode="&#xe8;" horiz-adv-x="515" 
d="M351 574l-66 138h19l62 -138h-15zM468 259h-403c-6 -29 -9 -56 -9 -81c0 -108 53 -172 153 -172c93 0 175 57 208 143h17c-36 -97 -125 -159 -225 -159c-109 0 -169 71 -169 188c0 146 95 340 273 340c102 0 168 -64 168 -179c0 -20 -4 -50 -13 -80zM313 502
c-117 0 -209 -94 -244 -227h386c7 21 10 44 10 64c0 106 -59 163 -152 163z" />
    <glyph glyph-name="emacron" unicode="&#x113;" horiz-adv-x="515" 
d="M448 648h-226l4 16h226zM468 259h-403c-6 -29 -9 -56 -9 -81c0 -108 53 -172 153 -172c93 0 175 57 208 143h17c-36 -97 -125 -159 -225 -159c-109 0 -169 71 -169 188c0 146 95 340 273 340c102 0 168 -64 168 -179c0 -20 -4 -50 -13 -80zM313 502
c-117 0 -209 -94 -244 -227h386c7 21 10 44 10 64c0 106 -59 163 -152 163z" />
    <glyph glyph-name="eogonek" unicode="&#x119;" horiz-adv-x="514" 
d="M467 259h-403c-6 -29 -9 -56 -9 -81c0 -108 53 -172 153 -172c93 0 175 57 208 143h17c-20 -58 -59 -99 -124 -143c-98 -66 -118 -109 -118 -140c0 -26 12 -39 43 -39c12 0 24 2 33 5l-4 -17c-8 -2 -19 -4 -29 -4c-40 0 -59 20 -59 55c0 42 27 80 109 138v1
c-24 -10 -49 -15 -76 -15c-109 0 -169 71 -169 188c0 146 95 340 273 340c102 0 168 -64 168 -179c0 -20 -4 -50 -13 -80zM312 502c-117 0 -209 -94 -244 -227h386c7 21 10 44 10 64c0 106 -59 163 -152 163z" />
    <glyph glyph-name="gbreve" unicode="&#x11f;" horiz-adv-x="545" 
d="M502 712h17c-27 -81 -86 -127 -171 -127c-78 0 -118 39 -118 108c0 6 0 12 1 19h16c-1 -7 -1 -13 -1 -19c0 -60 33 -92 102 -92c76 0 128 39 154 111zM306 518c97 0 156 -64 153 -186h1c10 51 21 96 34 148l7 28h16l-120 -481c-35 -140 -114 -216 -240 -216
c-101 0 -164 46 -164 127c0 10 1 20 3 30h16c-2 -11 -3 -20 -3 -30c0 -72 56 -111 148 -111c119 0 192 71 225 204c11 44 22 88 35 129h-1c-44 -97 -120 -154 -210 -154c-106 0 -162 71 -162 192c0 135 88 320 262 320zM306 502c-165 0 -246 -178 -246 -304
c0 -112 49 -176 146 -176c161 0 241 192 241 309c0 108 -50 171 -141 171z" />
    <glyph glyph-name="gcircumflex" unicode="&#x11d;" horiz-adv-x="545" 
d="M468 574h-19l-75 123l-136 -123h-24l153 138h16zM306 518c97 0 156 -64 153 -186h1c10 51 21 96 34 148l7 28h16l-120 -481c-35 -140 -114 -216 -240 -216c-101 0 -164 46 -164 127c0 10 1 20 3 30h16c-2 -11 -3 -20 -3 -30c0 -72 56 -111 148 -111c119 0 192 71 225 204
c11 44 22 88 35 129h-1c-44 -97 -120 -154 -210 -154c-106 0 -162 71 -162 192c0 135 88 320 262 320zM306 502c-165 0 -246 -178 -246 -304c0 -112 49 -176 146 -176c161 0 241 192 241 309c0 108 -50 171 -141 171z" />
    <glyph glyph-name="gcommaaccent" unicode="&#x123;" horiz-adv-x="545" 
d="M354 653l-16 -66h-16l16 66l53 94h15zM306 518c97 0 156 -64 153 -186h1c10 51 21 96 34 148l7 28h16l-120 -481c-35 -140 -114 -216 -240 -216c-101 0 -164 46 -164 127c0 10 1 20 3 30h16c-2 -11 -3 -20 -3 -30c0 -72 56 -111 148 -111c119 0 192 71 225 204
c11 44 22 88 35 129h-1c-44 -97 -120 -154 -210 -154c-106 0 -162 71 -162 192c0 135 88 320 262 320zM306 502c-165 0 -246 -178 -246 -304c0 -112 49 -176 146 -176c161 0 241 192 241 309c0 108 -50 171 -141 171z" />
    <glyph glyph-name="gdotaccent" unicode="&#x121;" horiz-adv-x="545" 
d="M364 635h-16l19 77h16zM306 518c97 0 156 -64 153 -186h1c10 51 21 96 34 148l7 28h16l-120 -481c-35 -140 -114 -216 -240 -216c-101 0 -164 46 -164 127c0 10 1 20 3 30h16c-2 -11 -3 -20 -3 -30c0 -72 56 -111 148 -111c119 0 192 71 225 204c11 44 22 88 35 129h-1
c-44 -97 -120 -154 -210 -154c-106 0 -162 71 -162 192c0 135 88 320 262 320zM306 502c-165 0 -246 -178 -246 -304c0 -112 49 -176 146 -176c161 0 241 192 241 309c0 108 -50 171 -141 171z" />
    <glyph glyph-name="hbar" unicode="&#x127;" horiz-adv-x="538" 
d="M337 518c87 0 140 -48 140 -140c0 -24 -4 -50 -12 -81l-74 -297h-16l75 301c7 29 11 54 11 77c0 83 -46 124 -125 124c-94 0 -186 -76 -213 -184l-79 -318h-16l148 596h-56l4 16h56l25 100h16l-25 -100h154l-4 -16h-153l-22 -88c-10 -40 -20 -79 -33 -119h1
c46 85 123 129 198 129z" />
    <glyph glyph-name="hcircumflex" unicode="&#x125;" horiz-adv-x="538" 
d="M419 886h16l88 -126h-19l-78 111l-134 -111h-25zM337 518c87 0 140 -48 140 -140c0 -24 -4 -50 -12 -81l-74 -297h-16l75 301c7 29 11 54 11 77c0 83 -46 124 -125 124c-94 0 -186 -76 -213 -184l-79 -318h-16l177 712h16l-50 -204c-10 -40 -20 -79 -33 -119h1
c46 85 123 129 198 129z" />
    <glyph glyph-name="dotlessi" unicode="&#x131;" horiz-adv-x="198" 
d="M44 0h-16l126 508h16z" />
    <glyph glyph-name="iacute" unicode="&#xed;" horiz-adv-x="198" 
d="M150 574h-19l126 138h23zM44 0h-16l126 508h16z" />
    <glyph glyph-name="ibreve" unicode="&#x12d;" horiz-adv-x="198" 
d="M315 712h16c-25 -81 -75 -127 -145 -127c-61 0 -93 37 -93 101c0 10 1 19 2 26h15c-1 -7 -2 -17 -2 -26c0 -55 26 -85 78 -85c61 0 105 39 129 111zM44 0h-16l126 508h16z" />
    <glyph glyph-name="icircumflex" unicode="&#xee;" horiz-adv-x="198" 
d="M284 575h-18l-55 121l-116 -121h-22l131 137h17zM44 0h-16l126 508h16z" />
    <glyph glyph-name="idieresis" unicode="&#xef;" horiz-adv-x="198" 
d="M132 643h-16l17 69h16zM276 643h-16l17 69h16zM44 0h-16l126 508h16z" />
    <glyph glyph-name="idotaccent" horiz-adv-x="198" 
d="M202 635h-16l19 77h16zM44 0h-16l126 508h16z" />
    <glyph glyph-name="igrave" unicode="&#xec;" horiz-adv-x="198" 
d="M166 712l62 -138h-15l-66 138h19zM44 0h-16l126 508h16z" />
    <glyph glyph-name="ij" unicode="&#x133;" horiz-adv-x="407" 
d="M202 635h-16l19 77h16zM411 635h-16l19 77h16zM44 0h-16l126 508h16zM379 508l-138 -556c-27 -107 -76 -139 -141 -139c-8 0 -15 1 -20 3l4 15c3 -1 9 -2 16 -2c58 0 101 27 126 127l137 552h16z" />
    <glyph glyph-name="imacron" unicode="&#x12b;" horiz-adv-x="198" 
d="M290 648h-186l4 16h186zM44 0h-16l126 508h16z" />
    <glyph glyph-name="iogonek" unicode="&#x12f;" horiz-adv-x="198" 
d="M221 712l-19 -77h-16l19 77h16zM154 508h16l-126 -508c-95 -63 -115 -100 -115 -134c0 -26 12 -39 43 -39c12 0 24 2 33 5l-4 -17c-8 -2 -19 -4 -29 -4c-40 0 -59 20 -59 55c0 44 29 83 117 142z" />
    <glyph glyph-name="itilde" unicode="&#x129;" horiz-adv-x="198" 
d="M319 702h17c-16 -53 -46 -81 -79 -81c-54 0 -66 65 -113 65c-26 0 -47 -22 -60 -65h-18c17 53 47 81 80 81c53 0 65 -65 112 -65c27 0 48 22 61 65zM44 0h-16l126 508h16z" />
    <glyph glyph-name="dotlessj" unicode="&#x237;" horiz-adv-x="209" 
d="M181 508l-138 -556c-27 -107 -76 -139 -141 -139c-8 0 -15 1 -20 3l4 15c3 -1 9 -2 16 -2c58 0 101 27 126 127l137 552h16z" />
    <glyph glyph-name="jcircumflex" unicode="&#x135;" horiz-adv-x="209" 
d="M295 575h-18l-55 121l-116 -121h-22l131 137h17zM181 508l-138 -556c-27 -107 -76 -139 -141 -139c-8 0 -15 1 -20 3l4 15c3 -1 9 -2 16 -2c58 0 101 27 126 127l137 552h16z" />
    <glyph glyph-name="kcommaaccent" unicode="&#x137;" horiz-adv-x="439" 
d="M131 274l249 -274h-21l-247 271h-1l-67 -271h-16l177 712h16l-107 -430h1l334 226h28zM167 -79h16l-16 -66l-54 -94h-14l52 94z" />
    <glyph glyph-name="kgreenlandic" unicode="&#x138;" horiz-adv-x="453" 
d="M131 274l249 -274h-21l-247 271h-1l-67 -271h-16l126 508h16l-56 -226h1l334 226h28z" />
    <glyph glyph-name="lacute" unicode="&#x13a;" horiz-adv-x="198" 
d="M239 778h-19l126 138h23zM44 0h-16l177 712h16z" />
    <glyph glyph-name="lcaron" unicode="&#x13e;" horiz-adv-x="198" 
d="M44 0h-16l177 712h16zM253 538h-15l83 174h18z" />
    <glyph glyph-name="lcommaaccent" unicode="&#x13c;" horiz-adv-x="198" 
d="M44 0h-16l177 712h16zM13 -145l-54 -94h-14l52 94l16 66h16z" />
    <glyph glyph-name="ldot" unicode="&#x140;" horiz-adv-x="304" 
d="M44 0h-16l177 712h16zM276 318h-18l18 72h18z" />
    <glyph glyph-name="lslash" unicode="&#x142;" horiz-adv-x="236" 
d="M278 464l-114 -60l-101 -404h-16l98 396l-115 -60l5 20l115 60l74 296h16l-72 -288l115 60z" />
    <glyph glyph-name="nacute" unicode="&#x144;" horiz-adv-x="537" 
d="M319 574h-19l126 138h23zM336 518c87 0 140 -48 140 -140c0 -24 -4 -50 -12 -81l-74 -297h-16l75 301c7 29 11 54 11 77c0 83 -46 124 -125 124c-94 0 -186 -76 -213 -184l-79 -318h-16l127 508h16c-10 -40 -20 -79 -33 -119h1c46 85 123 129 198 129z" />
    <glyph glyph-name="napostrophe" unicode="&#x149;" horiz-adv-x="577" 
d="M192 641l-66 -127h-14l64 127l18 71h16zM376 518c87 0 140 -48 140 -140c0 -24 -4 -50 -12 -81l-74 -297h-16l75 301c7 29 11 54 11 77c0 83 -46 124 -125 124c-94 0 -186 -76 -213 -184l-79 -318h-16l127 508h16c-10 -40 -20 -79 -33 -119h1c46 85 123 129 198 129z" />
    <glyph glyph-name="ncaron" unicode="&#x148;" horiz-adv-x="537" 
d="M356 574h-16l-85 138h19l75 -123l136 123h24zM336 518c87 0 140 -48 140 -140c0 -24 -4 -50 -12 -81l-74 -297h-16l75 301c7 29 11 54 11 77c0 83 -46 124 -125 124c-94 0 -186 -76 -213 -184l-79 -318h-16l127 508h16c-10 -40 -20 -79 -33 -119h1c46 85 123 129 198 129
z" />
    <glyph glyph-name="ncommaaccent" unicode="&#x146;" horiz-adv-x="537" 
d="M336 518c87 0 140 -48 140 -140c0 -24 -4 -50 -12 -81l-74 -297h-16l75 301c7 29 11 54 11 77c0 83 -46 124 -125 124c-94 0 -186 -76 -213 -184l-79 -318h-16l127 508h16c-10 -40 -20 -79 -33 -119h1c46 85 123 129 198 129zM177 -145l-54 -94h-14l52 94l16 66h16z" />
    <glyph glyph-name="eng" unicode="&#x14b;" horiz-adv-x="537" 
d="M336 518c87 0 140 -48 140 -140c0 -24 -4 -51 -12 -81l-87 -349c-26 -104 -74 -135 -139 -135c-8 0 -16 1 -21 3l4 15c3 -1 10 -2 17 -2c58 0 100 26 124 123l87 349c7 29 11 54 11 77c0 83 -46 124 -125 124c-94 0 -186 -76 -213 -184l-79 -318h-16l127 508h16
c-10 -40 -20 -79 -33 -119h1c46 85 123 129 198 129z" />
    <glyph glyph-name="ntilde" unicode="&#xf1;" horiz-adv-x="537" 
d="M507 702h17c-17 -53 -50 -81 -88 -81c-62 0 -78 65 -133 65c-31 0 -56 -22 -70 -65h-17c17 53 50 81 88 81c62 0 78 -65 133 -65c31 0 56 22 70 65zM336 518c87 0 140 -48 140 -140c0 -24 -4 -50 -12 -81l-74 -297h-16l75 301c7 29 11 54 11 77c0 83 -46 124 -125 124
c-94 0 -186 -76 -213 -184l-79 -318h-16l127 508h16c-10 -40 -20 -79 -33 -119h1c46 85 123 129 198 129z" />
    <glyph glyph-name="oacute" unicode="&#xf3;" horiz-adv-x="528" 
d="M295 574h-19l126 138h23zM303 518c116 0 181 -76 181 -202c0 -140 -89 -326 -261 -326c-116 0 -181 75 -181 201c0 141 89 327 261 327zM303 502c-163 0 -245 -179 -245 -311c0 -117 58 -185 165 -185c163 0 245 179 245 310c0 117 -58 186 -165 186z" />
    <glyph glyph-name="obreve" unicode="&#x14f;" horiz-adv-x="528" 
d="M485 712h17c-27 -81 -86 -127 -171 -127c-78 0 -118 39 -118 108c0 6 0 12 1 19h16c-1 -7 -1 -13 -1 -19c0 -60 33 -92 102 -92c76 0 128 39 154 111zM303 518c116 0 181 -76 181 -202c0 -140 -89 -326 -261 -326c-116 0 -181 75 -181 201c0 141 89 327 261 327zM303 502
c-163 0 -245 -179 -245 -311c0 -117 58 -185 165 -185c163 0 245 179 245 310c0 117 -58 186 -165 186z" />
    <glyph glyph-name="ocircumflex" unicode="&#xf4;" horiz-adv-x="528" 
d="M451 574h-19l-75 123l-136 -123h-24l153 138h16zM303 518c116 0 181 -76 181 -202c0 -140 -89 -326 -261 -326c-116 0 -181 75 -181 201c0 141 89 327 261 327zM303 502c-163 0 -245 -179 -245 -311c0 -117 58 -185 165 -185c163 0 245 179 245 310
c0 117 -58 186 -165 186z" />
    <glyph glyph-name="odieresis" unicode="&#xf6;" horiz-adv-x="528" 
d="M255 635h-16l19 77h16zM439 635h-16l19 77h16zM303 518c116 0 181 -76 181 -202c0 -140 -89 -326 -261 -326c-116 0 -181 75 -181 201c0 141 89 327 261 327zM303 502c-163 0 -245 -179 -245 -311c0 -117 58 -185 165 -185c163 0 245 179 245 310c0 117 -58 186 -165 186
z" />
    <glyph glyph-name="ograve" unicode="&#xf2;" horiz-adv-x="528" 
d="M311 712l62 -138h-15l-66 138h19zM303 518c116 0 181 -76 181 -202c0 -140 -89 -326 -261 -326c-116 0 -181 75 -181 201c0 141 89 327 261 327zM303 502c-163 0 -245 -179 -245 -311c0 -117 58 -185 165 -185c163 0 245 179 245 310c0 117 -58 186 -165 186z" />
    <glyph glyph-name="ohungarumlaut" unicode="&#x151;" horiz-adv-x="528" 
d="M260 574h-21l154 138h26zM359 574h-21l154 138h26zM303 518c116 0 181 -76 181 -202c0 -140 -89 -326 -261 -326c-116 0 -181 75 -181 201c0 141 89 327 261 327zM303 502c-163 0 -245 -179 -245 -311c0 -117 58 -185 165 -185c163 0 245 179 245 310
c0 117 -58 186 -165 186z" />
    <glyph glyph-name="omacron" unicode="&#x14d;" horiz-adv-x="528" 
d="M455 648h-226l4 16h226zM303 518c116 0 181 -76 181 -202c0 -140 -89 -326 -261 -326c-116 0 -181 75 -181 201c0 141 89 327 261 327zM303 502c-163 0 -245 -179 -245 -311c0 -117 58 -185 165 -185c163 0 245 179 245 310c0 117 -58 186 -165 186z" />
    <glyph glyph-name="oslash" unicode="&#xf8;" horiz-adv-x="528" 
d="M525 497l-65 -64c16 -32 24 -71 24 -117c0 -140 -91 -326 -267 -326c-62 0 -110 23 -139 66l-62 -61l-11 11l64 63c-18 32 -27 73 -27 122c0 141 91 327 267 327c65 0 113 -26 143 -71l62 61zM309 502c-167 0 -251 -179 -251 -311c0 -44 8 -81 23 -110l359 354
c-26 43 -71 67 -131 67zM217 6c167 0 251 179 251 310c0 41 -7 76 -21 105l-358 -354c27 -39 70 -61 128 -61z" />
    <glyph glyph-name="otilde" unicode="&#xf5;" horiz-adv-x="528" 
d="M483 702h17c-17 -53 -50 -81 -88 -81c-62 0 -78 65 -133 65c-31 0 -56 -22 -70 -65h-17c17 53 50 81 88 81c62 0 78 -65 133 -65c31 0 56 22 70 65zM303 518c116 0 181 -76 181 -202c0 -140 -89 -326 -261 -326c-116 0 -181 75 -181 201c0 141 89 327 261 327zM303 502
c-163 0 -245 -179 -245 -311c0 -117 58 -185 165 -185c163 0 245 179 245 310c0 117 -58 186 -165 186z" />
    <glyph glyph-name="oe" unicode="&#x153;" horiz-adv-x="853" 
d="M806 259h-365c-6 -32 -10 -60 -10 -88c0 -104 46 -165 134 -165c84 0 159 57 191 143h17c-35 -97 -115 -159 -208 -159c-96 0 -148 66 -151 176c-39 -96 -113 -176 -218 -176c-100 0 -155 72 -155 193c0 144 87 335 250 335c97 0 152 -70 155 -186h1
c40 100 117 186 224 186c91 0 149 -62 149 -173c0 -23 -5 -54 -14 -86zM196 6c153 0 234 184 234 317c0 113 -49 179 -139 179c-154 0 -234 -184 -234 -318c0 -113 48 -178 139 -178zM671 502c-106 0 -191 -94 -226 -227h348c8 23 11 47 11 70c0 102 -51 157 -133 157z" />
    <glyph glyph-name="thorn" unicode="&#xfe;" horiz-adv-x="545" 
d="M132 367h1c47 97 121 151 207 151c104 0 163 -72 163 -191c0 -144 -88 -337 -257 -337c-111 0 -166 82 -159 193h-1c-8 -42 -19 -86 -29 -126l-60 -242h-16l224 897h16l-54 -216c-10 -40 -21 -84 -35 -129zM246 6c160 0 241 186 241 321c0 110 -52 175 -147 175
c-160 0 -241 -195 -241 -321c0 -111 51 -175 147 -175z" />
    <glyph glyph-name="racute" unicode="&#x155;" horiz-adv-x="319" 
d="M242 574h-19l126 138h23zM341 510c9 0 20 -1 27 -2l-4 -16c-7 1 -18 2 -27 2c-98 0 -186 -64 -220 -201l-73 -293h-16l127 508h16c-11 -44 -22 -87 -37 -132h1c48 90 118 134 206 134z" />
    <glyph glyph-name="rcaron" unicode="&#x159;" horiz-adv-x="319" 
d="M279 574h-16l-85 138h19l75 -123l136 123h24zM341 510c9 0 20 -1 27 -2l-4 -16c-7 1 -18 2 -27 2c-98 0 -186 -64 -220 -201l-73 -293h-16l127 508h16c-11 -44 -22 -87 -37 -132h1c48 90 118 134 206 134z" />
    <glyph glyph-name="rcommaaccent" unicode="&#x157;" horiz-adv-x="319" 
d="M341 510c9 0 20 -1 27 -2l-4 -16c-7 1 -18 2 -27 2c-98 0 -186 -64 -220 -201l-73 -293h-16l127 508h16c-11 -44 -22 -87 -37 -132h1c48 90 118 134 206 134zM8 -145l-54 -94h-14l52 94l16 66h16z" />
    <glyph glyph-name="sacute" unicode="&#x15b;" horiz-adv-x="447" 
d="M256 574h-19l126 138h23zM261 518c100 0 155 -47 155 -124c0 -16 -2 -32 -7 -50h-16c5 18 7 34 7 50c0 68 -47 108 -139 108c-101 0 -156 -62 -156 -128c0 -60 40 -80 116 -103c100 -29 148 -57 148 -130c0 -80 -67 -151 -188 -151c-108 0 -164 48 -164 131
c0 17 2 34 7 53h16c-5 -19 -7 -37 -7 -53c0 -74 49 -115 148 -115c112 0 172 64 172 135c0 65 -45 88 -139 116c-80 23 -125 49 -125 117c0 75 61 144 172 144z" />
    <glyph glyph-name="scaron" unicode="&#x161;" horiz-adv-x="447" 
d="M293 574h-16l-85 138h19l75 -123l136 123h24zM261 518c100 0 155 -47 155 -124c0 -16 -2 -32 -7 -50h-16c5 18 7 34 7 50c0 68 -47 108 -139 108c-101 0 -156 -62 -156 -128c0 -60 40 -80 116 -103c100 -29 148 -57 148 -130c0 -80 -67 -151 -188 -151
c-108 0 -164 48 -164 131c0 17 2 34 7 53h16c-5 -19 -7 -37 -7 -53c0 -74 49 -115 148 -115c112 0 172 64 172 135c0 65 -45 88 -139 116c-80 23 -125 49 -125 117c0 75 61 144 172 144z" />
    <glyph glyph-name="scedilla" unicode="&#x15f;" horiz-adv-x="447" 
d="M261 518c100 0 155 -47 155 -124c0 -16 -2 -32 -7 -50h-16c5 18 7 34 7 50c0 68 -47 108 -139 108c-101 0 -156 -62 -156 -128c0 -60 40 -80 116 -103c100 -29 148 -57 148 -130c0 -77 -62 -146 -175 -151l-55 -58c4 1 10 2 16 2c44 0 68 -23 68 -61
c0 -46 -40 -78 -97 -78c-36 0 -64 9 -88 23l8 14c22 -14 48 -21 80 -21c48 0 81 25 81 62c0 29 -17 46 -52 46c-12 0 -24 -2 -34 -5l-10 11l61 65c-102 3 -155 50 -155 131c0 17 2 34 7 53h16c-5 -19 -7 -37 -7 -53c0 -74 49 -115 148 -115c112 0 172 64 172 135
c0 65 -45 88 -139 116c-80 23 -125 49 -125 117c0 75 61 144 172 144z" />
    <glyph glyph-name="scircumflex" unicode="&#x15d;" horiz-adv-x="447" 
d="M412 574h-19l-75 123l-136 -123h-24l153 138h16zM261 518c100 0 155 -47 155 -124c0 -16 -2 -32 -7 -50h-16c5 18 7 34 7 50c0 68 -47 108 -139 108c-101 0 -156 -62 -156 -128c0 -60 40 -80 116 -103c100 -29 148 -57 148 -130c0 -80 -67 -151 -188 -151
c-108 0 -164 48 -164 131c0 17 2 34 7 53h16c-5 -19 -7 -37 -7 -53c0 -74 49 -115 148 -115c112 0 172 64 172 135c0 65 -45 88 -139 116c-80 23 -125 49 -125 117c0 75 61 144 172 144z" />
    <glyph glyph-name="scommaaccent" unicode="&#x219;" horiz-adv-x="447" 
d="M261 518c100 0 155 -47 155 -124c0 -16 -2 -32 -7 -50h-16c5 18 7 34 7 50c0 68 -47 108 -139 108c-101 0 -156 -62 -156 -128c0 -60 40 -80 116 -103c100 -29 148 -57 148 -130c0 -80 -67 -151 -188 -151c-108 0 -164 48 -164 131c0 17 2 34 7 53h16
c-5 -19 -7 -37 -7 -53c0 -74 49 -115 148 -115c112 0 172 64 172 135c0 65 -45 88 -139 116c-80 23 -125 49 -125 117c0 75 61 144 172 144zM142 -145l-54 -94h-14l52 94l16 66h16z" />
    <glyph glyph-name="germandbls" unicode="&#xdf;" horiz-adv-x="529" 
d="M374 722c97 0 151 -54 151 -135c0 -82 -52 -165 -169 -183v-1c65 -16 116 -66 116 -165c0 -114 -85 -244 -272 -244c-27 0 -49 3 -70 9l4 16c20 -6 40 -9 66 -9c178 0 256 123 256 228c0 101 -60 158 -156 158h-6l4 16c156 0 211 98 211 175c0 72 -47 119 -135 119
c-102 0 -173 -73 -204 -198l-126 -508h-16l127 512c33 133 110 210 219 210z" />
    <glyph glyph-name="longs" unicode="&#x17f;" horiz-adv-x="252" 
d="M322 715c10 0 19 -1 28 -4l-4 -15c-7 2 -15 3 -24 3c-55 0 -92 -34 -111 -109l-147 -590h-16l123 492h-97l4 16h97l21 86c20 81 64 121 126 121z" />
    <glyph glyph-name="tbar" unicode="&#x167;" horiz-adv-x="270" 
d="M187 492l-51 -204h103l-4 -16h-103l-40 -158c-5 -20 -7 -36 -7 -49c0 -36 18 -51 58 -51c11 0 27 2 36 4l-4 -17c-8 -2 -22 -3 -32 -3c-49 0 -74 22 -74 67c0 15 2 30 8 53l39 154h-96l4 16h96l51 204h-98l4 16h98l29 117h16l-29 -117h105l-4 -16h-105z" />
    <glyph glyph-name="tcaron" unicode="&#x165;" horiz-adv-x="270" 
d="M273 538h-15l83 174h18zM191 508h105l-4 -16h-105l-95 -378c-5 -20 -7 -36 -7 -49c0 -36 18 -51 58 -51c11 0 27 2 36 4l-4 -17c-8 -2 -22 -3 -32 -3c-49 0 -74 22 -74 67c0 15 2 30 8 53l94 374h-98l4 16h98l29 117h16z" />
    <glyph glyph-name="tcedilla" unicode="&#x163;" horiz-adv-x="270" 
d="M187 492l-95 -378c-5 -20 -7 -36 -7 -49c0 -36 18 -51 58 -51c11 0 27 2 36 4l-4 -17c-8 -2 -22 -3 -32 -3c-49 0 -74 22 -74 67c0 15 2 30 8 53l94 374h-98l4 16h98l29 117h16l-29 -117h105l-4 -16h-105zM72 -79h16l-16 -66l-54 -94h-14l52 94z" />
    <glyph glyph-name="tcommaaccent" unicode="&#x21b;" horiz-adv-x="270" 
d="M187 492l-95 -378c-5 -20 -7 -36 -7 -49c0 -36 18 -51 58 -51c11 0 27 2 36 4l-4 -17c-8 -2 -22 -3 -32 -3c-49 0 -74 22 -74 67c0 15 2 30 8 53l94 374h-98l4 16h98l29 117h16l-29 -117h105l-4 -16h-105zM72 -79h16l-16 -66l-54 -94h-14l52 94z" />
    <glyph glyph-name="uacute" unicode="&#xfa;" horiz-adv-x="537" 
d="M310 574h-19l126 138h23zM201 -10c-87 0 -140 48 -140 140c0 24 4 50 12 81l74 297h16l-75 -301c-7 -29 -11 -54 -11 -77c0 -83 46 -124 125 -124c94 0 186 76 213 184l79 318h16l-127 -508h-16l27 107h-1c-45 -75 -119 -117 -192 -117z" />
    <glyph glyph-name="ubreve" unicode="&#x16d;" horiz-adv-x="537" 
d="M500 712h17c-27 -81 -86 -127 -171 -127c-78 0 -118 39 -118 108c0 6 0 12 1 19h16c-1 -7 -1 -13 -1 -19c0 -60 33 -92 102 -92c76 0 128 39 154 111zM201 -10c-87 0 -140 48 -140 140c0 24 4 50 12 81l74 297h16l-75 -301c-7 -29 -11 -54 -11 -77
c0 -83 46 -124 125 -124c94 0 186 76 213 184l79 318h16l-127 -508h-16l27 107h-1c-45 -75 -119 -117 -192 -117z" />
    <glyph glyph-name="ucircumflex" unicode="&#xfb;" horiz-adv-x="537" 
d="M466 574h-19l-75 123l-136 -123h-24l153 138h16zM201 -10c-87 0 -140 48 -140 140c0 24 4 50 12 81l74 297h16l-75 -301c-7 -29 -11 -54 -11 -77c0 -83 46 -124 125 -124c94 0 186 76 213 184l79 318h16l-127 -508h-16l27 107h-1c-45 -75 -119 -117 -192 -117z" />
    <glyph glyph-name="udieresis" unicode="&#xfc;" horiz-adv-x="537" 
d="M270 635h-16l19 77h16zM454 635h-16l19 77h16zM201 -10c-87 0 -140 48 -140 140c0 24 4 50 12 81l74 297h16l-75 -301c-7 -29 -11 -54 -11 -77c0 -83 46 -124 125 -124c94 0 186 76 213 184l79 318h16l-127 -508h-16l27 107h-1c-45 -75 -119 -117 -192 -117z" />
    <glyph glyph-name="ugrave" unicode="&#xf9;" horiz-adv-x="537" 
d="M326 712l62 -138h-15l-66 138h19zM201 -10c-87 0 -140 48 -140 140c0 24 4 50 12 81l74 297h16l-75 -301c-7 -29 -11 -54 -11 -77c0 -83 46 -124 125 -124c94 0 186 76 213 184l79 318h16l-127 -508h-16l27 107h-1c-45 -75 -119 -117 -192 -117z" />
    <glyph glyph-name="uhungarumlaut" unicode="&#x171;" horiz-adv-x="537" 
d="M275 574h-21l154 138h26zM374 574h-21l154 138h26zM201 -10c-87 0 -140 48 -140 140c0 24 4 50 12 81l74 297h16l-75 -301c-7 -29 -11 -54 -11 -77c0 -83 46 -124 125 -124c94 0 186 76 213 184l79 318h16l-127 -508h-16l27 107h-1c-45 -75 -119 -117 -192 -117z" />
    <glyph glyph-name="umacron" unicode="&#x16b;" horiz-adv-x="537" 
d="M470 648h-226l4 16h226zM201 -10c-87 0 -140 48 -140 140c0 24 4 50 12 81l74 297h16l-75 -301c-7 -29 -11 -54 -11 -77c0 -83 46 -124 125 -124c94 0 186 76 213 184l79 318h16l-127 -508h-16l27 107h-1c-45 -75 -119 -117 -192 -117z" />
    <glyph glyph-name="uogonek" unicode="&#x173;" horiz-adv-x="537" 
d="M510 508l-127 -508c-95 -63 -115 -100 -115 -134c0 -26 12 -39 43 -39c12 0 24 2 33 5l-4 -17c-8 -2 -19 -4 -29 -4c-40 0 -59 20 -59 55c0 44 29 83 117 142l25 99h-1c-45 -75 -119 -117 -192 -117c-87 0 -140 48 -140 140c0 24 4 50 12 81l74 297h16l-75 -301
c-7 -29 -11 -54 -11 -77c0 -83 46 -124 125 -124c94 0 186 76 213 184l79 318h16z" />
    <glyph glyph-name="uring" unicode="&#x16f;" horiz-adv-x="537" 
d="M354 761c46 0 84 -38 84 -84c0 -47 -38 -84 -84 -84s-84 37 -84 84c0 46 38 84 84 84zM354 745c-38 0 -68 -30 -68 -68s30 -68 68 -68s68 30 68 68s-30 68 -68 68zM201 -10c-87 0 -140 48 -140 140c0 24 4 50 12 81l74 297h16l-75 -301c-7 -29 -11 -54 -11 -77
c0 -83 46 -124 125 -124c94 0 186 76 213 184l79 318h16l-127 -508h-16l27 107h-1c-45 -75 -119 -117 -192 -117z" />
    <glyph glyph-name="utilde" unicode="&#x169;" horiz-adv-x="537" 
d="M498 702h17c-17 -53 -50 -81 -88 -81c-62 0 -78 65 -133 65c-31 0 -56 -22 -70 -65h-17c17 53 50 81 88 81c62 0 78 -65 133 -65c31 0 56 22 70 65zM201 -10c-87 0 -140 48 -140 140c0 24 4 50 12 81l74 297h16l-75 -301c-7 -29 -11 -54 -11 -77c0 -83 46 -124 125 -124
c94 0 186 76 213 184l79 318h16l-127 -508h-16l27 107h-1c-45 -75 -119 -117 -192 -117z" />
    <glyph glyph-name="wacute" unicode="&#x1e83;" horiz-adv-x="746" 
d="M423 574h-19l126 138h23zM503 0h-26l-23 264c-7 77 -14 152 -20 229h-2c-46 -77 -89 -152 -135 -229l-154 -264h-26l-44 508h16l22 -247l21 -245h2c48 83 97 167 146 250l142 242h26l22 -243c7 -83 14 -166 22 -249h2l143 245l144 247h18z" />
    <glyph glyph-name="wcircumflex" unicode="&#x175;" horiz-adv-x="746" 
d="M579 574h-19l-75 123l-136 -123h-24l153 138h16zM503 0h-26l-23 264c-7 77 -14 152 -20 229h-2c-46 -77 -89 -152 -135 -229l-154 -264h-26l-44 508h16l22 -247l21 -245h2c48 83 97 167 146 250l142 242h26l22 -243c7 -83 14 -166 22 -249h2l143 245l144 247h18z" />
    <glyph glyph-name="wdieresis" unicode="&#x1e85;" horiz-adv-x="746" 
d="M383 635h-16l19 77h16zM567 635h-16l19 77h16zM503 0h-26l-23 264c-7 77 -14 152 -20 229h-2c-46 -77 -89 -152 -135 -229l-154 -264h-26l-44 508h16l22 -247l21 -245h2c48 83 97 167 146 250l142 242h26l22 -243c7 -83 14 -166 22 -249h2l143 245l144 247h18z" />
    <glyph glyph-name="wgrave" unicode="&#x1e81;" horiz-adv-x="746" 
d="M439 712l62 -138h-15l-66 138h19zM503 0h-26l-23 264c-7 77 -14 152 -20 229h-2c-46 -77 -89 -152 -135 -229l-154 -264h-26l-44 508h16l22 -247l21 -245h2c48 83 97 167 146 250l142 242h26l22 -243c7 -83 14 -166 22 -249h2l143 245l144 247h18z" />
    <glyph glyph-name="yacute" unicode="&#xfd;" horiz-adv-x="431" 
d="M247 574h-19l126 138h23zM492 508l-338 -514c-98 -149 -145 -183 -215 -183c-20 0 -32 2 -43 7l4 16c10 -5 21 -7 39 -7c61 0 105 29 200 173l-74 508h16l71 -486h1l320 486h19z" />
    <glyph glyph-name="ycircumflex" unicode="&#x177;" horiz-adv-x="431" 
d="M403 574h-19l-75 123l-136 -123h-24l153 138h16zM492 508l-338 -514c-98 -149 -145 -183 -215 -183c-20 0 -32 2 -43 7l4 16c10 -5 21 -7 39 -7c61 0 105 29 200 173l-74 508h16l71 -486h1l320 486h19z" />
    <glyph glyph-name="ydieresis" unicode="&#xff;" horiz-adv-x="431" 
d="M207 635h-16l19 77h16zM391 635h-16l19 77h16zM492 508l-338 -514c-98 -149 -145 -183 -215 -183c-20 0 -32 2 -43 7l4 16c10 -5 21 -7 39 -7c61 0 105 29 200 173l-74 508h16l71 -486h1l320 486h19z" />
    <glyph glyph-name="ygrave" unicode="&#x1ef3;" horiz-adv-x="431" 
d="M263 712l62 -138h-15l-66 138h19zM492 508l-338 -514c-98 -149 -145 -183 -215 -183c-20 0 -32 2 -43 7l4 16c10 -5 21 -7 39 -7c61 0 105 29 200 173l-74 508h16l71 -486h1l320 486h19z" />
    <glyph glyph-name="zacute" unicode="&#x17a;" horiz-adv-x="441" 
d="M262 574h-19l126 138h23zM469 484l-490 -466v-2h383l-4 -16h-401l6 24l489 466v2h-362l4 16h381z" />
    <glyph glyph-name="zcaron" unicode="&#x17e;" horiz-adv-x="441" 
d="M299 574h-16l-85 138h19l75 -123l136 123h24zM469 484l-490 -466v-2h383l-4 -16h-401l6 24l489 466v2h-362l4 16h381z" />
    <glyph glyph-name="zdotaccent" unicode="&#x17c;" horiz-adv-x="441" 
d="M314 635h-16l19 77h16zM469 484l-490 -466v-2h383l-4 -16h-401l6 24l489 466v2h-362l4 16h381z" />
    <glyph glyph-name="j.acute.loclNLD" horiz-adv-x="209" 
d="M161 574h-19l126 138h23zM181 508l-138 -556c-27 -107 -76 -139 -141 -139c-8 0 -15 1 -20 3l4 15c3 -1 9 -2 16 -2c58 0 101 27 126 127l137 552h16z" />
    <glyph glyph-name="ccedilla.ss01" horiz-adv-x="493" 
d="M308 518c99 0 159 -65 159 -167c0 -4 0 -9 -1 -15h-16c1 6 1 11 1 15c0 93 -53 151 -143 151c-166 0 -251 -188 -251 -323c0 -110 52 -173 155 -173c91 0 169 60 200 151h17c-33 -101 -119 -167 -217 -167c-112 0 -171 70 -171 189c0 144 92 339 267 339zM68 -207h-24
l163 158h20z" />
    <glyph glyph-name="scedilla.ss01" horiz-adv-x="447" 
d="M261 518c100 0 155 -47 155 -124c0 -16 -2 -32 -7 -50h-16c5 18 7 34 7 50c0 68 -47 108 -139 108c-101 0 -156 -62 -156 -128c0 -60 40 -80 116 -103c100 -29 148 -57 148 -130c0 -80 -67 -151 -188 -151c-108 0 -164 48 -164 131c0 17 2 34 7 53h16
c-5 -19 -7 -37 -7 -53c0 -74 49 -115 148 -115c112 0 172 64 172 135c0 65 -45 88 -139 116c-80 23 -125 49 -125 117c0 75 61 144 172 144zM31 -207h-24l163 158h20z" />
    <glyph glyph-name="tcedilla.ss01" horiz-adv-x="270" 
d="M187 492l-95 -378c-5 -20 -7 -36 -7 -49c0 -36 18 -51 58 -51c11 0 27 2 36 4l-4 -17c-8 -2 -22 -3 -32 -3c-49 0 -74 22 -74 67c0 15 2 30 8 53l94 374h-98l4 16h98l29 117h16l-29 -117h105l-4 -16h-105zM100 -49h20l-159 -158h-24z" />
    <glyph glyph-name="a.sups" horiz-adv-x="358" 
d="M268 693c67 0 111 -33 111 -102c0 -13 -2 -27 -7 -46l-34 -137c-6 -27 -12 -59 -13 -78h-16c1 19 7 48 15 77h-1c-30 -52 -78 -84 -146 -84c-65 0 -106 34 -106 89c0 50 31 98 142 114c39 6 97 12 142 15l2 8c4 16 6 30 6 42c0 60 -37 86 -95 86c-69 0 -113 -41 -126 -98
h-17c15 68 69 114 143 114zM339 476l12 49c-41 -3 -100 -10 -136 -15c-103 -15 -128 -56 -128 -97c0 -47 34 -74 91 -74c80 0 140 49 161 137z" />
    <glyph glyph-name="b.sups" horiz-adv-x="393" 
d="M224 828l-36 -142c-8 -32 -15 -60 -26 -91h1c35 64 86 98 145 98c76 0 119 -51 119 -136c0 -100 -63 -234 -184 -234c-73 0 -114 45 -117 124h-1c-6 -37 -16 -77 -26 -117h-16l125 498h16zM308 677c-113 0 -170 -130 -170 -218c0 -77 36 -120 105 -120
c112 0 168 127 168 218c0 76 -36 120 -103 120z" />
    <glyph glyph-name="c.sups" horiz-adv-x="356" 
d="M283 693c75 0 120 -47 120 -119v-10h-16v9c0 64 -38 104 -104 104c-118 0 -176 -128 -176 -219c0 -76 37 -119 109 -119c63 0 117 41 138 102h17c-23 -71 -84 -118 -155 -118c-81 0 -125 50 -125 135c0 100 65 235 192 235z" />
    <glyph glyph-name="d.sups" horiz-adv-x="392" 
d="M347 330h-16c8 32 15 60 26 91h-1c-35 -64 -86 -98 -145 -98c-76 0 -119 51 -119 135c0 101 63 235 185 235c72 0 113 -45 116 -124h1c6 37 16 77 26 117l36 142h16zM277 677c-113 0 -169 -127 -169 -219c0 -75 36 -119 103 -119c112 0 170 130 170 217
c0 77 -36 121 -104 121z" />
    <glyph glyph-name="e.sups" horiz-adv-x="372" 
d="M401 509h-289c-3 -19 -5 -36 -5 -52c0 -75 38 -118 109 -118c66 0 122 38 145 96h17c-25 -67 -88 -112 -162 -112c-81 0 -125 50 -125 134c0 101 67 236 196 236c76 0 123 -46 123 -127c0 -14 -2 -35 -9 -57zM287 677c-82 0 -147 -62 -171 -152h272c4 14 6 29 6 41
c0 72 -40 111 -107 111z" />
    <glyph glyph-name="egrave.sups" horiz-adv-x="372" 
d="M309 732l-59 96h20l55 -96h-16zM401 509h-289c-3 -19 -5 -36 -5 -52c0 -75 38 -118 109 -118c66 0 122 38 145 96h17c-25 -67 -88 -112 -162 -112c-81 0 -125 50 -125 134c0 101 67 236 196 236c76 0 123 -46 123 -127c0 -14 -2 -35 -9 -57zM287 677
c-82 0 -147 -62 -171 -152h272c4 14 6 29 6 41c0 72 -40 111 -107 111z" />
    <glyph glyph-name="f.sups" horiz-adv-x="183" 
d="M294 831c8 0 15 -1 22 -3l-4 -16c-5 2 -11 3 -18 3c-39 0 -65 -22 -78 -74l-14 -55h77l-4 -16h-77l-84 -340h-16l84 340h-68l4 16h68l15 59c15 57 47 86 93 86z" />
    <glyph glyph-name="g.sups" horiz-adv-x="392" 
d="M282 693c67 0 111 -43 112 -120h1c7 38 16 77 25 113h16l-84 -339c-24 -97 -82 -150 -173 -150c-74 0 -120 33 -120 90c0 7 1 14 2 21h16c-1 -8 -2 -15 -2 -21c0 -48 39 -75 104 -75c84 0 135 48 158 140c7 27 14 54 23 81h-1c-33 -63 -85 -99 -147 -99
c-77 0 -118 51 -118 136c0 95 63 223 188 223zM282 677c-116 0 -172 -121 -172 -207c0 -76 34 -120 102 -120c114 0 171 129 171 210c0 74 -36 117 -101 117z" />
    <glyph glyph-name="h.sups" horiz-adv-x="388" 
d="M170 616h1c32 49 83 77 135 77c63 0 102 -34 102 -100c0 -16 -3 -34 -8 -55l-52 -208h-16l53 210c4 20 7 37 7 53c0 57 -32 84 -86 84c-68 0 -133 -51 -152 -126l-55 -221h-16l124 498h16z" />
    <glyph glyph-name="i.sups" horiz-adv-x="144" 
d="M209 773h-16l14 55h16zM99 330h-16l88 356h16z" />
    <glyph glyph-name="j.sups" horiz-adv-x="153" 
d="M219 773h-16l14 55h16zM197 686l-97 -390c-19 -74 -54 -97 -102 -97c-6 0 -12 1 -17 2l4 15c3 -1 7 -2 13 -2c41 0 70 19 87 86l96 386h16z" />
    <glyph glyph-name="k.sups" horiz-adv-x="319" 
d="M167 522l174 -192h-22l-172 189h-1l-47 -189h-16l124 498h16l-75 -299h1l232 157h28z" />
    <glyph glyph-name="l.sups" horiz-adv-x="144" 
d="M99 330h-16l124 498h16z" />
    <glyph glyph-name="m.sups" horiz-adv-x="586" 
d="M515 693c58 0 92 -31 92 -93c0 -16 -3 -36 -8 -57l-53 -213h-16l53 216c5 20 8 39 8 54c0 53 -27 77 -76 77c-62 0 -118 -48 -136 -120l-57 -227h-16l57 229c3 15 6 29 6 41c0 48 -26 77 -76 77c-62 0 -120 -49 -141 -132l-53 -215h-16l89 356h16c-6 -25 -13 -51 -22 -76
h1c27 50 72 83 126 83c55 0 90 -33 90 -91c28 57 75 91 132 91z" />
    <glyph glyph-name="n.sups" horiz-adv-x="388" 
d="M306 693c63 0 102 -34 102 -100c0 -16 -3 -34 -8 -55l-52 -208h-16l53 210c4 20 7 37 7 53c0 57 -32 84 -86 84c-68 0 -133 -51 -152 -126l-55 -221h-16l89 356h16c-6 -25 -13 -51 -22 -77h1c33 55 85 84 139 84z" />
    <glyph glyph-name="o.sups" horiz-adv-x="381" 
d="M280 693c86 0 133 -54 133 -144c0 -98 -63 -226 -187 -226c-85 0 -133 53 -133 143c0 98 63 227 187 227zM280 677c-115 0 -171 -122 -171 -211c0 -81 41 -127 117 -127c115 0 171 121 171 210c0 81 -40 128 -117 128z" />
    <glyph glyph-name="p.sups" horiz-adv-x="392" 
d="M307 693c76 0 119 -51 119 -136c0 -100 -63 -234 -184 -234c-73 0 -114 45 -117 124h-1c-6 -37 -16 -77 -26 -117l-32 -129h-16l121 485h16c-8 -32 -15 -60 -26 -91h1c35 64 86 98 145 98zM307 677c-113 0 -170 -130 -170 -218c0 -77 36 -120 105 -120
c112 0 168 127 168 218c0 76 -36 120 -103 120z" />
    <glyph glyph-name="q.sups" horiz-adv-x="392" 
d="M277 693c72 0 113 -45 116 -124h1c6 37 16 77 26 117h16l-121 -485h-16l32 129c8 32 15 60 26 91h-1c-35 -64 -86 -98 -145 -98c-76 0 -119 51 -119 135c0 101 63 235 185 235zM277 677c-113 0 -169 -127 -169 -219c0 -75 36 -119 103 -119c112 0 170 130 170 217
c0 77 -36 121 -104 121z" />
    <glyph glyph-name="r.sups" horiz-adv-x="231" 
d="M309 687c7 0 15 0 20 -1l-4 -16c-5 1 -13 1 -20 1c-71 0 -132 -45 -156 -139l-50 -202h-16l89 356h16c-7 -28 -14 -56 -24 -84h1c32 55 82 85 144 85z" />
    <glyph glyph-name="s.sups" horiz-adv-x="323" 
d="M251 693c73 0 113 -33 113 -89c0 -11 -1 -21 -4 -33h-16c3 12 4 22 4 33c0 47 -33 73 -97 73c-72 0 -110 -42 -110 -85c0 -41 28 -54 83 -70c70 -20 108 -40 108 -94c0 -56 -48 -105 -136 -105c-79 0 -121 34 -121 93c0 12 1 23 5 35h16c-4 -12 -5 -24 -5 -35
c0 -50 35 -77 105 -77c79 0 120 42 120 89c0 45 -32 61 -99 80c-57 16 -92 33 -92 84c0 52 45 101 126 101z" />
    <glyph glyph-name="t.sups" horiz-adv-x="196" 
d="M199 670l-65 -258c-3 -13 -5 -24 -5 -32c0 -25 12 -36 42 -36c8 0 20 1 26 3l-4 -16c-6 -2 -16 -3 -23 -3c-38 0 -57 18 -57 52c0 10 2 20 6 36l64 254h-70l4 16h70l20 82h16l-20 -82h75l-4 -16h-75z" />
    <glyph glyph-name="u.sups" horiz-adv-x="388" 
d="M209 323c-63 0 -102 34 -102 100c0 16 3 34 8 55l52 208h16l-53 -210c-4 -20 -7 -37 -7 -53c0 -57 32 -84 86 -84c68 0 133 51 152 126l55 221h16l-89 -356h-16l18 70h-1c-32 -49 -83 -77 -135 -77z" />
    <glyph glyph-name="v.sups" horiz-adv-x="313" 
d="M187 330h-23l-55 356h16l26 -166c8 -57 17 -117 27 -174h1c37 57 76 117 114 174l108 166h19z" />
    <glyph glyph-name="w.sups" horiz-adv-x="537" 
d="M429 330h-25l-16 181l-15 160h-1l-95 -160l-106 -181h-25l-32 356h16l16 -170l15 -170h1c33 57 67 115 101 172l99 168h25l16 -169c6 -57 11 -115 16 -171h1l100 170l99 170h18z" />
    <glyph glyph-name="x.sups" horiz-adv-x="321" 
d="M236 514l101 -184h-18l-95 172h-1l-178 -172h-23l193 186l-92 170h18l86 -158h1l162 158h22z" />
    <glyph glyph-name="y.sups" horiz-adv-x="314" 
d="M420 686l-241 -362c-68 -103 -102 -126 -155 -126c-14 0 -23 1 -31 4l4 16c7 -3 15 -5 27 -5c46 0 76 20 141 117l-56 356h16l53 -334h1l223 334h18z" />
    <glyph glyph-name="z.sups" horiz-adv-x="317" 
d="M399 665l-343 -318v-1h270l-4 -16h-289l5 21l343 318v1h-256l4 16h275z" />
    <glyph glyph-name="ff" unicode="&#xfb00;" horiz-adv-x="470" 
d="M540 715c10 0 19 -1 28 -4l-4 -15c-7 2 -15 3 -24 3c-55 0 -92 -34 -111 -109l-20 -82h107l-4 -16h-107l-123 -492h-16l123 492h-202l-123 -492h-16l123 492h-97l4 16h97l21 86c20 81 64 121 126 121c10 0 19 -1 28 -4l-4 -15c-7 2 -15 3 -24 3c-55 0 -92 -34 -111 -109
l-20 -82h202l21 86c20 81 64 121 126 121z" />
    <glyph glyph-name="ffi" unicode="&#xfb03;" horiz-adv-x="668" 
d="M405 492l-123 -492h-16l123 492h-202l-123 -492h-16l123 492h-97l4 16h97l21 86c20 81 64 121 126 121c10 0 19 -1 28 -4l-4 -15c-7 2 -15 3 -24 3c-55 0 -92 -34 -111 -109l-20 -82h202l21 86c20 81 64 121 126 121c10 0 19 -1 28 -4l-4 -15c-7 2 -15 3 -24 3
c-55 0 -92 -34 -111 -109l-20 -82h107l-4 -16h-107zM691 712l-19 -77h-16l19 77h16zM624 508h16l-126 -508h-16z" />
    <glyph glyph-name="ffl" unicode="&#xfb04;" horiz-adv-x="668" 
d="M405 492l-123 -492h-16l123 492h-202l-123 -492h-16l123 492h-97l4 16h97l21 86c20 81 64 121 126 121c10 0 19 -1 28 -4l-4 -15c-7 2 -15 3 -24 3c-55 0 -92 -34 -111 -109l-20 -82h202l21 86c20 81 64 121 126 121c10 0 19 -1 28 -4l-4 -15c-7 2 -15 3 -24 3
c-55 0 -92 -34 -111 -109l-20 -82h107l-4 -16h-107zM691 712l-177 -712h-16l177 712h16z" />
    <glyph glyph-name="fi" unicode="&#xfb01;" horiz-adv-x="450" 
d="M187 492l-123 -492h-16l123 492h-97l4 16h97l21 86c20 81 64 121 126 121c10 0 19 -1 28 -4l-4 -15c-7 2 -15 3 -24 3c-55 0 -92 -34 -111 -109l-20 -82h107l-4 -16h-107zM473 712l-19 -77h-16l19 77h16zM406 508h16l-126 -508h-16z" />
    <glyph glyph-name="fl" unicode="&#xfb02;" horiz-adv-x="450" 
d="M187 492l-123 -492h-16l123 492h-97l4 16h97l21 86c20 81 64 121 126 121c10 0 19 -1 28 -4l-4 -15c-7 2 -15 3 -24 3c-55 0 -92 -34 -111 -109l-20 -82h107l-4 -16h-107zM473 712l-177 -712h-16l177 712h16z" />
    <glyph glyph-name="a.smcp" horiz-adv-x="524" 
d="M398 202h-296l-140 -202h-19l379 548h23l109 -548h-16zM395 218l-15 73c-16 82 -33 164 -48 242h-1c-55 -80 -110 -159 -167 -241l-51 -74h282z" />
    <glyph glyph-name="aacute.smcp" horiz-adv-x="524" 
d="M317 614h-19l126 138h23zM398 202h-296l-140 -202h-19l379 548h23l109 -548h-16zM395 218l-15 73c-16 82 -33 164 -48 242h-1c-55 -80 -110 -159 -167 -241l-51 -74h282z" />
    <glyph glyph-name="abreve.smcp" horiz-adv-x="524" 
d="M507 752h17c-27 -81 -86 -127 -171 -127c-78 0 -118 39 -118 108c0 6 0 12 1 19h16c-1 -7 -1 -13 -1 -19c0 -60 33 -92 102 -92c76 0 128 39 154 111zM345 548l109 -548h-16l-40 202h-296l-140 -202h-19l379 548h23zM395 218l-15 73c-16 82 -33 164 -48 242h-1
c-55 -80 -110 -159 -167 -241l-51 -74h282z" />
    <glyph glyph-name="acircumflex.smcp" horiz-adv-x="524" 
d="M473 614h-19l-75 123l-136 -123h-24l153 138h16zM345 548l109 -548h-16l-40 202h-296l-140 -202h-19l379 548h23zM395 218l-15 73c-16 82 -33 164 -48 242h-1c-55 -80 -110 -159 -167 -241l-51 -74h282z" />
    <glyph glyph-name="adieresis.smcp" horiz-adv-x="524" 
d="M277 675h-16l19 77h16zM480 752l-19 -77h-16l19 77h16zM345 548l109 -548h-16l-40 202h-296l-140 -202h-19l379 548h23zM395 218l-15 73c-16 82 -33 164 -48 242h-1c-55 -80 -110 -159 -167 -241l-51 -74h282z" />
    <glyph glyph-name="agrave.smcp" horiz-adv-x="524" 
d="M380 614l-66 138h19l62 -138h-15zM398 202h-296l-140 -202h-19l379 548h23l109 -548h-16zM395 218l-15 73c-16 82 -33 164 -48 242h-1c-55 -80 -110 -159 -167 -241l-51 -74h282z" />
    <glyph glyph-name="amacron.smcp" horiz-adv-x="524" 
d="M481 704l-4 -16h-226l4 16h226zM345 548l109 -548h-16l-40 202h-296l-140 -202h-19l379 548h23zM395 218l-15 73c-16 82 -33 164 -48 242h-1c-55 -80 -110 -159 -167 -241l-51 -74h282z" />
    <glyph glyph-name="aogonek.smcp" horiz-adv-x="524" 
d="M339 -134c0 -26 12 -39 43 -39c12 0 24 2 33 5l-4 -17c-8 -2 -19 -4 -29 -4c-40 0 -59 20 -59 55c0 43 28 82 114 140l-39 196h-296l-140 -202h-19l379 548h23l109 -548c-95 -63 -115 -100 -115 -134zM395 218l-15 73c-16 82 -33 164 -48 242h-1
c-55 -80 -110 -159 -167 -241l-51 -74h282z" />
    <glyph glyph-name="aring.smcp" horiz-adv-x="524" 
d="M361 633c-46 0 -84 37 -84 84c0 46 38 84 84 84s84 -38 84 -84c0 -47 -38 -84 -84 -84zM361 785c-38 0 -68 -30 -68 -68s30 -68 68 -68s68 30 68 68s-30 68 -68 68zM398 202h-296l-140 -202h-19l379 548h23l109 -548h-16zM395 218l-15 73c-16 82 -33 164 -48 242h-1
c-55 -80 -110 -159 -167 -241l-51 -74h282z" />
    <glyph glyph-name="atilde.smcp" horiz-adv-x="524" 
d="M505 742h17c-17 -53 -50 -81 -88 -81c-62 0 -78 65 -133 65c-31 0 -56 -22 -70 -65h-17c17 53 50 81 88 81c62 0 78 -65 133 -65c31 0 56 22 70 65zM345 548l109 -548h-16l-40 202h-296l-140 -202h-19l379 548h23zM395 218l-15 73c-16 82 -33 164 -48 242h-1
c-55 -80 -110 -159 -167 -241l-51 -74h282z" />
    <glyph glyph-name="ae.smcp" horiz-adv-x="750" 
d="M421 532l-19 -242h278l-4 -16h-276l-19 -258h256l-4 -16h-270l17 216h-250l-177 -216h-21l449 548h377l-4 -16h-333zM405 532h-16l-246 -300h238z" />
    <glyph glyph-name="b.smcp" horiz-adv-x="506" 
d="M162 548h169c94 0 137 -47 137 -121c0 -59 -47 -135 -153 -146v-1c61 -10 100 -52 100 -118c0 -72 -57 -162 -186 -162h-203zM174 532l-60 -243h145c148 0 193 84 193 138c0 65 -36 105 -121 105h-157zM110 273l-64 -257h183c120 0 170 83 170 146c0 65 -42 111 -140 111
h-149z" />
    <glyph glyph-name="c.smcp" horiz-adv-x="553" 
d="M346 558c121 0 180 -71 180 -164c0 -11 -1 -23 -3 -34h-16c2 12 3 23 3 34c0 84 -52 148 -164 148c-188 0 -288 -194 -288 -334c0 -126 62 -202 176 -202c112 0 201 68 235 160h17c-37 -103 -132 -176 -252 -176c-123 0 -192 83 -192 218c0 149 107 350 304 350z" />
    <glyph glyph-name="cacute.smcp" horiz-adv-x="553" 
d="M329 614h-19l126 138h23zM346 558c121 0 180 -71 180 -164c0 -11 -1 -23 -3 -34h-16c2 12 3 23 3 34c0 84 -52 148 -164 148c-188 0 -288 -194 -288 -334c0 -126 62 -202 176 -202c112 0 201 68 235 160h17c-37 -103 -132 -176 -252 -176c-123 0 -192 83 -192 218
c0 149 107 350 304 350z" />
    <glyph glyph-name="ccaron.smcp" horiz-adv-x="553" 
d="M366 614h-16l-85 138h19l75 -123l136 123h24zM346 558c121 0 180 -71 180 -164c0 -11 -1 -23 -3 -34h-16c2 12 3 23 3 34c0 84 -52 148 -164 148c-188 0 -288 -194 -288 -334c0 -126 62 -202 176 -202c112 0 201 68 235 160h17c-37 -103 -132 -176 -252 -176
c-123 0 -192 83 -192 218c0 149 107 350 304 350z" />
    <glyph glyph-name="ccedilla.smcp" horiz-adv-x="553" 
d="M346 558c121 0 180 -71 180 -164c0 -11 -1 -23 -3 -34h-16c2 12 3 23 3 34c0 84 -52 148 -164 148c-188 0 -288 -194 -288 -334c0 -126 62 -202 176 -202c112 0 201 68 235 160h17c-34 -94 -116 -163 -222 -174l-56 -60c4 1 10 2 16 2c44 0 68 -23 68 -61
c0 -46 -40 -78 -97 -78c-36 0 -64 9 -88 23l8 14c22 -14 48 -21 80 -21c48 0 81 25 81 62c0 29 -17 46 -52 46c-12 0 -24 -2 -34 -5l-10 11l61 65h-7c-123 0 -192 83 -192 218c0 149 107 350 304 350z" />
    <glyph glyph-name="ccircumflex.smcp" horiz-adv-x="553" 
d="M485 614h-19l-75 123l-136 -123h-24l153 138h16zM346 558c121 0 180 -71 180 -164c0 -11 -1 -23 -3 -34h-16c2 12 3 23 3 34c0 84 -52 148 -164 148c-188 0 -288 -194 -288 -334c0 -126 62 -202 176 -202c112 0 201 68 235 160h17c-37 -103 -132 -176 -252 -176
c-123 0 -192 83 -192 218c0 149 107 350 304 350z" />
    <glyph glyph-name="cdotaccent.smcp" horiz-adv-x="553" 
d="M381 675h-16l19 77h16zM346 558c121 0 180 -71 180 -164c0 -11 -1 -23 -3 -34h-16c2 12 3 23 3 34c0 84 -52 148 -164 148c-188 0 -288 -194 -288 -334c0 -126 62 -202 176 -202c112 0 201 68 235 160h17c-37 -103 -132 -176 -252 -176c-123 0 -192 83 -192 218
c0 149 107 350 304 350z" />
    <glyph glyph-name="d.smcp" horiz-adv-x="593" 
d="M162 548h137c167 0 252 -85 252 -234c0 -141 -93 -314 -330 -314h-195zM174 532l-128 -516h175c228 0 314 166 314 298c0 140 -78 218 -236 218h-125z" />
    <glyph glyph-name="eth.smcp" horiz-adv-x="594" 
d="M167 548h137c167 0 252 -85 252 -234c0 -141 -93 -314 -330 -314h-195l67 269h-57l4 16h57zM51 16h175c228 0 314 166 314 298c0 140 -78 218 -236 218h-125l-61 -247h201l-4 -16h-201z" />
    <glyph glyph-name="dcaron.smcp" horiz-adv-x="593" 
d="M354 614h-16l-85 138h19l75 -123l136 123h24zM162 548h137c167 0 252 -85 252 -234c0 -141 -93 -314 -330 -314h-195zM174 532l-128 -516h175c228 0 314 166 314 298c0 140 -78 218 -236 218h-125z" />
    <glyph glyph-name="dcroat.smcp" horiz-adv-x="594" 
d="M167 548h137c167 0 252 -85 252 -234c0 -141 -93 -314 -330 -314h-195l67 269h-57l4 16h57zM51 16h175c228 0 314 166 314 298c0 140 -78 218 -236 218h-125l-61 -247h201l-4 -16h-201z" />
    <glyph glyph-name="e.smcp" horiz-adv-x="496" 
d="M500 532h-320l-60 -242h306l-4 -16h-306l-64 -258h331l-4 -16h-347l136 548h336z" />
    <glyph glyph-name="eacute.smcp" horiz-adv-x="496" 
d="M324 614h-19l126 138h23zM500 532h-320l-60 -242h306l-4 -16h-306l-64 -258h331l-4 -16h-347l136 548h336z" />
    <glyph glyph-name="ebreve.smcp" horiz-adv-x="496" 
d="M514 752h17c-27 -81 -86 -127 -171 -127c-78 0 -118 39 -118 108c0 6 0 12 1 19h16c-1 -7 -1 -13 -1 -19c0 -60 33 -92 102 -92c76 0 128 39 154 111zM500 532h-320l-60 -242h306l-4 -16h-306l-64 -258h331l-4 -16h-347l136 548h336z" />
    <glyph glyph-name="ecaron.smcp" horiz-adv-x="496" 
d="M361 614h-16l-85 138h19l75 -123l136 123h24zM500 532h-320l-60 -242h306l-4 -16h-306l-64 -258h331l-4 -16h-347l136 548h336z" />
    <glyph glyph-name="ecircumflex.smcp" horiz-adv-x="496" 
d="M480 614h-19l-75 123l-136 -123h-24l153 138h16zM500 532h-320l-60 -242h306l-4 -16h-306l-64 -258h331l-4 -16h-347l136 548h336z" />
    <glyph glyph-name="edieresis.smcp" horiz-adv-x="496" 
d="M284 675h-16l19 77h16zM468 675h-16l19 77h16zM500 532h-320l-60 -242h306l-4 -16h-306l-64 -258h331l-4 -16h-347l136 548h336z" />
    <glyph glyph-name="edotaccent.smcp" horiz-adv-x="496" 
d="M376 675h-16l19 77h16zM500 532h-320l-60 -242h306l-4 -16h-306l-64 -258h331l-4 -16h-347l136 548h336z" />
    <glyph glyph-name="egrave.smcp" horiz-adv-x="496" 
d="M340 752l62 -138h-15l-66 138h19zM500 532h-320l-60 -242h306l-4 -16h-306l-64 -258h331l-4 -16h-347l136 548h336z" />
    <glyph glyph-name="emacron.smcp" horiz-adv-x="496" 
d="M484 688h-226l4 16h226zM500 532h-320l-60 -242h306l-4 -16h-306l-64 -258h331l-4 -16h-347l136 548h336z" />
    <glyph glyph-name="eogonek.smcp" horiz-adv-x="496" 
d="M180 532l-60 -242h306l-4 -16h-306l-64 -258h331l-4 -16c-95 -63 -115 -100 -115 -134c0 -26 12 -39 43 -39c12 0 24 2 33 5l-4 -17c-8 -2 -19 -4 -29 -4c-40 0 -59 20 -59 55c0 42 26 79 105 134h-321l136 548h336l-4 -16h-320z" />
    <glyph glyph-name="f.smcp" horiz-adv-x="455" 
d="M493 532h-313l-60 -240h297l-4 -16h-297l-68 -276h-16l136 548h329z" />
    <glyph glyph-name="fi.smcp" horiz-adv-x="661" 
d="M493 532h-313l-60 -240h297l-4 -16h-297l-68 -276h-16l136 548h329zM503 0h-16l136 548h16z" />
    <glyph glyph-name="fl.smcp" horiz-adv-x="898" 
d="M493 532h-313l-60 -240h297l-4 -16h-297l-68 -276h-16l136 548h329zM507 16h326l-4 -16h-342l136 548h16z" />
    <glyph glyph-name="g.smcp" horiz-adv-x="585" 
d="M361 558c118 0 178 -62 178 -153c0 -8 0 -16 -2 -25h-16c1 9 2 17 2 25c0 82 -54 137 -162 137c-199 0 -303 -191 -303 -333c0 -129 61 -201 174 -201c103 0 214 58 258 238h-193l4 16h209l-65 -262h-16c13 52 25 101 41 153h-1c-41 -101 -130 -161 -237 -161
c-122 0 -190 79 -190 217c0 151 111 349 319 349z" />
    <glyph glyph-name="gbreve.smcp" horiz-adv-x="585" 
d="M528 752h17c-27 -81 -86 -127 -171 -127c-78 0 -118 39 -118 108c0 6 0 12 1 19h16c-1 -7 -1 -13 -1 -19c0 -60 33 -92 102 -92c76 0 128 39 154 111zM361 558c118 0 178 -62 178 -153c0 -8 0 -16 -2 -25h-16c1 9 2 17 2 25c0 82 -54 137 -162 137
c-199 0 -303 -191 -303 -333c0 -129 61 -201 174 -201c103 0 214 58 258 238h-193l4 16h209l-65 -262h-16c13 52 25 101 41 153h-1c-41 -101 -130 -161 -237 -161c-122 0 -190 79 -190 217c0 151 111 349 319 349z" />
    <glyph glyph-name="gcircumflex.smcp" horiz-adv-x="585" 
d="M494 614h-19l-75 123l-136 -123h-24l153 138h16zM361 558c118 0 178 -62 178 -153c0 -8 0 -16 -2 -25h-16c1 9 2 17 2 25c0 82 -54 137 -162 137c-199 0 -303 -191 -303 -333c0 -129 61 -201 174 -201c103 0 214 58 258 238h-193l4 16h209l-65 -262h-16
c13 52 25 101 41 153h-1c-41 -101 -130 -161 -237 -161c-122 0 -190 79 -190 217c0 151 111 349 319 349z" />
    <glyph glyph-name="gcommaaccent.smcp" horiz-adv-x="585" 
d="M361 558c118 0 178 -62 178 -153c0 -8 0 -16 -2 -25h-16c1 9 2 17 2 25c0 82 -54 137 -162 137c-199 0 -303 -191 -303 -333c0 -129 61 -201 174 -201c103 0 214 58 258 238h-193l4 16h209l-65 -262h-16c13 52 25 101 41 153h-1c-41 -101 -130 -161 -237 -161
c-122 0 -190 79 -190 217c0 151 111 349 319 349zM216 -145l-54 -94h-14l52 94l16 66h16z" />
    <glyph glyph-name="gdotaccent.smcp" horiz-adv-x="585" 
d="M390 675h-16l19 77h16zM361 558c118 0 178 -62 178 -153c0 -8 0 -16 -2 -25h-16c1 9 2 17 2 25c0 82 -54 137 -162 137c-199 0 -303 -191 -303 -333c0 -129 61 -201 174 -201c103 0 214 58 258 238h-193l4 16h209l-65 -262h-16c13 52 25 101 41 153h-1
c-41 -101 -130 -161 -237 -161c-122 0 -190 79 -190 217c0 151 111 349 319 349z" />
    <glyph glyph-name="h.smcp" horiz-adv-x="598" 
d="M440 0h-16l69 277h-376l-69 -277h-16l136 548h16l-63 -255h376l63 255h16z" />
    <glyph glyph-name="hbar.smcp" horiz-adv-x="597" 
d="M602 457h-49l-113 -457h-16l69 277h-376l-69 -277h-16l113 457h-49l4 16h49l19 75h16l-19 -75h376l19 75h16l-19 -75h49zM538 457h-376l-41 -164h376z" />
    <glyph glyph-name="hcircumflex.smcp" horiz-adv-x="598" 
d="M516 614h-19l-75 123l-136 -123h-24l153 138h16zM440 0h-16l69 277h-376l-69 -277h-16l136 548h16l-63 -255h376l63 255h16z" />
    <glyph glyph-name="i.smcp" horiz-adv-x="206" 
d="M48 0h-16l136 548h16z" />
    <glyph glyph-name="iacute.smcp" horiz-adv-x="206" 
d="M164 614h-19l126 138h23zM48 0h-16l136 548h16z" />
    <glyph glyph-name="ibreve.smcp" horiz-adv-x="206" 
d="M329 752h16c-25 -81 -75 -127 -145 -127c-61 0 -93 37 -93 101c0 10 1 19 2 26h15c-1 -7 -2 -17 -2 -26c0 -55 26 -85 78 -85c61 0 105 39 129 111zM48 0h-16l136 548h16z" />
    <glyph glyph-name="icircumflex.smcp" horiz-adv-x="206" 
d="M298 615h-18l-55 121l-116 -121h-22l131 137h17zM48 0h-16l136 548h16z" />
    <glyph glyph-name="idieresis.smcp" horiz-adv-x="206" 
d="M146 683h-16l17 69h16zM290 683h-16l17 69h16zM48 0h-16l136 548h16z" />
    <glyph glyph-name="idotaccent.smcp" horiz-adv-x="206" 
d="M216 675h-16l19 77h16zM48 0h-16l136 548h16z" />
    <glyph glyph-name="igrave.smcp" horiz-adv-x="206" 
d="M180 752l62 -138h-15l-66 138h19zM48 0h-16l136 548h16z" />
    <glyph glyph-name="ij.smcp" horiz-adv-x="466" 
d="M48 0h-16l136 548h16zM449 548l-104 -419c-21 -86 -77 -132 -154 -132c-14 0 -26 1 -35 4l4 16c9 -3 20 -4 31 -4c69 0 119 40 139 120l103 415h16z" />
    <glyph glyph-name="imacron.smcp" horiz-adv-x="206" 
d="M304 688h-186l4 16h186zM48 0h-16l136 548h16z" />
    <glyph glyph-name="iogonek.smcp" horiz-adv-x="206" 
d="M184 548l-136 -548c-95 -63 -115 -100 -115 -134c0 -26 12 -39 43 -39c12 0 24 2 33 5l-4 -17c-8 -2 -19 -4 -29 -4c-40 0 -59 20 -59 55c0 44 29 83 117 142l134 540h16z" />
    <glyph glyph-name="itilde.smcp" horiz-adv-x="206" 
d="M333 742h17c-16 -53 -46 -81 -79 -81c-54 0 -66 65 -113 65c-26 0 -47 -22 -60 -65h-18c17 53 47 81 80 81c53 0 65 -65 112 -65c27 0 48 22 61 65zM48 0h-16l136 548h16z" />
    <glyph glyph-name="j.smcp" horiz-adv-x="260" 
d="M243 548l-104 -419c-21 -86 -77 -132 -154 -132c-14 0 -26 1 -35 4l4 16c9 -3 20 -4 31 -4c69 0 119 40 139 120l103 415h16z" />
    <glyph glyph-name="jcircumflex.smcp" horiz-adv-x="260" 
d="M357 615h-18l-55 121l-116 -121h-22l131 137h17zM243 548l-104 -419c-21 -86 -77 -132 -154 -132c-14 0 -26 1 -35 4l4 16c9 -3 20 -4 31 -4c69 0 119 40 139 120l103 415h16z" />
    <glyph glyph-name="k.smcp" horiz-adv-x="451" 
d="M133 285l246 -285h-21l-244 282h-1l-70 -282h-16l136 548h16l-63 -255h1l345 255h27z" />
    <glyph glyph-name="kcommaaccent.smcp" horiz-adv-x="451" 
d="M133 285l246 -285h-21l-244 282h-1l-70 -282h-16l136 548h16l-63 -255h1l345 255h27zM177 -145l-54 -94h-14l52 94l16 66h16z" />
    <glyph glyph-name="l.smcp" horiz-adv-x="443" 
d="M52 16h326l-4 -16h-342l136 548h16z" />
    <glyph glyph-name="lacute.smcp" horiz-adv-x="443" 
d="M206 614h-19l126 138h23zM52 16h326l-4 -16h-342l136 548h16z" />
    <glyph glyph-name="lcaron.smcp" horiz-adv-x="443" 
d="M52 16h326l-4 -16h-342l136 548h16zM224 374h-15l83 174h18z" />
    <glyph glyph-name="lcommaaccent.smcp" horiz-adv-x="443" 
d="M52 16h326l-4 -16h-342l136 548h16zM175 -145l-54 -94h-14l52 94l16 66h16z" />
    <glyph glyph-name="ldot.smcp" horiz-adv-x="501" 
d="M52 16h326l-4 -16h-342l136 548h16zM366 270h-18l18 72h18z" />
    <glyph glyph-name="j.acute.loclNLD.smcp" horiz-adv-x="260" 
d="M223 614h-19l126 138h23zM243 548l-104 -419c-21 -86 -77 -132 -154 -132c-14 0 -26 1 -35 4l4 16c9 -3 20 -4 31 -4c69 0 119 40 139 120l103 415h16z" />
    <glyph glyph-name="lslash.smcp" horiz-adv-x="435" 
d="M371 16l-4 -16h-342l61 245l-74 -37l5 20l74 37l70 283h16l-68 -275l155 76l-5 -20l-155 -76l-59 -237h326z" />
    <glyph glyph-name="m.smcp" horiz-adv-x="719" 
d="M561 0h-16l74 297c19 78 39 156 58 234h-1c-56 -80 -111 -161 -167 -241l-201 -290h-22l-57 290l-48 241h-1c-19 -78 -39 -156 -58 -234l-74 -297h-16l136 548h26l62 -312l43 -219h1l153 220l215 311h29z" />
    <glyph glyph-name="n.smcp" horiz-adv-x="609" 
d="M446 0h-23l-118 255l-129 277h-1c-24 -99 -49 -196 -73 -294l-59 -238h-16l136 548h23l119 -255c43 -92 85 -184 128 -277h1c24 98 49 196 73 294l59 238h16z" />
    <glyph glyph-name="nacute.smcp" horiz-adv-x="609" 
d="M351 614h-19l126 138h23zM446 0h-23l-118 255l-129 277h-1c-24 -99 -49 -196 -73 -294l-59 -238h-16l136 548h23l119 -255c43 -92 85 -184 128 -277h1c24 98 49 196 73 294l59 238h16z" />
    <glyph glyph-name="ncaron.smcp" horiz-adv-x="609" 
d="M388 614h-16l-85 138h19l75 -123l136 123h24zM446 0h-23l-118 255l-129 277h-1c-24 -99 -49 -196 -73 -294l-59 -238h-16l136 548h23l119 -255c43 -92 85 -184 128 -277h1c24 98 49 196 73 294l59 238h16z" />
    <glyph glyph-name="ncommaaccent.smcp" horiz-adv-x="609" 
d="M446 0h-23l-118 255l-129 277h-1c-24 -99 -49 -196 -73 -294l-59 -238h-16l136 548h23l119 -255c43 -92 85 -184 128 -277h1c24 98 49 196 73 294l59 238h16zM219 -145l-54 -94h-14l52 94l16 66h16z" />
    <glyph glyph-name="eng.smcp" horiz-adv-x="609" 
d="M582 548l-147 -589c-20 -78 -59 -104 -111 -104c-8 0 -16 1 -21 3l4 15c4 -1 11 -2 17 -2c45 0 78 21 96 92l10 38l-129 270l-124 262h-1c-24 -94 -47 -188 -71 -282l-62 -251h-16l136 548h24l122 -257c41 -86 85 -177 126 -264h1l71 284l59 237h16z" />
    <glyph glyph-name="ntilde.smcp" horiz-adv-x="609" 
d="M539 742h17c-17 -53 -50 -81 -88 -81c-62 0 -78 65 -133 65c-31 0 -56 -22 -70 -65h-17c17 53 50 81 88 81c62 0 78 -65 133 -65c31 0 56 22 70 65zM446 0h-23l-118 255l-129 277h-1c-24 -99 -49 -196 -73 -294l-59 -238h-16l136 548h23l119 -255
c43 -92 85 -184 128 -277h1c24 98 49 196 73 294l59 238h16z" />
    <glyph glyph-name="o.smcp" horiz-adv-x="584" 
d="M348 558c130 0 203 -87 203 -225c0 -149 -107 -343 -305 -343c-128 0 -202 87 -202 226c0 149 108 342 304 342zM348 542c-187 0 -288 -186 -288 -326c0 -130 66 -210 186 -210c188 0 289 187 289 327c0 129 -66 209 -187 209z" />
    <glyph glyph-name="oacute.smcp" horiz-adv-x="584" 
d="M334 614h-19l126 138h23zM348 558c130 0 203 -87 203 -225c0 -149 -107 -343 -305 -343c-128 0 -202 87 -202 226c0 149 108 342 304 342zM348 542c-187 0 -288 -186 -288 -326c0 -130 66 -210 186 -210c188 0 289 187 289 327c0 129 -66 209 -187 209z" />
    <glyph glyph-name="obreve.smcp" horiz-adv-x="584" 
d="M524 752h17c-27 -81 -86 -127 -171 -127c-78 0 -118 39 -118 108c0 6 0 12 1 19h16c-1 -7 -1 -13 -1 -19c0 -60 33 -92 102 -92c76 0 128 39 154 111zM348 558c130 0 203 -87 203 -225c0 -149 -107 -343 -305 -343c-128 0 -202 87 -202 226c0 149 108 342 304 342z
M348 542c-187 0 -288 -186 -288 -326c0 -130 66 -210 186 -210c188 0 289 187 289 327c0 129 -66 209 -187 209z" />
    <glyph glyph-name="ocircumflex.smcp" horiz-adv-x="584" 
d="M490 614h-19l-75 123l-136 -123h-24l153 138h16zM348 558c130 0 203 -87 203 -225c0 -149 -107 -343 -305 -343c-128 0 -202 87 -202 226c0 149 108 342 304 342zM348 542c-187 0 -288 -186 -288 -326c0 -130 66 -210 186 -210c188 0 289 187 289 327
c0 129 -66 209 -187 209z" />
    <glyph glyph-name="odieresis.smcp" horiz-adv-x="584" 
d="M294 675h-16l19 77h16zM478 675h-16l19 77h16zM348 558c130 0 203 -87 203 -225c0 -149 -107 -343 -305 -343c-128 0 -202 87 -202 226c0 149 108 342 304 342zM348 542c-187 0 -288 -186 -288 -326c0 -130 66 -210 186 -210c188 0 289 187 289 327
c0 129 -66 209 -187 209z" />
    <glyph glyph-name="ograve.smcp" horiz-adv-x="584" 
d="M350 752l62 -138h-15l-66 138h19zM348 558c130 0 203 -87 203 -225c0 -149 -107 -343 -305 -343c-128 0 -202 87 -202 226c0 149 108 342 304 342zM348 542c-187 0 -288 -186 -288 -326c0 -130 66 -210 186 -210c188 0 289 187 289 327c0 129 -66 209 -187 209z" />
    <glyph glyph-name="ohungarumlaut.smcp" horiz-adv-x="584" 
d="M299 614h-21l154 138h26zM398 614h-21l154 138h26zM348 558c130 0 203 -87 203 -225c0 -149 -107 -343 -305 -343c-128 0 -202 87 -202 226c0 149 108 342 304 342zM348 542c-187 0 -288 -186 -288 -326c0 -130 66 -210 186 -210c188 0 289 187 289 327
c0 129 -66 209 -187 209z" />
    <glyph glyph-name="omacron.smcp" horiz-adv-x="584" 
d="M494 688h-226l4 16h226zM348 558c130 0 203 -87 203 -225c0 -149 -107 -343 -305 -343c-128 0 -202 87 -202 226c0 149 108 342 304 342zM348 542c-187 0 -288 -186 -288 -326c0 -130 66 -210 186 -210c188 0 289 187 289 327c0 129 -66 209 -187 209z" />
    <glyph glyph-name="oslash.smcp" horiz-adv-x="585" 
d="M578 529l-61 -57c22 -37 34 -84 34 -139c0 -149 -107 -343 -305 -343c-71 0 -126 27 -160 75l-60 -55l-10 12l61 57c-22 36 -33 83 -33 137c0 149 108 342 304 342c71 0 125 -26 160 -72l59 55zM348 542c-187 0 -288 -186 -288 -326c0 -50 10 -92 28 -126l408 384
c-31 44 -81 68 -148 68zM246 6c188 0 289 187 289 327c0 51 -11 94 -30 128l-408 -385c31 -45 82 -70 149 -70z" />
    <glyph glyph-name="otilde.smcp" horiz-adv-x="584" 
d="M522 742h17c-17 -53 -50 -81 -88 -81c-62 0 -78 65 -133 65c-31 0 -56 -22 -70 -65h-17c17 53 50 81 88 81c62 0 78 -65 133 -65c31 0 56 22 70 65zM348 558c130 0 203 -87 203 -225c0 -149 -107 -343 -305 -343c-128 0 -202 87 -202 226c0 149 108 342 304 342zM348 542
c-187 0 -288 -186 -288 -326c0 -130 66 -210 186 -210c188 0 289 187 289 327c0 129 -66 209 -187 209z" />
    <glyph glyph-name="oe.smcp" horiz-adv-x="799" 
d="M803 532h-320l-60 -242h306l-4 -16h-306l-64 -258h331l-4 -16h-394c-159 0 -240 85 -240 234c0 141 89 314 318 314h441zM467 532h-101c-220 0 -302 -166 -302 -298c0 -140 74 -218 224 -218h51z" />
    <glyph glyph-name="p.smcp" horiz-adv-x="489" 
d="M163 548h168c109 0 158 -54 158 -131c0 -72 -54 -161 -184 -161h-198l-64 -256h-16zM175 532l-64 -260h194c121 0 168 82 168 145c0 68 -42 115 -142 115h-156z" />
    <glyph glyph-name="thorn.smcp" horiz-adv-x="489" 
d="M149 429h152c109 0 158 -54 158 -131c0 -72 -54 -161 -184 -161h-198l-34 -137h-16l136 548h16zM145 413l-64 -260h194c121 0 168 82 168 145c0 68 -42 115 -142 115h-156z" />
    <glyph glyph-name="q.smcp" horiz-adv-x="584" 
d="M551 333c0 -98 -46 -216 -135 -285l53 -75l-13 -9l-52 75c-44 -30 -96 -49 -158 -49c-128 0 -202 87 -202 226c0 149 108 342 304 342c130 0 203 -87 203 -225zM60 216c0 -130 66 -210 186 -210c58 0 107 18 148 46l-58 84l13 9l58 -83c84 66 128 179 128 271
c0 129 -66 209 -187 209c-187 0 -288 -186 -288 -326z" />
    <glyph glyph-name="r.smcp" horiz-adv-x="499" 
d="M168 548h149c108 0 159 -47 159 -126c0 -67 -51 -142 -160 -155v-1c38 -10 57 -34 67 -101l24 -165h-16l-23 161c-10 73 -30 100 -105 100h-150l-65 -261h-16zM180 532l-63 -255h150c145 0 193 87 193 145c0 69 -45 110 -143 110h-137z" />
    <glyph glyph-name="racute.smcp" horiz-adv-x="499" 
d="M311 614h-19l126 138h23zM168 548h149c108 0 159 -47 159 -126c0 -67 -51 -142 -160 -155v-1c38 -10 57 -34 67 -101l24 -165h-16l-23 161c-10 73 -30 100 -105 100h-150l-65 -261h-16zM180 532l-63 -255h150c145 0 193 87 193 145c0 69 -45 110 -143 110h-137z" />
    <glyph glyph-name="rcaron.smcp" horiz-adv-x="499" 
d="M348 614h-16l-85 138h19l75 -123l136 123h24zM168 548h149c108 0 159 -47 159 -126c0 -67 -51 -142 -160 -155v-1c38 -10 57 -34 67 -101l24 -165h-16l-23 161c-10 73 -30 100 -105 100h-150l-65 -261h-16zM180 532l-63 -255h150c145 0 193 87 193 145
c0 69 -45 110 -143 110h-137z" />
    <glyph glyph-name="rcommaaccent.smcp" horiz-adv-x="499" 
d="M168 548h149c108 0 159 -47 159 -126c0 -67 -51 -142 -160 -155v-1c38 -10 57 -34 67 -101l24 -165h-16l-23 161c-10 73 -30 100 -105 100h-150l-65 -261h-16zM180 532l-63 -255h150c145 0 193 87 193 145c0 69 -45 110 -143 110h-137zM183 -145l-54 -94h-14l52 94l16 66
h16z" />
    <glyph glyph-name="s.smcp" horiz-adv-x="483" 
d="M283 558c109 0 162 -45 162 -132c0 -15 -2 -33 -6 -52h-16c4 19 6 37 6 52c0 79 -46 116 -146 116c-117 0 -173 -75 -173 -134c0 -67 44 -93 128 -121c92 -31 150 -55 150 -141c0 -70 -63 -156 -205 -156c-109 0 -166 44 -166 138c0 16 2 35 7 55h16
c-5 -20 -7 -39 -7 -55c0 -85 50 -122 150 -122c133 0 189 79 189 140c0 77 -53 97 -140 126c-90 30 -138 61 -138 136c0 68 63 150 189 150z" />
    <glyph glyph-name="sacute.smcp" horiz-adv-x="483" 
d="M272 614h-19l126 138h23zM283 558c109 0 162 -45 162 -132c0 -15 -2 -33 -6 -52h-16c4 19 6 37 6 52c0 79 -46 116 -146 116c-117 0 -173 -75 -173 -134c0 -67 44 -93 128 -121c92 -31 150 -55 150 -141c0 -70 -63 -156 -205 -156c-109 0 -166 44 -166 138
c0 16 2 35 7 55h16c-5 -20 -7 -39 -7 -55c0 -85 50 -122 150 -122c133 0 189 79 189 140c0 77 -53 97 -140 126c-90 30 -138 61 -138 136c0 68 63 150 189 150z" />
    <glyph glyph-name="scaron.smcp" horiz-adv-x="483" 
d="M309 614h-16l-85 138h19l75 -123l136 123h24zM283 558c109 0 162 -45 162 -132c0 -15 -2 -33 -6 -52h-16c4 19 6 37 6 52c0 79 -46 116 -146 116c-117 0 -173 -75 -173 -134c0 -67 44 -93 128 -121c92 -31 150 -55 150 -141c0 -70 -63 -156 -205 -156
c-109 0 -166 44 -166 138c0 16 2 35 7 55h16c-5 -20 -7 -39 -7 -55c0 -85 50 -122 150 -122c133 0 189 79 189 140c0 77 -53 97 -140 126c-90 30 -138 61 -138 136c0 68 63 150 189 150z" />
    <glyph glyph-name="scedilla.smcp" horiz-adv-x="483" 
d="M283 558c109 0 162 -45 162 -132c0 -15 -2 -33 -6 -52h-16c4 19 6 37 6 52c0 79 -46 116 -146 116c-117 0 -173 -75 -173 -134c0 -67 44 -93 128 -121c92 -31 150 -55 150 -141c0 -66 -56 -146 -182 -155l-55 -59c4 1 10 2 16 2c44 0 68 -23 68 -61
c0 -46 -40 -78 -97 -78c-36 0 -64 9 -88 23l8 14c22 -14 48 -21 80 -21c48 0 81 25 81 62c0 29 -17 46 -52 46c-12 0 -24 -2 -34 -5l-10 11l60 65c-109 0 -166 44 -166 138c0 16 2 35 7 55h16c-5 -20 -7 -39 -7 -55c0 -85 50 -122 150 -122c133 0 189 79 189 140
c0 77 -53 97 -140 126c-90 30 -138 61 -138 136c0 68 63 150 189 150z" />
    <glyph glyph-name="scircumflex.smcp" horiz-adv-x="483" 
d="M428 614h-19l-75 123l-136 -123h-24l153 138h16zM283 558c109 0 162 -45 162 -132c0 -15 -2 -33 -6 -52h-16c4 19 6 37 6 52c0 79 -46 116 -146 116c-117 0 -173 -75 -173 -134c0 -67 44 -93 128 -121c92 -31 150 -55 150 -141c0 -70 -63 -156 -205 -156
c-109 0 -166 44 -166 138c0 16 2 35 7 55h16c-5 -20 -7 -39 -7 -55c0 -85 50 -122 150 -122c133 0 189 79 189 140c0 77 -53 97 -140 126c-90 30 -138 61 -138 136c0 68 63 150 189 150z" />
    <glyph glyph-name="scommaaccent.smcp" horiz-adv-x="483" 
d="M283 558c109 0 162 -45 162 -132c0 -15 -2 -33 -6 -52h-16c4 19 6 37 6 52c0 79 -46 116 -146 116c-117 0 -173 -75 -173 -134c0 -67 44 -93 128 -121c92 -31 150 -55 150 -141c0 -70 -63 -156 -205 -156c-109 0 -166 44 -166 138c0 16 2 35 7 55h16
c-5 -20 -7 -39 -7 -55c0 -85 50 -122 150 -122c133 0 189 79 189 140c0 77 -53 97 -140 126c-90 30 -138 61 -138 136c0 68 63 150 189 150zM154 -145l-54 -94h-14l52 94l16 66h16z" />
    <glyph glyph-name="germandbls.smcp" horiz-adv-x="618" 
d="M563 473l-203 -157c104 -16 166 -66 166 -158c0 -77 -67 -168 -200 -168c-97 0 -146 40 -146 109c0 8 0 15 2 24h16c-2 -9 -2 -16 -2 -24c0 -60 42 -93 130 -93c124 0 184 83 184 152c0 90 -63 133 -176 145l4 16l203 157c-33 41 -88 66 -163 66
c-135 0 -222 -67 -255 -200l-85 -342h-16l86 346c35 139 128 212 270 212c88 0 152 -35 185 -85z" />
    <glyph glyph-name="t.smcp" horiz-adv-x="468" 
d="M532 532h-221l-132 -532h-16l132 532h-221l4 16h458z" />
    <glyph glyph-name="tbar.smcp" horiz-adv-x="468" 
d="M311 532l-53 -213h128l-4 -16h-128l-75 -303h-16l75 303h-128l4 16h128l53 213h-221l4 16h458l-4 -16h-221z" />
    <glyph glyph-name="tcaron.smcp" horiz-adv-x="468" 
d="M332 614h-16l-85 138h19l75 -123l136 123h24zM532 532h-221l-132 -532h-16l132 532h-221l4 16h458z" />
    <glyph glyph-name="tcedilla.smcp" horiz-adv-x="468" 
d="M532 532h-221l-132 -532h-16l132 532h-221l4 16h458zM143 -145l-54 -94h-14l52 94l16 66h16z" />
    <glyph glyph-name="tcommaaccent.smcp" horiz-adv-x="468" 
d="M532 532h-221l-132 -532h-16l132 532h-221l4 16h458zM143 -145l-54 -94h-14l52 94l16 66h16z" />
    <glyph glyph-name="u.smcp" horiz-adv-x="568" 
d="M552 548l-91 -365c-32 -127 -113 -193 -229 -193c-108 0 -164 50 -164 150c0 22 4 47 11 75l83 333h16l-84 -337c-7 -26 -10 -50 -10 -71c0 -91 49 -134 148 -134c108 0 184 61 214 181l90 361h16z" />
    <glyph glyph-name="uacute.smcp" horiz-adv-x="568" 
d="M335 614h-19l126 138h23zM552 548l-91 -365c-32 -127 -113 -193 -229 -193c-108 0 -164 50 -164 150c0 22 4 47 11 75l83 333h16l-84 -337c-7 -26 -10 -50 -10 -71c0 -91 49 -134 148 -134c108 0 184 61 214 181l90 361h16z" />
    <glyph glyph-name="ubreve.smcp" horiz-adv-x="568" 
d="M525 752h17c-27 -81 -86 -127 -171 -127c-78 0 -118 39 -118 108c0 6 0 12 1 19h16c-1 -7 -1 -13 -1 -19c0 -60 33 -92 102 -92c76 0 128 39 154 111zM552 548l-91 -365c-32 -127 -113 -193 -229 -193c-108 0 -164 50 -164 150c0 22 4 47 11 75l83 333h16l-84 -337
c-7 -26 -10 -50 -10 -71c0 -91 49 -134 148 -134c108 0 184 61 214 181l90 361h16z" />
    <glyph glyph-name="ucircumflex.smcp" horiz-adv-x="568" 
d="M491 614h-19l-75 123l-136 -123h-24l153 138h16zM552 548l-91 -365c-32 -127 -113 -193 -229 -193c-108 0 -164 50 -164 150c0 22 4 47 11 75l83 333h16l-84 -337c-7 -26 -10 -50 -10 -71c0 -91 49 -134 148 -134c108 0 184 61 214 181l90 361h16z" />
    <glyph glyph-name="udieresis.smcp" horiz-adv-x="568" 
d="M295 675h-16l19 77h16zM479 675h-16l19 77h16zM552 548l-91 -365c-32 -127 -113 -193 -229 -193c-108 0 -164 50 -164 150c0 22 4 47 11 75l83 333h16l-84 -337c-7 -26 -10 -50 -10 -71c0 -91 49 -134 148 -134c108 0 184 61 214 181l90 361h16z" />
    <glyph glyph-name="ugrave.smcp" horiz-adv-x="568" 
d="M351 752l62 -138h-15l-66 138h19zM552 548l-91 -365c-32 -127 -113 -193 -229 -193c-108 0 -164 50 -164 150c0 22 4 47 11 75l83 333h16l-84 -337c-7 -26 -10 -50 -10 -71c0 -91 49 -134 148 -134c108 0 184 61 214 181l90 361h16z" />
    <glyph glyph-name="uhungarumlaut.smcp" horiz-adv-x="568" 
d="M300 614h-21l154 138h26zM399 614h-21l154 138h26zM552 548l-91 -365c-32 -127 -113 -193 -229 -193c-108 0 -164 50 -164 150c0 22 4 47 11 75l83 333h16l-84 -337c-7 -26 -10 -50 -10 -71c0 -91 49 -134 148 -134c108 0 184 61 214 181l90 361h16z" />
    <glyph glyph-name="umacron.smcp" horiz-adv-x="568" 
d="M495 688h-226l4 16h226zM552 548l-91 -365c-32 -127 -113 -193 -229 -193c-108 0 -164 50 -164 150c0 22 4 47 11 75l83 333h16l-84 -337c-7 -26 -10 -50 -10 -71c0 -91 49 -134 148 -134c108 0 184 61 214 181l90 361h16z" />
    <glyph glyph-name="uogonek.smcp" horiz-adv-x="568" 
d="M552 548l-91 -365c-23 -92 -67 -140 -131 -180c-102 -64 -123 -102 -123 -137c0 -26 12 -39 43 -39c12 0 24 2 33 5l-4 -17c-8 -2 -19 -4 -29 -4c-40 0 -59 20 -59 55c0 41 25 81 110 133v1c-22 -7 -44 -10 -69 -10c-108 0 -164 50 -164 150c0 22 4 47 11 75l83 333h16
l-84 -337c-7 -26 -10 -50 -10 -71c0 -91 49 -134 148 -134c108 0 184 61 214 181l90 361h16z" />
    <glyph glyph-name="uring.smcp" horiz-adv-x="568" 
d="M379 801c46 0 84 -38 84 -84c0 -47 -38 -84 -84 -84s-84 37 -84 84c0 46 38 84 84 84zM379 785c-38 0 -68 -30 -68 -68s30 -68 68 -68s68 30 68 68s-30 68 -68 68zM552 548l-91 -365c-32 -127 -113 -193 -229 -193c-108 0 -164 50 -164 150c0 22 4 47 11 75l83 333h16
l-84 -337c-7 -26 -10 -50 -10 -71c0 -91 49 -134 148 -134c108 0 184 61 214 181l90 361h16z" />
    <glyph glyph-name="utilde.smcp" horiz-adv-x="568" 
d="M523 742h17c-17 -53 -50 -81 -88 -81c-62 0 -78 65 -133 65c-31 0 -56 -22 -70 -65h-17c17 53 50 81 88 81c62 0 78 -65 133 -65c31 0 56 22 70 65zM552 548l-91 -365c-32 -127 -113 -193 -229 -193c-108 0 -164 50 -164 150c0 22 4 47 11 75l83 333h16l-84 -337
c-7 -26 -10 -50 -10 -71c0 -91 49 -134 148 -134c108 0 184 61 214 181l90 361h16z" />
    <glyph glyph-name="v.smcp" horiz-adv-x="497" 
d="M196 0h-21l-95 548h16l46 -264c15 -89 31 -179 46 -267h1c58 88 118 177 179 268l176 263h19z" />
    <glyph glyph-name="w.smcp" horiz-adv-x="711" 
d="M472 0h-23l-12 259l-12 273h-1c-50 -93 -98 -182 -148 -273l-140 -259h-23l-29 548h16l14 -263c5 -89 9 -180 13 -268h1l146 270l142 261h23l12 -261l12 -270h1l147 268l144 263h18z" />
    <glyph glyph-name="wacute.smcp" horiz-adv-x="711" 
d="M412 614h-19l126 138h23zM472 0h-23l-12 259l-12 273h-1c-50 -93 -98 -182 -148 -273l-140 -259h-23l-29 548h16l14 -263c5 -89 9 -180 13 -268h1l146 270l142 261h23l12 -261l12 -270h1l147 268l144 263h18z" />
    <glyph glyph-name="wcircumflex.smcp" horiz-adv-x="711" 
d="M568 614h-19l-75 123l-136 -123h-24l153 138h16zM472 0h-23l-12 259l-12 273h-1c-50 -93 -98 -182 -148 -273l-140 -259h-23l-29 548h16l14 -263c5 -89 9 -180 13 -268h1l146 270l142 261h23l12 -261l12 -270h1l147 268l144 263h18z" />
    <glyph glyph-name="wdieresis.smcp" horiz-adv-x="711" 
d="M372 675h-16l19 77h16zM556 675h-16l19 77h16zM472 0h-23l-12 259l-12 273h-1c-50 -93 -98 -182 -148 -273l-140 -259h-23l-29 548h16l14 -263c5 -89 9 -180 13 -268h1l146 270l142 261h23l12 -261l12 -270h1l147 268l144 263h18z" />
    <glyph glyph-name="wgrave.smcp" horiz-adv-x="711" 
d="M428 752l62 -138h-15l-66 138h19zM472 0h-23l-12 259l-12 273h-1c-50 -93 -98 -182 -148 -273l-140 -259h-23l-29 548h16l14 -263c5 -89 9 -180 13 -268h1l146 270l142 261h23l12 -261l12 -270h1l147 268l144 263h18z" />
    <glyph glyph-name="x.smcp" horiz-adv-x="490" 
d="M264 281l152 -281h-18l-146 270h-1l-280 -270h-23l293 283l-145 265h18l139 -254h1l263 254h23z" />
    <glyph glyph-name="y.smcp" horiz-adv-x="471" 
d="M237 244l-61 -244h-16l61 244l-147 304h18l62 -130l76 -157h1l154 158l126 129h22z" />
    <glyph glyph-name="yacute.smcp" horiz-adv-x="471" 
d="M272 614h-19l126 138h23zM237 244l-61 -244h-16l61 244l-147 304h18l62 -130l76 -157h1l154 158l126 129h22z" />
    <glyph glyph-name="ycircumflex.smcp" horiz-adv-x="471" 
d="M428 614h-19l-75 123l-136 -123h-24l153 138h16zM237 244l-61 -244h-16l61 244l-147 304h18l62 -130l76 -157h1l154 158l126 129h22z" />
    <glyph glyph-name="ydieresis.smcp" horiz-adv-x="471" 
d="M232 675h-16l19 77h16zM416 675h-16l19 77h16zM237 244l-61 -244h-16l61 244l-147 304h18l62 -130l76 -157h1l154 158l126 129h22z" />
    <glyph glyph-name="ygrave.smcp" horiz-adv-x="471" 
d="M288 752l62 -138h-15l-66 138h19zM237 244l-61 -244h-16l61 244l-147 304h18l62 -130l76 -157h1l154 158l126 129h22z" />
    <glyph glyph-name="z.smcp" horiz-adv-x="451" 
d="M486 528l-509 -511v-1h400l-4 -16h-421l5 20l509 511v1h-378l4 16h399z" />
    <glyph glyph-name="zacute.smcp" horiz-adv-x="451" 
d="M260 614h-19l126 138h23zM486 528l-509 -511v-1h400l-4 -16h-421l5 20l509 511v1h-378l4 16h399z" />
    <glyph glyph-name="zcaron.smcp" horiz-adv-x="451" 
d="M297 614h-16l-85 138h19l75 -123l136 123h24zM486 528l-509 -511v-1h400l-4 -16h-421l5 20l509 511v1h-378l4 16h399z" />
    <glyph glyph-name="zdotaccent.smcp" horiz-adv-x="451" 
d="M312 675h-16l19 77h16zM486 528l-509 -511v-1h400l-4 -16h-421l5 20l509 511v1h-378l4 16h399z" />
    <glyph glyph-name="ccedilla.smcp.ss01" horiz-adv-x="553" 
d="M346 558c121 0 180 -71 180 -164c0 -11 -1 -23 -3 -34h-16c2 12 3 23 3 34c0 84 -52 148 -164 148c-188 0 -288 -194 -288 -334c0 -126 62 -202 176 -202c112 0 201 68 235 160h17c-37 -103 -132 -176 -252 -176c-123 0 -192 83 -192 218c0 149 107 350 304 350z
M100 -207h-24l163 158h20z" />
    <glyph glyph-name="scedilla.smcp.ss01" horiz-adv-x="483" 
d="M283 558c109 0 162 -45 162 -132c0 -15 -2 -33 -6 -52h-16c4 19 6 37 6 52c0 79 -46 116 -146 116c-117 0 -173 -75 -173 -134c0 -67 44 -93 128 -121c92 -31 150 -55 150 -141c0 -70 -63 -156 -205 -156c-109 0 -166 44 -166 138c0 16 2 35 7 55h16
c-5 -20 -7 -39 -7 -55c0 -85 50 -122 150 -122c133 0 189 79 189 140c0 77 -53 97 -140 126c-90 30 -138 61 -138 136c0 68 63 150 189 150zM43 -207h-24l163 158h20z" />
    <glyph glyph-name="tcedilla.smcp.ss01" horiz-adv-x="468" 
d="M532 532h-221l-132 -532h-16l132 532h-221l4 16h458zM32 -207h-24l163 158h20z" />
    <glyph glyph-name="ordfeminine" unicode="&#xaa;" horiz-adv-x="358" 
d="M268 693c67 0 111 -33 111 -102c0 -13 -2 -27 -7 -46l-34 -137c-6 -27 -12 -59 -13 -78h-16c1 19 7 48 15 77h-1c-30 -52 -78 -84 -146 -84c-65 0 -106 34 -106 89c0 50 31 98 142 114c39 6 97 12 142 15l2 8c4 16 6 30 6 42c0 60 -37 86 -95 86c-69 0 -113 -41 -126 -98
h-17c15 68 69 114 143 114zM339 476l12 49c-41 -3 -100 -10 -136 -15c-103 -15 -128 -56 -128 -97c0 -47 34 -74 91 -74c80 0 140 49 161 137z" />
    <glyph glyph-name="ordmasculine" unicode="&#xba;" horiz-adv-x="381" 
d="M280 693c86 0 133 -54 133 -144c0 -98 -63 -226 -187 -226c-85 0 -133 53 -133 143c0 98 63 227 187 227zM280 677c-115 0 -171 -122 -171 -211c0 -81 41 -127 117 -127c115 0 171 121 171 210c0 81 -40 128 -117 128z" />
    <glyph glyph-name="Delta" unicode="&#x394;" horiz-adv-x="633" 
d="M564 0h-621l477 712h22zM545 16l-62 364c-18 107 -36 214 -54 316h-1c-68 -102 -140 -209 -212 -316l-244 -364h573z" />
    <glyph glyph-name="Omega" unicode="&#x3a9;" horiz-adv-x="714" 
d="M446 722c153 0 252 -77 252 -235c0 -173 -107 -318 -296 -470v-1h206l-4 -16h-230l4 16c199 161 304 302 304 471c0 149 -92 219 -236 219c-230 0 -344 -203 -344 -380c0 -119 47 -215 108 -310l-4 -16h-222l4 16h204v1c-61 94 -106 191 -106 309c0 186 121 396 360 396z
" />
    <glyph glyph-name="mu" unicode="&#x3bc;" horiz-adv-x="547" 
d="M514 508l-99 -399c-7 -27 -10 -46 -10 -61c0 -26 11 -35 36 -35c9 0 16 1 25 4l-4 -17c-7 -2 -13 -3 -21 -3c-32 0 -52 15 -52 51c0 19 6 43 15 71h-1c-38 -79 -113 -129 -192 -129c-87 0 -138 43 -139 135h-1c-8 -42 -17 -83 -28 -125l-46 -185h-16l173 693h16l-75 -301
c-7 -29 -11 -55 -11 -77c0 -83 47 -124 127 -124c88 0 180 70 209 188l78 314h16z" />
    <glyph glyph-name="pi" unicode="&#x3c0;" horiz-adv-x="625" 
d="M664 492h-140l-88 -355c-6 -23 -8 -41 -8 -56c0 -53 25 -68 67 -68c9 0 19 1 27 4l-4 -17c-7 -2 -15 -3 -23 -3c-51 0 -83 22 -83 84c0 16 3 36 9 60l87 351h-300l-122 -492h-16l122 492h-118l4 16h590z" />
    <glyph glyph-name="zero.lf" horiz-adv-x="545" 
d="M361 684c108 0 161 -75 161 -221c0 -171 -93 -473 -298 -473c-107 0 -160 75 -160 221c0 171 93 473 297 473zM361 668c-194 0 -281 -297 -281 -457c0 -138 47 -205 144 -205c195 0 282 297 282 457c0 138 -46 205 -145 205z" />
    <glyph glyph-name="one.lf" horiz-adv-x="297" 
d="M114 0h-16l154 618h-1c-28 -50 -81 -72 -163 -72l4 16c94 0 142 30 174 112h16z" />
    <glyph glyph-name="two.lf" horiz-adv-x="527" 
d="M357 684c101 0 162 -62 162 -155c0 -104 -55 -167 -246 -251c-186 -82 -233 -158 -259 -262h399l-4 -16h-414c26 138 96 215 271 292c185 81 237 139 237 237c0 84 -53 139 -146 139c-105 0 -180 -67 -213 -174h-17c34 116 118 190 230 190z" />
    <glyph glyph-name="three.lf" horiz-adv-x="526" 
d="M332 684c112 0 181 -62 181 -155c0 -79 -60 -163 -179 -185v-1c70 -21 111 -67 111 -147c0 -92 -86 -206 -242 -206c-116 0 -177 57 -177 147c0 14 1 28 5 43h16c-4 -15 -5 -29 -5 -43c0 -80 54 -131 161 -131c147 0 226 106 226 190c0 90 -59 140 -160 140h-46l4 16h42
c162 0 228 102 228 177c0 84 -62 139 -165 139c-99 0 -177 -62 -204 -172h-16c29 119 114 188 220 188z" />
    <glyph glyph-name="four.lf" horiz-adv-x="504" 
d="M476 207h-139l-52 -207h-16l52 207h-318l5 20l420 447h25l-112 -451h139zM26 223h298l28 112l80 319h-1l-269 -286z" />
    <glyph glyph-name="five.lf" horiz-adv-x="520" 
d="M530 658h-314l-111 -318h1c40 55 101 91 178 91c107 0 166 -68 166 -180s-88 -261 -255 -261c-99 0 -158 50 -158 138c0 13 1 28 5 44h16c-4 -16 -5 -31 -5 -44c0 -79 52 -122 142 -122c158 0 239 142 239 245s-52 164 -150 164c-82 0 -152 -43 -199 -132l-15 1l136 390
h328z" />
    <glyph glyph-name="six.lf" horiz-adv-x="525" 
d="M374 684c104 0 155 -56 155 -147c0 -3 0 -9 -1 -17h-16c1 8 1 14 1 17c0 82 -44 131 -139 131c-118 0 -236 -122 -294 -379h2c34 80 119 146 216 146c105 0 167 -75 167 -194c0 -103 -86 -251 -240 -251c-112 0 -170 64 -170 189c0 184 113 505 319 505zM298 419
c-145 0 -227 -132 -227 -240c0 -116 51 -173 154 -173c145 0 224 141 224 235c0 110 -55 178 -151 178z" />
    <glyph glyph-name="seven.lf" horiz-adv-x="458" 
d="M546 674l-4 -16c-153 -166 -306 -359 -447 -658h-17c146 306 296 496 446 658h-409l4 16h427z" />
    <glyph glyph-name="eight.lf" horiz-adv-x="531" 
d="M356 684c102 0 167 -61 167 -155c0 -82 -64 -166 -177 -184v-1c63 -21 110 -73 110 -150c0 -89 -82 -204 -238 -204c-111 0 -182 65 -182 166c0 85 72 180 196 196v1c-58 17 -98 67 -98 137c0 85 80 194 222 194zM356 668c-133 0 -206 -102 -206 -178
c0 -80 55 -134 152 -134c140 0 205 97 205 173c0 85 -58 139 -151 139zM274 341c-141 0 -222 -101 -222 -185c0 -92 64 -150 166 -150c147 0 222 107 222 188c0 85 -65 147 -166 147z" />
    <glyph glyph-name="nine.lf" horiz-adv-x="525" 
d="M193 -10c-104 0 -155 56 -155 147c0 3 0 9 1 17h16c-1 -8 -1 -14 -1 -17c0 -82 44 -131 139 -131c118 0 236 122 294 379h-2c-34 -80 -119 -146 -216 -146c-105 0 -167 75 -167 194c0 103 86 251 240 251c112 0 170 -64 170 -189c0 -184 -113 -505 -319 -505zM269 255
c145 0 227 132 227 240c0 116 -51 173 -154 173c-145 0 -224 -141 -224 -235c0 -110 55 -178 151 -178z" />
    <glyph glyph-name="fraction" unicode="&#x2044;" horiz-adv-x="102" 
d="M-200 0h-18l562 674h18z" />
    <glyph glyph-name="onehalf" unicode="&#xbd;" horiz-adv-x="618" 
d="M-12 0h-18l562 674h18zM120 270h-16l89 357h-1c-19 -23 -51 -36 -99 -36l4 16c59 0 88 18 108 67h16zM483 411c65 0 104 -39 104 -96c0 -62 -37 -102 -151 -152c-112 -49 -140 -90 -154 -147h244l-4 -16h-260c15 85 58 130 168 178c108 48 141 81 141 137
c0 48 -32 80 -88 80c-60 0 -110 -40 -125 -100h-17c20 72 73 116 142 116z" />
    <glyph glyph-name="onequarter" unicode="&#xbc;" horiz-adv-x="584" 
d="M550 674l-562 -674h-18l562 674h18zM193 627h-1c-19 -23 -51 -36 -99 -36l4 16c59 0 88 18 108 67h16l-101 -404h-16zM461 137h84l-4 -16h-84l-30 -121h-16l30 121h-195l4 19l254 264h24zM268 137h177l16 65c15 61 30 120 46 182h-1c-52 -55 -105 -110 -157 -164z" />
    <glyph glyph-name="threequarters" unicode="&#xbe;" horiz-adv-x="723" 
d="M320 387c0 -57 -52 -123 -149 -123c-74 0 -113 36 -113 92c0 7 1 16 3 24h16c-2 -8 -3 -17 -3 -24c0 -48 34 -76 97 -76c88 0 133 57 133 107c0 52 -36 81 -98 81h-26l4 16h24c97 0 137 58 137 102c0 48 -36 79 -98 79c-60 0 -108 -35 -122 -99h-16c17 76 70 115 138 115
c71 0 114 -38 114 -95c0 -47 -35 -95 -107 -111v-1c42 -13 66 -40 66 -87zM689 674l-562 -674h-18l562 674h18zM600 137h84l-4 -16h-84l-30 -121h-16l30 121h-195l4 19l254 264h24zM407 137h177l16 65c15 61 30 120 46 182h-1c-52 -55 -105 -110 -157 -164z" />
    <glyph glyph-name="oneeighth" unicode="&#x215b;" horiz-adv-x="621" 
d="M-12 0h-18l562 674h18zM120 270h-16l89 357h-1c-19 -23 -51 -36 -99 -36l4 16c59 0 88 18 108 67h16zM483 411c65 0 107 -38 107 -95c0 -50 -37 -97 -105 -110v-1c39 -13 65 -44 65 -90c0 -54 -50 -121 -146 -121c-71 0 -117 40 -117 102c0 51 42 104 117 116v1
c-35 12 -59 41 -59 82c0 51 50 116 138 116zM483 395c-79 0 -121 -57 -121 -101c0 -46 33 -77 91 -77c83 0 121 55 121 98c0 49 -35 80 -91 80zM434 201c-84 0 -131 -57 -131 -105c0 -53 39 -86 101 -86c87 0 130 60 130 106c0 50 -39 85 -100 85z" />
    <glyph glyph-name="threeeighths" unicode="&#x215c;" horiz-adv-x="760" 
d="M247 681c71 0 114 -38 114 -95c0 -47 -35 -95 -107 -111v-1c42 -13 66 -40 66 -87c0 -57 -52 -123 -149 -123c-74 0 -113 36 -113 92c0 7 1 16 3 24h16c-2 -8 -3 -17 -3 -24c0 -48 34 -76 97 -76c88 0 133 57 133 107c0 52 -36 81 -98 81h-26l4 16h24
c97 0 137 58 137 102c0 48 -36 79 -98 79c-60 0 -108 -35 -122 -99h-16c17 76 70 115 138 115zM127 0h-18l562 674h18zM622 411c65 0 107 -38 107 -95c0 -50 -37 -97 -105 -110v-1c39 -13 65 -44 65 -90c0 -54 -50 -121 -146 -121c-71 0 -117 40 -117 102
c0 51 42 104 117 116v1c-35 12 -59 41 -59 82c0 51 50 116 138 116zM622 395c-79 0 -121 -57 -121 -101c0 -46 33 -77 91 -77c83 0 121 55 121 98c0 49 -35 80 -91 80zM573 201c-84 0 -131 -57 -131 -105c0 -53 39 -86 101 -86c87 0 130 60 130 106c0 50 -39 85 -100 85z
" />
    <glyph glyph-name="fiveeighths" unicode="&#x215d;" horiz-adv-x="757" 
d="M369 658h-193l-61 -175h1c22 28 58 47 101 47c67 0 107 -42 107 -110s-55 -156 -158 -156c-64 0 -102 32 -102 86c0 7 1 15 3 24h16c-2 -9 -3 -17 -3 -24c0 -45 31 -70 86 -70c94 0 142 81 142 140c0 58 -33 94 -91 94c-49 0 -91 -25 -118 -76l-15 1l82 235h207zM124 0
h-18l562 674h18zM619 411c65 0 107 -38 107 -95c0 -50 -37 -97 -105 -110v-1c39 -13 65 -44 65 -90c0 -54 -50 -121 -146 -121c-71 0 -117 40 -117 102c0 51 42 104 117 116v1c-35 12 -59 41 -59 82c0 51 50 116 138 116zM619 395c-79 0 -121 -57 -121 -101
c0 -46 33 -77 91 -77c83 0 121 55 121 98c0 49 -35 80 -91 80zM570 201c-84 0 -131 -57 -131 -105c0 -53 39 -86 101 -86c87 0 130 60 130 106c0 50 -39 85 -100 85z" />
    <glyph glyph-name="seveneighths" unicode="&#x215e;" horiz-adv-x="669" 
d="M36 0h-18l562 674h18zM380 674l-4 -15c-92 -98 -185 -216 -268 -389h-18c88 181 178 296 264 388h-245l4 16h267zM531 411c65 0 107 -38 107 -95c0 -50 -37 -97 -105 -110v-1c39 -13 65 -44 65 -90c0 -54 -50 -121 -146 -121c-71 0 -117 40 -117 102c0 51 42 104 117 116
v1c-35 12 -59 41 -59 82c0 51 50 116 138 116zM531 395c-79 0 -121 -57 -121 -101c0 -46 33 -77 91 -77c83 0 121 55 121 98c0 49 -35 80 -91 80zM482 201c-84 0 -131 -57 -131 -105c0 -53 39 -86 101 -86c87 0 130 60 130 106c0 50 -39 85 -100 85z" />
    <glyph glyph-name="zero.dnom" horiz-adv-x="338" 
d="M197 411c68 0 102 -47 102 -136c0 -103 -57 -281 -183 -281c-69 0 -103 46 -103 135c0 103 57 282 184 282zM197 395c-117 0 -168 -173 -168 -266c0 -80 27 -119 87 -119c115 0 167 172 167 265c0 80 -27 120 -86 120z" />
    <glyph glyph-name="one.dnom" horiz-adv-x="188" 
d="M53 0h-16l89 357h-1c-19 -23 -51 -36 -99 -36l4 16c59 0 88 18 108 67h16z" />
    <glyph glyph-name="two.dnom" horiz-adv-x="328" 
d="M193 411c65 0 104 -39 104 -96c0 -62 -37 -102 -151 -152c-112 -49 -140 -90 -154 -147h244l-4 -16h-260c15 85 58 130 168 178c108 48 141 81 141 137c0 48 -32 80 -88 80c-60 0 -110 -40 -125 -100h-17c20 72 73 116 142 116z" />
    <glyph glyph-name="three.dnom" horiz-adv-x="327" 
d="M180 411c71 0 114 -38 114 -95c0 -47 -35 -95 -107 -111v-1c42 -13 66 -40 66 -87c0 -57 -52 -123 -149 -123c-74 0 -113 36 -113 92c0 7 1 16 3 24h16c-2 -8 -3 -17 -3 -24c0 -48 34 -76 97 -76c88 0 133 57 133 107c0 52 -36 81 -98 81h-26l4 16h24
c97 0 137 58 137 102c0 48 -36 79 -98 79c-60 0 -108 -35 -122 -99h-16c17 76 70 115 138 115z" />
    <glyph glyph-name="four.dnom" horiz-adv-x="314" 
d="M271 121h-84l-30 -121h-16l30 121h-195l4 19l254 264h24l-67 -267h84zM-2 137h177l16 65c15 61 30 120 46 182h-1c-52 -55 -105 -110 -157 -164z" />
    <glyph glyph-name="five.dnom" horiz-adv-x="324" 
d="M302 388h-193l-61 -175h1c22 28 58 47 101 47c67 0 107 -42 107 -110s-55 -156 -158 -156c-64 0 -102 32 -102 86c0 7 1 15 3 24h16c-2 -9 -3 -17 -3 -24c0 -45 31 -70 86 -70c94 0 142 81 142 140c0 58 -33 94 -91 94c-49 0 -91 -25 -118 -76l-15 1l82 235h207z" />
    <glyph glyph-name="six.dnom" horiz-adv-x="327" 
d="M208 411c60 0 95 -35 95 -91v-10h-16v8c0 49 -29 77 -79 77c-76 0 -142 -68 -176 -211h1c23 44 72 78 127 78c66 0 105 -47 105 -118c0 -63 -52 -150 -148 -150c-70 0 -108 40 -108 118c0 110 65 299 199 299zM158 246c-86 0 -133 -73 -133 -134c0 -69 31 -102 92 -102
c87 0 132 80 132 134c0 62 -33 102 -91 102z" />
    <glyph glyph-name="seven.dnom" horiz-adv-x="286" 
d="M313 404l-4 -15c-92 -98 -185 -216 -268 -389h-18c88 181 178 296 264 388h-245l4 16h267z" />
    <glyph glyph-name="eight.dnom" horiz-adv-x="331" 
d="M193 411c65 0 107 -38 107 -95c0 -50 -37 -97 -105 -110v-1c39 -13 65 -44 65 -90c0 -54 -50 -121 -146 -121c-71 0 -117 40 -117 102c0 51 42 104 117 116v1c-35 12 -59 41 -59 82c0 51 50 116 138 116zM193 395c-79 0 -121 -57 -121 -101c0 -46 33 -77 91 -77
c83 0 121 55 121 98c0 49 -35 80 -91 80zM144 201c-84 0 -131 -57 -131 -105c0 -53 39 -86 101 -86c87 0 130 60 130 106c0 50 -39 85 -100 85z" />
    <glyph glyph-name="nine.dnom" horiz-adv-x="327" 
d="M93 -7c-60 0 -95 35 -95 91v10h16v-8c0 -49 29 -77 79 -77c76 0 142 68 176 211h-1c-23 -44 -72 -78 -127 -78c-66 0 -105 47 -105 118c0 63 52 150 148 150c70 0 108 -40 108 -118c0 -110 -65 -299 -199 -299zM143 158c86 0 133 73 133 134c0 69 -31 102 -92 102
c-87 0 -132 -80 -132 -134c0 -62 33 -102 91 -102z" />
    <glyph glyph-name="zero.numr" horiz-adv-x="338" 
d="M265 681c68 0 102 -47 102 -136c0 -103 -57 -281 -183 -281c-69 0 -103 46 -103 135c0 103 57 282 184 282zM265 665c-117 0 -168 -173 -168 -266c0 -80 27 -119 87 -119c115 0 167 172 167 265c0 80 -27 120 -86 120z" />
    <glyph glyph-name="one.numr" horiz-adv-x="188" 
d="M120 270h-16l89 357h-1c-19 -23 -51 -36 -99 -36l4 16c59 0 88 18 108 67h16z" />
    <glyph glyph-name="two.numr" horiz-adv-x="328" 
d="M260 681c65 0 104 -39 104 -96c0 -62 -37 -102 -151 -152c-112 -49 -140 -90 -154 -147h244l-4 -16h-260c15 85 58 130 168 178c108 48 141 81 141 137c0 48 -32 80 -88 80c-60 0 -110 -40 -125 -100h-17c20 72 73 116 142 116z" />
    <glyph glyph-name="three.numr" horiz-adv-x="327" 
d="M247 681c71 0 114 -38 114 -95c0 -47 -35 -95 -107 -111v-1c42 -13 66 -40 66 -87c0 -57 -52 -123 -149 -123c-74 0 -113 36 -113 92c0 7 1 16 3 24h16c-2 -8 -3 -17 -3 -24c0 -48 34 -76 97 -76c88 0 133 57 133 107c0 52 -36 81 -98 81h-26l4 16h24
c97 0 137 58 137 102c0 48 -36 79 -98 79c-60 0 -108 -35 -122 -99h-16c17 76 70 115 138 115z" />
    <glyph glyph-name="four.numr" horiz-adv-x="314" 
d="M339 391h-84l-30 -121h-16l30 121h-195l4 19l254 264h24l-67 -267h84zM66 407h177l16 65c15 61 30 120 46 182h-1c-52 -55 -105 -110 -157 -164z" />
    <glyph glyph-name="five.numr" horiz-adv-x="324" 
d="M369 658h-193l-61 -175h1c22 28 58 47 101 47c67 0 107 -42 107 -110s-55 -156 -158 -156c-64 0 -102 32 -102 86c0 7 1 15 3 24h16c-2 -9 -3 -17 -3 -24c0 -45 31 -70 86 -70c94 0 142 81 142 140c0 58 -33 94 -91 94c-49 0 -91 -25 -118 -76l-15 1l82 235h207z" />
    <glyph glyph-name="six.numr" horiz-adv-x="327" 
d="M275 681c60 0 95 -35 95 -91v-10h-16v8c0 49 -29 77 -79 77c-76 0 -142 -68 -176 -211h1c23 44 72 78 127 78c66 0 105 -47 105 -118c0 -63 -52 -150 -148 -150c-70 0 -108 40 -108 118c0 110 65 299 199 299zM225 516c-86 0 -133 -73 -133 -134c0 -69 31 -102 92 -102
c87 0 132 80 132 134c0 62 -33 102 -91 102z" />
    <glyph glyph-name="seven.numr" horiz-adv-x="286" 
d="M380 674l-4 -15c-92 -98 -185 -216 -268 -389h-18c88 181 178 296 264 388h-245l4 16h267z" />
    <glyph glyph-name="eight.numr" horiz-adv-x="331" 
d="M260 681c65 0 107 -38 107 -95c0 -50 -37 -97 -105 -110v-1c39 -13 65 -44 65 -90c0 -54 -50 -121 -146 -121c-71 0 -117 40 -117 102c0 51 42 104 117 116v1c-35 12 -59 41 -59 82c0 51 50 116 138 116zM260 665c-79 0 -121 -57 -121 -101c0 -46 33 -77 91 -77
c83 0 121 55 121 98c0 49 -35 80 -91 80zM211 471c-84 0 -131 -57 -131 -105c0 -53 39 -86 101 -86c87 0 130 60 130 106c0 50 -39 85 -100 85z" />
    <glyph glyph-name="nine.numr" horiz-adv-x="327" 
d="M160 263c-60 0 -95 35 -95 91v10h16v-8c0 -49 29 -77 79 -77c76 0 142 68 176 211h-1c-23 -44 -72 -78 -127 -78c-66 0 -105 47 -105 118c0 63 52 150 148 150c70 0 108 -40 108 -118c0 -110 -65 -299 -199 -299zM210 428c86 0 133 73 133 134c0 69 -31 102 -92 102
c-87 0 -132 -80 -132 -134c0 -62 33 -102 91 -102z" />
    <glyph glyph-name="zeroinferior" unicode="&#x2080;" horiz-adv-x="392" 
d="M196 307c80 0 118 -54 118 -157c0 -121 -66 -329 -213 -329c-78 0 -118 54 -118 157c0 121 66 329 213 329zM195 291c-135 0 -195 -203 -195 -313c0 -94 33 -142 101 -142c136 0 197 203 197 314c0 94 -32 141 -103 141z" />
    <glyph glyph-name="oneinferior" unicode="&#x2081;" horiz-adv-x="216" 
d="M26 -172h-16l106 424h-1c-22 -32 -60 -46 -116 -46l4 15c68 0 103 21 126 79h15z" />
    <glyph glyph-name="twoinferior" unicode="&#x2082;" horiz-adv-x="380" 
d="M194 307c73 0 119 -44 119 -111c0 -72 -42 -117 -176 -176c-132 -57 -165 -107 -183 -176h286l-4 -16h-301c18 98 68 152 196 207c128 56 165 95 165 160c0 59 -37 96 -102 96c-75 0 -127 -46 -150 -118h-17c24 83 85 134 167 134z" />
    <glyph glyph-name="threeinferior" unicode="&#x2083;" horiz-adv-x="379" 
d="M175 307c83 0 132 -44 132 -110c0 -55 -40 -112 -125 -129v-1c50 -15 78 -47 78 -102c0 -64 -61 -144 -174 -144c-85 0 -130 40 -130 105c0 9 1 19 4 30h16c-2 -10 -3 -20 -3 -29c0 -56 38 -90 113 -90c104 0 157 71 157 128c0 62 -41 96 -114 96h-31l4 16h29
c114 0 160 68 160 120c0 57 -43 94 -116 94c-69 0 -124 -42 -143 -117h-16c20 84 82 133 159 133z" />
    <glyph glyph-name="fourinferior" unicode="&#x2084;" horiz-adv-x="364" 
d="M282 -30h-97l-36 -142h-16l36 142h-230l5 20l298 310h25l-78 -314h97zM-38 -14h211l19 77l54 217h-1l-188 -195z" />
    <glyph glyph-name="fiveinferior" unicode="&#x2085;" horiz-adv-x="375" 
d="M319 284h-225l-74 -211h1c27 35 69 58 121 58c77 0 122 -49 122 -128s-63 -182 -182 -182c-74 0 -118 37 -118 99c0 9 1 19 4 29h16c-3 -10 -4 -20 -4 -29c0 -53 37 -83 102 -83c110 0 166 96 166 166s-38 112 -106 112c-58 0 -107 -30 -140 -90l-15 1l96 274h240z" />
    <glyph glyph-name="sixinferior" unicode="&#x2086;" horiz-adv-x="379" 
d="M204 307c77 0 115 -40 115 -105v-12h-17v11c0 57 -30 90 -97 90c-83 0 -165 -81 -204 -253h1c26 53 84 95 150 95c78 0 123 -53 123 -137c0 -72 -61 -175 -173 -175c-82 0 -125 46 -125 137c0 128 80 349 227 349zM151 117c-101 0 -158 -90 -158 -162
c0 -78 37 -118 109 -118c103 0 156 95 156 159c0 74 -39 121 -107 121z" />
    <glyph glyph-name="seveninferior" unicode="&#x2087;" horiz-adv-x="331" 
d="M331 300l-4 -16c-109 -115 -216 -251 -315 -456h-18c103 212 208 346 312 456h-289l4 16h310z" />
    <glyph glyph-name="eightinferior" unicode="&#x2088;" horiz-adv-x="383" 
d="M192 307c74 0 123 -44 123 -110c0 -58 -45 -114 -125 -128v-1c46 -16 78 -52 78 -105c0 -63 -59 -142 -170 -142c-83 0 -134 46 -134 118c0 60 48 123 137 136v1c-42 13 -70 48 -70 96c0 59 58 135 161 135zM192 291c-94 0 -144 -68 -144 -120c0 -55 39 -92 109 -92
c97 0 142 66 142 118c0 57 -42 94 -107 94zM135 64c-100 0 -155 -68 -155 -125c0 -63 45 -102 118 -102c102 0 154 72 154 127c0 58 -46 100 -117 100z" />
    <glyph glyph-name="nineinferior" unicode="&#x2089;" horiz-adv-x="380" 
d="M81 -179c-77 0 -115 40 -115 105v12h17v-11c0 -57 30 -90 97 -90c83 0 165 81 204 253h-1c-26 -53 -84 -95 -150 -95c-78 0 -123 53 -123 137c0 72 61 175 173 175c82 0 125 -46 125 -137c0 -128 -80 -349 -227 -349zM134 11c101 0 158 90 158 162c0 78 -37 118 -109 118
c-103 0 -156 -95 -156 -159c0 -74 39 -121 107 -121z" />
    <glyph glyph-name="zerosuperior" unicode="&#x2070;" horiz-adv-x="392" 
d="M321 809c80 0 118 -54 118 -157c0 -121 -66 -329 -213 -329c-78 0 -118 54 -118 157c0 121 66 329 213 329zM320 793c-135 0 -195 -203 -195 -313c0 -94 33 -142 101 -142c136 0 197 203 197 314c0 94 -32 141 -103 141z" />
    <glyph glyph-name="onesuperior" unicode="&#xb9;" horiz-adv-x="216" 
d="M151 330h-16l106 424h-1c-22 -32 -60 -46 -116 -46l4 15c68 0 103 21 126 79h15z" />
    <glyph glyph-name="twosuperior" unicode="&#xb2;" horiz-adv-x="380" 
d="M319 809c73 0 119 -44 119 -111c0 -72 -42 -117 -176 -176c-132 -57 -165 -107 -183 -176h286l-4 -16h-301c18 98 68 152 196 207c128 56 165 95 165 160c0 59 -37 96 -102 96c-75 0 -127 -46 -150 -118h-17c24 83 85 134 167 134z" />
    <glyph glyph-name="threesuperior" unicode="&#xb3;" horiz-adv-x="378" 
d="M300 809c83 0 132 -44 132 -110c0 -55 -40 -112 -125 -129v-1c50 -15 78 -47 78 -102c0 -64 -61 -144 -174 -144c-85 0 -130 40 -130 105c0 9 1 19 4 30h16c-2 -10 -3 -20 -3 -29c0 -56 38 -90 113 -90c104 0 157 71 157 128c0 62 -41 96 -114 96h-31l4 16h29
c114 0 160 68 160 120c0 57 -43 94 -116 94c-69 0 -124 -42 -143 -117h-16c20 84 82 133 159 133z" />
    <glyph glyph-name="foursuperior" unicode="&#x2074;" horiz-adv-x="365" 
d="M408 472h-97l-36 -142h-16l36 142h-230l5 20l298 310h25l-78 -314h97zM88 488h211l19 77l54 217h-1l-188 -195z" />
    <glyph glyph-name="fivesuperior" unicode="&#x2075;" horiz-adv-x="376" 
d="M445 786h-225l-74 -211h1c27 35 69 58 121 58c77 0 122 -49 122 -128s-63 -182 -182 -182c-74 0 -118 37 -118 99c0 9 1 19 4 29h16c-3 -10 -4 -20 -4 -29c0 -53 37 -83 102 -83c110 0 166 96 166 166s-38 112 -106 112c-58 0 -107 -30 -140 -90l-15 1l96 274h240z" />
    <glyph glyph-name="sixsuperior" unicode="&#x2076;" horiz-adv-x="380" 
d="M330 809c77 0 115 -40 115 -105v-12h-17v11c0 57 -30 90 -97 90c-83 0 -165 -81 -204 -253h1c26 53 84 95 150 95c78 0 123 -53 123 -137c0 -72 -61 -175 -173 -175c-82 0 -125 46 -125 137c0 128 80 349 227 349zM277 619c-101 0 -158 -90 -158 -162
c0 -78 37 -118 109 -118c103 0 156 95 156 159c0 74 -39 121 -107 121z" />
    <glyph glyph-name="sevensuperior" unicode="&#x2077;" horiz-adv-x="332" 
d="M457 802l-4 -16c-109 -115 -216 -251 -315 -456h-18c103 212 208 346 312 456h-289l4 16h310z" />
    <glyph glyph-name="eightsuperior" unicode="&#x2078;" horiz-adv-x="382" 
d="M317 809c74 0 123 -44 123 -110c0 -58 -45 -114 -125 -128v-1c46 -16 78 -52 78 -105c0 -63 -59 -142 -170 -142c-83 0 -134 46 -134 118c0 60 48 123 137 136v1c-42 13 -70 48 -70 96c0 59 58 135 161 135zM317 793c-94 0 -144 -68 -144 -120c0 -55 39 -92 109 -92
c97 0 142 66 142 118c0 57 -42 94 -107 94zM260 566c-100 0 -155 -68 -155 -125c0 -63 45 -102 118 -102c102 0 154 72 154 127c0 58 -46 100 -117 100z" />
    <glyph glyph-name="ninesuperior" unicode="&#x2079;" horiz-adv-x="380" 
d="M206 323c-77 0 -115 40 -115 105v12h17v-11c0 -57 30 -90 97 -90c83 0 165 81 204 253h-1c-26 -53 -84 -95 -150 -95c-78 0 -123 53 -123 137c0 72 61 175 173 175c82 0 125 -46 125 -137c0 -128 -80 -349 -227 -349zM259 513c101 0 158 90 158 162
c0 78 -37 118 -109 118c-103 0 -156 -95 -156 -159c0 -74 39 -121 107 -121z" />
    <glyph glyph-name="zero.smcp" horiz-adv-x="438" 
d="M278 556c92 0 138 -62 138 -182c0 -140 -77 -382 -248 -382c-92 0 -136 62 -136 182c0 140 76 382 246 382zM278 540c-160 0 -230 -237 -230 -366c0 -111 39 -166 120 -166c161 0 231 237 231 365c0 112 -38 167 -121 167z" />
    <glyph glyph-name="one.smcp" horiz-adv-x="438" 
d="M175 0h-16l123 494h-1c-25 -36 -69 -53 -135 -53l4 16c78 -1 120 24 145 91h16z" />
    <glyph glyph-name="two.smcp" horiz-adv-x="438" 
d="M280 556c86 0 138 -51 138 -128c0 -84 -47 -135 -205 -203c-154 -66 -193 -127 -214 -209h334l-4 -16h-349c21 113 79 176 226 239c152 65 196 111 196 189c0 68 -45 112 -122 112c-87 0 -149 -53 -175 -139h-18c28 95 99 155 193 155z" />
    <glyph glyph-name="three.smcp" horiz-adv-x="438" 
d="M264 556c95 0 154 -51 154 -127c0 -64 -49 -131 -148 -150v-1c59 -17 93 -55 93 -119c0 -75 -71 -167 -202 -167c-99 0 -151 47 -151 121c0 11 1 23 4 34h16c-3 -11 -4 -22 -4 -33c0 -66 45 -106 135 -106c122 0 186 85 186 151c0 72 -50 112 -135 112h-37l4 16h34
c134 0 189 82 189 142c0 67 -52 111 -138 111c-82 0 -146 -49 -168 -138h-16c23 98 95 154 184 154z" />
    <glyph glyph-name="four.smcp" horiz-adv-x="438" 
d="M395 167h-116l-42 -167h-16l42 167h-267l5 19l348 362h25l-91 -365h115zM19 183h248l22 90c21 86 42 169 64 255h-1l-221 -229z" />
    <glyph glyph-name="five.smcp" horiz-adv-x="438" 
d="M432 532h-263l-89 -252h1c32 43 83 71 146 71c91 0 141 -56 141 -148c0 -91 -73 -211 -213 -211c-84 0 -135 41 -135 114c0 10 1 22 4 34h16c-3 -12 -4 -24 -4 -34c0 -64 44 -98 119 -98c130 0 197 113 197 195c0 83 -44 132 -126 132c-68 0 -126 -34 -164 -106l-15 1
l111 318h278z" />
    <glyph glyph-name="six.smcp" horiz-adv-x="438" 
d="M297 556c89 0 132 -46 132 -121c0 -3 0 -8 -1 -13h-16c1 5 1 10 1 12c0 67 -37 106 -116 106c-98 0 -195 -96 -241 -300h1c29 63 99 114 178 114c89 0 141 -62 141 -159c0 -84 -71 -203 -200 -203c-95 0 -144 53 -144 157c0 150 93 407 265 407zM235 338
c-120 0 -187 -105 -187 -191c0 -93 42 -139 128 -139c120 0 184 112 184 187c0 88 -45 143 -125 143z" />
    <glyph glyph-name="seven.smcp" horiz-adv-x="438" 
d="M467 548l-4 -16c-126 -134 -252 -292 -367 -532h-19c119 247 243 402 365 532h-339l4 16h360z" />
    <glyph glyph-name="eight.smcp" horiz-adv-x="438" 
d="M280 556c87 0 143 -50 143 -127c0 -67 -53 -133 -146 -149v-1c53 -17 91 -60 91 -122c0 -77 -68 -165 -198 -165c-95 0 -156 53 -156 136c0 69 59 144 162 158v1c-48 15 -82 56 -82 112c0 73 67 157 186 157zM280 540c-110 0 -170 -76 -170 -141s46 -108 127 -108
c116 0 169 77 169 138c0 68 -48 111 -126 111zM213 276c-116 0 -183 -81 -183 -148c0 -74 54 -120 140 -120c121 0 182 81 182 149c0 69 -54 119 -139 119z" />
    <glyph glyph-name="nine.smcp" horiz-adv-x="438" 
d="M151 -8c-89 0 -132 46 -132 121c0 3 0 8 1 13h16c-1 -5 -1 -10 -1 -12c0 -67 37 -106 116 -106c98 0 195 96 241 300h-1c-29 -63 -99 -114 -178 -114c-89 0 -141 62 -141 159c0 84 71 203 200 203c95 0 144 -53 144 -157c0 -150 -93 -407 -265 -407zM213 210
c120 0 187 105 187 191c0 93 -42 139 -128 139c-120 0 -184 -112 -184 -187c0 -88 45 -143 125 -143z" />
    <glyph glyph-name="zero.lf.smcp" horiz-adv-x="465" 
d="M291 556c92 0 138 -62 138 -182c0 -140 -77 -382 -248 -382c-92 0 -136 62 -136 182c0 140 76 382 246 382zM291 540c-160 0 -230 -237 -230 -366c0 -111 39 -166 120 -166c161 0 231 237 231 365c0 112 -38 167 -121 167z" />
    <glyph glyph-name="one.lf.smcp" horiz-adv-x="260" 
d="M89 0h-16l123 494h-1c-25 -36 -69 -53 -135 -53l4 16c78 -1 120 24 145 91h16z" />
    <glyph glyph-name="two.lf.smcp" horiz-adv-x="451" 
d="M289 556c86 0 138 -51 138 -128c0 -84 -47 -135 -205 -203c-154 -66 -193 -127 -214 -209h334l-4 -16h-349c21 113 79 176 226 239c152 65 196 111 196 189c0 68 -45 112 -122 112c-87 0 -149 -53 -175 -139h-18c28 95 99 155 193 155z" />
    <glyph glyph-name="three.lf.smcp" horiz-adv-x="450" 
d="M268 556c95 0 154 -51 154 -127c0 -64 -49 -131 -148 -150v-1c59 -17 93 -55 93 -119c0 -75 -71 -167 -202 -167c-99 0 -151 47 -151 121c0 11 1 23 4 34h16c-3 -11 -4 -22 -4 -33c0 -66 45 -106 135 -106c122 0 186 85 186 151c0 72 -50 112 -135 112h-37l4 16h34
c134 0 189 82 189 142c0 67 -52 111 -138 111c-82 0 -146 -49 -168 -138h-16c23 98 95 154 184 154z" />
    <glyph glyph-name="four.lf.smcp" horiz-adv-x="427" 
d="M391 167h-116l-42 -167h-16l42 167h-267l5 19l348 362h25l-91 -365h115zM15 183h248l22 90c21 86 42 169 64 255h-1l-221 -229z" />
    <glyph glyph-name="five.lf.smcp" horiz-adv-x="446" 
d="M436 532h-263l-89 -252h1c32 43 83 71 146 71c91 0 141 -56 141 -148c0 -91 -73 -211 -213 -211c-84 0 -135 41 -135 114c0 10 1 22 4 34h16c-3 -12 -4 -24 -4 -34c0 -64 44 -98 119 -98c130 0 197 113 197 195c0 83 -44 132 -126 132c-68 0 -126 -34 -164 -106l-15 1
l111 318h278z" />
    <glyph glyph-name="six.lf.smcp" horiz-adv-x="447" 
d="M303 556c89 0 132 -46 132 -121c0 -3 0 -8 -1 -13h-16c1 5 1 10 1 12c0 67 -37 106 -116 106c-98 0 -195 -96 -241 -300h1c29 63 99 114 178 114c89 0 141 -62 141 -159c0 -84 -71 -203 -200 -203c-95 0 -144 53 -144 157c0 150 93 407 265 407zM241 338
c-120 0 -187 -105 -187 -191c0 -93 42 -139 128 -139c120 0 184 112 184 187c0 88 -45 143 -125 143z" />
    <glyph glyph-name="seven.lf.smcp" horiz-adv-x="388" 
d="M446 548l-4 -16c-126 -134 -252 -292 -367 -532h-19c119 247 243 402 365 532h-339l4 16h360z" />
    <glyph glyph-name="eight.lf.smcp" horiz-adv-x="455" 
d="M289 556c87 0 143 -50 143 -127c0 -67 -53 -133 -146 -149v-1c53 -17 91 -60 91 -122c0 -77 -68 -165 -198 -165c-95 0 -156 53 -156 136c0 69 59 144 162 158v1c-48 15 -82 56 -82 112c0 73 67 157 186 157zM289 540c-110 0 -170 -76 -170 -141s46 -108 127 -108
c116 0 169 77 169 138c0 68 -48 111 -126 111zM222 276c-116 0 -183 -81 -183 -148c0 -74 54 -120 140 -120c121 0 182 81 182 149c0 69 -54 119 -139 119z" />
    <glyph glyph-name="nine.lf.smcp" horiz-adv-x="447" 
d="M154 -8c-89 0 -132 46 -132 121c0 3 0 8 1 13h16c-1 -5 -1 -10 -1 -12c0 -67 37 -106 116 -106c98 0 195 96 241 300h-1c-29 -63 -99 -114 -178 -114c-89 0 -141 62 -141 159c0 84 71 203 200 203c95 0 144 -53 144 -157c0 -150 -93 -407 -265 -407zM216 210
c120 0 187 105 187 191c0 93 -42 139 -128 139c-120 0 -184 -112 -184 -187c0 -88 45 -143 125 -143z" />
    <glyph glyph-name="periodcentered" unicode="&#xb7;" horiz-adv-x="136" 
d="M81 270h-18l18 72h18z" />
    <glyph glyph-name="bullet" unicode="&#x2022;" horiz-adv-x="300" 
d="M150 266c-49 0 -90 40 -90 90c0 49 41 90 90 90c50 0 90 -41 90 -90c0 -50 -40 -90 -90 -90z" />
    <glyph glyph-name="ellipsis" unicode="&#x2026;" horiz-adv-x="476" 
d="M14 0h-18l18 72h18zM184 0h-18l18 72h18zM354 0h-18l18 72h18z" />
    <glyph glyph-name="exclamdown" unicode="&#xa1;" horiz-adv-x="202" 
d="M155 508h18l-17 -69h-18zM125 372h10l-139 -576h-18z" />
    <glyph glyph-name="overline" unicode="&#x203e;" 
d="M637 802h-500l4 16h500z" />
    <glyph glyph-name="questiondown" unicode="&#xbf;" horiz-adv-x="432" 
d="M313 508h18l-17 -69h-18zM136 -214c-103 0 -168 62 -168 153c0 75 32 128 160 216c95 65 123 97 153 216h13c-30 -126 -51 -155 -158 -229c-124 -86 -152 -135 -152 -203c0 -82 58 -137 152 -137c98 0 176 62 209 173h17c-36 -122 -120 -189 -226 -189z" />
    <glyph glyph-name="underscoredbl" unicode="&#x2017;" 
d="M420 -66h-500l4 16h500zM390 -186h-500l4 16h500z" />
    <glyph glyph-name="periodcentered.case" horiz-adv-x="136" 
d="M94 320h-18l18 72h18z" />
    <glyph glyph-name="exclamdown.case" horiz-adv-x="202" 
d="M206 712h18l-17 -69h-18zM176 576h10l-139 -576h-18z" />
    <glyph glyph-name="periodcentered.loclCAT.case" horiz-adv-x="80" 
d="M-75 355h-18l18 72h18z" />
    <glyph glyph-name="questiondown.case" horiz-adv-x="468" 
d="M364 712h18l-17 -69h-18zM187 -10c-103 0 -168 62 -168 153c0 75 32 128 160 216c95 65 123 97 153 216h13c-30 -126 -51 -155 -158 -229c-124 -86 -152 -135 -152 -203c0 -82 58 -137 152 -137c98 0 176 62 209 173h17c-36 -122 -120 -189 -226 -189z" />
    <glyph glyph-name="slash.case" horiz-adv-x="395" 
d="M18 0h-19l428 712h19z" />
    <glyph glyph-name="periodcentered.loclCAT" horiz-adv-x="124" 
d="M86 318h-18l18 72h18z" />
    <glyph glyph-name="parenleftinferior" unicode="&#x208d;" horiz-adv-x="168" 
d="M151 347h19c-125 -136 -183 -298 -183 -433c0 -67 10 -127 28 -189h-15c-19 60 -29 120 -29 189c0 138 57 300 180 433z" />
    <glyph glyph-name="parenleftsuperior" unicode="&#x207d;" horiz-adv-x="168" 
d="M276 849h19c-125 -136 -183 -298 -183 -433c0 -67 10 -127 28 -189h-15c-19 60 -29 120 -29 189c0 138 57 300 180 433z" />
    <glyph glyph-name="parenrightinferior" unicode="&#x208e;" horiz-adv-x="168" 
d="M-92 -275h-19c125 136 183 298 183 433c0 67 -10 127 -28 189h15c19 -60 29 -120 29 -189c0 -138 -57 -300 -180 -433z" />
    <glyph glyph-name="parenrightsuperior" unicode="&#x207e;" horiz-adv-x="168" 
d="M34 227h-19c125 136 183 298 183 433c0 67 -10 127 -28 189h15c19 -60 29 -120 29 -189c0 -138 -57 -300 -180 -433z" />
    <glyph glyph-name="braceleft.case" horiz-adv-x="279" 
d="M388 772l-4 -16c-93 0 -142 -36 -164 -125l-40 -162c-16 -60 -41 -91 -100 -109l-1 -2c34 -17 48 -41 48 -81c0 -14 -2 -31 -7 -50l-33 -131c-5 -20 -8 -38 -8 -54c0 -60 33 -87 106 -87l-4 -16h-2c-77 0 -116 32 -116 103c0 16 3 36 9 58l33 131c4 18 6 33 6 46
c0 38 -14 57 -47 72l5 22c56 17 80 41 96 102l40 162c24 95 82 137 179 137h4z" />
    <glyph glyph-name="braceright.case" horiz-adv-x="279" 
d="M-58 -60l4 16c93 0 142 36 164 125l40 162c16 60 41 91 100 109l1 2c-34 17 -48 41 -48 81c0 14 2 31 7 50l33 131c5 20 8 38 8 54c0 60 -33 87 -106 87l4 16h2c77 0 116 -32 116 -103c0 -16 -3 -36 -9 -58l-33 -131c-4 -18 -6 -33 -6 -46c0 -38 14 -57 47 -72l-5 -22
c-56 -17 -80 -41 -96 -102l-40 -162c-24 -95 -82 -137 -179 -137h-4z" />
    <glyph glyph-name="bracketleft.case" horiz-adv-x="238" 
d="M343 755h-122l-199 -799h122l-4 -16h-138l207 831h138z" />
    <glyph glyph-name="bracketright.case" horiz-adv-x="238" 
d="M-54 -44h122l199 799h-122l4 16h138l-207 -831h-138z" />
    <glyph glyph-name="parenleft.case" horiz-adv-x="231" 
d="M308 772h20c-169 -176 -247 -391 -247 -570c0 -91 15 -174 40 -262h-16c-25 87 -40 169 -40 263c0 182 77 396 243 569z" />
    <glyph glyph-name="parenright.case" horiz-adv-x="231" 
d="M-26 -60h-20c169 176 247 391 247 570c0 91 -15 174 -40 262h16c25 -87 40 -169 40 -263c0 -182 -77 -396 -243 -569z" />
    <glyph glyph-name="bracketleft.sups" horiz-adv-x="171" 
d="M301 833h-85l-147 -590h85l-4 -16h-101l155 622h101z" />
    <glyph glyph-name="bracketright.sups" horiz-adv-x="171" 
d="M110 227h-101l4 16h85l147 590h-85l4 16h101z" />
    <glyph glyph-name="emdash" unicode="&#x2014;" horiz-adv-x="1000" 
d="M987 284h-960l4 16h960z" />
    <glyph glyph-name="endash" unicode="&#x2013;" 
d="M487 284h-460l4 16h460z" />
    <glyph glyph-name="horizontalbar" unicode="&#x2015;" horiz-adv-x="1000" 
d="M924 284h-960l4 16h960z" />
    <glyph glyph-name="hyphentwo" unicode="&#x2010;" horiz-adv-x="274" 
d="M251 284h-214l4 16h214z" />
    <glyph glyph-name="softhyphen" unicode="&#xad;" horiz-adv-x="274" 
d="M251 284h-214l4 16h214z" />
    <glyph glyph-name="emdash.case" horiz-adv-x="1000" 
d="M1003 348h-960l4 16h960z" />
    <glyph glyph-name="endash.case" 
d="M503 348h-460l4 16h460z" />
    <glyph glyph-name="hyphen.case" horiz-adv-x="274" 
d="M267 348h-214l4 16h214z" />
    <glyph glyph-name="guillemetleft" unicode="&#xab;" horiz-adv-x="360" 
d="M73 251l64 -197h-17l-65 200l162 200h20zM191 251l64 -197h-17l-65 200l162 200h20z" />
    <glyph glyph-name="guillemetright" unicode="&#xbb;" horiz-adv-x="360" 
d="M169 257l-64 197h17l65 -200l-162 -200h-20zM287 257l-64 197h17l65 -200l-162 -200h-20z" />
    <glyph glyph-name="guilsinglleft" unicode="&#x2039;" horiz-adv-x="242" 
d="M73 251l64 -197h-17l-65 200l162 200h20z" />
    <glyph glyph-name="guilsinglright" unicode="&#x203a;" horiz-adv-x="242" 
d="M169 257l-64 197h17l65 -200l-162 -200h-20z" />
    <glyph glyph-name="quotedblbase" unicode="&#x201e;" horiz-adv-x="258" 
d="M28 -17l-66 -127h-14l64 127l18 71h16zM130 -17l-66 -127h-14l64 127l18 71h16z" />
    <glyph glyph-name="quotedblleft" unicode="&#x201c;" horiz-adv-x="258" 
d="M143 585l66 127h14l-64 -127l-18 -71h-16zM245 585l66 127h14l-64 -127l-18 -71h-16z" />
    <glyph glyph-name="quotedblright" unicode="&#x201d;" horiz-adv-x="258" 
d="M192 641l-66 -127h-14l64 127l18 71h16zM294 641l-66 -127h-14l64 127l18 71h16z" />
    <glyph glyph-name="quoteleft" unicode="&#x2018;" horiz-adv-x="156" 
d="M143 585l66 127h14l-64 -127l-18 -71h-16z" />
    <glyph glyph-name="quoteright" unicode="&#x2019;" horiz-adv-x="156" 
d="M192 641l-66 -127h-14l64 127l18 71h16z" />
    <glyph glyph-name="quotesinglbase" unicode="&#x201a;" horiz-adv-x="156" 
d="M28 -17l-66 -127h-14l64 127l18 71h16z" />
    <glyph glyph-name="guillemetleft.case" horiz-adv-x="360" 
d="M98 353l64 -197h-17l-65 200l162 200h20zM216 353l64 -197h-17l-65 200l162 200h20z" />
    <glyph glyph-name="guillemetright.case" horiz-adv-x="359" 
d="M194 359l-64 197h17l65 -200l-162 -200h-20zM312 359l-64 197h17l65 -200l-162 -200h-20z" />
    <glyph glyph-name="guilsinglleft.case" horiz-adv-x="242" 
d="M98 353l64 -197h-17l-65 200l162 200h20z" />
    <glyph glyph-name="guilsinglright.case" horiz-adv-x="241" 
d="M194 359l-64 197h17l65 -200l-162 -200h-20z" />
    <glyph glyph-name="quoteright.loclFRA" horiz-adv-x="205" 
d="M217 641l-66 -127h-14l64 127l18 71h16z" />
    <glyph glyph-name="periodcentered.loclCAT.smcp" horiz-adv-x="60" 
d="M-75 270h-18l18 72h18z" />
    <glyph glyph-name="nbspace" unicode="&#xa0;" horiz-adv-x="230" 
 />
    <glyph glyph-name="cent" unicode="&#xa2;" 
d="M377 684l-22 -88c84 -11 134 -73 134 -166c0 -4 0 -9 -1 -15h-16c1 6 1 11 1 15c0 85 -45 141 -122 150l-123 -495h6c91 0 169 60 200 151h17c-33 -101 -119 -167 -217 -167h-10l-22 -87h-16l22 88c-95 11 -145 79 -145 188c0 144 92 339 267 339h9l22 87h16zM335 581h-5
c-166 0 -251 -188 -251 -323c0 -102 45 -163 133 -172z" />
    <glyph glyph-name="currency" unicode="&#xa4;" 
d="M448 291c0 -61 -19 -112 -52 -148l79 -83l-12 -11l-78 83c-34 -31 -80 -49 -135 -49s-101 18 -135 49l-78 -83l-12 11l79 83c-33 36 -52 87 -52 148s19 112 52 148l-79 83l12 11l78 -83c34 31 80 49 135 49s101 -18 135 -49l78 83l12 -11l-79 -83c33 -36 52 -87 52 -148z
M250 99c110 0 182 76 182 192s-72 192 -182 192s-182 -76 -182 -192s72 -192 182 -192z" />
    <glyph glyph-name="euro" unicode="&#x20ac;" 
d="M371 684c108 0 163 -59 163 -172c0 -12 -1 -25 -2 -37h-16c1 12 2 25 2 37c0 104 -48 156 -147 156c-148 0 -235 -139 -274 -278h285l-7 -16h-282c-7 -27 -12 -54 -16 -80h264l-7 -16h-259c-2 -21 -3 -41 -3 -59c0 -143 50 -213 156 -213c103 0 176 61 221 179h16
c-48 -129 -129 -195 -237 -195c-115 0 -172 78 -172 229c0 18 1 38 3 59h-52l7 16h47c4 26 9 53 16 80h-46l7 16h43c41 147 133 294 290 294z" />
    <glyph glyph-name="florin" unicode="&#x192;" 
d="M562 713c8 0 18 -1 25 -3l-4 -16c-6 2 -15 3 -21 3c-66 0 -96 -32 -146 -130l-51 -99h99l-4 -16h-103l-240 -478c-63 -125 -109 -160 -176 -160c-8 0 -18 1 -23 2l4 16c4 -1 13 -2 19 -2c60 0 101 30 162 152l236 470h-100l4 16h104l53 103c54 105 91 142 162 142z" />
    <glyph glyph-name="franc" unicode="&#x20a3;" 
d="M222 658l-69 -278h325l-4 -16h-325l-46 -185h183l-4 -16h-183l-41 -163h-16l41 163h-74l4 16h74l123 495h360l-4 -16h-344z" />
    <glyph glyph-name="lira" unicode="&#x20a4;" 
d="M387 684c90 0 138 -50 138 -137c0 -17 -2 -36 -7 -57h-16c5 21 7 40 7 57c0 78 -41 121 -122 121c-84 0 -147 -56 -174 -162l-43 -174h135l-4 -16h-135l-40 -158c-24 -94 -69 -132 -110 -144v-1c42 3 91 3 131 3h254l-4 -16h-436l4 16c70 0 122 49 146 146l39 154h-111
l4 16h111l44 178c28 114 98 174 189 174z" />
    <glyph glyph-name="liraTurkish" unicode="&#x20ba;" 
d="M464 308h16c-40 -205 -185 -310 -400 -310h-20l86 343l-113 -54l5 20l113 54l27 110l-113 -54l5 20l113 54l46 183h16l-44 -176l193 92l-5 -20l-193 -92l-28 -110l193 92l-5 -20l-193 -92l-83 -334c205 0 347 100 384 294z" />
    <glyph glyph-name="peseta" unicode="&#x20a7;" horiz-adv-x="745" 
d="M662 492l-95 -378c-5 -20 -7 -36 -7 -49c0 -36 18 -51 58 -51c11 0 27 2 36 4l-4 -17c-8 -2 -22 -3 -32 -3c-49 0 -74 22 -74 67c0 15 2 30 8 53l94 374h-93c-7 -89 -80 -194 -235 -194h-187l-73 -298h-16l167 674h155c130 0 188 -67 189 -166h97l29 117h16l-29 -117h105
l-4 -16h-105zM135 314h183c153 0 219 109 219 191c0 92 -52 153 -173 153h-143z" />
    <glyph glyph-name="ruble" unicode="&#x20bd;" 
d="M199 674h152c124 0 179 -64 179 -159c0 -87 -68 -198 -223 -198h-181l-28 -111h214l-4 -16h-214l-47 -190h-16l47 190h-83l4 16h83l28 111h-83l4 16h83zM211 658l-81 -325h177c146 1 207 104 207 182c0 86 -48 143 -163 143h-140z" />
    <glyph glyph-name="rupeeIndian" unicode="&#x20b9;" 
d="M568 658h-116c-41 0 -90 0 -131 3v-1c65 -16 99 -58 104 -116h120l-10 -16h-109v-2c0 -84 -76 -179 -242 -189v-1c54 -19 81 -60 100 -138l49 -198h-16l-47 190c-25 100 -64 142 -138 142h-24l4 16h30c191 0 268 100 268 178v2h-315l10 16h304c-8 77 -67 114 -170 114
h-111l10 16h440z" />
    <glyph glyph-name="sterling" unicode="&#xa3;" 
d="M387 684c90 0 138 -50 138 -137c0 -17 -2 -36 -7 -57h-16c5 21 7 40 7 57c0 78 -41 121 -122 121c-84 0 -147 -56 -174 -162l-43 -174h135l-4 -16h-135l-40 -158c-24 -94 -69 -132 -110 -144v-1c42 3 91 3 131 3h254l-4 -16h-436l4 16c70 0 122 49 146 146l39 154h-111
l4 16h111l44 178c28 114 98 174 189 174z" />
    <glyph glyph-name="yen" unicode="&#xa5;" 
d="M291 344h179l-4 -16h-190l-22 -90h190l-4 -16h-190l-55 -222h-16l55 222h-190l4 16h190l22 90h-190l4 16h179l-143 330h17l54 -123l89 -206h1l196 210l112 119h21z" />
    <glyph glyph-name="Ohm" unicode="&#x2126;" horiz-adv-x="714" 
d="M446 722c153 0 252 -77 252 -235c0 -173 -107 -318 -296 -470v-1h206l-4 -16h-230l4 16c199 161 304 302 304 471c0 149 -92 219 -236 219c-230 0 -344 -203 -344 -380c0 -119 47 -215 108 -310l-4 -16h-222l4 16h204v1c-61 94 -106 191 -106 309c0 186 121 396 360 396z
" />
    <glyph glyph-name="approxequal" unicode="&#x2248;" horiz-adv-x="566" 
d="M177 462c96 0 125 -113 212 -113c53 0 86 40 86 100h16c0 -69 -40 -116 -102 -116c-95 0 -125 113 -212 113c-53 0 -86 -40 -86 -100h-16c0 69 40 116 102 116zM177 301c96 0 125 -113 212 -113c53 0 86 40 86 100h16c0 -69 -40 -116 -102 -116c-95 0 -125 113 -212 113
c-53 0 -86 -40 -86 -100h-16c0 69 40 116 102 116z" />
    <glyph glyph-name="bulletoperator" unicode="&#x2219;" horiz-adv-x="254" 
d="M136 270h-18v72h18v-72z" />
    <glyph glyph-name="divide" unicode="&#xf7;" horiz-adv-x="566" 
d="M291 435h-16v60h16v-60zM491 309h-416v16h416v-16zM291 139h-16v60h16v-60z" />
    <glyph glyph-name="divisionslash" unicode="&#x2215;" horiz-adv-x="395" 
d="M-100 -89h-19l503 834h19z" />
    <glyph glyph-name="equalinferior" unicode="&#x208c;" horiz-adv-x="406" 
d="M353 87h-300v16h300v-16zM353 -3h-300v16h300v-16z" />
    <glyph glyph-name="equalsuperior" unicode="&#x207c;" horiz-adv-x="405" 
d="M353 589h-300v16h300v-16zM353 499h-300v16h300v-16z" />
    <glyph glyph-name="greaterequal" unicode="&#x2265;" horiz-adv-x="566" 
d="M491 328v-22l-416 -191v18l400 183v2l-400 183v18zM491 0h-416v16h416v-16z" />
    <glyph glyph-name="increment" unicode="&#x2206;" horiz-adv-x="633" 
d="M564 0h-621l477 712h22zM545 16l-62 364c-18 107 -36 214 -54 316h-1c-68 -102 -140 -209 -212 -316l-244 -364h573z" />
    <glyph glyph-name="infinity" unicode="&#x221e;" horiz-adv-x="548" 
d="M423 427c65 0 110 -48 110 -119s-45 -119 -110 -119c-73 0 -112 52 -149 106c-37 -54 -76 -106 -149 -106c-65 0 -110 48 -110 119s45 119 110 119c73 0 112 -52 149 -106c37 54 76 106 149 106zM125 205c67 0 104 50 140 103c-36 53 -73 103 -140 103
c-56 0 -94 -41 -94 -103s38 -103 94 -103zM423 205c56 0 94 41 94 103s-38 103 -94 103c-67 0 -104 -50 -140 -103c36 -53 73 -103 140 -103z" />
    <glyph glyph-name="integral" unicode="&#x222b;" horiz-adv-x="264" 
d="M223 715c9 0 18 -1 26 -3v-16c-7 2 -17 3 -26 3c-55 0 -83 -33 -83 -105v-661c0 -81 -35 -121 -99 -121c-9 0 -18 1 -26 3v16c7 -2 17 -3 26 -3c55 0 83 33 83 105v661c0 81 35 121 99 121z" />
    <glyph glyph-name="lessequal" unicode="&#x2264;" horiz-adv-x="566" 
d="M491 501l-400 -183v-2l400 -183v-18l-416 191v22l416 191v-18zM491 16v-16h-416v16h416z" />
    <glyph glyph-name="logicalnot" unicode="&#xac;" horiz-adv-x="566" 
d="M491 159h-16v260h-400v16h416v-276z" />
    <glyph glyph-name="micro" unicode="&#xb5;" horiz-adv-x="547" 
d="M514 508l-99 -399c-7 -27 -10 -46 -10 -61c0 -26 11 -35 36 -35c9 0 16 1 25 4l-4 -17c-7 -2 -13 -3 -21 -3c-32 0 -52 15 -52 51c0 19 6 43 15 71h-1c-38 -79 -113 -129 -192 -129c-87 0 -138 43 -139 135h-1c-8 -42 -17 -83 -28 -125l-46 -185h-16l173 693h16l-75 -301
c-7 -29 -11 -55 -11 -77c0 -83 47 -124 127 -124c88 0 180 70 209 188l78 314h16z" />
    <glyph glyph-name="minus" unicode="&#x2212;" horiz-adv-x="566" 
d="M491 309h-416v16h416v-16z" />
    <glyph glyph-name="minusinferior" unicode="&#x208b;" horiz-adv-x="406" 
d="M353 42h-300v16h300v-16z" />
    <glyph glyph-name="minussuperior" unicode="&#x207b;" horiz-adv-x="406" 
d="M353 544h-300v16h300v-16z" />
    <glyph glyph-name="multiply" unicode="&#xd7;" horiz-adv-x="566" 
d="M504 516l-210 -210l210 -210l-11 -11l-210 210l-209 -209l-11 11l209 209l-209 209l11 11l209 -209l210 210z" />
    <glyph glyph-name="notequal" unicode="&#x2260;" horiz-adv-x="566" 
d="M333 371l-80 -109h238v-16h-249l-108 -148h-19l107 148h-147v16h159l79 109h-238v16h250l107 148h20l-108 -148h147v-16h-158z" />
    <glyph glyph-name="partialdiff" unicode="&#x2202;" horiz-adv-x="566" 
d="M342 722c121 0 180 -89 180 -239c0 -188 -100 -493 -315 -493c-111 0 -163 66 -163 172c0 114 77 308 255 308c155 0 186 -153 162 -238h1c25 77 44 181 44 251c0 141 -53 223 -164 223c-89 0 -144 -58 -169 -147h-16c27 97 89 163 185 163zM300 454
c-170 0 -240 -187 -240 -292c0 -96 46 -156 147 -156c163 0 248 189 248 274c0 105 -58 174 -155 174z" />
    <glyph glyph-name="perthousand" unicode="&#x2030;" horiz-adv-x="844" 
d="M9 -30h-21l604 734h21zM239 686c57 0 85 -39 85 -110c0 -81 -46 -206 -145 -206c-56 0 -85 38 -85 110c0 80 47 206 145 206zM239 670c-89 0 -129 -118 -129 -190c0 -62 22 -95 70 -95c88 0 128 119 128 191c0 62 -22 94 -69 94zM423 306c57 0 85 -39 85 -110
c0 -81 -46 -206 -145 -206c-56 0 -85 38 -85 110c0 80 47 206 145 206zM707 306c57 0 85 -39 85 -110c0 -81 -46 -206 -145 -206c-56 0 -85 38 -85 110c0 80 47 206 145 206zM423 290c-89 0 -129 -118 -129 -190c0 -62 22 -95 70 -95c88 0 128 119 128 191
c0 62 -22 94 -69 94zM707 290c-89 0 -129 -118 -129 -190c0 -62 22 -95 70 -95c88 0 128 119 128 191c0 62 -22 94 -69 94z" />
    <glyph glyph-name="plusinferior" unicode="&#x208a;" horiz-adv-x="406" 
d="M211 58h142v-16h-142v-138h-16v138h-142v16h142v138h16v-138z" />
    <glyph glyph-name="plusminus" unicode="&#xb1;" horiz-adv-x="566" 
d="M291 315h200v-16h-200v-200h-16v200h-200v16h200v200h16v-200zM491 0h-416v16h416v-16z" />
    <glyph glyph-name="plussuperior" unicode="&#x207a;" horiz-adv-x="406" 
d="M211 560h142v-16h-142v-138h-16v138h-142v16h142v138h16v-138z" />
    <glyph glyph-name="product" unicode="&#x220f;" horiz-adv-x="625" 
d="M520 -120h-16v816h-383v-816h-16v832h415v-832z" />
    <glyph glyph-name="radical" unicode="&#x221a;" horiz-adv-x="483" 
d="M225 -120h-16l-104 440h-80v16h92l100 -420h2l227 796h17z" />
    <glyph glyph-name="summation" unicode="&#x2211;" horiz-adv-x="445" 
d="M410 696h-357l240 -405l-240 -395h357v-16h-375v16l240 395l-240 405v16h375v-16z" />
    <glyph glyph-name="lozenge" unicode="&#x25ca;" horiz-adv-x="532" 
d="M492 356l-217 -356h-18l-217 356l217 356h18zM58 356l208 -341l208 341l-208 341z" />
    <glyph glyph-name="apple" unicode="&#xf8ff;" horiz-adv-x="600" 
d="M150 777h280c74 0 120 -46 120 -120v-602c0 -74 -46 -120 -120 -120h-280c-74 0 -120 46 -120 120v602c0 74 46 120 120 120zM430 761h-280c-64 0 -104 -40 -104 -104v-602c0 -64 40 -104 104 -104h280c64 0 104 40 104 104v602c0 64 -40 104 -104 104zM287 643
c90 0 156 -57 156 -138c0 -56 -18 -86 -90 -148c-65 -56 -79 -81 -79 -181h-13v17c0 88 15 119 81 175c70 60 85 88 85 137c0 72 -59 122 -140 122c-84 0 -138 -48 -144 -136h-16c7 98 67 152 160 152zM276 65h-18v57h18v-57z" />
    <glyph glyph-name="brokenbar" unicode="&#xa6;" horiz-adv-x="236" 
d="M126 382h-16v350h16v-350zM126 -205h-16v350h16v-350z" />
    <glyph glyph-name="paragraph" unicode="&#xb6;" horiz-adv-x="495" 
d="M585 696h-80l-203 -816h-16l203 816h-93l-203 -816h-16l112 452c-116 5 -179 65 -179 177c0 90 65 203 194 203h285z" />
    <glyph glyph-name="copyright" unicode="&#xa9;" horiz-adv-x="822" 
d="M411 722c213 0 356 -147 356 -366s-143 -366 -356 -366s-356 147 -356 366s143 366 356 366zM411 706c-204 0 -340 -140 -340 -350s136 -350 340 -350s340 140 340 350s-136 350 -340 350zM412 612c111 0 175 -77 181 -168h-16c-7 82 -63 152 -165 152
c-118 0 -192 -93 -192 -242c0 -146 72 -238 187 -238c101 0 164 66 173 154h16c-11 -99 -80 -170 -189 -170c-124 0 -203 99 -203 254c0 158 81 258 208 258z" />
    <glyph glyph-name="registered" unicode="&#xae;" horiz-adv-x="576" 
d="M342 722c145 0 243 -101 243 -250s-98 -250 -243 -250s-243 101 -243 250s98 250 243 250zM342 706c-136 0 -227 -94 -227 -234s91 -234 227 -234s227 94 227 234s-91 234 -227 234zM245 635h90c71 0 104 -34 104 -85c0 -43 -27 -72 -66 -79v-1c23 -6 35 -19 49 -58
l35 -97h-17l-33 92c-14 42 -30 56 -69 56h-77v-148h-16v320zM261 619v-140h77c58 0 85 32 85 71c0 42 -26 69 -88 69h-74z" />
    <glyph glyph-name="published" unicode="&#x2117;" horiz-adv-x="822" 
d="M411 722c213 0 356 -147 356 -366s-143 -366 -356 -366s-356 147 -356 366s143 366 356 366zM411 706c-204 0 -340 -140 -340 -350s136 -350 340 -350s340 140 340 350s-136 350 -340 350zM281 598h164c105 0 156 -57 156 -134s-51 -134 -156 -134h-148v-230h-16v498z
M297 582v-236h148c96 0 140 50 140 118s-44 118 -140 118h-148z" />
    <glyph glyph-name="section" unicode="&#xa7;" horiz-adv-x="489" 
d="M337 722c87 0 131 -40 131 -120c0 -11 -1 -23 -4 -37h-16c3 14 4 26 4 37c0 71 -37 104 -115 104c-94 0 -141 -69 -141 -123c0 -55 31 -79 111 -140c94 -72 120 -112 120 -166c0 -56 -38 -116 -129 -162v-1c25 -27 34 -56 34 -92c0 -74 -57 -163 -173 -163
c-92 0 -136 41 -136 120c0 14 2 30 7 49h16c-5 -19 -7 -35 -7 -49c0 -70 37 -104 120 -104c107 0 157 82 157 147c0 66 -35 94 -115 155c-83 64 -113 98 -113 158c0 58 38 116 126 164v1c-23 24 -34 48 -34 83c0 63 54 139 157 139zM225 489c-87 -51 -121 -102 -121 -154
c0 -53 28 -86 107 -146c31 -24 61 -48 77 -63c83 41 123 100 123 151c0 50 -25 87 -114 154c-26 19 -54 41 -72 58z" />
    <glyph glyph-name="trademark" unicode="&#x2122;" horiz-adv-x="725" 
d="M395 696h-132l-85 -340h-16l85 340h-132l4 16h280zM697 356h-16l48 190l36 147h-1c-33 -50 -65 -100 -99 -151l-123 -186h-21l-29 186c-8 51 -16 101 -25 151h-1l-36 -147l-48 -190h-16l89 356h25l31 -196c7 -47 15 -96 23 -142h1l93 142l129 196h29z" />
    <glyph glyph-name="degree" unicode="&#xb0;" horiz-adv-x="290" 
d="M236 722c55 0 100 -45 100 -100s-45 -100 -100 -100s-100 45 -100 100s45 100 100 100zM236 706c-46 0 -84 -38 -84 -84s38 -84 84 -84s84 38 84 84s-38 84 -84 84z" />
    <glyph glyph-name="estimated" unicode="&#x212e;" horiz-adv-x="856" 
d="M428 684c241 0 380 -166 380 -359h-607c-8 0 -13 -6 -13 -12v-166c0 -20 3 -32 15 -43c58 -57 132 -91 225 -91c98 0 185 45 238 109h68c-45 -63 -144 -134 -306 -134c-231 0 -381 146 -381 346c0 197 144 350 381 350zM428 658c-93 0 -167 -35 -225 -93
c-12 -11 -15 -22 -15 -40v-166c0 -8 5 -12 13 -12h452c8 0 13 4 13 12v166c0 18 -2 29 -15 40c-68 67 -146 93 -223 93z" />
    <glyph glyph-name="literSign" unicode="&#x2113;" horiz-adv-x="433" 
d="M139 207l-20 -79c-4 -18 -8 -37 -8 -52c0 -50 21 -68 70 -68c13 0 32 3 45 7l-4 -18c-12 -3 -29 -5 -41 -5c-57 0 -86 26 -86 84c0 16 4 36 9 56l18 74l-15 -1c-17 0 -35 2 -48 5l4 16c13 -3 28 -5 44 -5c7 0 13 0 19 1l75 299c31 126 64 163 115 163
c42 0 74 -33 74 -115c0 -138 -89 -338 -251 -362zM216 517l-73 -293c150 27 231 217 231 345c0 73 -25 99 -58 99c-43 0 -71 -33 -100 -151z" />
    <glyph glyph-name="dagger" unicode="&#x2020;" 
d="M319 497h188l-4 -16h-188l-150 -601h-16l150 601h-188l4 16h188l53 215h16z" />
    <glyph glyph-name="daggerdbl" unicode="&#x2021;" 
d="M319 497h188l-4 -16h-188l-72 -286h188l-4 -16h-188l-74 -299h-16l74 299h-188l4 16h188l72 286h-188l4 16h188l53 215h16z" />
    <glyph glyph-name="interrobang" unicode="&#x203d;" horiz-adv-x="468" 
d="M355 712l-21 -81c89 -9 146 -66 146 -148c0 -64 -31 -118 -147 -192c-80 -50 -101 -68 -122 -154h-13l116 479h-3c-100 0 -178 -57 -209 -163h-16c36 121 118 179 225 179h7l19 80h18zM326 305c113 71 138 123 138 178c0 74 -52 125 -134 132l-99 -391h1
c15 26 36 45 94 81zM182 69h18l-17 -69h-18z" />
    <glyph glyph-name="ampersand.smcp" horiz-adv-x="574" 
d="M494 306h16c-21 -88 -57 -152 -102 -202l85 -104h-21l-76 92c-66 -63 -138 -100 -223 -100c-94 0 -144 47 -144 117c0 81 47 139 190 201c-36 48 -49 78 -49 119c0 59 47 129 127 129c59 0 97 -39 97 -95s-32 -110 -150 -160l153 -186c43 47 76 108 97 189zM297 542
c-71 0 -111 -63 -111 -113c0 -37 13 -67 48 -113c116 48 144 99 144 147c0 47 -31 79 -81 79zM173 8c81 0 151 36 213 97l-158 193c-146 -65 -183 -116 -183 -189c0 -61 43 -101 128 -101z" />
    <glyph glyph-name="acute" unicode="&#xb4;" horiz-adv-x="215" 
d="M149 574h-19l126 138h23z" />
    <glyph glyph-name="breve" unicode="&#x2d8;" horiz-adv-x="388" 
d="M435 712h17c-27 -81 -86 -127 -171 -127c-78 0 -118 39 -118 108c0 6 0 12 1 19h16c-1 -7 -1 -13 -1 -19c0 -60 33 -92 102 -92c76 0 128 39 154 111z" />
    <glyph glyph-name="caron" unicode="&#x2c7;" horiz-adv-x="355" 
d="M266 574h-16l-85 138h19l75 -123l136 123h24z" />
    <glyph glyph-name="cedilla" unicode="&#xb8;" horiz-adv-x="274" 
d="M107 0l-64 -68c4 1 10 2 16 2c44 0 68 -23 68 -61c0 -46 -40 -78 -97 -78c-36 0 -64 9 -88 23l8 14c22 -14 48 -21 80 -21c48 0 81 25 81 62c0 29 -17 46 -52 46c-12 0 -24 -2 -34 -5l-10 11l70 75h22z" />
    <glyph glyph-name="circumflex" unicode="&#x2c6;" horiz-adv-x="354" 
d="M384 574h-19l-75 123l-136 -123h-24l153 138h16z" />
    <glyph glyph-name="dieresis" unicode="&#xa8;" horiz-adv-x="301" 
d="M162 635h-16l19 77h16zM346 635h-16l19 77h16z" />
    <glyph glyph-name="dotaccent" unicode="&#x2d9;" horiz-adv-x="117" 
d="M162 635h-16l19 77h16z" />
    <glyph glyph-name="hungarumlaut" unicode="&#x2dd;" horiz-adv-x="345" 
d="M151 574h-21l154 138h26zM250 574h-21l154 138h26z" />
    <glyph glyph-name="macron" unicode="&#xaf;" horiz-adv-x="327" 
d="M375 648h-226l4 16h226z" />
    <glyph glyph-name="ogonek" unicode="&#x2db;" horiz-adv-x="204" 
d="M74 8l14 -8c-95 -63 -115 -100 -115 -134c0 -26 12 -39 43 -39c12 0 24 2 33 5l-4 -17c-8 -2 -19 -4 -29 -4c-40 0 -59 20 -59 55c0 44 29 83 117 142z" />
    <glyph glyph-name="ring" unicode="&#x2da;" horiz-adv-x="273" 
d="M242 761c46 0 84 -38 84 -84c0 -47 -38 -84 -84 -84s-84 37 -84 84c0 46 38 84 84 84zM242 745c-38 0 -68 -30 -68 -68s30 -68 68 -68s68 30 68 68s-30 68 -68 68z" />
    <glyph glyph-name="tilde" unicode="&#x2dc;" horiz-adv-x="388" 
d="M433 702h17c-17 -53 -50 -81 -88 -81c-62 0 -78 65 -133 65c-31 0 -56 -22 -70 -65h-17c17 53 50 81 88 81c62 0 78 -65 133 -65c31 0 56 22 70 65z" />
    <glyph glyph-name="acute.case" horiz-adv-x="231" 
d="M198 760h-21l137 126h24z" />
    <glyph glyph-name="breve.case" horiz-adv-x="389" 
d="M479 886h17c-27 -81 -86 -127 -171 -127c-78 0 -118 39 -118 108c0 6 0 12 1 19h16c-1 -7 -1 -13 -1 -19c0 -60 33 -92 102 -92c76 0 128 39 154 111z" />
    <glyph glyph-name="caron.alt" horiz-adv-x="158" 
d="M136 538h-15l83 174h18z" />
    <glyph glyph-name="caron.case" horiz-adv-x="357" 
d="M312 760h-16l-88 126h19l78 -111l134 111h25z" />
    <glyph glyph-name="caron.alt.case" horiz-adv-x="158" 
d="M125 498h-14l94 214h17z" />
    <glyph glyph-name="circumflex.case" horiz-adv-x="357" 
d="M329 886h16l88 -126h-19l-78 111l-134 -111h-25z" />
    <glyph glyph-name="dieresis.case" horiz-adv-x="301" 
d="M197 779h-16l20 77h16zM381 779h-16l20 77h16z" />
    <glyph glyph-name="dotaccent.case" horiz-adv-x="117" 
d="M197 779h-16l20 77h16z" />
    <glyph glyph-name="grave.case" horiz-adv-x="229" 
d="M305 760h-17l-80 126h20z" />
    <glyph glyph-name="hungarumlaut.case" horiz-adv-x="347" 
d="M198 760h-21l152 126h26zM297 760h-21l152 126h26z" />
    <glyph glyph-name="macron.case" horiz-adv-x="327" 
d="M413 802h-226l4 16h226z" />
    <glyph glyph-name="breve.narrow" horiz-adv-x="336" 
d="M384 712h16c-25 -81 -75 -127 -145 -127c-61 0 -93 37 -93 101c0 10 1 19 2 26h15c-1 -7 -2 -17 -2 -26c0 -55 26 -85 78 -85c61 0 105 39 129 111z" />
    <glyph glyph-name="circumflex.narrow" horiz-adv-x="311" 
d="M341 575h-18l-55 121l-116 -121h-22l131 137h17z" />
    <glyph glyph-name="dieresis.narrow" horiz-adv-x="261" 
d="M164 643h-16l17 69h16zM308 643h-16l17 69h16z" />
    <glyph glyph-name="macron.narrow" horiz-adv-x="287" 
d="M335 648h-186l4 16h186z" />
    <glyph glyph-name="tilde.narrow" horiz-adv-x="350" 
d="M395 702h17c-16 -53 -46 -81 -79 -81c-54 0 -66 65 -113 65c-26 0 -47 -22 -60 -65h-18c17 53 47 81 80 81c53 0 65 -65 112 -65c27 0 48 22 61 65z" />
    <glyph glyph-name="ring.case" horiz-adv-x="273" 
d="M285 935c46 0 84 -38 84 -84c0 -47 -38 -84 -84 -84s-84 37 -84 84c0 46 38 84 84 84zM285 919c-38 0 -68 -30 -68 -68s30 -68 68 -68s68 30 68 68s-30 68 -68 68z" />
    <glyph glyph-name="cedilla.ss01" horiz-adv-x="245" 
d="M-40 -207h-24l163 158h20z" />
    <glyph glyph-name="tilde.case" horiz-adv-x="389" 
d="M477 876h17c-17 -53 -50 -81 -88 -81c-62 0 -79 65 -134 65c-31 0 -56 -22 -70 -65h-17c17 53 50 81 88 81c62 0 79 -65 134 -65c31 0 56 22 70 65z" />
    <glyph glyph-name="commaaccent" unicode="&#x326;" horiz-adv-x="0" 
d="M-4 -145l-54 -94h-14l52 94l16 66h16z" />
    <glyph glyph-name="commaturnedabovecomb" unicode="&#x312;" horiz-adv-x="0" 
d="M165 653l-16 -66h-16l16 66l53 94h15z" />
    <glyph glyph-name="apostrophemod" unicode="&#x2bc;" horiz-adv-x="155" 
d="M192 641l-66 -127h-14l64 127l18 71h16z" />
    <glyph glyph-name="firsttonechinese" unicode="&#x2c9;" horiz-adv-x="327" 
d="M375 648h-226l4 16h226z" />
    <glyph glyph-name="bracketrightinferior" horiz-adv-x="168" 
d="M-16 -275h-101l4 16h85l147 590h-85l4 16h101z" />
    <glyph glyph-name="bracketleftinferior" horiz-adv-x="168" 
d="M175 331h-85l-147 -590h85l-4 -16h-101l155 622h101z" />
    <glyph glyph-name="uniFEFF" unicode="&#xfeff;" horiz-adv-x="0" 
 />
    <glyph glyph-name="uni20BC" unicode="&#x20bc;" horiz-adv-x="580" 
d="M412 712l-33 -132c115 -8 173 -60 173 -189c0 -38 -8 -83 -21 -136l-64 -255h-16l65 259c13 52 20 96 20 132c0 121 -52 166 -161 173l-140 -564h-16l140 565h-11h-1c-153 -2 -218 -62 -268 -262l-76 -303h-16l77 307c52 207 123 272 283 274h1h15l33 131h16z" />
    </font>
</defs>
</svg>
