<?xml version="1.0" standalone="no"?>
<!DOCTYPE svg PUBLIC "-//W3C//DTD SVG 1.1//EN" "http://www.w3.org/Graphics/SVG/1.1/DTD/svg11.dtd" >
<svg xmlns="http://www.w3.org/2000/svg" xmlns:xlink="http://www.w3.org/1999/xlink" version="1.1">
<metadata>
Created by FontForge 20170910 at Thu Feb  5 11:03:24 2015
 By Jimmy Wärting
Copyright (c) 2015 Monotype Imaging Inc.  All rights reserved.
</metadata>
<defs>
<font id="NeueHaasUnicaPro-Italic" horiz-adv-x="576" >
  <font-face 
    font-family="Neue Haas Unica Pro"
    font-weight="400"
    font-style="italic"
    font-variant="small-caps"
    font-stretch="normal"
    units-per-em="1000"
    panose-1="2 11 5 4 3 2 6 9 2 3"
    ascent="764"
    descent="-236"
    x-height="508"
    cap-height="712"
    bbox="-218 -275 1049 953"
    underline-thickness="50"
    underline-position="-100"
    slope="-14"
    stemh="71"
    stemv="89"
    unicode-range="U+0020-FEFF"
  />
<missing-glyph horiz-adv-x="623" 
d="M151 777h321c81 0 131 -50 131 -131v-580c0 -81 -50 -131 -131 -131h-321c-80 0 -131 50 -131 131v580c0 81 51 131 131 131zM472 728h-321c-50 0 -82 -31 -82 -82v-580c0 -51 32 -82 82 -82h321c50 0 82 31 82 82v580c0 51 -32 82 -82 82zM309 646
c103 0 171 -58 171 -147c0 -55 -14 -85 -80 -143c-57 -50 -68 -72 -68 -154h-72v27c0 81 14 110 76 168c50 47 57 65 57 101c0 47 -32 76 -84 76c-59 0 -91 -33 -94 -98h-84c5 112 69 170 178 170zM343 65h-94v91h94v-91z" />
    <glyph glyph-name="f_f" unicode="ff" horiz-adv-x="578" 
d="M624 717c20 0 42 -3 55 -6l-17 -67c-6 2 -16 3 -27 3c-50 0 -81 -25 -98 -92l-12 -47h101l-18 -70h-100l-109 -438h-87l109 438h-185l-110 -438h-87l109 438h-89l17 70h90l17 70c24 95 82 139 168 139c20 0 42 -3 55 -6l-16 -67c-7 2 -17 3 -28 3c-49 0 -81 -25 -97 -92
l-12 -47h186l17 70c24 95 82 139 168 139z" />
    <glyph glyph-name="f_f_i" unicode="ffi" horiz-adv-x="822" 
d="M508 438l-109 -438h-87l109 438h-185l-110 -438h-87l109 438h-89l17 70h90l17 70c24 95 82 139 168 139c20 0 42 -3 55 -6l-16 -67c-7 2 -17 3 -28 3c-49 0 -81 -25 -97 -92l-12 -47h186l17 70c24 95 82 139 168 139c20 0 42 -3 55 -6l-17 -67c-6 2 -16 3 -27 3
c-50 0 -81 -25 -98 -92l-12 -47h101l-18 -70h-100zM858 712l-24 -99h-88l24 99h88zM719 508h88l-126 -508h-88z" />
    <glyph glyph-name="f_f_l" unicode="ffl" horiz-adv-x="822" 
d="M508 438l-109 -438h-87l109 438h-185l-110 -438h-87l109 438h-89l17 70h90l17 70c24 95 82 139 168 139c20 0 42 -3 55 -6l-16 -67c-7 2 -17 3 -28 3c-49 0 -81 -25 -97 -92l-12 -47h186l17 70c24 95 82 139 168 139c20 0 42 -3 55 -6l-17 -67c-6 2 -16 3 -27 3
c-50 0 -81 -25 -98 -92l-12 -47h101l-18 -70h-100zM858 712l-177 -712h-88l177 712h88z" />
    <glyph glyph-name="f_i" unicode="fi" horiz-adv-x="549" 
d="M236 438l-110 -438h-87l109 438h-89l17 70h90l17 70c24 95 82 139 168 139c20 0 42 -3 55 -6l-16 -67c-7 2 -17 3 -28 3c-49 0 -81 -25 -97 -92l-12 -47h100l-17 -70h-100zM585 712l-24 -99h-88l24 99h88zM446 508h88l-126 -508h-88z" />
    <glyph glyph-name="f_l" unicode="fl" horiz-adv-x="549" 
d="M236 438l-110 -438h-87l109 438h-89l17 70h90l17 70c24 95 82 139 168 139c20 0 42 -3 55 -6l-16 -67c-7 2 -17 3 -28 3c-49 0 -81 -25 -97 -92l-12 -47h100l-17 -70h-100zM585 712l-177 -712h-88l177 712h88z" />
    <glyph glyph-name=".notdef" horiz-adv-x="623" 
d="M151 777h321c81 0 131 -50 131 -131v-580c0 -81 -50 -131 -131 -131h-321c-80 0 -131 50 -131 131v580c0 81 51 131 131 131zM472 728h-321c-50 0 -82 -31 -82 -82v-580c0 -51 32 -82 82 -82h321c50 0 82 31 82 82v580c0 51 -32 82 -82 82zM309 646
c103 0 171 -58 171 -147c0 -55 -14 -85 -80 -143c-57 -50 -68 -72 -68 -154h-72v27c0 81 14 110 76 168c50 47 57 65 57 101c0 47 -32 76 -84 76c-59 0 -91 -33 -94 -98h-84c5 112 69 170 178 170zM343 65h-94v91h94v-91z" />
    <glyph glyph-name="NULL" horiz-adv-x="600" 
 />
    <glyph glyph-name="space" unicode=" " horiz-adv-x="230" 
 />
    <glyph glyph-name="exclam" unicode="!" horiz-adv-x="275" 
d="M153 175h-70l112 537h113zM127 0h-104l26 106h104z" />
    <glyph glyph-name="quotedbl" unicode="&#x22;" horiz-adv-x="372" 
d="M192 449h-65l55 263h86zM342 449h-65l55 263h87z" />
    <glyph glyph-name="numbersign" unicode="#" horiz-adv-x="649" 
d="M527 420l-67 -164h118l-27 -65h-117l-78 -191h-76l78 191h-144l-78 -191h-76l78 191h-119l27 65h118l67 164h-119l27 66h119l77 188h76l-77 -188h144l77 188h76l-77 -188h117l-27 -66h-117zM451 420h-144l-67 -164h144z" />
    <glyph glyph-name="dollar" unicode="$" horiz-adv-x="562" 
d="M560 466h-85c3 15 5 29 5 43c0 56 -28 89 -79 101l-58 -231c89 -32 160 -69 160 -180c0 -95 -85 -210 -258 -212l-21 -86h-62l22 90c-100 15 -156 74 -156 172c0 19 2 39 6 61h87c-4 -19 -6 -37 -6 -51c0 -62 32 -97 88 -109l62 251c-84 33 -148 69 -148 171
c0 88 77 201 241 202l19 76h62l-20 -80c99 -15 148 -71 148 -163c0 -17 -2 -36 -7 -55zM204 498c0 -50 28 -76 82 -98l54 215c-86 -5 -136 -59 -136 -117zM415 189c0 56 -33 81 -93 105l-58 -234c110 6 151 76 151 129z" />
    <glyph glyph-name="percent" unicode="%" horiz-adv-x="864" 
d="M206 -30h-68l561 734h68zM290 688c84 0 127 -48 127 -136c0 -103 -61 -244 -188 -244c-84 0 -128 48 -128 137c0 103 61 243 189 243zM287 626c-74 0 -107 -117 -107 -180c0 -50 17 -76 51 -76c75 0 108 118 108 181c0 49 -17 75 -52 75zM677 366c85 0 128 -48 128 -136
c0 -103 -61 -244 -188 -244c-84 0 -129 48 -129 137c0 103 62 243 189 243zM675 304c-75 0 -108 -117 -108 -180c0 -50 17 -76 52 -76c75 0 108 118 108 181c0 49 -17 75 -52 75z" />
    <glyph glyph-name="ampersand" unicode="&#x26;" horiz-adv-x="734" 
d="M604 399h89c-25 -101 -72 -189 -134 -258l107 -141h-110l-63 83c-68 -61 -157 -98 -244 -98c-136 0 -212 68 -212 174c0 91 58 186 217 248c-34 54 -47 92 -47 136c0 85 68 183 198 183c97 0 154 -55 154 -140c0 -74 -43 -144 -182 -206l133 -175c43 52 75 117 94 194z
M397 650c-73 0 -105 -59 -105 -106c0 -32 11 -61 44 -112c116 53 139 107 139 148c0 43 -28 70 -78 70zM264 64c65 0 129 28 184 78l-156 206c-128 -56 -160 -121 -160 -179c0 -62 48 -105 132 -105z" />
    <glyph glyph-name="quotesingle" unicode="'" horiz-adv-x="222" 
d="M192 449h-65l55 263h86z" />
    <glyph glyph-name="parenleft" unicode="(" horiz-adv-x="292" 
d="M303 741h80c-171 -212 -247 -436 -247 -630c0 -87 9 -170 26 -258h-72c-30 92 -46 184 -46 287c0 192 83 414 259 601z" />
    <glyph glyph-name="parenright" unicode=")" horiz-adv-x="292" 
d="M11 -147h-81c172 212 248 436 248 630c0 87 -10 170 -27 258h73c30 -92 45 -184 45 -287c0 -192 -82 -414 -258 -601z" />
    <glyph glyph-name="asterisk" unicode="*" horiz-adv-x="407" 
d="M307 572l134 25l6 -80l-135 9l65 -118l-74 -30l-36 132l-92 -100l-52 62l113 73l-124 55l43 68l107 -84l17 136l77 -19z" />
    <glyph glyph-name="plus" unicode="+" horiz-adv-x="566" 
d="M319 353h176v-73h-176v-175h-72v175h-176v73h176v176h72v-176z" />
    <glyph glyph-name="comma" unicode="," horiz-adv-x="226" 
d="M104 0l-88 -144h-58l74 144h-36l28 117h109z" />
    <glyph glyph-name="hyphen" unicode="-" horiz-adv-x="300" 
d="M270 253h-240l19 78h240z" />
    <glyph glyph-name="period" unicode="." horiz-adv-x="226" 
d="M104 0h-108l28 117h109z" />
    <glyph glyph-name="slash" unicode="/" horiz-adv-x="462" 
d="M30 -89h-86l503 834h86z" />
    <glyph glyph-name="zero" unicode="0" horiz-adv-x="562" 
d="M367 688c126 0 190 -83 190 -237c0 -177 -102 -465 -320 -465c-126 0 -189 83 -189 237c0 177 101 465 319 465zM361 607c-149 0 -220 -259 -220 -383c0 -104 35 -159 102 -159c149 0 220 259 220 383c0 103 -34 159 -102 159z" />
    <glyph glyph-name="one" unicode="1" horiz-adv-x="562" 
d="M284 0h-91l122 491h-151l17 70c106 0 160 31 193 113h78z" />
    <glyph glyph-name="two" unicode="2" horiz-adv-x="562" 
d="M366 688c118 0 190 -67 190 -167c0 -109 -71 -180 -239 -263c-152 -76 -189 -118 -207 -179h357l-19 -79h-463c29 157 99 231 281 321c146 72 193 117 193 190c0 62 -35 97 -99 97c-78 0 -129 -50 -152 -132h-97c37 138 132 212 255 212z" />
    <glyph glyph-name="three" unicode="3" horiz-adv-x="562" 
d="M359 688c128 0 200 -64 200 -166c0 -75 -44 -149 -158 -184v-2c57 -24 89 -70 89 -136c0 -95 -85 -214 -255 -214c-135 0 -207 61 -207 167c0 15 2 33 6 50h92c-4 -16 -5 -29 -5 -42c0 -63 40 -96 117 -96c105 0 161 74 161 134c0 68 -46 103 -132 103h-27l20 77h25
c129 0 182 76 182 136c0 57 -42 94 -114 94c-77 0 -132 -44 -154 -134h-93c31 134 127 213 253 213z" />
    <glyph glyph-name="four" unicode="4" horiz-adv-x="562" 
d="M518 174h-110l-43 -174h-91l43 174h-318l22 89l384 411h128l-106 -424h110zM110 250h228l22 93c21 79 42 164 64 243h-2c-69 -76 -137 -151 -207 -225z" />
    <glyph glyph-name="five" unicode="5" horiz-adv-x="562" 
d="M563 596h-305l-67 -195h2c34 28 81 42 125 42c117 0 184 -73 184 -190c0 -115 -94 -267 -276 -267c-121 0 -195 57 -195 152c0 13 2 27 5 41h93c-2 -10 -3 -19 -3 -27c0 -56 44 -86 109 -86c119 0 172 107 172 181c0 75 -42 118 -114 118c-60 0 -110 -34 -139 -95l-90 6
l137 398h382z" />
    <glyph glyph-name="six" unicode="6" horiz-adv-x="562" 
d="M382 688c121 0 187 -63 187 -162c0 -6 0 -15 -2 -25h-93c1 5 1 9 1 12c0 63 -32 95 -97 95c-84 0 -167 -74 -213 -237h2c45 44 101 68 162 68c112 0 179 -76 179 -196c0 -108 -92 -257 -259 -257c-127 0 -195 74 -195 221c0 183 110 481 328 481zM306 364
c-108 0 -165 -102 -165 -175c0 -76 39 -123 111 -123c107 0 160 103 160 171c0 78 -38 127 -106 127z" />
    <glyph glyph-name="seven" unicode="7" horiz-adv-x="562" 
d="M613 674l-20 -81c-137 -148 -275 -351 -380 -593h-109c126 271 270 468 388 594h-365l20 80h466z" />
    <glyph glyph-name="eight" unicode="8" horiz-adv-x="562" 
d="M365 688c122 0 200 -66 200 -167c0 -81 -54 -152 -157 -182v-2c57 -26 89 -77 89 -145c0 -95 -88 -206 -255 -206c-132 0 -212 70 -212 184c0 82 55 159 173 188v2c-50 27 -80 73 -80 134c0 86 86 194 242 194zM358 609c-99 0 -147 -69 -147 -125c0 -61 42 -98 115 -98
c104 0 147 71 147 125c0 61 -44 98 -115 98zM282 308c-107 0 -159 -75 -159 -135c0 -67 47 -107 125 -107c109 0 159 77 159 136c0 65 -47 106 -125 106z" />
    <glyph glyph-name="nine" unicode="9" horiz-adv-x="562" 
d="M215 -14c-121 0 -187 63 -187 162c0 6 0 15 1 25h93c0 -5 -1 -9 -1 -12c0 -63 32 -95 97 -95c85 0 168 74 213 237h-2c-44 -44 -101 -68 -162 -68c-111 0 -179 76 -179 196c0 108 93 257 260 257c127 0 194 -74 194 -221c0 -183 -110 -481 -327 -481zM290 310
c109 0 165 102 165 175c0 76 -38 123 -110 123c-108 0 -161 -103 -161 -171c0 -78 38 -127 106 -127z" />
    <glyph glyph-name="colon" unicode=":" horiz-adv-x="226" 
d="M202 391h-109l29 117h108zM104 0h-108l28 117h109z" />
    <glyph glyph-name="semicolon" unicode=";" horiz-adv-x="226" 
d="M202 391h-109l29 117h108zM104 0l-88 -144h-58l74 144h-36l28 117h109z" />
    <glyph glyph-name="less" unicode="&#x3c;" horiz-adv-x="566" 
d="M495 460l-342 -142v-2l342 -142v-80l-424 178v90l424 178v-80z" />
    <glyph glyph-name="equal" unicode="=" horiz-adv-x="566" 
d="M495 362h-424v74h424v-74zM495 197h-424v74h424v-74z" />
    <glyph glyph-name="greater" unicode="&#x3e;" horiz-adv-x="566" 
d="M495 362v-90l-424 -178v80l342 142v2l-342 142v80z" />
    <glyph glyph-name="question" unicode="?" horiz-adv-x="516" 
d="M349 726c124 0 198 -66 198 -169c0 -70 -29 -126 -150 -206c-91 -60 -112 -88 -139 -186h-78c28 127 53 162 155 233c107 75 119 111 119 155c0 58 -40 93 -108 93c-77 0 -132 -43 -156 -129h-91c35 137 126 209 250 209zM230 0h-104l26 106h104z" />
    <glyph glyph-name="at" unicode="@" horiz-adv-x="868" 
d="M501 693c215 0 340 -118 340 -306c0 -150 -90 -312 -246 -312c-64 0 -94 35 -89 90h-2c-42 -60 -94 -90 -153 -90c-77 0 -119 51 -119 147c0 117 94 296 240 296c68 0 99 -35 107 -89h2c9 22 23 54 34 79h76c-61 -131 -120 -280 -120 -326c0 -29 15 -41 43 -41
c106 0 162 148 162 245c0 150 -103 244 -278 244c-256 0 -380 -243 -380 -409c0 -168 92 -264 250 -264c86 0 164 20 231 56l22 -56c-71 -40 -156 -63 -249 -63c-201 0 -320 119 -320 323c0 196 156 476 449 476zM476 448c-100 0 -161 -140 -161 -217c0 -56 23 -85 66 -85
c96 0 160 149 160 225c0 49 -22 77 -65 77z" />
    <glyph glyph-name="A" unicode="A" horiz-adv-x="675" 
d="M491 212h-314l-131 -212h-104l447 712h125l94 -712h-92zM482 293l-8 65c-12 99 -22 191 -32 290h-2c-58 -99 -113 -191 -173 -290l-40 -65h255z" />
    <glyph glyph-name="B" unicode="B" horiz-adv-x="627" 
d="M209 712h214c147 0 214 -61 214 -156c0 -74 -46 -162 -163 -196v-2c64 -18 95 -69 95 -139c0 -98 -84 -219 -268 -219h-269zM282 634l-58 -233h134c144 0 185 77 185 139s-41 94 -135 94h-126zM205 324l-62 -246h156c134 0 176 77 176 143c0 67 -40 103 -135 103h-135z
" />
    <glyph glyph-name="C" unicode="C" horiz-adv-x="690" 
d="M447 726c151 0 242 -93 242 -227c0 -14 -1 -29 -3 -43h-95c1 12 2 23 2 34c0 94 -60 152 -156 152c-186 0 -279 -211 -279 -366c0 -124 59 -206 168 -206c96 0 181 63 218 160h96c-49 -150 -171 -244 -322 -244c-163 0 -256 111 -256 282c0 200 127 458 385 458z" />
    <glyph glyph-name="D" unicode="D" horiz-adv-x="723" 
d="M209 712h171c216 0 327 -107 327 -304c0 -185 -129 -408 -429 -408h-246zM280 630l-137 -548h139c237 0 328 182 328 320c0 149 -78 228 -234 228h-96z" />
    <glyph glyph-name="E" unicode="E" horiz-adv-x="618" 
d="M648 630h-367l-56 -225h346l-20 -81h-347l-60 -242h378l-20 -82h-470l177 712h459z" />
    <glyph glyph-name="F" unicode="F" horiz-adv-x="573" 
d="M635 630h-354l-61 -243h332l-20 -82h-332l-76 -305h-92l177 712h446z" />
    <glyph glyph-name="G" unicode="G" horiz-adv-x="731" 
d="M463 726c154 0 244 -83 244 -212c0 -12 -1 -22 -2 -32h-98c1 6 1 12 1 17c0 91 -57 143 -154 143c-198 0 -297 -210 -297 -373c0 -123 56 -203 168 -203c99 0 204 63 242 217h-196l20 79h284l-90 -362h-82l20 82h-2c-48 -58 -133 -95 -220 -95c-151 0 -238 113 -238 280
c0 209 135 459 400 459z" />
    <glyph glyph-name="H" unicode="H" horiz-adv-x="737" 
d="M580 0h-93l82 329h-363l-82 -329h-92l177 712h92l-75 -302h364l74 302h93z" />
    <glyph glyph-name="I" unicode="I" horiz-adv-x="282" 
d="M124 0h-92l177 712h92z" />
    <glyph glyph-name="J" unicode="J" horiz-adv-x="356" 
d="M380 712l-130 -521c-32 -132 -114 -196 -239 -196c-22 0 -44 3 -58 9l19 79c12 -3 27 -5 38 -5c79 0 129 37 155 144l123 490h92z" />
    <glyph glyph-name="K" unicode="K" horiz-adv-x="625" 
d="M311 367l247 -367h-112l-231 357h-2l-89 -357h-92l177 712h92l-78 -314h2l354 314h127z" />
    <glyph glyph-name="L" unicode="L" horiz-adv-x="561" 
d="M144 82h363l-19 -82h-456l177 712h92z" />
    <glyph glyph-name="M" unicode="M" horiz-adv-x="934" 
d="M776 0h-90l90 362c23 90 46 181 70 272h-2c-55 -91 -109 -181 -165 -272l-222 -362h-106l-43 362c-10 91 -20 181 -28 272h-2l-66 -272l-90 -362h-90l177 712h142l41 -351c10 -90 19 -183 27 -273h2c52 90 106 183 162 273l215 351h155z" />
    <glyph glyph-name="N" unicode="N" horiz-adv-x="755" 
d="M598 0h-128l-97 307c-33 106 -66 213 -98 319h-2c-26 -114 -52 -227 -81 -341l-70 -285h-90l177 712h127l97 -307c34 -106 66 -213 98 -319h2c26 114 52 227 80 341l72 285h90z" />
    <glyph glyph-name="O" unicode="O" horiz-adv-x="732" 
d="M444 726c174 0 274 -119 274 -295c0 -201 -134 -445 -380 -445c-174 0 -273 119 -273 295c0 201 133 445 379 445zM441 642c-182 0 -283 -203 -283 -361c0 -126 66 -211 183 -211c181 0 283 201 283 360c0 127 -66 212 -183 212z" />
    <glyph glyph-name="P" unicode="P" horiz-adv-x="616" 
d="M209 712h207c156 0 232 -74 232 -194c0 -106 -82 -236 -272 -236h-182l-70 -282h-92zM281 632l-67 -270h163c129 0 176 84 176 150c0 76 -46 120 -144 120h-128z" />
    <glyph glyph-name="Q" unicode="Q" horiz-adv-x="731" 
d="M719 436c0 -128 -54 -274 -157 -364l58 -88l-65 -43l-57 86c-48 -26 -103 -41 -165 -41c-172 0 -270 117 -270 290c0 203 135 450 385 450c172 0 271 -117 271 -290zM342 67c41 0 78 10 111 28l-74 111l65 43l71 -107c73 74 112 188 112 287c0 128 -67 213 -185 213
c-183 0 -284 -205 -284 -362c0 -128 66 -213 184 -213z" />
    <glyph glyph-name="R" unicode="R" horiz-adv-x="640" 
d="M209 712h216c146 0 212 -62 212 -169c0 -86 -63 -184 -182 -208v-2c41 -15 60 -47 72 -134l25 -199h-94l-21 188c-9 85 -37 112 -114 112h-124l-75 -300h-92zM281 633l-63 -255h143c134 0 179 87 179 146c0 74 -45 109 -128 109h-131z" />
    <glyph glyph-name="S" unicode="S" horiz-adv-x="609" 
d="M384 726c152 0 226 -61 226 -178c0 -17 -2 -36 -7 -56h-93c3 16 5 30 5 43c0 76 -50 112 -140 112c-107 0 -158 -65 -158 -121c0 -65 48 -90 140 -120c103 -35 187 -72 187 -197c0 -101 -93 -223 -282 -223c-149 0 -234 65 -234 189c0 18 2 39 7 61h94
c-4 -19 -6 -37 -6 -51c0 -82 54 -120 148 -120c129 0 176 77 176 133c0 70 -51 94 -140 125c-104 36 -185 71 -185 192c0 93 85 211 262 211z" />
    <glyph glyph-name="T" unicode="T" horiz-adv-x="599" 
d="M683 630h-243l-157 -630h-93l157 630h-243l20 82h579z" />
    <glyph glyph-name="U" unicode="U" horiz-adv-x="705" 
d="M731 712l-121 -483c-40 -159 -147 -243 -301 -243c-144 0 -223 77 -223 214c0 30 4 63 13 100l104 412h92l-107 -431c-8 -29 -11 -53 -11 -75c0 -91 51 -136 140 -136c102 0 176 61 207 182l114 460h93z" />
    <glyph glyph-name="V" unicode="V" horiz-adv-x="624" 
d="M309 0h-120l-68 712h90l29 -317c10 -101 18 -203 25 -305h2c56 102 114 204 174 305l188 317h103z" />
    <glyph glyph-name="W" unicode="W" horiz-adv-x="916" 
d="M677 0h-132l2 311c0 106 3 213 6 319h-2c-50 -106 -102 -213 -154 -319l-152 -311h-132l11 712h88l-5 -288c-2 -112 -5 -224 -9 -335h2c52 111 107 224 162 336l141 287h129l-2 -287c0 -112 -2 -225 -4 -336h2c51 111 104 223 157 335l138 288h97z" />
    <glyph glyph-name="X" unicode="X" horiz-adv-x="621" 
d="M394 360l157 -360h-100l-122 293h-2l-262 -293h-121l339 370l-148 342h98l115 -277h2l245 277h119z" />
    <glyph glyph-name="Y" unicode="Y" horiz-adv-x="614" 
d="M364 295l-74 -295h-92l73 295l-153 417h96l51 -147c21 -62 42 -125 61 -188h2c51 63 103 126 155 188l124 147h117z" />
    <glyph glyph-name="Z" unicode="Z" horiz-adv-x="566" 
d="M619 618l-530 -535v-2h415l-19 -81h-530l23 94l531 535v2h-386l20 81h500z" />
    <glyph glyph-name="bracketleft" unicode="[" horiz-adv-x="297" 
d="M386 682h-119l-192 -771h118l-14 -59h-203l221 889h203z" />
    <glyph glyph-name="backslash" unicode="\" horiz-adv-x="457" 
d="M227 745l93 -834h-74l-94 834h75z" />
    <glyph glyph-name="bracketright" unicode="]" horiz-adv-x="297" 
d="M-68 -89h119l192 771h-118l14 59h203l-221 -889h-203z" />
    <glyph glyph-name="asciicircum" unicode="^" horiz-adv-x="449" 
d="M438 371h-82l-130 270h-2l-130 -270h-83l166 341h95z" />
    <glyph glyph-name="underscore" unicode="_" horiz-adv-x="500" 
d="M411 -101h-500l13 51h500z" />
    <glyph glyph-name="grave" unicode="`" horiz-adv-x="300" 
d="M273 712l55 -143h-71l-93 143h109z" />
    <glyph glyph-name="a" unicode="a" horiz-adv-x="531" 
d="M304 522c112 0 177 -49 177 -153c0 -20 -3 -42 -9 -67l-43 -172c-14 -56 -21 -99 -21 -130h-80c0 19 4 43 9 64h-2c-45 -49 -104 -75 -176 -75c-99 0 -154 53 -154 131c0 75 45 152 224 179c49 7 117 14 160 16l3 9c3 15 6 31 6 45c0 59 -39 85 -99 85
c-71 0 -118 -41 -131 -101h-88c21 96 103 169 224 169zM362 205l11 43c-40 -2 -96 -8 -137 -14c-113 -18 -138 -58 -138 -103s32 -74 90 -74c85 0 150 54 174 148z" />
    <glyph glyph-name="b" unicode="b" 
d="M217 454h2c38 41 93 67 149 67c111 0 174 -74 174 -196c0 -143 -94 -337 -271 -337c-74 0 -129 40 -145 102h-2l-22 -90h-87l178 712h88zM342 450c-122 0 -185 -145 -185 -253c0 -87 38 -138 106 -138c122 0 186 145 186 253c0 87 -38 138 -107 138z" />
    <glyph glyph-name="c" unicode="c" horiz-adv-x="534" 
d="M322 522c121 0 190 -72 190 -179c0 -8 0 -16 -1 -25h-91c1 7 1 14 1 20c0 68 -37 112 -104 112c-123 0 -189 -150 -189 -253c0 -87 42 -139 111 -139s127 52 150 119h93c-38 -112 -132 -191 -249 -191c-121 0 -196 79 -196 209c0 138 93 327 285 327z" />
    <glyph glyph-name="d" unicode="d" horiz-adv-x="575" 
d="M434 0h-87l14 55h-2c-39 -41 -95 -68 -151 -68c-112 0 -174 74 -174 196c0 143 94 337 271 337c73 0 127 -39 144 -99h2l72 291h88zM312 449c-121 0 -185 -145 -185 -253c0 -87 38 -138 107 -138c121 0 185 145 185 253c0 87 -38 138 -107 138z" />
    <glyph glyph-name="e" unicode="e" horiz-adv-x="551" 
d="M505 236h-379c-4 -20 -6 -37 -6 -53c0 -89 49 -129 120 -129c69 0 124 41 148 98h90c-35 -89 -123 -166 -243 -166c-132 0 -199 78 -199 205c0 142 98 331 289 331c127 0 193 -75 193 -194c0 -24 -4 -52 -13 -92zM321 454c-80 0 -149 -54 -179 -151h291c2 11 3 23 3 33
c0 78 -44 118 -115 118z" />
    <glyph glyph-name="f" unicode="f" horiz-adv-x="305" 
d="M351 717c20 0 42 -3 55 -6l-16 -67c-7 2 -17 3 -28 3c-49 0 -81 -25 -97 -92l-12 -47h100l-17 -70h-100l-110 -438h-87l109 438h-89l17 70h90l17 70c24 95 82 139 168 139z" />
    <glyph glyph-name="g" unicode="g" horiz-adv-x="573" 
d="M303 521c75 0 126 -39 146 -102h2l22 89h85l-124 -502c-33 -132 -127 -199 -258 -199c-122 0 -187 50 -187 133c0 9 1 18 3 28h87c-2 -7 -2 -14 -2 -21c0 -46 37 -72 103 -72c89 0 145 45 173 154l11 45h-2c-45 -45 -99 -69 -158 -69c-106 0 -166 76 -166 199
c0 135 94 317 265 317zM305 448c-114 0 -175 -143 -175 -235c0 -83 37 -134 104 -134c122 0 185 138 185 235c0 84 -41 134 -114 134z" />
    <glyph glyph-name="h" unicode="h" 
d="M215 451h2c41 42 97 68 157 68c94 0 150 -50 150 -147c0 -23 -3 -47 -10 -75l-74 -297h-88l73 297c6 25 9 46 9 64c0 58 -32 86 -88 86c-71 0 -144 -54 -170 -156l-73 -291h-88l177 712h88z" />
    <glyph glyph-name="i" unicode="i" horiz-adv-x="244" 
d="M256 613h-88l24 99h88zM103 0h-88l126 508h88z" />
    <glyph glyph-name="j" unicode="j" horiz-adv-x="249" 
d="M261 613h-88l24 99h88zM234 508l-137 -548c-27 -108 -91 -149 -172 -149c-21 0 -39 2 -56 7l17 68c9 -2 19 -3 27 -3c52 0 84 25 103 102l130 523h88z" />
    <glyph glyph-name="k" unicode="k" horiz-adv-x="500" 
d="M259 271l187 -271h-103l-174 259h-2l-64 -259h-88l177 712h88l-102 -410h2l244 206h121z" />
    <glyph glyph-name="l" unicode="l" horiz-adv-x="244" 
d="M103 0h-88l177 712h88z" />
    <glyph glyph-name="m" unicode="m" horiz-adv-x="863" 
d="M670 519c92 0 142 -47 142 -142c0 -23 -4 -50 -11 -80l-74 -297h-88l75 302c6 26 9 47 9 65c0 57 -29 80 -80 80c-73 0 -133 -62 -157 -159l-71 -288h-88l77 312c5 18 7 35 7 49c0 55 -27 86 -79 86c-73 0 -134 -63 -159 -165l-70 -282h-88l126 508h85l-13 -55h2
c43 44 90 66 143 66c71 0 119 -34 134 -98c47 62 106 98 178 98z" />
    <glyph glyph-name="n" unicode="n" 
d="M374 519c94 0 150 -50 150 -147c0 -23 -3 -47 -10 -75l-74 -297h-88l73 297c6 25 9 46 9 64c0 58 -32 86 -88 86c-71 0 -144 -54 -170 -156l-73 -291h-88l127 508h85l-16 -60h2c42 43 100 71 161 71z" />
    <glyph glyph-name="o" unicode="o" horiz-adv-x="565" 
d="M321 522c133 0 205 -79 205 -214c0 -141 -95 -322 -284 -322c-132 0 -203 79 -203 214c0 141 94 322 282 322zM314 450c-125 0 -185 -148 -185 -250c0 -89 40 -142 120 -142c126 0 187 148 187 250c0 89 -41 142 -122 142z" />
    <glyph glyph-name="p" unicode="p" 
d="M368 521c111 0 174 -74 174 -196c0 -143 -94 -337 -271 -337c-73 0 -127 39 -144 99h-2l-68 -272h-88l173 693h87l-14 -55h2c39 41 94 68 151 68zM342 450c-122 0 -185 -145 -185 -253c0 -87 38 -138 106 -138c122 0 186 145 186 253c0 87 -38 138 -107 138z" />
    <glyph glyph-name="q" unicode="q" horiz-adv-x="575" 
d="M306 521c73 0 127 -41 144 -103h2l22 90h87l-173 -693h-88l59 239h-2c-38 -41 -92 -66 -149 -66c-111 0 -174 74 -174 196c0 144 94 337 272 337zM313 450c-122 0 -185 -145 -185 -253c0 -87 38 -138 106 -138c122 0 185 145 185 253c0 87 -37 138 -106 138z" />
    <glyph glyph-name="r" unicode="r" horiz-adv-x="362" 
d="M378 513c11 0 26 -1 37 -4l-20 -79c-11 1 -24 3 -35 3c-96 0 -165 -62 -193 -174l-64 -259h-88l126 508h84l-18 -71h2c49 51 105 76 169 76z" />
    <glyph glyph-name="s" unicode="s" horiz-adv-x="494" 
d="M287 522c116 0 177 -47 177 -134c0 -12 -1 -26 -4 -39h-85c1 9 3 21 3 31c0 48 -35 74 -99 74c-66 0 -108 -30 -108 -78c0 -45 31 -56 101 -79c74 -24 151 -47 151 -148c0 -80 -71 -163 -219 -163c-121 0 -191 49 -191 141c0 14 1 29 5 42h89c-3 -11 -4 -23 -4 -34
c0 -51 37 -79 108 -79c78 0 120 33 120 85c0 49 -38 64 -115 89c-67 22 -133 41 -133 137c0 77 70 155 204 155z" />
    <glyph glyph-name="t" unicode="t" horiz-adv-x="320" 
d="M233 438l-70 -281c-4 -15 -6 -28 -6 -38c0 -35 17 -50 56 -50c13 0 26 2 35 4l-19 -72c-11 -3 -29 -5 -42 -5c-82 0 -120 31 -120 105c0 17 3 38 9 62l69 275h-89l18 70h88l31 123h88l-31 -123h101l-18 -70h-100z" />
    <glyph glyph-name="u" unicode="u" 
d="M201 -11c-93 0 -150 50 -150 147c0 23 4 47 11 75l74 297h88l-74 -297c-6 -25 -8 -46 -8 -64c0 -58 32 -86 87 -86c72 0 145 54 171 156l73 291h88l-127 -508h-85l15 60h-2c-41 -43 -99 -71 -161 -71z" />
    <glyph glyph-name="v" unicode="v" horiz-adv-x="470" 
d="M228 0h-114l-57 508h88l19 -213c7 -77 13 -149 18 -226h2c43 77 84 149 129 226l126 213h100z" />
    <glyph glyph-name="w" unicode="w" horiz-adv-x="770" 
d="M565 0h-126l-5 220l-3 220h-2c-36 -74 -71 -146 -109 -220l-115 -220h-126l-9 508h85l1 -212c1 -75 1 -153 0 -228h2c36 73 73 149 111 223l111 217h127l4 -217c1 -74 2 -150 1 -223h2c36 75 73 153 111 228l107 212h94z" />
    <glyph glyph-name="x" unicode="x" horiz-adv-x="480" 
d="M296 260l124 -260h-96l-89 203h-2l-183 -203h-115l255 268l-113 240h94l80 -181h2l163 181h114z" />
    <glyph glyph-name="y" unicode="y" horiz-adv-x="472" 
d="M541 508l-333 -531c-81 -130 -140 -166 -246 -166c-20 0 -38 2 -52 7l18 72c11 -4 25 -6 40 -6c68 0 100 26 156 114l-67 510h88l47 -404h2l247 404h100z" />
    <glyph glyph-name="z" unicode="z" horiz-adv-x="469" 
d="M477 427l-383 -353v-2h303l-17 -72h-417l20 81l382 353v2h-283l18 72h397z" />
    <glyph glyph-name="braceleft" unicode="{" horiz-adv-x="301" 
d="M398 741l-13 -56c-63 -2 -95 -26 -112 -93l-44 -179c-16 -64 -48 -95 -113 -113l-1 -3c41 -16 59 -42 59 -85c0 -14 -2 -30 -7 -49l-37 -148c-5 -18 -7 -32 -7 -45c0 -45 21 -62 68 -63l-14 -56h-13c-86 0 -124 34 -124 110c0 20 4 43 11 69l35 140c4 17 6 31 6 42
c0 34 -14 51 -47 63l15 61c52 13 75 35 89 89l43 172c25 101 76 144 174 144h32z" />
    <glyph glyph-name="bar" unicode="|" horiz-adv-x="273" 
d="M177 -205h-81v937h81v-937z" />
    <glyph glyph-name="braceright" unicode="}" horiz-adv-x="301" 
d="M-77 -149l14 56c62 1 95 25 111 92l45 180c16 64 47 95 112 112l1 3c-40 17 -58 42 -58 85c0 14 2 31 7 50l37 147c5 18 7 33 7 46c0 45 -21 61 -68 62l14 57h12c86 0 124 -35 124 -110c0 -21 -4 -43 -10 -70l-35 -139c-4 -17 -6 -31 -6 -43c0 -33 14 -51 47 -62l-16 -61
c-51 -14 -75 -36 -88 -89l-43 -172c-26 -101 -76 -144 -174 -144h-33z" />
    <glyph glyph-name="asciitilde" unicode="~" horiz-adv-x="583" 
d="M200 410c115 0 137 -112 222 -112c51 0 95 40 110 101h63c-28 -113 -99 -175 -181 -175c-114 0 -137 112 -222 112c-51 0 -95 -41 -109 -102h-63c27 114 98 176 180 176z" />
    <glyph glyph-name="Aacute" unicode="&#xc1;" horiz-adv-x="675" 
d="M478 760h-81l116 138h118zM514 712l94 -712h-92l-25 212h-314l-131 -212h-104l447 712h125zM482 293l-8 65c-12 99 -22 191 -32 290h-2c-58 -99 -113 -191 -173 -290l-40 -65h255z" />
    <glyph glyph-name="Abreve" unicode="&#x102;" horiz-adv-x="675" 
d="M470 756c-83 0 -129 43 -129 117c0 8 0 16 2 25h59c-1 -5 -1 -10 -1 -14c0 -43 26 -66 71 -66c54 0 93 29 110 80h72c-25 -90 -92 -142 -184 -142zM514 712l94 -712h-92l-25 212h-314l-131 -212h-104l447 712h125zM482 293l-8 65c-12 99 -22 191 -32 290h-2
c-58 -99 -113 -191 -173 -290l-40 -65h255z" />
    <glyph glyph-name="Acircumflex" unicode="&#xc2;" horiz-adv-x="675" 
d="M399 760h-98l149 138h97l79 -138h-79l-52 89zM514 712l94 -712h-92l-25 212h-314l-131 -212h-104l447 712h125zM482 293l-8 65c-12 99 -22 191 -32 290h-2c-58 -99 -113 -191 -173 -290l-40 -65h255z" />
    <glyph glyph-name="Adieresis" unicode="&#xc4;" horiz-adv-x="675" 
d="M411 775h-82l25 99h82zM606 775h-82l25 99h82zM514 712l94 -712h-92l-25 212h-314l-131 -212h-104l447 712h125zM482 293l-8 65c-12 99 -22 191 -32 290h-2c-58 -99 -113 -191 -173 -290l-40 -65h255z" />
    <glyph glyph-name="Agrave" unicode="&#xc0;" horiz-adv-x="675" 
d="M459 760l-93 138h109l56 -138h-72zM491 212h-314l-131 -212h-104l447 712h125l94 -712h-92zM482 293l-8 65c-12 99 -22 191 -32 290h-2c-58 -99 -113 -191 -173 -290l-40 -65h255z" />
    <glyph glyph-name="Amacron" unicode="&#x100;" horiz-adv-x="675" 
d="M628 853l-15 -65h-284l15 65h284zM514 712l94 -712h-92l-25 212h-314l-131 -212h-104l447 712h125zM482 293l-8 65c-12 99 -22 191 -32 290h-2c-58 -99 -113 -191 -173 -290l-40 -65h255z" />
    <glyph glyph-name="Aogonek" unicode="&#x104;" horiz-adv-x="675" 
d="M506 -111c0 -18 10 -27 32 -27c13 0 27 2 39 7l-14 -56c-13 -4 -31 -7 -52 -7c-59 0 -88 26 -88 71c0 43 33 80 106 123h-13l-25 212h-314l-131 -212h-104l447 712h125l94 -712c-84 -51 -102 -84 -102 -111zM482 293l-8 65c-12 99 -22 191 -32 290h-2
c-58 -99 -113 -191 -173 -290l-40 -65h255z" />
    <glyph glyph-name="Aring" unicode="&#xc5;" horiz-adv-x="675" 
d="M476 752c-55 0 -100 45 -100 100c0 56 45 101 100 101c56 0 101 -45 101 -101c0 -55 -45 -100 -101 -100zM476 910c-32 0 -58 -26 -58 -58s26 -57 58 -57c33 0 58 25 58 57s-25 58 -58 58zM491 212h-314l-131 -212h-104l447 712h125l94 -712h-92zM482 293l-8 65
c-12 99 -22 191 -32 290h-2c-58 -99 -113 -191 -173 -290l-40 -65h255z" />
    <glyph glyph-name="Atilde" unicode="&#xc3;" horiz-adv-x="675" 
d="M612 892h58c-22 -73 -67 -115 -123 -115c-63 0 -88 51 -133 51c-28 0 -47 -17 -58 -51h-60c20 73 66 115 122 115c63 0 90 -51 133 -51c29 0 49 18 61 51zM514 712l94 -712h-92l-25 212h-314l-131 -212h-104l447 712h125zM482 293l-8 65c-12 99 -22 191 -32 290h-2
c-58 -99 -113 -191 -173 -290l-40 -65h255z" />
    <glyph glyph-name="AE" unicode="&#xc6;" horiz-adv-x="937" 
d="M603 630l-22 -225h310l-21 -81h-298l-24 -242h293l-20 -82h-367l22 224h-273l-163 -224h-109l526 712h530l-20 -82h-364zM517 634h-16l-239 -329h223z" />
    <glyph glyph-name="Cacute" unicode="&#x106;" horiz-adv-x="690" 
d="M479 760h-81l116 138h118zM447 726c151 0 242 -93 242 -227c0 -14 -1 -29 -3 -43h-95c1 12 2 23 2 34c0 94 -60 152 -156 152c-186 0 -279 -211 -279 -366c0 -124 59 -206 168 -206c96 0 181 63 218 160h96c-49 -150 -171 -244 -322 -244c-163 0 -256 111 -256 282
c0 200 127 458 385 458z" />
    <glyph glyph-name="Ccaron" unicode="&#x10c;" horiz-adv-x="690" 
d="M512 760h-97l-79 138h79l52 -88l96 88h98zM447 726c151 0 242 -93 242 -227c0 -14 -1 -29 -3 -43h-95c1 12 2 23 2 34c0 94 -60 152 -156 152c-186 0 -279 -211 -279 -366c0 -124 59 -206 168 -206c96 0 181 63 218 160h96c-49 -150 -171 -244 -322 -244
c-163 0 -256 111 -256 282c0 200 127 458 385 458z" />
    <glyph glyph-name="Ccedilla" unicode="&#xc7;" horiz-adv-x="690" 
d="M686 456h-95c1 12 2 23 2 34c0 94 -60 152 -156 152c-186 0 -279 -211 -279 -366c0 -124 59 -206 168 -206c96 0 181 63 218 160h96c-47 -143 -160 -236 -302 -243l-44 -49c4 1 12 2 19 2c38 0 65 -24 65 -67c0 -51 -53 -93 -128 -93c-39 0 -74 11 -99 27l21 37
c25 -15 50 -21 76 -21c41 0 66 19 66 47c0 22 -15 36 -42 36c-12 0 -23 -2 -33 -6l-17 16l65 71c-144 14 -225 121 -225 281c0 200 127 458 385 458c151 0 242 -93 242 -227c0 -14 -1 -29 -3 -43z" />
    <glyph glyph-name="Ccircumflex" unicode="&#x108;" horiz-adv-x="690" 
d="M451 898h97l79 -138h-79l-52 89l-96 -89h-98zM447 726c151 0 242 -93 242 -227c0 -14 -1 -29 -3 -43h-95c1 12 2 23 2 34c0 94 -60 152 -156 152c-186 0 -279 -211 -279 -366c0 -124 59 -206 168 -206c96 0 181 63 218 160h96c-49 -150 -171 -244 -322 -244
c-163 0 -256 111 -256 282c0 200 127 458 385 458z" />
    <glyph glyph-name="Cdotaccent" unicode="&#x10a;" horiz-adv-x="690" 
d="M512 775h-88l25 99h88zM447 726c151 0 242 -93 242 -227c0 -14 -1 -29 -3 -43h-95c1 12 2 23 2 34c0 94 -60 152 -156 152c-186 0 -279 -211 -279 -366c0 -124 59 -206 168 -206c96 0 181 63 218 160h96c-49 -150 -171 -244 -322 -244c-163 0 -256 111 -256 282
c0 200 127 458 385 458z" />
    <glyph glyph-name="Eth" unicode="&#xd0;" horiz-adv-x="724" 
d="M209 712h171c216 0 327 -107 327 -304c0 -185 -129 -408 -429 -408h-246l81 325h-66l18 71h65zM143 82h139c237 0 328 182 328 320c0 149 -78 228 -234 228h-96l-58 -234h203l-19 -71h-202z" />
    <glyph glyph-name="Dcaron" unicode="&#x10e;" horiz-adv-x="723" 
d="M503 760h-97l-79 138h79l52 -88l96 88h98zM209 712h171c216 0 327 -107 327 -304c0 -185 -129 -408 -429 -408h-246zM280 630l-137 -548h139c237 0 328 182 328 320c0 149 -78 228 -234 228h-96z" />
    <glyph glyph-name="Dcroat" unicode="&#x110;" horiz-adv-x="724" 
d="M209 712h171c216 0 327 -107 327 -304c0 -185 -129 -408 -429 -408h-246l81 325h-66l18 71h65zM143 82h139c237 0 328 182 328 320c0 149 -78 228 -234 228h-96l-58 -234h203l-19 -71h-202z" />
    <glyph glyph-name="Eacute" unicode="&#xc9;" horiz-adv-x="618" 
d="M454 760h-81l116 138h118zM648 630h-367l-56 -225h346l-20 -81h-347l-60 -242h378l-20 -82h-470l177 712h459z" />
    <glyph glyph-name="Ebreve" unicode="&#x114;" horiz-adv-x="618" 
d="M559 898h72c-25 -90 -92 -142 -184 -142c-83 0 -129 43 -129 117c0 8 0 16 2 25h59c-1 -5 -1 -10 -1 -14c0 -43 26 -66 71 -66c54 0 93 29 110 80zM648 630h-367l-56 -225h346l-20 -81h-347l-60 -242h378l-20 -82h-470l177 712h459z" />
    <glyph glyph-name="Ecaron" unicode="&#x11a;" horiz-adv-x="618" 
d="M488 760h-97l-79 138h79l52 -88l96 88h98zM648 630h-367l-56 -225h346l-20 -81h-347l-60 -242h378l-20 -82h-470l177 712h459z" />
    <glyph glyph-name="Ecircumflex" unicode="&#xca;" horiz-adv-x="618" 
d="M427 898h97l79 -138h-79l-52 89l-96 -89h-98zM648 630h-367l-56 -225h346l-20 -81h-347l-60 -242h378l-20 -82h-470l177 712h459z" />
    <glyph glyph-name="Edieresis" unicode="&#xcb;" horiz-adv-x="618" 
d="M388 775h-82l25 99h82zM583 775h-82l25 99h82zM648 630h-367l-56 -225h346l-20 -81h-347l-60 -242h378l-20 -82h-470l177 712h459z" />
    <glyph glyph-name="Edotaccent" unicode="&#x116;" horiz-adv-x="618" 
d="M488 775h-88l25 99h88zM648 630h-367l-56 -225h346l-20 -81h-347l-60 -242h378l-20 -82h-470l177 712h459z" />
    <glyph glyph-name="Egrave" unicode="&#xc8;" horiz-adv-x="618" 
d="M507 760h-72l-93 138h109zM648 630h-367l-56 -225h346l-20 -81h-347l-60 -242h378l-20 -82h-470l177 712h459z" />
    <glyph glyph-name="Emacron" unicode="&#x112;" horiz-adv-x="618" 
d="M590 788h-284l15 65h284zM648 630h-367l-56 -225h346l-20 -81h-347l-60 -242h378l-20 -82h-470l177 712h459z" />
    <glyph glyph-name="Eogonek" unicode="&#x118;" horiz-adv-x="618" 
d="M281 630l-56 -225h346l-20 -81h-347l-60 -242h378l-20 -82c-84 -51 -102 -84 -102 -111c0 -18 10 -27 32 -27c13 0 27 2 39 7l-14 -56c-13 -4 -31 -7 -52 -7c-59 0 -88 26 -88 71c0 43 33 80 106 123h-391l177 712h459l-20 -82h-367z" />
    <glyph glyph-name="Gbreve" unicode="&#x11e;" horiz-adv-x="731" 
d="M587 898h72c-25 -90 -92 -142 -184 -142c-83 0 -129 43 -129 117c0 8 0 16 2 25h59c-1 -5 -1 -10 -1 -14c0 -43 26 -66 71 -66c54 0 93 29 110 80zM463 726c154 0 244 -83 244 -212c0 -12 -1 -22 -2 -32h-98c1 6 1 12 1 17c0 91 -57 143 -154 143
c-198 0 -297 -210 -297 -373c0 -123 56 -203 168 -203c99 0 204 63 242 217h-196l20 79h284l-90 -362h-82l20 82h-2c-48 -58 -133 -95 -220 -95c-151 0 -238 113 -238 280c0 209 135 459 400 459z" />
    <glyph glyph-name="Gcircumflex" unicode="&#x11c;" horiz-adv-x="731" 
d="M455 898h97l79 -138h-79l-52 89l-96 -89h-98zM463 726c154 0 244 -83 244 -212c0 -12 -1 -22 -2 -32h-98c1 6 1 12 1 17c0 91 -57 143 -154 143c-198 0 -297 -210 -297 -373c0 -123 56 -203 168 -203c99 0 204 63 242 217h-196l20 79h284l-90 -362h-82l20 82h-2
c-48 -58 -133 -95 -220 -95c-151 0 -238 113 -238 280c0 209 135 459 400 459z" />
    <glyph glyph-name="Gcommaaccent" unicode="&#x122;" horiz-adv-x="731" 
d="M463 726c154 0 244 -83 244 -212c0 -12 -1 -22 -2 -32h-98c1 6 1 12 1 17c0 91 -57 143 -154 143c-198 0 -297 -210 -297 -373c0 -123 56 -203 168 -203c99 0 204 63 242 217h-196l20 79h284l-90 -362h-82l20 82h-2c-48 -58 -133 -95 -220 -95c-151 0 -238 113 -238 280
c0 209 135 459 400 459zM308 -154l-81 -103h-38l64 103h-33l21 89h89z" />
    <glyph glyph-name="Gdotaccent" unicode="&#x120;" horiz-adv-x="731" 
d="M516 775h-88l25 99h88zM463 726c154 0 244 -83 244 -212c0 -12 -1 -22 -2 -32h-98c1 6 1 12 1 17c0 91 -57 143 -154 143c-198 0 -297 -210 -297 -373c0 -123 56 -203 168 -203c99 0 204 63 242 217h-196l20 79h284l-90 -362h-82l20 82h-2c-48 -58 -133 -95 -220 -95
c-151 0 -238 113 -238 280c0 209 135 459 400 459z" />
    <glyph glyph-name="Hbar" unicode="&#x126;" horiz-adv-x="737" 
d="M781 574h-58l-143 -574h-93l82 329h-363l-82 -329h-92l143 574h-59l15 58h58l20 80h92l-20 -80h363l20 80h93l-20 -80h58zM630 574h-363l-41 -164h364z" />
    <glyph glyph-name="Hcircumflex" unicode="&#x124;" horiz-adv-x="737" 
d="M481 898h97l79 -138h-79l-52 89l-96 -89h-98zM580 0h-93l82 329h-363l-82 -329h-92l177 712h92l-75 -302h364l74 302h93z" />
    <glyph glyph-name="IJ" unicode="&#x132;" horiz-adv-x="637" 
d="M124 0h-92l177 712h92zM662 712l-130 -521c-32 -132 -114 -196 -239 -196c-22 0 -44 3 -58 9l19 79c12 -3 27 -5 38 -5c79 0 129 37 155 144l123 490h92z" />
    <glyph glyph-name="Iacute" unicode="&#xcd;" horiz-adv-x="282" 
d="M281 760h-81l116 138h118zM124 0h-92l177 712h92z" />
    <glyph glyph-name="Ibreve" unicode="&#x12c;" horiz-adv-x="282" 
d="M385 898h72c-25 -90 -92 -142 -184 -142c-83 0 -129 43 -129 117c0 8 0 16 2 25h59c-1 -5 -1 -10 -1 -14c0 -43 26 -66 71 -66c54 0 93 29 110 80zM124 0h-92l177 712h92z" />
    <glyph glyph-name="Icircumflex" unicode="&#xce;" horiz-adv-x="282" 
d="M253 898h97l79 -138h-79l-52 89l-96 -89h-98zM124 0h-92l177 712h92z" />
    <glyph glyph-name="Idieresis" unicode="&#xcf;" horiz-adv-x="282" 
d="M214 775h-82l25 99h82zM409 775h-82l25 99h82zM124 0h-92l177 712h92z" />
    <glyph glyph-name="Idotaccent" unicode="&#x130;" horiz-adv-x="282" 
d="M315 775h-88l25 99h88zM124 0h-92l177 712h92z" />
    <glyph glyph-name="Igrave" unicode="&#xcc;" horiz-adv-x="282" 
d="M334 760h-72l-93 138h109zM124 0h-92l177 712h92z" />
    <glyph glyph-name="Imacron" unicode="&#x12a;" horiz-adv-x="282" 
d="M417 788h-284l15 65h284zM124 0h-92l177 712h92z" />
    <glyph glyph-name="Iogonek" unicode="&#x12e;" horiz-adv-x="282" 
d="M301 712l-177 -712c-84 -51 -102 -84 -102 -111c0 -18 10 -27 32 -27c13 0 27 2 39 7l-14 -56c-13 -4 -31 -7 -52 -7c-59 0 -88 26 -88 71c0 43 33 80 106 123h-13l177 712h92z" />
    <glyph glyph-name="Itilde" unicode="&#x128;" horiz-adv-x="282" 
d="M416 892h58c-22 -73 -67 -115 -123 -115c-63 0 -88 51 -133 51c-28 0 -47 -17 -58 -51h-60c20 73 66 115 122 115c63 0 90 -51 133 -51c29 0 49 18 61 51zM124 0h-92l177 712h92z" />
    <glyph glyph-name="Jcircumflex" unicode="&#x134;" horiz-adv-x="356" 
d="M332 898h97l79 -138h-79l-52 89l-96 -89h-98zM380 712l-130 -521c-32 -132 -114 -196 -239 -196c-22 0 -44 3 -58 9l19 79c12 -3 27 -5 38 -5c79 0 129 37 155 144l123 490h92z" />
    <glyph glyph-name="Kcommaaccent" unicode="&#x136;" horiz-adv-x="625" 
d="M311 367l247 -367h-112l-231 357h-2l-89 -357h-92l177 712h92l-78 -314h2l354 314h127zM203 -65h89l-22 -89l-81 -103h-38l64 103h-33z" />
    <glyph glyph-name="Lacute" unicode="&#x139;" horiz-adv-x="561" 
d="M313 760h-81l116 138h118zM144 82h363l-19 -82h-456l177 712h92z" />
    <glyph glyph-name="Lcaron" unicode="&#x13d;" horiz-adv-x="561" 
d="M144 82h363l-19 -82h-456l177 712h92zM360 494h-54l83 218h80z" />
    <glyph glyph-name="Lcommaaccent" unicode="&#x13b;" horiz-adv-x="561" 
d="M144 82h363l-19 -82h-456l177 712h92zM265 -154l-81 -103h-38l64 103h-33l21 89h89z" />
    <glyph glyph-name="Ldot" unicode="&#x13f;" horiz-adv-x="641" 
d="M144 82h363l-19 -82h-456l177 712h92zM538 354h-108l28 117h109z" />
    <glyph glyph-name="Lslash" unicode="&#x141;" horiz-adv-x="561" 
d="M507 82l-19 -82h-456l75 300l-92 -47l23 91l91 48l80 320h92l-68 -273l170 88l-23 -92l-170 -88l-66 -265h363z" />
    <glyph glyph-name="Nacute" unicode="&#x143;" horiz-adv-x="755" 
d="M518 760h-81l116 138h118zM598 0h-128l-97 307c-33 106 -66 213 -98 319h-2c-26 -114 -52 -227 -81 -341l-70 -285h-90l177 712h127l97 -307c34 -106 66 -213 98 -319h2c26 114 52 227 80 341l72 285h90z" />
    <glyph glyph-name="Ncaron" unicode="&#x147;" horiz-adv-x="755" 
d="M552 760h-97l-79 138h79l52 -88l96 88h98zM598 0h-128l-97 307c-33 106 -66 213 -98 319h-2c-26 -114 -52 -227 -81 -341l-70 -285h-90l177 712h127l97 -307c34 -106 66 -213 98 -319h2c26 114 52 227 80 341l72 285h90z" />
    <glyph glyph-name="Ncommaaccent" unicode="&#x145;" horiz-adv-x="755" 
d="M598 0h-128l-97 307c-33 106 -66 213 -98 319h-2c-26 -114 -52 -227 -81 -341l-70 -285h-90l177 712h127l97 -307c34 -106 66 -213 98 -319h2c26 114 52 227 80 341l72 285h90zM321 -154l-81 -103h-38l64 103h-33l21 89h89z" />
    <glyph glyph-name="Eng" unicode="&#x14a;" horiz-adv-x="744" 
d="M764 712l-189 -754c-27 -108 -93 -148 -177 -148c-20 0 -37 2 -52 7l16 68c10 -2 20 -3 30 -3c49 0 81 23 98 94l7 25l-122 327c-36 96 -69 191 -102 287h-2c-23 -105 -49 -210 -75 -315l-74 -300h-90l177 712h117l104 -285c35 -95 69 -191 103 -287h2
c23 105 48 211 74 315l64 257h91z" />
    <glyph glyph-name="Ntilde" unicode="&#xd1;" horiz-adv-x="755" 
d="M653 892h58c-22 -73 -67 -115 -123 -115c-63 0 -88 51 -133 51c-28 0 -47 -17 -58 -51h-60c20 73 66 115 122 115c63 0 90 -51 133 -51c29 0 49 18 61 51zM598 0h-128l-97 307c-33 106 -66 213 -98 319h-2c-26 -114 -52 -227 -81 -341l-70 -285h-90l177 712h127l97 -307
c34 -106 66 -213 98 -319h2c26 114 52 227 80 341l72 285h90z" />
    <glyph glyph-name="Oacute" unicode="&#xd3;" horiz-adv-x="732" 
d="M482 760h-81l116 138h118zM444 726c174 0 274 -119 274 -295c0 -201 -134 -445 -380 -445c-174 0 -273 119 -273 295c0 201 133 445 379 445zM441 642c-182 0 -283 -203 -283 -361c0 -126 66 -211 183 -211c181 0 283 201 283 360c0 127 -66 212 -183 212z" />
    <glyph glyph-name="Obreve" unicode="&#x14e;" horiz-adv-x="732" 
d="M586 898h72c-25 -90 -92 -142 -184 -142c-83 0 -129 43 -129 117c0 8 0 16 2 25h59c-1 -5 -1 -10 -1 -14c0 -43 26 -66 71 -66c54 0 93 29 110 80zM444 726c174 0 274 -119 274 -295c0 -201 -134 -445 -380 -445c-174 0 -273 119 -273 295c0 201 133 445 379 445z
M441 642c-182 0 -283 -203 -283 -361c0 -126 66 -211 183 -211c181 0 283 201 283 360c0 127 -66 212 -183 212z" />
    <glyph glyph-name="Ocircumflex" unicode="&#xd4;" horiz-adv-x="732" 
d="M454 898h97l79 -138h-79l-52 89l-96 -89h-98zM444 726c174 0 274 -119 274 -295c0 -201 -134 -445 -380 -445c-174 0 -273 119 -273 295c0 201 133 445 379 445zM441 642c-182 0 -283 -203 -283 -361c0 -126 66 -211 183 -211c181 0 283 201 283 360
c0 127 -66 212 -183 212z" />
    <glyph glyph-name="Odieresis" unicode="&#xd6;" horiz-adv-x="732" 
d="M415 775h-82l25 99h82zM610 775h-82l25 99h82zM444 726c174 0 274 -119 274 -295c0 -201 -134 -445 -380 -445c-174 0 -273 119 -273 295c0 201 133 445 379 445zM441 642c-182 0 -283 -203 -283 -361c0 -126 66 -211 183 -211c181 0 283 201 283 360
c0 127 -66 212 -183 212z" />
    <glyph glyph-name="Ograve" unicode="&#xd2;" horiz-adv-x="732" 
d="M535 760h-72l-93 138h109zM444 726c174 0 274 -119 274 -295c0 -201 -134 -445 -380 -445c-174 0 -273 119 -273 295c0 201 133 445 379 445zM441 642c-182 0 -283 -203 -283 -361c0 -126 66 -211 183 -211c181 0 283 201 283 360c0 127 -66 212 -183 212z" />
    <glyph glyph-name="Ohungarumlaut" unicode="&#x150;" horiz-adv-x="732" 
d="M399 756h-79l138 142h109zM559 756h-79l138 142h109zM444 726c174 0 274 -119 274 -295c0 -201 -134 -445 -380 -445c-174 0 -273 119 -273 295c0 201 133 445 379 445zM441 642c-182 0 -283 -203 -283 -361c0 -126 66 -211 183 -211c181 0 283 201 283 360
c0 127 -66 212 -183 212z" />
    <glyph glyph-name="Omacron" unicode="&#x14c;" horiz-adv-x="732" 
d="M618 788h-284l15 65h284zM444 726c174 0 274 -119 274 -295c0 -201 -134 -445 -380 -445c-174 0 -273 119 -273 295c0 201 133 445 379 445zM441 642c-182 0 -283 -203 -283 -361c0 -126 66 -211 183 -211c181 0 283 201 283 360c0 127 -66 212 -183 212z" />
    <glyph glyph-name="Oslash" unicode="&#xd8;" horiz-adv-x="732" 
d="M755 675l-75 -75c25 -46 39 -103 39 -167c0 -201 -135 -447 -383 -447c-84 0 -151 28 -197 76l-69 -69l-43 44l76 75c-26 46 -39 103 -39 167c0 201 134 447 382 447c83 0 150 -27 196 -75l69 68zM156 281c0 -37 6 -70 16 -99l406 404c-32 38 -78 59 -137 59
c-183 0 -285 -206 -285 -364zM627 430c0 38 -6 72 -17 101l-406 -405c32 -37 78 -59 137 -59c182 0 286 204 286 363z" />
    <glyph glyph-name="Otilde" unicode="&#xd5;" horiz-adv-x="732" 
d="M617 892h58c-22 -73 -67 -115 -123 -115c-63 0 -88 51 -133 51c-28 0 -47 -17 -58 -51h-60c20 73 66 115 122 115c63 0 90 -51 133 -51c29 0 49 18 61 51zM444 726c174 0 274 -119 274 -295c0 -201 -134 -445 -380 -445c-174 0 -273 119 -273 295c0 201 133 445 379 445z
M441 642c-182 0 -283 -203 -283 -361c0 -126 66 -211 183 -211c181 0 283 201 283 360c0 127 -66 212 -183 212z" />
    <glyph glyph-name="OE" unicode="&#x152;" horiz-adv-x="999" 
d="M1029 630h-367l-56 -225h347l-21 -81h-346l-61 -242h378l-20 -82h-511c-201 0 -304 107 -304 304c0 185 127 408 424 408h557zM570 630h-82c-235 0 -324 -182 -324 -320c0 -149 72 -228 215 -228h54z" />
    <glyph glyph-name="Thorn" unicode="&#xde;" horiz-adv-x="613" 
d="M269 582h118c154 0 229 -73 229 -190c0 -108 -82 -239 -273 -239h-182l-37 -153h-92l177 712h92zM249 502l-68 -269h164c128 0 176 84 176 150c0 75 -46 119 -144 119h-128z" />
    <glyph glyph-name="Racute" unicode="&#x154;" horiz-adv-x="640" 
d="M436 760h-81l116 138h118zM209 712h216c146 0 212 -62 212 -169c0 -86 -63 -184 -182 -208v-2c41 -15 60 -47 72 -134l25 -199h-94l-21 188c-9 85 -37 112 -114 112h-124l-75 -300h-92zM281 633l-63 -255h143c134 0 179 87 179 146c0 74 -45 109 -128 109h-131z" />
    <glyph glyph-name="Rcaron" unicode="&#x158;" horiz-adv-x="640" 
d="M470 760h-97l-79 138h79l52 -88l96 88h98zM209 712h216c146 0 212 -62 212 -169c0 -86 -63 -184 -182 -208v-2c41 -15 60 -47 72 -134l25 -199h-94l-21 188c-9 85 -37 112 -114 112h-124l-75 -300h-92zM281 633l-63 -255h143c134 0 179 87 179 146c0 74 -45 109 -128 109
h-131z" />
    <glyph glyph-name="Rcommaaccent" unicode="&#x156;" horiz-adv-x="640" 
d="M209 712h216c146 0 212 -62 212 -169c0 -86 -63 -184 -182 -208v-2c41 -15 60 -47 72 -134l25 -199h-94l-21 188c-9 85 -37 112 -114 112h-124l-75 -300h-92zM281 633l-63 -255h143c134 0 179 87 179 146c0 74 -45 109 -128 109h-131zM295 -154l-81 -103h-38l64 103h-33
l21 89h89z" />
    <glyph glyph-name="Sacute" unicode="&#x15a;" horiz-adv-x="609" 
d="M412 760h-81l116 138h118zM384 726c152 0 226 -61 226 -178c0 -17 -2 -36 -7 -56h-93c3 16 5 30 5 43c0 76 -50 112 -140 112c-107 0 -158 -65 -158 -121c0 -65 48 -90 140 -120c103 -35 187 -72 187 -197c0 -101 -93 -223 -282 -223c-149 0 -234 65 -234 189
c0 18 2 39 7 61h94c-4 -19 -6 -37 -6 -51c0 -82 54 -120 148 -120c129 0 176 77 176 133c0 70 -51 94 -140 125c-104 36 -185 71 -185 192c0 93 85 211 262 211z" />
    <glyph glyph-name="Scaron" unicode="&#x160;" horiz-adv-x="609" 
d="M446 760h-97l-79 138h79l52 -88l96 88h98zM384 726c152 0 226 -61 226 -178c0 -17 -2 -36 -7 -56h-93c3 16 5 30 5 43c0 76 -50 112 -140 112c-107 0 -158 -65 -158 -121c0 -65 48 -90 140 -120c103 -35 187 -72 187 -197c0 -101 -93 -223 -282 -223
c-149 0 -234 65 -234 189c0 18 2 39 7 61h94c-4 -19 -6 -37 -6 -51c0 -82 54 -120 148 -120c129 0 176 77 176 133c0 70 -51 94 -140 125c-104 36 -185 71 -185 192c0 93 85 211 262 211z" />
    <glyph glyph-name="Scedilla" unicode="&#x15e;" horiz-adv-x="609" 
d="M603 492h-93c3 16 5 30 5 43c0 76 -50 112 -140 112c-107 0 -158 -65 -158 -121c0 -65 48 -90 140 -120c103 -35 187 -72 187 -197c0 -96 -84 -211 -254 -222l-44 -49c4 1 12 2 19 2c38 0 65 -24 65 -67c0 -51 -53 -93 -128 -93c-39 0 -74 11 -99 27l21 37
c25 -15 50 -21 76 -21c41 0 66 19 66 47c0 22 -15 36 -42 36c-12 0 -23 -2 -33 -6l-17 16l65 71c-135 6 -211 71 -211 188c0 18 2 39 7 61h94c-4 -19 -6 -37 -6 -51c0 -82 54 -120 148 -120c129 0 176 77 176 133c0 70 -51 94 -140 125c-104 36 -185 71 -185 192
c0 93 85 211 262 211c152 0 226 -61 226 -178c0 -17 -2 -36 -7 -56z" />
    <glyph glyph-name="Scircumflex" unicode="&#x15c;" horiz-adv-x="609" 
d="M384 898h97l79 -138h-79l-52 89l-96 -89h-98zM384 726c152 0 226 -61 226 -178c0 -17 -2 -36 -7 -56h-93c3 16 5 30 5 43c0 76 -50 112 -140 112c-107 0 -158 -65 -158 -121c0 -65 48 -90 140 -120c103 -35 187 -72 187 -197c0 -101 -93 -223 -282 -223
c-149 0 -234 65 -234 189c0 18 2 39 7 61h94c-4 -19 -6 -37 -6 -51c0 -82 54 -120 148 -120c129 0 176 77 176 133c0 70 -51 94 -140 125c-104 36 -185 71 -185 192c0 93 85 211 262 211z" />
    <glyph glyph-name="Scommaaccent" unicode="&#x218;" horiz-adv-x="609" 
d="M384 726c152 0 226 -61 226 -178c0 -17 -2 -36 -7 -56h-93c3 16 5 30 5 43c0 76 -50 112 -140 112c-107 0 -158 -65 -158 -121c0 -65 48 -90 140 -120c103 -35 187 -72 187 -197c0 -101 -93 -223 -282 -223c-149 0 -234 65 -234 189c0 18 2 39 7 61h94
c-4 -19 -6 -37 -6 -51c0 -82 54 -120 148 -120c129 0 176 77 176 133c0 70 -51 94 -140 125c-104 36 -185 71 -185 192c0 93 85 211 262 211zM262 -154l-81 -103h-38l64 103h-33l21 89h89z" />
    <glyph glyph-name="Germandbls" unicode="&#x1e9e;" horiz-adv-x="768" 
d="M746 593l-206 -177c107 -31 167 -94 167 -198c0 -110 -86 -230 -263 -230c-128 0 -195 50 -195 148c0 13 1 29 4 45h92c-3 -11 -4 -22 -4 -32c0 -52 36 -81 111 -81c114 0 159 78 159 142c0 91 -66 136 -187 148l16 68l190 163c-29 35 -81 56 -145 56
c-138 0 -228 -74 -266 -221l-105 -424h-92l107 432c48 189 177 293 366 293c121 0 209 -54 251 -132z" />
    <glyph glyph-name="Tbar" unicode="&#x166;" horiz-adv-x="599" 
d="M440 630l-55 -221h141l-18 -72h-141l-84 -337h-93l84 337h-141l18 72h141l55 221h-243l20 82h579l-20 -82h-243z" />
    <glyph glyph-name="Tcaron" unicode="&#x164;" horiz-adv-x="599" 
d="M465 760h-97l-79 138h79l52 -88l96 88h98zM683 630h-243l-157 -630h-93l157 630h-243l20 82h579z" />
    <glyph glyph-name="Tcedilla" unicode="&#x162;" horiz-adv-x="599" 
d="M683 630h-243l-157 -630h-93l157 630h-243l20 82h579zM247 -154l-81 -103h-38l64 103h-33l21 89h89z" />
    <glyph glyph-name="Tcommaaccent" unicode="&#x21a;" horiz-adv-x="599" 
d="M683 630h-243l-157 -630h-93l157 630h-243l20 82h579zM247 -154l-81 -103h-38l64 103h-33l21 89h89z" />
    <glyph glyph-name="Uacute" unicode="&#xda;" horiz-adv-x="705" 
d="M483 760h-81l116 138h118zM731 712l-121 -483c-40 -159 -147 -243 -301 -243c-144 0 -223 77 -223 214c0 30 4 63 13 100l104 412h92l-107 -431c-8 -29 -11 -53 -11 -75c0 -91 51 -136 140 -136c102 0 176 61 207 182l114 460h93z" />
    <glyph glyph-name="Ubreve" unicode="&#x16c;" horiz-adv-x="705" 
d="M587 898h72c-25 -90 -92 -142 -184 -142c-83 0 -129 43 -129 117c0 8 0 16 2 25h59c-1 -5 -1 -10 -1 -14c0 -43 26 -66 71 -66c54 0 93 29 110 80zM731 712l-121 -483c-40 -159 -147 -243 -301 -243c-144 0 -223 77 -223 214c0 30 4 63 13 100l104 412h92l-107 -431
c-8 -29 -11 -53 -11 -75c0 -91 51 -136 140 -136c102 0 176 61 207 182l114 460h93z" />
    <glyph glyph-name="Ucircumflex" unicode="&#xdb;" horiz-adv-x="705" 
d="M455 898h97l79 -138h-79l-52 89l-96 -89h-98zM731 712l-121 -483c-40 -159 -147 -243 -301 -243c-144 0 -223 77 -223 214c0 30 4 63 13 100l104 412h92l-107 -431c-8 -29 -11 -53 -11 -75c0 -91 51 -136 140 -136c102 0 176 61 207 182l114 460h93z" />
    <glyph glyph-name="Udieresis" unicode="&#xdc;" horiz-adv-x="705" 
d="M416 775h-82l25 99h82zM611 775h-82l25 99h82zM731 712l-121 -483c-40 -159 -147 -243 -301 -243c-144 0 -223 77 -223 214c0 30 4 63 13 100l104 412h92l-107 -431c-8 -29 -11 -53 -11 -75c0 -91 51 -136 140 -136c102 0 176 61 207 182l114 460h93z" />
    <glyph glyph-name="Ugrave" unicode="&#xd9;" horiz-adv-x="705" 
d="M536 760h-72l-93 138h109zM731 712l-121 -483c-40 -159 -147 -243 -301 -243c-144 0 -223 77 -223 214c0 30 4 63 13 100l104 412h92l-107 -431c-8 -29 -11 -53 -11 -75c0 -91 51 -136 140 -136c102 0 176 61 207 182l114 460h93z" />
    <glyph glyph-name="Uhungarumlaut" unicode="&#x170;" horiz-adv-x="705" 
d="M400 756h-79l138 142h109zM560 756h-79l138 142h109zM731 712l-121 -483c-40 -159 -147 -243 -301 -243c-144 0 -223 77 -223 214c0 30 4 63 13 100l104 412h92l-107 -431c-8 -29 -11 -53 -11 -75c0 -91 51 -136 140 -136c102 0 176 61 207 182l114 460h93z" />
    <glyph glyph-name="Umacron" unicode="&#x16a;" horiz-adv-x="705" 
d="M618 788h-284l15 65h284zM731 712l-121 -483c-40 -159 -147 -243 -301 -243c-144 0 -223 77 -223 214c0 30 4 63 13 100l104 412h92l-107 -431c-8 -29 -11 -53 -11 -75c0 -91 51 -136 140 -136c102 0 176 61 207 182l114 460h93z" />
    <glyph glyph-name="Uogonek" unicode="&#x172;" horiz-adv-x="705" 
d="M731 712l-119 -478c-24 -93 -69 -160 -131 -202c-115 -76 -141 -110 -141 -143c0 -18 11 -27 32 -27c13 0 27 2 40 7l-14 -56c-14 -4 -32 -7 -52 -7c-59 0 -88 26 -88 71c0 38 25 72 82 109v2c-10 -2 -20 -2 -31 -2c-146 0 -223 73 -223 214c0 30 4 63 13 100l104 412h92
l-107 -431c-8 -29 -11 -53 -11 -75c0 -91 51 -136 140 -136c102 0 177 62 208 187l113 455h93z" />
    <glyph glyph-name="Uring" unicode="&#x16e;" horiz-adv-x="705" 
d="M481 953c56 0 101 -45 101 -101c0 -55 -45 -100 -101 -100c-55 0 -100 45 -100 100c0 56 45 101 100 101zM481 910c-32 0 -58 -26 -58 -58s26 -57 58 -57c33 0 58 25 58 57s-25 58 -58 58zM731 712l-121 -483c-40 -159 -147 -243 -301 -243c-144 0 -223 77 -223 214
c0 30 4 63 13 100l104 412h92l-107 -431c-8 -29 -11 -53 -11 -75c0 -91 51 -136 140 -136c102 0 176 61 207 182l114 460h93z" />
    <glyph glyph-name="Utilde" unicode="&#x168;" horiz-adv-x="705" 
d="M617 892h58c-22 -73 -67 -115 -123 -115c-63 0 -88 51 -133 51c-28 0 -47 -17 -58 -51h-60c20 73 66 115 122 115c63 0 90 -51 133 -51c29 0 49 18 61 51zM731 712l-121 -483c-40 -159 -147 -243 -301 -243c-144 0 -223 77 -223 214c0 30 4 63 13 100l104 412h92
l-107 -431c-8 -29 -11 -53 -11 -75c0 -91 51 -136 140 -136c102 0 176 61 207 182l114 460h93z" />
    <glyph glyph-name="Wacute" unicode="&#x1e82;" horiz-adv-x="916" 
d="M594 760h-81l116 138h118zM677 0h-132l2 311c0 106 3 213 6 319h-2c-50 -106 -102 -213 -154 -319l-152 -311h-132l11 712h88l-5 -288c-2 -112 -5 -224 -9 -335h2c52 111 107 224 162 336l141 287h129l-2 -287c0 -112 -2 -225 -4 -336h2c51 111 104 223 157 335l138 288
h97z" />
    <glyph glyph-name="Wcircumflex" unicode="&#x174;" horiz-adv-x="916" 
d="M566 898h97l79 -138h-79l-52 89l-96 -89h-98zM677 0h-132l2 311c0 106 3 213 6 319h-2c-50 -106 -102 -213 -154 -319l-152 -311h-132l11 712h88l-5 -288c-2 -112 -5 -224 -9 -335h2c52 111 107 224 162 336l141 287h129l-2 -287c0 -112 -2 -225 -4 -336h2
c51 111 104 223 157 335l138 288h97z" />
    <glyph glyph-name="Wdieresis" unicode="&#x1e84;" horiz-adv-x="916" 
d="M527 775h-82l25 99h82zM722 775h-82l25 99h82zM677 0h-132l2 311c0 106 3 213 6 319h-2c-50 -106 -102 -213 -154 -319l-152 -311h-132l11 712h88l-5 -288c-2 -112 -5 -224 -9 -335h2c52 111 107 224 162 336l141 287h129l-2 -287c0 -112 -2 -225 -4 -336h2
c51 111 104 223 157 335l138 288h97z" />
    <glyph glyph-name="Wgrave" unicode="&#x1e80;" horiz-adv-x="916" 
d="M647 760h-72l-93 138h109zM677 0h-132l2 311c0 106 3 213 6 319h-2c-50 -106 -102 -213 -154 -319l-152 -311h-132l11 712h88l-5 -288c-2 -112 -5 -224 -9 -335h2c52 111 107 224 162 336l141 287h129l-2 -287c0 -112 -2 -225 -4 -336h2c51 111 104 223 157 335l138 288
h97z" />
    <glyph glyph-name="Yacute" unicode="&#xdd;" horiz-adv-x="614" 
d="M426 760h-81l116 138h118zM364 295l-74 -295h-92l73 295l-153 417h96l51 -147c21 -62 42 -125 61 -188h2c51 63 103 126 155 188l124 147h117z" />
    <glyph glyph-name="Ycircumflex" unicode="&#x176;" horiz-adv-x="614" 
d="M398 898h97l79 -138h-79l-52 89l-96 -89h-98zM364 295l-74 -295h-92l73 295l-153 417h96l51 -147c21 -62 42 -125 61 -188h2c51 63 103 126 155 188l124 147h117z" />
    <glyph glyph-name="Ydieresis" unicode="&#x178;" horiz-adv-x="614" 
d="M359 775h-82l25 99h82zM554 775h-82l25 99h82zM364 295l-74 -295h-92l73 295l-153 417h96l51 -147c21 -62 42 -125 61 -188h2c51 63 103 126 155 188l124 147h117z" />
    <glyph glyph-name="Ygrave" unicode="&#x1ef2;" horiz-adv-x="614" 
d="M479 760h-72l-93 138h109zM364 295l-74 -295h-92l73 295l-153 417h96l51 -147c21 -62 42 -125 61 -188h2c51 63 103 126 155 188l124 147h117z" />
    <glyph glyph-name="Zacute" unicode="&#x179;" horiz-adv-x="566" 
d="M409 760h-81l116 138h118zM619 618l-530 -535v-2h415l-19 -81h-530l23 94l531 535v2h-386l20 81h500z" />
    <glyph glyph-name="Zcaron" unicode="&#x17d;" horiz-adv-x="566" 
d="M443 760h-97l-79 138h79l52 -88l96 88h98zM619 618l-530 -535v-2h415l-19 -81h-530l23 94l531 535v2h-386l20 81h500z" />
    <glyph glyph-name="Zdotaccent" unicode="&#x17b;" horiz-adv-x="566" 
d="M443 775h-88l25 99h88zM619 618l-530 -535v-2h415l-19 -81h-530l23 94l531 535v2h-386l20 81h500z" />
    <glyph glyph-name="J.acute.loclNLD" horiz-adv-x="356" 
d="M364 773h-81l116 143h118zM380 712l-130 -521c-32 -132 -114 -196 -239 -196c-22 0 -44 3 -58 9l19 79c12 -3 27 -5 38 -5c79 0 129 37 155 144l123 490h92z" />
    <glyph glyph-name="Ccedilla.ss01" horiz-adv-x="690" 
d="M447 726c151 0 242 -93 242 -227c0 -14 -1 -29 -3 -43h-95c1 12 2 23 2 34c0 94 -60 152 -156 152c-186 0 -279 -211 -279 -366c0 -124 59 -206 168 -206c96 0 181 63 218 160h96c-49 -150 -171 -244 -322 -244c-163 0 -256 111 -256 282c0 200 127 458 385 458z
M210 -211h-115l165 162h84z" />
    <glyph glyph-name="Scedilla.ss01" horiz-adv-x="609" 
d="M384 726c152 0 226 -61 226 -178c0 -17 -2 -36 -7 -56h-93c3 16 5 30 5 43c0 76 -50 112 -140 112c-107 0 -158 -65 -158 -121c0 -65 48 -90 140 -120c103 -35 187 -72 187 -197c0 -101 -93 -223 -282 -223c-149 0 -234 65 -234 189c0 18 2 39 7 61h94
c-4 -19 -6 -37 -6 -51c0 -82 54 -120 148 -120c129 0 176 77 176 133c0 70 -51 94 -140 125c-104 36 -185 71 -185 192c0 93 85 211 262 211zM162 -211h-115l165 162h84z" />
    <glyph glyph-name="Tcedilla.ss01" horiz-adv-x="599" 
d="M683 630h-243l-157 -630h-93l157 630h-243l20 82h579zM148 -211h-115l165 162h84z" />
    <glyph glyph-name="aacute" unicode="&#xe1;" horiz-adv-x="531" 
d="M336 569h-81l116 143h118zM304 522c112 0 177 -49 177 -153c0 -20 -3 -42 -9 -67l-43 -172c-14 -56 -21 -99 -21 -130h-80c0 19 4 43 9 64h-2c-45 -49 -104 -75 -176 -75c-99 0 -154 53 -154 131c0 75 45 152 224 179c49 7 117 14 160 16l3 9c3 15 6 31 6 45
c0 59 -39 85 -99 85c-71 0 -118 -41 -131 -101h-88c21 96 103 169 224 169zM362 205l11 43c-40 -2 -96 -8 -137 -14c-113 -18 -138 -58 -138 -103s32 -74 90 -74c85 0 150 54 174 148z" />
    <glyph glyph-name="abreve" unicode="&#x103;" horiz-adv-x="531" 
d="M440 712h72c-25 -90 -93 -143 -184 -143c-84 0 -129 43 -129 118c0 7 0 16 2 25h59c-1 -5 -1 -10 -1 -15c0 -43 25 -66 71 -66c54 0 93 29 110 81zM304 522c112 0 177 -49 177 -153c0 -20 -3 -42 -9 -67l-43 -172c-14 -56 -21 -99 -21 -130h-80c0 19 4 43 9 64h-2
c-45 -49 -104 -75 -176 -75c-99 0 -154 53 -154 131c0 75 45 152 224 179c49 7 117 14 160 16l3 9c3 15 6 31 6 45c0 59 -39 85 -99 85c-71 0 -118 -41 -131 -101h-88c21 96 103 169 224 169zM362 205l11 43c-40 -2 -96 -8 -137 -14c-113 -18 -138 -58 -138 -103
s32 -74 90 -74c85 0 150 54 174 148z" />
    <glyph glyph-name="acircumflex" unicode="&#xe2;" horiz-adv-x="531" 
d="M484 569h-81l-52 93l-96 -93h-96l149 143h97zM304 522c112 0 177 -49 177 -153c0 -20 -3 -42 -9 -67l-43 -172c-14 -56 -21 -99 -21 -130h-80c0 19 4 43 9 64h-2c-45 -49 -104 -75 -176 -75c-99 0 -154 53 -154 131c0 75 45 152 224 179c49 7 117 14 160 16l3 9
c3 15 6 31 6 45c0 59 -39 85 -99 85c-71 0 -118 -41 -131 -101h-88c21 96 103 169 224 169zM362 205l11 43c-40 -2 -96 -8 -137 -14c-113 -18 -138 -58 -138 -103s32 -74 90 -74c85 0 150 54 174 148z" />
    <glyph glyph-name="adieresis" unicode="&#xe4;" horiz-adv-x="531" 
d="M276 613h-82l24 99h82zM471 613h-82l24 99h82zM304 522c112 0 177 -49 177 -153c0 -20 -3 -42 -9 -67l-43 -172c-14 -56 -21 -99 -21 -130h-80c0 19 4 43 9 64h-2c-45 -49 -104 -75 -176 -75c-99 0 -154 53 -154 131c0 75 45 152 224 179c49 7 117 14 160 16l3 9
c3 15 6 31 6 45c0 59 -39 85 -99 85c-71 0 -118 -41 -131 -101h-88c21 96 103 169 224 169zM362 205l11 43c-40 -2 -96 -8 -137 -14c-113 -18 -138 -58 -138 -103s32 -74 90 -74c85 0 150 54 174 148z" />
    <glyph glyph-name="agrave" unicode="&#xe0;" horiz-adv-x="531" 
d="M333 712l55 -143h-71l-93 143h109zM304 522c112 0 177 -49 177 -153c0 -20 -3 -42 -9 -67l-43 -172c-14 -56 -21 -99 -21 -130h-80c0 19 4 43 9 64h-2c-45 -49 -104 -75 -176 -75c-99 0 -154 53 -154 131c0 75 45 152 224 179c49 7 117 14 160 16l3 9c3 15 6 31 6 45
c0 59 -39 85 -99 85c-71 0 -118 -41 -131 -101h-88c21 96 103 169 224 169zM362 205l11 43c-40 -2 -96 -8 -137 -14c-113 -18 -138 -58 -138 -103s32 -74 90 -74c85 0 150 54 174 148z" />
    <glyph glyph-name="amacron" unicode="&#x101;" horiz-adv-x="531" 
d="M475 616h-284l15 64h285zM304 522c112 0 177 -49 177 -153c0 -20 -3 -42 -9 -67l-43 -172c-14 -56 -21 -99 -21 -130h-80c0 19 4 43 9 64h-2c-45 -49 -104 -75 -176 -75c-99 0 -154 53 -154 131c0 75 45 152 224 179c49 7 117 14 160 16l3 9c3 15 6 31 6 45
c0 59 -39 85 -99 85c-71 0 -118 -41 -131 -101h-88c21 96 103 169 224 169zM362 205l11 43c-40 -2 -96 -8 -137 -14c-113 -18 -138 -58 -138 -103s32 -74 90 -74c85 0 150 54 174 148z" />
    <glyph glyph-name="aogonek" unicode="&#x105;" horiz-adv-x="531" 
d="M304 522c112 0 177 -49 177 -153c0 -20 -3 -42 -9 -67l-43 -172c-14 -56 -21 -99 -21 -130c-84 -51 -102 -84 -102 -111c0 -18 10 -27 32 -27c13 0 27 2 39 7l-14 -56c-13 -4 -31 -7 -52 -7c-59 0 -88 26 -88 71c0 43 33 80 105 123c0 19 4 43 9 64h-2
c-45 -49 -104 -75 -176 -75c-99 0 -154 53 -154 131c0 75 45 152 224 179c49 7 117 14 160 16l3 9c3 15 6 31 6 45c0 59 -39 85 -99 85c-71 0 -118 -41 -131 -101h-88c21 96 103 169 224 169zM188 57c85 0 150 54 174 148l11 43c-40 -2 -96 -8 -137 -14
c-113 -18 -138 -58 -138 -103s32 -74 90 -74z" />
    <glyph glyph-name="aring" unicode="&#xe5;" horiz-adv-x="531" 
d="M335 766c56 0 101 -45 101 -100c0 -56 -45 -101 -101 -101c-55 0 -100 45 -100 101c0 55 45 100 100 100zM335 724c-31 0 -57 -26 -57 -58c0 -33 26 -58 57 -58c33 0 58 25 58 58c0 32 -25 58 -58 58zM304 522c112 0 177 -49 177 -153c0 -20 -3 -42 -9 -67l-43 -172
c-14 -56 -21 -99 -21 -130h-80c0 19 4 43 9 64h-2c-45 -49 -104 -75 -176 -75c-99 0 -154 53 -154 131c0 75 45 152 224 179c49 7 117 14 160 16l3 9c3 15 6 31 6 45c0 59 -39 85 -99 85c-71 0 -118 -41 -131 -101h-88c21 96 103 169 224 169zM362 205l11 43
c-40 -2 -96 -8 -137 -14c-113 -18 -138 -58 -138 -103s32 -74 90 -74c85 0 150 54 174 148z" />
    <glyph glyph-name="atilde" unicode="&#xe3;" horiz-adv-x="531" 
d="M470 706h58c-21 -73 -66 -115 -122 -115c-63 0 -87 51 -132 51c-28 0 -47 -18 -58 -51h-60c20 73 66 115 122 115c63 0 89 -51 132 -51c29 0 48 17 60 51zM304 522c112 0 177 -49 177 -153c0 -20 -3 -42 -9 -67l-43 -172c-14 -56 -21 -99 -21 -130h-80c0 19 4 43 9 64h-2
c-45 -49 -104 -75 -176 -75c-99 0 -154 53 -154 131c0 75 45 152 224 179c49 7 117 14 160 16l3 9c3 15 6 31 6 45c0 59 -39 85 -99 85c-71 0 -118 -41 -131 -101h-88c21 96 103 169 224 169zM362 205l11 43c-40 -2 -96 -8 -137 -14c-113 -18 -138 -58 -138 -103
s32 -74 90 -74c85 0 150 54 174 148z" />
    <glyph glyph-name="ae" unicode="&#xe6;" horiz-adv-x="862" 
d="M815 233h-362c-4 -18 -5 -35 -5 -50c0 -89 46 -129 112 -129c65 0 117 41 140 98h90c-34 -89 -119 -166 -235 -166c-89 0 -145 42 -168 115c-49 -74 -125 -115 -210 -115c-111 0 -172 55 -172 135c0 79 56 179 262 179h121l6 20c3 16 5 30 5 42c0 64 -36 92 -99 92
c-72 0 -118 -41 -132 -101h-88c21 96 103 169 223 169c81 0 137 -27 160 -86c45 51 106 86 183 86c121 0 184 -75 184 -194c0 -25 -4 -54 -15 -95zM641 454c-77 0 -143 -55 -172 -154h276c2 13 3 25 3 36c0 78 -41 118 -107 118zM372 233h-109c-136 0 -166 -52 -167 -100
c1 -49 31 -79 92 -79c88 0 155 58 179 161z" />
    <glyph glyph-name="cacute" unicode="&#x107;" horiz-adv-x="534" 
d="M353 569h-81l116 143h118zM322 522c121 0 190 -72 190 -179c0 -8 0 -16 -1 -25h-91c1 7 1 14 1 20c0 68 -37 112 -104 112c-123 0 -189 -150 -189 -253c0 -87 42 -139 111 -139s127 52 150 119h93c-38 -112 -132 -191 -249 -191c-121 0 -196 79 -196 209
c0 138 93 327 285 327z" />
    <glyph glyph-name="ccaron" unicode="&#x10d;" horiz-adv-x="534" 
d="M387 569h-97l-79 143h81l52 -93l96 93h96zM322 522c121 0 190 -72 190 -179c0 -8 0 -16 -1 -25h-91c1 7 1 14 1 20c0 68 -37 112 -104 112c-123 0 -189 -150 -189 -253c0 -87 42 -139 111 -139s127 52 150 119h93c-38 -112 -132 -191 -249 -191c-121 0 -196 79 -196 209
c0 138 93 327 285 327z" />
    <glyph glyph-name="ccedilla" unicode="&#xe7;" horiz-adv-x="534" 
d="M511 318h-91c1 7 1 14 1 20c0 68 -37 112 -104 112c-123 0 -189 -150 -189 -253c0 -87 42 -139 111 -139s127 52 150 119h93c-34 -102 -115 -176 -217 -189l-45 -50c4 1 12 2 19 2c38 0 65 -24 65 -67c0 -51 -53 -93 -128 -93c-39 0 -74 11 -99 27l21 37
c25 -15 50 -21 76 -21c41 0 66 19 66 47c0 22 -15 36 -42 36c-12 0 -23 -2 -33 -6l-17 16l65 71c-109 8 -176 85 -176 208c0 138 93 327 285 327c121 0 190 -72 190 -179c0 -8 0 -16 -1 -25z" />
    <glyph glyph-name="ccircumflex" unicode="&#x109;" horiz-adv-x="534" 
d="M501 569h-81l-52 93l-96 -93h-96l149 143h97zM322 522c121 0 190 -72 190 -179c0 -8 0 -16 -1 -25h-91c1 7 1 14 1 20c0 68 -37 112 -104 112c-123 0 -189 -150 -189 -253c0 -87 42 -139 111 -139s127 52 150 119h93c-38 -112 -132 -191 -249 -191
c-121 0 -196 79 -196 209c0 138 93 327 285 327z" />
    <glyph glyph-name="cdotaccent" unicode="&#x10b;" horiz-adv-x="534" 
d="M393 613h-88l24 99h88zM322 522c121 0 190 -72 190 -179c0 -8 0 -16 -1 -25h-91c1 7 1 14 1 20c0 68 -37 112 -104 112c-123 0 -189 -150 -189 -253c0 -87 42 -139 111 -139s127 52 150 119h93c-38 -112 -132 -191 -249 -191c-121 0 -196 79 -196 209
c0 138 93 327 285 327z" />
    <glyph glyph-name="eth" unicode="&#xf0;" horiz-adv-x="566" 
d="M535 674l-121 -49c70 -88 116 -193 116 -304c0 -149 -98 -335 -292 -335c-129 0 -201 80 -201 212c0 136 97 313 280 313c41 0 73 -11 95 -31l1 2c-19 39 -44 78 -73 113l-147 -59l-19 48l129 52c-16 17 -34 33 -51 48l67 42c21 -19 41 -38 60 -59l136 55zM243 58
c130 0 196 152 196 250c0 87 -42 139 -119 139c-129 0 -192 -154 -193 -253c1 -86 41 -136 116 -136z" />
    <glyph glyph-name="dcaron" unicode="&#x10f;" horiz-adv-x="575" 
d="M434 0h-87l14 55h-2c-39 -41 -95 -68 -151 -68c-112 0 -174 74 -174 196c0 143 94 337 271 337c73 0 127 -39 144 -99h2l72 291h88zM656 536h-54l73 176h79zM312 449c-121 0 -185 -145 -185 -253c0 -87 38 -138 107 -138c121 0 185 145 185 253c0 87 -38 138 -107 138z
" />
    <glyph glyph-name="dcroat" unicode="&#x111;" horiz-adv-x="570" 
d="M644 580h-66l-144 -580h-87l14 55h-2c-39 -41 -95 -68 -151 -68c-112 0 -174 74 -174 196c0 143 94 337 271 337c73 0 127 -39 144 -99h2l39 159h-130l14 55h130l19 77h88l-19 -77h66zM234 58c121 0 185 145 185 253c0 87 -38 138 -107 138c-121 0 -185 -145 -185 -253
c0 -87 38 -138 107 -138z" />
    <glyph glyph-name="eacute" unicode="&#xe9;" horiz-adv-x="551" 
d="M348 569h-81l116 143h118zM505 236h-379c-4 -20 -6 -37 -6 -53c0 -89 49 -129 120 -129c69 0 124 41 148 98h90c-35 -89 -123 -166 -243 -166c-132 0 -199 78 -199 205c0 142 98 331 289 331c127 0 193 -75 193 -194c0 -24 -4 -52 -13 -92zM321 454
c-80 0 -149 -54 -179 -151h291c2 11 3 23 3 33c0 78 -44 118 -115 118z" />
    <glyph glyph-name="ebreve" unicode="&#x115;" horiz-adv-x="551" 
d="M340 569c-84 0 -129 43 -129 118c0 7 0 16 2 25h59c-1 -5 -1 -10 -1 -15c0 -43 25 -66 71 -66c54 0 93 29 110 81h72c-25 -90 -93 -143 -184 -143zM325 522c127 0 193 -75 193 -194c0 -24 -4 -52 -13 -92h-379c-4 -20 -6 -37 -6 -53c0 -89 49 -129 120 -129
c69 0 124 41 148 98h90c-35 -89 -123 -166 -243 -166c-132 0 -199 78 -199 205c0 142 98 331 289 331zM321 454c-80 0 -149 -54 -179 -151h291c2 11 3 23 3 33c0 78 -44 118 -115 118z" />
    <glyph glyph-name="ecaron" unicode="&#x11b;" horiz-adv-x="551" 
d="M285 569l-79 143h81l52 -93l96 93h96l-149 -143h-97zM325 522c127 0 193 -75 193 -194c0 -24 -4 -52 -13 -92h-379c-4 -20 -6 -37 -6 -53c0 -89 49 -129 120 -129c69 0 124 41 148 98h90c-35 -89 -123 -166 -243 -166c-132 0 -199 78 -199 205c0 142 98 331 289 331z
M321 454c-80 0 -149 -54 -179 -151h291c2 11 3 23 3 33c0 78 -44 118 -115 118z" />
    <glyph glyph-name="ecircumflex" unicode="&#xea;" horiz-adv-x="551" 
d="M267 569h-96l149 143h97l79 -143h-81l-52 93zM505 236h-379c-4 -20 -6 -37 -6 -53c0 -89 49 -129 120 -129c69 0 124 41 148 98h90c-35 -89 -123 -166 -243 -166c-132 0 -199 78 -199 205c0 142 98 331 289 331c127 0 193 -75 193 -194c0 -24 -4 -52 -13 -92zM321 454
c-80 0 -149 -54 -179 -151h291c2 11 3 23 3 33c0 78 -44 118 -115 118z" />
    <glyph glyph-name="edieresis" unicode="&#xeb;" horiz-adv-x="551" 
d="M288 613h-82l24 99h82zM483 613h-82l24 99h82zM505 236h-379c-4 -20 -6 -37 -6 -53c0 -89 49 -129 120 -129c69 0 124 41 148 98h90c-35 -89 -123 -166 -243 -166c-132 0 -199 78 -199 205c0 142 98 331 289 331c127 0 193 -75 193 -194c0 -24 -4 -52 -13 -92zM321 454
c-80 0 -149 -54 -179 -151h291c2 11 3 23 3 33c0 78 -44 118 -115 118z" />
    <glyph glyph-name="edotaccent" unicode="&#x117;" horiz-adv-x="551" 
d="M388 613h-88l24 99h88zM505 236h-379c-4 -20 -6 -37 -6 -53c0 -89 49 -129 120 -129c69 0 124 41 148 98h90c-35 -89 -123 -166 -243 -166c-132 0 -199 78 -199 205c0 142 98 331 289 331c127 0 193 -75 193 -194c0 -24 -4 -52 -13 -92zM321 454
c-80 0 -149 -54 -179 -151h291c2 11 3 23 3 33c0 78 -44 118 -115 118z" />
    <glyph glyph-name="egrave" unicode="&#xe8;" horiz-adv-x="551" 
d="M329 569l-93 143h109l55 -143h-71zM505 236h-379c-4 -20 -6 -37 -6 -53c0 -89 49 -129 120 -129c69 0 124 41 148 98h90c-35 -89 -123 -166 -243 -166c-132 0 -199 78 -199 205c0 142 98 331 289 331c127 0 193 -75 193 -194c0 -24 -4 -52 -13 -92zM321 454
c-80 0 -149 -54 -179 -151h291c2 11 3 23 3 33c0 78 -44 118 -115 118z" />
    <glyph glyph-name="emacron" unicode="&#x113;" horiz-adv-x="551" 
d="M487 616h-284l15 64h285zM505 236h-379c-4 -20 -6 -37 -6 -53c0 -89 49 -129 120 -129c69 0 124 41 148 98h90c-35 -89 -123 -166 -243 -166c-132 0 -199 78 -199 205c0 142 98 331 289 331c127 0 193 -75 193 -194c0 -24 -4 -52 -13 -92zM321 454
c-80 0 -149 -54 -179 -151h291c2 11 3 23 3 33c0 78 -44 118 -115 118z" />
    <glyph glyph-name="eogonek" unicode="&#x119;" horiz-adv-x="549" 
d="M503 236h-379c-3 -20 -5 -37 -5 -53c0 -89 49 -129 120 -129c69 0 124 41 148 98h90c-22 -55 -61 -98 -114 -137c-86 -61 -106 -95 -106 -126c0 -18 11 -27 33 -27c12 0 26 2 39 7l-14 -56c-13 -4 -31 -7 -52 -7c-59 0 -88 26 -88 71c0 38 24 71 78 108v2
c-5 0 -12 -1 -19 -1c-132 0 -199 78 -199 205c0 142 98 331 289 331c127 0 193 -75 193 -194c0 -24 -4 -52 -14 -92zM319 454c-79 0 -148 -54 -178 -151h291c2 11 3 23 3 33c0 78 -44 118 -116 118z" />
    <glyph glyph-name="gbreve" unicode="&#x11f;" horiz-adv-x="573" 
d="M472 712h72c-25 -90 -93 -143 -184 -143c-84 0 -129 43 -129 118c0 7 0 16 2 25h59c-1 -5 -1 -10 -1 -15c0 -43 25 -66 71 -66c54 0 93 29 110 81zM303 521c75 0 126 -39 146 -102h2l22 89h85l-124 -502c-33 -132 -127 -199 -258 -199c-122 0 -187 50 -187 133
c0 9 1 18 3 28h87c-2 -7 -2 -14 -2 -21c0 -46 37 -72 103 -72c89 0 145 45 173 154l11 45h-2c-45 -45 -99 -69 -158 -69c-106 0 -166 76 -166 199c0 135 94 317 265 317zM305 448c-114 0 -175 -143 -175 -235c0 -83 37 -134 104 -134c122 0 185 138 185 235
c0 84 -41 134 -114 134z" />
    <glyph glyph-name="gcircumflex" unicode="&#x11d;" horiz-adv-x="573" 
d="M516 569h-81l-52 93l-96 -93h-96l149 143h97zM303 521c75 0 126 -39 146 -102h2l22 89h85l-124 -502c-33 -132 -127 -199 -258 -199c-122 0 -187 50 -187 133c0 9 1 18 3 28h87c-2 -7 -2 -14 -2 -21c0 -46 37 -72 103 -72c89 0 145 45 173 154l11 45h-2
c-45 -45 -99 -69 -158 -69c-106 0 -166 76 -166 199c0 135 94 317 265 317zM305 448c-114 0 -175 -143 -175 -235c0 -83 37 -134 104 -134c122 0 185 138 185 235c0 84 -41 134 -114 134z" />
    <glyph glyph-name="gcommaaccent" unicode="&#x123;" horiz-adv-x="573" 
d="M387 672h33l-21 -89h-89l21 89l82 103h38zM303 521c75 0 126 -39 146 -102h2l22 89h85l-124 -502c-33 -132 -127 -199 -258 -199c-122 0 -187 50 -187 133c0 9 1 18 3 28h87c-2 -7 -2 -14 -2 -21c0 -46 37 -72 103 -72c89 0 145 45 173 154l11 45h-2
c-45 -45 -99 -69 -158 -69c-106 0 -166 76 -166 199c0 135 94 317 265 317zM305 448c-114 0 -175 -143 -175 -235c0 -83 37 -134 104 -134c122 0 185 138 185 235c0 84 -41 134 -114 134z" />
    <glyph glyph-name="gdotaccent" unicode="&#x121;" horiz-adv-x="573" 
d="M408 613h-88l24 99h88zM303 521c75 0 126 -39 146 -102h2l22 89h85l-124 -502c-33 -132 -127 -199 -258 -199c-122 0 -187 50 -187 133c0 9 1 18 3 28h87c-2 -7 -2 -14 -2 -21c0 -46 37 -72 103 -72c89 0 145 45 173 154l11 45h-2c-45 -45 -99 -69 -158 -69
c-106 0 -166 76 -166 199c0 135 94 317 265 317zM305 448c-114 0 -175 -143 -175 -235c0 -83 37 -134 104 -134c122 0 185 138 185 235c0 84 -41 134 -114 134z" />
    <glyph glyph-name="hbar" unicode="&#x127;" 
d="M374 519c94 0 150 -50 150 -147c0 -23 -3 -47 -10 -75l-74 -297h-88l73 297c6 25 9 46 9 64c0 58 -32 86 -88 86c-71 0 -144 -54 -170 -156l-73 -291h-88l144 580h-71l13 52h71l20 80h88l-20 -80h125l-13 -52h-125l-32 -129h2c41 42 97 68 157 68z" />
    <glyph glyph-name="hcircumflex" unicode="&#x125;" 
d="M400 898h97l79 -138h-79l-52 89l-96 -89h-98zM215 451h2c41 42 97 68 157 68c94 0 150 -50 150 -147c0 -23 -3 -47 -10 -75l-74 -297h-88l73 297c6 25 9 46 9 64c0 58 -32 86 -88 86c-71 0 -144 -54 -170 -156l-73 -291h-88l177 712h88z" />
    <glyph glyph-name="dotlessi" unicode="&#x131;" horiz-adv-x="244" 
d="M103 0h-88l126 508h88z" />
    <glyph glyph-name="iacute" unicode="&#xed;" horiz-adv-x="244" 
d="M216 569h-81l116 143h118zM103 0h-88l126 508h88z" />
    <glyph glyph-name="ibreve" unicode="&#x12d;" horiz-adv-x="244" 
d="M306 712h69c-24 -90 -86 -143 -168 -143c-73 0 -113 42 -113 113c0 10 1 21 3 30h58c-1 -5 -1 -12 -1 -18c0 -41 22 -63 59 -63c44 0 77 29 93 81zM103 0h-88l126 508h88z" />
    <glyph glyph-name="icircumflex" unicode="&#xee;" horiz-adv-x="244" 
d="M348 570h-77l-39 93l-86 -93h-93l135 142h96zM103 0h-88l126 508h88z" />
    <glyph glyph-name="idieresis" unicode="&#xef;" horiz-adv-x="244" 
d="M176 613h-82l24 99h82zM329 613h-81l24 99h82zM103 0h-88l126 508h88z" />
    <glyph glyph-name="idotaccent" horiz-adv-x="244" 
d="M256 613h-88l24 99h88zM103 0h-88l126 508h88z" />
    <glyph glyph-name="igrave" unicode="&#xec;" horiz-adv-x="244" 
d="M213 712l55 -143h-71l-93 143h109zM103 0h-88l126 508h88z" />
    <glyph glyph-name="ij" unicode="&#x133;" horiz-adv-x="493" 
d="M256 613h-88l24 99h88zM505 613h-88l24 99h88zM103 0h-88l126 508h88zM478 508l-137 -548c-27 -108 -91 -149 -172 -149c-21 0 -39 2 -56 7l17 68c9 -2 19 -3 27 -3c52 0 84 25 103 102l130 523h88z" />
    <glyph glyph-name="imacron" unicode="&#x12b;" horiz-adv-x="244" 
d="M340 616h-257l16 64h257zM103 0h-88l126 508h88z" />
    <glyph glyph-name="iogonek" unicode="&#x12f;" horiz-adv-x="244" 
d="M280 712l-24 -99h-88l24 99h88zM141 508h88l-126 -508c-84 -51 -102 -84 -102 -111c0 -18 10 -27 32 -27c13 0 27 2 39 7l-14 -56c-13 -4 -31 -7 -52 -7c-59 0 -88 26 -88 71c0 43 33 80 106 123h-9z" />
    <glyph glyph-name="itilde" unicode="&#x129;" horiz-adv-x="244" 
d="M333 706h56c-21 -73 -63 -115 -115 -115c-54 0 -76 51 -114 51c-23 0 -40 -18 -50 -51h-59c22 73 64 115 115 115c55 0 78 -51 114 -51c24 0 41 17 53 51zM103 0h-88l126 508h88z" />
    <glyph glyph-name="dotlessj" unicode="&#x237;" horiz-adv-x="249" 
d="M234 508l-137 -548c-27 -108 -91 -149 -172 -149c-21 0 -39 2 -56 7l17 68c9 -2 19 -3 27 -3c52 0 84 25 103 102l130 523h88z" />
    <glyph glyph-name="jcircumflex" unicode="&#x135;" horiz-adv-x="249" 
d="M353 570h-77l-39 93l-86 -93h-93l135 142h96zM234 508l-137 -548c-27 -108 -91 -149 -172 -149c-21 0 -39 2 -56 7l17 68c9 -2 19 -3 27 -3c52 0 84 25 103 102l130 523h88z" />
    <glyph glyph-name="kcommaaccent" unicode="&#x137;" horiz-adv-x="500" 
d="M259 271l187 -271h-103l-174 259h-2l-64 -259h-88l177 712h88l-102 -410h2l244 206h121zM160 -65h89l-22 -89l-81 -103h-38l64 103h-33z" />
    <glyph glyph-name="kgreenlandic" unicode="&#x138;" horiz-adv-x="517" 
d="M259 271l187 -271h-103l-174 259h-2l-64 -259h-88l126 508h88l-51 -206h2l244 206h121z" />
    <glyph glyph-name="lacute" unicode="&#x13a;" horiz-adv-x="244" 
d="M286 773h-81l116 143h118zM103 0h-88l177 712h88z" />
    <glyph glyph-name="lcaron" unicode="&#x13e;" horiz-adv-x="244" 
d="M103 0h-88l177 712h88zM326 536h-54l73 176h79z" />
    <glyph glyph-name="lcommaaccent" unicode="&#x13c;" horiz-adv-x="244" 
d="M103 0h-88l177 712h88zM70 -154l-81 -103h-38l64 103h-33l21 89h89z" />
    <glyph glyph-name="ldot" unicode="&#x140;" horiz-adv-x="406" 
d="M103 0h-88l177 712h88zM389 297h-108l28 117h109z" />
    <glyph glyph-name="lslash" unicode="&#x142;" horiz-adv-x="285" 
d="M318 426l-101 -53l-93 -373h-88l82 330l-102 -52l22 88l102 52l73 294h88l-62 -251l101 53z" />
    <glyph glyph-name="nacute" unicode="&#x144;" 
d="M384 569h-81l116 143h118zM374 519c94 0 150 -50 150 -147c0 -23 -3 -47 -10 -75l-74 -297h-88l73 297c6 25 9 46 9 64c0 58 -32 86 -88 86c-71 0 -144 -54 -170 -156l-73 -291h-88l127 508h85l-16 -60h2c42 43 100 71 161 71z" />
    <glyph glyph-name="napostrophe" unicode="&#x149;" horiz-adv-x="694" 
d="M256 604l-81 -134h-53l69 134h-34l26 108h100zM493 519c94 0 150 -50 150 -147c0 -23 -4 -47 -11 -75l-74 -297h-88l74 297c6 25 9 46 9 64c0 58 -32 86 -88 86c-72 0 -145 -54 -170 -156l-73 -291h-88l127 508h84l-15 -60h2c42 43 99 71 161 71z" />
    <glyph glyph-name="ncaron" unicode="&#x148;" 
d="M417 569h-97l-79 143h81l52 -93l96 93h96zM374 519c94 0 150 -50 150 -147c0 -23 -3 -47 -10 -75l-74 -297h-88l73 297c6 25 9 46 9 64c0 58 -32 86 -88 86c-71 0 -144 -54 -170 -156l-73 -291h-88l127 508h85l-16 -60h2c42 43 100 71 161 71z" />
    <glyph glyph-name="ncommaaccent" unicode="&#x146;" 
d="M374 519c94 0 150 -50 150 -147c0 -23 -3 -47 -10 -75l-74 -297h-88l73 297c6 25 9 46 9 64c0 58 -32 86 -88 86c-71 0 -144 -54 -170 -156l-73 -291h-88l127 508h85l-16 -60h2c42 43 100 71 161 71zM233 -154l-81 -103h-38l64 103h-33l21 89h89z" />
    <glyph glyph-name="eng" unicode="&#x14b;" 
d="M374 519c94 0 150 -50 150 -147c0 -23 -3 -47 -10 -75l-85 -337c-27 -108 -92 -149 -172 -149c-21 0 -40 2 -57 7l17 68c10 -2 19 -3 28 -3c51 0 83 25 102 102l78 312c6 25 9 46 9 64c0 58 -32 86 -88 86c-71 0 -144 -54 -170 -156l-73 -291h-88l127 508h85l-16 -60h2
c42 43 99 71 161 71z" />
    <glyph glyph-name="ntilde" unicode="&#xf1;" 
d="M517 706h58c-21 -73 -66 -115 -122 -115c-63 0 -87 51 -132 51c-28 0 -47 -18 -58 -51h-60c20 73 66 115 122 115c63 0 89 -51 132 -51c29 0 48 17 60 51zM374 519c94 0 150 -50 150 -147c0 -23 -3 -47 -10 -75l-74 -297h-88l73 297c6 25 9 46 9 64c0 58 -32 86 -88 86
c-71 0 -144 -54 -170 -156l-73 -291h-88l127 508h85l-16 -60h2c42 43 100 71 161 71z" />
    <glyph glyph-name="oacute" unicode="&#xf3;" horiz-adv-x="565" 
d="M356 569h-81l116 143h118zM321 522c133 0 205 -79 205 -214c0 -141 -95 -322 -284 -322c-132 0 -203 79 -203 214c0 141 94 322 282 322zM314 450c-125 0 -185 -148 -185 -250c0 -89 40 -142 120 -142c126 0 187 148 187 250c0 89 -41 142 -122 142z" />
    <glyph glyph-name="obreve" unicode="&#x14f;" horiz-adv-x="565" 
d="M460 712h72c-25 -90 -93 -143 -184 -143c-84 0 -129 43 -129 118c0 7 0 16 2 25h59c-1 -5 -1 -10 -1 -15c0 -43 25 -66 71 -66c54 0 93 29 110 81zM321 522c133 0 205 -79 205 -214c0 -141 -95 -322 -284 -322c-132 0 -203 79 -203 214c0 141 94 322 282 322zM314 450
c-125 0 -185 -148 -185 -250c0 -89 40 -142 120 -142c126 0 187 148 187 250c0 89 -41 142 -122 142z" />
    <glyph glyph-name="ocircumflex" unicode="&#xf4;" horiz-adv-x="565" 
d="M504 569h-81l-52 93l-96 -93h-96l149 143h97zM321 522c133 0 205 -79 205 -214c0 -141 -95 -322 -284 -322c-132 0 -203 79 -203 214c0 141 94 322 282 322zM314 450c-125 0 -185 -148 -185 -250c0 -89 40 -142 120 -142c126 0 187 148 187 250c0 89 -41 142 -122 142z
" />
    <glyph glyph-name="odieresis" unicode="&#xf6;" horiz-adv-x="565" 
d="M295 613h-82l24 99h82zM490 613h-82l24 99h82zM321 522c133 0 205 -79 205 -214c0 -141 -95 -322 -284 -322c-132 0 -203 79 -203 214c0 141 94 322 282 322zM314 450c-125 0 -185 -148 -185 -250c0 -89 40 -142 120 -142c126 0 187 148 187 250c0 89 -41 142 -122 142z
" />
    <glyph glyph-name="ograve" unicode="&#xf2;" horiz-adv-x="565" 
d="M353 712l55 -143h-71l-93 143h109zM321 522c133 0 205 -79 205 -214c0 -141 -95 -322 -284 -322c-132 0 -203 79 -203 214c0 141 94 322 282 322zM314 450c-125 0 -185 -148 -185 -250c0 -89 40 -142 120 -142c126 0 187 148 187 250c0 89 -41 142 -122 142z" />
    <glyph glyph-name="ohungarumlaut" unicode="&#x151;" horiz-adv-x="565" 
d="M282 569h-79l136 143h109zM442 569h-79l136 143h109zM321 522c133 0 205 -79 205 -214c0 -141 -95 -322 -284 -322c-132 0 -203 79 -203 214c0 141 94 322 282 322zM314 450c-125 0 -185 -148 -185 -250c0 -89 40 -142 120 -142c126 0 187 148 187 250
c0 89 -41 142 -122 142z" />
    <glyph glyph-name="omacron" unicode="&#x14d;" horiz-adv-x="565" 
d="M495 616h-284l15 64h285zM321 522c133 0 205 -79 205 -214c0 -141 -95 -322 -284 -322c-132 0 -203 79 -203 214c0 141 94 322 282 322zM314 450c-125 0 -185 -148 -185 -250c0 -89 40 -142 120 -142c126 0 187 148 187 250c0 89 -41 142 -122 142z" />
    <glyph glyph-name="oslash" unicode="&#xf8;" horiz-adv-x="566" 
d="M562 495l-63 -62c18 -34 28 -76 28 -125c0 -141 -97 -322 -288 -322c-60 0 -107 17 -141 48l-59 -58l-38 38l64 64c-18 33 -27 74 -27 122c0 141 97 322 287 322c59 0 106 -16 140 -47l58 58zM318 452c-130 0 -193 -150 -193 -252c0 -20 2 -39 6 -56l275 273
c-21 22 -50 35 -88 35zM246 56c131 0 193 150 193 252c0 21 -3 41 -7 58l-275 -274c20 -23 50 -36 89 -36z" />
    <glyph glyph-name="otilde" unicode="&#xf5;" horiz-adv-x="565" 
d="M489 706h58c-21 -73 -66 -115 -122 -115c-63 0 -87 51 -132 51c-28 0 -47 -18 -58 -51h-60c20 73 66 115 122 115c63 0 89 -51 132 -51c29 0 48 17 60 51zM321 522c133 0 205 -79 205 -214c0 -141 -95 -322 -284 -322c-132 0 -203 79 -203 214c0 141 94 322 282 322z
M314 450c-125 0 -185 -148 -185 -250c0 -89 40 -142 120 -142c126 0 187 148 187 250c0 89 -41 142 -122 142z" />
    <glyph glyph-name="oe" unicode="&#x153;" horiz-adv-x="897" 
d="M852 236h-360c-4 -20 -6 -38 -6 -55c0 -87 45 -127 109 -127c65 0 117 41 141 98h90c-35 -89 -121 -166 -237 -166c-83 0 -137 39 -162 106c-45 -62 -112 -106 -200 -106c-122 0 -189 78 -189 211c0 142 94 325 276 325c85 0 143 -40 169 -112c45 65 113 112 201 112
c120 0 181 -73 181 -191c0 -26 -3 -54 -13 -95zM675 454c-73 0 -138 -54 -167 -151h273c2 12 3 24 3 35c0 77 -41 116 -109 116zM239 58c122 0 182 150 182 253c0 87 -36 139 -109 139c-123 0 -184 -150 -184 -253c0 -87 38 -139 111 -139z" />
    <glyph glyph-name="thorn" unicode="&#xfe;" horiz-adv-x="577" 
d="M217 454h2c38 41 93 67 149 67c111 0 174 -74 174 -196c0 -143 -94 -337 -271 -337c-73 0 -127 39 -144 99h-2l-68 -272h-88l223 897h88zM342 450c-122 0 -185 -145 -185 -253c0 -87 38 -138 106 -138c122 0 186 145 186 253c0 87 -38 138 -107 138z" />
    <glyph glyph-name="racute" unicode="&#x155;" horiz-adv-x="362" 
d="M300 569h-81l116 143h118zM378 513c11 0 26 -1 37 -4l-20 -79c-11 1 -24 3 -35 3c-96 0 -165 -62 -193 -174l-64 -259h-88l126 508h84l-18 -71h2c49 51 105 76 169 76z" />
    <glyph glyph-name="rcaron" unicode="&#x159;" horiz-adv-x="362" 
d="M334 569h-97l-79 143h81l52 -93l96 93h96zM378 513c11 0 26 -1 37 -4l-20 -79c-11 1 -24 3 -35 3c-96 0 -165 -62 -193 -174l-64 -259h-88l126 508h84l-18 -71h2c49 51 105 76 169 76z" />
    <glyph glyph-name="rcommaaccent" unicode="&#x157;" horiz-adv-x="362" 
d="M378 513c11 0 26 -1 37 -4l-20 -79c-11 1 -24 3 -35 3c-96 0 -165 -62 -193 -174l-64 -259h-88l126 508h84l-18 -71h2c49 51 105 76 169 76zM70 -154l-81 -103h-38l64 103h-33l21 89h89z" />
    <glyph glyph-name="sacute" unicode="&#x15b;" horiz-adv-x="494" 
d="M322 569h-81l116 143h118zM287 522c116 0 177 -47 177 -134c0 -12 -1 -26 -4 -39h-85c1 9 3 21 3 31c0 48 -35 74 -99 74c-66 0 -108 -30 -108 -78c0 -45 31 -56 101 -79c74 -24 151 -47 151 -148c0 -80 -71 -163 -219 -163c-121 0 -191 49 -191 141c0 14 1 29 5 42h89
c-3 -11 -4 -23 -4 -34c0 -51 37 -79 108 -79c78 0 120 33 120 85c0 49 -38 64 -115 89c-67 22 -133 41 -133 137c0 77 70 155 204 155z" />
    <glyph glyph-name="scaron" unicode="&#x161;" horiz-adv-x="494" 
d="M356 569h-97l-79 143h81l52 -93l96 93h96zM287 522c116 0 177 -47 177 -134c0 -12 -1 -26 -4 -39h-85c1 9 3 21 3 31c0 48 -35 74 -99 74c-66 0 -108 -30 -108 -78c0 -45 31 -56 101 -79c74 -24 151 -47 151 -148c0 -80 -71 -163 -219 -163c-121 0 -191 49 -191 141
c0 14 1 29 5 42h89c-3 -11 -4 -23 -4 -34c0 -51 37 -79 108 -79c78 0 120 33 120 85c0 49 -38 64 -115 89c-67 22 -133 41 -133 137c0 77 70 155 204 155z" />
    <glyph glyph-name="scedilla" unicode="&#x15f;" horiz-adv-x="494" 
d="M460 349h-85c1 9 3 21 3 31c0 48 -35 74 -99 74c-66 0 -108 -30 -108 -78c0 -45 31 -56 101 -79c74 -24 151 -47 151 -148c0 -75 -62 -152 -191 -162l-44 -49c4 1 12 2 19 2c38 0 65 -24 65 -67c0 -51 -53 -93 -128 -93c-39 0 -74 11 -99 27l21 37c25 -15 50 -21 76 -21
c41 0 66 19 66 47c0 22 -15 36 -42 36c-12 0 -23 -2 -33 -6l-17 16l65 71c-107 6 -168 54 -168 140c0 14 1 29 5 42h89c-3 -11 -4 -23 -4 -34c0 -51 37 -79 108 -79c78 0 120 33 120 85c0 49 -38 64 -115 89c-67 22 -133 41 -133 137c0 77 70 155 204 155
c116 0 177 -47 177 -134c0 -12 -1 -26 -4 -39z" />
    <glyph glyph-name="scircumflex" unicode="&#x15d;" horiz-adv-x="494" 
d="M470 569h-81l-52 93l-96 -93h-96l149 143h97zM287 522c116 0 177 -47 177 -134c0 -12 -1 -26 -4 -39h-85c1 9 3 21 3 31c0 48 -35 74 -99 74c-66 0 -108 -30 -108 -78c0 -45 31 -56 101 -79c74 -24 151 -47 151 -148c0 -80 -71 -163 -219 -163c-121 0 -191 49 -191 141
c0 14 1 29 5 42h89c-3 -11 -4 -23 -4 -34c0 -51 37 -79 108 -79c78 0 120 33 120 85c0 49 -38 64 -115 89c-67 22 -133 41 -133 137c0 77 70 155 204 155z" />
    <glyph glyph-name="scommaaccent" unicode="&#x219;" horiz-adv-x="494" 
d="M287 522c116 0 177 -47 177 -134c0 -12 -1 -26 -4 -39h-85c1 9 3 21 3 31c0 48 -35 74 -99 74c-66 0 -108 -30 -108 -78c0 -45 31 -56 101 -79c74 -24 151 -47 151 -148c0 -80 -71 -163 -219 -163c-121 0 -191 49 -191 141c0 14 1 29 5 42h89c-3 -11 -4 -23 -4 -34
c0 -51 37 -79 108 -79c78 0 120 33 120 85c0 49 -38 64 -115 89c-67 22 -133 41 -133 137c0 77 70 155 204 155zM204 -154l-81 -103h-38l64 103h-33l21 89h89z" />
    <glyph glyph-name="germandbls" unicode="&#xdf;" horiz-adv-x="557" 
d="M383 726c111 0 177 -56 177 -145c0 -74 -47 -157 -157 -185v-2c66 -20 104 -69 104 -154c0 -114 -89 -246 -275 -246c-18 0 -41 3 -58 9l18 72c10 -3 25 -5 38 -5c132 0 188 96 188 173c0 72 -43 114 -124 114h-5l19 78c124 0 163 76 163 131c0 56 -33 86 -95 86
c-74 0 -123 -49 -148 -148l-125 -504h-88l128 515c33 134 119 211 240 211z" />
    <glyph glyph-name="longs" unicode="&#x17f;" horiz-adv-x="305" 
d="M351 717c20 0 42 -3 55 -6l-16 -67c-7 2 -17 3 -28 3c-49 0 -81 -25 -97 -92l-139 -555h-87l109 438h-89l17 70h90l17 70c24 95 82 139 168 139z" />
    <glyph glyph-name="tbar" unicode="&#x167;" horiz-adv-x="318" 
d="M233 438l-34 -136h97l-14 -59h-98l-21 -86c-4 -15 -6 -28 -6 -38c0 -35 17 -50 56 -50c13 0 26 2 35 4l-19 -72c-11 -3 -29 -5 -42 -5c-82 0 -119 31 -119 105c0 17 2 38 9 62l20 80h-86l14 59h86l34 136h-89l18 70h89l30 123h88l-31 -123h101l-18 -70h-100z" />
    <glyph glyph-name="tcaron" unicode="&#x165;" horiz-adv-x="320" 
d="M345 536h-54l73 176h79zM250 508h101l-18 -70h-100l-70 -281c-4 -15 -6 -28 -6 -38c0 -35 17 -50 56 -50c13 0 26 2 35 4l-19 -72c-11 -3 -29 -5 -42 -5c-82 0 -120 31 -120 105c0 17 3 38 9 62l69 275h-89l18 70h88l31 123h88z" />
    <glyph glyph-name="tcedilla" unicode="&#x163;" horiz-adv-x="320" 
d="M233 438l-70 -281c-4 -15 -6 -28 -6 -38c0 -35 17 -50 56 -50c13 0 26 2 35 4l-19 -72c-11 -3 -29 -5 -42 -5c-82 0 -120 31 -120 105c0 17 3 38 9 62l69 275h-89l18 70h88l31 123h88l-31 -123h101l-18 -70h-100zM64 -65h89l-22 -89l-81 -103h-38l64 103h-33z" />
    <glyph glyph-name="tcommaaccent" unicode="&#x21b;" horiz-adv-x="320" 
d="M233 438l-70 -281c-4 -15 -6 -28 -6 -38c0 -35 17 -50 56 -50c13 0 26 2 35 4l-19 -72c-11 -3 -29 -5 -42 -5c-82 0 -120 31 -120 105c0 17 3 38 9 62l69 275h-89l18 70h88l31 123h88l-31 -123h101l-18 -70h-100zM64 -65h89l-22 -89l-81 -103h-38l64 103h-33z" />
    <glyph glyph-name="uacute" unicode="&#xfa;" 
d="M371 569h-81l116 143h118zM201 -11c-93 0 -150 50 -150 147c0 23 4 47 11 75l74 297h88l-74 -297c-6 -25 -8 -46 -8 -64c0 -58 32 -86 87 -86c72 0 145 54 171 156l73 291h88l-127 -508h-85l15 60h-2c-41 -43 -99 -71 -161 -71z" />
    <glyph glyph-name="ubreve" unicode="&#x16d;" 
d="M476 712h72c-25 -90 -93 -143 -184 -143c-84 0 -129 43 -129 118c0 7 0 16 2 25h59c-1 -5 -1 -10 -1 -15c0 -43 25 -66 71 -66c54 0 93 29 110 81zM201 -11c-93 0 -150 50 -150 147c0 23 4 47 11 75l74 297h88l-74 -297c-6 -25 -8 -46 -8 -64c0 -58 32 -86 87 -86
c72 0 145 54 171 156l73 291h88l-127 -508h-85l15 60h-2c-41 -43 -99 -71 -161 -71z" />
    <glyph glyph-name="ucircumflex" unicode="&#xfb;" 
d="M519 569h-81l-52 93l-96 -93h-96l149 143h97zM201 -11c-93 0 -150 50 -150 147c0 23 4 47 11 75l74 297h88l-74 -297c-6 -25 -8 -46 -8 -64c0 -58 32 -86 87 -86c72 0 145 54 171 156l73 291h88l-127 -508h-85l15 60h-2c-41 -43 -99 -71 -161 -71z" />
    <glyph glyph-name="udieresis" unicode="&#xfc;" 
d="M311 613h-82l24 99h82zM506 613h-82l24 99h82zM201 -11c-93 0 -150 50 -150 147c0 23 4 47 11 75l74 297h88l-74 -297c-6 -25 -8 -46 -8 -64c0 -58 32 -86 87 -86c72 0 145 54 171 156l73 291h88l-127 -508h-85l15 60h-2c-41 -43 -99 -71 -161 -71z" />
    <glyph glyph-name="ugrave" unicode="&#xf9;" 
d="M368 712l55 -143h-71l-93 143h109zM201 -11c-93 0 -150 50 -150 147c0 23 4 47 11 75l74 297h88l-74 -297c-6 -25 -8 -46 -8 -64c0 -58 32 -86 87 -86c72 0 145 54 171 156l73 291h88l-127 -508h-85l15 60h-2c-41 -43 -99 -71 -161 -71z" />
    <glyph glyph-name="uhungarumlaut" unicode="&#x171;" 
d="M298 569h-79l136 143h109zM458 569h-79l136 143h109zM201 -11c-93 0 -150 50 -150 147c0 23 4 47 11 75l74 297h88l-74 -297c-6 -25 -8 -46 -8 -64c0 -58 32 -86 87 -86c72 0 145 54 171 156l73 291h88l-127 -508h-85l15 60h-2c-41 -43 -99 -71 -161 -71z" />
    <glyph glyph-name="umacron" unicode="&#x16b;" 
d="M510 616h-284l15 64h285zM201 -11c-93 0 -150 50 -150 147c0 23 4 47 11 75l74 297h88l-74 -297c-6 -25 -8 -46 -8 -64c0 -58 32 -86 87 -86c72 0 145 54 171 156l73 291h88l-127 -508h-85l15 60h-2c-41 -43 -99 -71 -161 -71z" />
    <glyph glyph-name="uogonek" unicode="&#x173;" 
d="M561 508l-127 -508c-84 -51 -102 -84 -102 -111c0 -18 10 -27 32 -27c13 0 27 2 39 7l-14 -56c-13 -4 -31 -7 -52 -7c-59 0 -88 26 -88 71c0 43 33 80 106 123h-6l15 60h-2c-41 -43 -99 -71 -161 -71c-93 0 -150 50 -150 147c0 23 4 47 11 75l74 297h88l-74 -297
c-6 -25 -8 -46 -8 -64c0 -58 32 -86 87 -86c72 0 145 54 171 156l73 291h88z" />
    <glyph glyph-name="uring" unicode="&#x16f;" 
d="M370 766c56 0 101 -45 101 -100c0 -56 -45 -101 -101 -101c-55 0 -100 45 -100 101c0 55 45 100 100 100zM370 724c-31 0 -57 -26 -57 -58c0 -33 26 -58 57 -58c33 0 58 25 58 58c0 32 -25 58 -58 58zM201 -11c-93 0 -150 50 -150 147c0 23 4 47 11 75l74 297h88
l-74 -297c-6 -25 -8 -46 -8 -64c0 -58 32 -86 87 -86c72 0 145 54 171 156l73 291h88l-127 -508h-85l15 60h-2c-41 -43 -99 -71 -161 -71z" />
    <glyph glyph-name="utilde" unicode="&#x169;" 
d="M505 706h58c-21 -73 -66 -115 -122 -115c-63 0 -87 51 -132 51c-28 0 -47 -18 -58 -51h-60c20 73 66 115 122 115c63 0 89 -51 132 -51c29 0 48 17 60 51zM201 -11c-93 0 -150 50 -150 147c0 23 4 47 11 75l74 297h88l-74 -297c-6 -25 -8 -46 -8 -64c0 -58 32 -86 87 -86
c72 0 145 54 171 156l73 291h88l-127 -508h-85l15 60h-2c-41 -43 -99 -71 -161 -71z" />
    <glyph glyph-name="wacute" unicode="&#x1e83;" horiz-adv-x="770" 
d="M474 569h-81l116 143h118zM565 0h-126l-5 220l-3 220h-2c-36 -74 -71 -146 -109 -220l-115 -220h-126l-9 508h85l1 -212c1 -75 1 -153 0 -228h2c36 73 73 149 111 223l111 217h127l4 -217c1 -74 2 -150 1 -223h2c36 75 73 153 111 228l107 212h94z" />
    <glyph glyph-name="wcircumflex" unicode="&#x175;" horiz-adv-x="770" 
d="M622 569h-81l-52 93l-96 -93h-96l149 143h97zM565 0h-126l-5 220l-3 220h-2c-36 -74 -71 -146 -109 -220l-115 -220h-126l-9 508h85l1 -212c1 -75 1 -153 0 -228h2c36 73 73 149 111 223l111 217h127l4 -217c1 -74 2 -150 1 -223h2c36 75 73 153 111 228l107 212h94z" />
    <glyph glyph-name="wdieresis" unicode="&#x1e85;" horiz-adv-x="770" 
d="M414 613h-82l24 99h82zM609 613h-82l24 99h82zM565 0h-126l-5 220l-3 220h-2c-36 -74 -71 -146 -109 -220l-115 -220h-126l-9 508h85l1 -212c1 -75 1 -153 0 -228h2c36 73 73 149 111 223l111 217h127l4 -217c1 -74 2 -150 1 -223h2c36 75 73 153 111 228l107 212h94z
" />
    <glyph glyph-name="wgrave" unicode="&#x1e81;" horiz-adv-x="770" 
d="M471 712l55 -143h-71l-93 143h109zM565 0h-126l-5 220l-3 220h-2c-36 -74 -71 -146 -109 -220l-115 -220h-126l-9 508h85l1 -212c1 -75 1 -153 0 -228h2c36 73 73 149 111 223l111 217h127l4 -217c1 -74 2 -150 1 -223h2c36 75 73 153 111 228l107 212h94z" />
    <glyph glyph-name="yacute" unicode="&#xfd;" horiz-adv-x="472" 
d="M310 569h-81l116 143h118zM541 508l-333 -531c-81 -130 -140 -166 -246 -166c-20 0 -38 2 -52 7l18 72c11 -4 25 -6 40 -6c68 0 100 26 156 114l-67 510h88l47 -404h2l247 404h100z" />
    <glyph glyph-name="ycircumflex" unicode="&#x177;" horiz-adv-x="472" 
d="M458 569h-81l-52 93l-96 -93h-96l149 143h97zM541 508l-333 -531c-81 -130 -140 -166 -246 -166c-20 0 -38 2 -52 7l18 72c11 -4 25 -6 40 -6c68 0 100 26 156 114l-67 510h88l47 -404h2l247 404h100z" />
    <glyph glyph-name="ydieresis" unicode="&#xff;" horiz-adv-x="472" 
d="M249 613h-82l24 99h82zM444 613h-82l24 99h82zM541 508l-333 -531c-81 -130 -140 -166 -246 -166c-20 0 -38 2 -52 7l18 72c11 -4 25 -6 40 -6c68 0 100 26 156 114l-67 510h88l47 -404h2l247 404h100z" />
    <glyph glyph-name="ygrave" unicode="&#x1ef3;" horiz-adv-x="472" 
d="M307 712l55 -143h-71l-93 143h109zM541 508l-333 -531c-81 -130 -140 -166 -246 -166c-20 0 -38 2 -52 7l18 72c11 -4 25 -6 40 -6c68 0 100 26 156 114l-67 510h88l47 -404h2l247 404h100z" />
    <glyph glyph-name="zacute" unicode="&#x17a;" horiz-adv-x="469" 
d="M309 569h-81l116 143h118zM477 427l-383 -353v-2h303l-17 -72h-417l20 81l382 353v2h-283l18 72h397z" />
    <glyph glyph-name="zcaron" unicode="&#x17e;" horiz-adv-x="469" 
d="M343 569h-97l-79 143h81l52 -93l96 93h96zM477 427l-383 -353v-2h303l-17 -72h-417l20 81l382 353v2h-283l18 72h397z" />
    <glyph glyph-name="zdotaccent" unicode="&#x17c;" horiz-adv-x="469" 
d="M349 613h-88l24 99h88zM477 427l-383 -353v-2h303l-17 -72h-417l20 81l382 353v2h-283l18 72h397z" />
    <glyph glyph-name="j.acute.loclNLD" horiz-adv-x="249" 
d="M221 569h-81l116 143h118zM234 508l-137 -548c-27 -108 -91 -149 -172 -149c-21 0 -39 2 -56 7l17 68c9 -2 19 -3 27 -3c52 0 84 25 103 102l130 523h88z" />
    <glyph glyph-name="ccedilla.ss01" horiz-adv-x="534" 
d="M322 522c121 0 190 -72 190 -179c0 -8 0 -16 -1 -25h-91c1 7 1 14 1 20c0 68 -37 112 -104 112c-123 0 -189 -150 -189 -253c0 -87 42 -139 111 -139s127 52 150 119h93c-38 -112 -132 -191 -249 -191c-121 0 -196 79 -196 209c0 138 93 327 285 327zM136 -211h-115
l165 162h84z" />
    <glyph glyph-name="scedilla.ss01" horiz-adv-x="494" 
d="M287 522c116 0 177 -47 177 -134c0 -12 -1 -26 -4 -39h-85c1 9 3 21 3 31c0 48 -35 74 -99 74c-66 0 -108 -30 -108 -78c0 -45 31 -56 101 -79c74 -24 151 -47 151 -148c0 -80 -71 -163 -219 -163c-121 0 -191 49 -191 141c0 14 1 29 5 42h89c-3 -11 -4 -23 -4 -34
c0 -51 37 -79 108 -79c78 0 120 33 120 85c0 49 -38 64 -115 89c-67 22 -133 41 -133 137c0 77 70 155 204 155zM104 -211h-115l165 162h84z" />
    <glyph glyph-name="tcedilla.ss01" horiz-adv-x="320" 
d="M233 438l-70 -281c-4 -15 -6 -28 -6 -38c0 -35 17 -50 56 -50c13 0 26 2 35 4l-19 -72c-11 -3 -29 -5 -42 -5c-82 0 -120 31 -120 105c0 17 3 38 9 62l69 275h-89l18 70h88l31 123h88l-31 -123h101l-18 -70h-100zM82 -49h84l-134 -162h-115z" />
    <glyph glyph-name="a.sups" horiz-adv-x="393" 
d="M286 696c85 0 133 -36 133 -110c0 -14 -2 -30 -6 -46l-29 -116c-10 -42 -15 -72 -14 -94h-70c0 12 2 26 5 37h-2c-32 -29 -73 -45 -123 -45c-72 0 -113 39 -113 93c0 53 34 108 165 127c35 5 81 9 110 10l2 6c3 10 4 20 4 29c0 38 -26 54 -67 54c-47 0 -77 -25 -86 -64
h-76c15 66 75 119 167 119zM324 474l6 26c-26 -2 -63 -6 -91 -10c-76 -11 -93 -36 -93 -66c0 -28 21 -46 61 -46c57 0 101 35 117 96z" />
    <glyph glyph-name="b.sups" horiz-adv-x="424" 
d="M230 654h2c26 25 64 41 103 41c81 0 127 -52 127 -139c0 -101 -68 -235 -196 -235c-50 0 -89 26 -103 64h-1l-14 -55h-74l125 498h75zM310 636c-80 0 -124 -93 -124 -164c0 -56 26 -90 71 -90c82 0 124 93 124 163c0 57 -25 91 -71 91z" />
    <glyph glyph-name="c.sups" horiz-adv-x="393" 
d="M298 696c92 0 145 -52 145 -131c0 -5 -1 -10 -2 -15h-78c1 3 2 8 2 13c0 43 -27 72 -73 72c-81 0 -124 -98 -124 -164c0 -56 28 -90 73 -90s82 35 96 77h81c-28 -81 -96 -138 -183 -138c-89 0 -146 57 -146 151c0 95 67 225 209 225z" />
    <glyph glyph-name="d.sups" horiz-adv-x="423" 
d="M388 330h-74l9 33h-2c-27 -25 -67 -42 -105 -42c-82 0 -128 52 -128 139c0 101 69 235 197 235c48 0 87 -25 101 -62h2l48 195h76zM293 634c-81 0 -124 -93 -124 -163c0 -57 26 -91 71 -91c81 0 124 93 124 164c0 56 -25 90 -71 90z" />
    <glyph glyph-name="e.sups" horiz-adv-x="404" 
d="M434 492h-269c-3 -12 -4 -23 -4 -33c0 -58 34 -83 81 -83c46 0 82 26 98 61h77c-25 -62 -89 -117 -177 -117c-101 0 -150 57 -150 149c0 97 69 227 209 227c96 0 145 -54 145 -140c0 -18 -3 -36 -10 -64zM296 640c-53 0 -100 -33 -120 -98h195c1 8 2 16 2 23
c0 50 -28 75 -77 75z" />
    <glyph glyph-name="egrave.sups" horiz-adv-x="404" 
d="M291 729l-79 99h97l49 -99h-67zM434 492h-269c-3 -12 -4 -23 -4 -33c0 -58 34 -83 81 -83c46 0 82 26 98 61h77c-25 -62 -89 -117 -177 -117c-101 0 -150 57 -150 149c0 97 69 227 209 227c96 0 145 -54 145 -140c0 -18 -3 -36 -10 -64zM296 640c-53 0 -100 -33 -120 -98
h195c1 8 2 16 2 23c0 50 -28 75 -77 75z" />
    <glyph glyph-name="f.sups" horiz-adv-x="230" 
d="M319 832c16 0 33 -2 45 -4l-14 -57c-5 1 -13 3 -21 3c-35 0 -56 -17 -68 -61l-7 -27h71l-14 -59h-71l-74 -297h-75l74 297h-63l15 59h63l11 46c18 69 62 100 128 100z" />
    <glyph glyph-name="g.sups" horiz-adv-x="421" 
d="M281 695c51 0 88 -23 105 -63h1l14 54h72l-87 -354c-23 -93 -92 -138 -191 -138c-90 0 -138 36 -138 95c0 6 0 12 2 19h73c-1 -5 -1 -9 -1 -14c0 -29 24 -45 68 -45c61 0 98 29 117 101l5 23h-1c-31 -26 -69 -40 -108 -40c-77 0 -121 55 -121 143c0 94 67 219 190 219z
M285 635c-75 0 -116 -94 -116 -153c0 -53 25 -87 69 -87c83 0 125 89 125 152c0 55 -28 88 -78 88z" />
    <glyph glyph-name="h.sups" horiz-adv-x="422" 
d="M229 648h1c28 28 67 46 109 46c69 0 110 -36 110 -105c0 -15 -2 -33 -7 -51l-52 -208h-76l52 207c4 16 6 30 6 41c0 36 -21 55 -58 55c-48 0 -98 -34 -115 -104l-50 -199h-75l124 498h75z" />
    <glyph glyph-name="i.sups" horiz-adv-x="185" 
d="M255 754h-75l18 74h75zM149 330h-75l88 356h75z" />
    <glyph glyph-name="j.sups" horiz-adv-x="190" 
d="M260 754h-76l18 74h76zM243 686l-96 -381c-19 -77 -68 -108 -128 -108c-18 0 -33 2 -47 6l14 58c7 -3 14 -3 20 -3c37 0 59 17 72 69l89 359h76z" />
    <glyph glyph-name="k.sups" horiz-adv-x="372" 
d="M271 518l126 -188h-88l-113 180h-2l-45 -180h-75l124 498h75l-70 -282h2l160 140h103z" />
    <glyph glyph-name="l.sups" horiz-adv-x="185" 
d="M149 330h-75l124 498h75z" />
    <glyph glyph-name="m.sups" horiz-adv-x="631" 
d="M553 694c68 0 105 -35 105 -103c0 -16 -3 -34 -8 -55l-52 -206h-75l52 210c4 17 7 31 7 43c0 36 -19 50 -54 50c-48 0 -89 -40 -105 -106l-49 -197h-76l54 214c3 13 4 23 4 33c0 35 -18 56 -52 56c-49 0 -90 -42 -106 -109l-49 -194h-75l89 356h72l-9 -39h1
c29 32 63 47 101 47c50 0 85 -23 97 -67c34 43 77 67 128 67z" />
    <glyph glyph-name="n.sups" horiz-adv-x="421" 
d="M339 694c69 0 110 -36 110 -105c0 -15 -3 -33 -8 -51l-52 -208h-75l51 207c5 16 6 30 6 41c0 36 -21 55 -57 55c-49 0 -98 -34 -115 -104l-50 -199h-75l89 356h72l-11 -41h2c29 30 70 49 113 49z" />
    <glyph glyph-name="o.sups" horiz-adv-x="415" 
d="M295 696c99 0 156 -57 156 -155c0 -97 -69 -221 -206 -221c-99 0 -154 57 -154 155c0 97 68 221 204 221zM291 634c-83 0 -122 -95 -122 -162c0 -57 26 -91 80 -91c84 0 124 96 124 162c0 58 -27 91 -82 91z" />
    <glyph glyph-name="p.sups" horiz-adv-x="423" 
d="M334 695c81 0 127 -52 127 -139c0 -101 -68 -235 -196 -235c-49 0 -87 25 -101 62h-2l-46 -183h-75l121 486h74l-9 -34h2c27 26 66 43 105 43zM309 636c-80 0 -123 -93 -123 -164c0 -56 25 -90 71 -90c81 0 124 93 124 163c0 57 -26 91 -72 91z" />
    <glyph glyph-name="q.sups" horiz-adv-x="424" 
d="M285 695c49 0 88 -26 102 -65h2l14 56h74l-122 -486h-75l40 162h-1c-27 -25 -65 -41 -103 -41c-82 0 -128 52 -128 139c0 101 69 235 197 235zM293 634c-81 0 -124 -93 -124 -163c0 -57 26 -91 71 -91c81 0 124 93 124 164c0 56 -25 90 -71 90z" />
    <glyph glyph-name="r.sups" horiz-adv-x="273" 
d="M345 690c9 0 19 -1 28 -3l-16 -69c-8 2 -19 3 -29 3c-69 0 -117 -44 -135 -119l-43 -172h-75l88 356h72l-12 -49h1c34 36 75 53 121 53z" />
    <glyph glyph-name="s.sups" horiz-adv-x="366" 
d="M274 696c87 0 134 -33 134 -95c0 -8 0 -17 -3 -26h-73c1 6 2 13 2 19c0 31 -23 47 -66 47c-42 0 -71 -15 -71 -47c0 -30 21 -35 70 -51c52 -17 112 -34 112 -107c0 -57 -51 -116 -162 -116c-92 0 -145 35 -145 100c0 10 1 19 4 28h76c-2 -7 -3 -14 -3 -21
c0 -33 26 -51 74 -51c52 0 79 19 79 52c0 32 -26 41 -82 59c-48 15 -98 28 -98 99c0 54 51 110 152 110z" />
    <glyph glyph-name="t.sups" horiz-adv-x="240" 
d="M239 627l-45 -179c-3 -9 -4 -18 -4 -24c0 -24 12 -35 40 -35c9 0 18 2 25 3l-15 -61c-10 -3 -23 -4 -34 -4c-64 0 -93 24 -93 80c0 12 1 28 6 44l44 176h-62l14 59h62l22 87h76l-22 -87h72l-15 -59h-71z" />
    <glyph glyph-name="u.sups" horiz-adv-x="421" 
d="M209 322c-69 0 -110 36 -110 105c0 15 3 33 8 51l52 208h75l-51 -207c-4 -16 -6 -30 -6 -41c0 -36 21 -55 57 -55c49 0 98 34 115 104l50 199h76l-89 -356h-73l11 41h-2c-29 -30 -69 -49 -113 -49z" />
    <glyph glyph-name="v.sups" horiz-adv-x="349" 
d="M243 330h-100l-39 356h76l12 -142c4 -54 7 -100 10 -154h2c30 54 56 100 87 154l84 142h86z" />
    <glyph glyph-name="w.sups" horiz-adv-x="565" 
d="M485 330h-106l-2 146c0 51 -1 101 -1 153h-2c-24 -52 -48 -102 -74 -153l-76 -146h-105l-7 356h72v-143c0 -51 -1 -105 -2 -156h2c24 50 49 102 75 152l75 147h105l2 -147c1 -50 2 -102 1 -152h2c23 51 48 105 74 156l70 143h80z" />
    <glyph glyph-name="x.sups" horiz-adv-x="357" 
d="M290 512l88 -182h-82l-59 136h-1l-121 -136h-97l180 188l-81 168h81l52 -122h2l106 122h96z" />
    <glyph glyph-name="y.sups" horiz-adv-x="353" 
d="M465 686l-231 -367c-59 -94 -102 -122 -183 -122c-14 0 -29 2 -40 5l14 59c9 -2 18 -3 27 -3c49 0 69 17 105 72l-53 356h76l33 -275h2l165 275h85z" />
    <glyph glyph-name="z.sups" horiz-adv-x="342" 
d="M409 620l-259 -227v-2h208l-15 -61h-305l16 66l258 227v2h-194l15 61h293z" />
    <glyph glyph-name="ff" unicode="&#xfb00;" horiz-adv-x="578" 
d="M624 717c20 0 42 -3 55 -6l-17 -67c-6 2 -16 3 -27 3c-50 0 -81 -25 -98 -92l-12 -47h101l-18 -70h-100l-109 -438h-87l109 438h-185l-110 -438h-87l109 438h-89l17 70h90l17 70c24 95 82 139 168 139c20 0 42 -3 55 -6l-16 -67c-7 2 -17 3 -28 3c-49 0 -81 -25 -97 -92
l-12 -47h186l17 70c24 95 82 139 168 139z" />
    <glyph glyph-name="ffi" unicode="&#xfb03;" horiz-adv-x="822" 
d="M508 438l-109 -438h-87l109 438h-185l-110 -438h-87l109 438h-89l17 70h90l17 70c24 95 82 139 168 139c20 0 42 -3 55 -6l-16 -67c-7 2 -17 3 -28 3c-49 0 -81 -25 -97 -92l-12 -47h186l17 70c24 95 82 139 168 139c20 0 42 -3 55 -6l-17 -67c-6 2 -16 3 -27 3
c-50 0 -81 -25 -98 -92l-12 -47h101l-18 -70h-100zM858 712l-24 -99h-88l24 99h88zM719 508h88l-126 -508h-88z" />
    <glyph glyph-name="ffl" unicode="&#xfb04;" horiz-adv-x="822" 
d="M508 438l-109 -438h-87l109 438h-185l-110 -438h-87l109 438h-89l17 70h90l17 70c24 95 82 139 168 139c20 0 42 -3 55 -6l-16 -67c-7 2 -17 3 -28 3c-49 0 -81 -25 -97 -92l-12 -47h186l17 70c24 95 82 139 168 139c20 0 42 -3 55 -6l-17 -67c-6 2 -16 3 -27 3
c-50 0 -81 -25 -98 -92l-12 -47h101l-18 -70h-100zM858 712l-177 -712h-88l177 712h88z" />
    <glyph glyph-name="fi" unicode="&#xfb01;" horiz-adv-x="549" 
d="M236 438l-110 -438h-87l109 438h-89l17 70h90l17 70c24 95 82 139 168 139c20 0 42 -3 55 -6l-16 -67c-7 2 -17 3 -28 3c-49 0 -81 -25 -97 -92l-12 -47h100l-17 -70h-100zM585 712l-24 -99h-88l24 99h88zM446 508h88l-126 -508h-88z" />
    <glyph glyph-name="fl" unicode="&#xfb02;" horiz-adv-x="549" 
d="M236 438l-110 -438h-87l109 438h-89l17 70h90l17 70c24 95 82 139 168 139c20 0 42 -3 55 -6l-16 -67c-7 2 -17 3 -28 3c-49 0 -81 -25 -97 -92l-12 -47h100l-17 -70h-100zM585 712l-177 -712h-88l177 712h88z" />
    <glyph glyph-name="a.smcp" horiz-adv-x="565" 
d="M388 146h-250l-91 -146h-105l352 548h123l80 -548h-91zM378 225l-6 45c-9 72 -18 138 -26 212h-2c-44 -74 -84 -140 -129 -212l-28 -45h191z" />
    <glyph glyph-name="aacute.smcp" horiz-adv-x="565" 
d="M376 609h-81l116 143h118zM417 548l80 -548h-91l-18 146h-250l-91 -146h-105l352 548h123zM378 225l-6 45c-9 72 -18 138 -26 212h-2c-44 -74 -84 -140 -129 -212l-28 -45h191z" />
    <glyph glyph-name="abreve.smcp" horiz-adv-x="565" 
d="M480 752h72c-25 -90 -93 -143 -184 -143c-84 0 -129 43 -129 118c0 7 0 16 2 25h59c-1 -5 -1 -10 -1 -15c0 -43 25 -66 71 -66c54 0 93 29 110 81zM417 548l80 -548h-91l-18 146h-250l-91 -146h-105l352 548h123zM378 225l-6 45c-9 72 -18 138 -26 212h-2
c-44 -74 -84 -140 -129 -212l-28 -45h191z" />
    <glyph glyph-name="acircumflex.smcp" horiz-adv-x="565" 
d="M295 609h-96l149 143h97l79 -143h-81l-52 93zM417 548l80 -548h-91l-18 146h-250l-91 -146h-105l352 548h123zM378 225l-6 45c-9 72 -18 138 -26 212h-2c-44 -74 -84 -140 -129 -212l-28 -45h191z" />
    <glyph glyph-name="adieresis.smcp" horiz-adv-x="565" 
d="M315 653h-82l24 99h82zM534 752l-24 -99h-82l24 99h82zM417 548l80 -548h-91l-18 146h-250l-91 -146h-105l352 548h123zM378 225l-6 45c-9 72 -18 138 -26 212h-2c-44 -74 -84 -140 -129 -212l-28 -45h191z" />
    <glyph glyph-name="agrave.smcp" horiz-adv-x="565" 
d="M357 609l-93 143h109l55 -143h-71zM388 146h-250l-91 -146h-105l352 548h123l80 -548h-91zM378 225l-6 45c-9 72 -18 138 -26 212h-2c-44 -74 -84 -140 -129 -212l-28 -45h191z" />
    <glyph glyph-name="amacron.smcp" horiz-adv-x="565" 
d="M531 720l-16 -64h-284l15 64h285zM417 548l80 -548h-91l-18 146h-250l-91 -146h-105l352 548h123zM378 225l-6 45c-9 72 -18 138 -26 212h-2c-44 -74 -84 -140 -129 -212l-28 -45h191z" />
    <glyph glyph-name="aogonek.smcp" horiz-adv-x="565" 
d="M395 -111c0 -18 10 -27 32 -27c13 0 27 2 39 7l-14 -56c-13 -4 -31 -7 -52 -7c-59 0 -88 26 -88 71c0 43 33 80 106 123h-12l-18 146h-250l-91 -146h-105l352 548h123l80 -548c-84 -51 -102 -84 -102 -111zM378 225l-6 45c-9 72 -18 138 -26 212h-2
c-44 -74 -84 -140 -129 -212l-28 -45h191z" />
    <glyph glyph-name="aring.smcp" horiz-adv-x="565" 
d="M374 605c-55 0 -100 45 -100 101c0 55 45 100 100 100c56 0 101 -45 101 -100c0 -56 -45 -101 -101 -101zM374 764c-31 0 -57 -26 -57 -58c0 -33 26 -58 57 -58c33 0 58 25 58 58c0 32 -25 58 -58 58zM388 146h-250l-91 -146h-105l352 548h123l80 -548h-91zM378 225
l-6 45c-9 72 -18 138 -26 212h-2c-44 -74 -84 -140 -129 -212l-28 -45h191z" />
    <glyph glyph-name="atilde.smcp" horiz-adv-x="565" 
d="M509 746h58c-21 -73 -66 -115 -122 -115c-63 0 -87 51 -132 51c-28 0 -47 -18 -58 -51h-60c20 73 66 115 122 115c63 0 89 -51 132 -51c29 0 48 17 60 51zM417 548l80 -548h-91l-18 146h-250l-91 -146h-105l352 548h123zM378 225l-6 45c-9 72 -18 138 -26 212h-2
c-44 -74 -84 -140 -129 -212l-28 -45h191z" />
    <glyph glyph-name="ae.smcp" horiz-adv-x="787" 
d="M495 469l-13 -150h248l-20 -78h-235l-14 -162h234l-19 -79h-312l14 157h-218l-117 -157h-111l413 548h459l-19 -79h-290zM385 236l21 234h-13l-174 -234h166z" />
    <glyph glyph-name="b.smcp" horiz-adv-x="547" 
d="M153 548h195c115 0 168 -50 168 -127c0 -57 -42 -119 -129 -143v-2c51 -15 79 -51 79 -103c0 -77 -68 -173 -214 -173h-235zM225 473l-39 -158h105c102 0 131 45 131 92c0 44 -30 66 -99 66h-98zM168 242l-42 -167h117c99 0 128 48 128 96s-30 71 -103 71h-100z" />
    <glyph glyph-name="c.smcp" 
d="M350 562c132 0 203 -71 203 -179c0 -10 -1 -23 -3 -35h-95c1 8 1 16 1 23c1 70 -43 109 -114 109c-145 0 -213 -158 -213 -265c0 -94 44 -147 126 -147c75 0 139 41 166 111h97c-40 -120 -142 -193 -272 -193c-136 0 -212 82 -212 223c0 151 104 353 316 353z" />
    <glyph glyph-name="cacute.smcp" 
d="M375 609h-81l116 143h118zM350 562c132 0 203 -71 203 -179c0 -10 -1 -23 -3 -35h-95c1 8 1 16 1 23c1 70 -43 109 -114 109c-145 0 -213 -158 -213 -265c0 -94 44 -147 126 -147c75 0 139 41 166 111h97c-40 -120 -142 -193 -272 -193c-136 0 -212 82 -212 223
c0 151 104 353 316 353z" />
    <glyph glyph-name="ccaron.smcp" 
d="M409 609h-97l-79 143h81l52 -93l96 93h96zM350 562c132 0 203 -71 203 -179c0 -10 -1 -23 -3 -35h-95c1 8 1 16 1 23c1 70 -43 109 -114 109c-145 0 -213 -158 -213 -265c0 -94 44 -147 126 -147c75 0 139 41 166 111h97c-40 -120 -142 -193 -272 -193
c-136 0 -212 82 -212 223c0 151 104 353 316 353z" />
    <glyph glyph-name="ccedilla.smcp" 
d="M550 348h-95c1 8 1 16 1 23c1 70 -43 109 -114 109c-145 0 -213 -158 -213 -265c0 -94 44 -147 126 -147c75 0 139 41 166 111h97c-36 -108 -123 -178 -235 -191l-45 -50c4 1 12 2 19 2c38 0 65 -24 65 -67c0 -51 -53 -93 -128 -93c-39 0 -74 11 -99 27l21 37
c25 -15 50 -21 76 -21c41 0 66 19 66 47c0 22 -15 36 -42 36c-12 0 -23 -2 -33 -6l-17 16l65 70c-127 6 -197 87 -197 223c0 151 104 353 316 353c132 0 203 -71 203 -179c0 -10 -1 -23 -3 -35z" />
    <glyph glyph-name="ccircumflex.smcp" 
d="M523 609h-81l-52 93l-96 -93h-96l149 143h97zM350 562c132 0 203 -71 203 -179c0 -10 -1 -23 -3 -35h-95c1 8 1 16 1 23c1 70 -43 109 -114 109c-145 0 -213 -158 -213 -265c0 -94 44 -147 126 -147c75 0 139 41 166 111h97c-40 -120 -142 -193 -272 -193
c-136 0 -212 82 -212 223c0 151 104 353 316 353z" />
    <glyph glyph-name="cdotaccent.smcp" 
d="M415 653h-88l24 99h88zM350 562c132 0 203 -71 203 -179c0 -10 -1 -23 -3 -35h-95c1 8 1 16 1 23c1 70 -43 109 -114 109c-145 0 -213 -158 -213 -265c0 -94 44 -147 126 -147c75 0 139 41 166 111h97c-40 -120 -142 -193 -272 -193c-136 0 -212 82 -212 223
c0 151 104 353 316 353z" />
    <glyph glyph-name="d.smcp" horiz-adv-x="609" 
d="M153 548h151c174 0 267 -85 267 -238c0 -139 -94 -310 -327 -310h-227zM225 468l-98 -388h122c163 0 228 125 228 228s-60 160 -177 160h-75z" />
    <glyph glyph-name="eth.smcp" horiz-adv-x="616" 
d="M159 548h152c173 0 266 -85 266 -238c0 -139 -93 -310 -326 -310h-228l61 244h-63l16 66h63zM134 80h121c163 0 228 125 228 228s-60 160 -177 160h-75l-39 -158h146l-16 -66h-147z" />
    <glyph glyph-name="dcaron.smcp" horiz-adv-x="609" 
d="M402 609h-97l-79 143h81l52 -93l96 93h96zM153 548h151c174 0 267 -85 267 -238c0 -139 -94 -310 -327 -310h-227zM225 468l-98 -388h122c163 0 228 125 228 228s-60 160 -177 160h-75z" />
    <glyph glyph-name="dcroat.smcp" horiz-adv-x="616" 
d="M159 548h152c173 0 266 -85 266 -238c0 -139 -93 -310 -326 -310h-228l61 244h-63l16 66h63zM134 80h121c163 0 228 125 228 228s-60 160 -177 160h-75l-39 -158h146l-16 -66h-147z" />
    <glyph glyph-name="e.smcp" horiz-adv-x="526" 
d="M524 469h-294l-37 -150h276l-20 -78h-276l-40 -162h301l-19 -79h-393l136 548h385z" />
    <glyph glyph-name="eacute.smcp" horiz-adv-x="526" 
d="M381 609h-81l116 143h118zM524 469h-294l-37 -150h276l-20 -78h-276l-40 -162h301l-19 -79h-393l136 548h385z" />
    <glyph glyph-name="ebreve.smcp" horiz-adv-x="526" 
d="M486 752h72c-25 -90 -93 -143 -184 -143c-84 0 -129 43 -129 118c0 7 0 16 2 25h59c-1 -5 -1 -10 -1 -15c0 -43 25 -66 71 -66c54 0 93 29 110 81zM524 469h-294l-37 -150h276l-20 -78h-276l-40 -162h301l-19 -79h-393l136 548h385z" />
    <glyph glyph-name="ecaron.smcp" horiz-adv-x="526" 
d="M415 609h-97l-79 143h81l52 -93l96 93h96zM524 469h-294l-37 -150h276l-20 -78h-276l-40 -162h301l-19 -79h-393l136 548h385z" />
    <glyph glyph-name="ecircumflex.smcp" horiz-adv-x="526" 
d="M529 609h-81l-52 93l-96 -93h-96l149 143h97zM524 469h-294l-37 -150h276l-20 -78h-276l-40 -162h301l-19 -79h-393l136 548h385z" />
    <glyph glyph-name="edieresis.smcp" horiz-adv-x="526" 
d="M321 653h-82l24 99h82zM516 653h-82l24 99h82zM524 469h-294l-37 -150h276l-20 -78h-276l-40 -162h301l-19 -79h-393l136 548h385z" />
    <glyph glyph-name="edotaccent.smcp" horiz-adv-x="526" 
d="M421 653h-88l24 99h88zM524 469h-294l-37 -150h276l-20 -78h-276l-40 -162h301l-19 -79h-393l136 548h385z" />
    <glyph glyph-name="egrave.smcp" horiz-adv-x="526" 
d="M378 752l55 -143h-71l-93 143h109zM524 469h-294l-37 -150h276l-20 -78h-276l-40 -162h301l-19 -79h-393l136 548h385z" />
    <glyph glyph-name="emacron.smcp" horiz-adv-x="526" 
d="M520 656h-284l15 64h285zM524 469h-294l-37 -150h276l-20 -78h-276l-40 -162h301l-19 -79h-393l136 548h385z" />
    <glyph glyph-name="eogonek.smcp" horiz-adv-x="526" 
d="M230 469l-37 -150h276l-20 -78h-276l-40 -162h301l-19 -79c-84 -51 -102 -84 -102 -111c0 -18 10 -27 32 -27c13 0 27 2 39 7l-14 -56c-13 -4 -31 -7 -52 -7c-59 0 -88 26 -88 71c0 43 33 80 106 123h-314l136 548h385l-19 -79h-294z" />
    <glyph glyph-name="f.smcp" horiz-adv-x="489" 
d="M514 468h-284l-41 -166h265l-20 -80h-265l-55 -222h-92l136 548h375z" />
    <glyph glyph-name="fi.smcp" horiz-adv-x="751" 
d="M514 468h-284l-41 -166h265l-20 -80h-265l-55 -222h-92l136 548h375zM603 0h-92l136 548h92z" />
    <glyph glyph-name="fl.smcp" horiz-adv-x="965" 
d="M514 468h-284l-41 -166h265l-20 -80h-265l-55 -222h-92l136 548h375zM622 80h289l-19 -80h-381l136 548h92z" />
    <glyph glyph-name="g.smcp" horiz-adv-x="612" 
d="M365 562c127 0 203 -66 203 -173c0 -6 0 -12 -1 -18h-97v7c0 69 -44 103 -119 103c-148 0 -223 -158 -223 -270c0 -92 47 -145 130 -145c85 0 155 43 182 145h-151l18 75h238l-71 -286h-81l13 55h-2c-40 -42 -105 -66 -172 -66c-127 0 -199 80 -199 217
c0 155 110 356 332 356z" />
    <glyph glyph-name="gbreve.smcp" horiz-adv-x="612" 
d="M486 752h72c-25 -90 -93 -143 -184 -143c-84 0 -129 43 -129 118c0 7 0 16 2 25h59c-1 -5 -1 -10 -1 -15c0 -43 25 -66 71 -66c54 0 93 29 110 81zM365 562c127 0 203 -66 203 -173c0 -6 0 -12 -1 -18h-97v7c0 69 -44 103 -119 103c-148 0 -223 -158 -223 -270
c0 -92 47 -145 130 -145c85 0 155 43 182 145h-151l18 75h238l-71 -286h-81l13 55h-2c-40 -42 -105 -66 -172 -66c-127 0 -199 80 -199 217c0 155 110 356 332 356z" />
    <glyph glyph-name="gcircumflex.smcp" horiz-adv-x="612" 
d="M530 609h-81l-52 93l-96 -93h-96l149 143h97zM365 562c127 0 203 -66 203 -173c0 -6 0 -12 -1 -18h-97v7c0 69 -44 103 -119 103c-148 0 -223 -158 -223 -270c0 -92 47 -145 130 -145c85 0 155 43 182 145h-151l18 75h238l-71 -286h-81l13 55h-2
c-40 -42 -105 -66 -172 -66c-127 0 -199 80 -199 217c0 155 110 356 332 356z" />
    <glyph glyph-name="gcommaaccent.smcp" horiz-adv-x="612" 
d="M365 562c127 0 203 -66 203 -173c0 -6 0 -12 -1 -18h-97v7c0 69 -44 103 -119 103c-148 0 -223 -158 -223 -270c0 -92 47 -145 130 -145c85 0 155 43 182 145h-151l18 75h238l-71 -286h-81l13 55h-2c-40 -42 -105 -66 -172 -66c-127 0 -199 80 -199 217
c0 155 110 356 332 356zM260 -154l-81 -103h-38l64 103h-33l21 89h89z" />
    <glyph glyph-name="gdotaccent.smcp" horiz-adv-x="612" 
d="M422 653h-88l24 99h88zM365 562c127 0 203 -66 203 -173c0 -6 0 -12 -1 -18h-97v7c0 69 -44 103 -119 103c-148 0 -223 -158 -223 -270c0 -92 47 -145 130 -145c85 0 155 43 182 145h-151l18 75h238l-71 -286h-81l13 55h-2c-40 -42 -105 -66 -172 -66
c-127 0 -199 80 -199 217c0 155 110 356 332 356z" />
    <glyph glyph-name="h.smcp" horiz-adv-x="630" 
d="M482 0h-92l61 244h-277l-60 -244h-92l136 548h92l-56 -224h276l56 224h92z" />
    <glyph glyph-name="hbar.smcp" horiz-adv-x="630" 
d="M635 437h-45l-108 -437h-92l61 244h-277l-60 -244h-92l108 437h-45l13 55h46l14 56h92l-14 -56h276l14 56h92l-14 -56h45zM498 437h-276l-28 -113h276z" />
    <glyph glyph-name="hcircumflex.smcp" horiz-adv-x="630" 
d="M567 609h-81l-52 93l-96 -93h-96l149 143h97zM482 0h-92l61 244h-277l-60 -244h-92l136 548h92l-56 -224h276l56 224h92z" />
    <glyph glyph-name="i.smcp" horiz-adv-x="262" 
d="M114 0h-92l136 548h92z" />
    <glyph glyph-name="iacute.smcp" horiz-adv-x="262" 
d="M234 609h-81l116 143h118zM114 0h-92l136 548h92z" />
    <glyph glyph-name="ibreve.smcp" horiz-adv-x="262" 
d="M325 752h69c-24 -90 -86 -143 -168 -143c-73 0 -113 42 -113 113c0 10 1 21 3 30h58c-1 -5 -1 -12 -1 -18c0 -41 22 -63 59 -63c44 0 77 29 93 81zM114 0h-92l136 548h92z" />
    <glyph glyph-name="icircumflex.smcp" horiz-adv-x="262" 
d="M367 610h-77l-39 93l-86 -93h-93l135 142h96zM114 0h-92l136 548h92z" />
    <glyph glyph-name="idieresis.smcp" horiz-adv-x="262" 
d="M195 653h-82l24 99h82zM348 653h-81l24 99h82zM114 0h-92l136 548h92z" />
    <glyph glyph-name="idotaccent.smcp" horiz-adv-x="262" 
d="M274 653h-88l24 99h88zM114 0h-92l136 548h92z" />
    <glyph glyph-name="igrave.smcp" horiz-adv-x="262" 
d="M231 752l55 -143h-71l-93 143h109zM114 0h-92l136 548h92z" />
    <glyph glyph-name="ij.smcp" horiz-adv-x="572" 
d="M114 0h-92l136 548h92zM565 548l-97 -390c-27 -110 -96 -162 -204 -162c-19 0 -38 3 -51 7l19 77c10 -2 21 -3 30 -3c64 0 102 28 122 110l90 361h91z" />
    <glyph glyph-name="imacron.smcp" horiz-adv-x="262" 
d="M359 656h-257l16 64h257zM114 0h-92l136 548h92z" />
    <glyph glyph-name="iogonek.smcp" horiz-adv-x="262" 
d="M250 548l-136 -548c-84 -51 -102 -84 -102 -111c0 -18 10 -27 32 -27c13 0 27 2 39 7l-14 -56c-13 -4 -31 -7 -52 -7c-59 0 -88 26 -88 71c0 43 33 80 106 123h-13l136 548h92z" />
    <glyph glyph-name="itilde.smcp" horiz-adv-x="262" 
d="M352 746h56c-21 -73 -63 -115 -115 -115c-54 0 -76 51 -114 51c-23 0 -40 -18 -50 -51h-59c22 73 64 115 115 115c55 0 78 -51 114 -51c24 0 41 17 53 51zM114 0h-92l136 548h92z" />
    <glyph glyph-name="j.smcp" horiz-adv-x="311" 
d="M303 548l-97 -390c-27 -110 -96 -162 -204 -162c-19 0 -38 3 -51 7l19 77c10 -2 21 -3 30 -3c64 0 102 28 122 110l90 361h91z" />
    <glyph glyph-name="jcircumflex.smcp" horiz-adv-x="311" 
d="M420 610h-77l-39 93l-86 -93h-93l135 142h96zM303 548l-97 -390c-27 -110 -96 -162 -204 -162c-19 0 -38 3 -51 7l19 77c10 -2 21 -3 30 -3c64 0 102 28 122 110l90 361h91z" />
    <glyph glyph-name="k.smcp" horiz-adv-x="540" 
d="M272 280l196 -280h-109l-181 269h-2l-67 -269h-92l136 548h92l-59 -238h2l264 238h129z" />
    <glyph glyph-name="kcommaaccent.smcp" horiz-adv-x="540" 
d="M272 280l196 -280h-109l-181 269h-2l-67 -269h-92l136 548h92l-59 -238h2l264 238h129zM231 -154l-81 -103h-38l64 103h-33l21 89h89z" />
    <glyph glyph-name="l.smcp" horiz-adv-x="476" 
d="M133 80h289l-19 -80h-381l136 548h92z" />
    <glyph glyph-name="lacute.smcp" horiz-adv-x="476" 
d="M266 609h-81l116 143h118zM133 80h289l-19 -80h-381l136 548h92z" />
    <glyph glyph-name="lcaron.smcp" horiz-adv-x="476" 
d="M133 80h289l-19 -80h-381l136 548h92zM312 372h-54l73 176h79z" />
    <glyph glyph-name="lcommaaccent.smcp" horiz-adv-x="476" 
d="M133 80h289l-19 -80h-381l136 548h92zM215 -154l-81 -103h-38l64 103h-33l21 89h89z" />
    <glyph glyph-name="ldot.smcp" horiz-adv-x="536" 
d="M133 80h289l-19 -80h-381l136 548h92zM460 283h-108l29 117h108z" />
    <glyph glyph-name="j.acute.loclNLD.smcp" horiz-adv-x="311" 
d="M287 609h-81l116 143h118zM303 548l-97 -390c-27 -110 -96 -162 -204 -162c-19 0 -38 3 -51 7l19 77c10 -2 21 -3 30 -3c64 0 102 28 122 110l90 361h91z" />
    <glyph glyph-name="lslash.smcp" horiz-adv-x="472" 
d="M418 80l-19 -80h-381l58 235l-77 -38l19 75l77 38l59 238h92l-48 -194l132 66l-19 -75l-132 -65l-50 -200h289z" />
    <glyph glyph-name="m.smcp" horiz-adv-x="802" 
d="M654 0h-89l67 271c17 67 35 135 53 202h-2c-41 -69 -81 -135 -123 -202l-168 -271h-108l-33 271c-8 67 -15 133 -22 202h-2c-15 -67 -31 -135 -48 -202l-68 -271h-89l136 548h143l31 -257c8 -68 16 -137 22 -207h2c39 70 81 139 122 207l159 257h153z" />
    <glyph glyph-name="n.smcp" horiz-adv-x="648" 
d="M495 0h-127l-74 230c-26 79 -50 157 -73 234h-2c-19 -84 -39 -168 -60 -252l-53 -212h-89l136 548h127l75 -230c25 -77 49 -157 72 -234h2c19 84 39 168 60 252l53 212h89z" />
    <glyph glyph-name="nacute.smcp" horiz-adv-x="648" 
d="M412 609h-81l116 143h118zM495 0h-127l-74 230c-26 79 -50 157 -73 234h-2c-19 -84 -39 -168 -60 -252l-53 -212h-89l136 548h127l75 -230c25 -77 49 -157 72 -234h2c19 84 39 168 60 252l53 212h89z" />
    <glyph glyph-name="ncaron.smcp" horiz-adv-x="648" 
d="M446 609h-97l-79 143h81l52 -93l96 93h96zM495 0h-127l-74 230c-26 79 -50 157 -73 234h-2c-19 -84 -39 -168 -60 -252l-53 -212h-89l136 548h127l75 -230c25 -77 49 -157 72 -234h2c19 84 39 168 60 252l53 212h89z" />
    <glyph glyph-name="ncommaaccent.smcp" horiz-adv-x="648" 
d="M495 0h-127l-74 230c-26 79 -50 157 -73 234h-2c-19 -84 -39 -168 -60 -252l-53 -212h-89l136 548h127l75 -230c25 -77 49 -157 72 -234h2c19 84 39 168 60 252l53 212h89zM272 -154l-81 -103h-38l64 103h-33l21 89h89z" />
    <glyph glyph-name="eng.smcp" horiz-adv-x="640" 
d="M622 548l-145 -584c-22 -88 -80 -123 -151 -123c-20 0 -38 2 -53 7l16 64c8 -1 17 -2 26 -2c38 0 63 18 74 64l7 26l-97 244c-29 69 -55 139 -81 210h-2c-17 -79 -36 -158 -55 -237l-55 -217h-89l136 548h115l83 -205c27 -69 55 -139 81 -210h2c17 79 36 158 55 236
l44 179h89z" />
    <glyph glyph-name="ntilde.smcp" horiz-adv-x="648" 
d="M546 746h58c-21 -73 -66 -115 -122 -115c-63 0 -87 51 -132 51c-28 0 -47 -18 -58 -51h-60c20 73 66 115 122 115c63 0 89 -51 132 -51c29 0 48 17 60 51zM495 0h-127l-74 230c-26 79 -50 157 -73 234h-2c-19 -84 -39 -168 -60 -252l-53 -212h-89l136 548h127l75 -230
c25 -77 49 -157 72 -234h2c19 84 39 168 60 252l53 212h89z" />
    <glyph glyph-name="o.smcp" horiz-adv-x="614" 
d="M348 562c146 0 229 -91 229 -241c0 -145 -105 -335 -310 -335c-147 0 -230 91 -230 241c0 145 106 335 311 335zM343 480c-143 0 -212 -150 -212 -257c0 -96 50 -155 140 -155c143 0 213 150 213 257c0 96 -50 155 -141 155z" />
    <glyph glyph-name="oacute.smcp" horiz-adv-x="614" 
d="M385 609h-81l116 143h118zM348 562c146 0 229 -91 229 -241c0 -145 -105 -335 -310 -335c-147 0 -230 91 -230 241c0 145 106 335 311 335zM343 480c-143 0 -212 -150 -212 -257c0 -96 50 -155 140 -155c143 0 213 150 213 257c0 96 -50 155 -141 155z" />
    <glyph glyph-name="obreve.smcp" horiz-adv-x="614" 
d="M490 752h72c-25 -90 -93 -143 -184 -143c-84 0 -129 43 -129 118c0 7 0 16 2 25h59c-1 -5 -1 -10 -1 -15c0 -43 25 -66 71 -66c54 0 93 29 110 81zM348 562c146 0 229 -91 229 -241c0 -145 -105 -335 -310 -335c-147 0 -230 91 -230 241c0 145 106 335 311 335zM343 480
c-143 0 -212 -150 -212 -257c0 -96 50 -155 140 -155c143 0 213 150 213 257c0 96 -50 155 -141 155z" />
    <glyph glyph-name="ocircumflex.smcp" horiz-adv-x="614" 
d="M533 609h-81l-52 93l-96 -93h-96l149 143h97zM348 562c146 0 229 -91 229 -241c0 -145 -105 -335 -310 -335c-147 0 -230 91 -230 241c0 145 106 335 311 335zM343 480c-143 0 -212 -150 -212 -257c0 -96 50 -155 140 -155c143 0 213 150 213 257c0 96 -50 155 -141 155z
" />
    <glyph glyph-name="odieresis.smcp" horiz-adv-x="614" 
d="M325 653h-82l24 99h82zM520 653h-82l24 99h82zM348 562c146 0 229 -91 229 -241c0 -145 -105 -335 -310 -335c-147 0 -230 91 -230 241c0 145 106 335 311 335zM343 480c-143 0 -212 -150 -212 -257c0 -96 50 -155 140 -155c143 0 213 150 213 257c0 96 -50 155 -141 155
z" />
    <glyph glyph-name="ograve.smcp" horiz-adv-x="614" 
d="M382 752l55 -143h-71l-93 143h109zM348 562c146 0 229 -91 229 -241c0 -145 -105 -335 -310 -335c-147 0 -230 91 -230 241c0 145 106 335 311 335zM343 480c-143 0 -212 -150 -212 -257c0 -96 50 -155 140 -155c143 0 213 150 213 257c0 96 -50 155 -141 155z" />
    <glyph glyph-name="ohungarumlaut.smcp" horiz-adv-x="614" 
d="M312 609h-79l136 143h109zM472 609h-79l136 143h109zM348 562c146 0 229 -91 229 -241c0 -145 -105 -335 -310 -335c-147 0 -230 91 -230 241c0 145 106 335 311 335zM343 480c-143 0 -212 -150 -212 -257c0 -96 50 -155 140 -155c143 0 213 150 213 257
c0 96 -50 155 -141 155z" />
    <glyph glyph-name="omacron.smcp" horiz-adv-x="614" 
d="M524 656h-284l15 64h285zM348 562c146 0 229 -91 229 -241c0 -145 -105 -335 -310 -335c-147 0 -230 91 -230 241c0 145 106 335 311 335zM343 480c-143 0 -212 -150 -212 -257c0 -96 50 -155 140 -155c143 0 213 150 213 257c0 96 -50 155 -141 155z" />
    <glyph glyph-name="oslash.smcp" horiz-adv-x="614" 
d="M606 517l-61 -58c21 -37 32 -84 32 -138c0 -145 -105 -335 -310 -335c-67 0 -121 19 -160 54l-56 -54l-43 45l61 58c-21 37 -32 84 -32 138c0 145 106 335 311 335c67 0 120 -19 159 -54l56 54zM343 483c-145 0 -215 -153 -215 -260c0 -25 3 -48 10 -67l305 292
c-25 22 -58 35 -100 35zM271 65c146 0 216 153 216 260c0 25 -4 48 -11 68l-305 -292c24 -23 58 -36 100 -36z" />
    <glyph glyph-name="otilde.smcp" horiz-adv-x="614" 
d="M519 746h58c-21 -73 -66 -115 -122 -115c-63 0 -87 51 -132 51c-28 0 -47 -18 -58 -51h-60c20 73 66 115 122 115c63 0 89 -51 132 -51c29 0 48 17 60 51zM348 562c146 0 229 -91 229 -241c0 -145 -105 -335 -310 -335c-147 0 -230 91 -230 241c0 145 106 335 311 335z
M343 480c-143 0 -212 -150 -212 -257c0 -96 50 -155 140 -155c143 0 213 150 213 257c0 96 -50 155 -141 155z" />
    <glyph glyph-name="oe.smcp" horiz-adv-x="828" 
d="M826 469h-293l-38 -150h277l-20 -78h-276l-41 -162h302l-20 -79h-412c-173 0 -266 85 -266 238c0 139 94 310 326 310h481zM442 469h-81c-162 0 -227 -126 -227 -229c0 -104 59 -161 175 -161h35z" />
    <glyph glyph-name="p.smcp" horiz-adv-x="526" 
d="M153 548h180c127 0 190 -60 190 -161c0 -85 -61 -186 -210 -186h-154l-50 -201h-92zM226 470l-48 -191h134c89 0 119 59 119 106c0 55 -35 85 -104 85h-101z" />
    <glyph glyph-name="thorn.smcp" horiz-adv-x="526" 
d="M221 453h88c127 0 190 -61 190 -161c0 -85 -61 -186 -210 -186h-154l-26 -106h-92l136 548h92zM202 375l-48 -191h135c88 0 118 58 118 106c0 55 -35 85 -103 85h-102z" />
    <glyph glyph-name="q.smcp" horiz-adv-x="614" 
d="M577 321c0 -89 -40 -195 -118 -264l49 -68l-61 -44l-51 70c-37 -18 -80 -29 -129 -29c-147 0 -230 91 -230 241c0 145 106 335 311 335c146 0 229 -91 229 -241zM131 222c0 -97 50 -157 141 -157c28 0 53 6 76 16l-61 84l62 45l61 -84c51 54 76 134 76 198
c0 97 -51 156 -142 156c-143 0 -213 -151 -213 -258z" />
    <glyph glyph-name="r.smcp" horiz-adv-x="546" 
d="M158 548h176c122 0 189 -42 189 -133c0 -65 -49 -142 -143 -160v-2c35 -13 45 -35 55 -99l25 -154h-92l-19 139c-9 63 -32 82 -90 82h-90l-55 -221h-92zM231 472l-44 -177h109c102 0 132 62 132 103c0 54 -40 74 -109 74h-88z" />
    <glyph glyph-name="racute.smcp" horiz-adv-x="546" 
d="M376 609h-81l116 143h118zM158 548h176c122 0 189 -42 189 -133c0 -65 -49 -142 -143 -160v-2c35 -13 45 -35 55 -99l25 -154h-92l-19 139c-9 63 -32 82 -90 82h-90l-55 -221h-92zM231 472l-44 -177h109c102 0 132 62 132 103c0 54 -40 74 -109 74h-88z" />
    <glyph glyph-name="rcaron.smcp" horiz-adv-x="546" 
d="M410 609h-97l-79 143h81l52 -93l96 93h96zM158 548h176c122 0 189 -42 189 -133c0 -65 -49 -142 -143 -160v-2c35 -13 45 -35 55 -99l25 -154h-92l-19 139c-9 63 -32 82 -90 82h-90l-55 -221h-92zM231 472l-44 -177h109c102 0 132 62 132 103c0 54 -40 74 -109 74h-88z
" />
    <glyph glyph-name="rcommaaccent.smcp" horiz-adv-x="546" 
d="M158 548h176c122 0 189 -42 189 -133c0 -65 -49 -142 -143 -160v-2c35 -13 45 -35 55 -99l25 -154h-92l-19 139c-9 63 -32 82 -90 82h-90l-55 -221h-92zM231 472l-44 -177h109c102 0 132 62 132 103c0 54 -40 74 -109 74h-88zM234 -154l-81 -103h-38l64 103h-33l21 89h89
z" />
    <glyph glyph-name="s.smcp" horiz-adv-x="523" 
d="M299 562c129 0 192 -48 192 -143c0 -12 -1 -25 -4 -39h-91c3 10 4 18 4 26c0 55 -39 81 -108 81c-82 0 -120 -46 -120 -85c0 -46 39 -61 113 -84c84 -26 157 -57 157 -156c0 -79 -77 -176 -235 -176c-127 0 -198 53 -198 152c0 13 1 27 5 43h91c-3 -13 -4 -25 -4 -36
c0 -58 43 -83 116 -83c93 0 132 49 132 92c0 47 -40 67 -112 89c-85 28 -156 56 -156 150c0 75 71 169 218 169z" />
    <glyph glyph-name="sacute.smcp" horiz-adv-x="523" 
d="M328 609h-81l116 143h118zM299 562c129 0 192 -48 192 -143c0 -12 -1 -25 -4 -39h-91c3 10 4 18 4 26c0 55 -39 81 -108 81c-82 0 -120 -46 -120 -85c0 -46 39 -61 113 -84c84 -26 157 -57 157 -156c0 -79 -77 -176 -235 -176c-127 0 -198 53 -198 152c0 13 1 27 5 43h91
c-3 -13 -4 -25 -4 -36c0 -58 43 -83 116 -83c93 0 132 49 132 92c0 47 -40 67 -112 89c-85 28 -156 56 -156 150c0 75 71 169 218 169z" />
    <glyph glyph-name="scaron.smcp" horiz-adv-x="523" 
d="M362 609h-97l-79 143h81l52 -93l96 93h96zM299 562c129 0 192 -48 192 -143c0 -12 -1 -25 -4 -39h-91c3 10 4 18 4 26c0 55 -39 81 -108 81c-82 0 -120 -46 -120 -85c0 -46 39 -61 113 -84c84 -26 157 -57 157 -156c0 -79 -77 -176 -235 -176c-127 0 -198 53 -198 152
c0 13 1 27 5 43h91c-3 -13 -4 -25 -4 -36c0 -58 43 -83 116 -83c93 0 132 49 132 92c0 47 -40 67 -112 89c-85 28 -156 56 -156 150c0 75 71 169 218 169z" />
    <glyph glyph-name="scedilla.smcp" horiz-adv-x="523" 
d="M487 380h-91c3 10 4 18 4 26c0 55 -39 81 -108 81c-82 0 -120 -46 -120 -85c0 -46 39 -61 113 -84c84 -26 157 -57 157 -156c0 -73 -65 -161 -199 -174l-45 -50c4 1 12 2 19 2c38 0 65 -24 65 -67c0 -51 -53 -93 -128 -93c-39 0 -74 11 -99 27l21 37
c25 -15 50 -21 76 -21c41 0 66 19 66 47c0 22 -15 36 -42 36c-12 0 -23 -2 -33 -6l-17 16l64 70c-116 5 -181 57 -181 152c0 13 1 27 5 43h91c-3 -13 -4 -25 -4 -36c0 -58 43 -83 116 -83c93 0 132 49 132 92c0 47 -40 67 -112 89c-85 28 -156 56 -156 150
c0 75 71 169 218 169c129 0 192 -48 192 -143c0 -12 -1 -25 -4 -39z" />
    <glyph glyph-name="scircumflex.smcp" horiz-adv-x="523" 
d="M476 609h-81l-52 93l-96 -93h-96l149 143h97zM299 562c129 0 192 -48 192 -143c0 -12 -1 -25 -4 -39h-91c3 10 4 18 4 26c0 55 -39 81 -108 81c-82 0 -120 -46 -120 -85c0 -46 39 -61 113 -84c84 -26 157 -57 157 -156c0 -79 -77 -176 -235 -176c-127 0 -198 53 -198 152
c0 13 1 27 5 43h91c-3 -13 -4 -25 -4 -36c0 -58 43 -83 116 -83c93 0 132 49 132 92c0 47 -40 67 -112 89c-85 28 -156 56 -156 150c0 75 71 169 218 169z" />
    <glyph glyph-name="scommaaccent.smcp" horiz-adv-x="523" 
d="M299 562c129 0 192 -48 192 -143c0 -12 -1 -25 -4 -39h-91c3 10 4 18 4 26c0 55 -39 81 -108 81c-82 0 -120 -46 -120 -85c0 -46 39 -61 113 -84c84 -26 157 -57 157 -156c0 -79 -77 -176 -235 -176c-127 0 -198 53 -198 152c0 13 1 27 5 43h91c-3 -13 -4 -25 -4 -36
c0 -58 43 -83 116 -83c93 0 132 49 132 92c0 47 -40 67 -112 89c-85 28 -156 56 -156 150c0 75 71 169 218 169zM214 -154l-81 -103h-38l64 103h-33l21 89h89z" />
    <glyph glyph-name="germandbls.smcp" horiz-adv-x="666" 
d="M610 452l-155 -130c82 -25 128 -75 128 -156c0 -87 -71 -180 -214 -180c-108 0 -164 43 -164 124c0 11 1 23 5 36h87c-2 -7 -2 -15 -2 -21c0 -40 26 -62 83 -62c78 0 111 53 111 98c0 66 -53 95 -149 105l16 66l136 114c-25 23 -64 38 -114 38c-102 0 -168 -55 -196 -166
l-78 -318h-92l82 330c37 149 142 232 295 232c106 0 183 -45 221 -110z" />
    <glyph glyph-name="t.smcp" horiz-adv-x="500" 
d="M543 468h-194l-116 -468h-92l117 468h-194l19 80h480z" />
    <glyph glyph-name="tbar.smcp" horiz-adv-x="500" 
d="M349 468l-39 -157h109l-15 -66h-110l-61 -245h-92l61 245h-109l16 66h110l39 157h-194l19 80h480l-20 -80h-194z" />
    <glyph glyph-name="tcaron.smcp" horiz-adv-x="500" 
d="M387 609h-97l-79 143h81l52 -93l96 93h96zM543 468h-194l-116 -468h-92l117 468h-194l19 80h480z" />
    <glyph glyph-name="tcedilla.smcp" horiz-adv-x="500" 
d="M543 468h-194l-116 -468h-92l117 468h-194l19 80h480zM192 -154l-81 -103h-38l64 103h-33l21 89h89z" />
    <glyph glyph-name="tcommaaccent.smcp" horiz-adv-x="500" 
d="M543 468h-194l-116 -468h-92l117 468h-194l19 80h480zM192 -154l-81 -103h-38l64 103h-33l21 89h89z" />
    <glyph glyph-name="u.smcp" horiz-adv-x="602" 
d="M596 548l-92 -366c-31 -127 -119 -196 -249 -196c-124 0 -190 63 -190 176c0 22 3 47 10 74l77 312h92l-82 -329c-5 -18 -7 -35 -7 -49c0 -68 39 -102 107 -102c77 0 134 43 155 131l87 349h92z" />
    <glyph glyph-name="uacute.smcp" horiz-adv-x="602" 
d="M394 609h-81l116 143h118zM596 548l-92 -366c-31 -127 -119 -196 -249 -196c-124 0 -190 63 -190 176c0 22 3 47 10 74l77 312h92l-82 -329c-5 -18 -7 -35 -7 -49c0 -68 39 -102 107 -102c77 0 134 43 155 131l87 349h92z" />
    <glyph glyph-name="ubreve.smcp" horiz-adv-x="602" 
d="M498 752h72c-25 -90 -93 -143 -184 -143c-84 0 -129 43 -129 118c0 7 0 16 2 25h59c-1 -5 -1 -10 -1 -15c0 -43 25 -66 71 -66c54 0 93 29 110 81zM596 548l-92 -366c-31 -127 -119 -196 -249 -196c-124 0 -190 63 -190 176c0 22 3 47 10 74l77 312h92l-82 -329
c-5 -18 -7 -35 -7 -49c0 -68 39 -102 107 -102c77 0 134 43 155 131l87 349h92z" />
    <glyph glyph-name="ucircumflex.smcp" horiz-adv-x="602" 
d="M542 609h-81l-52 93l-96 -93h-96l149 143h97zM596 548l-92 -366c-31 -127 -119 -196 -249 -196c-124 0 -190 63 -190 176c0 22 3 47 10 74l77 312h92l-82 -329c-5 -18 -7 -35 -7 -49c0 -68 39 -102 107 -102c77 0 134 43 155 131l87 349h92z" />
    <glyph glyph-name="udieresis.smcp" horiz-adv-x="602" 
d="M334 653h-82l24 99h82zM529 653h-82l24 99h82zM596 548l-92 -366c-31 -127 -119 -196 -249 -196c-124 0 -190 63 -190 176c0 22 3 47 10 74l77 312h92l-82 -329c-5 -18 -7 -35 -7 -49c0 -68 39 -102 107 -102c77 0 134 43 155 131l87 349h92z" />
    <glyph glyph-name="ugrave.smcp" horiz-adv-x="602" 
d="M391 752l55 -143h-71l-93 143h109zM596 548l-92 -366c-31 -127 -119 -196 -249 -196c-124 0 -190 63 -190 176c0 22 3 47 10 74l77 312h92l-82 -329c-5 -18 -7 -35 -7 -49c0 -68 39 -102 107 -102c77 0 134 43 155 131l87 349h92z" />
    <glyph glyph-name="uhungarumlaut.smcp" horiz-adv-x="602" 
d="M320 609h-79l136 143h109zM480 609h-79l136 143h109zM596 548l-92 -366c-31 -127 -119 -196 -249 -196c-124 0 -190 63 -190 176c0 22 3 47 10 74l77 312h92l-82 -329c-5 -18 -7 -35 -7 -49c0 -68 39 -102 107 -102c77 0 134 43 155 131l87 349h92z" />
    <glyph glyph-name="umacron.smcp" horiz-adv-x="602" 
d="M533 656h-284l15 64h285zM596 548l-92 -366c-31 -127 -119 -196 -249 -196c-124 0 -190 63 -190 176c0 22 3 47 10 74l77 312h92l-82 -329c-5 -18 -7 -35 -7 -49c0 -68 39 -102 107 -102c77 0 134 43 155 131l87 349h92z" />
    <glyph glyph-name="uogonek.smcp" horiz-adv-x="602" 
d="M596 548l-92 -366c-20 -84 -66 -140 -127 -179c-83 -54 -102 -87 -102 -114c0 -18 11 -27 32 -27c13 0 27 2 40 7l-14 -56c-14 -4 -32 -7 -52 -7c-59 0 -88 26 -88 71c0 37 25 71 83 108v2c-7 -1 -14 -1 -21 -1c-124 0 -190 63 -190 176c0 22 3 47 10 74l77 312h92
l-82 -329c-5 -18 -7 -35 -7 -49c0 -68 39 -102 107 -102c77 0 134 43 155 131l87 349h92z" />
    <glyph glyph-name="uring.smcp" horiz-adv-x="602" 
d="M393 806c56 0 101 -45 101 -100c0 -56 -45 -101 -101 -101c-55 0 -100 45 -100 101c0 55 45 100 100 100zM393 764c-31 0 -57 -26 -57 -58c0 -33 26 -58 57 -58c33 0 58 25 58 58c0 32 -25 58 -58 58zM596 548l-92 -366c-31 -127 -119 -196 -249 -196
c-124 0 -190 63 -190 176c0 22 3 47 10 74l77 312h92l-82 -329c-5 -18 -7 -35 -7 -49c0 -68 39 -102 107 -102c77 0 134 43 155 131l87 349h92z" />
    <glyph glyph-name="utilde.smcp" horiz-adv-x="602" 
d="M528 746h58c-21 -73 -66 -115 -122 -115c-63 0 -87 51 -132 51c-28 0 -47 -18 -58 -51h-60c20 73 66 115 122 115c63 0 89 -51 132 -51c29 0 48 17 60 51zM596 548l-92 -366c-31 -127 -119 -196 -249 -196c-124 0 -190 63 -190 176c0 22 3 47 10 74l77 312h92l-82 -329
c-5 -18 -7 -35 -7 -49c0 -68 39 -102 107 -102c77 0 134 43 155 131l87 349h92z" />
    <glyph glyph-name="v.smcp" horiz-adv-x="521" 
d="M259 0h-123l-57 548h90l24 -241c8 -74 14 -149 19 -222h2c41 73 84 148 128 222l143 241h103z" />
    <glyph glyph-name="w.smcp" horiz-adv-x="769" 
d="M568 0h-133l1 237c0 78 1 156 2 233h-2c-35 -77 -72 -155 -111 -233l-117 -237h-133l7 548h87l-4 -212c-1 -84 -3 -169 -6 -252h2c40 84 81 169 123 253l105 211h129v-211c0 -84 -1 -169 -2 -253h2c38 83 77 168 118 252l102 212h95z" />
    <glyph glyph-name="wacute.smcp" horiz-adv-x="769" 
d="M476 609h-81l116 143h118zM568 0h-133l1 237c0 78 1 156 2 233h-2c-35 -77 -72 -155 -111 -233l-117 -237h-133l7 548h87l-4 -212c-1 -84 -3 -169 -6 -252h2c40 84 81 169 123 253l105 211h129v-211c0 -84 -1 -169 -2 -253h2c38 83 77 168 118 252l102 212h95z" />
    <glyph glyph-name="wcircumflex.smcp" horiz-adv-x="769" 
d="M624 609h-81l-52 93l-96 -93h-96l149 143h97zM568 0h-133l1 237c0 78 1 156 2 233h-2c-35 -77 -72 -155 -111 -233l-117 -237h-133l7 548h87l-4 -212c-1 -84 -3 -169 -6 -252h2c40 84 81 169 123 253l105 211h129v-211c0 -84 -1 -169 -2 -253h2c38 83 77 168 118 252
l102 212h95z" />
    <glyph glyph-name="wdieresis.smcp" horiz-adv-x="769" 
d="M416 653h-82l24 99h82zM611 653h-82l24 99h82zM568 0h-133l1 237c0 78 1 156 2 233h-2c-35 -77 -72 -155 -111 -233l-117 -237h-133l7 548h87l-4 -212c-1 -84 -3 -169 -6 -252h2c40 84 81 169 123 253l105 211h129v-211c0 -84 -1 -169 -2 -253h2c38 83 77 168 118 252
l102 212h95z" />
    <glyph glyph-name="wgrave.smcp" horiz-adv-x="769" 
d="M473 752l55 -143h-71l-93 143h109zM568 0h-133l1 237c0 78 1 156 2 233h-2c-35 -77 -72 -155 -111 -233l-117 -237h-133l7 548h87l-4 -212c-1 -84 -3 -169 -6 -252h2c40 84 81 169 123 253l105 211h129v-211c0 -84 -1 -169 -2 -253h2c38 83 77 168 118 252l102 212h95z
" />
    <glyph glyph-name="x.smcp" horiz-adv-x="524" 
d="M326 278l129 -278h-98l-96 216h-2l-194 -216h-121l268 289l-121 259h96l89 -201h2l182 201h120z" />
    <glyph glyph-name="y.smcp" horiz-adv-x="516" 
d="M291 222l-56 -222h-91l55 222l-128 326h94l40 -108c17 -47 33 -93 48 -140h2c37 47 76 93 116 140l93 108h116z" />
    <glyph glyph-name="yacute.smcp" horiz-adv-x="516" 
d="M336 609h-81l116 143h118zM291 222l-56 -222h-91l55 222l-128 326h94l40 -108c17 -47 33 -93 48 -140h2c37 47 76 93 116 140l93 108h116z" />
    <glyph glyph-name="ycircumflex.smcp" horiz-adv-x="516" 
d="M484 609h-81l-52 93l-96 -93h-96l149 143h97zM291 222l-56 -222h-91l55 222l-128 326h94l40 -108c17 -47 33 -93 48 -140h2c37 47 76 93 116 140l93 108h116z" />
    <glyph glyph-name="ydieresis.smcp" horiz-adv-x="516" 
d="M275 653h-82l24 99h82zM470 653h-82l24 99h82zM291 222l-56 -222h-91l55 222l-128 326h94l40 -108c17 -47 33 -93 48 -140h2c37 47 76 93 116 140l93 108h116z" />
    <glyph glyph-name="ygrave.smcp" horiz-adv-x="516" 
d="M333 752l55 -143h-71l-93 143h109zM291 222l-56 -222h-91l55 222l-128 326h94l40 -108c17 -47 33 -93 48 -140h2c37 47 76 93 116 140l93 108h116z" />
    <glyph glyph-name="z.smcp" horiz-adv-x="471" 
d="M491 462l-401 -381v-2h321l-20 -79h-437l21 86l402 381v2h-297l19 79h413z" />
    <glyph glyph-name="zacute.smcp" horiz-adv-x="471" 
d="M317 609h-81l116 143h118zM491 462l-401 -381v-2h321l-20 -79h-437l21 86l402 381v2h-297l19 79h413z" />
    <glyph glyph-name="zcaron.smcp" horiz-adv-x="471" 
d="M350 609h-97l-79 143h81l52 -93l96 93h96zM491 462l-401 -381v-2h321l-20 -79h-437l21 86l402 381v2h-297l19 79h413z" />
    <glyph glyph-name="zdotaccent.smcp" horiz-adv-x="471" 
d="M357 653h-88l24 99h88zM491 462l-401 -381v-2h321l-20 -79h-437l21 86l402 381v2h-297l19 79h413z" />
    <glyph glyph-name="ccedilla.smcp.ss01" 
d="M350 562c132 0 203 -71 203 -179c0 -10 -1 -23 -3 -35h-95c1 8 1 16 1 23c1 70 -43 109 -114 109c-145 0 -213 -158 -213 -265c0 -94 44 -147 126 -147c75 0 139 41 166 111h97c-40 -120 -142 -193 -272 -193c-136 0 -212 82 -212 223c0 151 104 353 316 353zM154 -211
h-115l165 162h84z" />
    <glyph glyph-name="scedilla.smcp.ss01" horiz-adv-x="523" 
d="M299 562c129 0 192 -48 192 -143c0 -12 -1 -25 -4 -39h-91c3 10 4 18 4 26c0 55 -39 81 -108 81c-82 0 -120 -46 -120 -85c0 -46 39 -61 113 -84c84 -26 157 -57 157 -156c0 -79 -77 -176 -235 -176c-127 0 -198 53 -198 152c0 13 1 27 5 43h91c-3 -13 -4 -25 -4 -36
c0 -58 43 -83 116 -83c93 0 132 49 132 92c0 47 -40 67 -112 89c-85 28 -156 56 -156 150c0 75 71 169 218 169zM114 -211h-115l165 162h84z" />
    <glyph glyph-name="tcedilla.smcp.ss01" horiz-adv-x="500" 
d="M543 468h-194l-116 -468h-92l117 468h-194l19 80h480zM93 -211h-115l165 162h84z" />
    <glyph glyph-name="ordfeminine" unicode="&#xaa;" horiz-adv-x="393" 
d="M286 696c85 0 133 -36 133 -110c0 -14 -2 -30 -6 -46l-29 -116c-10 -42 -15 -72 -14 -94h-70c0 12 2 26 5 37h-2c-32 -29 -73 -45 -123 -45c-72 0 -113 39 -113 93c0 53 34 108 165 127c35 5 81 9 110 10l2 6c3 10 4 20 4 29c0 38 -26 54 -67 54c-47 0 -77 -25 -86 -64
h-76c15 66 75 119 167 119zM324 474l6 26c-26 -2 -63 -6 -91 -10c-76 -11 -93 -36 -93 -66c0 -28 21 -46 61 -46c57 0 101 35 117 96z" />
    <glyph glyph-name="ordmasculine" unicode="&#xba;" horiz-adv-x="415" 
d="M295 696c99 0 156 -57 156 -155c0 -97 -69 -221 -206 -221c-99 0 -154 57 -154 155c0 97 68 221 204 221zM291 634c-83 0 -122 -95 -122 -162c0 -57 26 -91 80 -91c84 0 124 96 124 162c0 58 -27 91 -82 91z" />
    <glyph glyph-name="Delta" unicode="&#x394;" horiz-adv-x="675" 
d="M608 0h-666l448 712h125zM508 82l-33 276c-12 99 -22 191 -32 290h-2c-58 -99 -113 -191 -173 -290l-170 -276h410z" />
    <glyph glyph-name="Omega" unicode="&#x3a9;" horiz-adv-x="729" 
d="M454 726c162 0 266 -78 266 -243c0 -152 -88 -277 -240 -400v-2h168l-20 -81h-269l20 84c160 128 241 246 241 380c0 120 -69 178 -177 178c-183 0 -273 -171 -273 -310c0 -98 37 -173 84 -248l-21 -84h-258l20 81h172v2c-49 77 -88 159 -88 262c0 172 120 381 375 381z
" />
    <glyph glyph-name="mu" unicode="&#x3bc;" horiz-adv-x="583" 
d="M562 508l-90 -363c-5 -20 -7 -35 -7 -46c0 -24 11 -32 34 -32c8 0 16 1 25 3l-17 -70c-14 -5 -29 -6 -46 -6c-54 0 -78 27 -76 82h-2c-34 -51 -96 -83 -160 -83c-55 0 -91 21 -108 58l-59 -236h-88l173 693h88l-74 -294c-5 -25 -9 -45 -9 -63c0 -63 35 -88 94 -88
c68 0 137 53 163 155l71 290h88z" />
    <glyph glyph-name="pi" unicode="&#x3c0;" horiz-adv-x="652" 
d="M679 438h-117l-67 -272c-5 -19 -8 -36 -8 -48c0 -41 21 -53 57 -53c9 0 18 1 24 3l-17 -69c-11 -3 -29 -5 -43 -5c-72 0 -112 26 -112 102c0 20 4 42 11 72l67 270h-225l-109 -438h-88l109 438h-104l18 70h621z" />
    <glyph glyph-name="zero.lf" horiz-adv-x="590" 
d="M380 688c127 0 191 -83 191 -237c0 -177 -103 -465 -321 -465c-126 0 -189 83 -189 237c0 177 102 465 319 465zM374 607c-148 0 -220 -259 -220 -383c0 -104 35 -159 102 -159c149 0 220 259 220 383c0 103 -34 159 -102 159z" />
    <glyph glyph-name="one.lf" horiz-adv-x="360" 
d="M194 0h-91l122 491h-151l18 70c105 0 159 31 192 113h78z" />
    <glyph glyph-name="two.lf" horiz-adv-x="569" 
d="M373 688c117 0 189 -67 189 -167c0 -109 -70 -180 -238 -263c-152 -76 -190 -118 -207 -179h356l-18 -79h-463c28 157 99 231 280 321c147 72 194 117 194 190c0 62 -35 97 -100 97c-77 0 -128 -50 -152 -132h-96c37 138 132 212 255 212z" />
    <glyph glyph-name="three.lf" horiz-adv-x="563" 
d="M359 688c128 0 200 -64 200 -166c0 -75 -44 -149 -158 -184v-2c57 -24 89 -70 89 -136c0 -95 -85 -214 -255 -214c-135 0 -207 61 -207 167c0 15 2 33 6 50h92c-4 -16 -5 -29 -5 -42c0 -63 40 -96 117 -96c105 0 161 74 161 134c0 68 -46 103 -132 103h-27l20 77h25
c129 0 182 76 182 136c0 57 -42 94 -114 94c-77 0 -132 -44 -154 -134h-93c31 134 127 213 253 213z" />
    <glyph glyph-name="four.lf" horiz-adv-x="550" 
d="M514 174h-110l-43 -174h-91l43 174h-318l22 89l384 411h128l-106 -424h110zM106 250h228l22 93c21 79 42 164 64 243h-2c-69 -76 -137 -151 -207 -225z" />
    <glyph glyph-name="five.lf" horiz-adv-x="562" 
d="M563 596h-305l-67 -195h2c34 28 81 42 125 42c117 0 184 -73 184 -190c0 -115 -94 -267 -276 -267c-121 0 -195 57 -195 152c0 13 2 27 5 41h93c-2 -10 -3 -19 -3 -27c0 -56 44 -86 109 -86c119 0 172 107 172 181c0 75 -42 118 -114 118c-60 0 -110 -34 -139 -95l-90 6
l137 398h382z" />
    <glyph glyph-name="six.lf" horiz-adv-x="567" 
d="M384 688c121 0 187 -63 187 -162c0 -6 0 -15 -1 -25h-93c0 5 1 9 1 12c0 63 -32 95 -97 95c-84 0 -168 -74 -213 -237h2c45 44 101 68 162 68c111 0 179 -76 179 -196c0 -108 -93 -257 -259 -257c-128 0 -195 74 -195 221c0 183 110 481 327 481zM309 364
c-109 0 -165 -102 -165 -175c0 -76 39 -123 110 -123c108 0 161 103 161 171c0 78 -38 127 -106 127z" />
    <glyph glyph-name="seven.lf" horiz-adv-x="470" 
d="M558 674l-20 -81c-137 -148 -276 -351 -382 -593h-102c127 271 273 468 391 594h-346l21 80h438z" />
    <glyph glyph-name="eight.lf" horiz-adv-x="568" 
d="M368 688c122 0 201 -66 201 -167c0 -81 -54 -152 -158 -182v-2c57 -26 89 -77 89 -145c0 -95 -88 -206 -255 -206c-132 0 -212 70 -212 184c0 82 55 159 173 188v2c-49 27 -80 73 -80 134c0 86 86 194 242 194zM361 609c-99 0 -147 -69 -147 -125c0 -61 42 -98 115 -98
c104 0 147 71 147 125c0 61 -44 98 -115 98zM285 308c-107 0 -159 -75 -159 -135c0 -67 47 -107 125 -107c109 0 160 77 160 136c0 65 -47 106 -126 106z" />
    <glyph glyph-name="nine.lf" horiz-adv-x="567" 
d="M224 -14c-121 0 -187 63 -187 162c0 6 0 15 1 25h93c0 -5 -1 -9 -1 -12c0 -63 32 -95 97 -95c85 0 168 74 213 237h-2c-44 -44 -101 -68 -162 -68c-111 0 -179 76 -179 196c0 108 93 257 260 257c127 0 194 -74 194 -221c0 -183 -110 -481 -327 -481zM299 310
c109 0 165 102 165 175c0 76 -38 123 -110 123c-108 0 -161 -103 -161 -171c0 -78 38 -127 106 -127z" />
    <glyph glyph-name="fraction" unicode="&#x2044;" horiz-adv-x="147" 
d="M-145 0h-73l552 674h74z" />
    <glyph glyph-name="onehalf" unicode="&#xbd;" horiz-adv-x="754" 
d="M95 0h-73l552 674h74zM182 270h-75l70 278h-94l14 58c67 0 102 19 122 68h64zM596 413c79 0 127 -43 127 -104c0 -66 -46 -110 -147 -158c-87 -41 -109 -59 -118 -87h217l-15 -64h-303c18 101 61 146 174 200c81 40 113 62 113 102c0 32 -18 48 -52 48
c-41 0 -68 -26 -81 -70h-80c23 88 84 133 165 133z" />
    <glyph glyph-name="onequarter" unicode="&#xbc;" horiz-adv-x="723" 
d="M648 674l-553 -674h-73l552 674h74zM177 548h-94l14 58c67 0 102 19 122 68h64l-101 -404h-75zM673 96h-67l-24 -96h-74l24 96h-195l18 70l226 238h102l-62 -248h67zM425 156h124l12 49c9 40 22 87 33 126h-2c-35 -38 -71 -76 -108 -114z" />
    <glyph glyph-name="threequarters" unicode="&#xbe;" horiz-adv-x="845" 
d="M361 391c0 -57 -53 -130 -162 -130c-91 0 -139 38 -139 104c0 9 1 20 3 32h77c-1 -9 -2 -17 -2 -24c0 -34 21 -50 63 -50c57 0 86 36 86 68c0 35 -27 52 -76 52h-13l15 62h15c68 0 99 37 99 70c0 29 -22 46 -61 46c-44 0 -72 -23 -84 -70h-76c18 83 81 132 165 132
c85 0 132 -38 132 -102c0 -44 -24 -83 -93 -107v-2c33 -16 51 -44 51 -81zM770 674l-553 -674h-73l552 674h74zM796 96h-67l-24 -96h-74l24 96h-195l18 70l226 238h102l-62 -248h67zM548 156h124l12 49c9 40 22 87 33 126h-2c-35 -38 -71 -76 -108 -114z" />
    <glyph glyph-name="oneeighth" unicode="&#x215b;" horiz-adv-x="752" 
d="M95 0h-73l552 674h74zM182 270h-75l70 278h-94l14 58c67 0 102 19 122 68h64zM592 413c81 0 134 -41 134 -104c0 -48 -34 -93 -99 -107v-2c38 -12 58 -43 58 -85c0 -59 -55 -124 -161 -124c-90 0 -142 44 -142 114c0 50 38 99 107 110v2c-31 13 -52 44 -52 81
c0 52 54 115 155 115zM587 351c-54 0 -78 -32 -78 -63s23 -51 64 -51c55 0 78 34 78 64s-22 50 -64 50zM543 177c-60 0 -84 -38 -84 -69c0 -35 25 -55 68 -55c58 0 84 38 84 70c0 34 -25 54 -68 54z" />
    <glyph glyph-name="threeeighths" unicode="&#x215c;" horiz-adv-x="874" 
d="M271 683c85 0 132 -38 132 -102c0 -44 -24 -83 -93 -107v-2c33 -16 51 -44 51 -81c0 -57 -53 -130 -162 -130c-91 0 -139 38 -139 104c0 9 1 20 3 32h77c-1 -9 -2 -17 -2 -24c0 -34 21 -50 63 -50c57 0 86 36 86 68c0 35 -27 52 -76 52h-13l15 62h15c68 0 99 37 99 70
c0 29 -22 46 -61 46c-44 0 -72 -23 -84 -70h-76c18 83 81 132 165 132zM217 0h-73l552 674h74zM714 413c81 0 134 -41 134 -104c0 -48 -34 -93 -99 -107v-2c38 -12 58 -43 58 -85c0 -59 -55 -124 -161 -124c-90 0 -142 44 -142 114c0 50 38 99 107 110v2
c-31 13 -52 44 -52 81c0 52 54 115 155 115zM709 351c-54 0 -78 -32 -78 -63s23 -51 64 -51c55 0 78 34 78 64s-22 50 -64 50zM665 177c-60 0 -84 -38 -84 -69c0 -35 25 -55 68 -55c58 0 84 38 84 70c0 34 -25 54 -68 54z" />
    <glyph glyph-name="fiveeighths" unicode="&#x215d;" horiz-adv-x="875" 
d="M400 610h-186l-34 -93h2c20 16 44 22 69 22c75 0 119 -45 119 -117c0 -70 -59 -161 -176 -161c-82 0 -132 36 -132 96c0 7 1 15 3 24h77c-1 -5 -1 -9 -1 -13c0 -29 25 -45 60 -45c63 0 91 56 91 93c0 40 -23 63 -62 63c-34 0 -60 -20 -74 -51l-74 5l83 241h251zM218 0
h-73l552 674h74zM716 413c81 0 134 -41 134 -104c0 -48 -34 -93 -99 -107v-2c38 -12 58 -43 58 -85c0 -59 -55 -124 -161 -124c-90 0 -142 44 -142 114c0 50 38 99 107 110v2c-31 13 -52 44 -52 81c0 52 54 115 155 115zM711 351c-54 0 -78 -32 -78 -63s23 -51 64 -51
c55 0 78 34 78 64s-22 50 -64 50zM667 177c-60 0 -84 -38 -84 -69c0 -35 25 -55 68 -55c58 0 84 38 84 70c0 34 -25 54 -68 54z" />
    <glyph glyph-name="seveneighths" unicode="&#x215e;" horiz-adv-x="781" 
d="M124 0h-73l552 674h74zM415 674l-16 -64c-81 -84 -162 -208 -220 -340h-90c72 150 159 269 226 339h-217l16 65h301zM622 413c81 0 134 -41 134 -104c0 -48 -34 -93 -99 -107v-2c38 -12 58 -43 58 -85c0 -59 -55 -124 -161 -124c-90 0 -142 44 -142 114
c0 50 38 99 107 110v2c-31 13 -52 44 -52 81c0 52 54 115 155 115zM617 351c-54 0 -78 -32 -78 -63s23 -51 64 -51c55 0 78 34 78 64s-22 50 -64 50zM573 177c-60 0 -84 -38 -84 -69c0 -35 25 -55 68 -55c58 0 84 38 84 70c0 34 -25 54 -68 54z" />
    <glyph glyph-name="zero.dnom" horiz-adv-x="378" 
d="M214 413c84 0 126 -52 126 -147c0 -108 -66 -275 -203 -275c-84 0 -125 52 -125 148c0 107 64 274 202 274zM208 350c-81 0 -121 -146 -121 -212c0 -55 20 -86 55 -86c82 0 120 145 120 213c0 54 -17 85 -54 85z" />
    <glyph glyph-name="one.dnom" horiz-adv-x="240" 
d="M115 0h-75l70 278h-94l14 58c67 0 102 19 122 68h64z" />
    <glyph glyph-name="two.dnom" horiz-adv-x="367" 
d="M209 413c79 0 127 -43 127 -104c0 -66 -46 -110 -147 -158c-87 -41 -109 -59 -118 -87h217l-15 -64h-303c18 101 61 146 174 200c81 40 113 62 113 102c0 32 -18 48 -52 48c-41 0 -68 -26 -81 -70h-80c23 88 84 133 165 133z" />
    <glyph glyph-name="three.dnom" horiz-adv-x="362" 
d="M204 413c85 0 132 -38 132 -102c0 -44 -24 -83 -93 -107v-2c33 -16 51 -44 51 -81c0 -57 -53 -130 -162 -130c-91 0 -139 38 -139 104c0 9 1 20 3 32h77c-1 -9 -2 -17 -2 -24c0 -34 21 -50 63 -50c57 0 86 36 86 68c0 35 -27 52 -76 52h-13l15 62h15c68 0 99 37 99 70
c0 29 -22 46 -61 46c-44 0 -72 -23 -84 -70h-76c18 83 81 132 165 132z" />
    <glyph glyph-name="four.dnom" horiz-adv-x="355" 
d="M306 96h-67l-24 -96h-74l24 96h-195l18 70l226 238h102l-62 -248h67zM58 156h124l12 49c9 40 22 87 33 126h-2c-35 -38 -71 -76 -108 -114z" />
    <glyph glyph-name="five.dnom" horiz-adv-x="363" 
d="M332 340h-186l-34 -93h2c20 16 44 22 69 22c75 0 119 -45 119 -117c0 -70 -59 -161 -176 -161c-82 0 -132 36 -132 96c0 7 1 15 3 24h77c-1 -5 -1 -9 -1 -13c0 -29 25 -45 60 -45c63 0 91 56 91 93c0 40 -23 63 -62 63c-34 0 -60 -20 -74 -51l-74 5l83 241h251z" />
    <glyph glyph-name="six.dnom" horiz-adv-x="365" 
d="M215 413c81 0 126 -39 126 -100c0 -5 0 -12 -1 -18h-76v6c0 34 -17 50 -52 50c-46 0 -90 -37 -114 -118h2c30 25 60 32 92 32c70 0 114 -46 114 -119c0 -66 -58 -155 -164 -155c-86 0 -131 48 -131 142c0 109 67 280 204 280zM171 205c-55 0 -87 -48 -87 -89
c0 -36 22 -62 60 -62c56 0 84 52 84 88c0 35 -18 63 -57 63z" />
    <glyph glyph-name="seven.dnom" horiz-adv-x="319" 
d="M347 404l-16 -64c-81 -84 -162 -208 -220 -340h-90c72 150 159 269 226 339h-217l16 65h301z" />
    <glyph glyph-name="eight.dnom" horiz-adv-x="365" 
d="M205 413c81 0 134 -41 134 -104c0 -48 -34 -93 -99 -107v-2c38 -12 58 -43 58 -85c0 -59 -55 -124 -161 -124c-90 0 -142 44 -142 114c0 50 38 99 107 110v2c-31 13 -52 44 -52 81c0 52 54 115 155 115zM200 351c-54 0 -78 -32 -78 -63s23 -51 64 -51c55 0 78 34 78 64
s-22 50 -64 50zM156 177c-60 0 -84 -38 -84 -69c0 -35 25 -55 68 -55c58 0 84 38 84 70c0 34 -25 54 -68 54z" />
    <glyph glyph-name="nine.dnom" horiz-adv-x="365" 
d="M123 -9c-80 0 -125 39 -125 100c0 5 0 12 1 18h76v-6c0 -34 17 -50 51 -50c47 0 90 37 115 118h-2c-31 -25 -60 -32 -92 -32c-70 0 -114 46 -114 119c0 66 58 155 164 155c86 0 131 -48 131 -142c0 -109 -68 -280 -205 -280zM167 199c55 0 88 48 88 89
c0 36 -23 62 -60 62c-56 0 -85 -52 -85 -88c0 -35 19 -63 57 -63z" />
    <glyph glyph-name="zero.numr" horiz-adv-x="378" 
d="M282 683c84 0 126 -52 126 -147c0 -108 -66 -275 -203 -275c-84 0 -125 52 -125 148c0 107 64 274 202 274zM276 620c-81 0 -121 -146 -121 -212c0 -55 20 -86 55 -86c82 0 120 145 120 213c0 54 -17 85 -54 85z" />
    <glyph glyph-name="one.numr" horiz-adv-x="240" 
d="M182 270h-75l70 278h-94l14 58c67 0 102 19 122 68h64z" />
    <glyph glyph-name="two.numr" horiz-adv-x="367" 
d="M276 683c79 0 127 -43 127 -104c0 -66 -46 -110 -147 -158c-87 -41 -109 -59 -118 -87h217l-15 -64h-303c18 101 61 146 174 200c81 40 113 62 113 102c0 32 -18 48 -52 48c-41 0 -68 -26 -81 -70h-80c23 88 84 133 165 133z" />
    <glyph glyph-name="three.numr" horiz-adv-x="362" 
d="M271 683c85 0 132 -38 132 -102c0 -44 -24 -83 -93 -107v-2c33 -16 51 -44 51 -81c0 -57 -53 -130 -162 -130c-91 0 -139 38 -139 104c0 9 1 20 3 32h77c-1 -9 -2 -17 -2 -24c0 -34 21 -50 63 -50c57 0 86 36 86 68c0 35 -27 52 -76 52h-13l15 62h15c68 0 99 37 99 70
c0 29 -22 46 -61 46c-44 0 -72 -23 -84 -70h-76c18 83 81 132 165 132z" />
    <glyph glyph-name="four.numr" horiz-adv-x="355" 
d="M373 366h-67l-24 -96h-74l24 96h-195l18 70l226 238h102l-62 -248h67zM125 426h124l12 49c9 40 22 87 33 126h-2c-35 -38 -71 -76 -108 -114z" />
    <glyph glyph-name="five.numr" horiz-adv-x="363" 
d="M400 610h-186l-34 -93h2c20 16 44 22 69 22c75 0 119 -45 119 -117c0 -70 -59 -161 -176 -161c-82 0 -132 36 -132 96c0 7 1 15 3 24h77c-1 -5 -1 -9 -1 -13c0 -29 25 -45 60 -45c63 0 91 56 91 93c0 40 -23 63 -62 63c-34 0 -60 -20 -74 -51l-74 5l83 241h251z" />
    <glyph glyph-name="six.numr" horiz-adv-x="365" 
d="M282 683c81 0 126 -39 126 -100c0 -5 0 -12 -1 -18h-76v6c0 34 -17 50 -52 50c-46 0 -90 -37 -114 -118h2c30 25 60 32 92 32c70 0 114 -46 114 -119c0 -66 -58 -155 -164 -155c-86 0 -131 48 -131 142c0 109 67 280 204 280zM238 475c-55 0 -87 -48 -87 -89
c0 -36 22 -62 60 -62c56 0 84 52 84 88c0 35 -18 63 -57 63z" />
    <glyph glyph-name="seven.numr" horiz-adv-x="319" 
d="M415 674l-16 -64c-81 -84 -162 -208 -220 -340h-90c72 150 159 269 226 339h-217l16 65h301z" />
    <glyph glyph-name="eight.numr" horiz-adv-x="365" 
d="M273 683c81 0 134 -41 134 -104c0 -48 -34 -93 -99 -107v-2c38 -12 58 -43 58 -85c0 -59 -55 -124 -161 -124c-90 0 -142 44 -142 114c0 50 38 99 107 110v2c-31 13 -52 44 -52 81c0 52 54 115 155 115zM268 621c-54 0 -78 -32 -78 -63s23 -51 64 -51c55 0 78 34 78 64
s-22 50 -64 50zM224 447c-60 0 -84 -38 -84 -69c0 -35 25 -55 68 -55c58 0 84 38 84 70c0 34 -25 54 -68 54z" />
    <glyph glyph-name="nine.numr" horiz-adv-x="365" 
d="M190 261c-80 0 -125 39 -125 100c0 5 0 12 1 18h76v-6c0 -34 17 -50 51 -50c47 0 90 37 115 118h-2c-31 -25 -60 -32 -92 -32c-70 0 -114 46 -114 119c0 66 58 155 164 155c86 0 131 -48 131 -142c0 -109 -68 -280 -205 -280zM234 469c55 0 88 48 88 89
c0 36 -23 62 -60 62c-56 0 -85 -52 -85 -88c0 -35 19 -63 57 -63z" />
    <glyph glyph-name="zeroinferior" unicode="&#x2080;" horiz-adv-x="433" 
d="M213 310c95 0 144 -60 144 -171c0 -124 -75 -321 -233 -321c-95 0 -143 59 -143 170c0 125 74 322 232 322zM209 244c-100 0 -148 -175 -148 -256c0 -68 24 -106 68 -106c100 0 148 174 148 256c0 68 -23 106 -68 106z" />
    <glyph glyph-name="oneinferior" unicode="&#x2081;" horiz-adv-x="270" 
d="M92 -172h-78l82 332h-109l15 60c77 0 117 22 141 80h67z" />
    <glyph glyph-name="twoinferior" unicode="&#x2082;" horiz-adv-x="419" 
d="M208 310c90 0 143 -49 143 -120c0 -77 -52 -127 -171 -183c-105 -50 -131 -75 -141 -113h253l-15 -66h-345c21 115 72 167 202 229c98 48 135 76 135 124c0 41 -22 63 -66 63c-52 0 -84 -33 -100 -86h-83c26 99 96 152 188 152z" />
    <glyph glyph-name="threeinferior" unicode="&#x2083;" horiz-adv-x="414" 
d="M199 310c97 0 151 -45 151 -118c0 -52 -31 -102 -112 -128v-1c41 -18 64 -50 64 -95c0 -66 -63 -150 -187 -150c-103 0 -157 43 -157 119c0 11 1 24 5 36h79c-2 -10 -3 -19 -3 -27c0 -42 26 -63 78 -63c70 0 107 46 107 85c0 44 -32 67 -91 67h-17l15 63h18
c85 0 122 47 122 87c0 37 -28 59 -76 59c-53 0 -89 -28 -103 -87h-80c22 97 94 153 187 153z" />
    <glyph glyph-name="fourinferior" unicode="&#x2084;" horiz-adv-x="406" 
d="M317 -57h-79l-29 -115h-77l29 115h-228l18 74l269 283h107l-73 -293h79zM26 7h153l15 61c13 52 27 107 42 158h-2c-46 -49 -91 -96 -138 -145z" />
    <glyph glyph-name="fiveinferior" unicode="&#x2085;" horiz-adv-x="416" 
d="M349 234h-217l-42 -120h2c23 17 55 26 84 26c86 0 136 -52 136 -135c0 -81 -69 -187 -202 -187c-93 0 -148 41 -148 110c0 9 0 18 3 28h80c-1 -7 -1 -13 -1 -17c0 -36 29 -56 73 -56c79 0 113 69 113 116c0 49 -28 78 -75 78c-42 0 -74 -24 -93 -62l-77 4l97 281h284z
" />
    <glyph glyph-name="sixinferior" unicode="&#x2086;" horiz-adv-x="416" 
d="M218 310c88 0 139 -46 139 -116c0 -5 0 -12 -1 -19h-79v7c0 42 -22 63 -65 63c-57 0 -110 -48 -141 -150h2c33 28 69 41 109 41c83 0 134 -54 134 -138c0 -76 -67 -180 -189 -180c-96 0 -148 54 -148 162c0 127 79 330 239 330zM163 74c-69 0 -108 -61 -108 -111
c0 -48 27 -80 74 -80c70 0 105 66 105 110c0 49 -26 81 -71 81z" />
    <glyph glyph-name="seveninferior" unicode="&#x2087;" horiz-adv-x="366" 
d="M365 300l-16 -67c-95 -101 -192 -244 -263 -405h-93c85 181 187 318 269 404h-258l18 68h343z" />
    <glyph glyph-name="eightinferior" unicode="&#x2088;" horiz-adv-x="418" 
d="M204 310c93 0 151 -48 151 -120c0 -54 -39 -109 -112 -126v-2c40 -14 65 -53 65 -101c0 -67 -64 -143 -187 -143c-99 0 -159 50 -159 132c0 54 42 114 124 129v2c-37 19 -59 52 -59 94c0 61 63 135 177 135zM199 245c-66 0 -97 -42 -97 -80c0 -39 27 -63 77 -63
c68 0 98 45 98 81c0 39 -30 62 -78 62zM146 38c-72 0 -104 -46 -104 -85c0 -44 32 -70 84 -70c71 0 105 46 105 87c0 42 -31 68 -85 68z" />
    <glyph glyph-name="nineinferior" unicode="&#x2089;" horiz-adv-x="417" 
d="M104 -182c-88 0 -139 46 -139 116c0 5 0 12 1 19h79v-7c0 -42 22 -63 64 -63c57 0 111 48 142 150h-2c-33 -28 -69 -41 -109 -41c-83 0 -134 54 -134 138c0 76 67 180 189 180c96 0 148 -54 148 -162c0 -127 -79 -330 -239 -330zM159 54c69 0 108 61 108 111
c0 48 -27 80 -74 80c-70 0 -105 -66 -105 -110c0 -49 26 -81 71 -81z" />
    <glyph glyph-name="zerosuperior" unicode="&#x2070;" horiz-adv-x="433" 
d="M338 812c95 0 144 -60 144 -171c0 -124 -75 -321 -233 -321c-95 0 -143 59 -143 170c0 125 74 322 232 322zM334 746c-100 0 -148 -175 -148 -256c0 -68 24 -106 68 -106c100 0 148 174 148 256c0 68 -23 106 -68 106z" />
    <glyph glyph-name="onesuperior" unicode="&#xb9;" horiz-adv-x="271" 
d="M218 330h-79l82 332h-108l15 60c77 0 117 22 141 80h67z" />
    <glyph glyph-name="twosuperior" unicode="&#xb2;" horiz-adv-x="419" 
d="M333 812c90 0 143 -49 143 -120c0 -77 -52 -127 -171 -183c-105 -50 -131 -75 -141 -113h253l-15 -66h-345c21 115 72 167 202 229c98 48 135 76 135 124c0 41 -22 63 -66 63c-52 0 -84 -33 -100 -86h-83c26 99 96 152 188 152z" />
    <glyph glyph-name="threesuperior" unicode="&#xb3;" horiz-adv-x="414" 
d="M324 812c97 0 151 -45 151 -118c0 -52 -31 -102 -112 -128v-1c41 -18 64 -50 64 -95c0 -66 -63 -150 -187 -150c-103 0 -157 43 -157 119c0 11 1 24 5 36h79c-2 -10 -3 -19 -3 -27c0 -42 26 -63 78 -63c70 0 107 46 107 85c0 44 -32 67 -91 67h-17l15 63h18
c85 0 122 47 122 87c0 37 -28 59 -76 59c-53 0 -89 -28 -103 -87h-80c22 97 94 153 187 153z" />
    <glyph glyph-name="foursuperior" unicode="&#x2074;" horiz-adv-x="406" 
d="M443 445h-79l-29 -115h-77l29 115h-229l18 74l269 283h108l-73 -293h78zM151 509h153l15 61c13 52 27 107 42 158h-2l-137 -145z" />
    <glyph glyph-name="fivesuperior" unicode="&#x2075;" horiz-adv-x="415" 
d="M473 736h-217l-42 -120h2c23 17 55 26 84 26c86 0 135 -52 135 -135c0 -81 -68 -187 -202 -187c-92 0 -148 41 -148 110c0 9 1 18 3 28h81c-2 -7 -2 -13 -2 -17c0 -36 30 -56 74 -56c79 0 113 69 113 116c0 49 -29 78 -76 78c-41 0 -74 -24 -92 -62l-77 4l97 281h284z
" />
    <glyph glyph-name="sixsuperior" unicode="&#x2076;" horiz-adv-x="417" 
d="M343 812c89 0 140 -46 140 -116c0 -5 0 -12 -1 -19h-80v7c0 42 -22 63 -64 63c-57 0 -111 -48 -141 -150h2c32 28 68 41 108 41c83 0 134 -54 134 -138c0 -76 -67 -180 -189 -180c-95 0 -147 54 -147 162c0 127 78 330 238 330zM289 576c-70 0 -108 -61 -108 -111
c0 -48 27 -80 73 -80c71 0 106 66 106 110c0 49 -26 81 -71 81z" />
    <glyph glyph-name="sevensuperior" unicode="&#x2077;" horiz-adv-x="366" 
d="M490 802l-16 -67c-95 -101 -192 -244 -263 -405h-93c85 181 187 318 269 404h-258l18 68h343z" />
    <glyph glyph-name="eightsuperior" unicode="&#x2078;" horiz-adv-x="419" 
d="M330 812c93 0 151 -48 151 -120c0 -54 -39 -109 -112 -126v-2c40 -14 65 -53 65 -101c0 -67 -64 -143 -187 -143c-99 0 -159 50 -159 132c0 54 42 114 124 129v2c-37 19 -59 52 -59 94c0 61 63 135 177 135zM325 747c-66 0 -97 -42 -97 -80c0 -39 27 -63 77 -63
c68 0 98 45 98 81c0 39 -30 62 -78 62zM272 540c-72 0 -104 -46 -104 -85c0 -44 32 -70 84 -70c71 0 105 46 105 87c0 42 -31 68 -85 68z" />
    <glyph glyph-name="ninesuperior" unicode="&#x2079;" horiz-adv-x="417" 
d="M229 320c-88 0 -139 46 -139 116c0 5 0 12 1 19h79v-7c0 -42 22 -63 64 -63c57 0 111 48 142 150h-2c-33 -28 -69 -41 -109 -41c-83 0 -134 54 -134 138c0 76 67 180 189 180c96 0 148 -54 148 -162c0 -127 -79 -330 -239 -330zM284 556c69 0 108 61 108 111
c0 48 -27 80 -74 80c-70 0 -105 -66 -105 -110c0 -49 26 -81 71 -81z" />
    <glyph glyph-name="zero.smcp" horiz-adv-x="478" 
d="M296 560c110 0 165 -69 165 -197c0 -146 -87 -375 -269 -375c-110 0 -165 69 -165 197c0 146 86 375 269 375zM289 483c-114 0 -170 -203 -170 -298c0 -79 28 -121 79 -121c115 0 170 202 170 297c0 78 -26 122 -79 122z" />
    <glyph glyph-name="one.smcp" horiz-adv-x="478" 
d="M240 0h-92l97 386h-128l18 69c90 0 136 26 164 93h78z" />
    <glyph glyph-name="two.smcp" horiz-adv-x="478" 
d="M295 560c103 0 165 -57 165 -140c0 -88 -60 -147 -197 -212c-121 -59 -151 -88 -164 -131h293l-18 -77h-398c24 133 82 194 232 266c114 56 157 88 157 145c0 46 -26 72 -76 72c-58 0 -97 -37 -115 -100h-97c31 115 112 177 218 177z" />
    <glyph glyph-name="three.smcp" horiz-adv-x="478" 
d="M293 560c108 0 170 -53 170 -137c0 -60 -35 -118 -127 -149v-2c46 -20 70 -57 71 -108c0 -78 -72 -176 -214 -176c-121 0 -185 51 -185 139c0 12 2 27 6 42h92c-3 -12 -4 -23 -4 -32c0 -49 32 -73 94 -73c79 0 120 54 120 99c0 51 -36 77 -104 77h-20l18 74h21
c98 0 140 55 140 101c0 42 -31 69 -84 69c-63 0 -106 -33 -123 -101h-93c25 111 111 177 222 177z" />
    <glyph glyph-name="four.smcp" horiz-adv-x="478" 
d="M428 134h-90l-34 -134h-90l34 134h-262l20 86l310 328h125l-85 -340h91zM92 208h176l18 73c14 58 31 122 48 181h-2c-52 -56 -104 -111 -158 -168z" />
    <glyph glyph-name="five.smcp" horiz-adv-x="478" 
d="M461 471h-251l-49 -141h2c28 21 66 33 99 33c97 0 155 -61 155 -157c0 -94 -79 -218 -236 -218c-104 0 -168 48 -168 128c0 10 2 21 5 33h92c-1 -7 -2 -14 -2 -20c0 -42 33 -65 82 -65c93 0 133 80 133 135c0 57 -32 89 -88 89c-47 0 -84 -26 -106 -72l-89 6l112 326h328
z" />
    <glyph glyph-name="six.smcp" horiz-adv-x="478" 
d="M310 560c103 0 161 -53 161 -136c0 -6 0 -14 -1 -21h-93v8c0 49 -25 73 -74 73c-65 0 -127 -55 -162 -175h2c36 34 79 49 125 49c95 0 154 -62 154 -160c0 -89 -77 -210 -218 -210c-111 0 -170 63 -170 187c0 149 91 385 276 385zM246 285c-83 0 -122 -69 -122 -128
c0 -56 29 -92 83 -92c81 0 121 75 121 127c0 57 -30 93 -82 93z" />
    <glyph glyph-name="seven.smcp" horiz-adv-x="478" 
d="M506 548l-19 -78c-111 -117 -222 -283 -303 -470h-109c99 209 216 370 310 469h-295l19 79h397z" />
    <glyph glyph-name="eight.smcp" horiz-adv-x="478" 
d="M293 560c107 0 175 -56 175 -139c0 -64 -50 -127 -128 -147v-2c45 -16 72 -60 72 -115c0 -78 -72 -169 -214 -169c-116 0 -184 58 -184 152c0 65 48 134 139 151v2c-41 24 -63 61 -63 109c0 71 71 158 203 158zM287 484c-77 0 -111 -48 -111 -90c0 -47 32 -76 89 -76
c78 0 111 52 111 95c0 44 -33 71 -89 71zM226 245c-83 0 -119 -56 -119 -101c0 -50 35 -80 96 -80c82 0 120 56 120 101c0 49 -35 80 -97 80z" />
    <glyph glyph-name="nine.smcp" horiz-adv-x="478" 
d="M178 -12c-102 0 -160 53 -160 136c0 6 0 14 1 21h92v-8c0 -49 25 -73 74 -73c65 0 128 55 163 175h-2c-37 -34 -80 -49 -126 -49c-95 0 -154 62 -154 160c0 89 77 210 218 210c111 0 171 -63 171 -187c0 -149 -92 -385 -277 -385zM242 263c83 0 123 69 123 128
c0 56 -30 92 -84 92c-81 0 -121 -75 -121 -127c0 -57 30 -93 82 -93z" />
    <glyph glyph-name="zero.lf.smcp" horiz-adv-x="509" 
d="M311 560c110 0 166 -69 166 -197c0 -146 -87 -375 -270 -375c-109 0 -165 69 -165 197c0 146 86 375 269 375zM305 483c-115 0 -170 -203 -170 -298c0 -79 27 -121 78 -121c115 0 171 202 171 297c0 78 -26 122 -79 122z" />
    <glyph glyph-name="one.lf.smcp" horiz-adv-x="324" 
d="M169 0h-92l97 386h-128l18 69c90 0 136 26 164 93h78z" />
    <glyph glyph-name="two.lf.smcp" horiz-adv-x="493" 
d="M305 560c103 0 165 -57 165 -140c0 -88 -60 -147 -197 -212c-121 -59 -151 -88 -164 -131h294l-19 -77h-398c24 133 83 194 232 266c114 56 157 88 157 145c0 46 -26 72 -76 72c-58 0 -97 -37 -115 -100h-97c31 115 112 177 218 177z" />
    <glyph glyph-name="three.lf.smcp" horiz-adv-x="490" 
d="M300 560c108 0 170 -53 170 -137c0 -60 -34 -118 -127 -149v-2c46 -20 70 -57 72 -108c0 -78 -72 -176 -215 -176c-120 0 -185 51 -185 139c0 12 2 27 6 42h92c-3 -12 -4 -23 -4 -32c0 -49 32 -73 94 -73c79 0 120 54 120 99c0 51 -36 77 -103 77h-21l19 74h20
c98 0 141 55 141 101c0 42 -31 69 -85 69c-63 0 -106 -33 -123 -101h-92c24 111 110 177 221 177z" />
    <glyph glyph-name="four.lf.smcp" horiz-adv-x="471" 
d="M426 134h-90l-34 -134h-90l34 134h-262l20 86l310 328h125l-85 -340h91zM90 208h176l18 73c14 58 31 122 48 181h-2c-52 -56 -104 -111 -158 -168z" />
    <glyph glyph-name="five.lf.smcp" horiz-adv-x="488" 
d="M466 471h-250l-49 -141h2c28 21 66 33 98 33c98 0 155 -61 155 -157c0 -94 -78 -218 -235 -218c-104 0 -168 48 -168 128c0 10 1 21 4 33h93c-2 -7 -2 -14 -2 -20c0 -42 33 -65 82 -65c92 0 133 80 133 135c0 57 -32 89 -88 89c-47 0 -84 -26 -106 -72l-89 6l112 326h328
z" />
    <glyph glyph-name="six.lf.smcp" horiz-adv-x="489" 
d="M316 560c103 0 161 -53 161 -136c0 -6 0 -14 -1 -21h-93v8c0 49 -24 73 -74 73c-65 0 -127 -55 -162 -175h2c36 34 79 49 125 49c96 0 154 -62 154 -160c0 -89 -77 -210 -218 -210c-111 0 -170 63 -170 187c0 149 91 385 276 385zM252 285c-83 0 -122 -69 -122 -128
c0 -56 29 -92 83 -92c81 0 121 75 121 127c0 57 -29 93 -82 93z" />
    <glyph glyph-name="seven.lf.smcp" horiz-adv-x="424" 
d="M483 548l-20 -78c-110 -117 -221 -283 -302 -470h-109c99 209 216 370 310 469h-295l19 79h397z" />
    <glyph glyph-name="eight.lf.smcp" horiz-adv-x="490" 
d="M299 560c107 0 174 -56 174 -139c0 -64 -49 -127 -127 -147v-2c44 -16 72 -60 72 -115c0 -78 -72 -169 -215 -169c-115 0 -183 58 -183 152c0 65 47 134 139 151v2c-41 24 -64 61 -64 109c0 71 71 158 204 158zM293 484c-77 0 -112 -48 -112 -90c0 -47 32 -76 90 -76
c78 0 110 52 110 95c0 44 -33 71 -88 71zM232 245c-83 0 -120 -56 -120 -101c0 -50 36 -80 97 -80c81 0 119 56 119 101c0 49 -34 80 -96 80z" />
    <glyph glyph-name="nine.lf.smcp" horiz-adv-x="489" 
d="M183 -12c-103 0 -160 53 -160 136c0 6 0 14 1 21h92v-8c0 -49 25 -73 74 -73c65 0 128 55 162 175h-2c-36 -34 -79 -49 -125 -49c-95 0 -154 62 -154 160c0 89 77 210 218 210c111 0 170 -63 170 -187c0 -149 -91 -385 -276 -385zM247 263c83 0 123 69 123 128
c0 56 -30 92 -84 92c-81 0 -121 -75 -121 -127c0 -57 30 -93 82 -93z" />
    <glyph glyph-name="periodcentered" unicode="&#xb7;" horiz-adv-x="226" 
d="M165 247h-108l29 117h108z" />
    <glyph glyph-name="bullet" unicode="&#x2022;" horiz-adv-x="335" 
d="M167 241c-63 0 -114 52 -114 115c0 64 51 115 114 115c64 0 115 -51 115 -115c0 -63 -51 -115 -115 -115z" />
    <glyph glyph-name="ellipsis" unicode="&#x2026;" horiz-adv-x="753" 
d="M104 0h-108l28 117h109zM368 0h-108l28 117h108zM631 0h-108l29 117h108z" />
    <glyph glyph-name="exclamdown" unicode="&#xa1;" horiz-adv-x="276" 
d="M149 508h104l-27 -106h-103zM122 333h70l-112 -537h-113z" />
    <glyph glyph-name="overline" unicode="&#x203e;" horiz-adv-x="500" 
d="M634 788h-500l15 65h500z" />
    <glyph glyph-name="questiondown" unicode="&#xbf;" horiz-adv-x="483" 
d="M287 508h104l-27 -106h-103zM168 -218c-124 0 -199 66 -199 169c0 70 30 126 151 206c90 60 112 88 138 186h78c-28 -127 -53 -162 -155 -233c-107 -75 -119 -111 -119 -155c0 -58 40 -93 109 -93c77 0 132 43 155 129h92c-36 -137 -127 -209 -250 -209z" />
    <glyph glyph-name="underscoredbl" unicode="&#x2017;" horiz-adv-x="500" 
d="M412 -99h-500l12 49h500zM379 -228h-500l13 49h500z" />
    <glyph glyph-name="periodcentered.case" horiz-adv-x="226" 
d="M178 297h-108l29 117h108z" />
    <glyph glyph-name="exclamdown.case" horiz-adv-x="275" 
d="M199 712h104l-27 -106h-103zM172 537h70l-112 -537h-113z" />
    <glyph glyph-name="periodcentered.loclCAT.case" horiz-adv-x="80" 
d="M-24 354h-108l28 117h108z" />
    <glyph glyph-name="questiondown.case" horiz-adv-x="516" 
d="M338 712h104l-27 -106h-103zM219 -14c-124 0 -199 66 -199 169c0 70 30 126 151 206c90 60 112 88 138 186h78c-28 -127 -53 -162 -155 -233c-107 -75 -119 -111 -119 -155c0 -58 40 -93 109 -93c77 0 132 43 155 129h92c-36 -137 -127 -209 -250 -209z" />
    <glyph glyph-name="slash.case" horiz-adv-x="462" 
d="M85 0h-86l428 712h86z" />
    <glyph glyph-name="periodcentered.loclCAT" horiz-adv-x="155" 
d="M142 297h-108l28 117h108z" />
    <glyph glyph-name="parenleftinferior" unicode="&#x208d;" horiz-adv-x="220" 
d="M155 347h67c-123 -153 -177 -308 -177 -444c0 -59 8 -116 22 -178h-61c-24 66 -37 131 -37 204c0 132 59 286 186 418z" />
    <glyph glyph-name="parenleftsuperior" unicode="&#x207d;" horiz-adv-x="220" 
d="M280 849h67c-123 -153 -177 -308 -177 -444c0 -59 8 -116 22 -178h-61c-24 66 -37 131 -37 204c0 132 59 286 186 418z" />
    <glyph glyph-name="parenrightinferior" unicode="&#x208e;" horiz-adv-x="220" 
d="M-44 -275h-67c122 153 177 308 177 444c0 59 -9 116 -22 178h60c25 -66 37 -131 37 -204c0 -132 -58 -286 -185 -418z" />
    <glyph glyph-name="parenrightsuperior" unicode="&#x207e;" horiz-adv-x="220" 
d="M82 227h-67c122 153 177 308 177 444c0 59 -9 116 -22 178h60c25 -66 37 -131 37 -204c0 -132 -58 -286 -185 -418z" />
    <glyph glyph-name="braceleft.case" horiz-adv-x="301" 
d="M406 772l-13 -56c-63 -2 -95 -26 -112 -93l-37 -150c-16 -64 -47 -95 -112 -112l-1 -3c40 -17 58 -42 58 -85c0 -14 -2 -31 -7 -50l-30 -118c-5 -18 -7 -33 -7 -46c0 -45 21 -61 68 -62l-14 -57h-12c-86 0 -124 35 -124 110c0 21 4 43 10 70l28 110c4 17 7 31 7 43
c0 33 -15 51 -47 62l15 61c51 14 75 36 88 89l36 143c25 101 76 144 174 144h32z" />
    <glyph glyph-name="braceright.case" horiz-adv-x="301" 
d="M-54 -60l13 56c63 2 95 26 112 93l37 150c16 64 47 95 112 112l1 3c-40 17 -58 42 -58 85c0 14 2 31 7 50l30 118c5 18 7 33 7 46c0 45 -21 61 -68 62l14 57h12c86 0 124 -35 124 -110c0 -21 -4 -43 -10 -70l-28 -110c-4 -17 -6 -31 -6 -43c0 -33 14 -51 47 -62l-16 -61
c-51 -14 -75 -36 -88 -89l-36 -143c-25 -101 -76 -144 -174 -144h-32z" />
    <glyph glyph-name="bracketleft.case" horiz-adv-x="297" 
d="M394 713h-119l-178 -714h118l-14 -59h-203l207 832h203z" />
    <glyph glyph-name="bracketright.case" horiz-adv-x="297" 
d="M-46 -1h119l178 714h-118l14 59h203l-207 -832h-203z" />
    <glyph glyph-name="parenleft.case" horiz-adv-x="292" 
d="M311 772h80c-165 -196 -238 -403 -238 -582c0 -81 11 -161 31 -250h-73c-33 91 -50 181 -50 279c0 176 80 381 250 553z" />
    <glyph glyph-name="parenright.case" horiz-adv-x="292" 
d="M33 -60h-81c165 196 238 403 238 582c0 81 -11 161 -30 250h72c33 -91 50 -181 50 -279c0 -176 -79 -381 -249 -553z" />
    <glyph glyph-name="bracketleft.sups" horiz-adv-x="222" 
d="M344 794h-82l-128 -512h82l-14 -55h-156l155 622h156z" />
    <glyph glyph-name="bracketright.sups" horiz-adv-x="222" 
d="M163 227h-155l13 55h82l128 512h-82l14 55h155z" />
    <glyph glyph-name="emdash" unicode="&#x2014;" horiz-adv-x="1000" 
d="M980 253h-960l19 78h960z" />
    <glyph glyph-name="endash" unicode="&#x2013;" horiz-adv-x="500" 
d="M480 253h-460l19 78h460z" />
    <glyph glyph-name="horizontalbar" unicode="&#x2015;" horiz-adv-x="1000" 
d="M917 253h-960l19 78h960z" />
    <glyph glyph-name="hyphentwo" unicode="&#x2010;" horiz-adv-x="300" 
d="M270 253h-240l19 78h240z" />
    <glyph glyph-name="softhyphen" unicode="&#xad;" horiz-adv-x="300" 
d="M270 253h-240l19 78h240z" />
    <glyph glyph-name="emdash.case" horiz-adv-x="1000" 
d="M996 317h-960l19 77h960z" />
    <glyph glyph-name="endash.case" horiz-adv-x="500" 
d="M496 317h-460l19 77h460z" />
    <glyph glyph-name="hyphen.case" horiz-adv-x="300" 
d="M286 317h-240l19 77h240z" />
    <glyph glyph-name="guillemetleft" unicode="&#xab;" horiz-adv-x="464" 
d="M132 250l62 -196h-77l-68 204l158 196h87zM304 250l62 -196h-78l-68 204l159 196h87z" />
    <glyph glyph-name="guillemetright" unicode="&#xbb;" horiz-adv-x="464" 
d="M160 258l-62 196h78l67 -204l-158 -196h-87zM332 258l-63 196h78l68 -204l-158 -196h-88z" />
    <glyph glyph-name="guilsinglleft" unicode="&#x2039;" horiz-adv-x="292" 
d="M132 250l62 -196h-77l-68 204l158 196h87z" />
    <glyph glyph-name="guilsinglright" unicode="&#x203a;" horiz-adv-x="292" 
d="M160 258l-62 196h78l67 -204l-158 -196h-87z" />
    <glyph glyph-name="quotedblbase" unicode="&#x201e;" horiz-adv-x="398" 
d="M105 0l-81 -134h-53l69 134h-34l26 108h100zM266 0l-81 -134h-53l69 134h-34l26 108h100z" />
    <glyph glyph-name="quotedblleft" unicode="&#x201c;" horiz-adv-x="398" 
d="M149 578l82 134h53l-69 -134h34l-27 -108h-99zM310 578l82 134h52l-69 -134h34l-26 -108h-100z" />
    <glyph glyph-name="quotedblright" unicode="&#x201d;" horiz-adv-x="398" 
d="M256 604l-81 -134h-53l69 134h-34l26 108h100zM417 604l-82 -134h-53l69 134h-34l27 108h99z" />
    <glyph glyph-name="quoteleft" unicode="&#x2018;" horiz-adv-x="237" 
d="M149 578l82 134h53l-69 -134h34l-27 -108h-99z" />
    <glyph glyph-name="quoteright" unicode="&#x2019;" horiz-adv-x="237" 
d="M256 604l-81 -134h-53l69 134h-34l26 108h100z" />
    <glyph glyph-name="quotesinglbase" unicode="&#x201a;" horiz-adv-x="237" 
d="M106 0l-82 -134h-53l69 134h-34l26 108h100z" />
    <glyph glyph-name="guillemetleft.case" horiz-adv-x="463" 
d="M157 352l62 -196h-77l-68 204l158 196h87zM329 352l62 -196h-78l-68 204l159 196h87z" />
    <glyph glyph-name="guillemetright.case" horiz-adv-x="463" 
d="M185 360l-62 196h78l67 -204l-158 -196h-87zM357 360l-63 196h78l68 -204l-158 -196h-88z" />
    <glyph glyph-name="guilsinglleft.case" horiz-adv-x="292" 
d="M157 352l62 -196h-77l-68 204l158 196h87z" />
    <glyph glyph-name="guilsinglright.case" horiz-adv-x="291" 
d="M185 360l-62 196h78l67 -204l-158 -196h-87z" />
    <glyph glyph-name="quoteright.loclFRA" horiz-adv-x="274" 
d="M275 604l-82 -134h-53l69 134h-34l26 108h100z" />
    <glyph glyph-name="periodcentered.loclCAT.smcp" horiz-adv-x="60" 
d="M-15 283h-109l30 117h108z" />
    <glyph glyph-name="nbspace" unicode="&#xa0;" horiz-adv-x="230" 
 />
    <glyph glyph-name="cent" unicode="&#xa2;" horiz-adv-x="562" 
d="M542 398h-91c1 6 2 13 2 19c0 52 -23 91 -63 105l-95 -383c58 11 105 58 125 117h94c-37 -108 -126 -186 -238 -191l-22 -89h-63l24 94c-92 19 -146 93 -146 204c0 136 91 323 278 327l22 87h62l-23 -92c87 -19 136 -84 136 -174c0 -8 0 -16 -2 -24zM160 277
c0 -71 27 -118 73 -134l96 385c-110 -16 -169 -155 -169 -251z" />
    <glyph glyph-name="currency" unicode="&#xa4;" horiz-adv-x="562" 
d="M493 291c0 -50 -13 -94 -37 -129l76 -81l-59 -55l-75 80c-33 -20 -72 -31 -117 -31s-84 11 -117 31l-75 -80l-59 55l76 80c-24 35 -37 80 -37 130s13 95 37 130l-76 80l59 55l75 -80c33 20 72 31 117 31s84 -11 117 -31l75 80l59 -55l-76 -81c24 -35 37 -79 37 -129z
M281 150c81 0 134 55 134 141s-53 141 -134 141s-133 -55 -133 -141s52 -141 133 -141z" />
    <glyph glyph-name="euro" unicode="&#x20ac;" horiz-adv-x="562" 
d="M597 471h-91c1 9 2 16 2 24c0 73 -39 113 -114 113c-101 0 -168 -89 -204 -188h257l-25 -58h-250c-5 -19 -8 -39 -11 -57h236l-26 -58h-214c0 -118 42 -181 127 -181c71 0 128 49 158 136h92c-45 -138 -141 -216 -260 -216c-137 0 -208 90 -208 260v1h-67l26 58h45
c2 19 5 38 9 57h-51l25 58h42c46 140 148 268 308 268c127 0 197 -63 197 -177c0 -13 -1 -26 -3 -40z" />
    <glyph glyph-name="florin" unicode="&#x192;" horiz-adv-x="562" 
d="M598 719c20 0 41 -3 57 -8l-18 -71c-10 3 -26 4 -39 4c-58 0 -95 -27 -133 -104l-36 -72h107l-17 -68h-123l-205 -407c-67 -134 -125 -183 -228 -183c-19 0 -36 2 -50 7l18 73c10 -3 23 -5 36 -5c52 0 86 21 135 118l199 397h-98l17 68h114l41 81c61 123 123 170 223 170
z" />
    <glyph glyph-name="franc" unicode="&#x20a3;" horiz-adv-x="562" 
d="M285 592l-47 -188h308l-21 -81h-307l-29 -118h173l-19 -73h-172l-33 -132h-93l33 132h-84l18 73h84l117 469h422l-20 -82h-330z" />
    <glyph glyph-name="lira" unicode="&#x20a4;" horiz-adv-x="562" 
d="M413 688c111 0 173 -57 173 -155c0 -15 -2 -33 -6 -51h-88c3 14 5 27 5 38c0 58 -33 88 -92 88c-69 0 -116 -44 -136 -126l-17 -68h125l-14 -58h-126l-14 -57h125l-14 -58h-126l-7 -29c-17 -72 -42 -108 -86 -134v-2h360l-19 -76h-495l19 77c62 0 107 39 130 134l8 30
h-97l14 58h97l14 57h-96l14 58h97l21 85c32 126 114 189 231 189z" />
    <glyph glyph-name="liraTurkish" unicode="&#x20ba;" horiz-adv-x="562" 
d="M456 318h96c-39 -214 -181 -323 -403 -323c-32 0 -69 3 -100 6l69 275l-106 -51l18 71l105 50l22 86l-106 -50l18 71l105 50l43 171h92l-32 -129l190 91l-18 -71l-189 -90l-22 -87l190 92l-18 -71l-189 -91l-60 -240c155 0 266 84 295 240z" />
    <glyph glyph-name="peseta" unicode="&#x20a7;" horiz-adv-x="839" 
d="M752 438l-70 -281c-4 -15 -6 -28 -6 -38c0 -35 17 -50 56 -50c13 0 26 2 35 4l-19 -72c-11 -3 -29 -5 -42 -5c-82 0 -120 31 -120 105c0 17 3 38 9 62l69 275h-67c-19 -95 -102 -194 -267 -194h-146l-60 -244h-92l167 674h170c144 0 219 -63 231 -166h81l31 123h88
l-31 -123h101l-17 -70h-101zM204 324h127c128 0 176 84 176 150c0 76 -46 120 -144 120h-92z" />
    <glyph glyph-name="ruble" unicode="&#x20bd;" horiz-adv-x="562" 
d="M198 674h178c143 0 213 -70 213 -181c0 -100 -76 -222 -251 -222h-150l-17 -67h198l-19 -73h-197l-32 -131h-91l32 131h-81l18 73h82l16 67h-81l18 75h82zM270 600l-63 -254h128c117 0 160 80 160 142c0 70 -42 112 -130 112h-95z" />
    <glyph glyph-name="rupeeIndian" unicode="&#x20b9;" horiz-adv-x="562" 
d="M424 609v-2c34 -16 54 -43 59 -84h118l-33 -65h-91c-22 -65 -91 -128 -214 -148v-2c43 -18 67 -53 85 -120l50 -188h-99l-44 176c-21 83 -58 115 -129 115h-16l17 67h54c113 0 173 49 195 100h-297l33 65h271c-10 59 -62 86 -151 86h-115l34 65h489l-34 -65h-182z" />
    <glyph glyph-name="sterling" unicode="&#xa3;" horiz-adv-x="562" 
d="M413 688c111 0 173 -57 173 -155c0 -15 -2 -33 -6 -51h-88c3 14 5 27 5 38c0 58 -33 88 -92 88c-69 0 -116 -44 -136 -126l-28 -112h125l-19 -77h-126l-20 -81c-17 -72 -42 -108 -86 -134v-2h360l-19 -76h-495l19 77c62 0 107 39 130 134l21 82h-97l19 77h97l32 129
c32 126 114 189 231 189z" />
    <glyph glyph-name="yen" unicode="&#xa5;" horiz-adv-x="562" 
d="M389 360h137l-14 -59h-173l-14 -56h173l-15 -59h-172l-46 -186h-93l46 186h-173l15 59h172l14 56h-172l14 59h137l-111 314h96l34 -103c20 -62 41 -125 60 -188h2c49 63 100 126 152 188l85 103h115z" />
    <glyph glyph-name="Ohm" unicode="&#x2126;" horiz-adv-x="729" 
d="M454 726c162 0 266 -78 266 -243c0 -152 -88 -277 -240 -400v-2h168l-20 -81h-269l20 84c160 128 241 246 241 380c0 120 -69 178 -177 178c-183 0 -273 -171 -273 -310c0 -98 37 -173 84 -248l-21 -84h-258l20 81h172v2c-49 77 -88 159 -88 262c0 172 120 381 375 381z
" />
    <glyph glyph-name="approxequal" unicode="&#x2248;" horiz-adv-x="566" 
d="M188 493c88 0 127 -90 189 -90c37 0 60 31 60 77h63c0 -88 -47 -147 -122 -147c-87 0 -127 89 -189 89c-37 0 -60 -30 -60 -76h-63c0 87 47 147 122 147zM188 301c88 0 127 -89 189 -89c37 0 60 30 60 76h63c0 -87 -47 -147 -122 -147c-87 0 -127 90 -189 90
c-37 0 -60 -31 -60 -77h-63c0 88 47 147 122 147z" />
    <glyph glyph-name="bulletoperator" unicode="&#x2219;" horiz-adv-x="344" 
d="M226 247h-108v117h108v-117z" />
    <glyph glyph-name="divide" unicode="&#xf7;" horiz-adv-x="566" 
d="M324 441h-82v85h82v-85zM495 280h-424v73h424v-73zM324 108h-82v85h82v-85z" />
    <glyph glyph-name="divisionslash" unicode="&#x2215;" horiz-adv-x="457" 
d="M-33 -89h-86l503 834h86z" />
    <glyph glyph-name="equalinferior" unicode="&#x208c;" horiz-adv-x="408" 
d="M357 80h-308v62h308v-62zM357 -43h-308v62h308v-62z" />
    <glyph glyph-name="equalsuperior" unicode="&#x207c;" horiz-adv-x="407" 
d="M357 582h-308v62h308v-62zM357 459h-308v62h308v-62z" />
    <glyph glyph-name="greaterequal" unicode="&#x2265;" horiz-adv-x="566" 
d="M495 375v-95l-424 -166v77l342 135v2l-342 135v77zM495 0h-424v72h424v-72z" />
    <glyph glyph-name="increment" unicode="&#x2206;" horiz-adv-x="675" 
d="M608 0h-666l448 712h125zM508 82l-33 276c-12 99 -22 191 -32 290h-2c-58 -99 -113 -191 -173 -290l-170 -276h410z" />
    <glyph glyph-name="infinity" unicode="&#x221e;" horiz-adv-x="629" 
d="M474 460c83 0 140 -61 140 -152s-57 -152 -140 -152c-77 0 -122 45 -160 96c-37 -51 -83 -96 -159 -96c-84 0 -140 61 -140 152s56 152 140 152c76 0 122 -45 159 -96c38 51 83 96 160 96zM163 227c49 0 80 37 112 81c-32 44 -63 81 -112 81c-48 0 -75 -31 -75 -81
s27 -81 75 -81zM466 227c47 0 75 31 75 81s-28 81 -75 81c-49 0 -81 -37 -112 -81c31 -44 63 -81 112 -81z" />
    <glyph glyph-name="integral" unicode="&#x222b;" horiz-adv-x="314" 
d="M252 717c18 0 39 -2 51 -5v-68c-6 2 -18 3 -29 3c-49 0 -73 -23 -73 -86v-605c0 -98 -49 -146 -140 -146c-17 0 -38 2 -50 5v68c6 -2 18 -3 29 -3c49 0 73 23 73 86v605c0 98 49 146 139 146z" />
    <glyph glyph-name="lessequal" unicode="&#x2264;" horiz-adv-x="566" 
d="M495 463l-342 -135v-2l342 -135v-77l-424 166v95l424 165v-77zM495 72v-72h-424v72h424z" />
    <glyph glyph-name="logicalnot" unicode="&#xac;" horiz-adv-x="566" 
d="M495 140h-73v240h-351v74h424v-314z" />
    <glyph glyph-name="micro" unicode="&#xb5;" horiz-adv-x="583" 
d="M562 508l-90 -363c-5 -20 -7 -35 -7 -46c0 -24 11 -32 34 -32c8 0 16 1 25 3l-17 -70c-14 -5 -29 -6 -46 -6c-54 0 -78 27 -76 82h-2c-34 -51 -96 -83 -160 -83c-55 0 -91 21 -108 58l-59 -236h-88l173 693h88l-74 -294c-5 -25 -9 -45 -9 -63c0 -63 35 -88 94 -88
c68 0 137 53 163 155l71 290h88z" />
    <glyph glyph-name="minus" unicode="&#x2212;" horiz-adv-x="566" 
d="M495 280h-424v73h424v-73z" />
    <glyph glyph-name="minusinferior" unicode="&#x208b;" horiz-adv-x="408" 
d="M358 18h-309v63h309v-63z" />
    <glyph glyph-name="minussuperior" unicode="&#x207b;" horiz-adv-x="409" 
d="M358 520h-309v63h309v-63z" />
    <glyph glyph-name="multiply" unicode="&#xd7;" horiz-adv-x="566" 
d="M527 499l-193 -193l193 -192l-51 -51l-193 192l-192 -192l-52 51l193 192l-193 193l52 51l192 -192l193 192z" />
    <glyph glyph-name="notequal" unicode="&#x2260;" horiz-adv-x="566" 
d="M350 362l-58 -91h203v-74h-249l-80 -127h-75l80 127h-100v74h146l57 91h-203v74h249l80 127h76l-80 -127h99v-74h-145z" />
    <glyph glyph-name="partialdiff" unicode="&#x2202;" horiz-adv-x="601" 
d="M357 726c142 0 213 -91 213 -246c0 -188 -105 -494 -342 -494c-129 0 -193 76 -193 198c0 106 84 294 274 294c94 0 143 -45 161 -96h2c8 28 14 70 14 104c0 102 -42 161 -127 161c-63 0 -105 -38 -124 -102h-93c27 108 101 181 215 181zM315 403
c-127 0 -187 -139 -187 -222c0 -72 34 -116 107 -116c134 0 193 144 193 217c0 74 -39 121 -113 121z" />
    <glyph glyph-name="perthousand" unicode="&#x2030;" horiz-adv-x="1014" 
d="M96 -30h-70l605 734h70zM259 688c74 0 112 -42 112 -118c0 -92 -53 -213 -164 -213c-73 0 -113 42 -113 119c0 90 54 212 165 212zM256 629c-63 0 -92 -100 -92 -151c0 -40 15 -61 45 -61c62 0 91 100 91 153c0 38 -14 59 -44 59zM522 317c74 0 112 -42 112 -118
c0 -91 -53 -212 -164 -212c-73 0 -113 41 -113 118c0 90 54 212 165 212zM850 317c74 0 112 -42 112 -118c0 -91 -53 -212 -164 -212c-73 0 -113 41 -113 118c0 90 54 212 165 212zM519 258c-63 0 -92 -99 -92 -151c0 -40 15 -61 45 -61c63 0 91 100 91 153
c0 38 -14 59 -44 59zM847 258c-63 0 -92 -99 -92 -151c0 -40 15 -61 45 -61c63 0 91 100 91 153c0 38 -14 59 -44 59z" />
    <glyph glyph-name="plusinferior" unicode="&#x208a;" horiz-adv-x="408" 
d="M235 81h123v-63h-123v-118h-63v118h-123v63h123v119h63v-119z" />
    <glyph glyph-name="plusminus" unicode="&#xb1;" horiz-adv-x="566" 
d="M319 381h176v-74h-176v-171h-72v171h-176v74h176v172h72v-172zM495 0h-424v74h424v-74z" />
    <glyph glyph-name="plussuperior" unicode="&#x207a;" horiz-adv-x="407" 
d="M235 583h123v-63h-123v-118h-63v118h-123v63h123v119h63v-119z" />
    <glyph glyph-name="product" unicode="&#x220f;" horiz-adv-x="661" 
d="M566 -120h-92v750h-287v-750h-92v832h471v-832z" />
    <glyph glyph-name="radical" unicode="&#x221a;" horiz-adv-x="575" 
d="M317 -120h-114l-96 408h-82v72h141l95 -397h2l213 749h79z" />
    <glyph glyph-name="summation" unicode="&#x2211;" horiz-adv-x="486" 
d="M451 631h-314l200 -338l-200 -332h314v-81h-416v81l203 332l-203 338v81h416v-81z" />
    <glyph glyph-name="lozenge" unicode="&#x25ca;" horiz-adv-x="597" 
d="M557 356l-201 -356h-115l-201 356l201 356h115zM131 356l168 -292l167 292l-167 292z" />
    <glyph glyph-name="apple" unicode="&#xf8ff;" horiz-adv-x="600" 
d="M151 777h321c81 0 131 -50 131 -131v-580c0 -81 -50 -131 -131 -131h-321c-80 0 -131 50 -131 131v580c0 81 51 131 131 131zM472 728h-321c-50 0 -82 -31 -82 -82v-580c0 -51 32 -82 82 -82h321c50 0 82 31 82 82v580c0 51 -32 82 -82 82zM309 646
c103 0 171 -58 171 -147c0 -55 -14 -85 -80 -143c-57 -50 -68 -72 -68 -154h-72v27c0 81 14 110 76 168c50 47 57 65 57 101c0 47 -32 76 -84 76c-59 0 -91 -33 -94 -98h-84c5 112 69 170 178 170zM343 65h-94v91h94v-91z" />
    <glyph glyph-name="brokenbar" unicode="&#xa6;" horiz-adv-x="273" 
d="M177 382h-81v350h81v-350zM177 -205h-81v350h81v-350z" />
    <glyph glyph-name="paragraph" unicode="&#xb6;" horiz-adv-x="588" 
d="M665 650h-80l-192 -770h-66l191 770h-86l-192 -770h-66l106 428c-109 11 -174 68 -174 185c0 99 74 219 210 219h364z" />
    <glyph glyph-name="copyright" unicode="&#xa9;" horiz-adv-x="810" 
d="M405 724c215 0 359 -147 359 -368s-144 -368 -359 -368s-358 147 -358 368s143 368 358 368zM405 677c-188 0 -313 -128 -313 -321s125 -321 313 -321s313 128 313 321s-125 321 -313 321zM406 599c115 0 184 -71 189 -169h-75c-5 62 -47 104 -114 104
c-80 0 -129 -68 -129 -178s49 -178 128 -178c65 0 109 42 117 108h76c-10 -106 -82 -173 -193 -173c-126 0 -204 92 -204 243s78 243 205 243z" />
    <glyph glyph-name="registered" unicode="&#xae;" horiz-adv-x="587" 
d="M347 726c149 0 249 -102 249 -255s-100 -256 -249 -256s-248 103 -248 256s99 255 248 255zM347 693c-129 0 -215 -89 -215 -222s86 -222 215 -222s215 89 215 222s-86 222 -215 222zM235 634h117c72 0 108 -35 108 -91c0 -36 -22 -70 -57 -77v-2c21 -6 32 -18 44 -52
l33 -97h-58l-27 82c-10 34 -27 46 -59 46h-47v-128h-54v319zM289 588v-99h50c46 0 66 20 66 51c0 29 -19 48 -63 48h-53z" />
    <glyph glyph-name="published" unicode="&#x2117;" horiz-adv-x="810" 
d="M405 724c215 0 359 -147 359 -368s-144 -368 -359 -368s-358 147 -358 368s143 368 358 368zM405 677c-188 0 -313 -128 -313 -321s125 -321 313 -321s313 128 313 321s-125 321 -313 321zM267 585h168c115 0 177 -56 177 -148c0 -91 -62 -148 -177 -148h-94v-174h-74
v470zM341 520v-166h89c69 0 106 28 106 83c0 54 -37 83 -106 83h-89z" />
    <glyph glyph-name="section" unicode="&#xa7;" horiz-adv-x="578" 
d="M384 726c107 0 164 -47 164 -138c0 -10 0 -21 -2 -33h-88c1 8 2 17 2 24c0 48 -28 73 -85 73c-68 0 -103 -47 -103 -92c0 -39 28 -55 103 -99c94 -55 142 -93 142 -170c0 -66 -34 -136 -125 -182v-2c18 -20 26 -45 26 -76c0 -80 -69 -181 -215 -181
c-114 0 -177 45 -177 137c0 13 1 26 5 41h88c-2 -11 -3 -20 -3 -29c0 -48 28 -75 92 -75c78 0 118 52 118 99c0 45 -32 67 -114 117c-83 51 -130 88 -130 164c0 62 37 133 122 177v2c-17 20 -25 42 -25 69c0 79 71 174 205 174zM254 436c-58 -32 -85 -73 -85 -113
c0 -43 26 -74 96 -116c27 -16 57 -35 79 -51c51 26 86 71 86 116c0 43 -23 73 -93 114c-26 15 -56 33 -83 50z" />
    <glyph glyph-name="trademark" unicode="&#x2122;" horiz-adv-x="801" 
d="M403 653h-116l-74 -297h-67l74 297h-116l15 59h299zM779 356h-64l43 170c10 42 21 85 32 126h-2c-24 -42 -46 -83 -71 -125l-100 -171h-77l-13 171l-9 125h-2c-9 -41 -20 -84 -30 -126l-43 -170h-64l89 356h102l13 -156c3 -45 6 -90 8 -134h2c24 44 49 89 75 134l91 156
h109z" />
    <glyph glyph-name="degree" unicode="&#xb0;" horiz-adv-x="319" 
d="M245 722c67 0 121 -54 121 -121c0 -66 -54 -120 -121 -120c-66 0 -120 54 -120 120c0 67 54 121 120 121zM245 669c-37 0 -66 -31 -66 -68c0 -36 29 -66 66 -66s68 30 68 66c0 37 -31 68 -68 68z" />
    <glyph glyph-name="estimated" unicode="&#x212e;" horiz-adv-x="860" 
d="M431 688c242 0 382 -167 382 -361h-611c-8 0 -13 -6 -13 -13v-166c0 -20 2 -33 15 -44c58 -57 133 -91 227 -91c98 0 186 45 238 109h69c-45 -63 -145 -134 -307 -134c-233 0 -384 146 -384 348c0 199 144 352 384 352zM431 662c-94 0 -169 -35 -227 -93
c-13 -12 -15 -22 -15 -41v-167c0 -7 5 -12 13 -12h455c8 0 13 5 13 12v167c0 19 -2 29 -15 41c-68 67 -147 93 -224 93z" />
    <glyph glyph-name="literSign" unicode="&#x2113;" horiz-adv-x="440" 
d="M180 202l-11 -44c-4 -16 -6 -31 -6 -42c0 -39 19 -56 58 -56c14 0 34 2 49 7l-17 -70c-18 -4 -39 -6 -55 -6c-84 0 -124 35 -124 112c0 19 3 39 10 64l6 25c-19 1 -38 5 -54 8l13 53c16 -3 33 -6 51 -6h4l64 257c35 142 84 184 158 184c62 0 105 -40 105 -142
c0 -131 -83 -302 -251 -344zM258 514l-62 -249c122 49 178 187 178 283c0 57 -17 77 -42 77c-32 0 -53 -25 -74 -111z" />
    <glyph glyph-name="dagger" unicode="&#x2020;" horiz-adv-x="536" 
d="M380 522h169l-18 -74h-169l-142 -568h-90l142 568h-169l18 74h169l47 190h90z" />
    <glyph glyph-name="daggerdbl" unicode="&#x2021;" horiz-adv-x="536" 
d="M380 523h169l-18 -74h-169l-66 -264h169l-18 -74h-170l-57 -231h-90l57 231h-169l18 74h170l66 264h-169l18 74h169l47 189h90z" />
    <glyph glyph-name="interrobang" unicode="&#x203d;" horiz-adv-x="516" 
d="M412 712l-19 -67c87 -18 138 -75 138 -158c0 -61 -31 -116 -145 -183c-81 -47 -101 -66 -120 -139h-73l87 400c-51 -14 -88 -52 -105 -116h-92c32 119 109 187 215 199l14 64h100zM351 367c70 47 86 80 86 115c0 41 -24 71 -67 82l-66 -231h2c12 11 27 22 45 34zM166 106
h104l-27 -106h-103z" />
    <glyph glyph-name="ampersand.smcp" horiz-adv-x="606" 
d="M466 306h83c-19 -73 -55 -140 -105 -195l90 -111h-103l-47 59c-54 -44 -122 -71 -192 -71c-113 0 -175 54 -175 140c0 66 46 142 166 188c-26 41 -36 71 -36 104c0 66 56 142 163 142c84 0 133 -47 133 -115c0 -58 -35 -109 -145 -154l100 -124c30 38 54 85 68 137z
M302 495c-50 0 -76 -36 -76 -75c0 -23 8 -44 34 -79c89 39 104 73 104 102c0 30 -22 52 -62 52zM206 58c49 0 95 19 135 54l-121 151c-92 -39 -115 -88 -115 -127c0 -48 36 -78 101 -78z" />
    <glyph glyph-name="acute" unicode="&#xb4;" horiz-adv-x="299" 
d="M210 569h-81l116 143h118z" />
    <glyph glyph-name="breve" unicode="&#x2d8;" horiz-adv-x="411" 
d="M403 712h72c-25 -90 -93 -143 -184 -143c-84 0 -129 43 -129 118c0 7 0 16 2 25h59c-1 -5 -1 -10 -1 -15c0 -43 25 -66 71 -66c54 0 93 29 110 81z" />
    <glyph glyph-name="caron" unicode="&#x2c7;" horiz-adv-x="425" 
d="M340 569h-97l-79 143h81l52 -93l96 93h96z" />
    <glyph glyph-name="cedilla" unicode="&#xb8;" horiz-adv-x="313" 
d="M138 0l-56 -62c4 1 12 2 19 2c38 0 65 -24 65 -67c0 -51 -53 -93 -128 -93c-39 0 -74 11 -99 27l21 37c25 -15 50 -21 76 -21c41 0 66 19 66 47c0 22 -15 36 -42 36c-12 0 -23 -2 -33 -6l-17 16l77 84h51z" />
    <glyph glyph-name="circumflex" unicode="&#x2c6;" horiz-adv-x="425" 
d="M454 569h-81l-52 93l-96 -93h-96l149 143h97z" />
    <glyph glyph-name="dieresis" unicode="&#xa8;" horiz-adv-x="377" 
d="M222 613h-82l24 99h82zM417 613h-82l24 99h82z" />
    <glyph glyph-name="dotaccent" unicode="&#x2d9;" horiz-adv-x="189" 
d="M228 613h-88l24 99h88z" />
    <glyph glyph-name="hungarumlaut" unicode="&#x2dd;" horiz-adv-x="470" 
d="M208 569h-79l136 143h109zM368 569h-79l136 143h109z" />
    <glyph glyph-name="macron" unicode="&#xaf;" horiz-adv-x="385" 
d="M425 616h-284l15 64h285z" />
    <glyph glyph-name="ogonek" unicode="&#x2db;" horiz-adv-x="259" 
d="M67 2l76 -2c-84 -51 -102 -84 -102 -111c0 -18 10 -27 32 -27c13 0 27 2 39 7l-14 -56c-13 -4 -31 -7 -52 -7c-59 0 -88 26 -88 71c0 44 34 81 109 125z" />
    <glyph glyph-name="ring" unicode="&#x2da;" horiz-adv-x="308" 
d="M256 766c56 0 101 -45 101 -100c0 -56 -45 -101 -101 -101c-55 0 -100 45 -100 101c0 55 45 100 100 100zM256 724c-31 0 -57 -26 -57 -58c0 -33 26 -58 57 -58c33 0 58 25 58 58c0 32 -25 58 -58 58z" />
    <glyph glyph-name="tilde" unicode="&#x2dc;" horiz-adv-x="445" 
d="M449 706h58c-21 -73 -66 -115 -122 -115c-63 0 -87 51 -132 51c-28 0 -47 -18 -58 -51h-60c20 73 66 115 122 115c63 0 89 -51 132 -51c29 0 48 17 60 51z" />
    <glyph glyph-name="acute.case" horiz-adv-x="300" 
d="M257 760h-81l116 138h118z" />
    <glyph glyph-name="breve.case" horiz-adv-x="412" 
d="M450 898h72c-25 -90 -92 -142 -184 -142c-83 0 -129 43 -129 117c0 8 0 16 2 25h59c-1 -5 -1 -10 -1 -14c0 -43 26 -66 71 -66c54 0 93 29 110 80z" />
    <glyph glyph-name="caron.alt" horiz-adv-x="209" 
d="M175 536h-54l73 176h79z" />
    <glyph glyph-name="caron.case" horiz-adv-x="425" 
d="M386 760h-97l-79 138h79l52 -88l96 88h98z" />
    <glyph glyph-name="caron.alt.case" horiz-adv-x="209" 
d="M164 494h-54l83 218h80z" />
    <glyph glyph-name="circumflex.case" horiz-adv-x="425" 
d="M325 898h97l79 -138h-79l-52 89l-96 -89h-98z" />
    <glyph glyph-name="dieresis.case" horiz-adv-x="377" 
d="M262 775h-82l25 99h82zM457 775h-82l25 99h82z" />
    <glyph glyph-name="dotaccent.case" horiz-adv-x="188" 
d="M268 775h-88l25 99h88z" />
    <glyph glyph-name="grave.case" horiz-adv-x="299" 
d="M375 760h-72l-93 138h109z" />
    <glyph glyph-name="hungarumlaut.case" horiz-adv-x="471" 
d="M254 756h-79l138 142h109zM414 756h-79l138 142h109z" />
    <glyph glyph-name="macron.case" horiz-adv-x="385" 
d="M468 788h-284l15 65h284z" />
    <glyph glyph-name="breve.narrow" horiz-adv-x="378" 
d="M373 712h69c-24 -90 -86 -143 -168 -143c-73 0 -113 42 -113 113c0 10 1 21 3 30h58c-1 -5 -1 -12 -1 -18c0 -41 22 -63 59 -63c44 0 77 29 93 81z" />
    <glyph glyph-name="circumflex.narrow" horiz-adv-x="396" 
d="M424 570h-77l-39 93l-86 -93h-93l135 142h96z" />
    <glyph glyph-name="dieresis.narrow" horiz-adv-x="336" 
d="M222 613h-82l24 99h82zM375 613h-81l24 99h82z" />
    <glyph glyph-name="macron.narrow" horiz-adv-x="357" 
d="M397 616h-257l16 64h257z" />
    <glyph glyph-name="tilde.narrow" horiz-adv-x="410" 
d="M416 706h56c-21 -73 -63 -115 -115 -115c-54 0 -76 51 -114 51c-23 0 -40 -18 -50 -51h-59c22 73 64 115 115 115c55 0 78 -51 114 -51c24 0 41 17 53 51z" />
    <glyph glyph-name="ring.case" horiz-adv-x="308" 
d="M303 953c56 0 101 -45 101 -101c0 -55 -45 -100 -101 -100c-55 0 -100 45 -100 100c0 56 45 101 100 101zM303 910c-32 0 -58 -26 -58 -58s26 -57 58 -57c33 0 58 25 58 57s-25 58 -58 58z" />
    <glyph glyph-name="cedilla.ss01" horiz-adv-x="309" 
d="M49 -211h-115l165 162h84z" />
    <glyph glyph-name="tilde.case" horiz-adv-x="445" 
d="M497 892h58c-22 -73 -67 -115 -123 -115c-63 0 -88 51 -133 51c-28 0 -47 -17 -58 -51h-60c20 73 66 115 122 115c63 0 90 -51 133 -51c29 0 49 18 61 51z" />
    <glyph glyph-name="commaaccent" unicode="&#x326;" horiz-adv-x="0" 
d="M42 -154l-81 -103h-38l64 103h-33l21 89h89z" />
    <glyph glyph-name="commaturnedabovecomb" unicode="&#x312;" horiz-adv-x="0" 
d="M210 672h33l-21 -89h-89l21 89l82 103h38z" />
    <glyph glyph-name="apostrophemod" unicode="&#x2bc;" horiz-adv-x="237" 
d="M257 604l-82 -134h-53l69 134h-34l26 108h100z" />
    <glyph glyph-name="firsttonechinese" unicode="&#x2c9;" horiz-adv-x="385" 
d="M425 616h-284l15 64h285z" />
    <glyph glyph-name="bracketrightinferior" horiz-adv-x="220" 
d="M37 -275h-155l13 55h82l128 512h-82l14 55h155z" />
    <glyph glyph-name="bracketleftinferior" horiz-adv-x="220" 
d="M218 292h-82l-128 -512h82l-14 -55h-156l155 622h156z" />
    <glyph glyph-name="uniFEFF" unicode="&#xfeff;" horiz-adv-x="0" 
 />
    <glyph glyph-name="uni20BC" unicode="&#x20bc;" horiz-adv-x="656" 
d="M485 712l-28 -114c116 -17 173 -83 173 -215c0 -33 -6 -70 -17 -113l-66 -270h-87l69 279c9 37 14 70 14 97c0 86 -34 127 -107 138l-128 -514h-87l128 517c-116 -4 -166 -64 -203 -210l-76 -307h-87l81 325c48 192 134 274 305 277h2l27 110h87z" />
    </font>
</defs>
</svg>
