<?xml version="1.0" standalone="no"?>
<!DOCTYPE svg PUBLIC "-//W3C//DTD SVG 1.1//EN" "http://www.w3.org/Graphics/SVG/1.1/DTD/svg11.dtd" >
<svg xmlns="http://www.w3.org/2000/svg" xmlns:xlink="http://www.w3.org/1999/xlink" version="1.1">
<metadata>
Created by FontForge 20170910 at Thu Feb  5 11:03:24 2015
 By Jimmy Wärting
Copyright (c) 2015 Monotype Imaging Inc.  All rights reserved.
</metadata>
<defs>
<font id="NeueHaasUnicaPro-HeavyIt" horiz-adv-x="608" >
  <font-face 
    font-family="Neue Haas Unica Pro"
    font-weight="800"
    font-style="italic"
    font-variant="small-caps"
    font-stretch="normal"
    units-per-em="1000"
    panose-1="2 11 9 4 3 2 6 9 2 3"
    ascent="764"
    descent="-236"
    x-height="508"
    cap-height="712"
    bbox="-220 -291 1097 979"
    underline-thickness="50"
    underline-position="-100"
    slope="-14"
    stemh="123"
    stemv="170"
    unicode-range="U+0020-FEFF"
  />
<missing-glyph horiz-adv-x="648" 
d="M151 777h346c84 0 137 -53 137 -137v-568c0 -84 -53 -137 -137 -137h-346c-84 0 -137 53 -137 137v568c0 84 53 137 137 137zM497 708h-346c-42 0 -68 -26 -68 -68v-568c0 -42 26 -68 68 -68h346c42 0 68 26 68 68v568c0 42 -26 68 -68 68zM325 647
c115 0 184 -57 184 -152c0 -54 -15 -85 -70 -136c-52 -49 -65 -73 -65 -134h-111c-1 13 -1 27 -1 38c0 65 10 91 63 145c40 40 47 56 47 85s-17 48 -47 48c-37 0 -57 -24 -57 -78h-135c1 120 72 184 192 184zM387 65h-136v119h136v-119z" />
    <glyph glyph-name="f_f" unicode="ff" horiz-adv-x="690" 
d="M713 721c29 0 62 -5 82 -11l-28 -112c-5 1 -15 2 -23 2c-50 0 -79 -21 -94 -80l-3 -12h93l-30 -121h-93l-97 -387h-164l96 387h-164l-97 -387h-164l96 387h-81l30 121h81l13 52c27 109 104 161 218 161c29 0 62 -5 82 -11l-28 -112c-5 1 -15 2 -23 2
c-50 0 -79 -21 -94 -80l-3 -12h164l13 52c27 109 104 161 218 161z" />
    <glyph glyph-name="f_f_i" unicode="ffi" horiz-adv-x="978" 
d="M617 387l-97 -387h-164l96 387h-164l-97 -387h-164l96 387h-81l30 121h81l13 52c27 109 104 161 218 161c29 0 62 -5 82 -11l-28 -112c-5 1 -15 2 -23 2c-50 0 -79 -21 -94 -80l-3 -12h164l13 52c27 109 104 161 218 161c29 0 62 -5 82 -11l-28 -112c-5 1 -15 2 -23 2
c-50 0 -79 -21 -94 -80l-3 -12h93l-30 -121h-93zM1031 712l-33 -131h-166l33 131h166zM814 508h166l-126 -508h-166z" />
    <glyph glyph-name="f_f_l" unicode="ffl" horiz-adv-x="978" 
d="M617 387l-97 -387h-164l96 387h-164l-97 -387h-164l96 387h-81l30 121h81l13 52c27 109 104 161 218 161c29 0 62 -5 82 -11l-28 -112c-5 1 -15 2 -23 2c-50 0 -79 -21 -94 -80l-3 -12h164l13 52c27 109 104 161 218 161c29 0 62 -5 82 -11l-28 -112c-5 1 -15 2 -23 2
c-50 0 -79 -21 -94 -80l-3 -12h93l-30 -121h-93zM1031 712l-177 -712h-166l177 712h166z" />
    <glyph glyph-name="f_i" unicode="fi" horiz-adv-x="649" 
d="M288 387l-97 -387h-164l96 387h-81l30 121h81l13 52c27 109 104 161 218 161c29 0 62 -5 82 -11l-28 -112c-5 1 -15 2 -23 2c-50 0 -79 -21 -94 -80l-3 -12h93l-30 -121h-93zM702 712l-33 -131h-166l33 131h166zM485 508h166l-126 -508h-166z" />
    <glyph glyph-name="f_l" unicode="fl" horiz-adv-x="649" 
d="M288 387l-97 -387h-164l96 387h-81l30 121h81l13 52c27 109 104 161 218 161c29 0 62 -5 82 -11l-28 -112c-5 1 -15 2 -23 2c-50 0 -79 -21 -94 -80l-3 -12h93l-30 -121h-93zM702 712l-177 -712h-166l177 712h166z" />
    <glyph glyph-name=".notdef" horiz-adv-x="648" 
d="M151 777h346c84 0 137 -53 137 -137v-568c0 -84 -53 -137 -137 -137h-346c-84 0 -137 53 -137 137v568c0 84 53 137 137 137zM497 708h-346c-42 0 -68 -26 -68 -68v-568c0 -42 26 -68 68 -68h346c42 0 68 26 68 68v568c0 42 -26 68 -68 68zM325 647
c115 0 184 -57 184 -152c0 -54 -15 -85 -70 -136c-52 -49 -65 -73 -65 -134h-111c-1 13 -1 27 -1 38c0 65 10 91 63 145c40 40 47 56 47 85s-17 48 -47 48c-37 0 -57 -24 -57 -78h-135c1 120 72 184 192 184zM387 65h-136v119h136v-119z" />
    <glyph glyph-name="NULL" horiz-adv-x="600" 
 />
    <glyph glyph-name="space" unicode=" " horiz-adv-x="230" 
 />
    <glyph glyph-name="exclam" unicode="!" horiz-adv-x="346" 
d="M229 210h-134l94 502h195zM198 0h-176l36 147h177z" />
    <glyph glyph-name="quotedbl" unicode="&#x22;" horiz-adv-x="463" 
d="M235 432h-120l51 280h158zM437 432h-121l52 280h157z" />
    <glyph glyph-name="numbersign" unicode="#" horiz-adv-x="695" 
d="M581 397l-49 -119h97l-47 -115h-96l-67 -163h-135l67 163h-106l-67 -163h-135l67 163h-98l47 115h97l49 119h-98l47 115h98l66 162h135l-66 -162h106l66 162h135l-66 -162h97l-48 -115h-96zM446 397h-106l-49 -119h106z" />
    <glyph glyph-name="dollar" unicode="$" horiz-adv-x="628" 
d="M627 468h-162c2 9 3 19 3 28c0 47 -32 72 -92 72c-64 0 -104 -36 -104 -76c0 -43 34 -60 114 -86c102 -33 189 -71 189 -190c0 -100 -85 -219 -270 -230l-22 -85h-118l23 92c-105 20 -164 81 -164 174c0 16 2 35 6 53h167c-3 -12 -4 -23 -4 -34c0 -51 35 -77 104 -77
c75 0 111 43 111 83c0 48 -36 63 -110 88c-100 34 -189 71 -189 185c0 95 81 209 252 223l19 76h118l-20 -82c101 -18 155 -74 155 -164c0 -16 -1 -33 -6 -50z" />
    <glyph glyph-name="percent" unicode="%" horiz-adv-x="933" 
d="M260 -30h-100l554 734h100zM306 693c98 0 149 -52 149 -147c0 -116 -67 -261 -207 -261c-98 0 -150 52 -150 147c0 116 68 261 208 261zM302 603c-58 0 -84 -119 -84 -170c0 -39 11 -59 34 -59c59 0 84 120 84 171c0 39 -11 58 -34 58zM727 389c98 0 149 -52 149 -147
c0 -115 -68 -261 -207 -261c-98 0 -150 52 -150 148c0 116 68 260 208 260zM723 300c-59 0 -85 -120 -85 -170c0 -40 12 -59 34 -59c59 0 85 120 85 171c0 38 -11 58 -34 58z" />
    <glyph glyph-name="ampersand" unicode="&#x26;" horiz-adv-x="772" 
d="M577 392h161c-25 -99 -70 -180 -134 -246l114 -146h-190l-44 56c-61 -45 -143 -72 -226 -72c-154 0 -232 71 -232 186c0 86 55 179 201 234c-30 47 -43 85 -43 128c0 90 81 196 237 196c118 0 188 -62 188 -160c0 -71 -50 -144 -175 -203l83 -107c26 32 46 75 60 134z
M405 607c-44 0 -68 -37 -68 -72c0 -24 8 -46 29 -82c70 42 90 80 90 106c0 29 -20 48 -51 48zM297 112c38 0 75 13 112 41l-117 150c-73 -37 -94 -76 -94 -115c0 -44 34 -76 99 -76z" />
    <glyph glyph-name="quotesingle" unicode="'" horiz-adv-x="262" 
d="M235 432h-120l51 280h158z" />
    <glyph glyph-name="parenleft" unicode="(" horiz-adv-x="349" 
d="M301 741h139c-165 -225 -237 -445 -237 -644c0 -79 5 -158 16 -244h-129c-35 102 -52 201 -52 306c0 183 78 392 263 582z" />
    <glyph glyph-name="parenright" unicode=")" horiz-adv-x="349" 
d="M69 -147h-139c165 225 237 445 237 644c0 79 -5 158 -16 244h129c35 -102 52 -201 52 -306c0 -183 -78 -392 -263 -582z" />
    <glyph glyph-name="asterisk" unicode="*" horiz-adv-x="448" 
d="M341 563l137 32l8 -121l-140 12l72 -120l-112 -45l-31 137l-92 -107l-78 93l121 73l-130 54l64 103l106 -93l12 141l118 -30z" />
    <glyph glyph-name="plus" unicode="+" horiz-adv-x="566" 
d="M348 381h159v-129h-159v-159h-130v159h-159v129h159v160h130v-160z" />
    <glyph glyph-name="comma" unicode="," horiz-adv-x="274" 
d="M163 0l-136 -178h-98l114 178h-57l45 184h177z" />
    <glyph glyph-name="hyphen" unicode="-" horiz-adv-x="337" 
d="M301 231h-277l31 122h276z" />
    <glyph glyph-name="period" unicode="." horiz-adv-x="274" 
d="M162 0h-176l45 184h177z" />
    <glyph glyph-name="slash" unicode="/" horiz-adv-x="511" 
d="M80 -89h-136l502 834h136z" />
    <glyph glyph-name="zero" unicode="0" horiz-adv-x="623" 
d="M392 690c153 0 230 -91 230 -255c0 -189 -112 -451 -350 -451c-152 0 -229 91 -229 255c0 189 112 451 349 451zM380 556c-112 0 -166 -226 -166 -321c0 -77 23 -119 70 -119c112 0 167 226 167 321c0 76 -23 119 -71 119z" />
    <glyph glyph-name="one" unicode="1" horiz-adv-x="623" 
d="M366 0h-171l108 435h-163l30 122c117 0 178 35 210 117h154z" />
    <glyph glyph-name="two" unicode="2" horiz-adv-x="623" 
d="M393 690c144 0 226 -71 226 -179c0 -103 -68 -183 -226 -254c-131 -59 -159 -84 -171 -120h326l-33 -137h-536c31 176 110 260 283 342c125 59 181 96 181 156c0 37 -22 59 -64 59c-53 0 -88 -34 -104 -100h-174c37 151 143 233 292 233z" />
    <glyph glyph-name="three" unicode="3" horiz-adv-x="623" 
d="M391 690c148 0 232 -66 232 -174c0 -73 -41 -142 -156 -177v-2c60 -26 89 -69 89 -132c0 -102 -93 -221 -283 -221c-162 0 -249 65 -249 187c0 16 2 34 6 53h171c-3 -13 -4 -25 -4 -36c0 -48 29 -71 84 -71c70 0 106 49 106 87c0 46 -34 70 -101 70h-19l32 128h21
c90 0 132 49 132 93c0 39 -27 62 -75 62c-57 0 -96 -34 -112 -101h-170c35 147 143 234 296 234z" />
    <glyph glyph-name="four" unicode="4" horiz-adv-x="623" 
d="M576 140h-104l-35 -140h-168l35 140h-321l37 148l355 386h230l-101 -405h104zM169 269h173l18 75c18 67 36 134 58 201h-2c-51 -62 -103 -123 -159 -182z" />
    <glyph glyph-name="five" unicode="5" horiz-adv-x="623" 
d="M610 537h-310l-44 -123h2c38 25 80 37 122 37c120 0 191 -76 191 -193c0 -118 -105 -274 -314 -274c-144 0 -231 61 -231 167c0 12 1 26 5 40h171c-1 -6 -2 -12 -2 -17c0 -38 32 -60 78 -60c85 0 118 75 118 132c0 51 -29 78 -77 78c-45 0 -79 -27 -97 -65l-164 11
l139 404h447z" />
    <glyph glyph-name="six" unicode="6" horiz-adv-x="623" 
d="M407 690c141 0 224 -66 224 -181c0 -8 -1 -16 -2 -24h-170v11c0 42 -22 65 -65 65c-57 0 -115 -48 -150 -164h2c41 29 89 43 140 43c117 0 188 -77 188 -196c0 -112 -102 -260 -288 -260c-149 0 -231 83 -231 247c0 186 118 459 352 459zM329 319
c-71 0 -109 -69 -109 -121c0 -50 25 -83 72 -83c68 0 108 65 108 118c0 54 -25 86 -71 86z" />
    <glyph glyph-name="seven" unicode="7" horiz-adv-x="623" 
d="M670 674l-33 -139c-131 -140 -252 -335 -335 -535h-196c99 223 236 419 351 532h-345l35 142h523z" />
    <glyph glyph-name="eight" unicode="8" horiz-adv-x="623" 
d="M393 690c144 0 232 -69 232 -178c0 -75 -54 -154 -162 -175v-2c60 -23 96 -77 96 -145c0 -95 -90 -206 -287 -206c-153 0 -243 71 -243 193c0 78 60 164 179 185v2c-55 23 -85 72 -85 132c0 88 93 194 270 194zM380 561c-69 0 -103 -47 -103 -85c0 -43 29 -68 81 -68
c68 0 102 47 102 85c0 43 -29 68 -80 68zM310 282c-77 0 -110 -56 -110 -96c0 -45 31 -71 85 -71c73 0 111 50 111 95s-31 72 -86 72z" />
    <glyph glyph-name="nine" unicode="9" horiz-adv-x="623" 
d="M243 -16c-141 0 -223 66 -223 181c0 8 0 16 1 25h171c0 -5 -1 -8 -1 -11c0 -43 22 -65 65 -65c57 0 115 47 150 164h-2c-41 -29 -88 -44 -140 -44c-116 0 -187 78 -187 197c0 112 101 259 288 259c148 0 231 -82 231 -246c0 -186 -119 -460 -353 -460zM321 355
c71 0 109 70 109 121s-25 83 -72 83c-67 0 -108 -65 -108 -118s25 -86 71 -86z" />
    <glyph glyph-name="colon" unicode=":" horiz-adv-x="274" 
d="M243 324h-176l45 184h177zM163 0h-177l45 184h177z" />
    <glyph glyph-name="semicolon" unicode=";" horiz-adv-x="274" 
d="M243 324h-177l46 184h176zM163 0l-136 -178h-98l114 178h-57l45 184h177z" />
    <glyph glyph-name="less" unicode="&#x3c;" horiz-adv-x="566" 
d="M507 431l-295 -113v-2l295 -113v-138l-448 176v152l448 176v-138z" />
    <glyph glyph-name="equal" unicode="=" horiz-adv-x="566" 
d="M507 356h-448v124h448v-124zM507 153h-448v124h448v-124z" />
    <glyph glyph-name="greater" unicode="&#x3e;" horiz-adv-x="566" 
d="M507 393v-152l-448 -176v138l295 113v2l-295 113v138z" />
    <glyph glyph-name="question" unicode="?" horiz-adv-x="570" 
d="M371 727c148 0 231 -67 231 -180c0 -69 -29 -123 -140 -195c-85 -56 -110 -84 -129 -154h-140c23 120 45 153 140 221c87 62 97 90 97 123c0 35 -22 55 -66 55c-52 0 -86 -30 -103 -98h-172c36 150 137 228 282 228zM301 0h-176l36 147h177z" />
    <glyph glyph-name="at" unicode="@" horiz-adv-x="870" 
d="M504 708c224 0 357 -122 357 -317c0 -160 -101 -324 -269 -324c-65 0 -102 27 -106 79h-2c-37 -52 -83 -79 -137 -79c-82 0 -128 55 -128 160c0 115 94 291 241 291c62 0 90 -30 100 -77h2c7 19 19 46 29 67h123c-57 -126 -115 -274 -115 -310c0 -22 10 -30 31 -30
c92 0 138 128 138 220c0 141 -98 228 -266 228c-255 0 -373 -230 -373 -389c0 -162 91 -256 246 -256c87 0 164 18 230 52l33 -82c-73 -39 -160 -62 -256 -62c-218 0 -345 125 -345 344c0 207 163 485 467 485zM467 404c-69 0 -114 -104 -114 -162c0 -39 15 -60 45 -60
c66 0 113 110 113 163c0 38 -15 59 -44 59z" />
    <glyph glyph-name="A" unicode="A" horiz-adv-x="715" 
d="M472 151h-258l-83 -151h-193l420 712h227l66 -712h-171zM465 293l-3 48c-4 85 -7 173 -8 259h-2c-41 -86 -87 -174 -134 -259l-26 -48h173z" />
    <glyph glyph-name="B" unicode="B" horiz-adv-x="664" 
d="M190 712h262c159 0 231 -62 231 -159c0 -73 -38 -158 -164 -193v-2c70 -18 99 -66 99 -134c0 -102 -90 -224 -294 -224h-311zM326 578l-38 -154h99c96 0 121 45 121 89s-29 65 -94 65h-88zM256 297l-40 -162h103c101 0 124 45 124 94c0 48 -29 68 -98 68h-89z" />
    <glyph glyph-name="C" unicode="C" horiz-adv-x="715" 
d="M458 728c163 0 266 -93 266 -243c0 -13 0 -29 -3 -44h-179c1 9 2 17 2 28c0 68 -38 109 -103 109c-137 0 -207 -171 -207 -293c0 -89 38 -151 115 -151c64 0 123 41 150 112h182c-52 -167 -182 -262 -348 -262c-178 0 -279 112 -279 289c0 201 129 455 404 455z" />
    <glyph glyph-name="D" unicode="D" horiz-adv-x="743" 
d="M190 712h200c227 0 344 -109 344 -308c0 -184 -129 -404 -435 -404h-286zM326 565l-104 -418h86c180 0 246 139 246 247c0 113 -58 171 -175 171h-53z" />
    <glyph glyph-name="E" unicode="E" horiz-adv-x="634" 
d="M657 567h-330l-33 -135h307l-36 -143h-308l-35 -144h338l-36 -145h-511l177 712h503z" />
    <glyph glyph-name="F" unicode="F" horiz-adv-x="591" 
d="M643 564h-317l-41 -164h294l-36 -147h-294l-63 -253h-173l177 712h490z" />
    <glyph glyph-name="G" unicode="G" horiz-adv-x="751" 
d="M478 728c167 0 265 -85 265 -222c0 -11 -1 -23 -3 -36h-186c1 5 1 10 1 14c0 63 -36 99 -102 99c-146 0 -219 -176 -219 -306c0 -96 39 -159 122 -159c75 0 141 50 165 134h-153l33 133h315l-96 -385h-148l14 58h-2c-47 -46 -114 -72 -188 -72c-154 0 -242 111 -242 280
c0 213 140 462 424 462z" />
    <glyph glyph-name="H" unicode="H" horiz-adv-x="761" 
d="M622 0h-173l73 295h-263l-73 -295h-173l177 712h173l-67 -270h263l67 270h173z" />
    <glyph glyph-name="I" unicode="I" horiz-adv-x="325" 
d="M186 0h-173l177 712h173z" />
    <glyph glyph-name="J" unicode="J" horiz-adv-x="410" 
d="M453 712l-122 -489c-39 -159 -131 -231 -293 -231c-32 0 -63 4 -86 11l36 142c12 -3 29 -5 40 -5c77 0 117 29 146 145l106 427h173z" />
    <glyph glyph-name="K" unicode="K" horiz-adv-x="690" 
d="M437 366l186 -366h-201l-149 342h-2l-85 -342h-173l177 712h173l-73 -292h2l265 292h224z" />
    <glyph glyph-name="L" unicode="L" horiz-adv-x="580" 
d="M222 147h323l-37 -147h-495l177 712h173z" />
    <glyph glyph-name="M" unicode="M" horiz-adv-x="1013" 
d="M874 0h-163l86 348c22 88 46 176 72 263h-2c-42 -86 -87 -174 -133 -259l-188 -352h-205l-14 352c-2 85 -4 173 -3 259h-2c-18 -87 -38 -175 -60 -263l-86 -348h-163l177 712h267l13 -316c3 -87 4 -175 0 -262h2c36 87 77 175 124 262l169 316h286z" />
    <glyph glyph-name="N" unicode="N" horiz-adv-x="801" 
d="M663 0h-238l-60 281c-20 92 -39 189 -55 285h-2c-18 -100 -38 -200 -63 -300l-66 -266h-166l177 712h237l61 -281c19 -92 37 -189 54 -285h2c17 100 38 200 64 300l66 266h166z" />
    <glyph glyph-name="O" unicode="O" horiz-adv-x="757" 
d="M454 728c188 0 296 -120 296 -309c0 -195 -133 -435 -396 -435c-189 0 -296 121 -296 310c0 194 133 434 396 434zM444 578c-141 0 -209 -168 -209 -285c0 -100 45 -159 128 -159c142 0 210 169 210 285c0 100 -45 159 -129 159z" />
    <glyph glyph-name="P" unicode="P" horiz-adv-x="654" 
d="M190 712h235c178 0 261 -82 261 -213c0 -115 -84 -260 -299 -260h-141l-60 -239h-173zM329 573l-49 -195h104c93 0 124 56 124 105c0 57 -31 90 -102 90h-77z" />
    <glyph glyph-name="Q" unicode="Q" horiz-adv-x="757" 
d="M753 428c0 -123 -52 -264 -155 -353l57 -88l-103 -66l-58 90c-43 -17 -91 -27 -144 -27c-188 0 -295 117 -295 300c0 199 135 444 403 444c187 0 295 -117 295 -300zM366 123c18 0 35 3 51 8l-71 111l103 65l66 -102c44 61 66 144 66 210c0 103 -46 163 -132 163
c-145 0 -214 -172 -214 -291c0 -103 46 -164 131 -164z" />
    <glyph glyph-name="R" unicode="R" horiz-adv-x="685" 
d="M190 712h276c156 0 227 -62 227 -170c0 -90 -58 -186 -183 -217v-2c43 -18 62 -51 75 -139l26 -184h-178l-19 161c-9 73 -32 99 -99 99h-65l-64 -260h-173zM330 578l-47 -187h105c95 0 125 61 125 106c0 56 -33 81 -92 81h-91z" />
    <glyph glyph-name="S" unicode="S" horiz-adv-x="645" 
d="M407 728c165 0 254 -61 254 -182c0 -16 -3 -33 -7 -51h-180c2 9 3 18 3 25c0 47 -31 74 -93 74c-61 0 -101 -33 -101 -73c0 -42 35 -60 119 -87c105 -34 199 -74 199 -206c0 -111 -102 -244 -316 -244c-173 0 -272 69 -272 195c0 17 1 34 6 53h184c-3 -11 -4 -22 -4 -31
c0 -52 35 -79 107 -79c75 0 109 42 109 79c0 49 -37 64 -112 91c-105 36 -202 72 -202 201c0 107 100 235 306 235z" />
    <glyph glyph-name="T" unicode="T" horiz-adv-x="627" 
d="M695 565h-217l-141 -565h-173l140 565h-217l36 147h609z" />
    <glyph glyph-name="U" unicode="U" horiz-adv-x="725" 
d="M769 712l-119 -478c-40 -161 -157 -250 -324 -250c-163 0 -254 86 -254 236c0 29 4 61 13 97l99 395h173l-105 -421c-5 -21 -8 -40 -8 -57c0 -64 34 -98 97 -98c72 0 123 46 144 133l111 443h173z" />
    <glyph glyph-name="V" unicode="V" horiz-adv-x="663" 
d="M381 0h-226l-37 712h170l9 -275c3 -92 4 -187 1 -280h2c39 93 85 188 135 280l145 275h192z" />
    <glyph glyph-name="W" unicode="W" horiz-adv-x="991" 
d="M776 0h-231l11 285c3 95 9 191 18 286h-2c-37 -95 -79 -191 -123 -286l-131 -285h-229l33 712h161l-17 -257c-6 -98 -15 -199 -27 -298h2c40 99 84 199 130 298l120 257h221l-7 -257c-3 -99 -9 -199 -18 -298h2c37 99 78 200 121 298l111 257h176z" />
    <glyph glyph-name="X" unicode="X" horiz-adv-x="669" 
d="M468 358l137 -358h-187l-73 239h-2l-184 -239h-220l318 372l-129 340h183l67 -231h2l173 231h216z" />
    <glyph glyph-name="Y" unicode="Y" horiz-adv-x="663" 
d="M422 269l-67 -269h-173l67 269l-134 443h175l30 -129c13 -58 24 -119 33 -179h2c35 60 75 121 117 179l94 129h210z" />
    <glyph glyph-name="Z" unicode="Z" horiz-adv-x="593" 
d="M630 552l-422 -406v-2h337l-36 -144h-552l40 160l422 406v2h-306l36 144h521z" />
    <glyph glyph-name="bracketleft" unicode="[" horiz-adv-x="358" 
d="M433 636h-117l-170 -683h117l-26 -104h-273l222 892h273z" />
    <glyph glyph-name="backslash" unicode="\" horiz-adv-x="503" 
d="M270 745l96 -834h-118l-96 834h118z" />
    <glyph glyph-name="bracketright" unicode="]" horiz-adv-x="358" 
d="M-55 -46h118l170 683h-117l25 104h273l-221 -892h-274z" />
    <glyph glyph-name="asciicircum" unicode="^" horiz-adv-x="520" 
d="M513 371h-152l-100 211h-2l-100 -211h-152l166 341h174z" />
    <glyph glyph-name="underscore" unicode="_" horiz-adv-x="500" 
d="M401 -141h-500l23 91h500z" />
    <glyph glyph-name="grave" unicode="`" horiz-adv-x="370" 
d="M349 712l48 -148h-121l-111 148h184z" />
    <glyph glyph-name="a" unicode="a" horiz-adv-x="561" 
d="M318 524c141 0 208 -56 208 -161c0 -21 -3 -44 -9 -68l-38 -152c-17 -67 -22 -107 -21 -143h-147c0 17 2 37 7 57h-2c-49 -47 -107 -70 -170 -70c-100 0 -152 56 -152 137c0 77 51 157 238 184c41 5 98 11 131 13l2 11c3 11 5 21 5 30c0 40 -24 57 -62 57
c-42 0 -72 -25 -82 -71h-159c20 96 106 176 251 176zM333 201l7 29c-26 -1 -64 -6 -93 -11c-65 -11 -85 -40 -85 -73c0 -30 20 -49 57 -49c60 0 98 39 114 104z" />
    <glyph glyph-name="b" unicode="b" horiz-adv-x="610" 
d="M281 470h2c38 34 85 52 129 52c111 0 174 -76 174 -200c0 -144 -98 -336 -280 -336c-59 0 -109 29 -129 83h-2l-17 -69h-160l178 712h166zM340 396c-81 0 -125 -108 -125 -186c0 -61 24 -98 70 -98c81 0 125 108 125 186c0 61 -24 98 -70 98z" />
    <glyph glyph-name="c" unicode="c" horiz-adv-x="575" 
d="M337 524c141 0 225 -76 225 -193c0 -9 -1 -18 -3 -27h-172c1 5 2 12 2 18c0 49 -24 77 -63 77c-84 0 -127 -123 -127 -190c0 -64 25 -99 70 -99c42 0 80 31 95 84h173c-40 -128 -149 -210 -279 -210c-145 0 -229 86 -229 228c0 135 102 312 308 312z" />
    <glyph glyph-name="d" unicode="d" 
d="M484 0h-160l11 43h-2c-39 -37 -90 -57 -136 -57c-111 0 -174 76 -174 200c0 144 98 336 280 336c56 0 104 -25 126 -73h2l64 263h166zM324 396c-81 0 -125 -108 -125 -186c0 -61 24 -98 70 -98c81 0 125 108 125 186c0 61 -24 98 -70 98z" />
    <glyph glyph-name="e" unicode="e" horiz-adv-x="584" 
d="M545 220h-359c-3 -14 -4 -27 -4 -39c0 -63 35 -86 79 -86s79 26 91 61h170c-40 -96 -142 -172 -264 -172c-155 0 -230 90 -230 225s99 315 300 315c150 0 229 -86 229 -216c0 -23 -3 -50 -12 -88zM323 415c-46 0 -88 -28 -114 -101h192c1 8 2 15 2 22c0 55 -33 79 -80 79
z" />
    <glyph glyph-name="f" unicode="f" horiz-adv-x="361" 
d="M384 721c29 0 62 -5 82 -11l-28 -112c-5 1 -15 2 -23 2c-50 0 -79 -21 -94 -80l-3 -12h93l-30 -121h-93l-97 -387h-164l96 387h-81l30 121h81l13 52c27 109 104 161 218 161z" />
    <glyph glyph-name="g" unicode="g" horiz-adv-x="602" 
d="M289 522c71 0 119 -38 139 -90h2l19 76h155l-126 -509c-34 -134 -141 -194 -285 -194c-142 0 -214 50 -214 137c0 9 0 17 2 26h157c-1 -4 -1 -8 -1 -11c0 -29 23 -45 66 -45c55 0 97 25 118 106l9 37h-2c-40 -33 -82 -49 -129 -49c-108 0 -170 78 -170 207
c0 130 91 309 260 309zM316 392c-75 0 -114 -100 -114 -159c0 -60 26 -96 71 -96c77 0 116 96 116 158c0 60 -27 97 -73 97z" />
    <glyph glyph-name="h" unicode="h" 
d="M279 466h2c38 34 85 55 137 55c97 0 155 -52 155 -150c0 -22 -3 -47 -10 -74l-74 -297h-166l73 292c4 18 6 33 6 46c0 36 -20 54 -56 54c-51 0 -95 -41 -116 -129l-66 -263h-166l177 712h166z" />
    <glyph glyph-name="i" unicode="i" horiz-adv-x="288" 
d="M308 581h-166l33 131h166zM164 0h-166l126 508h166z" />
    <glyph glyph-name="j" unicode="j" horiz-adv-x="289" 
d="M309 581h-166l33 131h166zM291 508l-131 -525c-30 -123 -117 -173 -218 -173c-35 0 -65 3 -89 11l28 114c6 -2 13 -3 21 -3c53 0 86 23 106 105l117 471h166z" />
    <glyph glyph-name="k" unicode="k" horiz-adv-x="566" 
d="M377 259l135 -259h-183l-103 239h-2l-60 -239h-166l177 712h166l-98 -395h2l166 191h210z" />
    <glyph glyph-name="l" unicode="l" horiz-adv-x="288" 
d="M164 0h-166l177 712h166z" />
    <glyph glyph-name="m" unicode="m" horiz-adv-x="908" 
d="M726 521c92 0 147 -50 147 -148c0 -23 -3 -49 -10 -77l-74 -296h-166l73 295c5 17 7 32 7 45c0 35 -18 52 -49 52c-52 0 -91 -45 -113 -134l-64 -258h-166l74 301c4 15 6 28 6 39c0 33 -17 52 -50 52c-52 0 -91 -45 -113 -134l-64 -258h-166l126 508h155l-12 -51h2
c42 42 89 64 144 64c70 0 117 -30 134 -91c48 56 104 91 179 91z" />
    <glyph glyph-name="n" unicode="n" 
d="M418 521c97 0 155 -52 155 -150c0 -22 -3 -47 -10 -74l-74 -297h-166l73 292c4 18 6 33 6 46c0 36 -20 54 -56 54c-51 0 -95 -41 -116 -129l-66 -263h-166l127 508h154l-13 -53h2c41 40 93 66 150 66z" />
    <glyph glyph-name="o" unicode="o" horiz-adv-x="604" 
d="M332 524c156 0 243 -87 243 -231c0 -135 -102 -309 -305 -309c-154 0 -241 87 -241 231c0 135 102 309 303 309zM325 398c-88 0 -124 -115 -124 -185c0 -65 24 -103 78 -103c87 0 124 115 124 185c0 65 -25 103 -78 103z" />
    <glyph glyph-name="p" unicode="p" horiz-adv-x="610" 
d="M412 522c111 0 174 -76 174 -200c0 -144 -98 -336 -280 -336c-56 0 -104 25 -126 73h-2l-60 -244h-166l173 693h160l-11 -44h2c39 38 90 58 136 58zM340 396c-81 0 -125 -108 -125 -186c0 -61 24 -98 70 -98c81 0 125 108 125 186c0 61 -24 98 -70 98z" />
    <glyph glyph-name="q" unicode="q" horiz-adv-x="609" 
d="M303 522c59 0 109 -29 129 -83h2l17 69h160l-172 -693h-166l55 223h-2c-38 -34 -85 -52 -129 -52c-111 0 -174 76 -174 200c0 144 98 336 280 336zM324 396c-81 0 -125 -108 -125 -186c0 -61 24 -98 70 -98c81 0 125 108 125 186c0 61 -24 98 -70 98z" />
    <glyph glyph-name="r" unicode="r" horiz-adv-x="415" 
d="M425 516c15 0 33 -2 47 -6l-35 -142c-17 3 -34 5 -50 5c-85 0 -144 -53 -167 -150l-56 -223h-166l126 508h154l-16 -63h2c49 49 100 71 161 71z" />
    <glyph glyph-name="s" unicode="s" horiz-adv-x="542" 
d="M317 524c129 0 203 -46 203 -140c0 -9 -1 -20 -3 -30h-158c1 6 2 14 2 20c0 31 -22 45 -59 45c-47 0 -63 -23 -63 -43c0 -25 20 -37 87 -60c75 -26 156 -55 156 -156c0 -87 -81 -176 -255 -176c-142 0 -223 48 -223 147c0 10 2 22 5 34h167c-2 -8 -3 -14 -3 -21
c0 -33 22 -51 68 -51c45 0 69 19 69 47c0 34 -30 46 -98 68c-69 24 -140 47 -140 146c0 83 77 170 245 170z" />
    <glyph glyph-name="t" unicode="t" horiz-adv-x="378" 
d="M285 387l-45 -180c-3 -13 -5 -25 -5 -35c0 -35 17 -49 56 -49c11 0 22 2 30 3l-32 -126c-17 -5 -46 -8 -65 -8c-111 0 -162 41 -162 137c0 22 4 47 12 76l45 182h-79l30 121h79l34 137h166l-34 -137h96l-30 -121h-96z" />
    <glyph glyph-name="u" unicode="u" 
d="M190 -13c-97 0 -155 52 -155 150c0 22 3 47 10 74l74 297h166l-73 -292c-4 -18 -6 -33 -6 -46c0 -36 20 -54 56 -54c51 0 95 41 116 129l66 263h166l-127 -508h-154l13 53h-2c-41 -40 -93 -66 -150 -66z" />
    <glyph glyph-name="v" unicode="v" horiz-adv-x="533" 
d="M313 0h-221l-37 508h166l3 -186c1 -71 0 -143 -3 -215h2c29 72 63 144 99 215l95 186h187z" />
    <glyph glyph-name="w" unicode="w" horiz-adv-x="848" 
d="M668 0h-228l7 191c3 70 6 142 12 213h-2c-26 -71 -55 -143 -88 -213l-88 -191h-227l13 508h155l-14 -187c-5 -71 -10 -144 -19 -216h2c28 72 58 144 92 217l88 186h217l-4 -186c-1 -73 -4 -145 -10 -217h2c24 72 51 145 82 216l79 187h170z" />
    <glyph glyph-name="x" unicode="x" horiz-adv-x="535" 
d="M367 254l111 -254h-175l-50 157h-2l-116 -157h-204l240 267l-103 241h173l44 -139h2l102 139h204z" />
    <glyph glyph-name="y" unicode="y" horiz-adv-x="530" 
d="M601 508l-294 -501c-89 -152 -165 -198 -294 -198c-29 0 -60 3 -83 8l31 126c14 -5 32 -8 49 -8c63 0 98 40 98 90c0 13 -2 29 -7 74l-48 409h164l10 -170c4 -69 5 -141 3 -212h2c30 71 62 142 99 213l86 169h184z" />
    <glyph glyph-name="z" unicode="z" horiz-adv-x="502" 
d="M495 373l-288 -244v-2h235l-32 -127h-444l34 135l287 244v2h-218l32 127h427z" />
    <glyph glyph-name="braceleft" unicode="{" horiz-adv-x="361" 
d="M454 741l-23 -95c-54 -2 -81 -19 -95 -76l-38 -149c-18 -72 -60 -108 -132 -123l-1 -3c49 -16 72 -46 72 -98c0 -14 -2 -30 -7 -49l-28 -114c-4 -15 -6 -27 -6 -37c0 -40 19 -53 59 -55l-23 -95h-15c-124 0 -172 39 -172 126c0 23 4 48 12 78l26 107c4 15 6 28 6 38
c0 33 -14 51 -48 61l25 100c53 12 75 31 87 80l34 138c30 118 87 166 232 166h35z" />
    <glyph glyph-name="bar" unicode="|" horiz-adv-x="297" 
d="M219 -205h-142v937h142v-937z" />
    <glyph glyph-name="braceright" unicode="}" horiz-adv-x="361" 
d="M-74 -153l24 95c53 2 81 19 95 76l37 149c18 72 60 108 132 123l1 3c-48 16 -72 46 -72 98c0 14 2 30 7 49l29 114c3 15 5 27 5 37c0 40 -18 53 -59 55l24 95h15c124 0 171 -39 171 -126c0 -23 -4 -48 -11 -78l-27 -107c-4 -15 -6 -28 -6 -38c0 -33 15 -51 49 -61
l-25 -100c-53 -12 -75 -31 -88 -80l-34 -138c-29 -118 -86 -166 -232 -166h-35z" />
    <glyph glyph-name="asciitilde" unicode="~" horiz-adv-x="600" 
d="M225 425c103 0 137 -86 201 -86c38 0 72 30 83 78h107c-32 -133 -116 -207 -209 -207c-104 0 -137 86 -202 86c-38 0 -71 -31 -83 -78h-106c31 132 115 207 209 207z" />
    <glyph glyph-name="Aacute" unicode="&#xc1;" horiz-adv-x="715" 
d="M523 760h-135l110 151h197zM585 712l66 -712h-171l-8 151h-258l-83 -151h-193l420 712h227zM465 293l-3 48c-4 85 -7 173 -8 259h-2c-41 -86 -87 -174 -134 -259l-26 -48h173z" />
    <glyph glyph-name="Abreve" unicode="&#x102;" horiz-adv-x="715" 
d="M488 757c-95 0 -148 45 -148 123c0 10 1 20 3 31h95c-1 -5 -1 -8 -1 -12c0 -30 21 -46 60 -46c44 0 74 21 85 58h117c-27 -98 -104 -154 -211 -154zM585 712l66 -712h-171l-8 151h-258l-83 -151h-193l420 712h227zM465 293l-3 48c-4 85 -7 173 -8 259h-2
c-41 -86 -87 -174 -134 -259l-26 -48h173z" />
    <glyph glyph-name="Acircumflex" unicode="&#xc2;" horiz-adv-x="715" 
d="M437 760h-152l158 151h156l83 -151h-125l-41 79zM585 712l66 -712h-171l-8 151h-258l-83 -151h-193l420 712h227zM465 293l-3 48c-4 85 -7 173 -8 259h-2c-41 -86 -87 -174 -134 -259l-26 -48h173z" />
    <glyph glyph-name="Adieresis" unicode="&#xc4;" horiz-adv-x="715" 
d="M444 769h-143l33 131h142zM703 900l-33 -131h-142l32 131h143zM585 712l66 -712h-171l-8 151h-258l-83 -151h-193l420 712h227zM465 293l-3 48c-4 85 -7 173 -8 259h-2c-41 -86 -87 -174 -134 -259l-26 -48h173z" />
    <glyph glyph-name="Agrave" unicode="&#xc0;" horiz-adv-x="715" 
d="M458 760l-110 151h184l47 -151h-121zM472 151h-258l-83 -151h-193l420 712h227l66 -712h-171zM465 293l-3 48c-4 85 -7 173 -8 259h-2c-41 -86 -87 -174 -134 -259l-26 -48h173z" />
    <glyph glyph-name="Amacron" unicode="&#x100;" horiz-adv-x="715" 
d="M693 879l-25 -103h-360l26 103h359zM585 712l66 -712h-171l-8 151h-258l-83 -151h-193l420 712h227zM465 293l-3 48c-4 85 -7 173 -8 259h-2c-41 -86 -87 -174 -134 -259l-26 -48h173z" />
    <glyph glyph-name="Aogonek" unicode="&#x104;" horiz-adv-x="715" 
d="M566 -89c0 -13 8 -20 26 -20c12 0 25 3 36 7l-22 -86c-23 -7 -53 -11 -84 -11c-76 0 -112 28 -112 78c0 47 36 84 112 121h-42l-8 151h-258l-83 -151h-193l420 712h227l66 -712c-71 -40 -85 -66 -85 -89zM465 293l-3 48c-4 85 -7 173 -8 259h-2
c-41 -86 -87 -174 -134 -259l-26 -48h173z" />
    <glyph glyph-name="Aring" unicode="&#xc5;" horiz-adv-x="715" 
d="M500 752c-63 0 -114 51 -114 113c0 63 51 114 114 114s113 -51 113 -114c0 -62 -50 -113 -113 -113zM500 921c-31 0 -56 -25 -56 -56s25 -56 56 -56s56 25 56 56s-25 56 -56 56zM472 151h-258l-83 -151h-193l420 712h227l66 -712h-171zM465 293l-3 48
c-4 85 -7 173 -8 259h-2c-41 -86 -87 -174 -134 -259l-26 -48h173z" />
    <glyph glyph-name="Atilde" unicode="&#xc3;" horiz-adv-x="715" 
d="M626 911h90c-26 -88 -79 -143 -151 -143c-67 0 -89 43 -131 43c-27 0 -43 -15 -53 -43h-91c25 88 78 143 151 143c67 0 90 -43 131 -43c27 0 43 14 54 43zM585 712l66 -712h-171l-8 151h-258l-83 -151h-193l420 712h227zM465 293l-3 48c-4 85 -7 173 -8 259h-2
c-41 -86 -87 -174 -134 -259l-26 -48h173z" />
    <glyph glyph-name="AE" unicode="&#xc6;" horiz-adv-x="977" 
d="M682 567l-14 -135h276l-36 -143h-257l-14 -144h266l-36 -145h-404l17 160h-245l-107 -160h-197l495 712h611l-36 -145h-319zM495 303l29 269h-14l-180 -269h165z" />
    <glyph glyph-name="Cacute" unicode="&#x106;" horiz-adv-x="715" 
d="M512 760h-135l110 151h197zM458 728c163 0 266 -93 266 -243c0 -13 0 -29 -3 -44h-179c1 9 2 17 2 28c0 68 -38 109 -103 109c-137 0 -207 -171 -207 -293c0 -89 38 -151 115 -151c64 0 123 41 150 112h182c-52 -167 -182 -262 -348 -262c-178 0 -279 112 -279 289
c0 201 129 455 404 455z" />
    <glyph glyph-name="Ccaron" unicode="&#x10c;" horiz-adv-x="715" 
d="M550 760h-155l-83 151h124l42 -79l78 79h153zM458 728c163 0 266 -93 266 -243c0 -13 0 -29 -3 -44h-179c1 9 2 17 2 28c0 68 -38 109 -103 109c-137 0 -207 -171 -207 -293c0 -89 38 -151 115 -151c64 0 123 41 150 112h182c-52 -167 -182 -262 -348 -262
c-178 0 -279 112 -279 289c0 201 129 455 404 455z" />
    <glyph glyph-name="Ccedilla" unicode="&#xc7;" horiz-adv-x="715" 
d="M721 441h-179c1 9 2 17 2 28c0 68 -38 109 -103 109c-137 0 -207 -171 -207 -293c0 -89 38 -151 115 -151c64 0 123 41 150 112h182c-50 -159 -170 -253 -325 -261l-38 -44c6 2 14 3 22 3c45 0 74 -26 74 -71c0 -60 -63 -105 -146 -105c-42 0 -82 11 -113 32l30 53
c27 -15 54 -22 80 -22c31 0 51 14 51 35c0 18 -12 29 -35 29c-11 0 -23 -2 -33 -6l-26 24l64 74c-149 18 -232 125 -232 286c0 201 129 455 404 455c163 0 266 -93 266 -243c0 -13 0 -29 -3 -44z" />
    <glyph glyph-name="Ccircumflex" unicode="&#x108;" horiz-adv-x="715" 
d="M432 911h156l83 -151h-125l-41 79l-79 -79h-152zM458 728c163 0 266 -93 266 -243c0 -13 0 -29 -3 -44h-179c1 9 2 17 2 28c0 68 -38 109 -103 109c-137 0 -207 -171 -207 -293c0 -89 38 -151 115 -151c64 0 123 41 150 112h182c-52 -167 -182 -262 -348 -262
c-178 0 -279 112 -279 289c0 201 129 455 404 455z" />
    <glyph glyph-name="Cdotaccent" unicode="&#x10a;" horiz-adv-x="715" 
d="M558 769h-166l33 131h166zM458 728c163 0 266 -93 266 -243c0 -13 0 -29 -3 -44h-179c1 9 2 17 2 28c0 68 -38 109 -103 109c-137 0 -207 -171 -207 -293c0 -89 38 -151 115 -151c64 0 123 41 150 112h182c-52 -167 -182 -262 -348 -262c-178 0 -279 112 -279 289
c0 201 129 455 404 455z" />
    <glyph glyph-name="Eth" unicode="&#xd0;" horiz-adv-x="745" 
d="M191 712h200c228 0 345 -109 345 -308c0 -184 -130 -404 -436 -404h-286l75 303h-62l29 114h62zM223 147h86c180 0 247 139 247 247c0 113 -58 171 -175 171h-53l-37 -148h153l-29 -114h-153z" />
    <glyph glyph-name="Dcaron" unicode="&#x10e;" horiz-adv-x="743" 
d="M544 760h-155l-83 151h124l42 -79l78 79h153zM190 712h200c227 0 344 -109 344 -308c0 -184 -129 -404 -435 -404h-286zM326 565l-104 -418h86c180 0 246 139 246 247c0 113 -58 171 -175 171h-53z" />
    <glyph glyph-name="Dcroat" unicode="&#x110;" horiz-adv-x="745" 
d="M191 712h200c228 0 345 -109 345 -308c0 -184 -130 -404 -436 -404h-286l75 303h-62l29 114h62zM223 147h86c180 0 247 139 247 247c0 113 -58 171 -175 171h-53l-37 -148h153l-29 -114h-153z" />
    <glyph glyph-name="Eacute" unicode="&#xc9;" horiz-adv-x="634" 
d="M484 760h-135l110 151h197zM657 567h-330l-33 -135h307l-36 -143h-308l-35 -144h338l-36 -145h-511l177 712h503z" />
    <glyph glyph-name="Ebreve" unicode="&#x114;" horiz-adv-x="634" 
d="M543 911h117c-27 -98 -104 -154 -211 -154c-95 0 -148 45 -148 123c0 10 1 20 3 31h95c-1 -5 -1 -8 -1 -12c0 -30 21 -46 60 -46c44 0 74 21 85 58zM657 567h-330l-33 -135h307l-36 -143h-308l-35 -144h338l-36 -145h-511l177 712h503z" />
    <glyph glyph-name="Ecaron" unicode="&#x11a;" horiz-adv-x="634" 
d="M522 760h-155l-83 151h124l42 -79l78 79h153zM657 567h-330l-33 -135h307l-36 -143h-308l-35 -144h338l-36 -145h-511l177 712h503z" />
    <glyph glyph-name="Ecircumflex" unicode="&#xca;" horiz-adv-x="634" 
d="M404 911h156l83 -151h-125l-41 79l-79 -79h-152zM657 567h-330l-33 -135h307l-36 -143h-308l-35 -144h338l-36 -145h-511l177 712h503z" />
    <glyph glyph-name="Edieresis" unicode="&#xcb;" horiz-adv-x="634" 
d="M405 769h-143l33 131h142zM631 769h-142l32 131h143zM657 567h-330l-33 -135h307l-36 -143h-308l-35 -144h338l-36 -145h-511l177 712h503z" />
    <glyph glyph-name="Edotaccent" unicode="&#x116;" horiz-adv-x="634" 
d="M529 769h-166l33 131h166zM657 567h-330l-33 -135h307l-36 -143h-308l-35 -144h338l-36 -145h-511l177 712h503z" />
    <glyph glyph-name="Egrave" unicode="&#xc8;" horiz-adv-x="634" 
d="M540 760h-121l-110 151h184zM657 567h-330l-33 -135h307l-36 -143h-308l-35 -144h338l-36 -145h-511l177 712h503z" />
    <glyph glyph-name="Emacron" unicode="&#x112;" horiz-adv-x="634" 
d="M629 776h-360l26 103h359zM657 567h-330l-33 -135h307l-36 -143h-308l-35 -144h338l-36 -145h-511l177 712h503z" />
    <glyph glyph-name="Eogonek" unicode="&#x118;" horiz-adv-x="634" 
d="M327 567l-33 -135h307l-36 -143h-308l-35 -144h338l-36 -145c-71 -40 -85 -66 -85 -89c0 -13 8 -20 26 -20c12 0 25 3 36 7l-22 -86c-23 -7 -53 -11 -84 -11c-76 0 -112 28 -112 78c0 47 36 84 112 121h-382l177 712h503l-36 -145h-330z" />
    <glyph glyph-name="Gbreve" unicode="&#x11e;" horiz-adv-x="751" 
d="M577 911h117c-27 -98 -104 -154 -211 -154c-95 0 -148 45 -148 123c0 10 1 20 3 31h95c-1 -5 -1 -8 -1 -12c0 -30 21 -46 60 -46c44 0 74 21 85 58zM478 728c167 0 265 -85 265 -222c0 -11 -1 -23 -3 -36h-186c1 5 1 10 1 14c0 63 -36 99 -102 99
c-146 0 -219 -176 -219 -306c0 -96 39 -159 122 -159c75 0 141 50 165 134h-153l33 133h315l-96 -385h-148l14 58h-2c-47 -46 -114 -72 -188 -72c-154 0 -242 111 -242 280c0 213 140 462 424 462z" />
    <glyph glyph-name="Gcircumflex" unicode="&#x11c;" horiz-adv-x="751" 
d="M437 911h156l83 -151h-125l-41 79l-79 -79h-152zM478 728c167 0 265 -85 265 -222c0 -11 -1 -23 -3 -36h-186c1 5 1 10 1 14c0 63 -36 99 -102 99c-146 0 -219 -176 -219 -306c0 -96 39 -159 122 -159c75 0 141 50 165 134h-153l33 133h315l-96 -385h-148l14 58h-2
c-47 -46 -114 -72 -188 -72c-154 0 -242 111 -242 280c0 213 140 462 424 462z" />
    <glyph glyph-name="Gcommaaccent" unicode="&#x122;" horiz-adv-x="751" 
d="M478 728c167 0 265 -85 265 -222c0 -11 -1 -23 -3 -36h-186c1 5 1 10 1 14c0 63 -36 99 -102 99c-146 0 -219 -176 -219 -306c0 -96 39 -159 122 -159c75 0 141 50 165 134h-153l33 133h315l-96 -385h-148l14 58h-2c-47 -46 -114 -72 -188 -72c-154 0 -242 111 -242 280
c0 213 140 462 424 462zM335 -166l-98 -109h-63l73 109h-46l28 112h134z" />
    <glyph glyph-name="Gdotaccent" unicode="&#x120;" horiz-adv-x="751" 
d="M563 769h-166l33 131h166zM478 728c167 0 265 -85 265 -222c0 -11 -1 -23 -3 -36h-186c1 5 1 10 1 14c0 63 -36 99 -102 99c-146 0 -219 -176 -219 -306c0 -96 39 -159 122 -159c75 0 141 50 165 134h-153l33 133h315l-96 -385h-148l14 58h-2c-47 -46 -114 -72 -188 -72
c-154 0 -242 111 -242 280c0 213 140 462 424 462z" />
    <glyph glyph-name="Hbar" unicode="&#x126;" horiz-adv-x="761" 
d="M815 564h-53l-140 -564h-173l73 295h-263l-73 -295h-173l140 564h-53l20 80h53l17 68h173l-17 -68h263l17 68h173l-17 -68h53zM589 564h-263l-30 -122h263z" />
    <glyph glyph-name="Hcircumflex" unicode="&#x124;" horiz-adv-x="761" 
d="M466 911h156l83 -151h-125l-41 79l-79 -79h-152zM622 0h-173l73 295h-263l-73 -295h-173l177 712h173l-67 -270h263l67 270h173z" />
    <glyph glyph-name="IJ" unicode="&#x132;" horiz-adv-x="735" 
d="M186 0h-173l177 712h173zM778 712l-122 -489c-39 -159 -131 -231 -293 -231c-32 0 -63 4 -86 11l36 142c12 -3 29 -5 40 -5c77 0 117 29 146 145l106 427h173z" />
    <glyph glyph-name="Iacute" unicode="&#xcd;" horiz-adv-x="325" 
d="M328 760h-135l110 151h197zM186 0h-173l177 712h173z" />
    <glyph glyph-name="Ibreve" unicode="&#x12c;" horiz-adv-x="325" 
d="M387 911h117c-27 -98 -104 -154 -211 -154c-95 0 -148 45 -148 123c0 10 1 20 3 31h95c-1 -5 -1 -8 -1 -12c0 -30 21 -46 60 -46c44 0 74 21 85 58zM186 0h-173l177 712h173z" />
    <glyph glyph-name="Icircumflex" unicode="&#xce;" horiz-adv-x="325" 
d="M248 911h156l83 -151h-125l-41 79l-79 -79h-152zM186 0h-173l177 712h173z" />
    <glyph glyph-name="Idieresis" unicode="&#xcf;" horiz-adv-x="325" 
d="M249 769h-143l33 131h142zM475 769h-142l32 131h143zM186 0h-173l177 712h173z" />
    <glyph glyph-name="Idotaccent" unicode="&#x130;" horiz-adv-x="325" 
d="M373 769h-166l33 131h166zM186 0h-173l177 712h173z" />
    <glyph glyph-name="Igrave" unicode="&#xcc;" horiz-adv-x="325" 
d="M384 760h-121l-110 151h184zM186 0h-173l177 712h173z" />
    <glyph glyph-name="Imacron" unicode="&#x12a;" horiz-adv-x="325" 
d="M473 776h-360l26 103h359zM186 0h-173l177 712h173z" />
    <glyph glyph-name="Iogonek" unicode="&#x12e;" horiz-adv-x="325" 
d="M363 712l-177 -712c-71 -40 -85 -66 -85 -89c0 -13 8 -20 26 -20c12 0 25 3 36 7l-22 -86c-23 -7 -53 -11 -84 -11c-76 0 -112 28 -112 78c0 47 36 84 112 121h-44l177 712h173z" />
    <glyph glyph-name="Itilde" unicode="&#x128;" horiz-adv-x="325" 
d="M431 911h90c-26 -88 -79 -143 -151 -143c-67 0 -89 43 -131 43c-27 0 -43 -15 -53 -43h-91c25 88 78 143 151 143c67 0 90 -43 131 -43c27 0 43 14 54 43zM186 0h-173l177 712h173z" />
    <glyph glyph-name="Jcircumflex" unicode="&#x134;" horiz-adv-x="410" 
d="M339 911h156l83 -151h-125l-41 79l-79 -79h-152zM453 712l-122 -489c-39 -159 -131 -231 -293 -231c-32 0 -63 4 -86 11l36 142c12 -3 29 -5 40 -5c77 0 117 29 146 145l106 427h173z" />
    <glyph glyph-name="Kcommaaccent" unicode="&#x136;" horiz-adv-x="690" 
d="M437 366l186 -366h-201l-149 342h-2l-85 -342h-173l177 712h173l-73 -292h2l265 292h224zM201 -54h134l-28 -112l-98 -109h-63l73 109h-46z" />
    <glyph glyph-name="Lacute" unicode="&#x139;" horiz-adv-x="580" 
d="M357 760h-135l110 151h197zM222 147h323l-37 -147h-495l177 712h173z" />
    <glyph glyph-name="Lcaron" unicode="&#x13d;" horiz-adv-x="580" 
d="M222 147h323l-37 -147h-495l177 712h173zM436 483h-94l81 229h130z" />
    <glyph glyph-name="Lcommaaccent" unicode="&#x13b;" horiz-adv-x="580" 
d="M222 147h323l-37 -147h-495l177 712h173zM286 -166l-98 -109h-63l73 109h-46l28 112h134z" />
    <glyph glyph-name="Ldot" unicode="&#x13f;" horiz-adv-x="663" 
d="M222 147h323l-37 -147h-495l177 712h173zM601 345h-176l45 184h177z" />
    <glyph glyph-name="Lslash" unicode="&#x141;" horiz-adv-x="587" 
d="M552 147l-37 -147h-495l67 271l-82 -43l37 148l82 43l73 293h173l-51 -205l165 85l-37 -148l-165 -85l-53 -212h323z" />
    <glyph glyph-name="Nacute" unicode="&#x143;" horiz-adv-x="801" 
d="M566 760h-135l110 151h197zM663 0h-238l-60 281c-20 92 -39 189 -55 285h-2c-18 -100 -38 -200 -63 -300l-66 -266h-166l177 712h237l61 -281c19 -92 37 -189 54 -285h2c17 100 38 200 64 300l66 266h166z" />
    <glyph glyph-name="Ncaron" unicode="&#x147;" horiz-adv-x="801" 
d="M604 760h-155l-83 151h124l42 -79l78 79h153zM663 0h-238l-60 281c-20 92 -39 189 -55 285h-2c-18 -100 -38 -200 -63 -300l-66 -266h-166l177 712h237l61 -281c19 -92 37 -189 54 -285h2c17 100 38 200 64 300l66 266h166z" />
    <glyph glyph-name="Ncommaaccent" unicode="&#x145;" horiz-adv-x="801" 
d="M663 0h-238l-60 281c-20 92 -39 189 -55 285h-2c-18 -100 -38 -200 -63 -300l-66 -266h-166l177 712h237l61 -281c19 -92 37 -189 54 -285h2c17 100 38 200 64 300l66 266h166zM363 -166l-98 -109h-63l73 109h-46l28 112h134z" />
    <glyph glyph-name="Eng" unicode="&#x14a;" horiz-adv-x="759" 
d="M798 712l-179 -716c-33 -135 -125 -190 -234 -190c-31 0 -57 3 -77 9l28 114c8 -2 17 -3 28 -3c50 0 82 26 82 81c0 23 -4 36 -23 96l-63 202c-23 75 -43 152 -57 228h-2c-14 -84 -31 -168 -52 -252l-70 -281h-166l177 712h203l74 -237c22 -75 43 -152 58 -228h2
c14 84 31 168 52 252l53 213h166z" />
    <glyph glyph-name="Ntilde" unicode="&#xd1;" horiz-adv-x="801" 
d="M670 911h90c-26 -88 -79 -143 -151 -143c-67 0 -89 43 -131 43c-27 0 -43 -15 -53 -43h-91c25 88 78 143 151 143c67 0 90 -43 131 -43c27 0 43 14 54 43zM663 0h-238l-60 281c-20 92 -39 189 -55 285h-2c-18 -100 -38 -200 -63 -300l-66 -266h-166l177 712h237l61 -281
c19 -92 37 -189 54 -285h2c17 100 38 200 64 300l66 266h166z" />
    <glyph glyph-name="Oacute" unicode="&#xd3;" horiz-adv-x="757" 
d="M520 760h-135l110 151h197zM454 728c188 0 296 -120 296 -309c0 -195 -133 -435 -396 -435c-189 0 -296 121 -296 310c0 194 133 434 396 434zM444 578c-141 0 -209 -168 -209 -285c0 -100 45 -159 128 -159c142 0 210 169 210 285c0 100 -45 159 -129 159z" />
    <glyph glyph-name="Obreve" unicode="&#x14e;" horiz-adv-x="757" 
d="M580 911h117c-27 -98 -104 -154 -211 -154c-95 0 -148 45 -148 123c0 10 1 20 3 31h95c-1 -5 -1 -8 -1 -12c0 -30 21 -46 60 -46c44 0 74 21 85 58zM454 728c188 0 296 -120 296 -309c0 -195 -133 -435 -396 -435c-189 0 -296 121 -296 310c0 194 133 434 396 434z
M444 578c-141 0 -209 -168 -209 -285c0 -100 45 -159 128 -159c142 0 210 169 210 285c0 100 -45 159 -129 159z" />
    <glyph glyph-name="Ocircumflex" unicode="&#xd4;" horiz-adv-x="757" 
d="M440 911h156l83 -151h-125l-41 79l-79 -79h-152zM454 728c188 0 296 -120 296 -309c0 -195 -133 -435 -396 -435c-189 0 -296 121 -296 310c0 194 133 434 396 434zM444 578c-141 0 -209 -168 -209 -285c0 -100 45 -159 128 -159c142 0 210 169 210 285
c0 100 -45 159 -129 159z" />
    <glyph glyph-name="Odieresis" unicode="&#xd6;" horiz-adv-x="757" 
d="M441 769h-143l33 131h142zM667 769h-142l32 131h143zM454 728c188 0 296 -120 296 -309c0 -195 -133 -435 -396 -435c-189 0 -296 121 -296 310c0 194 133 434 396 434zM444 578c-141 0 -209 -168 -209 -285c0 -100 45 -159 128 -159c142 0 210 169 210 285
c0 100 -45 159 -129 159z" />
    <glyph glyph-name="Ograve" unicode="&#xd2;" horiz-adv-x="757" 
d="M576 760h-121l-110 151h184zM454 728c188 0 296 -120 296 -309c0 -195 -133 -435 -396 -435c-189 0 -296 121 -296 310c0 194 133 434 396 434zM444 578c-141 0 -209 -168 -209 -285c0 -100 45 -159 128 -159c142 0 210 169 210 285c0 100 -45 159 -129 159z" />
    <glyph glyph-name="Ohungarumlaut" unicode="&#x150;" horiz-adv-x="757" 
d="M410 760h-130l130 151h172zM615 760h-130l130 151h173zM454 728c188 0 296 -120 296 -309c0 -195 -133 -435 -396 -435c-189 0 -296 121 -296 310c0 194 133 434 396 434zM444 578c-141 0 -209 -168 -209 -285c0 -100 45 -159 128 -159c142 0 210 169 210 285
c0 100 -45 159 -129 159z" />
    <glyph glyph-name="Omacron" unicode="&#x14c;" horiz-adv-x="757" 
d="M665 776h-360l26 103h359zM454 728c188 0 296 -120 296 -309c0 -195 -133 -435 -396 -435c-189 0 -296 121 -296 310c0 194 133 434 396 434zM444 578c-141 0 -209 -168 -209 -285c0 -100 45 -159 128 -159c142 0 210 169 210 285c0 100 -45 159 -129 159z" />
    <glyph glyph-name="Oslash" unicode="&#xd8;" horiz-adv-x="757" 
d="M779 674l-73 -74c29 -49 44 -110 44 -181c0 -195 -133 -435 -396 -435c-81 0 -147 22 -196 63l-68 -69l-61 60l73 74c-29 49 -44 111 -44 182c0 194 133 434 396 434c81 0 147 -22 197 -63l68 69zM231 293c0 -17 1 -33 4 -47l300 302c-22 23 -53 35 -91 35
c-143 0 -213 -172 -213 -290zM577 419c0 17 -2 33 -4 47l-300 -303c22 -22 52 -34 90 -34c144 0 214 173 214 290z" />
    <glyph glyph-name="Otilde" unicode="&#xd5;" horiz-adv-x="757" 
d="M624 911h90c-26 -88 -79 -143 -151 -143c-67 0 -89 43 -131 43c-27 0 -43 -15 -53 -43h-91c25 88 78 143 151 143c67 0 90 -43 131 -43c27 0 43 14 54 43zM454 728c188 0 296 -120 296 -309c0 -195 -133 -435 -396 -435c-189 0 -296 121 -296 310c0 194 133 434 396 434z
M444 578c-141 0 -209 -168 -209 -285c0 -100 45 -159 128 -159c142 0 210 169 210 285c0 100 -45 159 -129 159z" />
    <glyph glyph-name="OE" unicode="&#x152;" horiz-adv-x="1021" 
d="M1045 567h-331l-33 -135h307l-36 -143h-308l-35 -144h338l-36 -145h-526c-215 0 -326 109 -326 308c0 184 130 404 436 404h586zM544 567h-59c-180 0 -246 -141 -246 -249c0 -114 54 -173 161 -173h39z" />
    <glyph glyph-name="Thorn" unicode="&#xde;" horiz-adv-x="654" 
d="M335 599h68c175 0 256 -79 256 -208c0 -117 -85 -265 -300 -265h-142l-31 -126h-173l177 712h174zM300 460l-48 -195h104c92 0 124 57 124 106c0 56 -31 89 -102 89h-78z" />
    <glyph glyph-name="Racute" unicode="&#x154;" horiz-adv-x="685" 
d="M479 760h-135l110 151h197zM190 712h276c156 0 227 -62 227 -170c0 -90 -58 -186 -183 -217v-2c43 -18 62 -51 75 -139l26 -184h-178l-19 161c-9 73 -32 99 -99 99h-65l-64 -260h-173zM330 578l-47 -187h105c95 0 125 61 125 106c0 56 -33 81 -92 81h-91z" />
    <glyph glyph-name="Rcaron" unicode="&#x158;" horiz-adv-x="685" 
d="M517 760h-155l-83 151h124l42 -79l78 79h153zM190 712h276c156 0 227 -62 227 -170c0 -90 -58 -186 -183 -217v-2c43 -18 62 -51 75 -139l26 -184h-178l-19 161c-9 73 -32 99 -99 99h-65l-64 -260h-173zM330 578l-47 -187h105c95 0 125 61 125 106c0 56 -33 81 -92 81
h-91z" />
    <glyph glyph-name="Rcommaaccent" unicode="&#x156;" horiz-adv-x="685" 
d="M190 712h276c156 0 227 -62 227 -170c0 -90 -58 -186 -183 -217v-2c43 -18 62 -51 75 -139l26 -184h-178l-19 161c-9 73 -32 99 -99 99h-65l-64 -260h-173zM330 578l-47 -187h105c95 0 125 61 125 106c0 56 -33 81 -92 81h-91zM333 -166l-98 -109h-63l73 109h-46l28 112
h134z" />
    <glyph glyph-name="Sacute" unicode="&#x15a;" horiz-adv-x="645" 
d="M460 760h-135l110 151h197zM407 728c165 0 254 -61 254 -182c0 -16 -3 -33 -7 -51h-180c2 9 3 18 3 25c0 47 -31 74 -93 74c-61 0 -101 -33 -101 -73c0 -42 35 -60 119 -87c105 -34 199 -74 199 -206c0 -111 -102 -244 -316 -244c-173 0 -272 69 -272 195c0 17 1 34 6 53
h184c-3 -11 -4 -22 -4 -31c0 -52 35 -79 107 -79c75 0 109 42 109 79c0 49 -37 64 -112 91c-105 36 -202 72 -202 201c0 107 100 235 306 235z" />
    <glyph glyph-name="Scaron" unicode="&#x160;" horiz-adv-x="645" 
d="M498 760h-155l-83 151h124l42 -79l78 79h153zM407 728c165 0 254 -61 254 -182c0 -16 -3 -33 -7 -51h-180c2 9 3 18 3 25c0 47 -31 74 -93 74c-61 0 -101 -33 -101 -73c0 -42 35 -60 119 -87c105 -34 199 -74 199 -206c0 -111 -102 -244 -316 -244
c-173 0 -272 69 -272 195c0 17 1 34 6 53h184c-3 -11 -4 -22 -4 -31c0 -52 35 -79 107 -79c75 0 109 42 109 79c0 49 -37 64 -112 91c-105 36 -202 72 -202 201c0 107 100 235 306 235z" />
    <glyph glyph-name="Scedilla" unicode="&#x15e;" horiz-adv-x="645" 
d="M654 495h-180c2 9 3 18 3 25c0 47 -31 74 -93 74c-61 0 -101 -33 -101 -73c0 -42 35 -60 119 -87c105 -34 199 -74 199 -206c0 -107 -95 -235 -295 -244l-38 -43c6 2 14 3 22 3c45 0 74 -26 74 -71c0 -60 -63 -105 -146 -105c-42 0 -82 11 -113 32l30 53
c27 -15 54 -22 80 -22c31 0 51 14 51 35c0 18 -12 29 -35 29c-11 0 -23 -2 -33 -6l-26 24l64 73c-143 12 -223 79 -223 193c0 17 1 34 6 53h184c-3 -11 -4 -22 -4 -31c0 -52 35 -79 107 -79c75 0 109 42 109 79c0 49 -37 64 -112 91c-105 36 -202 72 -202 201
c0 107 100 235 306 235c165 0 254 -61 254 -182c0 -16 -3 -33 -7 -51z" />
    <glyph glyph-name="Scircumflex" unicode="&#x15c;" horiz-adv-x="645" 
d="M380 911h156l83 -151h-125l-41 79l-79 -79h-152zM407 728c165 0 254 -61 254 -182c0 -16 -3 -33 -7 -51h-180c2 9 3 18 3 25c0 47 -31 74 -93 74c-61 0 -101 -33 -101 -73c0 -42 35 -60 119 -87c105 -34 199 -74 199 -206c0 -111 -102 -244 -316 -244
c-173 0 -272 69 -272 195c0 17 1 34 6 53h184c-3 -11 -4 -22 -4 -31c0 -52 35 -79 107 -79c75 0 109 42 109 79c0 49 -37 64 -112 91c-105 36 -202 72 -202 201c0 107 100 235 306 235z" />
    <glyph glyph-name="Scommaaccent" unicode="&#x218;" horiz-adv-x="645" 
d="M407 728c165 0 254 -61 254 -182c0 -16 -3 -33 -7 -51h-180c2 9 3 18 3 25c0 47 -31 74 -93 74c-61 0 -101 -33 -101 -73c0 -42 35 -60 119 -87c105 -34 199 -74 199 -206c0 -111 -102 -244 -316 -244c-173 0 -272 69 -272 195c0 17 1 34 6 53h184c-3 -11 -4 -22 -4 -31
c0 -52 35 -79 107 -79c75 0 109 42 109 79c0 49 -37 64 -112 91c-105 36 -202 72 -202 201c0 107 100 235 306 235zM299 -166l-98 -109h-63l73 109h-46l28 112h134z" />
    <glyph glyph-name="Germandbls" unicode="&#x1e9e;" horiz-adv-x="814" 
d="M807 580l-183 -162c92 -36 143 -101 143 -197c0 -112 -93 -236 -287 -236c-139 0 -212 51 -212 155c0 18 2 37 7 58h156c-2 -9 -3 -16 -3 -23c0 -36 22 -54 67 -54c68 0 95 48 95 89c0 68 -58 102 -165 110l29 116l138 121c-22 20 -55 31 -98 31
c-112 0 -187 -61 -217 -182l-101 -406h-173l104 417c51 204 193 310 410 310c139 0 241 -59 290 -147z" />
    <glyph glyph-name="Tbar" unicode="&#x166;" horiz-adv-x="627" 
d="M478 565l-43 -173h131l-28 -114h-132l-69 -278h-173l69 278h-132l28 114h132l43 173h-217l36 147h609l-37 -147h-217z" />
    <glyph glyph-name="Tcaron" unicode="&#x164;" horiz-adv-x="627" 
d="M504 760h-155l-83 151h124l42 -79l78 79h153zM695 565h-217l-141 -565h-173l140 565h-217l36 147h609z" />
    <glyph glyph-name="Tcedilla" unicode="&#x162;" horiz-adv-x="627" 
d="M695 565h-217l-141 -565h-173l140 565h-217l36 147h609zM281 -166l-98 -109h-63l73 109h-46l28 112h134z" />
    <glyph glyph-name="Tcommaaccent" unicode="&#x21a;" horiz-adv-x="627" 
d="M695 565h-217l-141 -565h-173l140 565h-217l36 147h609zM281 -166l-98 -109h-63l73 109h-46l28 112h134z" />
    <glyph glyph-name="Uacute" unicode="&#xda;" horiz-adv-x="725" 
d="M517 760h-135l110 151h197zM769 712l-119 -478c-40 -161 -157 -250 -324 -250c-163 0 -254 86 -254 236c0 29 4 61 13 97l99 395h173l-105 -421c-5 -21 -8 -40 -8 -57c0 -64 34 -98 97 -98c72 0 123 46 144 133l111 443h173z" />
    <glyph glyph-name="Ubreve" unicode="&#x16c;" horiz-adv-x="725" 
d="M577 911h117c-27 -98 -104 -154 -211 -154c-95 0 -148 45 -148 123c0 10 1 20 3 31h95c-1 -5 -1 -8 -1 -12c0 -30 21 -46 60 -46c44 0 74 21 85 58zM769 712l-119 -478c-40 -161 -157 -250 -324 -250c-163 0 -254 86 -254 236c0 29 4 61 13 97l99 395h173l-105 -421
c-5 -21 -8 -40 -8 -57c0 -64 34 -98 97 -98c72 0 123 46 144 133l111 443h173z" />
    <glyph glyph-name="Ucircumflex" unicode="&#xdb;" horiz-adv-x="725" 
d="M437 911h156l83 -151h-125l-41 79l-79 -79h-152zM769 712l-119 -478c-40 -161 -157 -250 -324 -250c-163 0 -254 86 -254 236c0 29 4 61 13 97l99 395h173l-105 -421c-5 -21 -8 -40 -8 -57c0 -64 34 -98 97 -98c72 0 123 46 144 133l111 443h173z" />
    <glyph glyph-name="Udieresis" unicode="&#xdc;" horiz-adv-x="725" 
d="M438 769h-143l33 131h142zM664 769h-142l32 131h143zM769 712l-119 -478c-40 -161 -157 -250 -324 -250c-163 0 -254 86 -254 236c0 29 4 61 13 97l99 395h173l-105 -421c-5 -21 -8 -40 -8 -57c0 -64 34 -98 97 -98c72 0 123 46 144 133l111 443h173z" />
    <glyph glyph-name="Ugrave" unicode="&#xd9;" horiz-adv-x="725" 
d="M574 760h-121l-110 151h184zM769 712l-119 -478c-40 -161 -157 -250 -324 -250c-163 0 -254 86 -254 236c0 29 4 61 13 97l99 395h173l-105 -421c-5 -21 -8 -40 -8 -57c0 -64 34 -98 97 -98c72 0 123 46 144 133l111 443h173z" />
    <glyph glyph-name="Uhungarumlaut" unicode="&#x170;" horiz-adv-x="725" 
d="M408 760h-130l130 151h172zM613 760h-130l130 151h173zM769 712l-119 -478c-40 -161 -157 -250 -324 -250c-163 0 -254 86 -254 236c0 29 4 61 13 97l99 395h173l-105 -421c-5 -21 -8 -40 -8 -57c0 -64 34 -98 97 -98c72 0 123 46 144 133l111 443h173z" />
    <glyph glyph-name="Umacron" unicode="&#x16a;" horiz-adv-x="725" 
d="M662 776h-360l26 103h359zM769 712l-119 -478c-40 -161 -157 -250 -324 -250c-163 0 -254 86 -254 236c0 29 4 61 13 97l99 395h173l-105 -421c-5 -21 -8 -40 -8 -57c0 -64 34 -98 97 -98c72 0 123 46 144 133l111 443h173z" />
    <glyph glyph-name="Uogonek" unicode="&#x172;" horiz-adv-x="725" 
d="M769 712l-119 -478c-22 -87 -66 -151 -127 -196c-96 -69 -117 -96 -117 -127c0 -13 8 -20 26 -20c12 0 25 3 36 7l-22 -86c-23 -7 -53 -11 -84 -11c-76 0 -112 28 -112 78c0 39 25 72 79 103v2h-6c-161 0 -251 83 -251 236c0 29 4 61 13 97l99 395h173l-105 -421
c-5 -21 -8 -40 -8 -57c0 -64 34 -98 97 -98c72 0 123 46 144 133l111 443h173z" />
    <glyph glyph-name="Uring" unicode="&#x16e;" horiz-adv-x="725" 
d="M495 979c63 0 113 -51 113 -114c0 -62 -50 -113 -113 -113s-114 51 -114 113c0 63 51 114 114 114zM495 921c-31 0 -56 -25 -56 -56s25 -56 56 -56s56 25 56 56s-25 56 -56 56zM769 712l-119 -478c-40 -161 -157 -250 -324 -250c-163 0 -254 86 -254 236c0 29 4 61 13 97
l99 395h173l-105 -421c-5 -21 -8 -40 -8 -57c0 -64 34 -98 97 -98c72 0 123 46 144 133l111 443h173z" />
    <glyph glyph-name="Utilde" unicode="&#x168;" horiz-adv-x="725" 
d="M621 911h90c-26 -88 -79 -143 -151 -143c-67 0 -89 43 -131 43c-27 0 -43 -15 -53 -43h-91c25 88 78 143 151 143c67 0 90 -43 131 -43c27 0 43 14 54 43zM769 712l-119 -478c-40 -161 -157 -250 -324 -250c-163 0 -254 86 -254 236c0 29 4 61 13 97l99 395h173
l-105 -421c-5 -21 -8 -40 -8 -57c0 -64 34 -98 97 -98c72 0 123 46 144 133l111 443h173z" />
    <glyph glyph-name="Wacute" unicode="&#x1e82;" horiz-adv-x="991" 
d="M653 760h-135l110 151h197zM776 0h-231l11 285c3 95 9 191 18 286h-2c-37 -95 -79 -191 -123 -286l-131 -285h-229l33 712h161l-17 -257c-6 -98 -15 -199 -27 -298h2c40 99 84 199 130 298l120 257h221l-7 -257c-3 -99 -9 -199 -18 -298h2c37 99 78 200 121 298l111 257
h176z" />
    <glyph glyph-name="Wcircumflex" unicode="&#x174;" horiz-adv-x="991" 
d="M573 911h156l83 -151h-125l-41 79l-79 -79h-152zM776 0h-231l11 285c3 95 9 191 18 286h-2c-37 -95 -79 -191 -123 -286l-131 -285h-229l33 712h161l-17 -257c-6 -98 -15 -199 -27 -298h2c40 99 84 199 130 298l120 257h221l-7 -257c-3 -99 -9 -199 -18 -298h2
c37 99 78 200 121 298l111 257h176z" />
    <glyph glyph-name="Wdieresis" unicode="&#x1e84;" horiz-adv-x="991" 
d="M574 769h-143l33 131h142zM800 769h-142l32 131h143zM776 0h-231l11 285c3 95 9 191 18 286h-2c-37 -95 -79 -191 -123 -286l-131 -285h-229l33 712h161l-17 -257c-6 -98 -15 -199 -27 -298h2c40 99 84 199 130 298l120 257h221l-7 -257c-3 -99 -9 -199 -18 -298h2
c37 99 78 200 121 298l111 257h176z" />
    <glyph glyph-name="Wgrave" unicode="&#x1e80;" horiz-adv-x="991" 
d="M709 760h-121l-110 151h184zM776 0h-231l11 285c3 95 9 191 18 286h-2c-37 -95 -79 -191 -123 -286l-131 -285h-229l33 712h161l-17 -257c-6 -98 -15 -199 -27 -298h2c40 99 84 199 130 298l120 257h221l-7 -257c-3 -99 -9 -199 -18 -298h2c37 99 78 200 121 298l111 257
h176z" />
    <glyph glyph-name="Yacute" unicode="&#xdd;" horiz-adv-x="663" 
d="M469 760h-135l110 151h197zM422 269l-67 -269h-173l67 269l-134 443h175l30 -129c13 -58 24 -119 33 -179h2c35 60 75 121 117 179l94 129h210z" />
    <glyph glyph-name="Ycircumflex" unicode="&#x176;" horiz-adv-x="663" 
d="M389 911h156l83 -151h-125l-41 79l-79 -79h-152zM422 269l-67 -269h-173l67 269l-134 443h175l30 -129c13 -58 24 -119 33 -179h2c35 60 75 121 117 179l94 129h210z" />
    <glyph glyph-name="Ydieresis" unicode="&#x178;" horiz-adv-x="663" 
d="M390 769h-143l33 131h142zM616 769h-142l32 131h143zM422 269l-67 -269h-173l67 269l-134 443h175l30 -129c13 -58 24 -119 33 -179h2c35 60 75 121 117 179l94 129h210z" />
    <glyph glyph-name="Ygrave" unicode="&#x1ef2;" horiz-adv-x="663" 
d="M526 760h-121l-110 151h184zM422 269l-67 -269h-173l67 269l-134 443h175l30 -129c13 -58 24 -119 33 -179h2c35 60 75 121 117 179l94 129h210z" />
    <glyph glyph-name="Zacute" unicode="&#x179;" horiz-adv-x="593" 
d="M451 760h-135l110 151h197zM630 552l-422 -406v-2h337l-36 -144h-552l40 160l422 406v2h-306l36 144h521z" />
    <glyph glyph-name="Zcaron" unicode="&#x17d;" horiz-adv-x="593" 
d="M489 760h-155l-83 151h124l42 -79l78 79h153zM630 552l-422 -406v-2h337l-36 -144h-552l40 160l422 406v2h-306l36 144h521z" />
    <glyph glyph-name="Zdotaccent" unicode="&#x17b;" horiz-adv-x="593" 
d="M497 769h-166l33 131h166zM630 552l-422 -406v-2h337l-36 -144h-552l40 160l422 406v2h-306l36 144h521z" />
    <glyph glyph-name="J.acute.loclNLD" horiz-adv-x="410" 
d="M421 768h-135l109 148h197zM453 712l-122 -489c-39 -159 -131 -231 -293 -231c-32 0 -63 4 -86 11l36 142c12 -3 29 -5 40 -5c77 0 117 29 146 145l106 427h173z" />
    <glyph glyph-name="Ccedilla.ss01" horiz-adv-x="715" 
d="M458 728c163 0 266 -93 266 -243c0 -13 0 -29 -3 -44h-179c1 9 2 17 2 28c0 68 -38 109 -103 109c-137 0 -207 -171 -207 -293c0 -89 38 -151 115 -151c64 0 123 41 150 112h182c-52 -167 -182 -262 -348 -262c-178 0 -279 112 -279 289c0 201 129 455 404 455zM263 -217
h-182l175 168h140z" />
    <glyph glyph-name="Scedilla.ss01" horiz-adv-x="645" 
d="M407 728c165 0 254 -61 254 -182c0 -16 -3 -33 -7 -51h-180c2 9 3 18 3 25c0 47 -31 74 -93 74c-61 0 -101 -33 -101 -73c0 -42 35 -60 119 -87c105 -34 199 -74 199 -206c0 -111 -102 -244 -316 -244c-173 0 -272 69 -272 195c0 17 1 34 6 53h184c-3 -11 -4 -22 -4 -31
c0 -52 35 -79 107 -79c75 0 109 42 109 79c0 49 -37 64 -112 91c-105 36 -202 72 -202 201c0 107 100 235 306 235zM213 -217h-182l175 168h140z" />
    <glyph glyph-name="Tcedilla.ss01" horiz-adv-x="627" 
d="M695 565h-217l-141 -565h-173l140 565h-217l36 147h609zM195 -217h-182l175 168h140z" />
    <glyph glyph-name="aacute" unicode="&#xe1;" horiz-adv-x="561" 
d="M376 564h-135l109 148h197zM318 524c141 0 208 -56 208 -161c0 -21 -3 -44 -9 -68l-38 -152c-17 -67 -22 -107 -21 -143h-147c0 17 2 37 7 57h-2c-49 -47 -107 -70 -170 -70c-100 0 -152 56 -152 137c0 77 51 157 238 184c41 5 98 11 131 13l2 11c3 11 5 21 5 30
c0 40 -24 57 -62 57c-42 0 -72 -25 -82 -71h-159c20 96 106 176 251 176zM333 201l7 29c-26 -1 -64 -6 -93 -11c-65 -11 -85 -40 -85 -73c0 -30 20 -49 57 -49c60 0 98 39 114 104z" />
    <glyph glyph-name="abreve" unicode="&#x103;" horiz-adv-x="561" 
d="M434 712h117c-27 -98 -104 -154 -211 -154c-95 0 -148 45 -148 123c0 10 1 20 3 31h95c-1 -5 -1 -8 -1 -12c0 -30 21 -46 60 -46c44 0 74 21 85 58zM318 524c141 0 208 -56 208 -161c0 -21 -3 -44 -9 -68l-38 -152c-17 -67 -22 -107 -21 -143h-147c0 17 2 37 7 57h-2
c-49 -47 -107 -70 -170 -70c-100 0 -152 56 -152 137c0 77 51 157 238 184c41 5 98 11 131 13l2 11c3 11 5 21 5 30c0 40 -24 57 -62 57c-42 0 -72 -25 -82 -71h-159c20 96 106 176 251 176zM333 201l7 29c-26 -1 -64 -6 -93 -11c-65 -11 -85 -40 -85 -73
c0 -30 20 -49 57 -49c60 0 98 39 114 104z" />
    <glyph glyph-name="acircumflex" unicode="&#xe2;" horiz-adv-x="561" 
d="M533 564h-127l-40 76l-76 -76h-150l155 148h156zM318 524c141 0 208 -56 208 -161c0 -21 -3 -44 -9 -68l-38 -152c-17 -67 -22 -107 -21 -143h-147c0 17 2 37 7 57h-2c-49 -47 -107 -70 -170 -70c-100 0 -152 56 -152 137c0 77 51 157 238 184c41 5 98 11 131 13l2 11
c3 11 5 21 5 30c0 40 -24 57 -62 57c-42 0 -72 -25 -82 -71h-159c20 96 106 176 251 176zM333 201l7 29c-26 -1 -64 -6 -93 -11c-65 -11 -85 -40 -85 -73c0 -30 20 -49 57 -49c60 0 98 39 114 104z" />
    <glyph glyph-name="adieresis" unicode="&#xe4;" horiz-adv-x="561" 
d="M299 581h-143l33 131h142zM525 581h-142l32 131h143zM318 524c141 0 208 -56 208 -161c0 -21 -3 -44 -9 -68l-38 -152c-17 -67 -22 -107 -21 -143h-147c0 17 2 37 7 57h-2c-49 -47 -107 -70 -170 -70c-100 0 -152 56 -152 137c0 77 51 157 238 184c41 5 98 11 131 13
l2 11c3 11 5 21 5 30c0 40 -24 57 -62 57c-42 0 -72 -25 -82 -71h-159c20 96 106 176 251 176zM333 201l7 29c-26 -1 -64 -6 -93 -11c-65 -11 -85 -40 -85 -73c0 -30 20 -49 57 -49c60 0 98 39 114 104z" />
    <glyph glyph-name="agrave" unicode="&#xe0;" horiz-adv-x="561" 
d="M384 712l48 -148h-121l-111 148h184zM318 524c141 0 208 -56 208 -161c0 -21 -3 -44 -9 -68l-38 -152c-17 -67 -22 -107 -21 -143h-147c0 17 2 37 7 57h-2c-49 -47 -107 -70 -170 -70c-100 0 -152 56 -152 137c0 77 51 157 238 184c41 5 98 11 131 13l2 11
c3 11 5 21 5 30c0 40 -24 57 -62 57c-42 0 -72 -25 -82 -71h-159c20 96 106 176 251 176zM333 201l7 29c-26 -1 -64 -6 -93 -11c-65 -11 -85 -40 -85 -73c0 -30 20 -49 57 -49c60 0 98 39 114 104z" />
    <glyph glyph-name="amacron" unicode="&#x101;" horiz-adv-x="561" 
d="M523 589h-360l26 103h359zM318 524c141 0 208 -56 208 -161c0 -21 -3 -44 -9 -68l-38 -152c-17 -67 -22 -107 -21 -143h-147c0 17 2 37 7 57h-2c-49 -47 -107 -70 -170 -70c-100 0 -152 56 -152 137c0 77 51 157 238 184c41 5 98 11 131 13l2 11c3 11 5 21 5 30
c0 40 -24 57 -62 57c-42 0 -72 -25 -82 -71h-159c20 96 106 176 251 176zM333 201l7 29c-26 -1 -64 -6 -93 -11c-65 -11 -85 -40 -85 -73c0 -30 20 -49 57 -49c60 0 98 39 114 104z" />
    <glyph glyph-name="aogonek" unicode="&#x105;" horiz-adv-x="561" 
d="M318 524c141 0 208 -56 208 -161c0 -21 -3 -44 -9 -68l-38 -152c-17 -67 -22 -107 -21 -143c-71 -40 -85 -66 -85 -89c0 -13 8 -20 26 -20c12 0 25 3 36 7l-22 -86c-23 -7 -53 -11 -84 -11c-76 0 -112 28 -112 78c0 47 36 84 112 121h-18c0 17 2 37 7 57h-2
c-49 -47 -107 -70 -170 -70c-100 0 -152 56 -152 137c0 77 51 157 238 184c41 5 98 11 131 13l2 11c3 11 5 21 5 30c0 40 -24 57 -62 57c-42 0 -72 -25 -82 -71h-159c20 96 106 176 251 176zM219 97c60 0 98 39 114 104l7 29c-26 -1 -64 -6 -93 -11c-65 -11 -85 -40 -85 -73
c0 -30 20 -49 57 -49z" />
    <glyph glyph-name="aring" unicode="&#xe5;" horiz-adv-x="561" 
d="M352 780c63 0 113 -51 113 -114c0 -62 -50 -113 -113 -113s-114 51 -114 113c0 63 51 114 114 114zM352 722c-31 0 -56 -25 -56 -56s25 -56 56 -56s56 25 56 56s-25 56 -56 56zM318 524c141 0 208 -56 208 -161c0 -21 -3 -44 -9 -68l-38 -152c-17 -67 -22 -107 -21 -143
h-147c0 17 2 37 7 57h-2c-49 -47 -107 -70 -170 -70c-100 0 -152 56 -152 137c0 77 51 157 238 184c41 5 98 11 131 13l2 11c3 11 5 21 5 30c0 40 -24 57 -62 57c-42 0 -72 -25 -82 -71h-159c20 96 106 176 251 176zM333 201l7 29c-26 -1 -64 -6 -93 -11
c-65 -11 -85 -40 -85 -73c0 -30 20 -49 57 -49c60 0 98 39 114 104z" />
    <glyph glyph-name="atilde" unicode="&#xe3;" horiz-adv-x="561" 
d="M478 712h90c-26 -88 -79 -143 -151 -143c-67 0 -88 43 -130 43c-27 0 -43 -15 -54 -43h-90c25 88 78 143 151 143c67 0 89 -43 130 -43c27 0 43 14 54 43zM318 524c141 0 208 -56 208 -161c0 -21 -3 -44 -9 -68l-38 -152c-17 -67 -22 -107 -21 -143h-147c0 17 2 37 7 57
h-2c-49 -47 -107 -70 -170 -70c-100 0 -152 56 -152 137c0 77 51 157 238 184c41 5 98 11 131 13l2 11c3 11 5 21 5 30c0 40 -24 57 -62 57c-42 0 -72 -25 -82 -71h-159c20 96 106 176 251 176zM333 201l7 29c-26 -1 -64 -6 -93 -11c-65 -11 -85 -40 -85 -73
c0 -30 20 -49 57 -49c60 0 98 39 114 104z" />
    <glyph glyph-name="ae" unicode="&#xe6;" horiz-adv-x="895" 
d="M856 220h-352c-3 -14 -4 -27 -4 -39c0 -63 33 -86 76 -86c42 0 76 26 87 61h170c-40 -96 -142 -172 -264 -172c-87 0 -146 34 -179 91c-53 -62 -123 -91 -203 -91c-128 0 -192 60 -192 145c0 93 71 183 307 183h69l4 16c2 12 4 22 4 31c0 42 -23 60 -67 60
s-76 -25 -86 -71h-160c23 96 107 176 251 176c78 0 132 -19 164 -56c43 34 98 56 165 56c146 0 222 -86 222 -216c0 -23 -3 -50 -12 -88zM638 415c-44 0 -86 -28 -111 -101h186c1 8 1 15 1 22c0 55 -32 79 -76 79zM349 224h-57c-109 0 -131 -42 -131 -79
c0 -32 20 -53 63 -53c65 0 102 40 121 116z" />
    <glyph glyph-name="cacute" unicode="&#x107;" horiz-adv-x="575" 
d="M392 564h-135l109 148h197zM337 524c141 0 225 -76 225 -193c0 -9 -1 -18 -3 -27h-172c1 5 2 12 2 18c0 49 -24 77 -63 77c-84 0 -127 -123 -127 -190c0 -64 25 -99 70 -99c42 0 80 31 95 84h173c-40 -128 -149 -210 -279 -210c-145 0 -229 86 -229 228
c0 135 102 312 308 312z" />
    <glyph glyph-name="ccaron" unicode="&#x10d;" horiz-adv-x="575" 
d="M430 564h-156l-81 148h127l40 -76l75 76h150zM337 524c141 0 225 -76 225 -193c0 -9 -1 -18 -3 -27h-172c1 5 2 12 2 18c0 49 -24 77 -63 77c-84 0 -127 -123 -127 -190c0 -64 25 -99 70 -99c42 0 80 31 95 84h173c-40 -128 -149 -210 -279 -210c-145 0 -229 86 -229 228
c0 135 102 312 308 312z" />
    <glyph glyph-name="ccedilla" unicode="&#xe7;" horiz-adv-x="575" 
d="M559 304h-172c1 5 2 12 2 18c0 49 -24 77 -63 77c-84 0 -127 -123 -127 -190c0 -64 25 -99 70 -99c42 0 80 31 95 84h173c-37 -119 -135 -199 -253 -209l-38 -44c6 2 14 3 22 3c45 0 74 -26 74 -71c0 -60 -63 -105 -146 -105c-42 0 -82 11 -113 32l30 53
c27 -15 54 -22 80 -22c31 0 51 14 51 35c0 18 -12 29 -35 29c-11 0 -23 -2 -33 -6l-26 24l64 74c-118 16 -185 98 -185 225c0 135 102 312 308 312c141 0 225 -76 225 -193c0 -9 -1 -18 -3 -27z" />
    <glyph glyph-name="ccircumflex" unicode="&#x109;" horiz-adv-x="575" 
d="M549 564h-127l-40 76l-76 -76h-150l155 148h156zM337 524c141 0 225 -76 225 -193c0 -9 -1 -18 -3 -27h-172c1 5 2 12 2 18c0 49 -24 77 -63 77c-84 0 -127 -123 -127 -190c0 -64 25 -99 70 -99c42 0 80 31 95 84h173c-40 -128 -149 -210 -279 -210
c-145 0 -229 86 -229 228c0 135 102 312 308 312z" />
    <glyph glyph-name="cdotaccent" unicode="&#x10b;" horiz-adv-x="575" 
d="M440 581h-166l33 131h166zM337 524c141 0 225 -76 225 -193c0 -9 -1 -18 -3 -27h-172c1 5 2 12 2 18c0 49 -24 77 -63 77c-84 0 -127 -123 -127 -190c0 -64 25 -99 70 -99c42 0 80 31 95 84h173c-40 -128 -149 -210 -279 -210c-145 0 -229 86 -229 228
c0 135 102 312 308 312z" />
    <glyph glyph-name="eth" unicode="&#xf0;" horiz-adv-x="598" 
d="M577 656l-106 -37c64 -85 103 -186 103 -291c0 -157 -103 -344 -316 -344c-146 0 -230 86 -231 225c1 126 96 294 279 294c26 0 49 -4 66 -10l1 2c-14 24 -32 49 -51 73l-142 -49l-24 68l113 39c-14 14 -28 28 -42 40l140 62c19 -16 37 -32 54 -50l133 46zM271 107
c86 0 130 122 130 191c0 63 -26 99 -75 99c-85 0 -126 -125 -126 -196c0 -59 24 -94 71 -94z" />
    <glyph glyph-name="dcaron" unicode="&#x10f;" 
d="M484 0h-160l11 43h-2c-39 -37 -90 -57 -136 -57c-111 0 -174 76 -174 200c0 144 98 336 280 336c56 0 104 -25 126 -73h2l64 263h166zM740 534h-94l68 178h130zM324 396c-81 0 -125 -108 -125 -186c0 -61 24 -98 70 -98c81 0 125 108 125 186c0 61 -24 98 -70 98z" />
    <glyph glyph-name="dcroat" unicode="&#x111;" horiz-adv-x="604" 
d="M694 572h-68l-142 -572h-160l11 43h-2c-39 -37 -90 -57 -136 -57c-111 0 -174 76 -174 200c0 144 98 336 280 336c56 0 104 -25 126 -73h2l30 123h-127l20 78h126l15 62h166l-15 -62h67zM269 112c81 0 125 108 125 186c0 61 -24 98 -70 98c-81 0 -125 -108 -125 -186
c0 -61 24 -98 70 -98z" />
    <glyph glyph-name="eacute" unicode="&#xe9;" horiz-adv-x="584" 
d="M388 564h-135l109 148h197zM328 524c150 0 229 -86 229 -216c0 -23 -3 -50 -12 -88h-359c-3 -14 -4 -27 -4 -39c0 -63 35 -86 79 -86s79 26 91 61h170c-40 -96 -142 -172 -264 -172c-155 0 -230 90 -230 225s99 315 300 315zM323 415c-46 0 -88 -28 -114 -101h192
c1 8 2 15 2 22c0 55 -33 79 -80 79z" />
    <glyph glyph-name="ebreve" unicode="&#x115;" horiz-adv-x="584" 
d="M352 558c-95 0 -148 45 -148 123c0 10 1 20 3 31h95c-1 -5 -1 -8 -1 -12c0 -30 21 -46 60 -46c44 0 74 21 85 58h117c-27 -98 -104 -154 -211 -154zM328 524c150 0 229 -86 229 -216c0 -23 -3 -50 -12 -88h-359c-3 -14 -4 -27 -4 -39c0 -63 35 -86 79 -86s79 26 91 61
h170c-40 -96 -142 -172 -264 -172c-155 0 -230 90 -230 225s99 315 300 315zM323 415c-46 0 -88 -28 -114 -101h192c1 8 2 15 2 22c0 55 -33 79 -80 79z" />
    <glyph glyph-name="ecaron" unicode="&#x11b;" horiz-adv-x="584" 
d="M270 564l-81 148h127l40 -76l75 76h150l-155 -148h-156zM328 524c150 0 229 -86 229 -216c0 -23 -3 -50 -12 -88h-359c-3 -14 -4 -27 -4 -39c0 -63 35 -86 79 -86s79 26 91 61h170c-40 -96 -142 -172 -264 -172c-155 0 -230 90 -230 225s99 315 300 315zM323 415
c-46 0 -88 -28 -114 -101h192c1 8 2 15 2 22c0 55 -33 79 -80 79z" />
    <glyph glyph-name="ecircumflex" unicode="&#xea;" horiz-adv-x="584" 
d="M302 564h-150l155 148h156l82 -148h-127l-40 76zM545 220h-359c-3 -14 -4 -27 -4 -39c0 -63 35 -86 79 -86s79 26 91 61h170c-40 -96 -142 -172 -264 -172c-155 0 -230 90 -230 225s99 315 300 315c150 0 229 -86 229 -216c0 -23 -3 -50 -12 -88zM323 415
c-46 0 -88 -28 -114 -101h192c1 8 2 15 2 22c0 55 -33 79 -80 79z" />
    <glyph glyph-name="edieresis" unicode="&#xeb;" horiz-adv-x="584" 
d="M311 581h-143l33 131h142zM537 581h-142l32 131h143zM328 524c150 0 229 -86 229 -216c0 -23 -3 -50 -12 -88h-359c-3 -14 -4 -27 -4 -39c0 -63 35 -86 79 -86s79 26 91 61h170c-40 -96 -142 -172 -264 -172c-155 0 -230 90 -230 225s99 315 300 315zM323 415
c-46 0 -88 -28 -114 -101h192c1 8 2 15 2 22c0 55 -33 79 -80 79z" />
    <glyph glyph-name="edotaccent" unicode="&#x117;" horiz-adv-x="584" 
d="M436 581h-166l33 131h166zM545 220h-359c-3 -14 -4 -27 -4 -39c0 -63 35 -86 79 -86s79 26 91 61h170c-40 -96 -142 -172 -264 -172c-155 0 -230 90 -230 225s99 315 300 315c150 0 229 -86 229 -216c0 -23 -3 -50 -12 -88zM323 415c-46 0 -88 -28 -114 -101h192
c1 8 2 15 2 22c0 55 -33 79 -80 79z" />
    <glyph glyph-name="egrave" unicode="&#xe8;" horiz-adv-x="584" 
d="M323 564l-111 148h184l48 -148h-121zM545 220h-359c-3 -14 -4 -27 -4 -39c0 -63 35 -86 79 -86s79 26 91 61h170c-40 -96 -142 -172 -264 -172c-155 0 -230 90 -230 225s99 315 300 315c150 0 229 -86 229 -216c0 -23 -3 -50 -12 -88zM323 415c-46 0 -88 -28 -114 -101
h192c1 8 2 15 2 22c0 55 -33 79 -80 79z" />
    <glyph glyph-name="emacron" unicode="&#x113;" horiz-adv-x="584" 
d="M535 589h-360l26 103h359zM328 524c150 0 229 -86 229 -216c0 -23 -3 -50 -12 -88h-359c-3 -14 -4 -27 -4 -39c0 -63 35 -86 79 -86s79 26 91 61h170c-40 -96 -142 -172 -264 -172c-155 0 -230 90 -230 225s99 315 300 315zM323 415c-46 0 -88 -28 -114 -101h192
c1 8 2 15 2 22c0 55 -33 79 -80 79z" />
    <glyph glyph-name="eogonek" unicode="&#x119;" horiz-adv-x="584" 
d="M545 220h-359c-3 -14 -4 -27 -4 -39c0 -63 35 -86 79 -86s79 26 91 61h170c-22 -52 -61 -93 -109 -131c-69 -55 -84 -83 -84 -112c0 -15 8 -22 26 -22c12 0 25 3 36 7l-22 -86c-22 -7 -51 -11 -81 -11c-76 0 -112 28 -112 78c0 40 26 72 82 103v2h-3
c-153 0 -227 90 -227 225s99 315 300 315c150 0 229 -86 229 -216c0 -23 -3 -50 -12 -88zM323 415c-46 0 -88 -28 -114 -101h192c1 8 2 15 2 22c0 55 -33 79 -80 79z" />
    <glyph glyph-name="gbreve" unicode="&#x11f;" horiz-adv-x="602" 
d="M458 712h117c-27 -98 -104 -154 -211 -154c-95 0 -148 45 -148 123c0 10 1 20 3 31h95c-1 -5 -1 -8 -1 -12c0 -30 21 -46 60 -46c44 0 74 21 85 58zM289 522c71 0 119 -38 139 -90h2l19 76h155l-126 -509c-34 -134 -141 -194 -285 -194c-142 0 -214 50 -214 137
c0 9 0 17 2 26h157c-1 -4 -1 -8 -1 -11c0 -29 23 -45 66 -45c55 0 97 25 118 106l9 37h-2c-40 -33 -82 -49 -129 -49c-108 0 -170 78 -170 207c0 130 91 309 260 309zM316 392c-75 0 -114 -100 -114 -159c0 -60 26 -96 71 -96c77 0 116 96 116 158c0 60 -27 97 -73 97z" />
    <glyph glyph-name="gcircumflex" unicode="&#x11d;" horiz-adv-x="602" 
d="M557 564h-127l-40 76l-76 -76h-150l155 148h156zM289 522c71 0 119 -38 139 -90h2l19 76h155l-126 -509c-34 -134 -141 -194 -285 -194c-142 0 -214 50 -214 137c0 9 0 17 2 26h157c-1 -4 -1 -8 -1 -11c0 -29 23 -45 66 -45c55 0 97 25 118 106l9 37h-2
c-40 -33 -82 -49 -129 -49c-108 0 -170 78 -170 207c0 130 91 309 260 309zM316 392c-75 0 -114 -100 -114 -159c0 -60 26 -96 71 -96c77 0 116 96 116 158c0 60 -27 97 -73 97z" />
    <glyph glyph-name="gcommaaccent" unicode="&#x123;" horiz-adv-x="602" 
d="M411 684h46l-27 -112h-134l27 112l98 109h63zM289 522c71 0 119 -38 139 -90h2l19 76h155l-126 -509c-34 -134 -141 -194 -285 -194c-142 0 -214 50 -214 137c0 9 0 17 2 26h157c-1 -4 -1 -8 -1 -11c0 -29 23 -45 66 -45c55 0 97 25 118 106l9 37h-2
c-40 -33 -82 -49 -129 -49c-108 0 -170 78 -170 207c0 130 91 309 260 309zM316 392c-75 0 -114 -100 -114 -159c0 -60 26 -96 71 -96c77 0 116 96 116 158c0 60 -27 97 -73 97z" />
    <glyph glyph-name="gdotaccent" unicode="&#x121;" horiz-adv-x="602" 
d="M448 581h-166l33 131h166zM289 522c71 0 119 -38 139 -90h2l19 76h155l-126 -509c-34 -134 -141 -194 -285 -194c-142 0 -214 50 -214 137c0 9 0 17 2 26h157c-1 -4 -1 -8 -1 -11c0 -29 23 -45 66 -45c55 0 97 25 118 106l9 37h-2c-40 -33 -82 -49 -129 -49
c-108 0 -170 78 -170 207c0 130 91 309 260 309zM316 392c-75 0 -114 -100 -114 -159c0 -60 26 -96 71 -96c77 0 116 96 116 158c0 60 -27 97 -73 97z" />
    <glyph glyph-name="hbar" unicode="&#x127;" 
d="M418 521c97 0 155 -52 155 -150c0 -22 -3 -47 -10 -74l-74 -297h-166l73 292c4 18 6 33 6 46c0 36 -20 54 -56 54c-51 0 -95 -41 -116 -129l-66 -263h-166l142 572h-71l18 73h71l17 67h166l-17 -67h122l-18 -73h-122l-27 -106h2c38 34 85 55 137 55z" />
    <glyph glyph-name="hcircumflex" unicode="&#x125;" 
d="M388 911h156l83 -151h-125l-41 79l-79 -79h-152zM279 466h2c38 34 85 55 137 55c97 0 155 -52 155 -150c0 -22 -3 -47 -10 -74l-74 -297h-166l73 292c4 18 6 33 6 46c0 36 -20 54 -56 54c-51 0 -95 -41 -116 -129l-66 -263h-166l177 712h166z" />
    <glyph glyph-name="dotlessi" unicode="&#x131;" horiz-adv-x="288" 
d="M164 0h-166l126 508h166z" />
    <glyph glyph-name="iacute" unicode="&#xed;" horiz-adv-x="288" 
d="M260 564h-135l109 148h197zM164 0h-166l126 508h166z" />
    <glyph glyph-name="ibreve" unicode="&#x12d;" horiz-adv-x="288" 
d="M309 712h111c-27 -98 -97 -154 -196 -154c-85 0 -132 44 -132 119c0 12 2 24 4 35h93c-1 -5 -1 -9 -1 -14c0 -28 16 -44 48 -44c38 0 62 21 73 58zM164 0h-166l126 508h166z" />
    <glyph glyph-name="icircumflex" unicode="&#xee;" horiz-adv-x="288" 
d="M403 566h-121l-33 71l-68 -71h-140l144 146h146zM164 0h-166l126 508h166z" />
    <glyph glyph-name="idieresis" unicode="&#xef;" horiz-adv-x="288" 
d="M202 581h-133l33 131h132zM382 581h-132l32 131h133zM164 0h-166l126 508h166z" />
    <glyph glyph-name="idotaccent" horiz-adv-x="288" 
d="M308 581h-166l33 131h166zM164 0h-166l126 508h166z" />
    <glyph glyph-name="igrave" unicode="&#xec;" horiz-adv-x="288" 
d="M269 712l48 -148h-121l-111 148h184zM164 0h-166l126 508h166z" />
    <glyph glyph-name="ij" unicode="&#x133;" horiz-adv-x="577" 
d="M308 581h-166l33 131h166zM597 581h-166l33 131h166zM164 0h-166l126 508h166zM579 508l-131 -525c-30 -123 -117 -173 -218 -173c-35 0 -65 3 -89 11l28 114c6 -2 13 -3 21 -3c53 0 86 23 106 105l117 471h166z" />
    <glyph glyph-name="imacron" unicode="&#x12b;" horiz-adv-x="288" 
d="M376 589h-299l26 103h299zM164 0h-166l126 508h166z" />
    <glyph glyph-name="iogonek" unicode="&#x12f;" horiz-adv-x="288" 
d="M341 712l-33 -131h-166l33 131h166zM124 508h166l-126 -508c-71 -40 -85 -66 -85 -89c0 -13 8 -20 26 -20c12 0 25 3 36 7l-22 -86c-23 -7 -53 -11 -84 -11c-76 0 -112 28 -112 78c0 47 36 84 112 121h-37z" />
    <glyph glyph-name="itilde" unicode="&#x129;" horiz-adv-x="288" 
d="M348 712h87c-26 -88 -76 -143 -144 -143c-58 0 -78 43 -114 43c-22 0 -36 -15 -46 -43h-87c26 88 75 143 143 143c58 0 80 -43 115 -43c22 0 36 14 46 43zM164 0h-166l126 508h166z" />
    <glyph glyph-name="dotlessj" unicode="&#x237;" horiz-adv-x="289" 
d="M291 508l-131 -525c-30 -123 -117 -173 -218 -173c-35 0 -65 3 -89 11l28 114c6 -2 13 -3 21 -3c53 0 86 23 106 105l117 471h166z" />
    <glyph glyph-name="jcircumflex" unicode="&#x135;" horiz-adv-x="289" 
d="M404 566h-121l-33 71l-68 -71h-140l144 146h146zM291 508l-131 -525c-30 -123 -117 -173 -218 -173c-35 0 -65 3 -89 11l28 114c6 -2 13 -3 21 -3c53 0 86 23 106 105l117 471h166z" />
    <glyph glyph-name="kcommaaccent" unicode="&#x137;" horiz-adv-x="566" 
d="M377 259l135 -259h-183l-103 239h-2l-60 -239h-166l177 712h166l-98 -395h2l166 191h210zM163 -54h134l-28 -112l-98 -109h-63l73 109h-46z" />
    <glyph glyph-name="kgreenlandic" unicode="&#x138;" horiz-adv-x="577" 
d="M377 259l135 -259h-183l-103 239h-2l-60 -239h-166l126 508h166l-47 -191h2l166 191h210z" />
    <glyph glyph-name="lacute" unicode="&#x13a;" horiz-adv-x="288" 
d="M324 768h-135l109 148h197zM164 0h-166l177 712h166z" />
    <glyph glyph-name="lcaron" unicode="&#x13e;" horiz-adv-x="288" 
d="M164 0h-166l177 712h166zM419 534h-94l68 178h130z" />
    <glyph glyph-name="lcommaaccent" unicode="&#x13c;" horiz-adv-x="288" 
d="M164 0h-166l177 712h166zM111 -166l-98 -109h-63l73 109h-46l28 112h134z" />
    <glyph glyph-name="ldot" unicode="&#x140;" horiz-adv-x="527" 
d="M164 0h-166l177 712h166zM497 264h-176l45 184h177z" />
    <glyph glyph-name="lslash" unicode="&#x142;" horiz-adv-x="352" 
d="M376 389l-96 -49l-84 -340h-166l65 261l-95 -49l35 142l95 49l77 309h166l-57 -231l95 50z" />
    <glyph glyph-name="nacute" unicode="&#x144;" 
d="M423 564h-135l109 148h197zM418 521c97 0 155 -52 155 -150c0 -22 -3 -47 -10 -74l-74 -297h-166l73 292c4 18 6 33 6 46c0 36 -20 54 -56 54c-51 0 -95 -41 -116 -129l-66 -263h-166l127 508h154l-13 -53h2c41 40 93 66 150 66z" />
    <glyph glyph-name="napostrophe" unicode="&#x149;" horiz-adv-x="778" 
d="M283 556l-115 -152h-83l97 152h-49l38 156h151zM588 521c97 0 155 -52 155 -150c0 -22 -3 -47 -10 -74l-74 -297h-166l72 292c5 18 7 33 7 46c0 36 -20 54 -56 54c-51 0 -95 -41 -117 -129l-65 -263h-166l126 508h155l-13 -53h2c40 40 93 66 150 66z" />
    <glyph glyph-name="ncaron" unicode="&#x148;" 
d="M462 564h-156l-81 148h127l40 -76l75 76h150zM418 521c97 0 155 -52 155 -150c0 -22 -3 -47 -10 -74l-74 -297h-166l73 292c4 18 6 33 6 46c0 36 -20 54 -56 54c-51 0 -95 -41 -116 -129l-66 -263h-166l127 508h154l-13 -53h2c41 40 93 66 150 66z" />
    <glyph glyph-name="ncommaaccent" unicode="&#x146;" 
d="M418 521c97 0 155 -52 155 -150c0 -22 -3 -47 -10 -74l-74 -297h-166l73 292c4 18 6 33 6 46c0 36 -20 54 -56 54c-51 0 -95 -41 -116 -129l-66 -263h-166l127 508h154l-13 -53h2c41 40 93 66 150 66zM269 -166l-98 -109h-63l73 109h-46l28 112h134z" />
    <glyph glyph-name="eng" unicode="&#x14b;" 
d="M418 521c97 0 155 -52 155 -150c0 -22 -3 -47 -10 -74l-79 -314c-30 -123 -117 -173 -218 -173c-35 0 -65 3 -89 11l28 114c6 -2 13 -3 21 -3c53 0 85 23 106 105l64 255c4 18 6 33 6 46c0 36 -20 54 -56 54c-51 0 -95 -41 -116 -129l-66 -263h-166l127 508h154l-13 -53
h2c41 40 93 66 150 66z" />
    <glyph glyph-name="ntilde" unicode="&#xf1;" 
d="M526 712h90c-26 -88 -79 -143 -151 -143c-67 0 -88 43 -130 43c-27 0 -43 -15 -54 -43h-90c25 88 78 143 151 143c67 0 89 -43 130 -43c27 0 43 14 54 43zM418 521c97 0 155 -52 155 -150c0 -22 -3 -47 -10 -74l-74 -297h-166l73 292c4 18 6 33 6 46c0 36 -20 54 -56 54
c-51 0 -95 -41 -116 -129l-66 -263h-166l127 508h154l-13 -53h2c41 40 93 66 150 66z" />
    <glyph glyph-name="oacute" unicode="&#xf3;" horiz-adv-x="604" 
d="M398 564h-135l109 148h197zM332 524c156 0 243 -87 243 -231c0 -135 -102 -309 -305 -309c-154 0 -241 87 -241 231c0 135 102 309 303 309zM325 398c-88 0 -124 -115 -124 -185c0 -65 24 -103 78 -103c87 0 124 115 124 185c0 65 -25 103 -78 103z" />
    <glyph glyph-name="obreve" unicode="&#x14f;" horiz-adv-x="604" 
d="M457 712h117c-27 -98 -104 -154 -211 -154c-95 0 -148 45 -148 123c0 10 1 20 3 31h95c-1 -5 -1 -8 -1 -12c0 -30 21 -46 60 -46c44 0 74 21 85 58zM332 524c156 0 243 -87 243 -231c0 -135 -102 -309 -305 -309c-154 0 -241 87 -241 231c0 135 102 309 303 309zM325 398
c-88 0 -124 -115 -124 -185c0 -65 24 -103 78 -103c87 0 124 115 124 185c0 65 -25 103 -78 103z" />
    <glyph glyph-name="ocircumflex" unicode="&#xf4;" horiz-adv-x="604" 
d="M556 564h-127l-40 76l-76 -76h-150l155 148h156zM332 524c156 0 243 -87 243 -231c0 -135 -102 -309 -305 -309c-154 0 -241 87 -241 231c0 135 102 309 303 309zM325 398c-88 0 -124 -115 -124 -185c0 -65 24 -103 78 -103c87 0 124 115 124 185c0 65 -25 103 -78 103z
" />
    <glyph glyph-name="odieresis" unicode="&#xf6;" horiz-adv-x="604" 
d="M322 581h-143l33 131h142zM548 581h-142l32 131h143zM332 524c156 0 243 -87 243 -231c0 -135 -102 -309 -305 -309c-154 0 -241 87 -241 231c0 135 102 309 303 309zM325 398c-88 0 -124 -115 -124 -185c0 -65 24 -103 78 -103c87 0 124 115 124 185
c0 65 -25 103 -78 103z" />
    <glyph glyph-name="ograve" unicode="&#xf2;" horiz-adv-x="604" 
d="M407 712l48 -148h-121l-111 148h184zM332 524c156 0 243 -87 243 -231c0 -135 -102 -309 -305 -309c-154 0 -241 87 -241 231c0 135 102 309 303 309zM325 398c-88 0 -124 -115 -124 -185c0 -65 24 -103 78 -103c87 0 124 115 124 185c0 65 -25 103 -78 103z" />
    <glyph glyph-name="ohungarumlaut" unicode="&#x151;" horiz-adv-x="604" 
d="M299 564h-130l129 148h172zM505 564h-130l128 148h173zM332 524c156 0 243 -87 243 -231c0 -135 -102 -309 -305 -309c-154 0 -241 87 -241 231c0 135 102 309 303 309zM325 398c-88 0 -124 -115 -124 -185c0 -65 24 -103 78 -103c87 0 124 115 124 185
c0 65 -25 103 -78 103z" />
    <glyph glyph-name="omacron" unicode="&#x14d;" horiz-adv-x="604" 
d="M546 589h-360l26 103h359zM332 524c156 0 243 -87 243 -231c0 -135 -102 -309 -305 -309c-154 0 -241 87 -241 231c0 135 102 309 303 309zM325 398c-88 0 -124 -115 -124 -185c0 -65 24 -103 78 -103c87 0 124 115 124 185c0 65 -25 103 -78 103z" />
    <glyph glyph-name="oslash" unicode="&#xf8;" horiz-adv-x="604" 
d="M593 497l-59 -60c27 -38 41 -86 41 -144c0 -135 -102 -309 -305 -309c-59 0 -109 13 -147 37l-61 -61l-53 52l60 60c-26 38 -40 86 -40 143c0 135 102 309 303 309c60 0 109 -13 148 -36l60 61zM325 405c-95 0 -134 -121 -134 -192c0 -7 0 -15 1 -21l191 192
c-15 14 -34 21 -58 21zM279 103c95 0 134 121 134 192c0 8 -1 16 -1 23l-192 -193c14 -14 34 -22 59 -22z" />
    <glyph glyph-name="otilde" unicode="&#xf5;" horiz-adv-x="604" 
d="M501 712h90c-26 -88 -79 -143 -151 -143c-67 0 -88 43 -130 43c-27 0 -43 -15 -54 -43h-90c25 88 78 143 151 143c67 0 89 -43 130 -43c27 0 43 14 54 43zM332 524c156 0 243 -87 243 -231c0 -135 -102 -309 -305 -309c-154 0 -241 87 -241 231c0 135 102 309 303 309z
M325 398c-88 0 -124 -115 -124 -185c0 -65 24 -103 78 -103c87 0 124 115 124 185c0 65 -25 103 -78 103z" />
    <glyph glyph-name="oe" unicode="&#x153;" horiz-adv-x="938" 
d="M900 220h-353c-3 -14 -4 -27 -4 -39c0 -63 32 -86 73 -86c43 0 79 26 91 61h169c-40 -96 -142 -172 -264 -172c-75 0 -130 26 -165 71c-47 -43 -109 -71 -187 -71c-148 0 -231 87 -231 231c0 135 100 309 297 309c79 0 139 -26 177 -74c47 44 108 74 186 74
c146 0 222 -86 222 -216c0 -23 -3 -50 -11 -88zM678 415c-43 0 -83 -28 -108 -101h186c1 8 1 15 1 22c0 55 -33 79 -79 79zM279 110c87 0 124 115 124 185c0 65 -25 103 -78 103c-88 0 -124 -115 -124 -185c0 -65 24 -103 78 -103z" />
    <glyph glyph-name="thorn" unicode="&#xfe;" horiz-adv-x="610" 
d="M281 471h2c38 34 86 51 129 51c111 0 174 -76 174 -200c0 -144 -98 -336 -280 -336c-56 0 -104 25 -126 73h-2l-60 -244h-166l223 897h166zM340 396c-81 0 -125 -108 -125 -186c0 -61 24 -98 70 -98c81 0 125 108 125 186c0 61 -24 98 -70 98z" />
    <glyph glyph-name="racute" unicode="&#x155;" horiz-adv-x="415" 
d="M336 564h-135l109 148h197zM425 516c15 0 33 -2 47 -6l-35 -142c-17 3 -34 5 -50 5c-85 0 -144 -53 -167 -150l-56 -223h-166l126 508h154l-16 -63h2c49 49 100 71 161 71z" />
    <glyph glyph-name="rcaron" unicode="&#x159;" horiz-adv-x="415" 
d="M375 564h-156l-81 148h127l40 -76l75 76h150zM425 516c15 0 33 -2 47 -6l-35 -142c-17 3 -34 5 -50 5c-85 0 -144 -53 -167 -150l-56 -223h-166l126 508h154l-16 -63h2c49 49 100 71 161 71z" />
    <glyph glyph-name="rcommaaccent" unicode="&#x157;" horiz-adv-x="415" 
d="M425 516c15 0 33 -2 47 -6l-35 -142c-17 3 -34 5 -50 5c-85 0 -144 -53 -167 -150l-56 -223h-166l126 508h154l-16 -63h2c49 49 100 71 161 71zM111 -166l-98 -109h-63l73 109h-46l28 112h134z" />
    <glyph glyph-name="sacute" unicode="&#x15b;" horiz-adv-x="542" 
d="M374 564h-135l109 148h197zM317 524c129 0 203 -46 203 -140c0 -9 -1 -20 -3 -30h-158c1 6 2 14 2 20c0 31 -22 45 -59 45c-47 0 -63 -23 -63 -43c0 -25 20 -37 87 -60c75 -26 156 -55 156 -156c0 -87 -81 -176 -255 -176c-142 0 -223 48 -223 147c0 10 2 22 5 34h167
c-2 -8 -3 -14 -3 -21c0 -33 22 -51 68 -51c45 0 69 19 69 47c0 34 -30 46 -98 68c-69 24 -140 47 -140 146c0 83 77 170 245 170z" />
    <glyph glyph-name="scaron" unicode="&#x161;" horiz-adv-x="542" 
d="M412 564h-156l-81 148h127l40 -76l75 76h150zM317 524c129 0 203 -46 203 -140c0 -9 -1 -20 -3 -30h-158c1 6 2 14 2 20c0 31 -22 45 -59 45c-47 0 -63 -23 -63 -43c0 -25 20 -37 87 -60c75 -26 156 -55 156 -156c0 -87 -81 -176 -255 -176c-142 0 -223 48 -223 147
c0 10 2 22 5 34h167c-2 -8 -3 -14 -3 -21c0 -33 22 -51 68 -51c45 0 69 19 69 47c0 34 -30 46 -98 68c-69 24 -140 47 -140 146c0 83 77 170 245 170z" />
    <glyph glyph-name="scedilla" unicode="&#x15f;" horiz-adv-x="542" 
d="M517 354h-158c1 6 2 14 2 20c0 31 -22 45 -59 45c-47 0 -63 -23 -63 -43c0 -25 20 -37 87 -60c75 -26 156 -55 156 -156c0 -83 -74 -168 -231 -175l-38 -44c6 2 14 3 22 3c45 0 74 -26 74 -71c0 -60 -63 -105 -146 -105c-42 0 -82 11 -113 32l30 53c27 -15 54 -22 80 -22
c31 0 51 14 51 35c0 18 -12 29 -35 29c-11 0 -23 -2 -33 -6l-26 24l64 73c-113 10 -177 57 -177 145c0 10 2 22 5 34h167c-2 -8 -3 -14 -3 -21c0 -33 22 -51 68 -51c45 0 69 19 69 47c0 34 -30 46 -98 68c-69 24 -140 47 -140 146c0 83 77 170 245 170
c129 0 203 -46 203 -140c0 -9 -1 -20 -3 -30z" />
    <glyph glyph-name="scircumflex" unicode="&#x15d;" horiz-adv-x="542" 
d="M531 564h-127l-40 76l-76 -76h-150l155 148h156zM317 524c129 0 203 -46 203 -140c0 -9 -1 -20 -3 -30h-158c1 6 2 14 2 20c0 31 -22 45 -59 45c-47 0 -63 -23 -63 -43c0 -25 20 -37 87 -60c75 -26 156 -55 156 -156c0 -87 -81 -176 -255 -176c-142 0 -223 48 -223 147
c0 10 2 22 5 34h167c-2 -8 -3 -14 -3 -21c0 -33 22 -51 68 -51c45 0 69 19 69 47c0 34 -30 46 -98 68c-69 24 -140 47 -140 146c0 83 77 170 245 170z" />
    <glyph glyph-name="scommaaccent" unicode="&#x219;" horiz-adv-x="542" 
d="M317 524c129 0 203 -46 203 -140c0 -9 -1 -20 -3 -30h-158c1 6 2 14 2 20c0 31 -22 45 -59 45c-47 0 -63 -23 -63 -43c0 -25 20 -37 87 -60c75 -26 156 -55 156 -156c0 -87 -81 -176 -255 -176c-142 0 -223 48 -223 147c0 10 2 22 5 34h167c-2 -8 -3 -14 -3 -21
c0 -33 22 -51 68 -51c45 0 69 19 69 47c0 34 -30 46 -98 68c-69 24 -140 47 -140 146c0 83 77 170 245 170zM245 -166l-98 -109h-63l73 109h-46l28 112h134z" />
    <glyph glyph-name="germandbls" unicode="&#xdf;" horiz-adv-x="587" 
d="M397 728c129 0 206 -60 206 -157c0 -73 -47 -152 -164 -182v-2c72 -24 109 -72 109 -150c0 -113 -87 -241 -282 -241c-16 0 -39 3 -53 7l31 125c8 -1 14 -1 19 -1c87 0 119 68 119 118s-28 78 -85 78h-4l33 132c93 0 115 54 115 89c0 39 -19 58 -58 58
c-49 0 -78 -32 -95 -104l-124 -498h-166l130 520c32 131 132 208 269 208z" />
    <glyph glyph-name="longs" unicode="&#x17f;" horiz-adv-x="361" 
d="M384 721c29 0 62 -5 82 -11l-28 -112c-5 1 -15 2 -23 2c-50 0 -79 -21 -94 -80l-130 -520h-164l96 387h-81l30 121h81l13 52c27 109 104 161 218 161z" />
    <glyph glyph-name="tbar" unicode="&#x167;" horiz-adv-x="378" 
d="M286 391l-21 -82h92l-22 -89h-92l-4 -16c-3 -14 -5 -26 -5 -35c0 -35 16 -49 53 -49c12 0 24 2 33 4l-31 -124c-17 -5 -46 -8 -65 -8c-111 0 -161 41 -161 137c0 22 4 47 11 76l4 15h-76l22 89h76l21 82h-81l30 117h80l34 137h165l-34 -137h96l-30 -117h-95z" />
    <glyph glyph-name="tcaron" unicode="&#x165;" horiz-adv-x="378" 
d="M548 712l-104 -178h-94l68 178h130zM315 508h96l-30 -121h-96l-45 -180c-3 -13 -5 -25 -5 -35c0 -35 17 -49 56 -49c11 0 22 2 30 3l-32 -126c-17 -5 -46 -8 -65 -8c-111 0 -162 41 -162 137c0 22 4 47 12 76l45 182h-79l30 121h79l34 137h166z" />
    <glyph glyph-name="tcedilla" unicode="&#x163;" horiz-adv-x="378" 
d="M285 387l-45 -180c-3 -13 -5 -25 -5 -35c0 -35 17 -49 56 -49c11 0 22 2 30 3l-32 -126c-17 -5 -46 -8 -65 -8c-111 0 -162 41 -162 137c0 22 4 47 12 76l45 182h-79l30 121h79l34 137h166l-34 -137h96l-30 -121h-96zM77 -54h134l-28 -112l-98 -109h-63l73 109h-46z" />
    <glyph glyph-name="tcommaaccent" unicode="&#x21b;" horiz-adv-x="378" 
d="M285 387l-45 -180c-3 -13 -5 -25 -5 -35c0 -35 17 -49 56 -49c11 0 22 2 30 3l-32 -126c-17 -5 -46 -8 -65 -8c-111 0 -162 41 -162 137c0 22 4 47 12 76l45 182h-79l30 121h79l34 137h166l-34 -137h96l-30 -121h-96zM77 -54h134l-28 -112l-98 -109h-63l73 109h-46z" />
    <glyph glyph-name="uacute" unicode="&#xfa;" 
d="M411 564h-135l109 148h197zM190 -13c-97 0 -155 52 -155 150c0 22 3 47 10 74l74 297h166l-73 -292c-4 -18 -6 -33 -6 -46c0 -36 20 -54 56 -54c51 0 95 41 116 129l66 263h166l-127 -508h-154l13 53h-2c-41 -40 -93 -66 -150 -66z" />
    <glyph glyph-name="ubreve" unicode="&#x16d;" 
d="M469 712h117c-27 -98 -104 -154 -211 -154c-95 0 -148 45 -148 123c0 10 1 20 3 31h95c-1 -5 -1 -8 -1 -12c0 -30 21 -46 60 -46c44 0 74 21 85 58zM190 -13c-97 0 -155 52 -155 150c0 22 3 47 10 74l74 297h166l-73 -292c-4 -18 -6 -33 -6 -46c0 -36 20 -54 56 -54
c51 0 95 41 116 129l66 263h166l-127 -508h-154l13 53h-2c-41 -40 -93 -66 -150 -66z" />
    <glyph glyph-name="ucircumflex" unicode="&#xfb;" 
d="M568 564h-127l-40 76l-76 -76h-150l155 148h156zM190 -13c-97 0 -155 52 -155 150c0 22 3 47 10 74l74 297h166l-73 -292c-4 -18 -6 -33 -6 -46c0 -36 20 -54 56 -54c51 0 95 41 116 129l66 263h166l-127 -508h-154l13 53h-2c-41 -40 -93 -66 -150 -66z" />
    <glyph glyph-name="udieresis" unicode="&#xfc;" 
d="M334 581h-143l33 131h142zM560 581h-142l32 131h143zM190 -13c-97 0 -155 52 -155 150c0 22 3 47 10 74l74 297h166l-73 -292c-4 -18 -6 -33 -6 -46c0 -36 20 -54 56 -54c51 0 95 41 116 129l66 263h166l-127 -508h-154l13 53h-2c-41 -40 -93 -66 -150 -66z" />
    <glyph glyph-name="ugrave" unicode="&#xf9;" 
d="M419 712l48 -148h-121l-111 148h184zM190 -13c-97 0 -155 52 -155 150c0 22 3 47 10 74l74 297h166l-73 -292c-4 -18 -6 -33 -6 -46c0 -36 20 -54 56 -54c51 0 95 41 116 129l66 263h166l-127 -508h-154l13 53h-2c-41 -40 -93 -66 -150 -66z" />
    <glyph glyph-name="uhungarumlaut" unicode="&#x171;" 
d="M311 564h-130l129 148h172zM517 564h-130l128 148h173zM190 -13c-97 0 -155 52 -155 150c0 22 3 47 10 74l74 297h166l-73 -292c-4 -18 -6 -33 -6 -46c0 -36 20 -54 56 -54c51 0 95 41 116 129l66 263h166l-127 -508h-154l13 53h-2c-41 -40 -93 -66 -150 -66z" />
    <glyph glyph-name="umacron" unicode="&#x16b;" 
d="M558 589h-360l26 103h359zM190 -13c-97 0 -155 52 -155 150c0 22 3 47 10 74l74 297h166l-73 -292c-4 -18 -6 -33 -6 -46c0 -36 20 -54 56 -54c51 0 95 41 116 129l66 263h166l-127 -508h-154l13 53h-2c-41 -40 -93 -66 -150 -66z" />
    <glyph glyph-name="uogonek" unicode="&#x173;" 
d="M610 508l-127 -508c-71 -40 -85 -66 -85 -89c0 -13 8 -20 26 -20c12 0 25 3 36 7l-22 -86c-23 -7 -53 -11 -84 -11c-76 0 -112 28 -112 78c0 47 36 84 112 121h-25l13 53h-2c-41 -40 -93 -66 -150 -66c-97 0 -155 52 -155 150c0 22 3 47 10 74l74 297h166l-73 -292
c-4 -18 -6 -33 -6 -46c0 -36 20 -54 56 -54c51 0 95 41 116 129l66 263h166z" />
    <glyph glyph-name="uring" unicode="&#x16f;" 
d="M387 780c63 0 113 -51 113 -114c0 -62 -50 -113 -113 -113s-114 51 -114 113c0 63 51 114 114 114zM387 722c-31 0 -56 -25 -56 -56s25 -56 56 -56s56 25 56 56s-25 56 -56 56zM190 -13c-97 0 -155 52 -155 150c0 22 3 47 10 74l74 297h166l-73 -292
c-4 -18 -6 -33 -6 -46c0 -36 20 -54 56 -54c51 0 95 41 116 129l66 263h166l-127 -508h-154l13 53h-2c-41 -40 -93 -66 -150 -66z" />
    <glyph glyph-name="utilde" unicode="&#x169;" 
d="M513 712h90c-26 -88 -79 -143 -151 -143c-67 0 -88 43 -130 43c-27 0 -43 -15 -54 -43h-90c25 88 78 143 151 143c67 0 89 -43 130 -43c27 0 43 14 54 43zM190 -13c-97 0 -155 52 -155 150c0 22 3 47 10 74l74 297h166l-73 -292c-4 -18 -6 -33 -6 -46
c0 -36 20 -54 56 -54c51 0 95 41 116 129l66 263h166l-127 -508h-154l13 53h-2c-41 -40 -93 -66 -150 -66z" />
    <glyph glyph-name="wacute" unicode="&#x1e83;" horiz-adv-x="848" 
d="M533 564h-135l109 148h197zM668 0h-228l7 191c3 70 6 142 12 213h-2c-26 -71 -55 -143 -88 -213l-88 -191h-227l13 508h155l-14 -187c-5 -71 -10 -144 -19 -216h2c28 72 58 144 92 217l88 186h217l-4 -186c-1 -73 -4 -145 -10 -217h2c24 72 51 145 82 216l79 187h170z
" />
    <glyph glyph-name="wcircumflex" unicode="&#x175;" horiz-adv-x="848" 
d="M690 564h-127l-40 76l-76 -76h-150l155 148h156zM668 0h-228l7 191c3 70 6 142 12 213h-2c-26 -71 -55 -143 -88 -213l-88 -191h-227l13 508h155l-14 -187c-5 -71 -10 -144 -19 -216h2c28 72 58 144 92 217l88 186h217l-4 -186c-1 -73 -4 -145 -10 -217h2
c24 72 51 145 82 216l79 187h170z" />
    <glyph glyph-name="wdieresis" unicode="&#x1e85;" horiz-adv-x="848" 
d="M456 581h-143l33 131h142zM682 581h-142l32 131h143zM668 0h-228l7 191c3 70 6 142 12 213h-2c-26 -71 -55 -143 -88 -213l-88 -191h-227l13 508h155l-14 -187c-5 -71 -10 -144 -19 -216h2c28 72 58 144 92 217l88 186h217l-4 -186c-1 -73 -4 -145 -10 -217h2
c24 72 51 145 82 216l79 187h170z" />
    <glyph glyph-name="wgrave" unicode="&#x1e81;" horiz-adv-x="848" 
d="M542 712l48 -148h-121l-111 148h184zM668 0h-228l7 191c3 70 6 142 12 213h-2c-26 -71 -55 -143 -88 -213l-88 -191h-227l13 508h155l-14 -187c-5 -71 -10 -144 -19 -216h2c28 72 58 144 92 217l88 186h217l-4 -186c-1 -73 -4 -145 -10 -217h2c24 72 51 145 82 216
l79 187h170z" />
    <glyph glyph-name="yacute" unicode="&#xfd;" horiz-adv-x="530" 
d="M363 564h-135l109 148h197zM601 508l-294 -501c-89 -152 -165 -198 -294 -198c-29 0 -60 3 -83 8l31 126c14 -5 32 -8 49 -8c63 0 98 40 98 90c0 13 -2 29 -7 74l-48 409h164l10 -170c4 -69 5 -141 3 -212h2c30 71 62 142 99 213l86 169h184z" />
    <glyph glyph-name="ycircumflex" unicode="&#x177;" horiz-adv-x="530" 
d="M521 564h-127l-40 76l-76 -76h-150l155 148h156zM601 508l-294 -501c-89 -152 -165 -198 -294 -198c-29 0 -60 3 -83 8l31 126c14 -5 32 -8 49 -8c63 0 98 40 98 90c0 13 -2 29 -7 74l-48 409h164l10 -170c4 -69 5 -141 3 -212h2c30 71 62 142 99 213l86 169h184z" />
    <glyph glyph-name="ydieresis" unicode="&#xff;" horiz-adv-x="530" 
d="M287 581h-143l33 131h142zM513 581h-142l32 131h143zM601 508l-294 -501c-89 -152 -165 -198 -294 -198c-29 0 -60 3 -83 8l31 126c14 -5 32 -8 49 -8c63 0 98 40 98 90c0 13 -2 29 -7 74l-48 409h164l10 -170c4 -69 5 -141 3 -212h2c30 71 62 142 99 213l86 169h184z
" />
    <glyph glyph-name="ygrave" unicode="&#x1ef3;" horiz-adv-x="530" 
d="M372 712l48 -148h-121l-111 148h184zM601 508l-294 -501c-89 -152 -165 -198 -294 -198c-29 0 -60 3 -83 8l31 126c14 -5 32 -8 49 -8c63 0 98 40 98 90c0 13 -2 29 -7 74l-48 409h164l10 -170c4 -69 5 -141 3 -212h2c30 71 62 142 99 213l86 169h184z" />
    <glyph glyph-name="zacute" unicode="&#x17a;" horiz-adv-x="502" 
d="M356 564h-135l109 148h197zM495 373l-288 -244v-2h235l-32 -127h-444l34 135l287 244v2h-218l32 127h427z" />
    <glyph glyph-name="zcaron" unicode="&#x17e;" horiz-adv-x="502" 
d="M394 564h-156l-81 148h127l40 -76l75 76h150zM495 373l-288 -244v-2h235l-32 -127h-444l34 135l287 244v2h-218l32 127h427z" />
    <glyph glyph-name="zdotaccent" unicode="&#x17c;" horiz-adv-x="502" 
d="M404 581h-166l33 131h166zM495 373l-288 -244v-2h235l-32 -127h-444l34 135l287 244v2h-218l32 127h427z" />
    <glyph glyph-name="j.acute.loclNLD" horiz-adv-x="289" 
d="M261 564h-135l109 148h197zM291 508l-131 -525c-30 -123 -117 -173 -218 -173c-35 0 -65 3 -89 11l28 114c6 -2 13 -3 21 -3c53 0 86 23 106 105l117 471h166z" />
    <glyph glyph-name="ccedilla.ss01" horiz-adv-x="575" 
d="M337 524c141 0 225 -76 225 -193c0 -9 -1 -18 -3 -27h-172c1 5 2 12 2 18c0 49 -24 77 -63 77c-84 0 -127 -123 -127 -190c0 -64 25 -99 70 -99c42 0 80 31 95 84h173c-40 -128 -149 -210 -279 -210c-145 0 -229 86 -229 228c0 135 102 312 308 312zM191 -217h-182
l175 168h140z" />
    <glyph glyph-name="scedilla.ss01" horiz-adv-x="542" 
d="M317 524c129 0 203 -46 203 -140c0 -9 -1 -20 -3 -30h-158c1 6 2 14 2 20c0 31 -22 45 -59 45c-47 0 -63 -23 -63 -43c0 -25 20 -37 87 -60c75 -26 156 -55 156 -156c0 -87 -81 -176 -255 -176c-142 0 -223 48 -223 147c0 10 2 22 5 34h167c-2 -8 -3 -14 -3 -21
c0 -33 22 -51 68 -51c45 0 69 19 69 47c0 34 -30 46 -98 68c-69 24 -140 47 -140 146c0 83 77 170 245 170zM159 -217h-182l175 168h140z" />
    <glyph glyph-name="tcedilla.ss01" horiz-adv-x="378" 
d="M285 387l-45 -180c-3 -13 -5 -25 -5 -35c0 -35 17 -49 56 -49c11 0 22 2 30 3l-32 -126c-17 -5 -46 -8 -65 -8c-111 0 -162 41 -162 137c0 22 4 47 12 76l45 182h-79l30 121h79l34 137h166l-34 -137h96l-30 -121h-96zM90 -49h140l-133 -168h-182z" />
    <glyph glyph-name="a.sups" horiz-adv-x="419" 
d="M297 697c109 0 158 -42 158 -116c0 -14 -2 -30 -6 -47l-25 -100c-12 -50 -16 -78 -14 -104h-121c-1 11 0 25 4 39h-2c-35 -33 -76 -49 -121 -49c-72 0 -111 40 -111 98c0 56 39 112 176 130c29 4 67 8 89 9l2 6c2 7 3 14 3 19c0 26 -15 36 -39 36c-25 0 -43 -15 -50 -45
h-130c14 66 77 124 187 124zM303 470l5 19c-17 -1 -42 -4 -60 -8c-41 -7 -53 -26 -53 -46c0 -19 13 -31 37 -31c38 0 61 27 71 66z" />
    <glyph glyph-name="b.sups" horiz-adv-x="452" 
d="M280 663h1c27 22 61 33 93 33c80 0 124 -54 124 -143c0 -101 -70 -234 -202 -234c-41 0 -77 19 -91 56h-1l-12 -45h-130l124 498h136zM311 594c-50 0 -79 -66 -79 -113c0 -37 15 -59 44 -59c51 0 79 67 79 113c0 37 -15 59 -44 59z" />
    <glyph glyph-name="c.sups" horiz-adv-x="427" 
d="M311 697c107 0 171 -54 171 -139c0 -7 0 -13 -2 -19h-141c1 3 2 8 2 13c0 29 -15 44 -39 44c-54 0 -78 -78 -78 -118c0 -38 14 -58 41 -58c25 0 47 17 57 50h140c-29 -94 -108 -151 -206 -151c-109 0 -173 62 -173 164c0 94 77 214 228 214z" />
    <glyph glyph-name="d.sups" horiz-adv-x="453" 
d="M429 330h-130l7 28h-2c-28 -25 -65 -39 -98 -39c-81 0 -125 55 -125 144c0 101 71 233 202 233c38 0 72 -16 88 -47h2l44 179h136zM303 594c-50 0 -79 -67 -79 -114c0 -36 16 -58 44 -58c50 0 79 66 79 113c0 36 -15 59 -44 59z" />
    <glyph glyph-name="e.sups" horiz-adv-x="433" 
d="M468 480h-256c-1 -8 -2 -16 -2 -23c0 -39 21 -51 49 -51c27 0 48 14 55 34h138c-28 -69 -104 -121 -192 -121c-118 0 -175 68 -175 166c0 91 70 212 216 212c114 0 175 -63 175 -159c0 -15 -2 -33 -8 -58zM300 613c-27 0 -53 -15 -70 -62h119v14c0 34 -20 48 -49 48z" />
    <glyph glyph-name="egrave.sups" horiz-adv-x="433" 
d="M274 724l-99 104h157l54 -104h-112zM468 480h-256c-1 -8 -2 -16 -2 -23c0 -39 21 -51 49 -51c27 0 48 14 55 34h138c-28 -69 -104 -121 -192 -121c-118 0 -175 68 -175 166c0 91 70 212 216 212c114 0 175 -63 175 -159c0 -15 -2 -33 -8 -58zM300 613
c-27 0 -53 -15 -70 -62h119v14c0 34 -20 48 -49 48z" />
    <glyph glyph-name="f.sups" horiz-adv-x="274" 
d="M345 836c23 0 49 -5 66 -9l-22 -90c-4 1 -11 2 -17 2c-36 0 -56 -14 -66 -51v-2h65l-23 -97h-67l-64 -259h-135l64 259h-56l23 97h57l8 31c20 80 80 119 167 119z" />
    <glyph glyph-name="g.sups" horiz-adv-x="446" 
d="M271 696c49 0 86 -27 99 -64h2l13 54h126l-89 -358c-23 -95 -101 -136 -212 -136c-105 0 -160 36 -160 100c0 5 0 10 1 16h126c-1 -3 -1 -5 -1 -7c0 -18 15 -27 42 -27c35 0 62 15 76 67l6 25h-1c-27 -20 -58 -32 -89 -32c-80 0 -125 57 -125 150c0 89 64 212 186 212z
M298 593c-48 0 -73 -62 -73 -97c0 -36 16 -59 45 -59c48 0 73 61 73 97c0 37 -17 59 -45 59z" />
    <glyph glyph-name="h.sups" horiz-adv-x="449" 
d="M279 660h1c27 22 60 36 95 36c71 0 113 -38 113 -107c0 -15 -2 -32 -7 -51l-52 -208h-135l50 203c3 11 4 20 4 28c0 20 -11 30 -33 30c-33 0 -58 -26 -73 -83l-44 -178h-136l124 498h136z" />
    <glyph glyph-name="i.sups" horiz-adv-x="221" 
d="M297 729h-136l25 99h136zM198 330h-136l88 356h136z" />
    <glyph glyph-name="j.sups" horiz-adv-x="223" 
d="M300 729h-137l25 99h135zM288 686l-90 -361c-22 -91 -88 -128 -164 -128c-29 0 -54 2 -73 9l22 90c3 0 8 -1 13 -1c39 0 63 16 77 74l80 317h135z" />
    <glyph glyph-name="k.sups" horiz-adv-x="424" 
d="M360 507l89 -177h-150l-58 164h-2l-41 -164h-136l124 498h136l-68 -270h2l102 128h171z" />
    <glyph glyph-name="l.sups" horiz-adv-x="221" 
d="M198 330h-136l124 498h136z" />
    <glyph glyph-name="m.sups" horiz-adv-x="667" 
d="M599 696c67 0 107 -37 107 -107c0 -16 -3 -34 -7 -53l-52 -206h-136l51 204c3 11 5 20 5 28c0 19 -11 29 -30 29c-31 0 -55 -25 -70 -83l-45 -178h-135l51 206c3 10 4 19 4 25c0 19 -10 30 -30 30c-31 0 -56 -25 -70 -83l-44 -178h-136l88 356h126l-8 -36h1
c28 28 64 46 105 46c48 0 83 -20 96 -65c33 39 76 65 129 65z" />
    <glyph glyph-name="n.sups" horiz-adv-x="449" 
d="M375 696c71 0 112 -38 112 -107c0 -15 -2 -32 -7 -51l-51 -208h-136l51 203c2 11 3 20 3 28c0 20 -11 30 -33 30c-33 0 -58 -26 -72 -83l-45 -178h-136l89 356h126l-9 -35h2c28 27 65 45 106 45z" />
    <glyph glyph-name="o.sups" horiz-adv-x="449" 
d="M308 697c115 0 183 -64 183 -168c0 -93 -74 -210 -223 -210c-116 0 -183 64 -183 168c0 93 74 210 223 210zM301 596c-53 0 -76 -71 -76 -114c0 -39 14 -62 49 -62c54 0 76 70 76 113c0 40 -15 63 -49 63z" />
    <glyph glyph-name="p.sups" horiz-adv-x="452" 
d="M373 696c81 0 125 -54 125 -143c0 -101 -71 -234 -202 -234c-39 0 -72 16 -88 48h-2l-41 -166h-136l121 485h130l-7 -29h1c28 26 66 39 99 39zM310 594c-50 0 -78 -66 -78 -113c0 -37 15 -59 44 -59c50 0 79 67 79 113c0 37 -16 59 -45 59z" />
    <glyph glyph-name="q.sups" horiz-adv-x="453" 
d="M283 696c41 0 77 -18 91 -55h2l12 45h129l-120 -485h-136l38 152h-1c-27 -22 -61 -34 -92 -34c-81 0 -125 55 -125 144c0 101 71 233 202 233zM303 594c-50 0 -79 -67 -79 -114c0 -36 16 -58 44 -58c50 0 79 66 79 113c0 36 -15 59 -44 59z" />
    <glyph glyph-name="r.sups" horiz-adv-x="318" 
d="M385 691c11 0 25 -1 35 -4l-28 -115c-12 2 -27 4 -41 4c-59 0 -101 -37 -117 -103l-36 -143h-136l88 356h126l-10 -43h1c36 34 73 48 118 48z" />
    <glyph glyph-name="s.sups" horiz-adv-x="406" 
d="M299 697c97 0 155 -31 155 -97c0 -7 0 -14 -3 -21h-128c1 4 1 8 1 12c0 19 -13 27 -36 27c-29 0 -38 -12 -38 -24c0 -16 13 -23 59 -39c57 -19 119 -42 119 -112c0 -61 -60 -124 -191 -124c-111 0 -171 34 -171 102c0 8 1 16 4 25h136c-2 -5 -2 -10 -2 -14
c0 -20 14 -30 43 -30c28 0 43 10 43 26c0 21 -20 28 -71 44c-53 17 -105 35 -105 104c0 60 57 121 185 121z" />
    <glyph glyph-name="t.sups" horiz-adv-x="285" 
d="M279 589l-25 -102c-2 -9 -4 -17 -4 -24c0 -23 11 -33 37 -33c9 0 18 1 25 2l-26 -102c-14 -4 -37 -7 -53 -7c-85 0 -125 32 -125 104c0 16 4 34 9 54l27 108h-55l23 97h56l25 99h135l-25 -99h68l-23 -97h-69z" />
    <glyph glyph-name="u.sups" horiz-adv-x="449" 
d="M201 320c-71 0 -113 38 -113 107c0 15 2 32 7 51l52 208h136l-51 -203c-3 -11 -4 -20 -4 -28c0 -20 12 -30 34 -30c32 0 58 26 72 83l45 178h135l-88 -356h-127l10 35h-2c-29 -27 -65 -45 -106 -45z" />
    <glyph glyph-name="v.sups" horiz-adv-x="400" 
d="M310 330h-183l-25 356h138l-1 -120c0 -49 -2 -98 -6 -148h2c19 50 41 99 64 148l60 120h154z" />
    <glyph glyph-name="w.sups" horiz-adv-x="635" 
d="M569 330h-181l5 127c3 48 5 97 9 147h-2c-16 -50 -36 -99 -58 -147l-58 -127h-180l7 356h125l-12 -124c-4 -50 -9 -99 -15 -148h2c19 50 40 101 64 150l58 122h171l-2 -122c0 -49 -2 -100 -7 -150h2c15 49 34 98 54 148l52 124h136z" />
    <glyph glyph-name="x.sups" horiz-adv-x="402" 
d="M347 508l78 -178h-142l-30 103h-2l-72 -103h-164l168 187l-72 169h142l24 -94h2l63 94h163z" />
    <glyph glyph-name="y.sups" horiz-adv-x="402" 
d="M515 686l-202 -343c-66 -113 -118 -147 -213 -147c-23 0 -47 2 -65 6l24 98c9 -3 21 -5 31 -5c39 0 59 21 59 48c0 9 -2 22 -7 60l-41 283h135l6 -119c2 -48 3 -98 0 -147h1c20 49 41 98 64 148l57 118h151z" />
    <glyph glyph-name="z.sups" horiz-adv-x="371" 
d="M427 580l-191 -146v-2h158l-24 -102h-330l26 106l191 146v2h-148l25 102h319z" />
    <glyph glyph-name="ff" unicode="&#xfb00;" horiz-adv-x="690" 
d="M713 721c29 0 62 -5 82 -11l-28 -112c-5 1 -15 2 -23 2c-50 0 -79 -21 -94 -80l-3 -12h93l-30 -121h-93l-97 -387h-164l96 387h-164l-97 -387h-164l96 387h-81l30 121h81l13 52c27 109 104 161 218 161c29 0 62 -5 82 -11l-28 -112c-5 1 -15 2 -23 2
c-50 0 -79 -21 -94 -80l-3 -12h164l13 52c27 109 104 161 218 161z" />
    <glyph glyph-name="ffi" unicode="&#xfb03;" horiz-adv-x="978" 
d="M617 387l-97 -387h-164l96 387h-164l-97 -387h-164l96 387h-81l30 121h81l13 52c27 109 104 161 218 161c29 0 62 -5 82 -11l-28 -112c-5 1 -15 2 -23 2c-50 0 -79 -21 -94 -80l-3 -12h164l13 52c27 109 104 161 218 161c29 0 62 -5 82 -11l-28 -112c-5 1 -15 2 -23 2
c-50 0 -79 -21 -94 -80l-3 -12h93l-30 -121h-93zM1031 712l-33 -131h-166l33 131h166zM814 508h166l-126 -508h-166z" />
    <glyph glyph-name="ffl" unicode="&#xfb04;" horiz-adv-x="978" 
d="M617 387l-97 -387h-164l96 387h-164l-97 -387h-164l96 387h-81l30 121h81l13 52c27 109 104 161 218 161c29 0 62 -5 82 -11l-28 -112c-5 1 -15 2 -23 2c-50 0 -79 -21 -94 -80l-3 -12h164l13 52c27 109 104 161 218 161c29 0 62 -5 82 -11l-28 -112c-5 1 -15 2 -23 2
c-50 0 -79 -21 -94 -80l-3 -12h93l-30 -121h-93zM1031 712l-177 -712h-166l177 712h166z" />
    <glyph glyph-name="fi" unicode="&#xfb01;" horiz-adv-x="649" 
d="M288 387l-97 -387h-164l96 387h-81l30 121h81l13 52c27 109 104 161 218 161c29 0 62 -5 82 -11l-28 -112c-5 1 -15 2 -23 2c-50 0 -79 -21 -94 -80l-3 -12h93l-30 -121h-93zM702 712l-33 -131h-166l33 131h166zM485 508h166l-126 -508h-166z" />
    <glyph glyph-name="fl" unicode="&#xfb02;" horiz-adv-x="649" 
d="M288 387l-97 -387h-164l96 387h-81l30 121h81l13 52c27 109 104 161 218 161c29 0 62 -5 82 -11l-28 -112c-5 1 -15 2 -23 2c-50 0 -79 -21 -94 -80l-3 -12h93l-30 -121h-93zM702 712l-177 -712h-166l177 712h166z" />
    <glyph glyph-name="a.smcp" horiz-adv-x="613" 
d="M378 97h-198l-53 -97h-189l329 548h225l58 -548h-167zM373 221l-2 35c-3 59 -6 123 -8 183h-2c-28 -60 -61 -124 -93 -183l-19 -35h124z" />
    <glyph glyph-name="aacute.smcp" horiz-adv-x="613" 
d="M423 604h-135l109 148h197zM492 548l58 -548h-167l-5 97h-198l-53 -97h-189l329 548h225zM373 221l-2 35c-3 59 -6 123 -8 183h-2c-28 -60 -61 -124 -93 -183l-19 -35h124z" />
    <glyph glyph-name="abreve.smcp" horiz-adv-x="613" 
d="M388 598c-95 0 -148 45 -148 123c0 10 1 20 3 31h95c-1 -5 -1 -8 -1 -12c0 -30 21 -46 60 -46c44 0 74 21 85 58h117c-27 -98 -104 -154 -211 -154zM492 548l58 -548h-167l-5 97h-198l-53 -97h-189l329 548h225zM373 221l-2 35c-3 59 -6 123 -8 183h-2
c-28 -60 -61 -124 -93 -183l-19 -35h124z" />
    <glyph glyph-name="acircumflex.smcp" horiz-adv-x="613" 
d="M337 604h-150l155 148h156l82 -148h-127l-40 76zM492 548l58 -548h-167l-5 97h-198l-53 -97h-189l329 548h225zM373 221l-2 35c-3 59 -6 123 -8 183h-2c-28 -60 -61 -124 -93 -183l-19 -35h124z" />
    <glyph glyph-name="adieresis.smcp" horiz-adv-x="613" 
d="M346 621h-143l33 131h142zM605 752l-33 -131h-142l32 131h143zM492 548l58 -548h-167l-5 97h-198l-53 -97h-189l329 548h225zM373 221l-2 35c-3 59 -6 123 -8 183h-2c-28 -60 -61 -124 -93 -183l-19 -35h124z" />
    <glyph glyph-name="agrave.smcp" horiz-adv-x="613" 
d="M359 604l-111 148h184l48 -148h-121zM378 97h-198l-53 -97h-189l329 548h225l58 -548h-167zM373 221l-2 35c-3 59 -6 123 -8 183h-2c-28 -60 -61 -124 -93 -183l-19 -35h124z" />
    <glyph glyph-name="amacron.smcp" horiz-adv-x="613" 
d="M595 732l-25 -103h-360l26 103h359zM492 548l58 -548h-167l-5 97h-198l-53 -97h-189l329 548h225zM373 221l-2 35c-3 59 -6 123 -8 183h-2c-28 -60 -61 -124 -93 -183l-19 -35h124z" />
    <glyph glyph-name="aogonek.smcp" horiz-adv-x="613" 
d="M465 -89c0 -13 8 -20 26 -20c12 0 25 3 36 7l-22 -86c-23 -7 -53 -11 -84 -11c-76 0 -112 28 -112 78c0 47 36 84 112 121h-38l-5 97h-198l-53 -97h-189l329 548h225l58 -548c-71 -40 -85 -66 -85 -89zM373 221l-2 35c-3 59 -6 123 -8 183h-2c-28 -60 -61 -124 -93 -183
l-19 -35h124z" />
    <glyph glyph-name="aring.smcp" horiz-adv-x="613" 
d="M400 593c-63 0 -114 51 -114 113c0 63 51 114 114 114s113 -51 113 -114c0 -62 -50 -113 -113 -113zM400 762c-31 0 -56 -25 -56 -56s25 -56 56 -56s56 25 56 56s-25 56 -56 56zM378 97h-198l-53 -97h-189l329 548h225l58 -548h-167zM373 221l-2 35c-3 59 -6 123 -8 183
h-2c-28 -60 -61 -124 -93 -183l-19 -35h124z" />
    <glyph glyph-name="atilde.smcp" horiz-adv-x="613" 
d="M526 752h90c-26 -88 -79 -143 -151 -143c-67 0 -88 43 -130 43c-27 0 -43 -15 -54 -43h-90c25 88 78 143 151 143c67 0 89 -43 130 -43c27 0 43 14 54 43zM492 548l58 -548h-167l-5 97h-198l-53 -97h-189l329 548h225zM373 221l-2 35c-3 59 -6 123 -8 183h-2
c-28 -60 -61 -124 -93 -183l-19 -35h124z" />
    <glyph glyph-name="ae.smcp" horiz-adv-x="822" 
d="M564 418l-7 -79h220l-31 -126h-200l-8 -83h211l-32 -130h-341l10 106h-196l-72 -106h-186l386 548h531l-32 -130h-253zM397 233l17 187h-11l-127 -187h121z" />
    <glyph glyph-name="b.smcp" horiz-adv-x="589" 
d="M136 548h246c130 0 188 -50 188 -128c0 -59 -37 -119 -130 -141v-2c56 -14 84 -49 84 -103c0 -82 -75 -174 -237 -174h-287zM274 432l-26 -101h68c69 0 84 28 84 58c0 29 -21 43 -67 43h-59zM221 222l-26 -105h70c74 0 87 28 87 59c0 33 -23 46 -76 46h-55z" />
    <glyph glyph-name="c.smcp" horiz-adv-x="597" 
d="M357 564c141 0 226 -70 226 -194c0 -12 -1 -25 -3 -38h-175c1 6 1 12 1 18c1 50 -24 76 -68 76c-91 0 -137 -124 -138 -204c1 -65 28 -100 78 -100c45 0 81 27 99 73h177c-43 -138 -155 -211 -296 -211c-149 0 -232 83 -232 227c0 155 110 353 331 353z" />
    <glyph glyph-name="cacute.smcp" horiz-adv-x="597" 
d="M407 604h-135l109 148h197zM357 564c141 0 226 -70 226 -194c0 -12 -1 -25 -3 -38h-175c1 6 1 12 1 18c1 50 -24 76 -68 76c-91 0 -137 -124 -138 -204c1 -65 28 -100 78 -100c45 0 81 27 99 73h177c-43 -138 -155 -211 -296 -211c-149 0 -232 83 -232 227
c0 155 110 353 331 353z" />
    <glyph glyph-name="ccaron.smcp" horiz-adv-x="597" 
d="M445 604h-156l-81 148h127l40 -76l75 76h150zM357 564c141 0 226 -70 226 -194c0 -12 -1 -25 -3 -38h-175c1 6 1 12 1 18c1 50 -24 76 -68 76c-91 0 -137 -124 -138 -204c1 -65 28 -100 78 -100c45 0 81 27 99 73h177c-43 -138 -155 -211 -296 -211
c-149 0 -232 83 -232 227c0 155 110 353 331 353z" />
    <glyph glyph-name="ccedilla.smcp" horiz-adv-x="597" 
d="M580 332h-175c1 6 1 12 1 18c1 50 -24 76 -68 76c-91 0 -137 -124 -138 -204c1 -65 28 -100 78 -100c45 0 81 27 99 73h177c-40 -127 -138 -199 -264 -210l-38 -44c6 2 14 3 22 3c45 0 74 -26 74 -71c0 -60 -63 -105 -146 -105c-42 0 -82 11 -113 32l30 53
c27 -15 54 -22 80 -22c31 0 51 14 51 35c0 18 -12 29 -35 29c-11 0 -23 -2 -33 -6l-26 24l64 73c-125 13 -194 94 -194 225c0 155 110 353 331 353c141 0 226 -70 226 -194c0 -12 -1 -25 -3 -38z" />
    <glyph glyph-name="ccircumflex.smcp" horiz-adv-x="597" 
d="M564 604h-127l-40 76l-76 -76h-150l155 148h156zM357 564c141 0 226 -70 226 -194c0 -12 -1 -25 -3 -38h-175c1 6 1 12 1 18c1 50 -24 76 -68 76c-91 0 -137 -124 -138 -204c1 -65 28 -100 78 -100c45 0 81 27 99 73h177c-43 -138 -155 -211 -296 -211
c-149 0 -232 83 -232 227c0 155 110 353 331 353z" />
    <glyph glyph-name="cdotaccent.smcp" horiz-adv-x="597" 
d="M455 621h-166l33 131h166zM357 564c141 0 226 -70 226 -194c0 -12 -1 -25 -3 -38h-175c1 6 1 12 1 18c1 50 -24 76 -68 76c-91 0 -137 -124 -138 -204c1 -65 28 -100 78 -100c45 0 81 27 99 73h177c-43 -138 -155 -211 -296 -211c-149 0 -232 83 -232 227
c0 155 110 353 331 353z" />
    <glyph glyph-name="d.smcp" horiz-adv-x="635" 
d="M136 548h186c185 0 282 -87 282 -243c0 -139 -97 -305 -338 -305h-266zM272 413l-70 -278h74c112 0 156 92 156 166s-40 112 -120 112h-40z" />
    <glyph glyph-name="eth.smcp" horiz-adv-x="645" 
d="M146 548h186c184 0 281 -87 281 -243c0 -139 -96 -305 -337 -305h-266l57 229h-59l23 96h60zM208 131h77c116 0 160 95 160 170s-41 116 -123 116h-43l-23 -92h102l-24 -96h-102z" />
    <glyph glyph-name="dcaron.smcp" horiz-adv-x="635" 
d="M450 604h-156l-81 148h127l40 -76l75 76h150zM136 548h186c185 0 282 -87 282 -243c0 -139 -97 -305 -338 -305h-266zM272 413l-70 -278h74c112 0 156 92 156 166s-40 112 -120 112h-40z" />
    <glyph glyph-name="dcroat.smcp" horiz-adv-x="645" 
d="M146 548h186c184 0 281 -87 281 -243c0 -139 -96 -305 -337 -305h-266l57 229h-59l23 96h60zM208 131h77c116 0 160 95 160 170s-41 116 -123 116h-43l-23 -92h102l-24 -96h-102z" />
    <glyph glyph-name="e.smcp" horiz-adv-x="535" 
d="M529 418h-260l-20 -79h241l-32 -126h-240l-21 -83h265l-33 -130h-424l136 548h421z" />
    <glyph glyph-name="eacute.smcp" horiz-adv-x="535" 
d="M405 604h-135l109 148h197zM529 418h-260l-20 -79h241l-32 -126h-240l-21 -83h265l-33 -130h-424l136 548h421z" />
    <glyph glyph-name="ebreve.smcp" horiz-adv-x="535" 
d="M464 752h117c-27 -98 -104 -154 -211 -154c-95 0 -148 45 -148 123c0 10 1 20 3 31h95c-1 -5 -1 -8 -1 -12c0 -30 21 -46 60 -46c44 0 74 21 85 58zM529 418h-260l-20 -79h241l-32 -126h-240l-21 -83h265l-33 -130h-424l136 548h421z" />
    <glyph glyph-name="ecaron.smcp" horiz-adv-x="535" 
d="M444 604h-156l-81 148h127l40 -76l75 76h150zM529 418h-260l-20 -79h241l-32 -126h-240l-21 -83h265l-33 -130h-424l136 548h421z" />
    <glyph glyph-name="ecircumflex.smcp" horiz-adv-x="535" 
d="M562 604h-127l-40 76l-76 -76h-150l155 148h156zM529 418h-260l-20 -79h241l-32 -126h-240l-21 -83h265l-33 -130h-424l136 548h421z" />
    <glyph glyph-name="edieresis.smcp" horiz-adv-x="535" 
d="M328 621h-143l33 131h142zM554 621h-142l32 131h143zM529 418h-260l-20 -79h241l-32 -126h-240l-21 -83h265l-33 -130h-424l136 548h421z" />
    <glyph glyph-name="edotaccent.smcp" horiz-adv-x="535" 
d="M453 621h-166l33 131h166zM529 418h-260l-20 -79h241l-32 -126h-240l-21 -83h265l-33 -130h-424l136 548h421z" />
    <glyph glyph-name="egrave.smcp" horiz-adv-x="535" 
d="M414 752l48 -148h-121l-111 148h184zM529 418h-260l-20 -79h241l-32 -126h-240l-21 -83h265l-33 -130h-424l136 548h421z" />
    <glyph glyph-name="emacron.smcp" horiz-adv-x="535" 
d="M552 629h-360l26 103h359zM529 418h-260l-20 -79h241l-32 -126h-240l-21 -83h265l-33 -130h-424l136 548h421z" />
    <glyph glyph-name="eogonek.smcp" horiz-adv-x="535" 
d="M269 418l-20 -79h241l-32 -126h-240l-21 -83h265l-33 -130c-71 -40 -85 -66 -85 -89c0 -13 8 -20 26 -20c12 0 25 3 36 7l-22 -86c-23 -7 -53 -11 -84 -11c-76 0 -112 28 -112 78c0 47 36 84 112 121h-295l136 548h421l-33 -130h-260z" />
    <glyph glyph-name="f.smcp" horiz-adv-x="500" 
d="M518 415h-250l-25 -101h232l-33 -133h-232l-45 -181h-160l136 548h409z" />
    <glyph glyph-name="fi.smcp" horiz-adv-x="805" 
d="M518 415h-250l-25 -101h232l-33 -133h-232l-45 -181h-160l136 548h409zM675 0h-170l136 548h170z" />
    <glyph glyph-name="fl.smcp" horiz-adv-x="999" 
d="M518 415h-250l-25 -101h232l-33 -133h-232l-45 -181h-160l136 548h409zM709 141h253l-35 -141h-422l136 548h170z" />
    <glyph glyph-name="g.smcp" horiz-adv-x="633" 
d="M379 564c141 0 223 -70 223 -181c0 -7 0 -14 -1 -22h-177v4c0 44 -25 68 -73 68c-101 0 -151 -130 -151 -217c0 -70 32 -108 89 -108c56 0 95 31 110 79h-111l29 118h268l-75 -305h-143l9 39h-2c-40 -36 -92 -52 -150 -52c-128 0 -200 80 -200 217c0 162 116 360 355 360
z" />
    <glyph glyph-name="gbreve.smcp" horiz-adv-x="633" 
d="M478 752h117c-27 -98 -104 -154 -211 -154c-95 0 -148 45 -148 123c0 10 1 20 3 31h95c-1 -5 -1 -8 -1 -12c0 -30 21 -46 60 -46c44 0 74 21 85 58zM379 564c141 0 223 -70 223 -181c0 -7 0 -14 -1 -22h-177v4c0 44 -25 68 -73 68c-101 0 -151 -130 -151 -217
c0 -70 32 -108 89 -108c56 0 95 31 110 79h-111l29 118h268l-75 -305h-143l9 39h-2c-40 -36 -92 -52 -150 -52c-128 0 -200 80 -200 217c0 162 116 360 355 360z" />
    <glyph glyph-name="gcircumflex.smcp" horiz-adv-x="633" 
d="M577 604h-127l-40 76l-76 -76h-150l155 148h156zM379 564c141 0 223 -70 223 -181c0 -7 0 -14 -1 -22h-177v4c0 44 -25 68 -73 68c-101 0 -151 -130 -151 -217c0 -70 32 -108 89 -108c56 0 95 31 110 79h-111l29 118h268l-75 -305h-143l9 39h-2c-40 -36 -92 -52 -150 -52
c-128 0 -200 80 -200 217c0 162 116 360 355 360z" />
    <glyph glyph-name="gcommaaccent.smcp" horiz-adv-x="633" 
d="M379 564c141 0 223 -70 223 -181c0 -7 0 -14 -1 -22h-177v4c0 44 -25 68 -73 68c-101 0 -151 -130 -151 -217c0 -70 32 -108 89 -108c56 0 95 31 110 79h-111l29 118h268l-75 -305h-143l9 39h-2c-40 -36 -92 -52 -150 -52c-128 0 -200 80 -200 217c0 162 116 360 355 360
zM291 -166l-98 -109h-63l73 109h-46l28 112h134z" />
    <glyph glyph-name="gdotaccent.smcp" horiz-adv-x="633" 
d="M468 621h-166l33 131h166zM379 564c141 0 223 -70 223 -181c0 -7 0 -14 -1 -22h-177v4c0 44 -25 68 -73 68c-101 0 -151 -130 -151 -217c0 -70 32 -108 89 -108c56 0 95 31 110 79h-111l29 118h268l-75 -305h-143l9 39h-2c-40 -36 -92 -52 -150 -52
c-128 0 -200 80 -200 217c0 162 116 360 355 360z" />
    <glyph glyph-name="h.smcp" horiz-adv-x="663" 
d="M532 0h-170l53 212h-188l-52 -212h-170l136 548h170l-49 -196h188l48 196h170z" />
    <glyph glyph-name="hbar.smcp" horiz-adv-x="663" 
d="M680 431h-41l-107 -431h-170l53 212h-188l-52 -212h-170l107 431h-41l17 68h41l12 49h170l-12 -49h187l12 49h170l-12 -49h41zM469 431h-187l-20 -79h188z" />
    <glyph glyph-name="hcircumflex.smcp" horiz-adv-x="663" 
d="M615 604h-127l-40 76l-76 -76h-150l155 148h156zM532 0h-170l53 212h-188l-52 -212h-170l136 548h170l-49 -196h188l48 196h170z" />
    <glyph glyph-name="i.smcp" horiz-adv-x="306" 
d="M175 0h-170l136 548h170z" />
    <glyph glyph-name="iacute.smcp" horiz-adv-x="306" 
d="M279 604h-135l109 148h197zM175 0h-170l136 548h170z" />
    <glyph glyph-name="ibreve.smcp" horiz-adv-x="306" 
d="M328 752h111c-27 -98 -97 -154 -196 -154c-85 0 -132 44 -132 119c0 12 2 24 4 35h93c-1 -5 -1 -9 -1 -14c0 -28 16 -44 48 -44c38 0 62 21 73 58zM175 0h-170l136 548h170z" />
    <glyph glyph-name="icircumflex.smcp" horiz-adv-x="306" 
d="M422 606h-121l-33 71l-68 -71h-140l144 146h146zM175 0h-170l136 548h170z" />
    <glyph glyph-name="idieresis.smcp" horiz-adv-x="306" 
d="M221 621h-133l33 131h132zM401 621h-132l32 131h133zM175 0h-170l136 548h170z" />
    <glyph glyph-name="idotaccent.smcp" horiz-adv-x="306" 
d="M327 621h-166l33 131h166zM175 0h-170l136 548h170z" />
    <glyph glyph-name="igrave.smcp" horiz-adv-x="306" 
d="M288 752l48 -148h-121l-111 148h184zM175 0h-170l136 548h170z" />
    <glyph glyph-name="ij.smcp" horiz-adv-x="669" 
d="M175 0h-170l136 548h170zM679 548l-89 -359c-34 -135 -113 -196 -255 -196c-29 0 -58 4 -79 10l34 134c10 -2 23 -3 31 -3c63 0 92 25 115 115l74 299h169z" />
    <glyph glyph-name="imacron.smcp" horiz-adv-x="306" 
d="M395 629h-299l26 103h299zM175 0h-170l136 548h170z" />
    <glyph glyph-name="iogonek.smcp" horiz-adv-x="306" 
d="M311 548l-136 -548c-71 -40 -85 -66 -85 -89c0 -13 8 -20 26 -20c12 0 25 3 36 7l-22 -86c-23 -7 -53 -11 -84 -11c-76 0 -112 28 -112 78c0 47 36 84 112 121h-41l136 548h170z" />
    <glyph glyph-name="itilde.smcp" horiz-adv-x="306" 
d="M367 752h87c-26 -88 -76 -143 -144 -143c-58 0 -78 43 -114 43c-22 0 -36 -15 -46 -43h-87c26 88 75 143 143 143c58 0 80 -43 115 -43c22 0 36 14 46 43zM175 0h-170l136 548h170z" />
    <glyph glyph-name="j.smcp" horiz-adv-x="364" 
d="M373 548l-89 -359c-34 -135 -113 -196 -255 -196c-29 0 -58 4 -79 10l34 134c10 -2 23 -3 31 -3c63 0 92 25 115 115l74 299h169z" />
    <glyph glyph-name="jcircumflex.smcp" horiz-adv-x="364" 
d="M481 606h-121l-33 71l-68 -71h-140l144 146h146zM373 548l-89 -359c-34 -135 -113 -196 -255 -196c-29 0 -58 4 -79 10l34 134c10 -2 23 -3 31 -3c63 0 92 25 115 115l74 299h169z" />
    <glyph glyph-name="k.smcp" 
d="M396 280l140 -280h-192l-108 257h-3l-63 -257h-170l136 548h170l-54 -218h2l185 218h220z" />
    <glyph glyph-name="kcommaaccent.smcp" 
d="M396 280l140 -280h-192l-108 257h-3l-63 -257h-170l136 548h170l-54 -218h2l185 218h220zM274 -166l-98 -109h-63l73 109h-46l28 112h134z" />
    <glyph glyph-name="l.smcp" horiz-adv-x="499" 
d="M209 141h253l-35 -141h-422l136 548h170z" />
    <glyph glyph-name="lacute.smcp" horiz-adv-x="499" 
d="M310 604h-135l109 148h197zM209 141h253l-35 -141h-422l136 548h170z" />
    <glyph glyph-name="lcaron.smcp" horiz-adv-x="499" 
d="M209 141h253l-35 -141h-422l136 548h170zM396 370h-94l68 178h130z" />
    <glyph glyph-name="lcommaaccent.smcp" horiz-adv-x="499" 
d="M209 141h253l-35 -141h-422l136 548h170zM229 -166l-98 -109h-63l73 109h-46l28 112h134z" />
    <glyph glyph-name="ldot.smcp" horiz-adv-x="562" 
d="M209 141h253l-35 -141h-422l136 548h170zM521 277h-163l43 170h163z" />
    <glyph glyph-name="j.acute.loclNLD.smcp" horiz-adv-x="364" 
d="M339 604h-135l109 148h197zM373 548l-89 -359c-34 -135 -113 -196 -255 -196c-29 0 -58 4 -79 10l34 134c10 -2 23 -3 31 -3c63 0 92 25 115 115l74 299h169z" />
    <glyph glyph-name="lslash.smcp" horiz-adv-x="501" 
d="M464 141l-35 -141h-421l53 213l-70 -34l28 112l70 34l55 223h169l-34 -138l118 58l-28 -112l-118 -57l-39 -158h252z" />
    <glyph glyph-name="m.smcp" horiz-adv-x="900" 
d="M769 0h-160l65 261c17 67 34 133 55 199h-2c-31 -65 -64 -132 -97 -196l-139 -264h-207l-8 264c-1 64 -1 131 1 196h-2c-13 -66 -28 -132 -44 -199l-65 -261h-161l136 548h266l6 -232c2 -66 1 -133 -3 -200h2c26 67 57 134 91 200l121 232h281z" />
    <glyph glyph-name="n.smcp" horiz-adv-x="718" 
d="M581 0h-239l-44 208c-14 68 -27 140 -36 209h-2c-13 -73 -30 -146 -48 -220l-49 -197h-163l136 548h240l44 -208c14 -68 27 -140 35 -209h3c13 73 29 146 48 220l49 197h162z" />
    <glyph glyph-name="nacute.smcp" horiz-adv-x="718" 
d="M470 604h-135l109 148h197zM581 0h-239l-44 208c-14 68 -27 140 -36 209h-2c-13 -73 -30 -146 -48 -220l-49 -197h-163l136 548h240l44 -208c14 -68 27 -140 35 -209h3c13 73 29 146 48 220l49 197h162z" />
    <glyph glyph-name="ncaron.smcp" horiz-adv-x="718" 
d="M509 604h-156l-81 148h127l40 -76l75 76h150zM581 0h-239l-44 208c-14 68 -27 140 -36 209h-2c-13 -73 -30 -146 -48 -220l-49 -197h-163l136 548h240l44 -208c14 -68 27 -140 35 -209h3c13 73 29 146 48 220l49 197h162z" />
    <glyph glyph-name="ncommaaccent.smcp" horiz-adv-x="718" 
d="M581 0h-239l-44 208c-14 68 -27 140 -36 209h-2c-13 -73 -30 -146 -48 -220l-49 -197h-163l136 548h240l44 -208c14 -68 27 -140 35 -209h3c13 73 29 146 48 220l49 197h162zM326 -166l-98 -109h-63l73 109h-46l28 112h134z" />
    <glyph glyph-name="eng.smcp" horiz-adv-x="666" 
d="M665 548l-141 -570c-26 -102 -103 -145 -194 -145c-35 0 -64 4 -86 11l26 106c6 -2 13 -3 23 -3c40 0 63 22 63 57c0 17 -4 30 -18 71l-47 144c-17 50 -30 104 -41 158h-2c-9 -61 -22 -122 -37 -183l-48 -194h-163l136 548h196l55 -165c16 -51 31 -105 42 -158h2
c9 61 22 121 37 182l35 141h162z" />
    <glyph glyph-name="ntilde.smcp" horiz-adv-x="718" 
d="M573 752h90c-26 -88 -79 -143 -151 -143c-67 0 -88 43 -130 43c-27 0 -43 -15 -54 -43h-90c25 88 78 143 151 143c67 0 89 -43 130 -43c27 0 43 14 54 43zM581 0h-239l-44 208c-14 68 -27 140 -36 209h-2c-13 -73 -30 -146 -48 -220l-49 -197h-163l136 548h240l44 -208
c14 -68 27 -140 35 -209h3c13 73 29 146 48 220l49 197h162z" />
    <glyph glyph-name="o.smcp" horiz-adv-x="632" 
d="M352 564c158 0 248 -98 248 -257c0 -141 -106 -323 -320 -323c-159 0 -248 98 -248 257c0 141 105 323 320 323zM341 426c-96 0 -139 -119 -139 -194c0 -71 31 -110 88 -110c98 0 140 119 140 194c0 71 -30 110 -89 110z" />
    <glyph glyph-name="oacute.smcp" horiz-adv-x="632" 
d="M417 604h-135l109 148h197zM352 564c158 0 248 -98 248 -257c0 -141 -106 -323 -320 -323c-159 0 -248 98 -248 257c0 141 105 323 320 323zM341 426c-96 0 -139 -119 -139 -194c0 -71 31 -110 88 -110c98 0 140 119 140 194c0 71 -30 110 -89 110z" />
    <glyph glyph-name="obreve.smcp" horiz-adv-x="632" 
d="M476 752h117c-27 -98 -104 -154 -211 -154c-95 0 -148 45 -148 123c0 10 1 20 3 31h95c-1 -5 -1 -8 -1 -12c0 -30 21 -46 60 -46c44 0 74 21 85 58zM352 564c158 0 248 -98 248 -257c0 -141 -106 -323 -320 -323c-159 0 -248 98 -248 257c0 141 105 323 320 323zM341 426
c-96 0 -139 -119 -139 -194c0 -71 31 -110 88 -110c98 0 140 119 140 194c0 71 -30 110 -89 110z" />
    <glyph glyph-name="ocircumflex.smcp" horiz-adv-x="632" 
d="M575 604h-127l-40 76l-76 -76h-150l155 148h156zM352 564c158 0 248 -98 248 -257c0 -141 -106 -323 -320 -323c-159 0 -248 98 -248 257c0 141 105 323 320 323zM341 426c-96 0 -139 -119 -139 -194c0 -71 31 -110 88 -110c98 0 140 119 140 194c0 71 -30 110 -89 110z
" />
    <glyph glyph-name="odieresis.smcp" horiz-adv-x="632" 
d="M341 621h-143l33 131h142zM567 621h-142l32 131h143zM352 564c158 0 248 -98 248 -257c0 -141 -106 -323 -320 -323c-159 0 -248 98 -248 257c0 141 105 323 320 323zM341 426c-96 0 -139 -119 -139 -194c0 -71 31 -110 88 -110c98 0 140 119 140 194
c0 71 -30 110 -89 110z" />
    <glyph glyph-name="ograve.smcp" horiz-adv-x="632" 
d="M426 752l48 -148h-121l-111 148h184zM352 564c158 0 248 -98 248 -257c0 -141 -106 -323 -320 -323c-159 0 -248 98 -248 257c0 141 105 323 320 323zM341 426c-96 0 -139 -119 -139 -194c0 -71 31 -110 88 -110c98 0 140 119 140 194c0 71 -30 110 -89 110z" />
    <glyph glyph-name="ohungarumlaut.smcp" horiz-adv-x="632" 
d="M318 604h-130l129 148h172zM524 604h-130l128 148h173zM352 564c158 0 248 -98 248 -257c0 -141 -106 -323 -320 -323c-159 0 -248 98 -248 257c0 141 105 323 320 323zM341 426c-96 0 -139 -119 -139 -194c0 -71 31 -110 88 -110c98 0 140 119 140 194
c0 71 -30 110 -89 110z" />
    <glyph glyph-name="omacron.smcp" horiz-adv-x="632" 
d="M565 629h-360l26 103h359zM352 564c158 0 248 -98 248 -257c0 -141 -106 -323 -320 -323c-159 0 -248 98 -248 257c0 141 105 323 320 323zM341 426c-96 0 -139 -119 -139 -194c0 -71 31 -110 88 -110c98 0 140 119 140 194c0 71 -30 110 -89 110z" />
    <glyph glyph-name="oslash.smcp" horiz-adv-x="634" 
d="M620 517l-58 -57c25 -40 38 -92 38 -153c0 -141 -106 -323 -320 -323c-64 0 -117 16 -158 46l-55 -54l-56 57l58 56c-24 41 -37 92 -37 152c0 141 105 323 320 323c63 0 116 -16 156 -45l56 55zM341 430c-101 0 -145 -123 -145 -198c0 -7 0 -14 1 -21l204 200
c-15 12 -35 19 -60 19zM290 118c102 0 146 122 146 198c0 8 0 16 -1 24l-206 -201c15 -14 36 -21 61 -21z" />
    <glyph glyph-name="otilde.smcp" horiz-adv-x="632" 
d="M520 752h90c-26 -88 -79 -143 -151 -143c-67 0 -88 43 -130 43c-27 0 -43 -15 -54 -43h-90c25 88 78 143 151 143c67 0 89 -43 130 -43c27 0 43 14 54 43zM352 564c158 0 248 -98 248 -257c0 -141 -106 -323 -320 -323c-159 0 -248 98 -248 257c0 141 105 323 320 323z
M341 426c-96 0 -139 -119 -139 -194c0 -71 31 -110 88 -110c98 0 140 119 140 194c0 71 -30 110 -89 110z" />
    <glyph glyph-name="oe.smcp" horiz-adv-x="839" 
d="M834 418h-261l-20 -79h241l-31 -126h-241l-20 -83h264l-32 -130h-418c-186 0 -284 87 -284 243c0 139 97 305 340 305h494zM417 418h-53c-115 0 -160 -95 -160 -171c0 -77 40 -117 120 -117h21z" />
    <glyph glyph-name="p.smcp" horiz-adv-x="577" 
d="M136 548h205c160 0 233 -68 233 -180c0 -95 -69 -207 -250 -207h-115l-39 -161h-170zM275 422l-34 -136h76c65 0 86 42 86 76c0 39 -24 60 -79 60h-49z" />
    <glyph glyph-name="thorn.smcp" horiz-adv-x="577" 
d="M287 474h35c160 0 233 -68 233 -180c0 -95 -69 -208 -250 -208h-114l-21 -86h-170l137 548h169zM256 348l-34 -136h77c65 0 85 41 85 76c0 39 -24 60 -79 60h-49z" />
    <glyph glyph-name="q.smcp" horiz-adv-x="632" 
d="M600 307c0 -84 -37 -181 -112 -247l47 -68l-92 -63l-51 74c-33 -12 -71 -19 -112 -19c-159 0 -248 98 -248 257c0 141 105 323 320 323c158 0 248 -98 248 -257zM202 227c0 -72 31 -112 91 -112c8 0 17 1 24 2l-52 76l86 59l50 -72c26 40 38 93 38 133
c0 73 -31 113 -92 113c-101 0 -145 -122 -145 -199z" />
    <glyph glyph-name="r.smcp" horiz-adv-x="598" 
d="M141 548h245c124 0 199 -41 199 -138c0 -70 -47 -138 -145 -162v-2c34 -14 47 -39 59 -105l26 -141h-171l-18 116c-9 53 -26 72 -75 72h-40l-46 -188h-170zM281 429l-31 -126h76c67 0 85 43 85 72c0 38 -27 54 -73 54h-57z" />
    <glyph glyph-name="racute.smcp" horiz-adv-x="598" 
d="M423 604h-135l109 148h197zM141 548h245c124 0 199 -41 199 -138c0 -70 -47 -138 -145 -162v-2c34 -14 47 -39 59 -105l26 -141h-171l-18 116c-9 53 -26 72 -75 72h-40l-46 -188h-170zM281 429l-31 -126h76c67 0 85 43 85 72c0 38 -27 54 -73 54h-57z" />
    <glyph glyph-name="rcaron.smcp" horiz-adv-x="598" 
d="M461 604h-156l-81 148h127l40 -76l75 76h150zM141 548h245c124 0 199 -41 199 -138c0 -70 -47 -138 -145 -162v-2c34 -14 47 -39 59 -105l26 -141h-171l-18 116c-9 53 -26 72 -75 72h-40l-46 -188h-170zM281 429l-31 -126h76c67 0 85 43 85 72c0 38 -27 54 -73 54h-57z
" />
    <glyph glyph-name="rcommaaccent.smcp" horiz-adv-x="598" 
d="M141 548h245c124 0 199 -41 199 -138c0 -70 -47 -138 -145 -162v-2c34 -14 47 -39 59 -105l26 -141h-171l-18 116c-9 53 -26 72 -75 72h-40l-46 -188h-170zM281 429l-31 -126h76c67 0 85 43 85 72c0 38 -27 54 -73 54h-57zM274 -166l-98 -109h-63l73 109h-46l28 112h134z
" />
    <glyph glyph-name="s.smcp" horiz-adv-x="543" 
d="M318 564c138 0 213 -49 213 -146c0 -11 -1 -23 -3 -36h-164c1 4 2 9 2 13c0 34 -22 53 -65 53c-46 0 -76 -21 -76 -49c0 -29 28 -39 94 -59c89 -28 167 -59 167 -163c0 -85 -80 -193 -266 -193c-146 0 -227 56 -227 155c0 12 1 24 4 39h168c-1 -6 -2 -11 -2 -16
c0 -39 26 -59 79 -59c45 0 77 22 77 52c0 33 -29 44 -88 63c-88 30 -168 59 -168 159c0 84 81 187 255 187z" />
    <glyph glyph-name="sacute.smcp" horiz-adv-x="543" 
d="M369 604h-135l109 148h197zM318 564c138 0 213 -49 213 -146c0 -11 -1 -23 -3 -36h-164c1 4 2 9 2 13c0 34 -22 53 -65 53c-46 0 -76 -21 -76 -49c0 -29 28 -39 94 -59c89 -28 167 -59 167 -163c0 -85 -80 -193 -266 -193c-146 0 -227 56 -227 155c0 12 1 24 4 39h168
c-1 -6 -2 -11 -2 -16c0 -39 26 -59 79 -59c45 0 77 22 77 52c0 33 -29 44 -88 63c-88 30 -168 59 -168 159c0 84 81 187 255 187z" />
    <glyph glyph-name="scaron.smcp" horiz-adv-x="543" 
d="M408 604h-156l-81 148h127l40 -76l75 76h150zM318 564c138 0 213 -49 213 -146c0 -11 -1 -23 -3 -36h-164c1 4 2 9 2 13c0 34 -22 53 -65 53c-46 0 -76 -21 -76 -49c0 -29 28 -39 94 -59c89 -28 167 -59 167 -163c0 -85 -80 -193 -266 -193c-146 0 -227 56 -227 155
c0 12 1 24 4 39h168c-1 -6 -2 -11 -2 -16c0 -39 26 -59 79 -59c45 0 77 22 77 52c0 33 -29 44 -88 63c-88 30 -168 59 -168 159c0 84 81 187 255 187z" />
    <glyph glyph-name="scedilla.smcp" horiz-adv-x="543" 
d="M528 382h-164c1 4 2 9 2 13c0 34 -22 53 -65 53c-46 0 -76 -21 -76 -49c0 -29 28 -39 94 -59c89 -28 167 -59 167 -163c0 -80 -70 -179 -232 -192l-38 -44c6 2 14 3 22 3c45 0 74 -26 74 -71c0 -60 -63 -105 -146 -105c-42 0 -82 11 -113 32l30 53c27 -15 54 -22 80 -22
c31 0 51 14 51 35c0 18 -12 29 -35 29c-11 0 -23 -2 -33 -6l-26 24l63 72c-123 9 -190 64 -190 154c0 12 1 24 4 39h168c-1 -6 -2 -11 -2 -16c0 -39 26 -59 79 -59c45 0 77 22 77 52c0 33 -29 44 -88 63c-88 30 -168 59 -168 159c0 84 81 187 255 187
c138 0 213 -49 213 -146c0 -11 -1 -23 -3 -36z" />
    <glyph glyph-name="scircumflex.smcp" horiz-adv-x="543" 
d="M526 604h-127l-40 76l-76 -76h-150l155 148h156zM318 564c138 0 213 -49 213 -146c0 -11 -1 -23 -3 -36h-164c1 4 2 9 2 13c0 34 -22 53 -65 53c-46 0 -76 -21 -76 -49c0 -29 28 -39 94 -59c89 -28 167 -59 167 -163c0 -85 -80 -193 -266 -193c-146 0 -227 56 -227 155
c0 12 1 24 4 39h168c-1 -6 -2 -11 -2 -16c0 -39 26 -59 79 -59c45 0 77 22 77 52c0 33 -29 44 -88 63c-88 30 -168 59 -168 159c0 84 81 187 255 187z" />
    <glyph glyph-name="scommaaccent.smcp" horiz-adv-x="543" 
d="M318 564c138 0 213 -49 213 -146c0 -11 -1 -23 -3 -36h-164c1 4 2 9 2 13c0 34 -22 53 -65 53c-46 0 -76 -21 -76 -49c0 -29 28 -39 94 -59c89 -28 167 -59 167 -163c0 -85 -80 -193 -266 -193c-146 0 -227 56 -227 155c0 12 1 24 4 39h168c-1 -6 -2 -11 -2 -16
c0 -39 26 -59 79 -59c45 0 77 22 77 52c0 33 -29 44 -88 63c-88 30 -168 59 -168 159c0 84 81 187 255 187zM247 -166l-98 -109h-63l73 109h-46l28 112h134z" />
    <glyph glyph-name="germandbls.smcp" horiz-adv-x="704" 
d="M667 441l-138 -120c70 -29 108 -79 108 -151c0 -91 -75 -186 -233 -186c-115 0 -178 43 -178 132c0 13 1 27 5 44h144c-1 -5 -2 -10 -2 -15c0 -24 15 -36 47 -36c37 0 52 26 52 53c0 45 -45 67 -128 73l25 101l93 80c-17 12 -42 19 -74 19c-79 0 -131 -46 -153 -137
l-74 -298h-165l76 307c42 169 159 257 341 257c121 0 211 -49 254 -123z" />
    <glyph glyph-name="t.smcp" horiz-adv-x="524" 
d="M553 408h-168l-101 -408h-170l102 408h-169l35 140h506z" />
    <glyph glyph-name="tbar.smcp" horiz-adv-x="524" 
d="M385 408l-27 -110h93l-24 -98h-93l-50 -200h-170l50 200h-93l24 98h94l27 110h-169l35 140h506l-35 -140h-168z" />
    <glyph glyph-name="tcaron.smcp" horiz-adv-x="524" 
d="M427 604h-156l-81 148h127l40 -76l75 76h150zM553 408h-168l-101 -408h-170l102 408h-169l35 140h506z" />
    <glyph glyph-name="tcedilla.smcp" horiz-adv-x="524" 
d="M553 408h-168l-101 -408h-170l102 408h-169l35 140h506zM224 -166l-98 -109h-63l73 109h-46l28 112h134z" />
    <glyph glyph-name="tcommaaccent.smcp" horiz-adv-x="524" 
d="M553 408h-168l-101 -408h-170l102 408h-169l35 140h506zM224 -166l-98 -109h-63l73 109h-46l28 112h134z" />
    <glyph glyph-name="u.smcp" horiz-adv-x="629" 
d="M639 548l-88 -353c-33 -135 -131 -211 -274 -211c-148 0 -224 71 -224 199c0 22 4 46 10 72l73 293h169l-78 -317c-4 -13 -5 -24 -5 -33c0 -45 24 -68 70 -68c48 0 82 29 95 83l83 335h169z" />
    <glyph glyph-name="uacute.smcp" horiz-adv-x="629" 
d="M431 604h-135l109 148h197zM639 548l-88 -353c-33 -135 -131 -211 -274 -211c-148 0 -224 71 -224 199c0 22 4 46 10 72l73 293h169l-78 -317c-4 -13 -5 -24 -5 -33c0 -45 24 -68 70 -68c48 0 82 29 95 83l83 335h169z" />
    <glyph glyph-name="ubreve.smcp" horiz-adv-x="629" 
d="M489 752h117c-27 -98 -104 -154 -211 -154c-95 0 -148 45 -148 123c0 10 1 20 3 31h95c-1 -5 -1 -8 -1 -12c0 -30 21 -46 60 -46c44 0 74 21 85 58zM639 548l-88 -353c-33 -135 -131 -211 -274 -211c-148 0 -224 71 -224 199c0 22 4 46 10 72l73 293h169l-78 -317
c-4 -13 -5 -24 -5 -33c0 -45 24 -68 70 -68c48 0 82 29 95 83l83 335h169z" />
    <glyph glyph-name="ucircumflex.smcp" horiz-adv-x="629" 
d="M588 604h-127l-40 76l-76 -76h-150l155 148h156zM639 548l-88 -353c-33 -135 -131 -211 -274 -211c-148 0 -224 71 -224 199c0 22 4 46 10 72l73 293h169l-78 -317c-4 -13 -5 -24 -5 -33c0 -45 24 -68 70 -68c48 0 82 29 95 83l83 335h169z" />
    <glyph glyph-name="udieresis.smcp" horiz-adv-x="629" 
d="M354 621h-143l33 131h142zM580 621h-142l32 131h143zM639 548l-88 -353c-33 -135 -131 -211 -274 -211c-148 0 -224 71 -224 199c0 22 4 46 10 72l73 293h169l-78 -317c-4 -13 -5 -24 -5 -33c0 -45 24 -68 70 -68c48 0 82 29 95 83l83 335h169z" />
    <glyph glyph-name="ugrave.smcp" horiz-adv-x="629" 
d="M439 752l48 -148h-121l-111 148h184zM639 548l-88 -353c-33 -135 -131 -211 -274 -211c-148 0 -224 71 -224 199c0 22 4 46 10 72l73 293h169l-78 -317c-4 -13 -5 -24 -5 -33c0 -45 24 -68 70 -68c48 0 82 29 95 83l83 335h169z" />
    <glyph glyph-name="uhungarumlaut.smcp" horiz-adv-x="629" 
d="M331 604h-130l129 148h172zM537 604h-130l128 148h173zM639 548l-88 -353c-33 -135 -131 -211 -274 -211c-148 0 -224 71 -224 199c0 22 4 46 10 72l73 293h169l-78 -317c-4 -13 -5 -24 -5 -33c0 -45 24 -68 70 -68c48 0 82 29 95 83l83 335h169z" />
    <glyph glyph-name="umacron.smcp" horiz-adv-x="629" 
d="M578 629h-360l26 103h359zM639 548l-88 -353c-33 -135 -131 -211 -274 -211c-148 0 -224 71 -224 199c0 22 4 46 10 72l73 293h169l-78 -317c-4 -13 -5 -24 -5 -33c0 -45 24 -68 70 -68c48 0 82 29 95 83l83 335h169z" />
    <glyph glyph-name="uogonek.smcp" horiz-adv-x="628" 
d="M639 548l-88 -353c-22 -86 -68 -146 -128 -192c-59 -43 -73 -68 -73 -92c0 -13 8 -20 26 -20c12 0 25 3 36 7l-22 -86c-23 -7 -53 -11 -84 -11c-76 0 -112 28 -112 78c0 39 27 72 85 103v2h-6c-144 0 -220 71 -220 199c0 22 4 46 10 72l72 293h170l-79 -317
c-3 -13 -4 -24 -4 -33c0 -45 23 -68 70 -68c48 0 81 29 94 83l83 335h170z" />
    <glyph glyph-name="uring.smcp" horiz-adv-x="629" 
d="M407 820c63 0 113 -51 113 -114c0 -62 -50 -113 -113 -113s-114 51 -114 113c0 63 51 114 114 114zM407 762c-31 0 -56 -25 -56 -56s25 -56 56 -56s56 25 56 56s-25 56 -56 56zM639 548l-88 -353c-33 -135 -131 -211 -274 -211c-148 0 -224 71 -224 199c0 22 4 46 10 72
l73 293h169l-78 -317c-4 -13 -5 -24 -5 -33c0 -45 24 -68 70 -68c48 0 82 29 95 83l83 335h169z" />
    <glyph glyph-name="utilde.smcp" horiz-adv-x="629" 
d="M533 752h90c-26 -88 -79 -143 -151 -143c-67 0 -88 43 -130 43c-27 0 -43 -15 -54 -43h-90c25 88 78 143 151 143c67 0 89 -43 130 -43c27 0 43 14 54 43zM639 548l-88 -353c-33 -135 -131 -211 -274 -211c-148 0 -224 71 -224 199c0 22 4 46 10 72l73 293h169l-78 -317
c-4 -13 -5 -24 -5 -33c0 -45 24 -68 70 -68c48 0 82 29 95 83l83 335h169z" />
    <glyph glyph-name="v.smcp" horiz-adv-x="576" 
d="M342 0h-233l-32 548h168l5 -207c2 -67 3 -137 0 -205h2c28 68 61 137 96 205l106 207h191z" />
    <glyph glyph-name="w.smcp" horiz-adv-x="867" 
d="M685 0h-234l10 219c3 68 7 136 13 205h-2c-26 -69 -54 -137 -85 -205l-99 -219h-232l24 548h158l-13 -192c-5 -72 -12 -147 -20 -220h2c29 73 60 148 93 220l90 192h219l-6 -192c-2 -73 -6 -147 -12 -220h2c26 73 55 148 85 220l83 192h172z" />
    <glyph glyph-name="wacute.smcp" horiz-adv-x="867" 
d="M544 604h-135l109 148h197zM685 0h-234l10 219c3 68 7 136 13 205h-2c-26 -69 -54 -137 -85 -205l-99 -219h-232l24 548h158l-13 -192c-5 -72 -12 -147 -20 -220h2c29 73 60 148 93 220l90 192h219l-6 -192c-2 -73 -6 -147 -12 -220h2c26 73 55 148 85 220l83 192h172z
" />
    <glyph glyph-name="wcircumflex.smcp" horiz-adv-x="867" 
d="M701 604h-127l-40 76l-76 -76h-150l155 148h156zM685 0h-234l10 219c3 68 7 136 13 205h-2c-26 -69 -54 -137 -85 -205l-99 -219h-232l24 548h158l-13 -192c-5 -72 -12 -147 -20 -220h2c29 73 60 148 93 220l90 192h219l-6 -192c-2 -73 -6 -147 -12 -220h2
c26 73 55 148 85 220l83 192h172z" />
    <glyph glyph-name="wdieresis.smcp" horiz-adv-x="867" 
d="M467 621h-143l33 131h142zM693 621h-142l32 131h143zM685 0h-234l10 219c3 68 7 136 13 205h-2c-26 -69 -54 -137 -85 -205l-99 -219h-232l24 548h158l-13 -192c-5 -72 -12 -147 -20 -220h2c29 73 60 148 93 220l90 192h219l-6 -192c-2 -73 -6 -147 -12 -220h2
c26 73 55 148 85 220l83 192h172z" />
    <glyph glyph-name="wgrave.smcp" horiz-adv-x="867" 
d="M552 752l48 -148h-121l-111 148h184zM685 0h-234l10 219c3 68 7 136 13 205h-2c-26 -69 -54 -137 -85 -205l-99 -219h-232l24 548h158l-13 -192c-5 -72 -12 -147 -20 -220h2c29 73 60 148 93 220l90 192h219l-6 -192c-2 -73 -6 -147 -12 -220h2c26 73 55 148 85 220
l83 192h172z" />
    <glyph glyph-name="x.smcp" horiz-adv-x="569" 
d="M393 277l111 -277h-173l-51 172h-2l-130 -172h-209l251 290l-104 258h169l47 -164h2l121 164h205z" />
    <glyph glyph-name="y.smcp" horiz-adv-x="558" 
d="M344 196l-49 -196h-169l49 196l-106 352h168l18 -96c9 -43 16 -88 20 -133h2c23 45 49 90 79 133l65 96h203z" />
    <glyph glyph-name="yacute.smcp" horiz-adv-x="558" 
d="M380 604h-135l109 148h197zM344 196l-49 -196h-169l49 196l-106 352h168l18 -96c9 -43 16 -88 20 -133h2c23 45 49 90 79 133l65 96h203z" />
    <glyph glyph-name="ycircumflex.smcp" horiz-adv-x="558" 
d="M537 604h-127l-40 76l-76 -76h-150l155 148h156zM344 196l-49 -196h-169l49 196l-106 352h168l18 -96c9 -43 16 -88 20 -133h2c23 45 49 90 79 133l65 96h203z" />
    <glyph glyph-name="ydieresis.smcp" horiz-adv-x="558" 
d="M303 621h-143l33 131h142zM529 621h-142l32 131h143zM344 196l-49 -196h-169l49 196l-106 352h168l18 -96c9 -43 16 -88 20 -133h2c23 45 49 90 79 133l65 96h203z" />
    <glyph glyph-name="ygrave.smcp" horiz-adv-x="558" 
d="M389 752l48 -148h-121l-111 148h184zM344 196l-49 -196h-169l49 196l-106 352h168l18 -96c9 -43 16 -88 20 -133h2c23 45 49 90 79 133l65 96h203z" />
    <glyph glyph-name="z.smcp" horiz-adv-x="494" 
d="M500 404l-297 -264v-2h244l-35 -138h-457l36 144l298 264v2h-219l34 138h432z" />
    <glyph glyph-name="zacute.smcp" horiz-adv-x="494" 
d="M354 604h-135l109 148h197zM500 404l-297 -264v-2h244l-35 -138h-457l36 144l298 264v2h-219l34 138h432z" />
    <glyph glyph-name="zcaron.smcp" horiz-adv-x="494" 
d="M392 604h-156l-81 148h127l40 -76l75 76h150zM500 404l-297 -264v-2h244l-35 -138h-457l36 144l298 264v2h-219l34 138h432z" />
    <glyph glyph-name="zdotaccent.smcp" horiz-adv-x="494" 
d="M402 621h-166l33 131h166zM500 404l-297 -264v-2h244l-35 -138h-457l36 144l298 264v2h-219l34 138h432z" />
    <glyph glyph-name="ccedilla.smcp.ss01" horiz-adv-x="597" 
d="M357 564c141 0 226 -70 226 -194c0 -12 -1 -25 -3 -38h-175c1 6 1 12 1 18c1 50 -24 76 -68 76c-91 0 -137 -124 -138 -204c1 -65 28 -100 78 -100c45 0 81 27 99 73h177c-43 -138 -155 -211 -296 -211c-149 0 -232 83 -232 227c0 155 110 353 331 353zM198 -217h-182
l175 168h140z" />
    <glyph glyph-name="scedilla.smcp.ss01" horiz-adv-x="543" 
d="M318 564c138 0 213 -49 213 -146c0 -11 -1 -23 -3 -36h-164c1 4 2 9 2 13c0 34 -22 53 -65 53c-46 0 -76 -21 -76 -49c0 -29 28 -39 94 -59c89 -28 167 -59 167 -163c0 -85 -80 -193 -266 -193c-146 0 -227 56 -227 155c0 12 1 24 4 39h168c-1 -6 -2 -11 -2 -16
c0 -39 26 -59 79 -59c45 0 77 22 77 52c0 33 -29 44 -88 63c-88 30 -168 59 -168 159c0 84 81 187 255 187zM161 -217h-182l175 168h140z" />
    <glyph glyph-name="tcedilla.smcp.ss01" horiz-adv-x="524" 
d="M553 408h-168l-101 -408h-170l102 408h-169l35 140h506zM138 -217h-182l175 168h140z" />
    <glyph glyph-name="ordfeminine" unicode="&#xaa;" horiz-adv-x="419" 
d="M297 697c109 0 158 -42 158 -116c0 -14 -2 -30 -6 -47l-25 -100c-12 -50 -16 -78 -14 -104h-121c-1 11 0 25 4 39h-2c-35 -33 -76 -49 -121 -49c-72 0 -111 40 -111 98c0 56 39 112 176 130c29 4 67 8 89 9l2 6c2 7 3 14 3 19c0 26 -15 36 -39 36c-25 0 -43 -15 -50 -45
h-130c14 66 77 124 187 124zM303 470l5 19c-17 -1 -42 -4 -60 -8c-41 -7 -53 -26 -53 -46c0 -19 13 -31 37 -31c38 0 61 27 71 66z" />
    <glyph glyph-name="ordmasculine" unicode="&#xba;" horiz-adv-x="449" 
d="M308 697c115 0 183 -64 183 -168c0 -93 -74 -210 -223 -210c-116 0 -183 64 -183 168c0 93 74 210 223 210zM301 596c-53 0 -76 -71 -76 -114c0 -39 14 -62 49 -62c54 0 76 70 76 113c0 40 -15 63 -49 63z" />
    <glyph glyph-name="Delta" unicode="&#x394;" horiz-adv-x="714" 
d="M650 0h-712l422 712h224zM474 141l-11 200c-4 85 -8 174 -9 259h-2c-41 -85 -86 -174 -133 -259l-110 -200h265z" />
    <glyph glyph-name="Omega" unicode="&#x3a9;" horiz-adv-x="747" 
d="M460 728c174 0 287 -79 287 -241c0 -136 -70 -241 -196 -339v-2h141l-36 -146h-307l37 152c111 86 171 188 171 291c0 90 -48 135 -121 135c-130 0 -196 -141 -196 -248c0 -73 22 -128 53 -178l-37 -152h-291l36 146h145v2c-44 61 -77 128 -77 216c0 164 126 364 391 364
z" />
    <glyph glyph-name="mu" unicode="&#x3bc;" horiz-adv-x="626" 
d="M613 508l-82 -330c-3 -13 -5 -23 -5 -31c0 -22 12 -30 33 -30c8 0 16 1 25 3l-30 -120c-22 -6 -47 -9 -76 -9c-64 0 -98 26 -105 75h-2c-29 -45 -79 -72 -132 -72c-30 0 -55 9 -71 26l-51 -205h-166l173 693h166l-72 -287c-4 -17 -6 -32 -6 -44c0 -42 21 -61 59 -61
c47 0 88 38 110 125l66 267h166z" />
    <glyph glyph-name="pi" unicode="&#x3c0;" horiz-adv-x="682" 
d="M698 387h-92l-47 -189c-4 -16 -7 -29 -7 -40c0 -33 16 -43 46 -43c6 0 14 0 19 1l-30 -117c-17 -5 -45 -8 -67 -8c-94 0 -141 32 -141 121c0 21 4 48 12 79l49 196h-145l-96 -387h-166l96 387h-88l30 121h657z" />
    <glyph glyph-name="zero.lf" horiz-adv-x="645" 
d="M403 690c152 0 229 -91 229 -255c0 -189 -112 -451 -349 -451c-152 0 -230 91 -230 255c0 189 113 451 350 451zM390 556c-111 0 -166 -226 -166 -321c0 -77 23 -119 70 -119c113 0 167 226 167 321c0 76 -23 119 -71 119z" />
    <glyph glyph-name="one.lf" horiz-adv-x="433" 
d="M287 0h-172l109 435h-164l31 122c116 0 177 35 209 117h155z" />
    <glyph glyph-name="two.lf" horiz-adv-x="629" 
d="M399 690c144 0 226 -71 226 -179c0 -103 -68 -183 -226 -254c-131 -59 -159 -84 -171 -120h326l-33 -137h-536c31 176 110 260 283 342c125 59 181 96 181 156c0 37 -22 59 -64 59c-53 0 -88 -34 -104 -100h-174c37 151 143 233 292 233z" />
    <glyph glyph-name="three.lf" horiz-adv-x="620" 
d="M391 690c148 0 232 -66 232 -174c0 -73 -41 -142 -156 -177v-2c60 -26 89 -69 89 -132c0 -102 -93 -221 -283 -221c-162 0 -249 65 -249 187c0 16 2 34 6 53h171c-3 -13 -4 -25 -4 -36c0 -48 29 -71 84 -71c70 0 106 49 106 87c0 46 -34 70 -101 70h-19l32 128h21
c90 0 132 49 132 93c0 39 -27 62 -75 62c-57 0 -96 -34 -112 -101h-170c35 147 143 234 296 234z" />
    <glyph glyph-name="four.lf" horiz-adv-x="623" 
d="M579 140h-104l-35 -140h-168l35 140h-321l37 148l355 386h230l-101 -405h104zM172 269h173l18 75c18 67 36 134 58 201h-2c-51 -62 -103 -123 -159 -182z" />
    <glyph glyph-name="five.lf" horiz-adv-x="623" 
d="M610 537h-310l-44 -123h2c38 25 80 37 122 37c120 0 191 -76 191 -193c0 -118 -105 -274 -314 -274c-144 0 -231 61 -231 167c0 12 1 26 5 40h171c-1 -6 -2 -12 -2 -17c0 -38 32 -60 78 -60c85 0 118 75 118 132c0 51 -29 78 -77 78c-45 0 -79 -27 -97 -65l-164 11
l139 404h447z" />
    <glyph glyph-name="six.lf" horiz-adv-x="616" 
d="M403 690c141 0 223 -66 223 -181c0 -8 0 -16 -1 -24h-171c0 4 1 8 1 11c0 42 -22 65 -65 65c-57 0 -115 -48 -150 -164h2c41 29 88 43 140 43c116 0 187 -77 187 -196c0 -112 -101 -260 -288 -260c-148 0 -231 83 -231 247c0 186 119 459 353 459zM325 319
c-71 0 -109 -69 -109 -121c0 -50 25 -83 72 -83c67 0 108 65 108 118c0 54 -25 86 -71 86z" />
    <glyph glyph-name="seven.lf" horiz-adv-x="513" 
d="M601 674l-35 -139c-132 -140 -254 -335 -338 -535h-184c100 224 239 421 355 534h-315l35 140h482z" />
    <glyph glyph-name="eight.lf" horiz-adv-x="620" 
d="M392 690c143 0 232 -69 232 -178c0 -75 -55 -154 -162 -175v-2c60 -23 96 -77 96 -145c0 -95 -90 -206 -287 -206c-153 0 -244 71 -244 193c0 78 61 164 180 185v2c-55 23 -86 72 -86 132c0 88 94 194 271 194zM379 561c-70 0 -103 -47 -103 -85c0 -43 29 -68 81 -68
c68 0 102 47 102 85c0 43 -29 68 -80 68zM308 282c-77 0 -110 -56 -110 -96c0 -45 32 -71 86 -71c72 0 111 50 111 95s-32 72 -87 72z" />
    <glyph glyph-name="nine.lf" horiz-adv-x="616" 
d="M254 -16c-141 0 -224 66 -224 181c0 8 1 16 2 25h170v-11c0 -43 22 -65 65 -65c57 0 115 47 150 164h-2c-41 -29 -89 -44 -140 -44c-117 0 -188 78 -188 197c0 112 102 259 288 259c149 0 231 -82 231 -246c0 -186 -118 -460 -352 -460zM332 355c71 0 109 70 109 121
s-25 83 -72 83c-68 0 -108 -65 -108 -118s25 -86 71 -86z" />
    <glyph glyph-name="fraction" unicode="&#x2044;" horiz-adv-x="149" 
d="M-120 0h-100l531 674h100z" />
    <glyph glyph-name="onehalf" unicode="&#xbd;" horiz-adv-x="851" 
d="M170 0h-100l531 674h100zM244 270h-128l61 244h-103l22 89c72 0 113 22 134 71h115zM668 414c98 0 152 -46 152 -111c0 -61 -42 -110 -141 -147c-79 -29 -94 -41 -101 -59h205l-23 -97h-354c18 114 69 167 174 210c72 31 115 50 115 84c0 18 -12 30 -35 30
c-28 0 -48 -19 -56 -55h-127c22 93 91 145 191 145z" />
    <glyph glyph-name="onequarter" unicode="&#xbc;" horiz-adv-x="826" 
d="M701 674l-531 -674h-100l531 674h100zM177 514h-103l22 89c72 0 113 22 134 71h115l-101 -404h-128zM772 76h-70l-19 -76h-120l19 76h-198l25 101l212 227h163l-59 -238h69zM512 166h97l10 39c8 37 19 74 32 110h-2c-26 -32 -55 -63 -84 -93z" />
    <glyph glyph-name="threequarters" unicode="&#xbe;" horiz-adv-x="940" 
d="M409 394c0 -62 -59 -134 -184 -134c-110 0 -167 40 -167 116c0 9 1 20 3 32h125c-2 -7 -3 -13 -3 -19c0 -26 18 -38 48 -38c40 0 57 25 57 43c0 24 -18 36 -57 36h-11l22 87h14c46 0 70 21 70 45c0 20 -14 32 -42 32c-33 0 -54 -20 -62 -54h-122c20 90 92 144 193 144
c100 0 156 -40 156 -107c0 -43 -25 -82 -95 -104v-2c38 -14 55 -39 55 -77zM815 674l-531 -674h-100l531 674h100zM886 76h-70l-19 -76h-120l19 76h-198l25 101l212 227h163l-59 -238h69zM626 166h97l10 39c8 37 19 74 32 110h-2c-26 -32 -55 -63 -84 -93z" />
    <glyph glyph-name="oneeighth" unicode="&#x215b;" horiz-adv-x="842" 
d="M170 0h-100l531 674h100zM244 270h-128l61 244h-103l22 89c72 0 113 22 134 71h115zM662 414c96 0 154 -44 154 -111c0 -44 -33 -91 -100 -102v-2c38 -12 62 -45 62 -87c0 -56 -55 -122 -185 -122c-104 0 -163 44 -163 117c0 49 38 100 113 109v2c-36 14 -55 44 -55 80
c0 53 58 116 174 116zM655 328c-39 0 -57 -25 -57 -44c0 -22 15 -36 44 -36c36 0 57 22 57 45c0 22 -16 35 -44 35zM613 163c-43 0 -60 -28 -60 -48c0 -23 17 -37 47 -37c38 0 60 23 60 49c0 23 -17 36 -47 36z" />
    <glyph glyph-name="threeeighths" unicode="&#x215c;" horiz-adv-x="956" 
d="M293 684c100 0 156 -40 156 -107c0 -43 -25 -82 -95 -104v-2c38 -14 55 -39 55 -77c0 -62 -59 -134 -184 -134c-110 0 -167 40 -167 116c0 9 1 20 3 32h125c-2 -7 -3 -13 -3 -19c0 -26 18 -38 48 -38c40 0 57 25 57 43c0 24 -18 36 -57 36h-11l22 87h14c46 0 70 21 70 45
c0 20 -14 32 -42 32c-33 0 -54 -20 -62 -54h-122c20 90 92 144 193 144zM284 0h-100l531 674h100zM776 414c96 0 154 -44 154 -111c0 -44 -33 -91 -100 -102v-2c38 -12 62 -45 62 -87c0 -56 -55 -122 -185 -122c-104 0 -163 44 -163 117c0 49 38 100 113 109v2
c-36 14 -55 44 -55 80c0 53 58 116 174 116zM769 328c-39 0 -57 -25 -57 -44c0 -22 15 -36 44 -36c36 0 57 22 57 45c0 22 -16 35 -44 35zM727 163c-43 0 -60 -28 -60 -48c0 -23 17 -37 47 -37c38 0 60 23 60 49c0 23 -17 36 -47 36z" />
    <glyph glyph-name="fiveeighths" unicode="&#x215d;" horiz-adv-x="957" 
d="M434 577h-195l-22 -57h2c24 14 50 22 77 22c75 0 121 -47 121 -117s-67 -165 -203 -165c-96 0 -155 38 -155 106c0 7 1 15 3 23h124c-1 -2 -2 -5 -2 -8c0 -21 18 -33 44 -33c45 0 64 37 64 68c0 27 -16 41 -42 41s-45 -15 -54 -36l-118 8l85 245h294zM285 0h-100l531 674
h100zM777 414c96 0 154 -44 154 -111c0 -44 -33 -91 -100 -102v-2c38 -12 62 -45 62 -87c0 -56 -55 -122 -185 -122c-104 0 -163 44 -163 117c0 49 38 100 113 109v2c-36 14 -55 44 -55 80c0 53 58 116 174 116zM770 328c-39 0 -57 -25 -57 -44c0 -22 15 -36 44 -36
c36 0 57 22 57 45c0 22 -16 35 -44 35zM728 163c-43 0 -60 -28 -60 -48c0 -23 17 -37 47 -37c38 0 60 23 60 49c0 23 -17 36 -47 36z" />
    <glyph glyph-name="seveneighths" unicode="&#x215e;" horiz-adv-x="863" 
d="M455 674l-23 -94c-81 -83 -152 -197 -201 -310h-142c57 119 137 233 211 304h-211l24 100h342zM192 0h-100l531 674h100zM684 414c96 0 154 -44 154 -111c0 -44 -33 -91 -100 -102v-2c38 -12 62 -45 62 -87c0 -56 -55 -122 -185 -122c-104 0 -163 44 -163 117
c0 49 38 100 113 109v2c-36 14 -55 44 -55 80c0 53 58 116 174 116zM677 328c-39 0 -57 -25 -57 -44c0 -22 15 -36 44 -36c36 0 57 22 57 45c0 22 -16 35 -44 35zM635 163c-43 0 -60 -28 -60 -48c0 -23 17 -37 47 -37c38 0 60 23 60 49c0 23 -17 36 -47 36z" />
    <glyph glyph-name="zero.dnom" horiz-adv-x="418" 
d="M230 414c102 0 154 -57 154 -159c0 -115 -71 -265 -223 -265c-102 0 -154 57 -154 160c0 114 72 264 223 264zM222 324c-63 0 -93 -128 -93 -180c0 -41 14 -64 40 -64c63 0 93 127 93 180c0 41 -13 64 -40 64z" />
    <glyph glyph-name="one.dnom" horiz-adv-x="290" 
d="M177 0h-128l61 244h-103l22 89c72 0 113 22 134 71h115z" />
    <glyph glyph-name="two.dnom" horiz-adv-x="412" 
d="M229 414c98 0 152 -46 152 -111c0 -61 -42 -110 -141 -147c-79 -29 -94 -41 -101 -59h205l-23 -97h-354c18 114 69 167 174 210c72 31 115 50 115 84c0 18 -12 30 -35 30c-28 0 -48 -19 -56 -55h-127c22 93 91 145 191 145z" />
    <glyph glyph-name="three.dnom" horiz-adv-x="404" 
d="M225 414c100 0 156 -40 156 -107c0 -43 -25 -82 -95 -104v-2c38 -14 55 -39 55 -77c0 -62 -59 -134 -184 -134c-110 0 -167 40 -167 116c0 9 1 20 3 32h125c-2 -7 -3 -13 -3 -19c0 -26 18 -38 48 -38c40 0 57 25 57 43c0 24 -18 36 -57 36h-11l22 87h14c46 0 70 21 70 45
c0 20 -14 32 -42 32c-33 0 -54 -20 -62 -54h-122c20 90 92 144 193 144z" />
    <glyph glyph-name="four.dnom" horiz-adv-x="407" 
d="M353 76h-70l-19 -76h-120l19 76h-198l25 101l212 227h163l-59 -238h69zM93 166h97l10 39c8 37 19 74 32 110h-2c-26 -32 -55 -63 -84 -93z" />
    <glyph glyph-name="five.dnom" horiz-adv-x="405" 
d="M366 307h-195l-22 -57h2c24 14 50 22 77 22c75 0 121 -47 121 -117s-67 -165 -203 -165c-96 0 -155 38 -155 106c0 7 1 15 3 23h124c-1 -2 -2 -5 -2 -8c0 -21 18 -33 44 -33c45 0 64 37 64 68c0 27 -16 41 -42 41s-45 -15 -54 -36l-118 8l85 245h294z" />
    <glyph glyph-name="six.dnom" horiz-adv-x="401" 
d="M230 414c95 0 151 -40 151 -110c0 -5 0 -11 -1 -17h-123v6c0 22 -11 35 -36 35c-31 0 -61 -26 -80 -87h1c25 16 54 23 86 23c74 0 120 -47 120 -118c0 -68 -64 -156 -184 -156c-101 0 -158 53 -158 157c0 111 76 267 224 267zM184 183c-36 0 -57 -33 -57 -62
c0 -24 14 -41 40 -41c34 0 58 28 58 60c0 25 -15 43 -41 43z" />
    <glyph glyph-name="seven.dnom" horiz-adv-x="362" 
d="M388 404l-23 -94c-81 -83 -152 -197 -201 -310h-142c57 119 137 233 211 304h-211l24 100h342z" />
    <glyph glyph-name="eight.dnom" horiz-adv-x="403" 
d="M223 414c96 0 154 -44 154 -111c0 -44 -33 -91 -100 -102v-2c38 -12 62 -45 62 -87c0 -56 -55 -122 -185 -122c-104 0 -163 44 -163 117c0 49 38 100 113 109v2c-36 14 -55 44 -55 80c0 53 58 116 174 116zM216 328c-39 0 -57 -25 -57 -44c0 -22 15 -36 44 -36
c36 0 57 22 57 45c0 22 -16 35 -44 35zM174 163c-43 0 -60 -28 -60 -48c0 -23 17 -37 47 -37c38 0 60 23 60 49c0 23 -17 36 -47 36z" />
    <glyph glyph-name="nine.dnom" horiz-adv-x="401" 
d="M145 -10c-95 0 -151 40 -151 110c0 5 0 11 1 17h123v-6c0 -22 12 -35 36 -35c31 0 61 26 81 87h-2c-25 -16 -53 -23 -85 -23c-74 0 -120 47 -120 118c0 68 64 156 183 156c101 0 158 -53 158 -157c0 -111 -75 -267 -224 -267zM191 221c36 0 57 33 57 62
c0 24 -14 41 -40 41c-34 0 -58 -28 -58 -60c0 -25 15 -43 41 -43z" />
    <glyph glyph-name="zero.numr" horiz-adv-x="418" 
d="M298 684c102 0 154 -57 154 -159c0 -115 -71 -265 -223 -265c-102 0 -154 57 -154 160c0 114 72 264 223 264zM290 594c-63 0 -93 -128 -93 -180c0 -41 14 -64 40 -64c63 0 93 127 93 180c0 41 -13 64 -40 64z" />
    <glyph glyph-name="one.numr" horiz-adv-x="290" 
d="M244 270h-128l61 244h-103l22 89c72 0 113 22 134 71h115z" />
    <glyph glyph-name="two.numr" horiz-adv-x="412" 
d="M296 684c98 0 152 -46 152 -111c0 -61 -42 -110 -141 -147c-79 -29 -94 -41 -101 -59h205l-23 -97h-354c18 114 69 167 174 210c72 31 115 50 115 84c0 18 -12 30 -35 30c-28 0 -48 -19 -56 -55h-127c22 93 91 145 191 145z" />
    <glyph glyph-name="three.numr" horiz-adv-x="404" 
d="M293 684c100 0 156 -40 156 -107c0 -43 -25 -82 -95 -104v-2c38 -14 55 -39 55 -77c0 -62 -59 -134 -184 -134c-110 0 -167 40 -167 116c0 9 1 20 3 32h125c-2 -7 -3 -13 -3 -19c0 -26 18 -38 48 -38c40 0 57 25 57 43c0 24 -18 36 -57 36h-11l22 87h14c46 0 70 21 70 45
c0 20 -14 32 -42 32c-33 0 -54 -20 -62 -54h-122c20 90 92 144 193 144z" />
    <glyph glyph-name="four.numr" horiz-adv-x="407" 
d="M420 346h-70l-19 -76h-120l19 76h-198l25 101l212 227h163l-59 -238h69zM160 436h97l10 39c8 37 19 74 32 110h-2c-26 -32 -55 -63 -84 -93z" />
    <glyph glyph-name="five.numr" horiz-adv-x="405" 
d="M434 577h-195l-22 -57h2c24 14 50 22 77 22c75 0 121 -47 121 -117s-67 -165 -203 -165c-96 0 -155 38 -155 106c0 7 1 15 3 23h124c-1 -2 -2 -5 -2 -8c0 -21 18 -33 44 -33c45 0 64 37 64 68c0 27 -16 41 -42 41s-45 -15 -54 -36l-118 8l85 245h294z" />
    <glyph glyph-name="six.numr" horiz-adv-x="401" 
d="M297 684c95 0 151 -40 151 -110c0 -5 0 -11 -1 -17h-123v6c0 22 -11 35 -36 35c-31 0 -61 -26 -80 -87h1c25 16 54 23 86 23c74 0 120 -47 120 -118c0 -68 -64 -156 -184 -156c-101 0 -158 53 -158 157c0 111 76 267 224 267zM251 453c-36 0 -57 -33 -57 -62
c0 -24 14 -41 40 -41c34 0 58 28 58 60c0 25 -15 43 -41 43z" />
    <glyph glyph-name="seven.numr" horiz-adv-x="362" 
d="M455 674l-23 -94c-81 -83 -152 -197 -201 -310h-142c57 119 137 233 211 304h-211l24 100h342z" />
    <glyph glyph-name="eight.numr" horiz-adv-x="403" 
d="M290 684c96 0 154 -44 154 -111c0 -44 -33 -91 -100 -102v-2c38 -12 62 -45 62 -87c0 -56 -55 -122 -185 -122c-104 0 -163 44 -163 117c0 49 38 100 113 109v2c-36 14 -55 44 -55 80c0 53 58 116 174 116zM283 598c-39 0 -57 -25 -57 -44c0 -22 15 -36 44 -36
c36 0 57 22 57 45c0 22 -16 35 -44 35zM241 433c-43 0 -60 -28 -60 -48c0 -23 17 -37 47 -37c38 0 60 23 60 49c0 23 -17 36 -47 36z" />
    <glyph glyph-name="nine.numr" horiz-adv-x="401" 
d="M211 260c-95 0 -151 40 -151 110c0 5 0 11 1 17h123v-6c0 -22 12 -35 36 -35c31 0 61 26 81 87h-2c-25 -16 -53 -23 -85 -23c-74 0 -120 47 -120 118c0 68 64 156 183 156c101 0 158 -53 158 -157c0 -111 -75 -267 -224 -267zM257 491c36 0 57 33 57 62
c0 24 -14 41 -40 41c-34 0 -58 -28 -58 -60c0 -25 15 -43 41 -43z" />
    <glyph glyph-name="zeroinferior" unicode="&#x2080;" horiz-adv-x="481" 
d="M233 311c116 0 176 -66 176 -184c0 -134 -83 -310 -257 -310c-116 0 -176 65 -176 184c0 134 83 310 257 310zM224 208c-73 0 -110 -151 -110 -213c0 -49 16 -76 47 -76c74 0 109 151 109 213c0 48 -14 76 -46 76z" />
    <glyph glyph-name="oneinferior" unicode="&#x2081;" horiz-adv-x="328" 
d="M163 -172h-140l71 288h-118l25 101c85 0 131 24 155 83h125z" />
    <glyph glyph-name="twoinferior" unicode="&#x2082;" horiz-adv-x="470" 
d="M230 311c113 0 174 -53 174 -129c0 -71 -48 -128 -162 -172c-92 -35 -110 -50 -119 -72h236l-26 -110h-405c22 131 81 192 202 244c84 36 132 60 132 100c0 23 -14 36 -41 36c-33 0 -56 -22 -66 -65h-143c26 108 104 168 218 168z" />
    <glyph glyph-name="threeinferior" unicode="&#x2083;" horiz-adv-x="464" 
d="M226 311c114 0 178 -47 178 -124c0 -51 -29 -97 -110 -122v-1c43 -18 64 -48 64 -91c0 -73 -69 -156 -212 -156c-125 0 -191 47 -191 134c0 11 1 24 4 36h141c-2 -7 -3 -15 -3 -21c0 -31 20 -46 56 -46c45 0 67 30 67 52c0 29 -22 44 -66 44h-13l25 99h16
c54 0 83 26 83 55c0 24 -17 38 -49 38c-39 0 -64 -24 -73 -64h-138c24 105 106 167 221 167z" />
    <glyph glyph-name="fourinferior" unicode="&#x2084;" horiz-adv-x="466" 
d="M371 -81h-80l-23 -91h-135l22 91h-228l28 114l247 267h184l-70 -280h80zM73 20h113l12 48c11 44 22 86 37 130h-2c-31 -38 -66 -75 -100 -112z" />
    <glyph glyph-name="fiveinferior" unicode="&#x2085;" horiz-adv-x="465" 
d="M388 189h-224l-27 -70h2c28 18 58 26 89 26c87 0 139 -54 139 -136s-77 -192 -233 -192c-110 0 -176 44 -176 122c0 9 0 18 3 28h140c-1 -5 -1 -9 -1 -12c0 -23 19 -38 50 -38c54 0 76 45 76 82c0 32 -19 49 -49 49s-52 -18 -64 -42l-133 8l98 286h337z" />
    <glyph glyph-name="sixinferior" unicode="&#x2086;" horiz-adv-x="459" 
d="M233 311c107 0 171 -47 171 -128c0 -6 0 -13 -1 -20h-139v7c0 27 -14 42 -41 42c-38 0 -73 -30 -96 -104h2c28 19 61 28 99 28c85 0 137 -54 137 -137c0 -80 -74 -182 -211 -182c-114 0 -180 61 -180 181c0 129 88 313 259 313zM180 43c-44 0 -69 -42 -69 -73
s17 -51 47 -51c40 0 68 36 68 71c0 32 -17 53 -46 53z" />
    <glyph glyph-name="seveninferior" unicode="&#x2087;" horiz-adv-x="414" 
d="M412 300l-25 -108c-94 -97 -178 -231 -234 -364h-160c65 142 160 275 245 357h-246l29 115h391z" />
    <glyph glyph-name="eightinferior" unicode="&#x2088;" horiz-adv-x="462" 
d="M224 311c110 0 176 -50 176 -129c0 -51 -39 -106 -116 -119v-2c44 -14 72 -53 72 -101c0 -66 -65 -143 -213 -143c-117 0 -186 50 -186 136c0 56 45 116 130 128v2c-40 16 -62 50 -62 92c0 63 67 136 199 136zM216 212c-45 0 -67 -29 -67 -53c0 -26 18 -43 52 -43
c42 0 66 27 66 54s-18 42 -51 42zM167 20c-50 0 -70 -33 -70 -57c0 -28 20 -46 55 -46c43 0 70 25 70 57c0 28 -19 46 -55 46z" />
    <glyph glyph-name="nineinferior" unicode="&#x2089;" horiz-adv-x="460" 
d="M131 -183c-107 0 -171 47 -171 128c0 6 0 13 1 20h139v-7c0 -27 14 -42 42 -42c37 0 73 30 95 104h-2c-28 -19 -61 -28 -98 -28c-86 0 -138 54 -138 137c0 80 74 182 212 182c113 0 179 -61 179 -181c0 -129 -88 -313 -259 -313zM185 85c43 0 69 42 69 73s-18 51 -47 51
c-41 0 -69 -36 -69 -71c0 -32 17 -53 47 -53z" />
    <glyph glyph-name="zerosuperior" unicode="&#x2070;" horiz-adv-x="480" 
d="M358 813c116 0 176 -66 176 -184c0 -134 -83 -310 -257 -310c-116 0 -176 65 -176 184c0 134 83 310 257 310zM349 710c-73 0 -110 -151 -110 -213c0 -49 16 -76 47 -76c74 0 109 151 109 213c0 48 -14 76 -46 76z" />
    <glyph glyph-name="onesuperior" unicode="&#xb9;" horiz-adv-x="329" 
d="M289 330h-140l71 288h-118l25 101c85 0 131 24 155 83h125z" />
    <glyph glyph-name="twosuperior" unicode="&#xb2;" horiz-adv-x="470" 
d="M355 813c113 0 174 -53 174 -129c0 -71 -48 -128 -162 -172c-92 -35 -110 -50 -119 -72h236l-26 -110h-405c22 131 81 192 202 244c84 36 132 60 132 100c0 23 -14 36 -41 36c-33 0 -56 -22 -66 -65h-143c26 108 104 168 218 168z" />
    <glyph glyph-name="threesuperior" unicode="&#xb3;" horiz-adv-x="465" 
d="M351 813c114 0 179 -47 179 -124c0 -51 -30 -97 -111 -122v-1c44 -18 64 -48 64 -91c0 -73 -69 -156 -211 -156c-126 0 -192 47 -192 134c0 11 2 24 5 36h141c-2 -7 -3 -15 -3 -21c0 -31 19 -46 55 -46c46 0 68 30 68 52c0 29 -22 44 -67 44h-12l24 99h16
c54 0 83 26 83 55c0 24 -16 38 -49 38c-39 0 -64 -24 -73 -64h-138c24 105 106 167 221 167z" />
    <glyph glyph-name="foursuperior" unicode="&#x2074;" horiz-adv-x="467" 
d="M497 421h-80l-23 -91h-136l23 91h-229l29 114l246 267h185l-70 -280h80zM198 522h114l12 48c11 44 22 86 37 130h-2c-32 -38 -66 -75 -100 -112z" />
    <glyph glyph-name="fivesuperior" unicode="&#x2075;" horiz-adv-x="465" 
d="M513 691h-224l-27 -70h2c28 18 58 26 89 26c87 0 139 -54 139 -136s-77 -192 -233 -192c-110 0 -176 44 -176 122c0 9 0 18 3 28h140c-1 -5 -1 -9 -1 -12c0 -23 19 -38 50 -38c54 0 76 45 76 82c0 32 -19 49 -49 49s-52 -18 -64 -42l-133 8l98 286h337z" />
    <glyph glyph-name="sixsuperior" unicode="&#x2076;" horiz-adv-x="460" 
d="M359 813c107 0 171 -47 171 -128c0 -6 0 -13 -1 -20h-139v7c0 27 -14 42 -42 42c-37 0 -73 -30 -95 -104h2c28 19 61 28 98 28c86 0 138 -54 138 -137c0 -80 -74 -182 -212 -182c-113 0 -179 61 -179 181c0 129 88 313 259 313zM305 545c-43 0 -69 -42 -69 -73
s18 -51 47 -51c41 0 69 36 69 71c0 32 -17 53 -47 53z" />
    <glyph glyph-name="sevensuperior" unicode="&#x2077;" horiz-adv-x="414" 
d="M538 802l-26 -108c-93 -97 -177 -231 -234 -364h-160c65 142 161 275 245 357h-245l28 115h392z" />
    <glyph glyph-name="eightsuperior" unicode="&#x2078;" horiz-adv-x="462" 
d="M350 813c109 0 176 -50 176 -129c0 -51 -39 -106 -116 -119v-2c44 -14 71 -53 71 -101c0 -66 -64 -143 -213 -143c-117 0 -185 50 -185 136c0 56 44 116 130 128v2c-40 16 -63 50 -63 92c0 63 68 136 200 136zM342 714c-46 0 -68 -29 -68 -53c0 -26 18 -43 53 -43
c42 0 66 27 66 54s-19 42 -51 42zM292 522c-49 0 -70 -33 -70 -57c0 -28 21 -46 56 -46c42 0 70 25 70 57c0 28 -19 46 -56 46z" />
    <glyph glyph-name="ninesuperior" unicode="&#x2079;" horiz-adv-x="460" 
d="M256 319c-107 0 -171 47 -171 128c0 6 0 13 1 20h139v-7c0 -27 14 -42 42 -42c37 0 73 30 95 104h-2c-28 -19 -61 -28 -98 -28c-86 0 -138 54 -138 137c0 80 74 182 212 182c113 0 179 -61 179 -181c0 -129 -88 -313 -259 -313zM310 587c43 0 69 42 69 73s-18 51 -47 51
c-41 0 -69 -36 -69 -71c0 -32 17 -53 47 -53z" />
    <glyph glyph-name="zero.smcp" horiz-adv-x="531" 
d="M318 561c132 0 199 -75 199 -212c0 -156 -95 -362 -294 -362c-133 0 -201 75 -201 211c0 156 96 363 296 363zM306 442c-83 0 -124 -176 -124 -249c0 -57 16 -88 51 -88c83 0 126 177 126 249c0 56 -17 88 -53 88z" />
    <glyph glyph-name="one.smcp" horiz-adv-x="531" 
d="M315 0h-161l83 336h-138l28 115c99 0 152 29 180 97h145z" />
    <glyph glyph-name="two.smcp" horiz-adv-x="531" 
d="M317 561c128 0 198 -62 198 -150c0 -82 -55 -149 -185 -200c-105 -42 -126 -59 -136 -84h269l-30 -127h-463c25 151 92 222 231 283c96 43 151 70 151 117c0 26 -16 42 -46 42c-36 0 -63 -25 -75 -76h-164c30 125 121 195 250 195z" />
    <glyph glyph-name="three.smcp" horiz-adv-x="531" 
d="M314 561c130 0 203 -55 203 -144c0 -58 -33 -113 -126 -141v-2c49 -21 72 -55 72 -106c0 -84 -80 -181 -243 -181c-143 0 -217 54 -217 155c0 12 2 28 4 43h162c-2 -9 -3 -18 -3 -27c0 -35 22 -52 62 -52c52 0 77 35 77 62c0 33 -24 50 -74 50h-16l29 115h18
c62 0 95 31 95 64c0 28 -19 45 -55 45c-44 0 -72 -27 -83 -75h-159c28 122 122 194 254 194z" />
    <glyph glyph-name="four.smcp" horiz-adv-x="531" 
d="M480 105h-91l-26 -105h-156l25 105h-259l32 134l282 309h213l-81 -325h90zM141 223h127l14 56c12 50 27 100 44 151h-1c-36 -44 -75 -88 -115 -131z" />
    <glyph glyph-name="five.smcp" horiz-adv-x="531" 
d="M501 421h-253l-30 -83h2c32 20 66 30 101 30c98 0 157 -62 157 -157s-87 -224 -266 -224c-125 0 -202 51 -202 141c0 10 1 22 4 33h161c-1 -5 -1 -9 -1 -13c0 -28 22 -45 56 -45c61 0 86 52 86 96c0 37 -21 57 -55 57s-59 -21 -72 -49l-153 10l113 331h383z" />
    <glyph glyph-name="six.smcp" horiz-adv-x="531" 
d="M329 561c122 0 195 -55 195 -151c0 -7 0 -14 -1 -20h-160v8c0 32 -16 49 -47 49c-41 0 -81 -36 -107 -122h2c32 22 69 33 111 33c97 0 156 -63 156 -158c0 -93 -84 -213 -242 -213c-130 0 -203 71 -203 208c0 150 100 366 296 366zM266 250c-49 0 -77 -49 -77 -86
c0 -36 19 -60 52 -60c46 0 78 43 78 85c0 37 -19 61 -53 61z" />
    <glyph glyph-name="seven.smcp" horiz-adv-x="531" 
d="M556 548l-31 -124c-107 -114 -202 -269 -267 -424h-183c74 165 182 319 277 414h-274l33 134h445z" />
    <glyph glyph-name="eight.smcp" horiz-adv-x="531" 
d="M318 561c125 0 201 -58 201 -149c0 -60 -46 -123 -134 -139v-2c51 -17 82 -62 82 -118c0 -76 -74 -166 -245 -166c-133 0 -210 58 -210 158c0 65 50 135 148 149v2c-46 19 -71 59 -71 107c0 72 77 158 229 158zM307 447c-51 0 -76 -34 -76 -62c0 -31 22 -50 60 -50
c47 0 75 31 75 62s-21 50 -59 50zM251 223c-57 0 -80 -40 -80 -68c0 -32 23 -53 62 -53c50 0 80 34 80 69c0 33 -22 52 -62 52z" />
    <glyph glyph-name="nine.smcp" horiz-adv-x="531" 
d="M212 -13c-122 0 -195 55 -195 151c0 7 0 14 1 20h159v-8c0 -32 17 -49 48 -49c41 0 81 36 107 122h-2c-33 -22 -70 -33 -111 -33c-97 0 -157 63 -157 158c0 93 85 213 243 213c130 0 203 -71 203 -208c0 -150 -100 -366 -296 -366zM274 298c50 0 77 49 77 86
c0 36 -18 60 -51 60c-46 0 -78 -43 -78 -85c0 -37 18 -61 52 -61z" />
    <glyph glyph-name="zero.lf.smcp" horiz-adv-x="556" 
d="M331 561c132 0 199 -75 199 -212c0 -156 -95 -362 -294 -362c-133 0 -201 75 -201 211c0 156 96 363 296 363zM319 442c-83 0 -124 -176 -124 -249c0 -57 16 -88 51 -88c83 0 126 177 126 249c0 56 -17 88 -53 88z" />
    <glyph glyph-name="one.lf.smcp" horiz-adv-x="389" 
d="M251 0h-162l84 336h-138l28 115c99 0 152 29 180 97h144z" />
    <glyph glyph-name="two.lf.smcp" horiz-adv-x="546" 
d="M328 561c127 0 198 -62 198 -150c0 -82 -55 -149 -186 -200c-104 -42 -125 -59 -135 -84h269l-31 -127h-462c25 151 92 222 231 283c96 43 150 70 150 117c0 26 -15 42 -46 42c-36 0 -63 -25 -74 -76h-164c29 125 121 195 250 195z" />
    <glyph glyph-name="three.lf.smcp" horiz-adv-x="540" 
d="M323 561c130 0 203 -55 203 -144c0 -58 -33 -113 -126 -141v-2c49 -21 72 -55 72 -106c0 -84 -80 -181 -243 -181c-143 0 -217 54 -217 155c0 12 2 28 4 43h162c-2 -9 -3 -18 -3 -27c0 -35 22 -52 62 -52c52 0 77 35 77 62c0 33 -24 50 -74 50h-16l29 115h18
c62 0 95 31 95 64c0 28 -19 45 -55 45c-44 0 -72 -27 -83 -75h-159c28 122 122 194 254 194z" />
    <glyph glyph-name="four.lf.smcp" horiz-adv-x="535" 
d="M484 105h-91l-26 -105h-157l26 105h-259l32 134l282 309h213l-81 -325h90zM144 223h128l14 56c12 50 26 100 43 151h-1c-35 -44 -74 -88 -114 -131z" />
    <glyph glyph-name="five.lf.smcp" horiz-adv-x="539" 
d="M506 421h-254l-30 -83h2c32 20 66 30 101 30c98 0 157 -62 157 -157s-86 -224 -266 -224c-125 0 -202 51 -202 141c0 10 1 22 4 33h161c-1 -5 -1 -9 -1 -13c0 -28 23 -45 57 -45c61 0 85 52 85 96c0 37 -20 57 -55 57c-33 0 -59 -21 -72 -49l-153 10l114 331h383z" />
    <glyph glyph-name="six.lf.smcp" horiz-adv-x="532" 
d="M330 561c122 0 195 -55 195 -151c0 -7 0 -14 -1 -20h-160v8c0 32 -16 49 -47 49c-41 0 -81 -36 -107 -122h2c32 22 69 33 111 33c97 0 156 -63 156 -158c0 -93 -84 -213 -242 -213c-130 0 -203 71 -203 208c0 150 100 366 296 366zM267 250c-49 0 -77 -49 -77 -86
c0 -36 19 -60 52 -60c46 0 78 43 78 85c0 37 -19 61 -53 61z" />
    <glyph glyph-name="seven.lf.smcp" horiz-adv-x="472" 
d="M530 548l-31 -124c-107 -114 -202 -269 -267 -424h-183c74 165 182 319 277 414h-274l33 134h445z" />
    <glyph glyph-name="eight.lf.smcp" horiz-adv-x="536" 
d="M321 561c125 0 201 -58 201 -149c0 -60 -46 -123 -134 -139v-2c51 -17 82 -62 82 -118c0 -76 -74 -166 -245 -166c-133 0 -210 58 -210 158c0 65 50 135 148 149v2c-46 19 -71 59 -71 107c0 72 77 158 229 158zM310 447c-51 0 -76 -34 -76 -62c0 -31 22 -50 60 -50
c47 0 75 31 75 62s-21 50 -59 50zM254 223c-57 0 -80 -40 -80 -68c0 -32 23 -53 62 -53c50 0 80 34 80 69c0 33 -22 52 -62 52z" />
    <glyph glyph-name="nine.lf.smcp" horiz-adv-x="532" 
d="M212 -13c-122 0 -195 55 -195 151c0 7 0 14 1 20h160v-8c0 -32 16 -49 47 -49c41 0 81 36 107 122h-2c-32 -22 -69 -33 -111 -33c-97 0 -156 63 -156 158c0 93 84 213 242 213c130 0 203 -71 203 -208c0 -150 -100 -366 -296 -366zM275 298c49 0 77 49 77 86
c0 36 -19 60 -52 60c-46 0 -78 -43 -78 -85c0 -37 19 -61 53 -61z" />
    <glyph glyph-name="periodcentered" unicode="&#xb7;" horiz-adv-x="274" 
d="M215 214h-176l45 183h177z" />
    <glyph glyph-name="bullet" unicode="&#x2022;" horiz-adv-x="389" 
d="M195 201c-86 0 -155 70 -155 155c0 86 69 155 155 155c85 0 154 -69 154 -155c0 -85 -69 -155 -154 -155z" />
    <glyph glyph-name="ellipsis" unicode="&#x2026;" horiz-adv-x="943" 
d="M162 0h-176l45 184h177zM497 0h-177l46 184h176zM832 0h-177l45 184h177z" />
    <glyph glyph-name="exclamdown" unicode="&#xa1;" horiz-adv-x="346" 
d="M147 508h177l-37 -147h-176zM117 298h134l-95 -502h-195z" />
    <glyph glyph-name="overline" unicode="&#x203e;" horiz-adv-x="500" 
d="M630 776h-500l26 103h500z" />
    <glyph glyph-name="questiondown" unicode="&#xbf;" horiz-adv-x="542" 
d="M268 508h177l-37 -147h-176zM199 -219c-148 0 -231 67 -231 180c0 69 29 123 139 195c86 56 111 84 130 154h140c-23 -120 -46 -153 -141 -221c-86 -62 -97 -90 -97 -123c0 -35 23 -55 67 -55c52 0 86 30 103 98h172c-36 -150 -137 -228 -282 -228z" />
    <glyph glyph-name="underscoredbl" unicode="&#x2017;" horiz-adv-x="500" 
d="M403 -134h-500l21 84h500zM364 -291h-500l21 84h500z" />
    <glyph glyph-name="periodcentered.case" horiz-adv-x="274" 
d="M228 264h-176l45 183h177z" />
    <glyph glyph-name="exclamdown.case" horiz-adv-x="345" 
d="M197 712h177l-37 -147h-176zM167 502h134l-95 -502h-195z" />
    <glyph glyph-name="periodcentered.loclCAT.case" horiz-adv-x="83" 
d="M21 345h-176l45 183h177z" />
    <glyph glyph-name="questiondown.case" horiz-adv-x="570" 
d="M319 712h177l-37 -147h-176zM250 -15c-148 0 -231 67 -231 180c0 69 29 123 139 195c86 56 111 84 130 154h140c-23 -120 -46 -153 -141 -221c-86 -62 -97 -90 -97 -123c0 -35 23 -55 67 -55c52 0 86 30 103 98h172c-36 -150 -137 -228 -282 -228z" />
    <glyph glyph-name="slash.case" horiz-adv-x="511" 
d="M135 0h-136l427 712h136z" />
    <glyph glyph-name="periodcentered.loclCAT" horiz-adv-x="225" 
d="M203 264h-177l45 183h177z" />
    <glyph glyph-name="parenleftinferior" unicode="&#x208d;" horiz-adv-x="263" 
d="M152 347h113c-117 -162 -168 -314 -168 -455c0 -53 5 -108 13 -167h-103c-28 74 -42 144 -42 218c0 124 55 270 187 404z" />
    <glyph glyph-name="parenleftsuperior" unicode="&#x207d;" horiz-adv-x="264" 
d="M278 849h112c-117 -162 -167 -314 -167 -455c0 -53 4 -108 13 -167h-104c-28 74 -42 144 -42 218c0 124 55 270 188 404z" />
    <glyph glyph-name="parenrightinferior" unicode="&#x208e;" horiz-adv-x="264" 
d="M2 -275h-112c117 162 167 314 167 455c0 53 -4 108 -13 167h104c28 -74 42 -144 42 -218c0 -124 -55 -270 -188 -404z" />
    <glyph glyph-name="parenrightsuperior" unicode="&#x207e;" horiz-adv-x="264" 
d="M128 227h-113c117 162 168 314 168 455c0 53 -4 108 -13 167h103c29 -74 43 -144 43 -218c0 -124 -55 -270 -188 -404z" />
    <glyph glyph-name="braceleft.case" horiz-adv-x="361" 
d="M462 772l-23 -95c-54 -2 -81 -19 -95 -76l-30 -117c-18 -72 -60 -108 -132 -123l-1 -3c49 -16 72 -46 72 -98c0 -14 -2 -30 -7 -49l-21 -84c-4 -15 -6 -27 -6 -37c0 -40 19 -53 60 -55l-24 -95h-15c-124 0 -171 39 -171 126c0 23 4 48 11 78l19 77c4 15 6 28 6 38
c0 33 -14 51 -48 61l25 100c53 12 75 31 87 80l26 106c30 118 87 166 232 166h35z" />
    <glyph glyph-name="braceright.case" horiz-adv-x="361" 
d="M-54 -75l23 94c53 2 81 20 95 76l29 118c19 72 60 107 132 123l1 3c-48 16 -72 45 -72 98c0 14 2 30 7 49l22 84c3 15 5 27 5 37c0 39 -18 53 -59 54l24 96h15c124 0 171 -40 171 -127c0 -22 -4 -47 -11 -77l-20 -78c-3 -15 -5 -27 -5 -37c0 -33 14 -51 48 -62l-25 -100
c-53 -12 -75 -30 -87 -79l-26 -106c-30 -119 -87 -166 -232 -166h-35z" />
    <glyph glyph-name="bracketleft.case" horiz-adv-x="358" 
d="M441 667h-117l-155 -623h117l-26 -104h-273l207 832h273z" />
    <glyph glyph-name="bracketright.case" horiz-adv-x="358" 
d="M-32 45h117l156 623h-117l25 104h273l-207 -832h-273z" />
    <glyph glyph-name="parenleft.case" horiz-adv-x="349" 
d="M309 772h139c-158 -208 -227 -411 -227 -595c0 -70 6 -148 20 -237h-129c-39 102 -57 198 -57 296c0 168 75 361 254 536z" />
    <glyph glyph-name="parenright.case" horiz-adv-x="349" 
d="M91 -60h-139c158 208 227 411 227 595c0 70 -6 148 -20 237h129c39 -102 57 -198 57 -296c0 -168 -75 -361 -254 -536z" />
    <glyph glyph-name="bracketleft.sups" horiz-adv-x="272" 
d="M385 760h-86l-111 -444h85l-22 -89h-212l155 624h213z" />
    <glyph glyph-name="bracketright.sups" horiz-adv-x="272" 
d="M221 227h-213l22 90h86l111 444h-85l22 90h213z" />
    <glyph glyph-name="emdash" unicode="&#x2014;" horiz-adv-x="1000" 
d="M974 231h-960l31 122h960z" />
    <glyph glyph-name="endash" unicode="&#x2013;" horiz-adv-x="500" 
d="M474 231h-460l31 122h460z" />
    <glyph glyph-name="horizontalbar" unicode="&#x2015;" horiz-adv-x="1000" 
d="M911 231h-960l31 122h960z" />
    <glyph glyph-name="hyphentwo" unicode="&#x2010;" horiz-adv-x="337" 
d="M301 231h-277l31 122h276z" />
    <glyph glyph-name="softhyphen" unicode="&#xad;" horiz-adv-x="337" 
d="M301 231h-277l31 122h276z" />
    <glyph glyph-name="emdash.case" horiz-adv-x="1000" 
d="M990 295h-960l31 122h960z" />
    <glyph glyph-name="endash.case" horiz-adv-x="500" 
d="M490 295h-460l31 122h460z" />
    <glyph glyph-name="hyphen.case" horiz-adv-x="337" 
d="M317 295h-277l31 122h276z" />
    <glyph glyph-name="guillemetleft" unicode="&#xab;" horiz-adv-x="570" 
d="M192 250l57 -196h-136l-69 204l156 196h149zM421 250l57 -196h-136l-70 204l157 196h149z" />
    <glyph glyph-name="guillemetright" unicode="&#xbb;" horiz-adv-x="570" 
d="M150 258l-57 196h135l70 -204l-156 -196h-149zM378 258l-57 196h136l70 -204l-157 -196h-149z" />
    <glyph glyph-name="guilsinglleft" unicode="&#x2039;" horiz-adv-x="342" 
d="M192 250l57 -196h-136l-69 204l156 196h149z" />
    <glyph glyph-name="guilsinglright" unicode="&#x203a;" horiz-adv-x="341" 
d="M150 258l-57 196h135l70 -204l-156 -196h-149z" />
    <glyph glyph-name="quotedblbase" unicode="&#x201e;" horiz-adv-x="466" 
d="M145 0l-115 -152h-83l97 152h-49l38 156h151zM345 0l-115 -152h-83l97 152h-49l38 156h151z" />
    <glyph glyph-name="quotedblleft" unicode="&#x201c;" horiz-adv-x="466" 
d="M135 561l115 151h83l-97 -151h49l-39 -157h-150zM335 561l115 151h83l-97 -151h49l-39 -157h-150z" />
    <glyph glyph-name="quotedblright" unicode="&#x201d;" horiz-adv-x="466" 
d="M283 556l-115 -152h-83l97 152h-49l38 156h151zM483 556l-115 -152h-83l97 152h-49l38 156h151z" />
    <glyph glyph-name="quoteleft" unicode="&#x2018;" horiz-adv-x="266" 
d="M135 561l115 151h83l-97 -151h49l-39 -157h-150z" />
    <glyph glyph-name="quoteright" unicode="&#x2019;" horiz-adv-x="266" 
d="M283 556l-115 -152h-83l97 152h-49l38 156h151z" />
    <glyph glyph-name="quotesinglbase" unicode="&#x201a;" horiz-adv-x="266" 
d="M145 0l-115 -151h-84l98 151h-50l39 156h150z" />
    <glyph glyph-name="guillemetleft.case" horiz-adv-x="570" 
d="M217 352l57 -196h-136l-69 204l156 196h149zM446 352l57 -196h-136l-70 204l157 196h149z" />
    <glyph glyph-name="guillemetright.case" horiz-adv-x="570" 
d="M175 360l-57 196h135l70 -204l-156 -196h-149zM403 360l-57 196h136l70 -204l-157 -196h-149z" />
    <glyph glyph-name="guilsinglleft.case" horiz-adv-x="341" 
d="M217 352l57 -196h-136l-69 204l156 196h149z" />
    <glyph glyph-name="guilsinglright.case" horiz-adv-x="341" 
d="M175 360l-57 196h135l70 -204l-156 -196h-149z" />
    <glyph glyph-name="quoteright.loclFRA" horiz-adv-x="293" 
d="M297 556l-115 -152h-83l97 152h-49l38 156h151z" />
    <glyph glyph-name="periodcentered.loclCAT.smcp" horiz-adv-x="63" 
d="M22 277h-163l43 170h163z" />
    <glyph glyph-name="nbspace" unicode="&#xa0;" horiz-adv-x="230" 
 />
    <glyph glyph-name="cent" unicode="&#xa2;" horiz-adv-x="628" 
d="M603 381h-173c1 5 2 13 2 19c0 48 -23 76 -63 76c-84 0 -126 -122 -126 -189c0 -64 24 -100 69 -100c42 0 80 31 96 84h172c-37 -122 -138 -202 -260 -209l-23 -90h-101l25 99c-95 27 -149 105 -149 218c0 129 93 296 281 311l23 91h101l-25 -98c98 -21 153 -89 153 -184
c0 -9 0 -19 -2 -28z" />
    <glyph glyph-name="currency" unicode="&#xa4;" horiz-adv-x="628" 
d="M532 291c0 -42 -10 -79 -27 -111l75 -80l-91 -85l-76 82c-29 -13 -62 -20 -99 -20s-70 7 -99 20l-76 -82l-92 85l76 81c-18 31 -27 68 -27 110s10 79 27 111l-76 80l92 85l76 -82c29 13 62 20 99 20s70 -7 99 -20l76 82l91 -85l-75 -80c17 -32 27 -69 27 -111zM314 187
c60 0 99 42 99 104s-39 104 -99 104s-100 -42 -100 -104s40 -104 100 -104z" />
    <glyph glyph-name="euro" unicode="&#x20ac;" horiz-adv-x="628" 
d="M497 462v10c0 50 -26 80 -80 80c-70 0 -119 -58 -149 -127h211l-31 -73h-203c-3 -13 -6 -26 -7 -38h193l-32 -73h-164c5 -79 35 -119 89 -119c51 0 92 35 112 92h169c-45 -144 -157 -230 -295 -230c-151 0 -233 91 -239 257h-73l32 73h44c2 13 4 25 6 38h-54l32 73h42
c49 139 159 265 335 265c148 0 230 -72 230 -194c0 -11 -1 -22 -3 -34h-165z" />
    <glyph glyph-name="florin" unicode="&#x192;" horiz-adv-x="628" 
d="M632 724c31 0 63 -4 85 -12l-29 -117c-12 3 -30 5 -47 5c-53 0 -86 -23 -117 -84l-24 -48h106l-30 -118h-133l-168 -334c-74 -148 -158 -208 -282 -208c-29 0 -55 3 -77 11l30 117c12 -3 26 -4 43 -4c51 0 82 19 121 98l161 320h-95l29 118h124l31 62
c67 133 151 194 272 194z" />
    <glyph glyph-name="franc" unicode="&#x20a3;" horiz-adv-x="628" 
d="M342 529l-27 -106h291l-35 -144h-292l-20 -78h164l-29 -119h-164l-21 -82h-173l20 82h-75l29 119h76l118 473h488l-36 -145h-314z" />
    <glyph glyph-name="lira" unicode="&#x20a4;" horiz-adv-x="628" 
d="M649 468h-163c2 8 3 16 3 24c0 40 -21 62 -61 62c-49 0 -80 -32 -97 -99l-10 -40h125l-18 -73h-125l-10 -38h126l-18 -73h-128c-16 -46 -40 -74 -79 -94v-2h367l-34 -135h-567l34 137c52 0 88 23 111 94h-87l18 73h88l10 38h-89l18 73h89l17 69c34 136 134 206 276 206
c132 0 209 -65 209 -174c0 -15 -2 -31 -5 -48z" />
    <glyph glyph-name="liraTurkish" unicode="&#x20ba;" horiz-adv-x="628" 
d="M446 325h180c-41 -221 -188 -335 -409 -335c-57 0 -125 6 -181 15l58 232l-97 -46l23 94l98 47l14 59l-97 -46l24 94l97 47l47 188h174l-27 -108l183 88l-23 -95l-184 -88l-14 -59l183 88l-24 -95l-183 -87l-44 -178c108 0 179 62 202 185z" />
    <glyph glyph-name="peseta" unicode="&#x20a7;" horiz-adv-x="937" 
d="M844 387l-45 -180c-3 -13 -5 -25 -5 -35c0 -35 17 -49 56 -49c11 0 22 2 30 3l-32 -126c-17 -5 -46 -8 -65 -8c-111 0 -162 41 -162 137c0 22 4 47 12 76l45 182h-40c-29 -95 -117 -186 -287 -186h-115l-50 -201h-173l167 674h208c157 0 239 -63 257 -166h63l34 137h166
l-34 -137h96l-30 -121h-96zM270 340h78c92 0 124 56 124 105c0 57 -31 90 -102 90h-51z" />
    <glyph glyph-name="ruble" unicode="&#x20bd;" horiz-adv-x="628" 
d="M191 674h234c157 0 230 -72 230 -189c0 -101 -74 -230 -262 -230h-134l-13 -51h175l-28 -112h-175l-22 -92h-173l22 92h-73l28 112h73l13 51h-74l31 122h73zM333 552l-44 -175h79c81 0 108 51 108 95c0 51 -26 80 -89 80h-54z" />
    <glyph glyph-name="rupeeIndian" unicode="&#x20b9;" horiz-adv-x="628" 
d="M491 581v-2c25 -12 42 -31 50 -57h123l-49 -93h-82c-25 -62 -90 -117 -207 -137v-2c43 -16 69 -49 89 -117l49 -173h-186l-42 167c-17 69 -50 96 -108 96h-15l27 106h60c74 0 119 27 142 60h-267l49 93h229c-14 40 -53 59 -113 59h-127l49 93h540l-49 -93h-162z" />
    <glyph glyph-name="sterling" unicode="&#xa3;" horiz-adv-x="628" 
d="M649 468h-163c2 8 3 16 3 24c0 40 -21 62 -61 62c-49 0 -80 -32 -97 -99l-14 -54h126l-32 -128h-126l-3 -13c-16 -64 -41 -99 -88 -123v-2h367l-34 -135h-567l34 137c58 0 96 29 119 121l4 15h-89l32 128h88l21 83c34 136 134 206 276 206c132 0 209 -65 209 -174
c0 -15 -2 -31 -5 -48z" />
    <glyph glyph-name="yen" unicode="&#xa5;" horiz-adv-x="628" 
d="M461 342h118l-18 -73h-156l-9 -38h156l-19 -74h-156l-39 -157h-174l39 157h-157l19 74h157l9 38h-156l17 73h119l-89 332h173l17 -87c10 -59 20 -119 27 -179h2c33 60 69 120 109 179l61 87h205z" />
    <glyph glyph-name="Ohm" unicode="&#x2126;" horiz-adv-x="747" 
d="M460 728c174 0 287 -79 287 -241c0 -136 -70 -241 -196 -339v-2h141l-36 -146h-307l37 152c111 86 171 188 171 291c0 90 -48 135 -121 135c-130 0 -196 -141 -196 -248c0 -73 22 -128 53 -178l-37 -152h-291l36 146h145v2c-44 61 -77 128 -77 216c0 164 126 364 391 364
z" />
    <glyph glyph-name="approxequal" unicode="&#x2248;" horiz-adv-x="566" 
d="M197 520c74 0 120 -70 167 -70c30 0 47 23 47 57h98c0 -104 -55 -175 -140 -175c-74 0 -120 70 -167 70c-30 0 -47 -22 -47 -57h-98c0 104 54 175 140 175zM197 302c74 0 120 -70 167 -70c30 0 47 22 47 57h98c0 -104 -55 -175 -140 -175c-74 0 -120 70 -167 70
c-30 0 -47 -23 -47 -57h-98c0 104 54 175 140 175z" />
    <glyph glyph-name="bulletoperator" unicode="&#x2219;" horiz-adv-x="371" 
d="M274 214h-177v183h177v-183z" />
    <glyph glyph-name="divide" unicode="&#xf7;" horiz-adv-x="566" 
d="M353 441h-140v117h140v-117zM507 252h-448v129h448v-129zM353 75h-140v118h140v-118z" />
    <glyph glyph-name="divisionslash" unicode="&#x2215;" horiz-adv-x="503" 
d="M17 -89h-136l502 834h136z" />
    <glyph glyph-name="equalinferior" unicode="&#x208c;" horiz-adv-x="412" 
d="M370 76h-328v99h328v-99zM370 -76h-328v99h328v-99z" />
    <glyph glyph-name="equalsuperior" unicode="&#x207c;" horiz-adv-x="412" 
d="M370 578h-328v99h328v-99zM370 426h-328v99h328v-99z" />
    <glyph glyph-name="greaterequal" unicode="&#x2265;" horiz-adv-x="566" 
d="M507 429v-148l-448 -144v124l295 93v2l-295 94v124zM507 0h-448v117h448v-117z" />
    <glyph glyph-name="increment" unicode="&#x2206;" horiz-adv-x="714" 
d="M650 0h-712l422 712h224zM474 141l-11 200c-4 85 -8 174 -9 259h-2c-41 -85 -86 -174 -133 -259l-110 -200h265z" />
    <glyph glyph-name="infinity" unicode="&#x221e;" horiz-adv-x="706" 
d="M522 491c102 0 169 -72 169 -183s-67 -183 -169 -183c-79 0 -130 40 -169 88c-39 -48 -90 -88 -169 -88c-103 0 -169 72 -169 183s66 183 169 183c79 0 130 -40 169 -88c39 48 90 88 169 88zM199 247c35 0 60 26 86 61c-26 35 -51 61 -86 61c-37 0 -58 -24 -58 -61
c0 -36 21 -61 58 -61zM507 247c38 0 58 25 58 61c0 37 -20 61 -58 61c-35 0 -60 -26 -86 -61c26 -35 51 -61 86 -61z" />
    <glyph glyph-name="integral" unicode="&#x222b;" horiz-adv-x="372" 
d="M286 721c28 0 59 -4 79 -9v-114c-5 1 -15 2 -23 2c-49 0 -74 -20 -74 -75v-543c0 -118 -65 -176 -183 -176c-27 0 -58 4 -78 9v114c5 -1 15 -2 23 -2c49 0 74 20 74 75v543c0 118 65 176 182 176z" />
    <glyph glyph-name="lessequal" unicode="&#x2264;" horiz-adv-x="566" 
d="M507 450l-295 -94v-2l295 -93v-124l-448 144v148l448 145v-124zM507 117v-117h-448v117h448z" />
    <glyph glyph-name="logicalnot" unicode="&#xac;" horiz-adv-x="566" 
d="M507 126h-129v213h-319v129h448v-342z" />
    <glyph glyph-name="micro" unicode="&#xb5;" horiz-adv-x="626" 
d="M613 508l-82 -330c-3 -13 -5 -23 -5 -31c0 -22 12 -30 33 -30c8 0 16 1 25 3l-30 -120c-22 -6 -47 -9 -76 -9c-64 0 -98 26 -105 75h-2c-29 -45 -79 -72 -132 -72c-30 0 -55 9 -71 26l-51 -205h-166l173 693h166l-72 -287c-4 -17 -6 -32 -6 -44c0 -42 21 -61 59 -61
c47 0 88 38 110 125l66 267h166z" />
    <glyph glyph-name="minus" unicode="&#x2212;" horiz-adv-x="566" 
d="M507 252h-448v129h448v-129z" />
    <glyph glyph-name="minusinferior" unicode="&#x208b;" horiz-adv-x="412" 
d="M370 -3h-328v105h328v-105z" />
    <glyph glyph-name="minussuperior" unicode="&#x207b;" horiz-adv-x="412" 
d="M370 499h-328v105h328v-105z" />
    <glyph glyph-name="multiply" unicode="&#xd7;" horiz-adv-x="566" 
d="M550 488l-176 -176l176 -175l-91 -92l-176 176l-175 -176l-91 92l175 175l-175 176l91 91l175 -175l176 175z" />
    <glyph glyph-name="notequal" unicode="&#x2260;" horiz-adv-x="566" 
d="M361 356l-43 -79h189v-124h-256l-62 -113h-113l61 113h-78v124h146l42 79h-188v124h256l61 113h114l-62 -113h79v-124h-146z" />
    <glyph glyph-name="partialdiff" unicode="&#x2202;" horiz-adv-x="632" 
d="M371 728c159 0 238 -94 238 -253c0 -188 -111 -491 -360 -491c-152 0 -223 83 -223 212c0 102 80 283 284 283c67 0 111 -24 135 -57h2c8 20 13 52 13 74c0 66 -29 104 -85 104c-41 0 -67 -24 -80 -69h-171c27 119 116 197 247 197zM327 365c-86 0 -133 -108 -133 -173
c0 -51 23 -80 69 -80c93 0 134 114 134 173c0 51 -24 80 -70 80z" />
    <glyph glyph-name="perthousand" unicode="&#x2030;" horiz-adv-x="1117" 
d="M161 -30h-102l585 734h102zM273 693c88 0 132 -46 132 -128c0 -101 -59 -226 -180 -226c-87 0 -133 45 -133 128c0 100 59 226 181 226zM270 609c-50 0 -74 -102 -74 -142c0 -30 10 -44 30 -44c51 0 73 101 73 141c0 30 -9 45 -29 45zM584 335c87 0 132 -46 132 -128
c0 -101 -59 -226 -180 -226c-88 0 -133 45 -133 128c0 100 59 226 181 226zM934 335c87 0 132 -46 132 -128c0 -101 -59 -226 -180 -226c-88 0 -133 45 -133 128c0 100 59 226 181 226zM580 251c-49 0 -73 -102 -73 -142c0 -30 10 -44 30 -44c50 0 73 101 73 141
c0 30 -9 45 -30 45zM930 251c-49 0 -73 -102 -73 -142c0 -30 10 -44 30 -44c50 0 73 101 73 141c0 30 -9 45 -30 45z" />
    <glyph glyph-name="plusinferior" unicode="&#x208a;" horiz-adv-x="412" 
d="M260 102h110v-105h-110v-107h-108v107h-110v105h110v108h108v-108z" />
    <glyph glyph-name="plusminus" unicode="&#xb1;" horiz-adv-x="566" 
d="M347 433h160v-127h-160v-143h-128v143h-160v127h160v143h128v-143zM507 0h-448v127h448v-127z" />
    <glyph glyph-name="plussuperior" unicode="&#x207a;" horiz-adv-x="412" 
d="M260 604h110v-105h-110v-107h-108v107h-110v105h110v108h108v-108z" />
    <glyph glyph-name="product" unicode="&#x220f;" horiz-adv-x="702" 
d="M627 -120h-173v685h-205v-685h-173v832h551v-832z" />
    <glyph glyph-name="radical" unicode="&#x221a;" horiz-adv-x="674" 
d="M416 -120h-220l-88 373h-83v133h195l89 -372h2l199 698h144z" />
    <glyph glyph-name="summation" unicode="&#x2211;" horiz-adv-x="527" 
d="M492 564h-269l161 -268l-161 -267h269v-149h-457v149l165 267l-165 268v148h457v-148z" />
    <glyph glyph-name="lozenge" unicode="&#x25ca;" horiz-adv-x="668" 
d="M628 356l-184 -356h-221l-183 356l183 356h221zM210 356l124 -238l123 238l-123 238z" />
    <glyph glyph-name="apple" unicode="&#xf8ff;" horiz-adv-x="600" 
d="M151 777h346c84 0 137 -53 137 -137v-568c0 -84 -53 -137 -137 -137h-346c-84 0 -137 53 -137 137v568c0 84 53 137 137 137zM497 708h-346c-42 0 -68 -26 -68 -68v-568c0 -42 26 -68 68 -68h346c42 0 68 26 68 68v568c0 42 -26 68 -68 68zM325 647
c115 0 184 -57 184 -152c0 -54 -15 -85 -70 -136c-52 -49 -65 -73 -65 -134h-111c-1 13 -1 27 -1 38c0 65 10 91 63 145c40 40 47 56 47 85s-17 48 -47 48c-37 0 -57 -24 -57 -78h-135c1 120 72 184 192 184zM387 65h-136v119h136v-119z" />
    <glyph glyph-name="brokenbar" unicode="&#xa6;" horiz-adv-x="297" 
d="M219 382h-142v350h142v-350zM219 -205h-142v350h142v-350z" />
    <glyph glyph-name="paragraph" unicode="&#xb6;" horiz-adv-x="684" 
d="M742 602h-80l-179 -722h-119l180 722h-76l-180 -722h-118l100 403c-105 16 -167 76 -167 195c0 106 80 234 229 234h438z" />
    <glyph glyph-name="copyright" unicode="&#xa9;" horiz-adv-x="798" 
d="M399 727c217 0 361 -148 361 -371s-144 -371 -361 -371s-361 148 -361 371s144 371 361 371zM399 664c-180 0 -299 -123 -299 -308s119 -308 299 -308s300 123 300 308s-120 308 -300 308zM401 582c115 0 188 -65 193 -169h-114c-3 47 -31 77 -79 77
c-55 0 -89 -51 -89 -135c0 -82 34 -133 88 -133c47 0 77 31 82 80h115c-9 -110 -85 -172 -197 -172c-125 0 -202 86 -202 225c0 141 77 227 203 227z" />
    <glyph glyph-name="registered" unicode="&#xae;" horiz-adv-x="592" 
d="M349 728c151 0 251 -103 251 -258s-100 -258 -251 -258s-251 103 -251 258s100 258 251 258zM349 690c-128 0 -213 -88 -213 -220s85 -220 213 -220s213 88 213 220s-85 220 -213 220zM224 631h138c73 0 109 -34 109 -89c0 -38 -22 -67 -59 -77v-2c22 -6 34 -21 48 -59
l32 -86h-81l-26 73c-10 31 -25 42 -55 42h-29v-115h-77v313zM301 572v-82h40c38 0 55 17 55 43c0 24 -18 39 -53 39h-42z" />
    <glyph glyph-name="published" unicode="&#x2117;" horiz-adv-x="798" 
d="M399 727c217 0 361 -148 361 -371s-144 -371 -361 -371s-361 148 -361 371s144 371 361 371zM399 664c-180 0 -299 -123 -299 -308s119 -308 299 -308s300 123 300 308s-120 308 -300 308zM250 571h183c117 0 172 -58 172 -149s-55 -150 -172 -150h-73v-139h-110v438z
M360 481v-118h58c52 0 74 22 74 59s-24 59 -75 59h-57z" />
    <glyph glyph-name="section" unicode="&#xa7;" horiz-adv-x="656" 
d="M425 728c135 0 204 -53 204 -155c0 -11 0 -21 -2 -33h-161c1 5 1 9 1 13c0 33 -20 52 -61 52c-34 0 -61 -22 -61 -54c0 -28 23 -41 95 -75c82 -39 156 -76 156 -177c0 -68 -34 -141 -125 -189v-2c18 -20 27 -45 27 -77c0 -85 -83 -195 -254 -195c-136 0 -214 49 -214 149
c0 13 1 26 4 41h163c-1 -6 -1 -11 -1 -16c0 -33 19 -50 59 -50c42 0 74 21 74 56c0 31 -26 47 -110 92c-78 43 -143 80 -143 171c0 67 38 142 125 184v2c-17 19 -24 42 -24 69c0 86 81 194 248 194zM282 395c-32 -17 -51 -45 -51 -78s20 -54 77 -88c29 -16 57 -33 85 -49
c34 17 52 50 52 79c0 31 -18 56 -73 86c-28 15 -61 34 -90 50z" />
    <glyph glyph-name="trademark" unicode="&#x2122;" horiz-adv-x="857" 
d="M414 618h-103l-66 -262h-112l66 262h-103l23 94h318zM844 356h-99l40 161c11 43 22 85 34 128h-2c-19 -42 -38 -85 -58 -126l-80 -163h-131l3 163c1 42 2 84 4 126h-2c-9 -43 -19 -85 -30 -128l-40 -161h-99l89 356h165l-1 -143c0 -42 -2 -88 -7 -131h2
c17 43 37 89 58 131l69 143h174z" />
    <glyph glyph-name="degree" unicode="&#xb0;" horiz-adv-x="348" 
d="M255 722c78 0 141 -63 141 -141c0 -79 -63 -141 -141 -141s-142 62 -142 141c0 78 64 141 142 141zM255 644c-35 0 -63 -28 -63 -63s28 -63 63 -63s63 28 63 63s-28 63 -63 63z" />
    <glyph glyph-name="estimated" unicode="&#x212e;" horiz-adv-x="863" 
d="M432 690c243 0 383 -168 383 -362h-612c-8 0 -14 -6 -14 -13v-167c0 -20 3 -32 16 -44c58 -57 133 -91 227 -91c98 0 187 46 239 110h69c-45 -63 -145 -135 -308 -135c-233 0 -385 147 -385 349c0 199 145 353 385 353zM432 664c-94 0 -169 -36 -227 -94
c-13 -11 -16 -22 -16 -41v-167c0 -7 6 -12 14 -12h456c8 0 13 5 13 12v167c0 19 -3 30 -15 41c-69 68 -148 94 -225 94z" />
    <glyph glyph-name="literSign" unicode="&#x2113;" horiz-adv-x="452" 
d="M224 204l-2 -8c-3 -14 -5 -26 -5 -36c0 -37 17 -54 52 -54c13 0 30 2 43 6l-29 -116c-21 -4 -49 -6 -70 -6c-110 0 -162 44 -162 137c0 18 2 37 7 60c-16 1 -32 4 -46 6l21 82c14 -2 30 -5 46 -6l55 221c38 154 99 200 199 200c79 0 137 -44 137 -159
c0 -123 -78 -274 -246 -327zM353 591c-22 0 -36 -17 -51 -77l-51 -204c89 53 130 150 130 224c0 42 -11 57 -28 57z" />
    <glyph glyph-name="dagger" unicode="&#x2020;" horiz-adv-x="606" 
d="M459 547h163l-34 -139h-163l-132 -528h-166l131 528h-162l34 138h162l42 166h166z" />
    <glyph glyph-name="daggerdbl" unicode="&#x2021;" horiz-adv-x="606" 
d="M459 547h163l-34 -136h-162l-58 -230h163l-34 -136h-162l-42 -165h-166l41 165h-163l34 136h162l58 230h-163l34 136h162l42 165h166z" />
    <glyph glyph-name="interrobang" unicode="&#x203d;" horiz-adv-x="570" 
d="M491 712l-21 -71c74 -26 115 -80 115 -157c0 -70 -31 -135 -146 -194c-74 -38 -96 -54 -106 -92h-140c14 81 30 108 132 169c75 46 87 70 87 103c0 36 -23 58 -67 58c-51 0 -84 -26 -99 -88h-172c29 121 106 193 216 212l12 60h189zM161 147h177l-37 -147h-176z" />
    <glyph glyph-name="ampersand.smcp" horiz-adv-x="635" 
d="M438 295h144c-18 -72 -51 -128 -102 -179l96 -116h-168l-34 41c-50 -34 -112 -53 -177 -53c-127 0 -192 56 -192 145c0 65 42 133 153 179c-23 35 -33 64 -33 94c0 71 67 158 196 158c100 0 159 -51 159 -129c0 -52 -40 -110 -137 -152l57 -69c17 20 28 46 38 81z
M307 465c-30 0 -48 -25 -48 -53c0 -18 6 -34 22 -56c50 31 64 57 64 75c0 20 -15 34 -38 34zM229 94c28 0 53 9 78 28l-85 104c-49 -25 -63 -53 -63 -78c0 -32 25 -54 70 -54z" />
    <glyph glyph-name="acute" unicode="&#xb4;" horiz-adv-x="369" 
d="M262 564h-135l109 148h197z" />
    <glyph glyph-name="breve" unicode="&#x2d8;" horiz-adv-x="456" 
d="M403 712h117c-27 -98 -104 -154 -211 -154c-95 0 -148 45 -148 123c0 10 1 20 3 31h95c-1 -5 -1 -8 -1 -12c0 -30 21 -46 60 -46c44 0 74 21 85 58z" />
    <glyph glyph-name="caron" unicode="&#x2c7;" horiz-adv-x="493" 
d="M402 564h-156l-81 148h127l40 -76l75 76h150z" />
    <glyph glyph-name="cedilla" unicode="&#xb8;" horiz-adv-x="344" 
d="M151 0l-51 -59c6 2 14 3 22 3c45 0 74 -26 74 -71c0 -60 -63 -105 -146 -105c-42 0 -82 11 -113 32l30 53c27 -15 54 -22 80 -22c31 0 51 14 51 35c0 18 -12 29 -35 29c-11 0 -23 -2 -33 -6l-26 24l76 87h71z" />
    <glyph glyph-name="circumflex" unicode="&#x2c6;" horiz-adv-x="493" 
d="M520 564h-127l-40 76l-76 -76h-150l155 148h156z" />
    <glyph glyph-name="dieresis" unicode="&#xa8;" horiz-adv-x="470" 
d="M275 581h-143l33 131h142zM501 581h-142l32 131h143z" />
    <glyph glyph-name="dotaccent" unicode="&#x2d9;" horiz-adv-x="267" 
d="M298 581h-166l33 131h166z" />
    <glyph glyph-name="hungarumlaut" unicode="&#x2dd;" horiz-adv-x="570" 
d="M257 564h-130l129 148h172zM463 564h-130l128 148h173z" />
    <glyph glyph-name="macron" unicode="&#xaf;" horiz-adv-x="460" 
d="M494 589h-360l26 103h359z" />
    <glyph glyph-name="ogonek" unicode="&#x2db;" horiz-adv-x="316" 
d="M71 0h129c-71 -40 -85 -66 -85 -89c0 -13 8 -20 26 -20c12 0 25 3 36 7l-22 -86c-23 -7 -53 -11 -84 -11c-76 0 -112 28 -112 78c0 47 36 84 112 121z" />
    <glyph glyph-name="ring" unicode="&#x2da;" horiz-adv-x="335" 
d="M271 780c63 0 113 -51 113 -114c0 -62 -50 -113 -113 -113s-114 51 -114 113c0 63 51 114 114 114zM271 722c-31 0 -56 -25 -56 -56s25 -56 56 -56s56 25 56 56s-25 56 -56 56z" />
    <glyph glyph-name="tilde" unicode="&#x2dc;" horiz-adv-x="490" 
d="M464 712h90c-26 -88 -79 -143 -151 -143c-67 0 -88 43 -130 43c-27 0 -43 -15 -54 -43h-90c25 88 78 143 151 143c67 0 89 -43 130 -43c27 0 43 14 54 43z" />
    <glyph glyph-name="acute.case" horiz-adv-x="369" 
d="M311 760h-135l110 151h197z" />
    <glyph glyph-name="breve.case" horiz-adv-x="456" 
d="M453 911h117c-27 -98 -104 -154 -211 -154c-95 0 -148 45 -148 123c0 10 1 20 3 31h95c-1 -5 -1 -8 -1 -12c0 -30 21 -46 60 -46c44 0 74 21 85 58z" />
    <glyph glyph-name="caron.alt" horiz-adv-x="254" 
d="M214 534h-94l68 178h130z" />
    <glyph glyph-name="caron.case" horiz-adv-x="497" 
d="M452 760h-155l-83 151h124l42 -79l78 79h153z" />
    <glyph glyph-name="caron.alt.case" horiz-adv-x="254" 
d="M201 483h-94l81 229h130z" />
    <glyph glyph-name="circumflex.case" horiz-adv-x="497" 
d="M334 911h156l83 -151h-125l-41 79l-79 -79h-152z" />
    <glyph glyph-name="dieresis.case" horiz-adv-x="469" 
d="M321 769h-143l33 131h142zM547 769h-142l32 131h143z" />
    <glyph glyph-name="dotaccent.case" horiz-adv-x="266" 
d="M344 769h-166l33 131h166z" />
    <glyph glyph-name="grave.case" horiz-adv-x="369" 
d="M445 760h-121l-110 151h184z" />
    <glyph glyph-name="hungarumlaut.case" horiz-adv-x="570" 
d="M306 760h-130l130 151h172zM511 760h-130l130 151h173z" />
    <glyph glyph-name="macron.case" horiz-adv-x="460" 
d="M540 776h-360l26 103h359z" />
    <glyph glyph-name="breve.narrow" horiz-adv-x="424" 
d="M377 712h111c-27 -98 -97 -154 -196 -154c-85 0 -132 44 -132 119c0 12 2 24 4 35h93c-1 -5 -1 -9 -1 -14c0 -28 16 -44 48 -44c38 0 62 21 73 58z" />
    <glyph glyph-name="circumflex.narrow" horiz-adv-x="462" 
d="M490 566h-121l-33 71l-68 -71h-140l144 146h146z" />
    <glyph glyph-name="dieresis.narrow" horiz-adv-x="414" 
d="M265 581h-133l33 131h132zM445 581h-132l32 131h133z" />
    <glyph glyph-name="macron.narrow" horiz-adv-x="400" 
d="M433 589h-299l26 103h299z" />
    <glyph glyph-name="tilde.narrow" horiz-adv-x="456" 
d="M433 712h87c-26 -88 -76 -143 -144 -143c-58 0 -78 43 -114 43c-22 0 -36 -15 -46 -43h-87c26 88 75 143 143 143c58 0 80 -43 115 -43c22 0 36 14 46 43z" />
    <glyph glyph-name="ring.case" horiz-adv-x="335" 
d="M320 979c63 0 113 -51 113 -114c0 -62 -50 -113 -113 -113s-114 51 -114 113c0 63 51 114 114 114zM320 921c-31 0 -56 -25 -56 -56s25 -56 56 -56s56 25 56 56s-25 56 -56 56z" />
    <glyph glyph-name="cedilla.ss01" horiz-adv-x="374" 
d="M115 -217h-182l175 168h140z" />
    <glyph glyph-name="tilde.case" horiz-adv-x="490" 
d="M514 911h90c-26 -88 -79 -143 -151 -143c-67 0 -89 43 -131 43c-27 0 -43 -15 -53 -43h-91c25 88 78 143 151 143c67 0 90 -43 131 -43c27 0 43 14 54 43z" />
    <glyph glyph-name="commaaccent" unicode="&#x326;" horiz-adv-x="0" 
d="M79 -166l-98 -109h-63l73 109h-46l28 112h134z" />
    <glyph glyph-name="commaturnedabovecomb" unicode="&#x312;" horiz-adv-x="0" 
d="M245 684h46l-27 -112h-134l27 112l98 109h63z" />
    <glyph glyph-name="apostrophemod" unicode="&#x2bc;" horiz-adv-x="266" 
d="M284 556l-115 -152h-84l98 152h-50l39 156h150z" />
    <glyph glyph-name="firsttonechinese" unicode="&#x2c9;" horiz-adv-x="460" 
d="M494 589h-360l26 103h359z" />
    <glyph glyph-name="bracketrightinferior" horiz-adv-x="264" 
d="M95 -275h-213l22 90h86l111 444h-85l22 90h213z" />
    <glyph glyph-name="bracketleftinferior" horiz-adv-x="263" 
d="M259 258h-86l-111 -444h85l-22 -89h-212l155 624h213z" />
    <glyph glyph-name="uniFEFF" unicode="&#xfeff;" horiz-adv-x="0" 
 />
    <glyph glyph-name="uni20BC" unicode="&#x20bc;" horiz-adv-x="759" 
d="M571 712l-24 -95c131 -20 197 -95 197 -231c0 -33 -5 -69 -15 -110l-69 -276h-155l70 279c8 33 12 62 12 86c0 65 -24 99 -75 109l-118 -474h-155l119 477c-87 -5 -125 -51 -153 -165l-78 -312h-154l84 339c47 186 148 280 337 283l22 90h155z" />
    </font>
</defs>
</svg>
