<?xml version="1.0" standalone="no"?>
<!DOCTYPE svg PUBLIC "-//W3C//DTD SVG 1.1//EN" "http://www.w3.org/Graphics/SVG/1.1/DTD/svg11.dtd" >
<svg xmlns="http://www.w3.org/2000/svg" xmlns:xlink="http://www.w3.org/1999/xlink" version="1.1">
<metadata>
Created by FontForge 20170910 at Thu Feb  5 11:03:24 2015
 By Jimmy Wärting
Copyright (c) 2015 Monotype Imaging Inc.  All rights reserved.
</metadata>
<defs>
<font id="NeueHaasUnicaPro-Heavy" horiz-adv-x="608" >
  <font-face 
    font-family="Neue Haas Unica Pro"
    font-weight="800"
    font-variant="small-caps"
    font-stretch="normal"
    units-per-em="1000"
    panose-1="2 11 9 4 3 2 6 2 2 3"
    ascent="764"
    descent="-236"
    x-height="508"
    cap-height="712"
    bbox="-178 -291 1087 979"
    underline-thickness="50"
    underline-position="-100"
    stemh="123"
    stemv="170"
    unicode-range="U+0020-FEFF"
  />
<missing-glyph horiz-adv-x="648" 
d="M151 777h346c84 0 137 -53 137 -137v-568c0 -84 -53 -137 -137 -137h-346c-84 0 -137 53 -137 137v568c0 84 53 137 137 137zM497 708h-346c-42 0 -68 -26 -68 -68v-568c0 -42 26 -68 68 -68h346c42 0 68 26 68 68v568c0 42 -26 68 -68 68zM325 647
c115 0 184 -57 184 -152c0 -54 -15 -85 -70 -136c-52 -49 -65 -73 -65 -134h-111c-1 13 -1 27 -1 38c0 65 10 91 63 145c40 40 47 56 47 85s-17 48 -47 48c-37 0 -57 -24 -57 -78h-135c1 120 72 184 192 184zM387 65h-136v119h136v-119z" />
    <glyph glyph-name="f_f" unicode="ff" horiz-adv-x="690" 
d="M657 600c-49 0 -74 -20 -74 -74v-18h94v-121h-94v-387h-164v387h-165v-387h-164v387h-81v121h81v37c0 118 65 176 183 176c28 0 59 -4 79 -9v-114c-5 1 -16 2 -24 2c-49 0 -74 -20 -74 -74v-18h165v37c0 118 65 176 183 176c28 0 59 -4 79 -9v-114c-5 1 -16 2 -24 2z" />
    <glyph glyph-name="f_f_i" unicode="ffi" horiz-adv-x="978" 
d="M419 508v37c0 118 65 176 183 176c28 0 59 -4 79 -9v-114c-5 1 -16 2 -24 2c-49 0 -74 -20 -74 -74v-18h94v-121h-94v-387h-164v387h-165v-387h-164v387h-81v121h81v37c0 118 65 176 183 176c28 0 59 -4 79 -9v-114c-5 1 -16 2 -24 2c-49 0 -74 -20 -74 -74v-18h165z
M917 712v-131h-166v131h166zM751 508h166v-508h-166v508z" />
    <glyph glyph-name="f_f_l" unicode="ffl" horiz-adv-x="978" 
d="M419 508v37c0 118 65 176 183 176c28 0 59 -4 79 -9v-114c-5 1 -16 2 -24 2c-49 0 -74 -20 -74 -74v-18h94v-121h-94v-387h-164v387h-165v-387h-164v387h-81v121h81v37c0 118 65 176 183 176c28 0 59 -4 79 -9v-114c-5 1 -16 2 -24 2c-49 0 -74 -20 -74 -74v-18h165z
M917 712v-712h-166v712h166z" />
    <glyph glyph-name="f_i" unicode="fi" horiz-adv-x="649" 
d="M90 508v37c0 118 65 176 183 176c28 0 59 -4 79 -9v-114c-5 1 -16 2 -24 2c-49 0 -74 -20 -74 -74v-18h94v-121h-94v-387h-164v387h-81v121h81zM588 712v-131h-166v131h166zM422 508h166v-508h-166v508z" />
    <glyph glyph-name="f_l" unicode="fl" horiz-adv-x="649" 
d="M90 508v37c0 118 65 176 183 176c28 0 59 -4 79 -9v-114c-5 1 -16 2 -24 2c-49 0 -74 -20 -74 -74v-18h94v-121h-94v-387h-164v387h-81v121h81zM588 712v-712h-166v712h166z" />
    <glyph glyph-name=".notdef" horiz-adv-x="648" 
d="M151 777h346c84 0 137 -53 137 -137v-568c0 -84 -53 -137 -137 -137h-346c-84 0 -137 53 -137 137v568c0 84 53 137 137 137zM497 708h-346c-42 0 -68 -26 -68 -68v-568c0 -42 26 -68 68 -68h346c42 0 68 26 68 68v568c0 42 -26 68 -68 68zM325 647
c115 0 184 -57 184 -152c0 -54 -15 -85 -70 -136c-52 -49 -65 -73 -65 -134h-111c-1 13 -1 27 -1 38c0 65 10 91 63 145c40 40 47 56 47 85s-17 48 -47 48c-37 0 -57 -24 -57 -78h-135c1 120 72 184 192 184zM387 65h-136v119h136v-119z" />
    <glyph glyph-name="NULL" horiz-adv-x="600" 
 />
    <glyph glyph-name="space" unicode=" " horiz-adv-x="230" 
 />
    <glyph glyph-name="exclam" unicode="!" horiz-adv-x="346" 
d="M240 210h-134l-31 502h195zM261 0h-176v147h176v-147z" />
    <glyph glyph-name="quotedbl" unicode="&#x22;" horiz-adv-x="463" 
d="M191 432h-121l-18 280h158zM393 432h-121l-18 280h157z" />
    <glyph glyph-name="numbersign" unicode="#" horiz-adv-x="695" 
d="M545 397l-19 -119h97l-18 -115h-97l-26 -163h-135l26 163h-106l-26 -163h-135l26 163h-97l18 115h97l19 119h-97l18 115h97l26 162h135l-26 -162h106l26 162h135l-26 -162h97l-18 -115h-97zM410 397h-106l-19 -119h106z" />
    <glyph glyph-name="dollar" unicode="$" horiz-adv-x="628" 
d="M590 195c0 -115 -83 -191 -219 -207v-87h-118v86c-137 18 -216 98 -216 232h167c0 -77 43 -109 113 -109c73 0 107 29 107 76c0 51 -49 65 -140 90c-112 31 -236 68 -236 208c0 110 77 185 205 202v78h118v-78c128 -16 201 -89 201 -219h-163c0 71 -38 101 -101 101
c-59 0 -96 -25 -96 -70c0 -52 44 -64 134 -86c119 -30 244 -65 244 -217z" />
    <glyph glyph-name="percent" unicode="%" horiz-adv-x="933" 
d="M331 -30h-100l371 734h100zM218 693c111 0 174 -74 174 -204c0 -131 -63 -204 -174 -204s-173 73 -173 204c0 130 62 204 173 204zM218 603c-35 0 -53 -38 -53 -114c0 -77 18 -115 53 -115c36 0 53 38 53 115c0 76 -17 114 -53 114zM714 389c111 0 174 -73 174 -204
c0 -130 -63 -204 -174 -204s-173 74 -173 204c0 131 62 204 173 204zM714 300c-35 0 -53 -38 -53 -115c0 -76 18 -114 53 -114c36 0 53 38 53 114c0 77 -17 115 -53 115z" />
    <glyph glyph-name="ampersand" unicode="&#x26;" horiz-adv-x="772" 
d="M569 0l-51 51c-52 -43 -127 -67 -209 -67c-175 0 -269 83 -269 210c0 89 46 156 143 203c-54 55 -73 94 -73 155c0 106 86 176 213 176c129 0 212 -66 212 -167c0 -75 -39 -136 -126 -188l110 -110c16 31 24 73 24 129h160c-1 -96 -26 -174 -75 -239l153 -153h-212z
M323 607c-36 0 -59 -23 -59 -60c0 -31 12 -53 53 -94c48 35 65 67 65 97c0 34 -25 57 -59 57zM323 112c37 0 71 10 102 33l-152 153c-45 -28 -62 -57 -62 -96c0 -52 41 -90 112 -90z" />
    <glyph glyph-name="quotesingle" unicode="'" horiz-adv-x="262" 
d="M191 432h-121l-18 280h158z" />
    <glyph glyph-name="parenleft" unicode="(" horiz-adv-x="349" 
d="M185 741h134c-74 -156 -104 -289 -104 -444c0 -154 30 -287 104 -444h-134c-101 143 -144 279 -144 444s43 302 144 444z" />
    <glyph glyph-name="parenright" unicode=")" horiz-adv-x="349" 
d="M30 741h134c101 -142 144 -279 144 -444s-43 -301 -144 -444h-134c74 157 104 290 104 444c0 155 -30 288 -104 444z" />
    <glyph glyph-name="asterisk" unicode="*" horiz-adv-x="448" 
d="M262 573l126 64l37 -115l-139 -22l99 -99l-97 -71l-64 125l-63 -125l-98 71l99 99l-139 22l37 115l126 -64l-23 139h122z" />
    <glyph glyph-name="plus" unicode="+" horiz-adv-x="566" 
d="M348 381h159v-129h-159v-159h-130v159h-159v129h159v160h130v-160z" />
    <glyph glyph-name="comma" unicode="," horiz-adv-x="274" 
d="M226 0l-91 -178h-98l69 178h-57v184h177v-184z" />
    <glyph glyph-name="hyphen" unicode="-" horiz-adv-x="337" 
d="M307 231h-277v122h277v-122z" />
    <glyph glyph-name="period" unicode="." horiz-adv-x="274" 
d="M225 0h-176v184h176v-184z" />
    <glyph glyph-name="slash" unicode="/" horiz-adv-x="503" 
d="M155 -89h-125l298 834h124z" />
    <glyph glyph-name="zero" unicode="0" horiz-adv-x="623" 
d="M311 690c181 0 282 -128 282 -353c0 -226 -101 -353 -282 -353s-282 127 -282 353c0 225 101 353 282 353zM311 556c-70 0 -107 -79 -107 -219c0 -141 37 -221 107 -221s108 80 108 221c0 140 -38 219 -108 219z" />
    <glyph glyph-name="one" unicode="1" horiz-adv-x="623" 
d="M429 0h-171v435h-163v122c115 0 168 35 180 117h154v-674z" />
    <glyph glyph-name="two" unicode="2" horiz-adv-x="623" 
d="M310 690c155 0 252 -81 252 -200s-73 -174 -175 -227c-121 -63 -142 -88 -145 -126h337v-137h-538c-1 9 -1 20 -1 31c0 137 40 220 194 305c95 53 152 87 152 152c0 42 -28 69 -76 69c-59 0 -90 -34 -90 -100h-171c2 151 99 233 261 233z" />
    <glyph glyph-name="three" unicode="3" horiz-adv-x="623" 
d="M310 690c157 0 254 -74 254 -191c0 -74 -36 -120 -117 -149v-2c88 -29 127 -78 127 -162c0 -124 -104 -202 -262 -202c-179 0 -277 84 -277 240h173c0 -71 35 -107 104 -107c54 0 90 29 90 75c0 54 -39 82 -121 82h-20v128h22c70 0 112 32 112 80c0 46 -34 75 -88 75
c-60 0 -94 -34 -94 -101h-169c0 147 98 234 266 234z" />
    <glyph glyph-name="four" unicode="4" horiz-adv-x="623" 
d="M604 140h-104v-140h-168v140h-320v136l265 398h223v-405h104v-129zM162 269h176v75c0 70 2 140 7 210h-2c-36 -65 -75 -128 -117 -191z" />
    <glyph glyph-name="five" unicode="5" horiz-adv-x="623" 
d="M539 537h-310l-14 -136h2c35 33 82 50 134 50c134 0 226 -91 226 -223c0 -149 -109 -244 -273 -244c-156 0 -258 78 -258 207h172c1 -49 40 -77 88 -77c62 0 97 37 97 106s-38 104 -95 104c-48 0 -78 -27 -87 -65l-167 11l38 404h447v-137z" />
    <glyph glyph-name="six" unicode="6" horiz-adv-x="623" 
d="M333 690c141 0 232 -76 241 -205h-172c-6 49 -33 76 -78 76c-64 0 -113 -54 -117 -186h2c39 43 90 65 153 65c131 0 220 -89 220 -218c0 -141 -107 -238 -263 -238c-174 0 -275 113 -275 336c0 235 108 370 289 370zM320 319c-54 0 -90 -42 -90 -105c0 -59 35 -99 89 -99
c55 0 91 41 91 101c0 62 -35 103 -90 103z" />
    <glyph glyph-name="seven" unicode="7" horiz-adv-x="623" 
d="M568 674v-139c-100 -140 -178 -335 -214 -535h-184c47 223 141 419 232 532h-359v142h525z" />
    <glyph glyph-name="eight" unicode="8" horiz-adv-x="623" 
d="M311 690c151 0 255 -74 255 -188c0 -73 -47 -131 -123 -151v-2c84 -20 138 -83 138 -166c0 -125 -104 -199 -270 -199c-165 0 -269 74 -269 199c0 83 54 146 138 166v2c-76 20 -123 78 -123 151c0 114 103 188 254 188zM311 561c-56 0 -92 -29 -92 -75
c0 -48 35 -78 92 -78s93 30 93 78c0 46 -36 75 -93 75zM311 282c-60 0 -98 -33 -98 -84s38 -83 98 -83c61 0 99 32 99 83s-38 84 -99 84z" />
    <glyph glyph-name="nine" unicode="9" horiz-adv-x="623" 
d="M280 -16c-141 0 -233 76 -241 206h172c6 -50 33 -76 78 -76c64 0 112 53 116 185h-2c-38 -43 -89 -65 -152 -65c-131 0 -221 90 -221 218c0 142 108 238 264 238c174 0 275 -113 275 -336c0 -235 -108 -370 -289 -370zM293 355c54 0 89 42 89 105c0 60 -34 99 -89 99
c-54 0 -90 -40 -90 -100c0 -62 35 -104 90 -104z" />
    <glyph glyph-name="colon" unicode=":" horiz-adv-x="274" 
d="M225 324h-176v184h176v-184zM225 0h-176v184h176v-184z" />
    <glyph glyph-name="semicolon" unicode=";" horiz-adv-x="274" 
d="M225 324h-176v184h176v-184zM226 0l-91 -178h-98l69 178h-57v184h177v-184z" />
    <glyph glyph-name="less" unicode="&#x3c;" horiz-adv-x="566" 
d="M507 431l-295 -113v-2l295 -113v-138l-448 176v152l448 176v-138z" />
    <glyph glyph-name="equal" unicode="=" horiz-adv-x="566" 
d="M507 356h-448v124h448v-124zM507 153h-448v124h448v-124z" />
    <glyph glyph-name="greater" unicode="&#x3e;" horiz-adv-x="566" 
d="M507 393v-152l-448 -176v138l295 113v2l-295 113v138z" />
    <glyph glyph-name="question" unicode="?" horiz-adv-x="570" 
d="M287 727c155 0 248 -71 248 -189c0 -68 -21 -106 -99 -171c-72 -61 -89 -91 -89 -169h-140c-2 15 -2 32 -2 44c0 85 15 119 91 187c56 51 65 70 65 106c0 38 -27 62 -74 62c-56 0 -86 -30 -87 -98h-172c2 150 97 228 259 228zM364 0h-176v147h176v-147z" />
    <glyph glyph-name="at" unicode="@" horiz-adv-x="870" 
d="M447 708c237 0 391 -150 391 -379c0 -179 -99 -262 -209 -262c-69 0 -114 28 -128 81h-2c-28 -53 -70 -81 -129 -81c-94 0 -151 69 -153 198c2 151 82 253 196 253c53 0 85 -25 102 -64h2c3 14 7 37 11 54h123c-23 -109 -41 -232 -41 -285c0 -40 14 -55 41 -55
c49 0 94 50 94 161c0 173 -117 287 -298 287c-209 0 -323 -148 -323 -338c0 -193 121 -307 308 -307c87 0 160 18 217 52l42 -82c-68 -39 -156 -62 -259 -62c-244 0 -401 150 -401 399c0 235 156 430 416 430zM435 404c-46 0 -84 -46 -84 -134c0 -57 22 -88 59 -88
c44 0 82 48 82 140c0 52 -20 82 -57 82z" />
    <glyph glyph-name="A" unicode="A" horiz-adv-x="715" 
d="M487 151h-258l-46 -151h-182l243 712h227l243 -712h-182zM445 293l-15 48c-26 85 -51 173 -72 259h-2c-21 -86 -45 -174 -70 -259l-14 -48h173z" />
    <glyph glyph-name="B" unicode="B" horiz-adv-x="664" 
d="M76 712h278c177 0 259 -74 259 -183c0 -83 -39 -134 -121 -163v-2c93 -21 139 -76 139 -166c0 -121 -96 -198 -260 -198h-295v712zM246 578v-154h90c77 0 110 25 110 78s-32 76 -104 76h-96zM246 297v-162h94c81 0 113 25 113 79c0 57 -33 83 -116 83h-91z" />
    <glyph glyph-name="C" unicode="C" horiz-adv-x="715" 
d="M367 728c184 0 303 -106 310 -272h-179c-8 77 -56 122 -131 122c-94 0 -152 -84 -152 -222s58 -222 150 -222c75 0 124 46 134 126h181c-14 -177 -134 -276 -315 -276c-205 0 -331 141 -331 372s127 372 333 372z" />
    <glyph glyph-name="D" unicode="D" horiz-adv-x="742" 
d="M76 712h252c244 0 380 -128 380 -356s-136 -356 -380 -356h-252v712zM248 565v-418h76c135 0 204 71 204 209s-69 209 -204 209h-76z" />
    <glyph glyph-name="E" unicode="E" horiz-adv-x="634" 
d="M579 567h-330v-135h308v-143h-308v-144h338v-145h-511v712h503v-145z" />
    <glyph glyph-name="F" unicode="F" horiz-adv-x="591" 
d="M566 564h-317v-164h294v-147h-294v-253h-173v712h490v-148z" />
    <glyph glyph-name="G" unicode="G" horiz-adv-x="751" 
d="M379 728c179 0 294 -95 307 -243h-186c-10 62 -52 98 -121 98c-101 0 -164 -87 -164 -230c0 -146 62 -235 163 -235c89 0 141 54 143 148h-153v134h315v-400h-148v72h-2c-41 -55 -110 -86 -198 -86c-185 0 -301 139 -301 367c0 233 132 375 345 375z" />
    <glyph glyph-name="H" unicode="H" horiz-adv-x="761" 
d="M685 0h-173v295h-263v-295h-173v712h173v-270h263v270h173v-712z" />
    <glyph glyph-name="I" unicode="I" horiz-adv-x="325" 
d="M249 0h-173v712h173v-712z" />
    <glyph glyph-name="J" unicode="J" horiz-adv-x="410" 
d="M339 712v-471c0 -171 -76 -249 -246 -249c-28 0 -57 3 -78 9v144c14 -3 33 -5 45 -5c75 0 106 29 106 139v433h173z" />
    <glyph glyph-name="K" unicode="K" horiz-adv-x="690" 
d="M408 375l278 -375h-218l-217 328h-2v-328h-173v712h173v-307h2l209 307h207z" />
    <glyph glyph-name="L" unicode="L" horiz-adv-x="580" 
d="M249 147h322v-147h-495v712h173v-565z" />
    <glyph glyph-name="M" unicode="M" horiz-adv-x="1013" 
d="M937 0h-163v348c0 88 2 176 6 263h-2c-20 -86 -44 -174 -68 -259l-101 -352h-205l-101 352c-24 85 -48 173 -68 259h-2c4 -87 6 -175 6 -263v-348h-163v712h277l91 -316c24 -87 45 -175 62 -262h2c16 87 37 175 61 262l92 316h276v-712z" />
    <glyph glyph-name="N" unicode="N" horiz-adv-x="801" 
d="M726 0h-250l-124 281c-41 92 -81 189 -116 285h-2c5 -100 8 -200 8 -300v-266h-166v712h249l125 -281c40 -92 80 -189 116 -285h2c-6 100 -8 200 -8 300v266h166v-712z" />
    <glyph glyph-name="O" unicode="O" horiz-adv-x="757" 
d="M379 728c212 0 344 -143 344 -372s-132 -372 -344 -372c-213 0 -345 143 -345 372s132 372 345 372zM379 578c-104 0 -164 -82 -164 -222s60 -222 164 -222c103 0 163 82 163 222s-60 222 -163 222z" />
    <glyph glyph-name="P" unicode="P" horiz-adv-x="654" 
d="M76 712h285c181 0 271 -93 271 -237c0 -143 -90 -236 -271 -236h-112v-239h-173v712zM249 573v-195h88c83 0 118 37 118 97c0 61 -35 98 -118 98h-88z" />
    <glyph glyph-name="Q" unicode="Q" horiz-adv-x="757" 
d="M723 356c0 -110 -31 -201 -86 -265l78 -88l-89 -82l-87 97c-46 -22 -100 -34 -161 -34c-211 0 -344 143 -344 372s133 372 344 372c213 0 345 -143 345 -372zM383 123c20 0 38 3 54 9l-91 101l91 82l88 -99c16 36 25 82 25 135c0 142 -62 227 -167 227
c-106 0 -168 -85 -168 -227c0 -143 62 -228 168 -228z" />
    <glyph glyph-name="R" unicode="R" horiz-adv-x="685" 
d="M76 712h289c182 0 262 -74 262 -203c0 -87 -50 -150 -131 -174v-2c51 -18 76 -51 109 -143l69 -190h-186l-54 161c-25 73 -53 99 -120 99h-65v-260h-173v712zM249 578v-187h95c80 0 112 36 112 96c0 63 -43 91 -119 91h-88z" />
    <glyph glyph-name="S" unicode="S" horiz-adv-x="645" 
d="M315 728c179 0 279 -80 279 -233h-180c0 63 -37 99 -106 99c-57 0 -94 -27 -94 -67c0 -47 38 -62 142 -88c137 -34 257 -71 257 -227c0 -139 -114 -228 -291 -228c-185 0 -298 89 -298 248h184c0 -73 39 -110 118 -110c65 0 105 29 105 75c0 54 -41 65 -136 90
c-136 35 -259 70 -259 224c0 130 108 217 279 217z" />
    <glyph glyph-name="T" unicode="T" horiz-adv-x="627" 
d="M618 565h-218v-565h-173v565h-218v147h609v-147z" />
    <glyph glyph-name="U" unicode="U" horiz-adv-x="725" 
d="M655 712v-436c0 -188 -105 -292 -293 -292c-187 0 -292 104 -292 292v436h173v-432c0 -94 42 -144 119 -144c78 0 120 50 120 144v432h173z" />
    <glyph glyph-name="V" unicode="V" horiz-adv-x="663" 
d="M444 0h-226l-214 712h181l77 -275c27 -92 50 -187 68 -280h2c18 93 42 188 68 280l78 275h180z" />
    <glyph glyph-name="W" unicode="W" horiz-adv-x="991" 
d="M839 0h-230l-60 285c-21 95 -39 191 -53 286h-2c-14 -95 -32 -191 -52 -286l-60 -285h-230l-144 712h168l48 -257c18 -98 34 -199 46 -298h2c16 99 35 199 57 298l56 257h221l56 -257c22 -99 41 -199 56 -298h2c13 99 29 200 47 298l47 257h169z" />
    <glyph glyph-name="X" unicode="X" horiz-adv-x="669" 
d="M446 365l222 -365h-204l-128 246h-2l-129 -246h-203l221 365l-209 347h199l121 -238h2l120 238h199z" />
    <glyph glyph-name="Y" unicode="Y" horiz-adv-x="663" 
d="M418 269v-269h-173v269l-244 443h192l62 -129c28 -58 54 -119 76 -179h2c21 60 47 121 75 179l62 129h192z" />
    <glyph glyph-name="Z" unicode="Z" horiz-adv-x="593" 
d="M556 562l-329 -416v-2h345v-144h-552v150l329 416v2h-314v144h521v-150z" />
    <glyph glyph-name="bracketleft" unicode="[" horiz-adv-x="358" 
d="M338 636h-117v-683h117v-104h-273v892h273v-105z" />
    <glyph glyph-name="backslash" unicode="\" horiz-adv-x="503" 
d="M176 745l297 -834h-124l-298 834h125z" />
    <glyph glyph-name="bracketright" unicode="]" horiz-adv-x="358" 
d="M293 741v-892h-273v104h117v683h-117v105h273z" />
    <glyph glyph-name="asciicircum" unicode="^" horiz-adv-x="520" 
d="M513 371h-152l-100 211h-2l-100 -211h-152l166 341h174z" />
    <glyph glyph-name="underscore" unicode="_" horiz-adv-x="500" 
d="M500 -141h-500v91h500v-91z" />
    <glyph glyph-name="grave" unicode="`" horiz-adv-x="369" 
d="M241 712l78 -148h-128l-141 148h191z" />
    <glyph glyph-name="a" unicode="a" horiz-adv-x="561" 
d="M275 524c156 0 231 -72 231 -206v-175c0 -66 5 -108 15 -143h-150c-5 20 -7 42 -7 66h-2c-39 -53 -96 -79 -165 -79c-110 0 -175 67 -175 156c0 87 53 141 202 164c37 6 91 12 122 14v18c0 57 -29 80 -71 80c-45 0 -71 -25 -72 -71h-160c5 96 75 176 232 176zM346 212v18
c-25 -1 -64 -5 -90 -10c-50 -10 -70 -29 -70 -65c0 -35 23 -58 65 -58c25 0 52 8 70 26c21 22 25 47 25 89z" />
    <glyph glyph-name="b" unicode="b" horiz-adv-x="610" 
d="M227 453h2c31 45 84 69 139 69c129 0 212 -105 212 -268s-85 -268 -216 -268c-56 0 -110 26 -141 77h-2v-63h-160v712h166v-259zM311 396c-56 0 -93 -54 -93 -142s37 -142 93 -142c58 0 95 56 95 142s-37 142 -95 142z" />
    <glyph glyph-name="c" unicode="c" horiz-adv-x="575" 
d="M295 524c144 0 243 -85 254 -210h-172c-5 54 -36 85 -81 85c-58 0 -92 -54 -92 -144c0 -92 35 -145 93 -145c45 0 76 35 79 94h173c-11 -134 -108 -220 -253 -220c-162 0 -266 106 -266 271c0 164 104 269 265 269z" />
    <glyph glyph-name="d" unicode="d" horiz-adv-x="610" 
d="M549 0h-160v63h-2c-31 -51 -85 -77 -141 -77c-131 0 -216 105 -216 268s83 268 212 268c55 0 108 -24 139 -69h2v259h166v-712zM299 396c-58 0 -95 -56 -95 -142s37 -142 95 -142c56 0 93 54 93 142s-37 142 -93 142z" />
    <glyph glyph-name="e" unicode="e" horiz-adv-x="584" 
d="M292 95c48 0 80 26 85 61h169c-21 -96 -116 -172 -252 -172c-170 0 -264 115 -264 274c0 150 95 266 262 266c120 0 207 -63 242 -163c14 -38 20 -79 20 -141h-361c4 -95 48 -125 99 -125zM292 415c-49 0 -86 -29 -96 -101h191c-7 71 -47 101 -95 101z" />
    <glyph glyph-name="f" unicode="f" horiz-adv-x="361" 
d="M328 600c-49 0 -74 -20 -74 -74v-18h94v-121h-94v-387h-164v387h-81v121h81v37c0 118 65 176 183 176c28 0 59 -4 79 -9v-114c-5 1 -16 2 -24 2z" />
    <glyph glyph-name="g" unicode="g" horiz-adv-x="602" 
d="M240 522c61 0 108 -27 144 -82h2v68h155v-475c0 -157 -97 -228 -255 -228c-143 0 -224 61 -234 163h161c3 -35 30 -56 76 -56c56 0 91 30 91 121v47h-2c-35 -49 -82 -74 -141 -74c-127 0 -207 101 -207 258c0 158 82 258 210 258zM292 392c-55 0 -90 -49 -90 -128
c0 -78 35 -127 90 -127c57 0 93 50 93 127c0 78 -36 128 -93 128z" />
    <glyph glyph-name="h" unicode="h" 
d="M227 457h2c33 41 81 64 137 64c114 0 186 -71 186 -209v-312h-166v294c0 66 -27 98 -74 98c-51 0 -85 -41 -85 -129v-263h-166v712h166v-255z" />
    <glyph glyph-name="i" unicode="i" horiz-adv-x="288" 
d="M227 581h-166v131h166v-131zM227 0h-166v508h166v-508z" />
    <glyph glyph-name="j" unicode="j" horiz-adv-x="289" 
d="M228 581h-166v131h166v-131zM228 508v-507c0 -136 -78 -191 -187 -191c-31 0 -58 3 -80 9v116c8 -2 16 -3 26 -3c50 0 75 21 75 97v479h166z" />
    <glyph glyph-name="k" unicode="k" horiz-adv-x="566" 
d="M576 0h-204l-143 230h-2v-230h-166v712h166v-404h2l136 200h192l-181 -237z" />
    <glyph glyph-name="l" unicode="l" horiz-adv-x="288" 
d="M227 0h-166v712h166v-712z" />
    <glyph glyph-name="m" unicode="m" horiz-adv-x="908" 
d="M674 521c109 0 178 -71 178 -209v-312h-166v294c0 66 -25 98 -67 98c-51 0 -79 -45 -79 -134v-258h-166v301c0 60 -25 91 -67 91c-52 0 -80 -45 -80 -134v-258h-166v508h155v-58h2c35 47 81 71 143 71c68 0 121 -29 150 -88c37 54 86 88 163 88z" />
    <glyph glyph-name="n" unicode="n" 
d="M366 521c114 0 186 -71 186 -209v-312h-166v294c0 66 -27 98 -74 98c-51 0 -85 -41 -85 -129v-263h-166v508h155v-61h2c33 44 83 74 148 74z" />
    <glyph glyph-name="o" unicode="o" horiz-adv-x="604" 
d="M302 524c166 0 272 -105 272 -270s-106 -270 -272 -270s-272 105 -272 270s106 270 272 270zM302 398c-61 0 -97 -55 -97 -144s36 -144 97 -144s97 55 97 144s-36 144 -97 144z" />
    <glyph glyph-name="p" unicode="p" horiz-adv-x="610" 
d="M364 522c131 0 216 -105 216 -268s-83 -268 -212 -268c-55 0 -108 24 -139 69h-2v-240h-166v693h160v-63h2c31 51 85 77 141 77zM311 396c-56 0 -93 -54 -93 -142s37 -142 93 -142c58 0 95 56 95 142s-37 142 -95 142z" />
    <glyph glyph-name="q" unicode="q" horiz-adv-x="610" 
d="M246 522c56 0 110 -26 141 -77h2v63h160v-693h-166v240h-2c-31 -45 -84 -69 -139 -69c-129 0 -212 105 -212 268s85 268 216 268zM299 396c-58 0 -95 -56 -95 -142s37 -142 95 -142c56 0 93 54 93 142s-37 142 -93 142z" />
    <glyph glyph-name="r" unicode="r" horiz-adv-x="415" 
d="M360 516c15 0 33 -2 48 -6v-142c-17 3 -34 5 -51 5c-84 0 -130 -53 -130 -150v-223h-166v508h154v-70h2c35 54 81 78 143 78z" />
    <glyph glyph-name="s" unicode="s" horiz-adv-x="542" 
d="M267 524c140 0 225 -56 225 -170h-158c0 46 -26 65 -68 65c-38 0 -59 -15 -59 -40c0 -31 27 -40 104 -60c95 -25 199 -53 199 -172c0 -98 -88 -163 -236 -163c-155 0 -243 58 -243 181h167c0 -47 25 -72 78 -72c42 0 64 17 64 42c0 37 -33 47 -117 69
c-87 22 -180 45 -180 161c0 92 79 159 224 159z" />
    <glyph glyph-name="t" unicode="t" horiz-adv-x="378" 
d="M316 123c13 0 27 2 37 5v-125c-22 -6 -58 -11 -84 -11c-127 0 -183 49 -183 169v226h-79v121h79v137h166v-137h96v-121h-96v-188c0 -54 18 -76 64 -76z" />
    <glyph glyph-name="u" unicode="u" 
d="M242 -13c-114 0 -186 71 -186 209v312h166v-294c0 -66 27 -98 74 -98c51 0 85 41 85 129v263h166v-508h-155v61h-2c-33 -44 -83 -74 -148 -74z" />
    <glyph glyph-name="v" unicode="v" horiz-adv-x="533" 
d="M377 0h-221l-164 508h176l50 -186c18 -71 34 -143 47 -215h2c13 72 30 144 48 215l49 186h177z" />
    <glyph glyph-name="w" unicode="w" horiz-adv-x="848" 
d="M731 0h-227l-41 191c-15 70 -28 142 -38 213h-2c-10 -71 -23 -143 -38 -213l-41 -191h-227l-113 508h162l33 -187c13 -71 24 -144 32 -216h2c11 72 24 144 41 217l42 186h216l42 -186c17 -73 30 -145 41 -217h2c8 72 19 145 32 216l33 187h162z" />
    <glyph glyph-name="x" unicode="x" horiz-adv-x="535" 
d="M371 261l170 -261h-190l-83 163h-2l-83 -163h-189l170 261l-159 247h188l73 -145h2l73 145h189z" />
    <glyph glyph-name="y" unicode="y" horiz-adv-x="530" 
d="M538 508l-169 -499c-51 -151 -114 -201 -244 -201c-29 0 -62 4 -86 9v126c15 -5 33 -8 51 -8c47 0 77 25 77 66c0 18 -3 31 -28 98l-149 409h179l49 -170c19 -69 37 -141 51 -212h2c14 71 31 142 51 213l47 169h169z" />
    <glyph glyph-name="z" unicode="z" horiz-adv-x="502" 
d="M465 377l-232 -248v-2h240v-127h-444v131l231 248v2h-222v127h427v-131z" />
    <glyph glyph-name="braceleft" unicode="{" horiz-adv-x="361" 
d="M333 741v-95c-54 -2 -76 -21 -76 -84v-132c0 -78 -32 -117 -101 -134v-3c69 -18 101 -57 101 -135v-132c0 -63 22 -82 76 -84v-95h-25c-155 0 -201 55 -201 185v123c0 55 -16 76 -67 89v100c51 13 67 34 67 89v123c0 130 46 185 201 185h25z" />
    <glyph glyph-name="bar" unicode="|" horiz-adv-x="297" 
d="M219 -205h-142v937h142v-937z" />
    <glyph glyph-name="braceright" unicode="}" horiz-adv-x="361" 
d="M28 741h25c154 0 200 -55 200 -185v-123c0 -55 16 -76 68 -89v-100c-52 -13 -68 -34 -68 -89v-123c0 -130 -46 -185 -200 -185h-25v95c54 2 76 21 76 84v132c0 78 32 117 101 135v3c-69 17 -101 56 -101 134v132c0 63 -22 82 -76 84v95z" />
    <glyph glyph-name="asciitilde" unicode="~" horiz-adv-x="600" 
d="M198 425c95 0 147 -86 207 -86c38 0 64 30 64 78h106c0 -125 -72 -207 -173 -207c-96 0 -148 86 -207 86c-38 0 -64 -31 -64 -78h-106c0 124 72 207 173 207z" />
    <glyph glyph-name="Aacute" unicode="&#xc1;" horiz-adv-x="715" 
d="M390 760h-128l78 151h191zM487 151h-258l-46 -151h-182l243 712h227l243 -712h-182zM445 293l-15 48c-26 85 -51 173 -72 259h-2c-21 -86 -45 -174 -70 -259l-14 -48h173z" />
    <glyph glyph-name="Abreve" unicode="&#x102;" horiz-adv-x="715" 
d="M357 757c-108 0 -173 56 -178 154h106c2 -37 28 -58 72 -58s69 21 72 58h106c-5 -98 -70 -154 -178 -154zM487 151h-258l-46 -151h-182l243 712h227l243 -712h-182zM445 293l-15 48c-26 85 -51 173 -72 259h-2c-21 -86 -45 -174 -70 -259l-14 -48h173z" />
    <glyph glyph-name="Acircumflex" unicode="&#xc2;" horiz-adv-x="715" 
d="M297 760h-138l120 151h156l120 -151h-138l-60 79zM487 151h-258l-46 -151h-182l243 712h227l243 -712h-182zM445 293l-15 48c-26 85 -51 173 -72 259h-2c-21 -86 -45 -174 -70 -259l-14 -48h173z" />
    <glyph glyph-name="Adieresis" unicode="&#xc4;" horiz-adv-x="715" 
d="M316 769h-143v131h143v-131zM542 769h-142v131h142v-131zM487 151h-258l-46 -151h-182l243 712h227l243 -712h-182zM445 293l-15 48c-26 85 -51 173 -72 259h-2c-21 -86 -45 -174 -70 -259l-14 -48h173z" />
    <glyph glyph-name="Agrave" unicode="&#xc0;" horiz-adv-x="715" 
d="M325 760l-141 151h191l78 -151h-128zM487 151h-258l-46 -151h-182l243 712h227l243 -712h-182zM445 293l-15 48c-26 85 -51 173 -72 259h-2c-21 -86 -45 -174 -70 -259l-14 -48h173z" />
    <glyph glyph-name="Amacron" unicode="&#x100;" horiz-adv-x="715" 
d="M537 776h-359v103h359v-103zM487 151h-258l-46 -151h-182l243 712h227l243 -712h-182zM445 293l-15 48c-26 85 -51 173 -72 259h-2c-21 -86 -45 -174 -70 -259l-14 -48h173z" />
    <glyph glyph-name="Aogonek" unicode="&#x104;" horiz-adv-x="715" 
d="M682 -109c12 0 25 3 35 7v-82c-25 -9 -58 -15 -93 -15c-83 0 -123 35 -123 91c0 45 30 76 84 108h-53l-45 151h-258l-46 -151h-182l243 712h227l243 -712c-50 -33 -65 -55 -65 -79c0 -20 11 -30 33 -30zM445 293l-15 48c-26 85 -51 173 -72 259h-2
c-21 -86 -45 -174 -70 -259l-14 -48h173z" />
    <glyph glyph-name="Aring" unicode="&#xc5;" horiz-adv-x="715" 
d="M357 752c-63 0 -114 51 -114 113c0 63 51 114 114 114s114 -51 114 -114c0 -62 -51 -113 -114 -113zM357 921c-31 0 -56 -25 -56 -56s25 -56 56 -56s56 25 56 56s-25 56 -56 56zM487 151h-258l-46 -151h-182l243 712h227l243 -712h-182zM445 293l-15 48
c-26 85 -51 173 -72 259h-2c-21 -86 -45 -174 -70 -259l-14 -48h173z" />
    <glyph glyph-name="Atilde" unicode="&#xc3;" horiz-adv-x="715" 
d="M293 811c-26 0 -39 -15 -42 -43h-89c4 88 47 143 124 143c64 0 95 -43 134 -43c27 0 39 14 43 43h89c-5 -88 -48 -143 -125 -143c-63 0 -94 43 -134 43zM487 151h-258l-46 -151h-182l243 712h227l243 -712h-182zM445 293l-15 48c-26 85 -51 173 -72 259h-2
c-21 -86 -45 -174 -70 -259l-14 -48h173z" />
    <glyph glyph-name="AE" unicode="&#xc6;" horiz-adv-x="977" 
d="M930 145v-145h-410l-23 160h-245l-67 -160h-191l318 712h611v-145h-319l19 -135h276v-143h-256l21 -144h266zM477 303l-39 269h-14l-112 -269h165z" />
    <glyph glyph-name="Cacute" unicode="&#x106;" horiz-adv-x="715" 
d="M399 760h-128l78 151h191zM367 728c184 0 303 -106 310 -272h-179c-8 77 -56 122 -131 122c-94 0 -152 -84 -152 -222s58 -222 150 -222c75 0 124 46 134 126h181c-14 -177 -134 -276 -315 -276c-205 0 -331 141 -331 372s127 372 333 372z" />
    <glyph glyph-name="Ccaron" unicode="&#x10c;" horiz-adv-x="715" 
d="M445 760h-156l-120 151h138l60 -79l60 79h138zM367 728c184 0 303 -106 310 -272h-179c-8 77 -56 122 -131 122c-94 0 -152 -84 -152 -222s58 -222 150 -222c75 0 124 46 134 126h181c-14 -177 -134 -276 -315 -276c-205 0 -331 141 -331 372s127 372 333 372z" />
    <glyph glyph-name="Ccedilla" unicode="&#xc7;" horiz-adv-x="715" 
d="M499 260h181c-13 -166 -119 -263 -281 -275l-28 -45c9 3 22 5 33 5c51 0 87 -29 87 -78c0 -55 -43 -99 -128 -99c-41 0 -84 11 -120 32l26 53c30 -15 58 -22 81 -22c28 0 44 11 44 31c0 19 -16 33 -44 33c-11 0 -22 -2 -31 -6l-29 27l42 69c-185 15 -298 153 -298 371
c0 231 127 372 333 372c184 0 303 -106 310 -272h-179c-8 77 -56 122 -131 122c-94 0 -152 -84 -152 -222s58 -222 150 -222c75 0 124 46 134 126z" />
    <glyph glyph-name="Ccircumflex" unicode="&#x108;" horiz-adv-x="715" 
d="M289 911h156l120 -151h-138l-60 79l-60 -79h-138zM367 728c184 0 303 -106 310 -272h-179c-8 77 -56 122 -131 122c-94 0 -152 -84 -152 -222s58 -222 150 -222c75 0 124 46 134 126h181c-14 -177 -134 -276 -315 -276c-205 0 -331 141 -331 372s127 372 333 372z" />
    <glyph glyph-name="Cdotaccent" unicode="&#x10a;" horiz-adv-x="715" 
d="M450 769h-166v131h166v-131zM367 728c184 0 303 -106 310 -272h-179c-8 77 -56 122 -131 122c-94 0 -152 -84 -152 -222s58 -222 150 -222c75 0 124 46 134 126h181c-14 -177 -134 -276 -315 -276c-205 0 -331 141 -331 372s127 372 333 372z" />
    <glyph glyph-name="Eth" unicode="&#xd0;" horiz-adv-x="744" 
d="M77 712h253c243 0 380 -128 380 -356s-137 -356 -380 -356h-253v303h-62v114h62v295zM250 147h76c135 0 204 71 204 209s-69 209 -204 209h-76v-148h153v-114h-153v-156z" />
    <glyph glyph-name="Dcaron" unicode="&#x10e;" horiz-adv-x="742" 
d="M418 760h-156l-120 151h138l60 -79l60 79h138zM76 712h252c244 0 380 -128 380 -356s-136 -356 -380 -356h-252v712zM248 565v-418h76c135 0 204 71 204 209s-69 209 -204 209h-76z" />
    <glyph glyph-name="Dcroat" unicode="&#x110;" horiz-adv-x="744" 
d="M77 712h253c243 0 380 -128 380 -356s-137 -356 -380 -356h-253v303h-62v114h62v295zM250 147h76c135 0 204 71 204 209s-69 209 -204 209h-76v-148h153v-114h-153v-156z" />
    <glyph glyph-name="Eacute" unicode="&#xc9;" horiz-adv-x="634" 
d="M361 760h-128l78 151h191zM579 567h-330v-135h308v-143h-308v-144h338v-145h-511v712h503v-145z" />
    <glyph glyph-name="Ebreve" unicode="&#x114;" horiz-adv-x="634" 
d="M400 911h106c-5 -98 -70 -154 -178 -154s-173 56 -178 154h106c2 -37 28 -58 72 -58s69 21 72 58zM579 567h-330v-135h308v-143h-308v-144h338v-145h-511v712h503v-145z" />
    <glyph glyph-name="Ecaron" unicode="&#x11a;" horiz-adv-x="634" 
d="M406 760h-156l-120 151h138l60 -79l60 79h138zM579 567h-330v-135h308v-143h-308v-144h338v-145h-511v712h503v-145z" />
    <glyph glyph-name="Ecircumflex" unicode="&#xca;" horiz-adv-x="634" 
d="M250 911h156l120 -151h-138l-60 79l-60 -79h-138zM579 567h-330v-135h308v-143h-308v-144h338v-145h-511v712h503v-145z" />
    <glyph glyph-name="Edieresis" unicode="&#xcb;" horiz-adv-x="634" 
d="M287 769h-143v131h143v-131zM513 769h-142v131h142v-131zM579 567h-330v-135h308v-143h-308v-144h338v-145h-511v712h503v-145z" />
    <glyph glyph-name="Edotaccent" unicode="&#x116;" horiz-adv-x="634" 
d="M411 769h-166v131h166v-131zM579 567h-330v-135h308v-143h-308v-144h338v-145h-511v712h503v-145z" />
    <glyph glyph-name="Egrave" unicode="&#xc8;" horiz-adv-x="634" 
d="M346 911l78 -151h-128l-141 151h191zM579 567h-330v-135h308v-143h-308v-144h338v-145h-511v712h503v-145z" />
    <glyph glyph-name="Emacron" unicode="&#x112;" horiz-adv-x="634" 
d="M508 776h-359v103h359v-103zM579 567h-330v-135h308v-143h-308v-144h338v-145h-511v712h503v-145z" />
    <glyph glyph-name="Eogonek" unicode="&#x118;" horiz-adv-x="634" 
d="M555 -109c12 0 25 3 35 7v-82c-25 -9 -58 -15 -93 -15c-83 0 -123 35 -123 91c0 45 30 76 84 108h-382v712h503v-145h-330v-135h308v-143h-308v-144h338v-145c-50 -33 -65 -55 -65 -79c0 -20 11 -30 33 -30z" />
    <glyph glyph-name="Gbreve" unicode="&#x11e;" horiz-adv-x="751" 
d="M444 911h106c-5 -98 -70 -154 -178 -154s-173 56 -178 154h106c2 -37 28 -58 72 -58s69 21 72 58zM379 728c179 0 294 -95 307 -243h-186c-10 62 -52 98 -121 98c-101 0 -164 -87 -164 -230c0 -146 62 -235 163 -235c89 0 141 54 143 148h-153v134h315v-400h-148v72h-2
c-41 -55 -110 -86 -198 -86c-185 0 -301 139 -301 367c0 233 132 375 345 375z" />
    <glyph glyph-name="Gcircumflex" unicode="&#x11c;" horiz-adv-x="751" 
d="M294 911h156l120 -151h-138l-60 79l-60 -79h-138zM379 728c179 0 294 -95 307 -243h-186c-10 62 -52 98 -121 98c-101 0 -164 -87 -164 -230c0 -146 62 -235 163 -235c89 0 141 54 143 148h-153v134h315v-400h-148v72h-2c-41 -55 -110 -86 -198 -86
c-185 0 -301 139 -301 367c0 233 132 375 345 375z" />
    <glyph glyph-name="Gcommaaccent" unicode="&#x122;" horiz-adv-x="751" 
d="M379 728c179 0 294 -95 307 -243h-186c-10 62 -52 98 -121 98c-101 0 -164 -87 -164 -230c0 -146 62 -235 163 -235c89 0 141 54 143 148h-153v134h315v-400h-148v72h-2c-41 -55 -110 -86 -198 -86c-185 0 -301 139 -301 367c0 233 132 375 345 375zM440 -166l-71 -109
h-63l46 109h-46v112h134v-112z" />
    <glyph glyph-name="Gdotaccent" unicode="&#x120;" horiz-adv-x="751" 
d="M455 769h-166v131h166v-131zM379 728c179 0 294 -95 307 -243h-186c-10 62 -52 98 -121 98c-101 0 -164 -87 -164 -230c0 -146 62 -235 163 -235c89 0 141 54 143 148h-153v134h315v-400h-148v72h-2c-41 -55 -110 -86 -198 -86c-185 0 -301 139 -301 367
c0 233 132 375 345 375z" />
    <glyph glyph-name="Hbar" unicode="&#x126;" horiz-adv-x="761" 
d="M738 564h-53v-564h-173v295h-263v-295h-173v564h-53v80h53v68h173v-68h263v68h173v-68h53v-80zM512 564h-263v-122h263v122z" />
    <glyph glyph-name="Hcircumflex" unicode="&#x124;" horiz-adv-x="761" 
d="M302 911h156l120 -151h-138l-60 79l-60 -79h-138zM685 0h-173v295h-263v-295h-173v712h173v-270h263v270h173v-712z" />
    <glyph glyph-name="IJ" unicode="&#x132;" horiz-adv-x="735" 
d="M249 0h-173v712h173v-712zM664 712v-471c0 -171 -76 -249 -246 -249c-28 0 -57 3 -78 9v144c14 -3 33 -5 45 -5c75 0 106 29 106 139v433h173z" />
    <glyph glyph-name="Iacute" unicode="&#xcd;" horiz-adv-x="325" 
d="M195 760h-128l78 151h191zM249 0h-173v712h173v-712z" />
    <glyph glyph-name="Ibreve" unicode="&#x12c;" horiz-adv-x="325" 
d="M234 911h106c-5 -98 -70 -154 -178 -154s-173 56 -178 154h106c2 -37 28 -58 72 -58s69 21 72 58zM249 0h-173v712h173v-712z" />
    <glyph glyph-name="Icircumflex" unicode="&#xce;" horiz-adv-x="325" 
d="M84 911h156l120 -151h-138l-60 79l-60 -79h-138zM249 0h-173v712h173v-712z" />
    <glyph glyph-name="Idieresis" unicode="&#xcf;" horiz-adv-x="325" 
d="M121 769h-143v131h143v-131zM347 769h-142v131h142v-131zM249 0h-173v712h173v-712z" />
    <glyph glyph-name="Idotaccent" unicode="&#x130;" horiz-adv-x="325" 
d="M245 769h-166v131h166v-131zM249 0h-173v712h173v-712z" />
    <glyph glyph-name="Igrave" unicode="&#xcc;" horiz-adv-x="325" 
d="M180 911l78 -151h-128l-141 151h191zM249 0h-173v712h173v-712z" />
    <glyph glyph-name="Imacron" unicode="&#x12a;" horiz-adv-x="325" 
d="M342 776h-359v103h359v-103zM249 0h-173v712h173v-712z" />
    <glyph glyph-name="Iogonek" unicode="&#x12e;" horiz-adv-x="325" 
d="M217 -109c12 0 25 3 35 7v-82c-25 -9 -58 -15 -93 -15c-83 0 -123 35 -123 91c0 45 30 76 84 108h-44v712h173v-712c-50 -33 -65 -55 -65 -79c0 -20 11 -30 33 -30z" />
    <glyph glyph-name="Itilde" unicode="&#x128;" horiz-adv-x="325" 
d="M268 911h89c-5 -88 -48 -143 -125 -143c-63 0 -94 43 -134 43c-26 0 -39 -15 -42 -43h-89c4 88 47 143 124 143c64 0 95 -43 134 -43c27 0 39 14 43 43zM249 0h-173v712h173v-712z" />
    <glyph glyph-name="Jcircumflex" unicode="&#x134;" horiz-adv-x="410" 
d="M176 911h156l120 -151h-138l-60 79l-60 -79h-138zM339 712v-471c0 -171 -76 -249 -246 -249c-28 0 -57 3 -78 9v144c14 -3 33 -5 45 -5c75 0 106 29 106 139v433h173z" />
    <glyph glyph-name="Kcommaaccent" unicode="&#x136;" horiz-adv-x="690" 
d="M408 375l278 -375h-218l-217 328h-2v-328h-173v712h173v-307h2l209 307h207zM412 -166l-71 -109h-63l46 109h-46v112h134v-112z" />
    <glyph glyph-name="Lacute" unicode="&#x139;" horiz-adv-x="580" 
d="M224 760h-128l78 151h191zM249 147h322v-147h-495v712h173v-565z" />
    <glyph glyph-name="Lcaron" unicode="&#x13d;" horiz-adv-x="580" 
d="M249 147h322v-147h-495v712h173v-565zM379 483h-94l24 229h130z" />
    <glyph glyph-name="Lcommaaccent" unicode="&#x13b;" horiz-adv-x="580" 
d="M249 147h322v-147h-495v712h173v-565zM391 -166l-71 -109h-63l46 109h-46v112h134v-112z" />
    <glyph glyph-name="Ldot" unicode="&#x13f;" horiz-adv-x="663" 
d="M249 147h322v-147h-495v712h173v-565zM579 345h-176v184h176v-184z" />
    <glyph glyph-name="Lslash" unicode="&#x141;" horiz-adv-x="587" 
d="M578 147v-147h-495v278l-71 -42v134l71 42v300h173v-212l144 86v-134l-144 -86v-219h322z" />
    <glyph glyph-name="Nacute" unicode="&#x143;" horiz-adv-x="801" 
d="M433 760h-128l78 151h191zM726 0h-250l-124 281c-41 92 -81 189 -116 285h-2c5 -100 8 -200 8 -300v-266h-166v712h249l125 -281c40 -92 80 -189 116 -285h2c-6 100 -8 200 -8 300v266h166v-712z" />
    <glyph glyph-name="Ncaron" unicode="&#x147;" horiz-adv-x="801" 
d="M478 760h-156l-120 151h138l60 -79l60 79h138zM726 0h-250l-124 281c-41 92 -81 189 -116 285h-2c5 -100 8 -200 8 -300v-266h-166v712h249l125 -281c40 -92 80 -189 116 -285h2c-6 100 -8 200 -8 300v266h166v-712z" />
    <glyph glyph-name="Ncommaaccent" unicode="&#x145;" horiz-adv-x="801" 
d="M726 0h-250l-124 281c-41 92 -81 189 -116 285h-2c5 -100 8 -200 8 -300v-266h-166v712h249l125 -281c40 -92 80 -189 116 -285h2c-6 100 -8 200 -8 300v266h166v-712zM468 -166l-71 -109h-63l46 109h-46v112h134v-112z" />
    <glyph glyph-name="Eng" unicode="&#x14a;" horiz-adv-x="760" 
d="M684 712v-716c0 -135 -79 -190 -188 -190c-30 0 -57 3 -79 9v114c8 -2 18 -3 28 -3c44 0 68 17 68 59c0 22 -4 33 -43 102l-122 218c-41 75 -80 152 -114 228h-2c7 -84 10 -168 10 -252v-281h-166v712h214l122 -218c41 -74 80 -151 113 -228h2c-6 85 -9 169 -9 253v193
h166z" />
    <glyph glyph-name="Ntilde" unicode="&#xd1;" horiz-adv-x="801" 
d="M507 911h89c-5 -88 -48 -143 -125 -143c-63 0 -94 43 -134 43c-26 0 -39 -15 -42 -43h-89c4 88 47 143 124 143c64 0 95 -43 134 -43c27 0 39 14 43 43zM726 0h-250l-124 281c-41 92 -81 189 -116 285h-2c5 -100 8 -200 8 -300v-266h-166v712h249l125 -281
c40 -92 80 -189 116 -285h2c-6 100 -8 200 -8 300v266h166v-712z" />
    <glyph glyph-name="Oacute" unicode="&#xd3;" horiz-adv-x="757" 
d="M411 760h-128l78 151h191zM379 728c212 0 344 -143 344 -372s-132 -372 -344 -372c-213 0 -345 143 -345 372s132 372 345 372zM379 578c-104 0 -164 -82 -164 -222s60 -222 164 -222c103 0 163 82 163 222s-60 222 -163 222z" />
    <glyph glyph-name="Obreve" unicode="&#x14e;" horiz-adv-x="757" 
d="M451 911h106c-5 -98 -70 -154 -178 -154s-173 56 -178 154h106c2 -37 28 -58 72 -58s69 21 72 58zM379 728c212 0 344 -143 344 -372s-132 -372 -344 -372c-213 0 -345 143 -345 372s132 372 345 372zM379 578c-104 0 -164 -82 -164 -222s60 -222 164 -222
c103 0 163 82 163 222s-60 222 -163 222z" />
    <glyph glyph-name="Ocircumflex" unicode="&#xd4;" horiz-adv-x="757" 
d="M300 911h156l120 -151h-138l-60 79l-60 -79h-138zM379 728c212 0 344 -143 344 -372s-132 -372 -344 -372c-213 0 -345 143 -345 372s132 372 345 372zM379 578c-104 0 -164 -82 -164 -222s60 -222 164 -222c103 0 163 82 163 222s-60 222 -163 222z" />
    <glyph glyph-name="Odieresis" unicode="&#xd6;" horiz-adv-x="757" 
d="M337 769h-143v131h143v-131zM563 769h-142v131h142v-131zM379 728c212 0 344 -143 344 -372s-132 -372 -344 -372c-213 0 -345 143 -345 372s132 372 345 372zM379 578c-104 0 -164 -82 -164 -222s60 -222 164 -222c103 0 163 82 163 222s-60 222 -163 222z" />
    <glyph glyph-name="Ograve" unicode="&#xd2;" horiz-adv-x="757" 
d="M396 911l78 -151h-128l-141 151h191zM379 728c212 0 344 -143 344 -372s-132 -372 -344 -372c-213 0 -345 143 -345 372s132 372 345 372zM379 578c-104 0 -164 -82 -164 -222s60 -222 164 -222c103 0 163 82 163 222s-60 222 -163 222z" />
    <glyph glyph-name="Ohungarumlaut" unicode="&#x150;" horiz-adv-x="757" 
d="M301 760h-123l98 151h166zM507 760h-124l99 151h166zM379 728c212 0 344 -143 344 -372s-132 -372 -344 -372c-213 0 -345 143 -345 372s132 372 345 372zM379 578c-104 0 -164 -82 -164 -222s60 -222 164 -222c103 0 163 82 163 222s-60 222 -163 222z" />
    <glyph glyph-name="Omacron" unicode="&#x14c;" horiz-adv-x="757" 
d="M558 776h-359v103h359v-103zM379 728c212 0 344 -143 344 -372s-132 -372 -344 -372c-213 0 -345 143 -345 372s132 372 345 372zM379 578c-104 0 -164 -82 -164 -222s60 -222 164 -222c103 0 163 82 163 222s-60 222 -163 222z" />
    <glyph glyph-name="Oslash" unicode="&#xd8;" horiz-adv-x="757" 
d="M694 708l-61 -83c58 -64 90 -156 90 -269c0 -229 -132 -372 -344 -372c-72 0 -135 16 -187 47l-58 -79l-71 52l61 83c-58 64 -90 156 -90 269c0 229 132 372 345 372c72 0 135 -16 186 -47l59 79zM207 356c0 -50 8 -93 22 -128l245 330c-26 19 -58 29 -95 29
c-109 0 -172 -86 -172 -231zM379 125c109 0 172 86 172 231c0 51 -7 94 -22 129l-245 -331c26 -19 58 -29 95 -29z" />
    <glyph glyph-name="Otilde" unicode="&#xd5;" horiz-adv-x="757" 
d="M485 911h89c-5 -88 -48 -143 -125 -143c-63 0 -94 43 -134 43c-26 0 -39 -15 -42 -43h-89c4 88 47 143 124 143c64 0 95 -43 134 -43c27 0 39 14 43 43zM379 728c212 0 344 -143 344 -372s-132 -372 -344 -372c-213 0 -345 143 -345 372s132 372 345 372zM379 578
c-104 0 -164 -82 -164 -222s60 -222 164 -222c103 0 163 82 163 222s-60 222 -163 222z" />
    <glyph glyph-name="OE" unicode="&#x152;" horiz-adv-x="1021" 
d="M967 567h-331v-135h307v-143h-307v-144h338v-145h-555c-245 0 -385 129 -385 356s140 356 385 356h548v-145zM466 567h-47c-137 0 -205 -72 -205 -211c0 -138 68 -211 205 -211h47v422z" />
    <glyph glyph-name="Thorn" unicode="&#xde;" horiz-adv-x="654" 
d="M249 604h111c182 0 272 -94 272 -239s-90 -239 -271 -239h-112v-126h-173v712h173v-108zM249 462v-194h84c86 0 122 34 122 97c0 64 -36 97 -122 97h-84z" />
    <glyph glyph-name="Racute" unicode="&#x154;" horiz-adv-x="685" 
d="M366 760h-128l78 151h191zM76 712h289c182 0 262 -74 262 -203c0 -87 -50 -150 -131 -174v-2c51 -18 76 -51 109 -143l69 -190h-186l-54 161c-25 73 -53 99 -120 99h-65v-260h-173v712zM249 578v-187h95c80 0 112 36 112 96c0 63 -43 91 -119 91h-88z" />
    <glyph glyph-name="Rcaron" unicode="&#x158;" horiz-adv-x="685" 
d="M411 760h-156l-120 151h138l60 -79l60 79h138zM76 712h289c182 0 262 -74 262 -203c0 -87 -50 -150 -131 -174v-2c51 -18 76 -51 109 -143l69 -190h-186l-54 161c-25 73 -53 99 -120 99h-65v-260h-173v712zM249 578v-187h95c80 0 112 36 112 96c0 63 -43 91 -119 91h-88z
" />
    <glyph glyph-name="Rcommaaccent" unicode="&#x156;" horiz-adv-x="685" 
d="M76 712h289c182 0 262 -74 262 -203c0 -87 -50 -150 -131 -174v-2c51 -18 76 -51 109 -143l69 -190h-186l-54 161c-25 73 -53 99 -120 99h-65v-260h-173v712zM249 578v-187h95c80 0 112 36 112 96c0 63 -43 91 -119 91h-88zM421 -166l-71 -109h-63l46 109h-46v112h134
v-112z" />
    <glyph glyph-name="Sacute" unicode="&#x15a;" horiz-adv-x="645" 
d="M347 760h-128l78 151h191zM315 728c179 0 279 -80 279 -233h-180c0 63 -37 99 -106 99c-57 0 -94 -27 -94 -67c0 -47 38 -62 142 -88c137 -34 257 -71 257 -227c0 -139 -114 -228 -291 -228c-185 0 -298 89 -298 248h184c0 -73 39 -110 118 -110c65 0 105 29 105 75
c0 54 -41 65 -136 90c-136 35 -259 70 -259 224c0 130 108 217 279 217z" />
    <glyph glyph-name="Scaron" unicode="&#x160;" horiz-adv-x="645" 
d="M392 760h-156l-120 151h138l60 -79l60 79h138zM315 728c179 0 279 -80 279 -233h-180c0 63 -37 99 -106 99c-57 0 -94 -27 -94 -67c0 -47 38 -62 142 -88c137 -34 257 -71 257 -227c0 -139 -114 -228 -291 -228c-185 0 -298 89 -298 248h184c0 -73 39 -110 118 -110
c65 0 105 29 105 75c0 54 -41 65 -136 90c-136 35 -259 70 -259 224c0 130 108 217 279 217z" />
    <glyph glyph-name="Scedilla" unicode="&#x15e;" horiz-adv-x="645" 
d="M613 212c0 -132 -103 -219 -264 -227l-28 -45c9 3 22 5 33 5c51 0 87 -29 87 -78c0 -55 -43 -99 -128 -99c-41 0 -84 11 -120 32l26 53c30 -15 58 -22 81 -22c28 0 44 11 44 31c0 19 -16 33 -44 33c-11 0 -22 -2 -31 -6l-29 27l42 69c-161 13 -258 100 -258 247h184
c0 -73 39 -110 118 -110c65 0 105 29 105 75c0 54 -41 65 -136 90c-136 35 -259 70 -259 224c0 130 108 217 279 217c179 0 279 -80 279 -233h-180c0 63 -37 99 -106 99c-57 0 -94 -27 -94 -67c0 -47 38 -62 142 -88c137 -34 257 -71 257 -227z" />
    <glyph glyph-name="Scircumflex" unicode="&#x15c;" horiz-adv-x="645" 
d="M236 911h156l120 -151h-138l-60 79l-60 -79h-138zM315 728c179 0 279 -80 279 -233h-180c0 63 -37 99 -106 99c-57 0 -94 -27 -94 -67c0 -47 38 -62 142 -88c137 -34 257 -71 257 -227c0 -139 -114 -228 -291 -228c-185 0 -298 89 -298 248h184c0 -73 39 -110 118 -110
c65 0 105 29 105 75c0 54 -41 65 -136 90c-136 35 -259 70 -259 224c0 130 108 217 279 217z" />
    <glyph glyph-name="Scommaaccent" unicode="&#x218;" horiz-adv-x="645" 
d="M315 728c179 0 279 -80 279 -233h-180c0 63 -37 99 -106 99c-57 0 -94 -27 -94 -67c0 -47 38 -62 142 -88c137 -34 257 -71 257 -227c0 -139 -114 -228 -291 -228c-185 0 -298 89 -298 248h184c0 -73 39 -110 118 -110c65 0 105 29 105 75c0 54 -41 65 -136 90
c-136 35 -259 70 -259 224c0 130 108 217 279 217zM384 -166l-71 -109h-63l46 109h-46v112h134v-112z" />
    <glyph glyph-name="Germandbls" unicode="&#x1e9e;" horiz-adv-x="814" 
d="M731 586l-145 -161c125 -35 196 -110 196 -229c0 -136 -101 -211 -254 -211c-154 0 -239 70 -239 213h156c0 -50 25 -77 78 -77c50 0 80 26 80 77c0 78 -68 114 -194 122v116l108 120c-26 20 -63 32 -107 32c-112 0 -171 -61 -171 -182v-406h-173v402
c0 214 126 325 356 325c132 0 242 -56 309 -141z" />
    <glyph glyph-name="Tbar" unicode="&#x166;" horiz-adv-x="627" 
d="M400 565v-173h132v-114h-132v-278h-173v278h-132v114h132v173h-218v147h609v-147h-218z" />
    <glyph glyph-name="Tcaron" unicode="&#x164;" horiz-adv-x="627" 
d="M391 760h-156l-120 151h138l60 -79l60 79h138zM618 565h-218v-565h-173v565h-218v147h609v-147z" />
    <glyph glyph-name="Tcedilla" unicode="&#x162;" horiz-adv-x="627" 
d="M618 565h-218v-565h-173v565h-218v147h609v-147zM381 -166l-71 -109h-63l46 109h-46v112h134v-112z" />
    <glyph glyph-name="Tcommaaccent" unicode="&#x21a;" horiz-adv-x="627" 
d="M618 565h-218v-565h-173v565h-218v147h609v-147zM381 -166l-71 -109h-63l46 109h-46v112h134v-112z" />
    <glyph glyph-name="Uacute" unicode="&#xda;" horiz-adv-x="725" 
d="M394 760h-128l78 151h191zM655 712v-436c0 -188 -105 -292 -293 -292c-187 0 -292 104 -292 292v436h173v-432c0 -94 42 -144 119 -144c78 0 120 50 120 144v432h173z" />
    <glyph glyph-name="Ubreve" unicode="&#x16c;" horiz-adv-x="725" 
d="M434 911h106c-5 -98 -70 -154 -178 -154s-173 56 -178 154h106c2 -37 28 -58 72 -58s69 21 72 58zM655 712v-436c0 -188 -105 -292 -293 -292c-187 0 -292 104 -292 292v436h173v-432c0 -94 42 -144 119 -144c78 0 120 50 120 144v432h173z" />
    <glyph glyph-name="Ucircumflex" unicode="&#xdb;" horiz-adv-x="725" 
d="M284 911h156l120 -151h-138l-60 79l-60 -79h-138zM655 712v-436c0 -188 -105 -292 -293 -292c-187 0 -292 104 -292 292v436h173v-432c0 -94 42 -144 119 -144c78 0 120 50 120 144v432h173z" />
    <glyph glyph-name="Udieresis" unicode="&#xdc;" horiz-adv-x="725" 
d="M320 769h-143v131h143v-131zM546 769h-142v131h142v-131zM655 712v-436c0 -188 -105 -292 -293 -292c-187 0 -292 104 -292 292v436h173v-432c0 -94 42 -144 119 -144c78 0 120 50 120 144v432h173z" />
    <glyph glyph-name="Ugrave" unicode="&#xd9;" horiz-adv-x="725" 
d="M380 911l78 -151h-128l-141 151h191zM655 712v-436c0 -188 -105 -292 -293 -292c-187 0 -292 104 -292 292v436h173v-432c0 -94 42 -144 119 -144c78 0 120 50 120 144v432h173z" />
    <glyph glyph-name="Uhungarumlaut" unicode="&#x170;" horiz-adv-x="725" 
d="M285 760h-123l98 151h166zM491 760h-124l99 151h166zM655 712v-436c0 -188 -105 -292 -293 -292c-187 0 -292 104 -292 292v436h173v-432c0 -94 42 -144 119 -144c78 0 120 50 120 144v432h173z" />
    <glyph glyph-name="Umacron" unicode="&#x16a;" horiz-adv-x="725" 
d="M541 776h-359v103h359v-103zM655 712v-436c0 -188 -105 -292 -293 -292c-187 0 -292 104 -292 292v436h173v-432c0 -94 42 -144 119 -144c78 0 120 50 120 144v432h173z" />
    <glyph glyph-name="Uogonek" unicode="&#x172;" horiz-adv-x="725" 
d="M655 712v-436c0 -118 -41 -196 -115 -255c-49 -40 -64 -67 -64 -96c0 -24 11 -35 33 -35c11 0 25 2 34 6v-80c-23 -9 -55 -15 -89 -15c-83 0 -122 35 -122 93c0 38 21 64 58 90v2c-9 -1 -18 -2 -28 -2c-187 0 -292 104 -292 292v436h173v-432c0 -94 42 -144 119 -144
c78 0 120 50 120 144v432h173z" />
    <glyph glyph-name="Uring" unicode="&#x16e;" horiz-adv-x="725" 
d="M362 979c63 0 114 -51 114 -114c0 -62 -51 -113 -114 -113s-114 51 -114 113c0 63 51 114 114 114zM362 921c-31 0 -56 -25 -56 -56s25 -56 56 -56s56 25 56 56s-25 56 -56 56zM655 712v-436c0 -188 -105 -292 -293 -292c-187 0 -292 104 -292 292v436h173v-432
c0 -94 42 -144 119 -144c78 0 120 50 120 144v432h173z" />
    <glyph glyph-name="Utilde" unicode="&#x168;" horiz-adv-x="725" 
d="M468 911h89c-5 -88 -48 -143 -125 -143c-63 0 -94 43 -134 43c-26 0 -39 -15 -42 -43h-89c4 88 47 143 124 143c64 0 95 -43 134 -43c27 0 39 14 43 43zM655 712v-436c0 -188 -105 -292 -293 -292c-187 0 -292 104 -292 292v436h173v-432c0 -94 42 -144 119 -144
c78 0 120 50 120 144v432h173z" />
    <glyph glyph-name="Wacute" unicode="&#x1e82;" horiz-adv-x="991" 
d="M526 760h-128l78 151h191zM839 0h-230l-60 285c-21 95 -39 191 -53 286h-2c-14 -95 -32 -191 -52 -286l-60 -285h-230l-144 712h168l48 -257c18 -98 34 -199 46 -298h2c16 99 35 199 57 298l56 257h221l56 -257c22 -99 41 -199 56 -298h2c13 99 29 200 47 298l47 257h169
z" />
    <glyph glyph-name="Wcircumflex" unicode="&#x174;" horiz-adv-x="991" 
d="M416 911h156l120 -151h-138l-60 79l-60 -79h-138zM839 0h-230l-60 285c-21 95 -39 191 -53 286h-2c-14 -95 -32 -191 -52 -286l-60 -285h-230l-144 712h168l48 -257c18 -98 34 -199 46 -298h2c16 99 35 199 57 298l56 257h221l56 -257c22 -99 41 -199 56 -298h2
c13 99 29 200 47 298l47 257h169z" />
    <glyph glyph-name="Wdieresis" unicode="&#x1e84;" horiz-adv-x="991" 
d="M452 769h-143v131h143v-131zM678 769h-142v131h142v-131zM839 0h-230l-60 285c-21 95 -39 191 -53 286h-2c-14 -95 -32 -191 -52 -286l-60 -285h-230l-144 712h168l48 -257c18 -98 34 -199 46 -298h2c16 99 35 199 57 298l56 257h221l56 -257c22 -99 41 -199 56 -298h2
c13 99 29 200 47 298l47 257h169z" />
    <glyph glyph-name="Wgrave" unicode="&#x1e80;" horiz-adv-x="991" 
d="M512 911l78 -151h-128l-141 151h191zM839 0h-230l-60 285c-21 95 -39 191 -53 286h-2c-14 -95 -32 -191 -52 -286l-60 -285h-230l-144 712h168l48 -257c18 -98 34 -199 46 -298h2c16 99 35 199 57 298l56 257h221l56 -257c22 -99 41 -199 56 -298h2c13 99 29 200 47 298
l47 257h169z" />
    <glyph glyph-name="Yacute" unicode="&#xdd;" horiz-adv-x="663" 
d="M364 760h-128l78 151h191zM418 269v-269h-173v269l-244 443h192l62 -129c28 -58 54 -119 76 -179h2c21 60 47 121 75 179l62 129h192z" />
    <glyph glyph-name="Ycircumflex" unicode="&#x176;" horiz-adv-x="663" 
d="M253 911h156l120 -151h-138l-60 79l-60 -79h-138zM418 269v-269h-173v269l-244 443h192l62 -129c28 -58 54 -119 76 -179h2c21 60 47 121 75 179l62 129h192z" />
    <glyph glyph-name="Ydieresis" unicode="&#x178;" horiz-adv-x="663" 
d="M290 769h-143v131h143v-131zM516 769h-142v131h142v-131zM418 269v-269h-173v269l-244 443h192l62 -129c28 -58 54 -119 76 -179h2c21 60 47 121 75 179l62 129h192z" />
    <glyph glyph-name="Ygrave" unicode="&#x1ef2;" horiz-adv-x="663" 
d="M349 911l78 -151h-128l-141 151h191zM418 269v-269h-173v269l-244 443h192l62 -129c28 -58 54 -119 76 -179h2c21 60 47 121 75 179l62 129h192z" />
    <glyph glyph-name="Zacute" unicode="&#x179;" horiz-adv-x="593" 
d="M328 760h-128l78 151h191zM556 562l-329 -416v-2h345v-144h-552v150l329 416v2h-314v144h521v-150z" />
    <glyph glyph-name="Zcaron" unicode="&#x17d;" horiz-adv-x="593" 
d="M374 760h-156l-120 151h138l60 -79l60 79h138zM556 562l-329 -416v-2h345v-144h-552v150l329 416v2h-314v144h521v-150z" />
    <glyph glyph-name="Zdotaccent" unicode="&#x17b;" horiz-adv-x="593" 
d="M379 769h-166v131h166v-131zM556 562l-329 -416v-2h345v-144h-552v150l329 416v2h-314v144h521v-150z" />
    <glyph glyph-name="J.acute.loclNLD" horiz-adv-x="410" 
d="M286 768h-128l78 148h191zM339 712v-471c0 -171 -76 -249 -246 -249c-28 0 -57 3 -78 9v144c14 -3 33 -5 45 -5c75 0 106 29 106 139v433h173z" />
    <glyph glyph-name="Ccedilla.ss01" horiz-adv-x="715" 
d="M367 728c184 0 303 -106 310 -272h-179c-8 77 -56 122 -131 122c-94 0 -152 -84 -152 -222s58 -222 150 -222c75 0 124 46 134 126h181c-14 -177 -134 -276 -315 -276c-205 0 -331 141 -331 372s127 372 333 372zM354 -217h-176l141 168h133z" />
    <glyph glyph-name="Scedilla.ss01" horiz-adv-x="645" 
d="M315 728c179 0 279 -80 279 -233h-180c0 63 -37 99 -106 99c-57 0 -94 -27 -94 -67c0 -47 38 -62 142 -88c137 -34 257 -71 257 -227c0 -139 -114 -228 -291 -228c-185 0 -298 89 -298 248h184c0 -73 39 -110 118 -110c65 0 105 29 105 75c0 54 -41 65 -136 90
c-136 35 -259 70 -259 224c0 130 108 217 279 217zM304 -217h-176l141 168h133z" />
    <glyph glyph-name="Tcedilla.ss01" horiz-adv-x="627" 
d="M618 565h-218v-565h-173v565h-218v147h609v-147zM301 -217h-176l141 168h133z" />
    <glyph glyph-name="aacute" unicode="&#xe1;" horiz-adv-x="561" 
d="M302 564h-128l78 148h191zM275 524c156 0 231 -72 231 -206v-175c0 -66 5 -108 15 -143h-150c-5 20 -7 42 -7 66h-2c-39 -53 -96 -79 -165 -79c-110 0 -175 67 -175 156c0 87 53 141 202 164c37 6 91 12 122 14v18c0 57 -29 80 -71 80c-45 0 -71 -25 -72 -71h-160
c5 96 75 176 232 176zM346 212v18c-25 -1 -64 -5 -90 -10c-50 -10 -70 -29 -70 -65c0 -35 23 -58 65 -58c25 0 52 8 70 26c21 22 25 47 25 89z" />
    <glyph glyph-name="abreve" unicode="&#x103;" horiz-adv-x="561" 
d="M341 712h106c-5 -98 -70 -154 -178 -154s-173 56 -178 154h106c2 -37 28 -58 72 -58s69 21 72 58zM275 524c156 0 231 -72 231 -206v-175c0 -66 5 -108 15 -143h-150c-5 20 -7 42 -7 66h-2c-39 -53 -96 -79 -165 -79c-110 0 -175 67 -175 156c0 87 53 141 202 164
c37 6 91 12 122 14v18c0 57 -29 80 -71 80c-45 0 -71 -25 -72 -71h-160c5 96 75 176 232 176zM346 212v18c-25 -1 -64 -5 -90 -10c-50 -10 -70 -29 -70 -65c0 -35 23 -58 65 -58c25 0 52 8 70 26c21 22 25 47 25 89z" />
    <glyph glyph-name="acircumflex" unicode="&#xe2;" horiz-adv-x="561" 
d="M327 564l-58 76l-58 -76h-138l118 148h156l118 -148h-138zM275 524c156 0 231 -72 231 -206v-175c0 -66 5 -108 15 -143h-150c-5 20 -7 42 -7 66h-2c-39 -53 -96 -79 -165 -79c-110 0 -175 67 -175 156c0 87 53 141 202 164c37 6 91 12 122 14v18c0 57 -29 80 -71 80
c-45 0 -71 -25 -72 -71h-160c5 96 75 176 232 176zM346 212v18c-25 -1 -64 -5 -90 -10c-50 -10 -70 -29 -70 -65c0 -35 23 -58 65 -58c25 0 52 8 70 26c21 22 25 47 25 89z" />
    <glyph glyph-name="adieresis" unicode="&#xe4;" horiz-adv-x="561" 
d="M228 581h-143v131h143v-131zM454 581h-142v131h142v-131zM275 524c156 0 231 -72 231 -206v-175c0 -66 5 -108 15 -143h-150c-5 20 -7 42 -7 66h-2c-39 -53 -96 -79 -165 -79c-110 0 -175 67 -175 156c0 87 53 141 202 164c37 6 91 12 122 14v18c0 57 -29 80 -71 80
c-45 0 -71 -25 -72 -71h-160c5 96 75 176 232 176zM346 212v18c-25 -1 -64 -5 -90 -10c-50 -10 -70 -29 -70 -65c0 -35 23 -58 65 -58c25 0 52 8 70 26c21 22 25 47 25 89z" />
    <glyph glyph-name="agrave" unicode="&#xe0;" horiz-adv-x="561" 
d="M287 712l78 -148h-128l-141 148h191zM275 524c156 0 231 -72 231 -206v-175c0 -66 5 -108 15 -143h-150c-5 20 -7 42 -7 66h-2c-39 -53 -96 -79 -165 -79c-110 0 -175 67 -175 156c0 87 53 141 202 164c37 6 91 12 122 14v18c0 57 -29 80 -71 80c-45 0 -71 -25 -72 -71
h-160c5 96 75 176 232 176zM346 212v18c-25 -1 -64 -5 -90 -10c-50 -10 -70 -29 -70 -65c0 -35 23 -58 65 -58c25 0 52 8 70 26c21 22 25 47 25 89z" />
    <glyph glyph-name="amacron" unicode="&#x101;" horiz-adv-x="561" 
d="M449 589h-359v103h359v-103zM275 524c156 0 231 -72 231 -206v-175c0 -66 5 -108 15 -143h-150c-5 20 -7 42 -7 66h-2c-39 -53 -96 -79 -165 -79c-110 0 -175 67 -175 156c0 87 53 141 202 164c37 6 91 12 122 14v18c0 57 -29 80 -71 80c-45 0 -71 -25 -72 -71h-160
c5 96 75 176 232 176zM346 212v18c-25 -1 -64 -5 -90 -10c-50 -10 -70 -29 -70 -65c0 -35 23 -58 65 -58c25 0 52 8 70 26c21 22 25 47 25 89z" />
    <glyph glyph-name="aogonek" unicode="&#x105;" horiz-adv-x="561" 
d="M489 -109c12 0 25 3 35 7v-82c-25 -9 -58 -15 -93 -15c-83 0 -123 35 -123 91c0 45 30 76 84 108h-21c-5 20 -7 42 -7 66h-2c-39 -53 -96 -79 -165 -79c-110 0 -175 67 -175 156c0 87 53 141 202 164c37 6 91 12 122 14v18c0 57 -29 80 -71 80c-45 0 -71 -25 -72 -71
h-160c5 96 75 176 232 176c156 0 231 -72 231 -206v-175c0 -66 5 -108 15 -143c-50 -33 -65 -55 -65 -79c0 -20 11 -30 33 -30zM346 212v18c-25 -1 -64 -5 -90 -10c-50 -10 -70 -29 -70 -65c0 -35 23 -58 65 -58c25 0 52 8 70 26c21 22 25 47 25 89z" />
    <glyph glyph-name="aring" unicode="&#xe5;" horiz-adv-x="561" 
d="M269 780c63 0 114 -51 114 -114c0 -62 -51 -113 -114 -113s-114 51 -114 113c0 63 51 114 114 114zM269 722c-31 0 -56 -25 -56 -56s25 -56 56 -56s56 25 56 56s-25 56 -56 56zM275 524c156 0 231 -72 231 -206v-175c0 -66 5 -108 15 -143h-150c-5 20 -7 42 -7 66h-2
c-39 -53 -96 -79 -165 -79c-110 0 -175 67 -175 156c0 87 53 141 202 164c37 6 91 12 122 14v18c0 57 -29 80 -71 80c-45 0 -71 -25 -72 -71h-160c5 96 75 176 232 176zM346 212v18c-25 -1 -64 -5 -90 -10c-50 -10 -70 -29 -70 -65c0 -35 23 -58 65 -58c25 0 52 8 70 26
c21 22 25 47 25 89z" />
    <glyph glyph-name="atilde" unicode="&#xe3;" horiz-adv-x="561" 
d="M375 712h89c-5 -88 -48 -143 -125 -143c-63 0 -94 43 -134 43c-26 0 -39 -15 -42 -43h-89c4 88 47 143 124 143c64 0 95 -43 134 -43c27 0 39 14 43 43zM275 524c156 0 231 -72 231 -206v-175c0 -66 5 -108 15 -143h-150c-5 20 -7 42 -7 66h-2c-39 -53 -96 -79 -165 -79
c-110 0 -175 67 -175 156c0 87 53 141 202 164c37 6 91 12 122 14v18c0 57 -29 80 -71 80c-45 0 -71 -25 -72 -71h-160c5 96 75 176 232 176zM346 212v18c-25 -1 -64 -5 -90 -10c-50 -10 -70 -29 -70 -65c0 -35 23 -58 65 -58c25 0 52 8 70 26c21 22 25 47 25 89z" />
    <glyph glyph-name="ae" unicode="&#xe6;" horiz-adv-x="895" 
d="M607 95c46 0 76 26 82 61h169c-20 -96 -115 -172 -249 -172c-84 0 -148 32 -190 85c-40 -58 -108 -85 -191 -85c-132 0 -206 69 -206 159c0 115 84 169 280 169h55v27c0 56 -26 80 -77 80c-47 0 -75 -25 -76 -71h-160c5 96 76 176 237 176c75 0 131 -18 168 -54
c40 34 93 54 158 54c119 0 205 -63 240 -163c13 -38 18 -79 18 -141h-353c4 -95 45 -125 95 -125zM607 415c-48 0 -85 -30 -94 -104h186c-6 73 -45 104 -92 104zM357 224h-47c-93 0 -124 -26 -124 -70c0 -36 24 -62 69 -62c28 0 55 9 74 27c22 23 28 48 28 93v12z" />
    <glyph glyph-name="cacute" unicode="&#x107;" horiz-adv-x="575" 
d="M328 564h-128l78 148h191zM295 524c144 0 243 -85 254 -210h-172c-5 54 -36 85 -81 85c-58 0 -92 -54 -92 -144c0 -92 35 -145 93 -145c45 0 76 35 79 94h173c-11 -134 -108 -220 -253 -220c-162 0 -266 106 -266 271c0 164 104 269 265 269z" />
    <glyph glyph-name="ccaron" unicode="&#x10d;" horiz-adv-x="575" 
d="M373 564h-156l-118 148h138l58 -76l58 76h138zM295 524c144 0 243 -85 254 -210h-172c-5 54 -36 85 -81 85c-58 0 -92 -54 -92 -144c0 -92 35 -145 93 -145c45 0 76 35 79 94h173c-11 -134 -108 -220 -253 -220c-162 0 -266 106 -266 271c0 164 104 269 265 269z" />
    <glyph glyph-name="ccedilla" unicode="&#xe7;" horiz-adv-x="575" 
d="M297 110c45 0 76 35 79 94h173c-10 -124 -94 -207 -222 -219l-28 -45c9 3 22 5 33 5c51 0 87 -29 87 -78c0 -55 -43 -99 -128 -99c-41 0 -84 11 -120 32l26 53c30 -15 58 -22 81 -22c28 0 44 11 44 31c0 19 -16 33 -44 33c-11 0 -22 -2 -31 -6l-29 27l42 70
c-141 14 -230 116 -230 269c0 164 104 269 265 269c144 0 243 -85 254 -210h-172c-5 54 -36 85 -81 85c-58 0 -92 -54 -92 -144c0 -92 35 -145 93 -145z" />
    <glyph glyph-name="ccircumflex" unicode="&#x109;" horiz-adv-x="575" 
d="M353 564l-58 76l-58 -76h-138l118 148h156l118 -148h-138zM295 524c144 0 243 -85 254 -210h-172c-5 54 -36 85 -81 85c-58 0 -92 -54 -92 -144c0 -92 35 -145 93 -145c45 0 76 35 79 94h173c-11 -134 -108 -220 -253 -220c-162 0 -266 106 -266 271
c0 164 104 269 265 269z" />
    <glyph glyph-name="cdotaccent" unicode="&#x10b;" horiz-adv-x="575" 
d="M378 581h-166v131h166v-131zM295 524c144 0 243 -85 254 -210h-172c-5 54 -36 85 -81 85c-58 0 -92 -54 -92 -144c0 -92 35 -145 93 -145c45 0 76 35 79 94h173c-11 -134 -108 -220 -253 -220c-162 0 -266 106 -266 271c0 164 104 269 265 269z" />
    <glyph glyph-name="eth" unicode="&#xf0;" horiz-adv-x="597" 
d="M483 521c57 -81 84 -162 84 -259c0 -172 -104 -278 -270 -278c-163 0 -267 100 -267 256c0 160 89 263 227 263c25 0 47 -5 66 -12v2c-21 25 -47 50 -74 74l-129 -48l-26 68l91 34c-21 16 -42 31 -62 45l138 62c23 -15 47 -32 71 -51l126 47l26 -68l-90 -34
c34 -32 65 -67 89 -101zM300 107c59 0 95 56 95 145c0 90 -36 145 -95 145s-95 -55 -95 -145c0 -89 36 -145 95 -145z" />
    <glyph glyph-name="dcaron" unicode="&#x10f;" horiz-adv-x="610" 
d="M549 0h-160v63h-2c-31 -51 -85 -77 -141 -77c-131 0 -216 105 -216 268s83 268 212 268c55 0 108 -24 139 -69h2v259h166v-712zM671 534h-94l24 178h130zM299 396c-58 0 -95 -56 -95 -142s37 -142 95 -142c56 0 93 54 93 142s-37 142 -93 142z" />
    <glyph glyph-name="dcroat" unicode="&#x111;" horiz-adv-x="604" 
d="M615 572h-66v-572h-160v63h-2c-31 -51 -85 -77 -141 -77c-131 0 -216 105 -216 268s83 268 212 268c55 0 108 -24 139 -69h2v119h-128v78h128v62h166v-62h66v-78zM299 112c56 0 93 54 93 142s-37 142 -93 142c-58 0 -95 -56 -95 -142s37 -142 95 -142z" />
    <glyph glyph-name="eacute" unicode="&#xe9;" horiz-adv-x="584" 
d="M324 564h-128l78 148h191zM292 95c48 0 80 26 85 61h169c-21 -96 -116 -172 -252 -172c-170 0 -264 115 -264 274c0 150 95 266 262 266c120 0 207 -63 242 -163c14 -38 20 -79 20 -141h-361c4 -95 48 -125 99 -125zM292 415c-49 0 -86 -29 -96 -101h191
c-7 71 -47 101 -95 101z" />
    <glyph glyph-name="ebreve" unicode="&#x115;" horiz-adv-x="584" 
d="M291 558c-108 0 -173 56 -178 154h106c2 -37 28 -58 72 -58s69 21 72 58h106c-5 -98 -70 -154 -178 -154zM292 95c48 0 80 26 85 61h169c-21 -96 -116 -172 -252 -172c-170 0 -264 115 -264 274c0 150 95 266 262 266c120 0 207 -63 242 -163c14 -38 20 -79 20 -141h-361
c4 -95 48 -125 99 -125zM292 415c-49 0 -86 -29 -96 -101h191c-7 71 -47 101 -95 101z" />
    <glyph glyph-name="ecaron" unicode="&#x11b;" horiz-adv-x="584" 
d="M213 564l-118 148h138l58 -76l58 76h138l-118 -148h-156zM292 95c48 0 80 26 85 61h169c-21 -96 -116 -172 -252 -172c-170 0 -264 115 -264 274c0 150 95 266 262 266c120 0 207 -63 242 -163c14 -38 20 -79 20 -141h-361c4 -95 48 -125 99 -125zM292 415
c-49 0 -86 -29 -96 -101h191c-7 71 -47 101 -95 101z" />
    <glyph glyph-name="ecircumflex" unicode="&#xea;" horiz-adv-x="584" 
d="M233 564h-138l118 148h156l118 -148h-138l-58 76zM292 95c48 0 80 26 85 61h169c-21 -96 -116 -172 -252 -172c-170 0 -264 115 -264 274c0 150 95 266 262 266c120 0 207 -63 242 -163c14 -38 20 -79 20 -141h-361c4 -95 48 -125 99 -125zM292 415
c-49 0 -86 -29 -96 -101h191c-7 71 -47 101 -95 101z" />
    <glyph glyph-name="edieresis" unicode="&#xeb;" horiz-adv-x="584" 
d="M250 581h-143v131h143v-131zM476 581h-142v131h142v-131zM292 95c48 0 80 26 85 61h169c-21 -96 -116 -172 -252 -172c-170 0 -264 115 -264 274c0 150 95 266 262 266c120 0 207 -63 242 -163c14 -38 20 -79 20 -141h-361c4 -95 48 -125 99 -125zM292 415
c-49 0 -86 -29 -96 -101h191c-7 71 -47 101 -95 101z" />
    <glyph glyph-name="edotaccent" unicode="&#x117;" horiz-adv-x="584" 
d="M374 581h-166v131h166v-131zM292 95c48 0 80 26 85 61h169c-21 -96 -116 -172 -252 -172c-170 0 -264 115 -264 274c0 150 95 266 262 266c120 0 207 -63 242 -163c14 -38 20 -79 20 -141h-361c4 -95 48 -125 99 -125zM292 415c-49 0 -86 -29 -96 -101h191
c-7 71 -47 101 -95 101z" />
    <glyph glyph-name="egrave" unicode="&#xe8;" horiz-adv-x="584" 
d="M259 564l-141 148h191l78 -148h-128zM292 95c48 0 80 26 85 61h169c-21 -96 -116 -172 -252 -172c-170 0 -264 115 -264 274c0 150 95 266 262 266c120 0 207 -63 242 -163c14 -38 20 -79 20 -141h-361c4 -95 48 -125 99 -125zM292 415c-49 0 -86 -29 -96 -101h191
c-7 71 -47 101 -95 101z" />
    <glyph glyph-name="emacron" unicode="&#x113;" horiz-adv-x="584" 
d="M471 589h-359v103h359v-103zM292 95c48 0 80 26 85 61h169c-21 -96 -116 -172 -252 -172c-170 0 -264 115 -264 274c0 150 95 266 262 266c120 0 207 -63 242 -163c14 -38 20 -79 20 -141h-361c4 -95 48 -125 99 -125zM292 415c-49 0 -86 -29 -96 -101h191
c-7 71 -47 101 -95 101z" />
    <glyph glyph-name="eogonek" unicode="&#x119;" horiz-adv-x="584" 
d="M466 27c-44 -43 -58 -71 -58 -101c0 -23 10 -35 34 -35c11 0 25 3 34 7v-82c-24 -9 -57 -15 -92 -15c-84 0 -124 35 -124 91c0 37 21 66 59 92v2c-8 -1 -18 -2 -25 -2c-170 0 -264 115 -264 274c0 150 95 266 262 266c120 0 207 -63 242 -163c14 -38 20 -79 20 -141h-361
c4 -95 48 -125 99 -125c48 0 80 26 85 61h169c-9 -43 -33 -84 -80 -129zM292 415c-49 0 -86 -29 -96 -101h191c-7 71 -47 101 -95 101z" />
    <glyph glyph-name="gbreve" unicode="&#x11f;" horiz-adv-x="602" 
d="M355 712h106c-5 -98 -70 -154 -178 -154s-173 56 -178 154h106c2 -37 28 -58 72 -58s69 21 72 58zM240 522c61 0 108 -27 144 -82h2v68h155v-475c0 -157 -97 -228 -255 -228c-143 0 -224 61 -234 163h161c3 -35 30 -56 76 -56c56 0 91 30 91 121v47h-2
c-35 -49 -82 -74 -141 -74c-127 0 -207 101 -207 258c0 158 82 258 210 258zM292 392c-55 0 -90 -49 -90 -128c0 -78 35 -127 90 -127c57 0 93 50 93 127c0 78 -36 128 -93 128z" />
    <glyph glyph-name="gcircumflex" unicode="&#x11d;" horiz-adv-x="602" 
d="M341 564l-58 76l-58 -76h-138l118 148h156l118 -148h-138zM240 522c61 0 108 -27 144 -82h2v68h155v-475c0 -157 -97 -228 -255 -228c-143 0 -224 61 -234 163h161c3 -35 30 -56 76 -56c56 0 91 30 91 121v47h-2c-35 -49 -82 -74 -141 -74c-127 0 -207 101 -207 258
c0 158 82 258 210 258zM292 392c-55 0 -90 -49 -90 -128c0 -78 35 -127 90 -127c57 0 93 50 93 127c0 78 -36 128 -93 128z" />
    <glyph glyph-name="gcommaaccent" unicode="&#x123;" horiz-adv-x="602" 
d="M304 684h46v-112h-134v112l71 109h63zM240 522c61 0 108 -27 144 -82h2v68h155v-475c0 -157 -97 -228 -255 -228c-143 0 -224 61 -234 163h161c3 -35 30 -56 76 -56c56 0 91 30 91 121v47h-2c-35 -49 -82 -74 -141 -74c-127 0 -207 101 -207 258c0 158 82 258 210 258z
M292 392c-55 0 -90 -49 -90 -128c0 -78 35 -127 90 -127c57 0 93 50 93 127c0 78 -36 128 -93 128z" />
    <glyph glyph-name="gdotaccent" unicode="&#x121;" horiz-adv-x="602" 
d="M366 581h-166v131h166v-131zM240 522c61 0 108 -27 144 -82h2v68h155v-475c0 -157 -97 -228 -255 -228c-143 0 -224 61 -234 163h161c3 -35 30 -56 76 -56c56 0 91 30 91 121v47h-2c-35 -49 -82 -74 -141 -74c-127 0 -207 101 -207 258c0 158 82 258 210 258zM292 392
c-55 0 -90 -49 -90 -128c0 -78 35 -127 90 -127c57 0 93 50 93 127c0 78 -36 128 -93 128z" />
    <glyph glyph-name="hbar" unicode="&#x127;" 
d="M366 521c114 0 186 -71 186 -209v-312h-166v294c0 66 -27 98 -74 98c-51 0 -85 -41 -85 -129v-263h-166v572h-71v73h71v67h166v-67h122v-73h-122v-115h2c33 41 81 64 137 64z" />
    <glyph glyph-name="hcircumflex" unicode="&#x125;" 
d="M225 911h156l120 -151h-138l-60 79l-60 -79h-138zM227 457h2c33 41 81 64 137 64c114 0 186 -71 186 -209v-312h-166v294c0 66 -27 98 -74 98c-51 0 -85 -41 -85 -129v-263h-166v712h166v-255z" />
    <glyph glyph-name="dotlessi" unicode="&#x131;" horiz-adv-x="288" 
d="M227 0h-166v508h166v-508z" />
    <glyph glyph-name="iacute" unicode="&#xed;" horiz-adv-x="288" 
d="M176 564h-128l78 148h191zM227 0h-166v508h166v-508z" />
    <glyph glyph-name="ibreve" unicode="&#x12d;" horiz-adv-x="288" 
d="M206 712h100c-4 -97 -62 -154 -162 -154s-158 56 -162 154h100c3 -39 24 -60 62 -60s59 21 62 60zM227 0h-166v508h166v-508z" />
    <glyph glyph-name="icircumflex" unicode="&#xee;" horiz-adv-x="288" 
d="M325 566h-130l-51 71l-50 -71h-131l108 146h146zM227 0h-166v508h166v-508z" />
    <glyph glyph-name="idieresis" unicode="&#xef;" horiz-adv-x="288" 
d="M120 581h-133v131h133v-131zM300 581h-132v131h132v-131zM227 0h-166v508h166v-508z" />
    <glyph glyph-name="idotaccent" horiz-adv-x="288" 
d="M227 581h-166v131h166v-131zM227 0h-166v508h166v-508z" />
    <glyph glyph-name="igrave" unicode="&#xec;" horiz-adv-x="288" 
d="M162 712l78 -148h-128l-141 148h191zM227 0h-166v508h166v-508z" />
    <glyph glyph-name="ij" unicode="&#x133;" horiz-adv-x="577" 
d="M227 581h-166v131h166v-131zM516 581h-166v131h166v-131zM227 0h-166v508h166v-508zM516 508v-507c0 -136 -78 -191 -187 -191c-31 0 -58 3 -80 9v116c8 -2 16 -3 26 -3c50 0 75 21 75 97v479h166z" />
    <glyph glyph-name="imacron" unicode="&#x12b;" horiz-adv-x="288" 
d="M294 592h-300v103h300v-103zM227 0h-166v508h166v-508z" />
    <glyph glyph-name="iogonek" unicode="&#x12f;" horiz-adv-x="288" 
d="M227 581h-166v131h166v-131zM195 -109c12 0 25 3 35 7v-82c-25 -9 -58 -15 -93 -15c-83 0 -123 35 -123 91c0 45 30 76 84 108h-37v508h166v-508c-50 -33 -65 -55 -65 -79c0 -20 11 -30 33 -30z" />
    <glyph glyph-name="itilde" unicode="&#x129;" horiz-adv-x="288" 
d="M239 712h78c-5 -88 -43 -144 -115 -144c-57 0 -80 45 -117 45c-22 0 -34 -15 -36 -45h-77c4 88 42 144 113 144c57 0 81 -45 117 -45c23 0 34 15 37 45zM227 0h-166v508h166v-508z" />
    <glyph glyph-name="dotlessj" unicode="&#x237;" horiz-adv-x="289" 
d="M228 508v-507c0 -136 -78 -191 -187 -191c-31 0 -58 3 -80 9v116c8 -2 16 -3 26 -3c50 0 75 21 75 97v479h166z" />
    <glyph glyph-name="jcircumflex" unicode="&#x135;" horiz-adv-x="289" 
d="M326 566h-130l-51 71l-50 -71h-131l108 146h146zM228 508v-507c0 -136 -78 -191 -187 -191c-31 0 -58 3 -80 9v116c8 -2 16 -3 26 -3c50 0 75 21 75 97v479h166z" />
    <glyph glyph-name="kcommaaccent" unicode="&#x137;" horiz-adv-x="566" 
d="M576 0h-204l-143 230h-2v-230h-166v712h166v-404h2l136 200h192l-181 -237zM230 -54h134v-112l-71 -109h-63l46 109h-46v112z" />
    <glyph glyph-name="kgreenlandic" unicode="&#x138;" horiz-adv-x="577" 
d="M576 0h-204l-143 230h-2v-230h-166v508h166v-200h2l136 200h192l-181 -237z" />
    <glyph glyph-name="lacute" unicode="&#x13a;" horiz-adv-x="288" 
d="M189 768h-128l78 148h191zM227 0h-166v712h166v-712z" />
    <glyph glyph-name="lcaron" unicode="&#x13e;" horiz-adv-x="288" 
d="M227 0h-166v712h166v-712zM349 534h-94l24 178h130z" />
    <glyph glyph-name="lcommaaccent" unicode="&#x13c;" horiz-adv-x="288" 
d="M227 0h-166v712h166v-712zM211 -166l-71 -109h-63l46 109h-46v112h134v-112z" />
    <glyph glyph-name="ldot" unicode="&#x140;" horiz-adv-x="513" 
d="M227 0h-166v712h166v-712zM489 264h-176v184h176v-184z" />
    <glyph glyph-name="lslash" unicode="&#x142;" horiz-adv-x="352" 
d="M342 397l-83 -49v-348h-166v269l-83 -49v127l83 49v316h166v-237l83 49v-127z" />
    <glyph glyph-name="nacute" unicode="&#x144;" 
d="M339 564h-128l78 148h191zM366 521c114 0 186 -71 186 -209v-312h-166v294c0 66 -27 98 -74 98c-51 0 -85 -41 -85 -129v-263h-166v508h155v-61h2c33 44 83 74 148 74z" />
    <glyph glyph-name="napostrophe" unicode="&#x149;" horiz-adv-x="778" 
d="M207 556l-77 -152h-83l59 152h-49v156h150v-156zM535 521c114 0 187 -71 187 -209v-312h-166v294c0 66 -27 98 -75 98c-51 0 -84 -41 -84 -129v-263h-166v508h154v-61h2c33 44 84 74 148 74z" />
    <glyph glyph-name="ncaron" unicode="&#x148;" 
d="M385 564h-156l-118 148h138l58 -76l58 76h138zM366 521c114 0 186 -71 186 -209v-312h-166v294c0 66 -27 98 -74 98c-51 0 -85 -41 -85 -129v-263h-166v508h155v-61h2c33 44 83 74 148 74z" />
    <glyph glyph-name="ncommaaccent" unicode="&#x146;" 
d="M366 521c114 0 186 -71 186 -209v-312h-166v294c0 66 -27 98 -74 98c-51 0 -85 -41 -85 -129v-263h-166v508h155v-61h2c33 44 83 74 148 74zM374 -166l-71 -109h-63l46 109h-46v112h134v-112z" />
    <glyph glyph-name="eng" unicode="&#x14b;" 
d="M370 522c54 0 97 -16 128 -47c37 -37 54 -84 54 -177v-295c0 -136 -78 -192 -187 -192c-31 0 -57 3 -80 9v117c8 -2 16 -3 26 -3c50 0 75 21 75 96v252c0 50 -6 74 -23 91c-14 14 -30 20 -51 20c-50 0 -85 -40 -85 -129v-264h-166v508h162v-56h2c38 48 90 70 145 70z" />
    <glyph glyph-name="ntilde" unicode="&#xf1;" 
d="M413 712h89c-5 -88 -48 -143 -125 -143c-63 0 -94 43 -134 43c-26 0 -39 -15 -42 -43h-89c4 88 47 143 124 143c64 0 95 -43 134 -43c27 0 39 14 43 43zM366 521c114 0 186 -71 186 -209v-312h-166v294c0 66 -27 98 -74 98c-51 0 -85 -41 -85 -129v-263h-166v508h155v-61
h2c33 44 83 74 148 74z" />
    <glyph glyph-name="oacute" unicode="&#xf3;" horiz-adv-x="604" 
d="M334 564h-128l78 148h191zM302 524c166 0 272 -105 272 -270s-106 -270 -272 -270s-272 105 -272 270s106 270 272 270zM302 398c-61 0 -97 -55 -97 -144s36 -144 97 -144s97 55 97 144s-36 144 -97 144z" />
    <glyph glyph-name="obreve" unicode="&#x14f;" horiz-adv-x="604" 
d="M374 712h106c-5 -98 -70 -154 -178 -154s-173 56 -178 154h106c2 -37 28 -58 72 -58s69 21 72 58zM302 524c166 0 272 -105 272 -270s-106 -270 -272 -270s-272 105 -272 270s106 270 272 270zM302 398c-61 0 -97 -55 -97 -144s36 -144 97 -144s97 55 97 144
s-36 144 -97 144z" />
    <glyph glyph-name="ocircumflex" unicode="&#xf4;" horiz-adv-x="604" 
d="M360 564l-58 76l-58 -76h-138l118 148h156l118 -148h-138zM302 524c166 0 272 -105 272 -270s-106 -270 -272 -270s-272 105 -272 270s106 270 272 270zM302 398c-61 0 -97 -55 -97 -144s36 -144 97 -144s97 55 97 144s-36 144 -97 144z" />
    <glyph glyph-name="odieresis" unicode="&#xf6;" horiz-adv-x="604" 
d="M260 581h-143v131h143v-131zM486 581h-142v131h142v-131zM302 524c166 0 272 -105 272 -270s-106 -270 -272 -270s-272 105 -272 270s106 270 272 270zM302 398c-61 0 -97 -55 -97 -144s36 -144 97 -144s97 55 97 144s-36 144 -97 144z" />
    <glyph glyph-name="ograve" unicode="&#xf2;" horiz-adv-x="604" 
d="M320 712l78 -148h-128l-141 148h191zM302 524c166 0 272 -105 272 -270s-106 -270 -272 -270s-272 105 -272 270s106 270 272 270zM302 398c-61 0 -97 -55 -97 -144s36 -144 97 -144s97 55 97 144s-36 144 -97 144z" />
    <glyph glyph-name="ohungarumlaut" unicode="&#x151;" horiz-adv-x="604" 
d="M235 564h-123l98 148h166zM441 564h-124l99 148h166zM302 524c166 0 272 -105 272 -270s-106 -270 -272 -270s-272 105 -272 270s106 270 272 270zM302 398c-61 0 -97 -55 -97 -144s36 -144 97 -144s97 55 97 144s-36 144 -97 144z" />
    <glyph glyph-name="omacron" unicode="&#x14d;" horiz-adv-x="604" 
d="M481 589h-359v103h359v-103zM302 524c166 0 272 -105 272 -270s-106 -270 -272 -270s-272 105 -272 270s106 270 272 270zM302 398c-61 0 -97 -55 -97 -144s36 -144 97 -144s97 55 97 144s-36 144 -97 144z" />
    <glyph glyph-name="oslash" unicode="&#xf8;" horiz-adv-x="604" 
d="M548 520l-50 -67c49 -47 76 -115 76 -199c0 -165 -106 -270 -272 -270c-50 0 -95 10 -133 27l-51 -69l-61 44l50 68c-49 47 -77 116 -77 200c0 165 106 270 272 270c51 0 96 -10 134 -28l51 70zM302 406c-68 0 -108 -60 -108 -152c0 -29 4 -54 11 -76l155 209
c-16 12 -36 19 -58 19zM302 102c67 0 108 59 108 152c0 28 -4 52 -11 74l-154 -208c16 -12 35 -18 57 -18z" />
    <glyph glyph-name="otilde" unicode="&#xf5;" horiz-adv-x="604" 
d="M408 712h89c-5 -88 -48 -143 -125 -143c-63 0 -94 43 -134 43c-26 0 -39 -15 -42 -43h-89c4 88 47 143 124 143c64 0 95 -43 134 -43c27 0 39 14 43 43zM302 524c166 0 272 -105 272 -270s-106 -270 -272 -270s-272 105 -272 270s106 270 272 270zM302 398
c-61 0 -97 -55 -97 -144s36 -144 97 -144s97 55 97 144s-36 144 -97 144z" />
    <glyph glyph-name="oe" unicode="&#x153;" horiz-adv-x="938" 
d="M650 95c46 0 76 26 81 61h170c-21 -96 -115 -172 -250 -172c-75 0 -135 26 -176 70c-43 -45 -103 -70 -176 -70c-164 0 -269 105 -269 270s105 270 269 270c73 0 133 -25 176 -70c41 44 100 70 174 70c120 0 206 -63 240 -163c13 -38 19 -79 19 -141h-354
c4 -95 46 -125 96 -125zM649 415c-46 0 -82 -29 -92 -101h184c-6 71 -44 101 -92 101zM302 110c61 0 97 55 97 144s-36 144 -97 144s-97 -55 -97 -144s36 -144 97 -144z" />
    <glyph glyph-name="thorn" unicode="&#xfe;" horiz-adv-x="610" 
d="M227 453h2c31 45 83 69 137 69c130 0 214 -105 214 -268s-83 -268 -212 -268c-55 0 -108 24 -139 69h-2v-240h-166v897h166v-259zM311 396c-56 0 -93 -54 -93 -142s37 -142 93 -142c58 0 95 56 95 142s-37 142 -95 142z" />
    <glyph glyph-name="racute" unicode="&#x155;" horiz-adv-x="415" 
d="M252 564h-128l78 148h191zM360 516c15 0 33 -2 48 -6v-142c-17 3 -34 5 -51 5c-84 0 -130 -53 -130 -150v-223h-166v508h154v-70h2c35 54 81 78 143 78z" />
    <glyph glyph-name="rcaron" unicode="&#x159;" horiz-adv-x="415" 
d="M297 564h-156l-118 148h138l58 -76l58 76h138zM360 516c15 0 33 -2 48 -6v-142c-17 3 -34 5 -51 5c-84 0 -130 -53 -130 -150v-223h-166v508h154v-70h2c35 54 81 78 143 78z" />
    <glyph glyph-name="rcommaaccent" unicode="&#x157;" horiz-adv-x="415" 
d="M360 516c15 0 33 -2 48 -6v-142c-17 3 -34 5 -51 5c-84 0 -130 -53 -130 -150v-223h-166v508h154v-70h2c35 54 81 78 143 78zM211 -166l-71 -109h-63l46 109h-46v112h134v-112z" />
    <glyph glyph-name="sacute" unicode="&#x15b;" horiz-adv-x="542" 
d="M300 564h-128l78 148h191zM267 524c140 0 225 -56 225 -170h-158c0 46 -26 65 -68 65c-38 0 -59 -15 -59 -40c0 -31 27 -40 104 -60c95 -25 199 -53 199 -172c0 -98 -88 -163 -236 -163c-155 0 -243 58 -243 181h167c0 -47 25 -72 78 -72c42 0 64 17 64 42
c0 37 -33 47 -117 69c-87 22 -180 45 -180 161c0 92 79 159 224 159z" />
    <glyph glyph-name="scaron" unicode="&#x161;" horiz-adv-x="542" 
d="M345 564h-156l-118 148h138l58 -76l58 76h138zM267 524c140 0 225 -56 225 -170h-158c0 46 -26 65 -68 65c-38 0 -59 -15 -59 -40c0 -31 27 -40 104 -60c95 -25 199 -53 199 -172c0 -98 -88 -163 -236 -163c-155 0 -243 58 -243 181h167c0 -47 25 -72 78 -72
c42 0 64 17 64 42c0 37 -33 47 -117 69c-87 22 -180 45 -180 161c0 92 79 159 224 159z" />
    <glyph glyph-name="scedilla" unicode="&#x15f;" horiz-adv-x="542" 
d="M510 147c0 -91 -76 -154 -205 -162l-28 -45c9 3 22 5 33 5c51 0 87 -29 87 -78c0 -55 -43 -99 -128 -99c-41 0 -84 11 -120 32l26 53c30 -15 58 -22 81 -22c28 0 44 11 44 31c0 19 -16 33 -44 33c-11 0 -22 -2 -31 -6l-29 27l42 69c-133 9 -207 67 -207 180h167
c0 -47 25 -72 78 -72c42 0 64 17 64 42c0 37 -33 47 -117 69c-87 22 -180 45 -180 161c0 92 79 159 224 159c140 0 225 -56 225 -170h-158c0 46 -26 65 -68 65c-38 0 -59 -15 -59 -40c0 -31 27 -40 104 -60c95 -25 199 -53 199 -172z" />
    <glyph glyph-name="scircumflex" unicode="&#x15d;" horiz-adv-x="542" 
d="M325 564l-58 76l-58 -76h-138l118 148h156l118 -148h-138zM267 524c140 0 225 -56 225 -170h-158c0 46 -26 65 -68 65c-38 0 -59 -15 -59 -40c0 -31 27 -40 104 -60c95 -25 199 -53 199 -172c0 -98 -88 -163 -236 -163c-155 0 -243 58 -243 181h167c0 -47 25 -72 78 -72
c42 0 64 17 64 42c0 37 -33 47 -117 69c-87 22 -180 45 -180 161c0 92 79 159 224 159z" />
    <glyph glyph-name="scommaaccent" unicode="&#x219;" horiz-adv-x="542" 
d="M267 524c140 0 225 -56 225 -170h-158c0 46 -26 65 -68 65c-38 0 -59 -15 -59 -40c0 -31 27 -40 104 -60c95 -25 199 -53 199 -172c0 -98 -88 -163 -236 -163c-155 0 -243 58 -243 181h167c0 -47 25 -72 78 -72c42 0 64 17 64 42c0 37 -33 47 -117 69
c-87 22 -180 45 -180 161c0 92 79 159 224 159zM340 -166l-71 -109h-63l46 109h-46v112h134v-112z" />
    <glyph glyph-name="germandbls" unicode="&#xdf;" horiz-adv-x="587" 
d="M298 728c141 0 231 -69 231 -177c0 -79 -41 -130 -123 -156v-2c102 -23 153 -86 153 -188c0 -136 -92 -209 -240 -209c-13 0 -31 2 -43 4v128c8 -1 14 -1 19 -1c60 0 93 32 93 97c0 63 -35 99 -101 99h-11v132c66 0 95 25 95 78c0 45 -25 69 -69 69
c-53 0 -75 -32 -75 -104v-498h-166v509c0 138 89 219 237 219z" />
    <glyph glyph-name="longs" unicode="&#x17f;" horiz-adv-x="361" 
d="M273 721c28 0 59 -4 79 -9v-114c-5 1 -16 2 -24 2c-49 0 -74 -20 -74 -74v-526h-164v387h-81v121h81v37c0 118 65 176 183 176z" />
    <glyph glyph-name="tbar" unicode="&#x167;" horiz-adv-x="378" 
d="M316 120c13 0 27 2 37 5v-122c-22 -6 -58 -11 -84 -11c-127 0 -182 49 -182 169v59h-76v89h76v82h-80v117h80v137h165v-137h96v-117h-96v-82h91v-89h-91v-24c0 -55 18 -76 64 -76z" />
    <glyph glyph-name="tcaron" unicode="&#x165;" horiz-adv-x="378" 
d="M434 712l-60 -178h-94l24 178h130zM252 387v-188c0 -54 18 -76 64 -76c13 0 27 2 37 5v-125c-22 -6 -58 -11 -84 -11c-127 0 -183 49 -183 169v226h-79v121h79v137h166v-137h96v-121h-96z" />
    <glyph glyph-name="tcedilla" unicode="&#x163;" horiz-adv-x="378" 
d="M316 123c13 0 27 2 37 5v-125c-22 -6 -58 -11 -84 -11c-127 0 -183 49 -183 169v226h-79v121h79v137h166v-137h96v-121h-96v-188c0 -54 18 -76 64 -76zM144 -54h134v-112l-71 -109h-63l46 109h-46v112z" />
    <glyph glyph-name="tcommaaccent" unicode="&#x21b;" horiz-adv-x="378" 
d="M316 123c13 0 27 2 37 5v-125c-22 -6 -58 -11 -84 -11c-127 0 -183 49 -183 169v226h-79v121h79v137h166v-137h96v-121h-96v-188c0 -54 18 -76 64 -76zM144 -54h134v-112l-71 -109h-63l46 109h-46v112z" />
    <glyph glyph-name="uacute" unicode="&#xfa;" 
d="M337 564h-128l78 148h191zM242 -13c-114 0 -186 71 -186 209v312h166v-294c0 -66 27 -98 74 -98c51 0 85 41 85 129v263h166v-508h-155v61h-2c-33 -44 -83 -74 -148 -74z" />
    <glyph glyph-name="ubreve" unicode="&#x16d;" 
d="M376 712h106c-5 -98 -70 -154 -178 -154s-173 56 -178 154h106c2 -37 28 -58 72 -58s69 21 72 58zM242 -13c-114 0 -186 71 -186 209v312h166v-294c0 -66 27 -98 74 -98c51 0 85 41 85 129v263h166v-508h-155v61h-2c-33 -44 -83 -74 -148 -74z" />
    <glyph glyph-name="ucircumflex" unicode="&#xfb;" 
d="M362 564l-58 76l-58 -76h-138l118 148h156l118 -148h-138zM242 -13c-114 0 -186 71 -186 209v312h166v-294c0 -66 27 -98 74 -98c51 0 85 41 85 129v263h166v-508h-155v61h-2c-33 -44 -83 -74 -148 -74z" />
    <glyph glyph-name="udieresis" unicode="&#xfc;" 
d="M263 581h-143v131h143v-131zM489 581h-142v131h142v-131zM242 -13c-114 0 -186 71 -186 209v312h166v-294c0 -66 27 -98 74 -98c51 0 85 41 85 129v263h166v-508h-155v61h-2c-33 -44 -83 -74 -148 -74z" />
    <glyph glyph-name="ugrave" unicode="&#xf9;" 
d="M322 712l78 -148h-128l-141 148h191zM242 -13c-114 0 -186 71 -186 209v312h166v-294c0 -66 27 -98 74 -98c51 0 85 41 85 129v263h166v-508h-155v61h-2c-33 -44 -83 -74 -148 -74z" />
    <glyph glyph-name="uhungarumlaut" unicode="&#x171;" 
d="M237 564h-123l98 148h166zM443 564h-124l99 148h166zM242 -13c-114 0 -186 71 -186 209v312h166v-294c0 -66 27 -98 74 -98c51 0 85 41 85 129v263h166v-508h-155v61h-2c-33 -44 -83 -74 -148 -74z" />
    <glyph glyph-name="umacron" unicode="&#x16b;" 
d="M484 589h-359v103h359v-103zM242 -13c-114 0 -186 71 -186 209v312h166v-294c0 -66 27 -98 74 -98c51 0 85 41 85 129v263h166v-508h-155v61h-2c-33 -44 -83 -74 -148 -74z" />
    <glyph glyph-name="uogonek" unicode="&#x173;" 
d="M516 -109c12 0 25 3 35 7v-82c-25 -9 -58 -15 -93 -15c-83 0 -123 35 -123 91c0 45 30 76 84 108h-27v61h-2c-33 -44 -83 -74 -148 -74c-114 0 -186 71 -186 209v312h166v-294c0 -66 27 -98 74 -98c51 0 85 41 85 129v263h166v-508h1c-50 -33 -65 -55 -65 -79
c0 -20 11 -30 33 -30z" />
    <glyph glyph-name="uring" unicode="&#x16f;" 
d="M304 780c63 0 114 -51 114 -114c0 -62 -51 -113 -114 -113s-114 51 -114 113c0 63 51 114 114 114zM304 722c-31 0 -56 -25 -56 -56s25 -56 56 -56s56 25 56 56s-25 56 -56 56zM242 -13c-114 0 -186 71 -186 209v312h166v-294c0 -66 27 -98 74 -98c51 0 85 41 85 129v263
h166v-508h-155v61h-2c-33 -44 -83 -74 -148 -74z" />
    <glyph glyph-name="utilde" unicode="&#x169;" 
d="M410 712h89c-5 -88 -48 -143 -125 -143c-63 0 -94 43 -134 43c-26 0 -39 -15 -42 -43h-89c4 88 47 143 124 143c64 0 95 -43 134 -43c27 0 39 14 43 43zM242 -13c-114 0 -186 71 -186 209v312h166v-294c0 -66 27 -98 74 -98c51 0 85 41 85 129v263h166v-508h-155v61h-2
c-33 -44 -83 -74 -148 -74z" />
    <glyph glyph-name="wacute" unicode="&#x1e83;" horiz-adv-x="848" 
d="M456 564h-128l78 148h191zM731 0h-227l-41 191c-15 70 -28 142 -38 213h-2c-10 -71 -23 -143 -38 -213l-41 -191h-227l-113 508h162l33 -187c13 -71 24 -144 32 -216h2c11 72 24 144 41 217l42 186h216l42 -186c17 -73 30 -145 41 -217h2c8 72 19 145 32 216l33 187h162z
" />
    <glyph glyph-name="wcircumflex" unicode="&#x175;" horiz-adv-x="848" 
d="M482 564l-58 76l-58 -76h-138l118 148h156l118 -148h-138zM731 0h-227l-41 191c-15 70 -28 142 -38 213h-2c-10 -71 -23 -143 -38 -213l-41 -191h-227l-113 508h162l33 -187c13 -71 24 -144 32 -216h2c11 72 24 144 41 217l42 186h216l42 -186c17 -73 30 -145 41 -217h2
c8 72 19 145 32 216l33 187h162z" />
    <glyph glyph-name="wdieresis" unicode="&#x1e85;" horiz-adv-x="848" 
d="M382 581h-143v131h143v-131zM608 581h-142v131h142v-131zM731 0h-227l-41 191c-15 70 -28 142 -38 213h-2c-10 -71 -23 -143 -38 -213l-41 -191h-227l-113 508h162l33 -187c13 -71 24 -144 32 -216h2c11 72 24 144 41 217l42 186h216l42 -186c17 -73 30 -145 41 -217h2
c8 72 19 145 32 216l33 187h162z" />
    <glyph glyph-name="wgrave" unicode="&#x1e81;" horiz-adv-x="848" 
d="M442 712l78 -148h-128l-141 148h191zM731 0h-227l-41 191c-15 70 -28 142 -38 213h-2c-10 -71 -23 -143 -38 -213l-41 -191h-227l-113 508h162l33 -187c13 -71 24 -144 32 -216h2c11 72 24 144 41 217l42 186h216l42 -186c17 -73 30 -145 41 -217h2c8 72 19 145 32 216
l33 187h162z" />
    <glyph glyph-name="yacute" unicode="&#xfd;" horiz-adv-x="530" 
d="M299 564h-128l78 148h191zM538 508l-169 -499c-51 -151 -114 -201 -244 -201c-29 0 -62 4 -86 9v126c15 -5 33 -8 51 -8c47 0 77 25 77 66c0 18 -3 31 -28 98l-149 409h179l49 -170c19 -69 37 -141 51 -212h2c14 71 31 142 51 213l47 169h169z" />
    <glyph glyph-name="ycircumflex" unicode="&#x177;" horiz-adv-x="530" 
d="M325 564l-58 76l-58 -76h-138l118 148h156l118 -148h-138zM538 508l-169 -499c-51 -151 -114 -201 -244 -201c-29 0 -62 4 -86 9v126c15 -5 33 -8 51 -8c47 0 77 25 77 66c0 18 -3 31 -28 98l-149 409h179l49 -170c19 -69 37 -141 51 -212h2c14 71 31 142 51 213l47 169
h169z" />
    <glyph glyph-name="ydieresis" unicode="&#xff;" horiz-adv-x="530" 
d="M225 581h-143v131h143v-131zM451 581h-142v131h142v-131zM538 508l-169 -499c-51 -151 -114 -201 -244 -201c-29 0 -62 4 -86 9v126c15 -5 33 -8 51 -8c47 0 77 25 77 66c0 18 -3 31 -28 98l-149 409h179l49 -170c19 -69 37 -141 51 -212h2c14 71 31 142 51 213l47 169
h169z" />
    <glyph glyph-name="ygrave" unicode="&#x1ef3;" horiz-adv-x="530" 
d="M285 712l78 -148h-128l-141 148h191zM538 508l-169 -499c-51 -151 -114 -201 -244 -201c-29 0 -62 4 -86 9v126c15 -5 33 -8 51 -8c47 0 77 25 77 66c0 18 -3 31 -28 98l-149 409h179l49 -170c19 -69 37 -141 51 -212h2c14 71 31 142 51 213l47 169h169z" />
    <glyph glyph-name="zacute" unicode="&#x17a;" horiz-adv-x="502" 
d="M282 564h-128l78 148h191zM465 377l-232 -248v-2h240v-127h-444v131l231 248v2h-222v127h427v-131z" />
    <glyph glyph-name="zcaron" unicode="&#x17e;" horiz-adv-x="502" 
d="M327 564h-156l-118 148h138l58 -76l58 76h138zM465 377l-232 -248v-2h240v-127h-444v131l231 248v2h-222v127h427v-131z" />
    <glyph glyph-name="zdotaccent" unicode="&#x17c;" horiz-adv-x="502" 
d="M332 581h-166v131h166v-131zM465 377l-232 -248v-2h240v-127h-444v131l231 248v2h-222v127h427v-131z" />
    <glyph glyph-name="j.acute.loclNLD" horiz-adv-x="289" 
d="M177 564h-128l78 148h191zM228 508v-507c0 -136 -78 -191 -187 -191c-31 0 -58 3 -80 9v116c8 -2 16 -3 26 -3c50 0 75 21 75 97v479h166z" />
    <glyph glyph-name="ccedilla.ss01" horiz-adv-x="575" 
d="M295 524c144 0 243 -85 254 -210h-172c-5 54 -36 85 -81 85c-58 0 -92 -54 -92 -144c0 -92 35 -145 93 -145c45 0 76 35 79 94h173c-11 -134 -108 -220 -253 -220c-162 0 -266 106 -266 271c0 164 104 269 265 269zM282 -217h-176l141 168h133z" />
    <glyph glyph-name="scedilla.ss01" horiz-adv-x="542" 
d="M267 524c140 0 225 -56 225 -170h-158c0 46 -26 65 -68 65c-38 0 -59 -15 -59 -40c0 -31 27 -40 104 -60c95 -25 199 -53 199 -172c0 -98 -88 -163 -236 -163c-155 0 -243 58 -243 181h167c0 -47 25 -72 78 -72c42 0 64 17 64 42c0 37 -33 47 -117 69
c-87 22 -180 45 -180 161c0 92 79 159 224 159zM260 -217h-176l141 168h133z" />
    <glyph glyph-name="tcedilla.ss01" horiz-adv-x="378" 
d="M316 123c13 0 27 2 37 5v-125c-22 -6 -58 -11 -84 -11c-127 0 -183 49 -183 169v226h-79v121h79v137h166v-137h96v-121h-96v-188c0 -54 18 -76 64 -76zM163 -49h133l-98 -168h-176z" />
    <glyph glyph-name="a.sups" horiz-adv-x="419" 
d="M206 697c118 0 173 -53 173 -148v-115c0 -48 4 -78 12 -104h-122c-4 13 -6 28 -6 45h-2c-28 -37 -69 -55 -118 -55c-80 0 -128 48 -128 112c0 63 41 100 149 116c27 4 63 8 84 9v13c0 35 -17 48 -44 48s-43 -15 -44 -45h-130c5 66 54 124 176 124zM248 477v12
c-15 0 -40 -3 -57 -7c-31 -7 -42 -20 -42 -41c0 -22 14 -37 40 -37c16 0 33 5 44 17c13 14 15 29 15 56z" />
    <glyph glyph-name="b.sups" horiz-adv-x="452" 
d="M179 652h2c22 29 58 44 95 44c95 0 155 -73 155 -188s-62 -189 -158 -189c-39 0 -76 17 -98 52h-2v-41h-130v498h136v-176zM230 594c-36 0 -58 -34 -58 -86c0 -53 22 -86 58 -86s60 33 60 86s-24 86 -60 86z" />
    <glyph glyph-name="c.sups" horiz-adv-x="427" 
d="M217 697c108 0 183 -59 192 -151h-140c-3 32 -22 50 -50 50c-34 0 -56 -31 -56 -87c0 -58 22 -89 57 -89c27 0 47 21 48 57h141c-7 -98 -82 -158 -191 -158c-120 0 -197 74 -197 190c0 115 76 188 196 188z" />
    <glyph glyph-name="d.sups" horiz-adv-x="453" 
d="M410 828v-498h-131v41h-1c-22 -35 -59 -52 -99 -52c-96 0 -158 74 -158 189s61 188 155 188c38 0 74 -15 96 -44h2v176h136zM223 594c-37 0 -60 -33 -60 -86s23 -86 60 -86c36 0 58 33 58 86c0 52 -22 86 -58 86z" />
    <glyph glyph-name="e.sups" horiz-adv-x="431" 
d="M215 406c29 0 49 14 52 34h138c-16 -69 -88 -121 -188 -121c-128 0 -196 83 -196 191c0 105 70 187 194 187c90 0 152 -41 180 -110c12 -28 15 -58 15 -107h-256c3 -58 30 -74 61 -74zM215 613c-29 0 -53 -15 -60 -62h119c-3 45 -29 62 -59 62z" />
    <glyph glyph-name="egrave.sups" horiz-adv-x="431" 
d="M174 724l-118 104h164l73 -104h-119zM215 406c29 0 49 14 52 34h138c-16 -69 -88 -121 -188 -121c-128 0 -196 83 -196 191c0 105 70 187 194 187c90 0 152 -41 180 -110c12 -28 15 -58 15 -107h-256c3 -58 30 -74 61 -74zM215 613c-29 0 -53 -15 -60 -62h119
c-3 45 -29 62 -59 62z" />
    <glyph glyph-name="f.sups" horiz-adv-x="274" 
d="M250 739c-35 0 -52 -14 -52 -49v-4h66v-97h-66v-259h-136v259h-56v97h56v19c0 88 51 131 143 131c21 0 46 -4 63 -8v-91c-4 1 -11 2 -18 2z" />
    <glyph glyph-name="g.sups" horiz-adv-x="445" 
d="M172 696c43 0 79 -22 103 -57h1v47h127v-331c0 -114 -71 -163 -193 -163c-104 0 -165 43 -173 117h128c2 -22 19 -35 47 -35c37 0 59 18 59 76v39h-2c-22 -30 -59 -49 -100 -49c-91 0 -148 70 -148 178c0 109 58 178 151 178zM217 595c-35 0 -57 -29 -57 -77
s22 -77 57 -77c36 0 58 30 58 77s-22 77 -58 77z" />
    <glyph glyph-name="h.sups" horiz-adv-x="449" 
d="M179 654h2c21 25 54 42 96 42c82 0 133 -51 133 -147v-219h-135v202c0 38 -15 59 -45 59c-32 0 -51 -25 -51 -83v-178h-136v498h136v-174z" />
    <glyph glyph-name="i.sups" horiz-adv-x="221" 
d="M179 729h-136v99h136v-99zM179 330h-136v356h136v-356z" />
    <glyph glyph-name="j.sups" horiz-adv-x="224" 
d="M181 729h-136v99h136v-99zM181 686v-346c0 -101 -61 -143 -143 -143c-25 0 -48 2 -65 7v93c6 -1 11 -2 18 -2c36 0 54 15 54 69v322h136z" />
    <glyph glyph-name="k.sups" horiz-adv-x="425" 
d="M432 330h-165l-86 155h-2v-155h-136v499h136v-279h2l80 136h159l-123 -168z" />
    <glyph glyph-name="l.sups" horiz-adv-x="221" 
d="M179 330h-136v498h136v-498z" />
    <glyph glyph-name="m.sups" horiz-adv-x="667" 
d="M500 696c78 0 128 -51 128 -147v-219h-136v202c0 38 -14 59 -40 59c-31 0 -49 -25 -49 -83v-178h-135v206c0 39 -15 55 -40 55c-32 0 -49 -25 -49 -83v-178h-136v356h126v-41h2c23 31 58 51 104 51c47 0 86 -19 108 -62c25 37 62 62 117 62z" />
    <glyph glyph-name="n.sups" horiz-adv-x="449" 
d="M277 696c82 0 133 -51 133 -147v-219h-135v202c0 38 -15 59 -45 59c-32 0 -51 -26 -51 -83v-178h-136v356h126v-41h1c24 30 60 51 107 51z" />
    <glyph glyph-name="o.sups" horiz-adv-x="444" 
d="M222 697c123 0 201 -74 201 -189c0 -116 -78 -189 -201 -189c-122 0 -201 73 -201 189c0 115 79 189 201 189zM222 596c-38 0 -59 -33 -59 -88s21 -88 59 -88s59 33 59 88s-21 88 -59 88z" />
    <glyph glyph-name="p.sups" horiz-adv-x="452" 
d="M273 696c96 0 158 -73 158 -188s-60 -189 -155 -189c-37 0 -74 15 -95 44h-2v-162h-136v485h130v-41h2c22 35 59 51 98 51zM230 594c-36 0 -58 -34 -58 -86c0 -53 22 -86 58 -86s60 33 60 86s-24 86 -60 86z" />
    <glyph glyph-name="q.sups" horiz-adv-x="453" 
d="M179 696c40 0 77 -16 99 -51h1v41h131v-485h-136v162h-2c-22 -29 -58 -44 -96 -44c-94 0 -155 74 -155 189s62 188 158 188zM223 594c-37 0 -60 -33 -60 -86s23 -86 60 -86c36 0 58 33 58 86c0 52 -22 86 -58 86z" />
    <glyph glyph-name="r.sups" horiz-adv-x="317" 
d="M276 691c12 0 25 -1 36 -4v-115c-12 2 -27 4 -41 4c-60 0 -92 -37 -92 -103v-143h-136v356h126v-48h2c26 37 60 53 105 53z" />
    <glyph glyph-name="s.sups" horiz-adv-x="405" 
d="M201 697c104 0 169 -38 169 -118h-129c0 27 -15 39 -41 39c-24 0 -36 -9 -36 -23c0 -19 16 -24 72 -39c72 -18 147 -40 147 -121c0 -70 -63 -116 -176 -116c-121 0 -185 40 -185 127h136c0 -30 15 -44 49 -44c26 0 40 9 40 24c0 22 -20 28 -84 44s-132 34 -132 114
c0 65 54 113 170 113z" />
    <glyph glyph-name="t.sups" horiz-adv-x="286" 
d="M241 430c10 0 20 1 27 3v-101c-18 -4 -46 -9 -67 -9c-98 0 -140 37 -140 122v144h-56v97h56v99h135v-99h68v-97h-68v-107c0 -38 13 -52 45 -52z" />
    <glyph glyph-name="u.sups" horiz-adv-x="449" 
d="M173 320c-82 0 -134 51 -134 147v219h136v-202c0 -38 15 -59 44 -59c33 0 52 26 52 83v178h135v-356h-126v41h-1c-24 -30 -60 -51 -106 -51z" />
    <glyph glyph-name="v.sups" horiz-adv-x="400" 
d="M292 330h-184l-114 356h146l30 -120c11 -49 21 -98 29 -148h2c8 50 18 99 29 148l30 120h146z" />
    <glyph glyph-name="w.sups" horiz-adv-x="635" 
d="M550 330h-180l-26 127c-10 48 -19 97 -26 147h-1c-7 -50 -15 -99 -25 -147l-27 -127h-180l-82 356h131l21 -124c8 -50 15 -99 19 -148h2c7 50 16 101 28 150l28 122h171l29 -122c11 -49 21 -100 28 -150h2c4 49 11 98 19 148l20 124h131z" />
    <glyph glyph-name="x.sups" horiz-adv-x="402" 
d="M287 513l119 -183h-153l-51 108h-2l-51 -108h-153l119 183l-111 173h152l44 -98h2l44 98h152z" />
    <glyph glyph-name="y.sups" horiz-adv-x="401" 
d="M406 686l-111 -334c-40 -119 -85 -157 -181 -157c-23 0 -49 3 -68 7v98c10 -3 22 -5 34 -5c29 0 47 13 47 35c0 12 -2 19 -23 73l-111 283h148l32 -119c13 -48 25 -98 34 -147h2c8 49 18 98 31 148l28 118h138z" />
    <glyph glyph-name="z.sups" horiz-adv-x="371" 
d="M345 581l-155 -147v-2h161v-102h-330v105l155 147v2h-150v102h319v-105z" />
    <glyph glyph-name="ff" unicode="&#xfb00;" horiz-adv-x="690" 
d="M657 600c-49 0 -74 -20 -74 -74v-18h94v-121h-94v-387h-164v387h-165v-387h-164v387h-81v121h81v37c0 118 65 176 183 176c28 0 59 -4 79 -9v-114c-5 1 -16 2 -24 2c-49 0 -74 -20 -74 -74v-18h165v37c0 118 65 176 183 176c28 0 59 -4 79 -9v-114c-5 1 -16 2 -24 2z" />
    <glyph glyph-name="ffi" unicode="&#xfb03;" horiz-adv-x="978" 
d="M419 508v37c0 118 65 176 183 176c28 0 59 -4 79 -9v-114c-5 1 -16 2 -24 2c-49 0 -74 -20 -74 -74v-18h94v-121h-94v-387h-164v387h-165v-387h-164v387h-81v121h81v37c0 118 65 176 183 176c28 0 59 -4 79 -9v-114c-5 1 -16 2 -24 2c-49 0 -74 -20 -74 -74v-18h165z
M917 712v-131h-166v131h166zM751 508h166v-508h-166v508z" />
    <glyph glyph-name="ffl" unicode="&#xfb04;" horiz-adv-x="978" 
d="M419 508v37c0 118 65 176 183 176c28 0 59 -4 79 -9v-114c-5 1 -16 2 -24 2c-49 0 -74 -20 -74 -74v-18h94v-121h-94v-387h-164v387h-165v-387h-164v387h-81v121h81v37c0 118 65 176 183 176c28 0 59 -4 79 -9v-114c-5 1 -16 2 -24 2c-49 0 -74 -20 -74 -74v-18h165z
M917 712v-712h-166v712h166z" />
    <glyph glyph-name="fi" unicode="&#xfb01;" horiz-adv-x="649" 
d="M90 508v37c0 118 65 176 183 176c28 0 59 -4 79 -9v-114c-5 1 -16 2 -24 2c-49 0 -74 -20 -74 -74v-18h94v-121h-94v-387h-164v387h-81v121h81zM588 712v-131h-166v131h166zM422 508h166v-508h-166v508z" />
    <glyph glyph-name="fl" unicode="&#xfb02;" horiz-adv-x="649" 
d="M90 508v37c0 118 65 176 183 176c28 0 59 -4 79 -9v-114c-5 1 -16 2 -24 2c-49 0 -74 -20 -74 -74v-18h94v-121h-94v-387h-164v387h-81v121h81zM588 712v-712h-166v712h166z" />
    <glyph glyph-name="a.smcp" horiz-adv-x="613" 
d="M406 97h-198l-29 -97h-178l193 548h225l194 -548h-178zM370 221l-11 35c-19 59 -37 123 -51 183h-2c-15 -60 -33 -124 -51 -183l-10 -35h125z" />
    <glyph glyph-name="aacute.smcp" horiz-adv-x="613" 
d="M339 604h-128l78 148h191zM406 97h-198l-29 -97h-178l193 548h225l194 -548h-178zM370 221l-11 35c-19 59 -37 123 -51 183h-2c-15 -60 -33 -124 -51 -183l-10 -35h125z" />
    <glyph glyph-name="abreve.smcp" horiz-adv-x="613" 
d="M307 598c-108 0 -173 56 -178 154h106c2 -37 28 -58 72 -58s69 21 72 58h106c-5 -98 -70 -154 -178 -154zM406 97h-198l-29 -97h-178l193 548h225l194 -548h-178zM370 221l-11 35c-19 59 -37 123 -51 183h-2c-15 -60 -33 -124 -51 -183l-10 -35h125z" />
    <glyph glyph-name="acircumflex.smcp" horiz-adv-x="613" 
d="M248 604h-138l118 148h156l118 -148h-138l-58 76zM406 97h-198l-29 -97h-178l193 548h225l194 -548h-178zM370 221l-11 35c-19 59 -37 123 -51 183h-2c-15 -60 -33 -124 -51 -183l-10 -35h125z" />
    <glyph glyph-name="adieresis.smcp" horiz-adv-x="613" 
d="M265 621h-143v131h143v-131zM491 621h-142v131h142v-131zM406 97h-198l-29 -97h-178l193 548h225l194 -548h-178zM370 221l-11 35c-19 59 -37 123 -51 183h-2c-15 -60 -33 -124 -51 -183l-10 -35h125z" />
    <glyph glyph-name="agrave.smcp" horiz-adv-x="613" 
d="M274 604l-141 148h191l78 -148h-128zM406 97h-198l-29 -97h-178l193 548h225l194 -548h-178zM370 221l-11 35c-19 59 -37 123 -51 183h-2c-15 -60 -33 -124 -51 -183l-10 -35h125z" />
    <glyph glyph-name="amacron.smcp" horiz-adv-x="613" 
d="M486 629h-359v103h359v-103zM406 97h-198l-29 -97h-178l193 548h225l194 -548h-178zM370 221l-11 35c-19 59 -37 123 -51 183h-2c-15 -60 -33 -124 -51 -183l-10 -35h125z" />
    <glyph glyph-name="aogonek.smcp" horiz-adv-x="613" 
d="M581 -109c12 0 25 3 35 7v-82c-25 -9 -58 -15 -93 -15c-83 0 -123 35 -123 91c0 45 30 76 84 108h-49l-29 97h-198l-29 -97h-178l193 548h225l194 -548c-50 -33 -65 -55 -65 -79c0 -20 11 -30 33 -30zM370 221l-11 35c-19 59 -37 123 -51 183h-2
c-15 -60 -33 -124 -51 -183l-10 -35h125z" />
    <glyph glyph-name="aring.smcp" horiz-adv-x="613" 
d="M307 593c-63 0 -114 51 -114 113c0 63 51 114 114 114s114 -51 114 -114c0 -62 -51 -113 -114 -113zM307 762c-31 0 -56 -25 -56 -56s25 -56 56 -56s56 25 56 56s-25 56 -56 56zM406 97h-198l-29 -97h-178l193 548h225l194 -548h-178zM370 221l-11 35
c-19 59 -37 123 -51 183h-2c-15 -60 -33 -124 -51 -183l-10 -35h125z" />
    <glyph glyph-name="atilde.smcp" horiz-adv-x="613" 
d="M243 652c-26 0 -39 -15 -42 -43h-89c4 88 47 143 124 143c64 0 95 -43 134 -43c27 0 39 14 43 43h89c-5 -88 -48 -143 -125 -143c-63 0 -94 43 -134 43zM406 97h-198l-29 -97h-178l193 548h225l194 -548h-178zM370 221l-11 35c-19 59 -37 123 -51 183h-2
c-15 -60 -33 -124 -51 -183l-10 -35h125z" />
    <glyph glyph-name="ae.smcp" horiz-adv-x="812" 
d="M769 130v-130h-344l-17 106h-196l-45 -106h-172l250 548h520v-130h-252l12 -79h220v-126h-200l13 -83h211zM389 233l-30 187h-12l-80 -187h122z" />
    <glyph glyph-name="b.smcp" horiz-adv-x="589" 
d="M68 548h256c147 0 214 -57 214 -141c0 -66 -31 -105 -99 -123v-2c76 -15 114 -59 114 -128c0 -94 -81 -154 -218 -154h-267v548zM234 432v-101h59c56 0 81 16 81 51c0 34 -23 50 -75 50h-65zM234 222v-105h61c62 0 84 13 84 51c0 39 -24 54 -85 54h-60z" />
    <glyph glyph-name="c.smcp" horiz-adv-x="612" 
d="M306 564c155 0 257 -80 263 -220h-175c-6 54 -38 82 -88 82c-61 0 -100 -55 -100 -152c0 -98 40 -152 101 -152c48 0 81 31 88 85h177c-12 -146 -114 -223 -265 -223c-172 0 -276 109 -276 290c0 180 105 290 275 290z" />
    <glyph glyph-name="cacute.smcp" horiz-adv-x="612" 
d="M338 604h-128l78 148h191zM306 564c155 0 257 -80 263 -220h-175c-6 54 -38 82 -88 82c-61 0 -100 -55 -100 -152c0 -98 40 -152 101 -152c48 0 81 31 88 85h177c-12 -146 -114 -223 -265 -223c-172 0 -276 109 -276 290c0 180 105 290 275 290z" />
    <glyph glyph-name="ccaron.smcp" horiz-adv-x="612" 
d="M383 604h-156l-118 148h138l58 -76l58 76h138zM306 564c155 0 257 -80 263 -220h-175c-6 54 -38 82 -88 82c-61 0 -100 -55 -100 -152c0 -98 40 -152 101 -152c48 0 81 31 88 85h177c-12 -146 -114 -223 -265 -223c-172 0 -276 109 -276 290c0 180 105 290 275 290z" />
    <glyph glyph-name="ccedilla.smcp" horiz-adv-x="612" 
d="M395 207h177c-11 -135 -100 -212 -233 -222l-28 -45c9 3 22 5 33 5c51 0 87 -29 87 -78c0 -55 -43 -99 -128 -99c-41 0 -84 11 -120 32l26 53c30 -15 58 -22 81 -22c28 0 44 11 44 31c0 19 -16 33 -44 33c-11 0 -22 -2 -31 -6l-29 27l42 70c-151 13 -241 120 -241 288
c0 180 105 290 275 290c155 0 257 -80 263 -220h-175c-6 54 -38 82 -88 82c-61 0 -100 -55 -100 -152c0 -98 40 -152 101 -152c48 0 81 31 88 85z" />
    <glyph glyph-name="ccircumflex.smcp" horiz-adv-x="612" 
d="M363 604l-58 76l-58 -76h-138l118 148h156l118 -148h-138zM306 564c155 0 257 -80 263 -220h-175c-6 54 -38 82 -88 82c-61 0 -100 -55 -100 -152c0 -98 40 -152 101 -152c48 0 81 31 88 85h177c-12 -146 -114 -223 -265 -223c-172 0 -276 109 -276 290
c0 180 105 290 275 290z" />
    <glyph glyph-name="cdotaccent.smcp" horiz-adv-x="612" 
d="M388 621h-166v131h166v-131zM306 564c155 0 257 -80 263 -220h-175c-6 54 -38 82 -88 82c-61 0 -100 -55 -100 -152c0 -98 40 -152 101 -152c48 0 81 31 88 85h177c-12 -146 -114 -223 -265 -223c-172 0 -276 109 -276 290c0 180 105 290 275 290z" />
    <glyph glyph-name="d.smcp" horiz-adv-x="636" 
d="M68 548h223c202 0 314 -98 314 -274c0 -175 -112 -274 -314 -274h-223v548zM237 413v-278h50c94 0 143 49 143 139s-49 139 -143 139h-50z" />
    <glyph glyph-name="eth.smcp" horiz-adv-x="640" 
d="M73 548h223c202 0 314 -98 314 -274c0 -175 -112 -274 -314 -274h-223v229h-59v96h59v223zM239 131h53c96 0 146 51 146 143s-50 143 -146 143h-53v-92h102v-96h-102v-98z" />
    <glyph glyph-name="dcaron.smcp" horiz-adv-x="636" 
d="M378 604h-156l-118 148h138l58 -76l58 76h138zM68 548h223c202 0 314 -98 314 -274c0 -175 -112 -274 -314 -274h-223v548zM237 413v-278h50c94 0 143 49 143 139s-49 139 -143 139h-50z" />
    <glyph glyph-name="dcroat.smcp" horiz-adv-x="640" 
d="M73 548h223c202 0 314 -98 314 -274c0 -175 -112 -274 -314 -274h-223v229h-59v96h59v223zM239 131h53c96 0 146 51 146 143s-50 143 -146 143h-53v-92h102v-96h-102v-98z" />
    <glyph glyph-name="e.smcp" horiz-adv-x="535" 
d="M489 418h-261v-79h241v-126h-241v-83h264v-130h-424v548h421v-130z" />
    <glyph glyph-name="eacute.smcp" horiz-adv-x="535" 
d="M311 604h-128l78 148h191zM489 418h-261v-79h241v-126h-241v-83h264v-130h-424v548h421v-130z" />
    <glyph glyph-name="ebreve.smcp" horiz-adv-x="535" 
d="M351 752h106c-5 -98 -70 -154 -178 -154s-173 56 -178 154h106c2 -37 28 -58 72 -58s69 21 72 58zM489 418h-261v-79h241v-126h-241v-83h264v-130h-424v548h421v-130z" />
    <glyph glyph-name="ecaron.smcp" horiz-adv-x="535" 
d="M356 604h-156l-118 148h138l58 -76l58 76h138zM489 418h-261v-79h241v-126h-241v-83h264v-130h-424v548h421v-130z" />
    <glyph glyph-name="ecircumflex.smcp" horiz-adv-x="535" 
d="M336 604l-58 76l-58 -76h-138l118 148h156l118 -148h-138zM489 418h-261v-79h241v-126h-241v-83h264v-130h-424v548h421v-130z" />
    <glyph glyph-name="edieresis.smcp" horiz-adv-x="535" 
d="M237 621h-143v131h143v-131zM463 621h-142v131h142v-131zM489 418h-261v-79h241v-126h-241v-83h264v-130h-424v548h421v-130z" />
    <glyph glyph-name="edotaccent.smcp" horiz-adv-x="535" 
d="M362 621h-166v131h166v-131zM489 418h-261v-79h241v-126h-241v-83h264v-130h-424v548h421v-130z" />
    <glyph glyph-name="egrave.smcp" horiz-adv-x="535" 
d="M296 752l78 -148h-128l-141 148h191zM489 418h-261v-79h241v-126h-241v-83h264v-130h-424v548h421v-130z" />
    <glyph glyph-name="emacron.smcp" horiz-adv-x="535" 
d="M458 629h-359v103h359v-103zM489 418h-261v-79h241v-126h-241v-83h264v-130h-424v548h421v-130z" />
    <glyph glyph-name="eogonek.smcp" horiz-adv-x="535" 
d="M461 -109c12 0 25 3 35 7v-82c-25 -9 -58 -15 -93 -15c-83 0 -123 35 -123 91c0 45 30 76 84 108h-296v548h421v-130h-261v-79h241v-126h-241v-83h264v-130h1c-50 -33 -65 -55 -65 -79c0 -20 11 -30 33 -30z" />
    <glyph glyph-name="f.smcp" horiz-adv-x="496" 
d="M477 415h-249v-101h231v-133h-231v-181h-160v548h409v-133z" />
    <glyph glyph-name="fi.smcp" horiz-adv-x="801" 
d="M477 415h-249v-101h231v-133h-231v-181h-160v548h409v-133zM734 0h-170v548h170v-548z" />
    <glyph glyph-name="fl.smcp" horiz-adv-x="995" 
d="M477 415h-249v-101h231v-133h-231v-181h-160v548h409v-133zM734 141h252v-141h-422v548h170v-407z" />
    <glyph glyph-name="g.smcp" horiz-adv-x="639" 
d="M322 564c147 0 245 -75 258 -193h-177c-8 40 -36 62 -82 62c-70 0 -115 -57 -115 -161c0 -105 44 -164 115 -164c62 0 97 34 100 88h-110v118h267v-314h-143v46h-2c-35 -40 -88 -59 -153 -59c-154 0 -249 108 -249 285c0 181 112 292 291 292z" />
    <glyph glyph-name="gbreve.smcp" horiz-adv-x="639" 
d="M388 752h106c-5 -98 -70 -154 -178 -154s-173 56 -178 154h106c2 -37 28 -58 72 -58s69 21 72 58zM322 564c147 0 245 -75 258 -193h-177c-8 40 -36 62 -82 62c-70 0 -115 -57 -115 -161c0 -105 44 -164 115 -164c62 0 97 34 100 88h-110v118h267v-314h-143v46h-2
c-35 -40 -88 -59 -153 -59c-154 0 -249 108 -249 285c0 181 112 292 291 292z" />
    <glyph glyph-name="gcircumflex.smcp" horiz-adv-x="639" 
d="M373 604l-58 76l-58 -76h-138l118 148h156l118 -148h-138zM322 564c147 0 245 -75 258 -193h-177c-8 40 -36 62 -82 62c-70 0 -115 -57 -115 -161c0 -105 44 -164 115 -164c62 0 97 34 100 88h-110v118h267v-314h-143v46h-2c-35 -40 -88 -59 -153 -59
c-154 0 -249 108 -249 285c0 181 112 292 291 292z" />
    <glyph glyph-name="gcommaaccent.smcp" horiz-adv-x="639" 
d="M322 564c147 0 245 -75 258 -193h-177c-8 40 -36 62 -82 62c-70 0 -115 -57 -115 -161c0 -105 44 -164 115 -164c62 0 97 34 100 88h-110v118h267v-314h-143v46h-2c-35 -40 -88 -59 -153 -59c-154 0 -249 108 -249 285c0 181 112 292 291 292zM382 -166l-71 -109h-63
l46 109h-46v112h134v-112z" />
    <glyph glyph-name="gdotaccent.smcp" horiz-adv-x="639" 
d="M399 621h-166v131h166v-131zM322 564c147 0 245 -75 258 -193h-177c-8 40 -36 62 -82 62c-70 0 -115 -57 -115 -161c0 -105 44 -164 115 -164c62 0 97 34 100 88h-110v118h267v-314h-143v46h-2c-35 -40 -88 -59 -153 -59c-154 0 -249 108 -249 285c0 181 112 292 291 292
z" />
    <glyph glyph-name="h.smcp" horiz-adv-x="663" 
d="M595 0h-170v212h-187v-212h-170v548h170v-196h187v196h170v-548z" />
    <glyph glyph-name="hbar.smcp" horiz-adv-x="663" 
d="M636 431h-41v-431h-170v212h-187v-212h-170v431h-41v68h41v49h170v-49h187v49h170v-49h41v-68zM425 431h-187v-79h187v79z" />
    <glyph glyph-name="hcircumflex.smcp" horiz-adv-x="663" 
d="M389 604l-58 76l-58 -76h-138l118 148h156l118 -148h-138zM595 0h-170v212h-187v-212h-170v548h170v-196h187v196h170v-548z" />
    <glyph glyph-name="i.smcp" horiz-adv-x="306" 
d="M238 0h-170v548h170v-548z" />
    <glyph glyph-name="iacute.smcp" horiz-adv-x="306" 
d="M185 604h-128l78 148h191zM238 0h-170v548h170v-548z" />
    <glyph glyph-name="ibreve.smcp" horiz-adv-x="306" 
d="M215 752h100c-4 -97 -62 -154 -162 -154s-158 56 -162 154h100c3 -39 24 -60 62 -60s59 21 62 60zM238 0h-170v548h170v-548z" />
    <glyph glyph-name="icircumflex.smcp" horiz-adv-x="306" 
d="M334 606h-130l-51 71l-50 -71h-131l108 146h146zM238 0h-170v548h170v-548z" />
    <glyph glyph-name="idieresis.smcp" horiz-adv-x="306" 
d="M129 621h-133v131h133v-131zM309 621h-132v131h132v-131zM238 0h-170v548h170v-548z" />
    <glyph glyph-name="idotaccent.smcp" horiz-adv-x="306" 
d="M236 621h-166v131h166v-131zM238 0h-170v548h170v-548z" />
    <glyph glyph-name="igrave.smcp" horiz-adv-x="306" 
d="M171 752l78 -148h-128l-141 148h191zM238 0h-170v548h170v-548z" />
    <glyph glyph-name="ij.smcp" horiz-adv-x="669" 
d="M238 0h-170v548h170v-548zM606 548v-351c0 -141 -66 -204 -213 -204c-26 0 -53 3 -73 8l-1 136c12 -2 27 -3 36 -3c60 0 82 23 82 107v307h169z" />
    <glyph glyph-name="imacron.smcp" horiz-adv-x="306" 
d="M303 632h-300v103h300v-103zM238 0h-170v548h170v-548z" />
    <glyph glyph-name="iogonek.smcp" horiz-adv-x="306" 
d="M206 -109c12 0 25 3 35 7v-82c-25 -9 -58 -15 -93 -15c-83 0 -123 35 -123 91c0 45 30 76 84 108h-41v548h170v-548c-50 -33 -65 -55 -65 -79c0 -20 11 -30 33 -30z" />
    <glyph glyph-name="itilde.smcp" horiz-adv-x="306" 
d="M248 752h78c-5 -88 -43 -144 -115 -144c-57 0 -80 45 -117 45c-22 0 -34 -15 -36 -45h-77c4 88 42 144 113 144c57 0 81 -45 117 -45c23 0 34 15 37 45zM238 0h-170v548h170v-548z" />
    <glyph glyph-name="j.smcp" horiz-adv-x="364" 
d="M300 548v-351c0 -141 -66 -204 -213 -204c-26 0 -53 3 -73 8l-1 136c12 -2 27 -3 36 -3c60 0 82 23 82 107v307h169z" />
    <glyph glyph-name="jcircumflex.smcp" horiz-adv-x="364" 
d="M393 606h-130l-51 71l-50 -71h-131l108 146h146zM300 548v-351c0 -141 -66 -204 -213 -204c-26 0 -53 3 -73 8l-1 136c12 -2 27 -3 36 -3c60 0 82 23 82 107v307h169z" />
    <glyph glyph-name="k.smcp" 
d="M394 290l210 -290h-210l-154 245h-2v-245h-170v548h170v-230h2l149 230h202z" />
    <glyph glyph-name="kcommaaccent.smcp" 
d="M394 290l210 -290h-210l-154 245h-2v-245h-170v548h170v-230h2l149 230h202zM374 -166l-71 -109h-63l46 109h-46v112h134v-112z" />
    <glyph glyph-name="l.smcp" horiz-adv-x="499" 
d="M238 141h252v-141h-422v548h170v-407z" />
    <glyph glyph-name="lacute.smcp" horiz-adv-x="499" 
d="M216 604h-128l78 148h191zM238 141h252v-141h-422v548h170v-407z" />
    <glyph glyph-name="lcaron.smcp" horiz-adv-x="499" 
d="M238 141h252v-141h-422v548h170v-407zM367 370h-94l24 178h130z" />
    <glyph glyph-name="lcommaaccent.smcp" horiz-adv-x="499" 
d="M238 141h252v-141h-422v548h170v-407zM334 -166l-71 -109h-63l46 109h-46v112h134v-112z" />
    <glyph glyph-name="ldot.smcp" horiz-adv-x="562" 
d="M238 141h252v-141h-422v548h170v-407zM516 277h-163v170h163v-170z" />
    <glyph glyph-name="j.acute.loclNLD.smcp" horiz-adv-x="364" 
d="M245 604h-128l78 148h191zM300 548v-351c0 -141 -66 -204 -213 -204c-26 0 -53 3 -73 8l-1 136c12 -2 27 -3 36 -3c60 0 82 23 82 107v307h169z" />
    <glyph glyph-name="lslash.smcp" horiz-adv-x="501" 
d="M492 141v-141h-421v213l-61 -34v112l61 34v223h169v-137l103 57v-112l-103 -57v-158h252z" />
    <glyph glyph-name="m.smcp" horiz-adv-x="900" 
d="M832 0h-160v261c0 67 2 133 5 199h-2c-14 -65 -30 -132 -48 -196l-73 -264h-207l-73 264c-18 64 -34 131 -49 196h-2c4 -66 6 -132 6 -199v-261h-161v548h274l63 -232c18 -66 34 -133 44 -200h2c11 67 26 134 44 200l64 232h273v-548z" />
    <glyph glyph-name="n.smcp" horiz-adv-x="717" 
d="M649 0h-252l-89 208c-30 68 -58 140 -82 209h-2c5 -73 7 -146 7 -220v-197h-163v548h253l89 -208c29 -68 57 -140 81 -209h2c-5 73 -6 146 -6 220v197h162v-548z" />
    <glyph glyph-name="nacute.smcp" horiz-adv-x="717" 
d="M391 604h-128l78 148h191zM649 0h-252l-89 208c-30 68 -58 140 -82 209h-2c5 -73 7 -146 7 -220v-197h-163v548h253l89 -208c29 -68 57 -140 81 -209h2c-5 73 -6 146 -6 220v197h162v-548z" />
    <glyph glyph-name="ncaron.smcp" horiz-adv-x="717" 
d="M437 604h-156l-118 148h138l58 -76l58 76h138zM649 0h-252l-89 208c-30 68 -58 140 -82 209h-2c5 -73 7 -146 7 -220v-197h-163v548h253l89 -208c29 -68 57 -140 81 -209h2c-5 73 -6 146 -6 220v197h162v-548z" />
    <glyph glyph-name="ncommaaccent.smcp" horiz-adv-x="717" 
d="M649 0h-252l-89 208c-30 68 -58 140 -82 209h-2c5 -73 7 -146 7 -220v-197h-163v548h253l89 -208c29 -68 57 -140 81 -209h2c-5 73 -6 146 -6 220v197h162v-548zM426 -166l-71 -109h-63l46 109h-46v112h134v-112z" />
    <glyph glyph-name="eng.smcp" horiz-adv-x="665" 
d="M597 548v-555c0 -113 -72 -160 -171 -160c-30 0 -55 3 -75 9v108c6 -2 14 -3 24 -3c33 0 51 15 51 45c0 16 -6 29 -37 82l-84 145c-29 50 -57 104 -80 158h-2c5 -61 8 -122 8 -183v-194h-163v548h207l84 -145c30 -52 58 -106 82 -159h2c-6 62 -8 122 -8 183v121h162z" />
    <glyph glyph-name="ntilde.smcp" horiz-adv-x="717" 
d="M465 752h89c-5 -88 -48 -143 -125 -143c-63 0 -94 43 -134 43c-26 0 -39 -15 -42 -43h-89c4 88 47 143 124 143c64 0 95 -43 134 -43c27 0 39 14 43 43zM649 0h-252l-89 208c-30 68 -58 140 -82 209h-2c5 -73 7 -146 7 -220v-197h-163v548h253l89 -208
c29 -68 57 -140 81 -209h2c-5 73 -6 146 -6 220v197h162v-548z" />
    <glyph glyph-name="o.smcp" horiz-adv-x="632" 
d="M316 564c175 0 285 -112 285 -290s-110 -290 -285 -290s-285 112 -285 290s110 290 285 290zM316 426c-71 0 -110 -54 -110 -152s39 -152 110 -152s110 54 110 152s-39 152 -110 152z" />
    <glyph glyph-name="oacute.smcp" horiz-adv-x="632" 
d="M348 604h-128l78 148h191zM316 564c175 0 285 -112 285 -290s-110 -290 -285 -290s-285 112 -285 290s110 290 285 290zM316 426c-71 0 -110 -54 -110 -152s39 -152 110 -152s110 54 110 152s-39 152 -110 152z" />
    <glyph glyph-name="obreve.smcp" horiz-adv-x="632" 
d="M388 752h106c-5 -98 -70 -154 -178 -154s-173 56 -178 154h106c2 -37 28 -58 72 -58s69 21 72 58zM316 564c175 0 285 -112 285 -290s-110 -290 -285 -290s-285 112 -285 290s110 290 285 290zM316 426c-71 0 -110 -54 -110 -152s39 -152 110 -152s110 54 110 152
s-39 152 -110 152z" />
    <glyph glyph-name="ocircumflex.smcp" horiz-adv-x="632" 
d="M374 604l-58 76l-58 -76h-138l118 148h156l118 -148h-138zM316 564c175 0 285 -112 285 -290s-110 -290 -285 -290s-285 112 -285 290s110 290 285 290zM316 426c-71 0 -110 -54 -110 -152s39 -152 110 -152s110 54 110 152s-39 152 -110 152z" />
    <glyph glyph-name="odieresis.smcp" horiz-adv-x="632" 
d="M274 621h-143v131h143v-131zM500 621h-142v131h142v-131zM316 564c175 0 285 -112 285 -290s-110 -290 -285 -290s-285 112 -285 290s110 290 285 290zM316 426c-71 0 -110 -54 -110 -152s39 -152 110 -152s110 54 110 152s-39 152 -110 152z" />
    <glyph glyph-name="ograve.smcp" horiz-adv-x="632" 
d="M334 752l78 -148h-128l-141 148h191zM316 564c175 0 285 -112 285 -290s-110 -290 -285 -290s-285 112 -285 290s110 290 285 290zM316 426c-71 0 -110 -54 -110 -152s39 -152 110 -152s110 54 110 152s-39 152 -110 152z" />
    <glyph glyph-name="ohungarumlaut.smcp" horiz-adv-x="632" 
d="M249 604h-123l98 148h166zM455 604h-124l99 148h166zM316 564c175 0 285 -112 285 -290s-110 -290 -285 -290s-285 112 -285 290s110 290 285 290zM316 426c-71 0 -110 -54 -110 -152s39 -152 110 -152s110 54 110 152s-39 152 -110 152z" />
    <glyph glyph-name="omacron.smcp" horiz-adv-x="632" 
d="M495 629h-359v103h359v-103zM316 564c175 0 285 -112 285 -290s-110 -290 -285 -290s-285 112 -285 290s110 290 285 290zM316 426c-71 0 -110 -54 -110 -152s39 -152 110 -152s110 54 110 152s-39 152 -110 152z" />
    <glyph glyph-name="oslash.smcp" horiz-adv-x="634" 
d="M576 543l-47 -60c48 -51 74 -122 74 -209c0 -178 -110 -290 -286 -290c-56 0 -106 11 -147 33l-49 -63l-64 49l48 62c-48 50 -74 122 -74 209c0 178 110 290 286 290c57 0 106 -12 148 -33l47 61zM317 433c-79 0 -122 -58 -122 -159c0 -32 4 -59 12 -81l174 223
c-18 11 -39 17 -64 17zM317 115c79 0 122 57 122 159c0 31 -4 59 -12 81l-174 -223c18 -11 39 -17 64 -17z" />
    <glyph glyph-name="otilde.smcp" horiz-adv-x="632" 
d="M422 752h89c-5 -88 -48 -143 -125 -143c-63 0 -94 43 -134 43c-26 0 -39 -15 -42 -43h-89c4 88 47 143 124 143c64 0 95 -43 134 -43c27 0 39 14 43 43zM316 564c175 0 285 -112 285 -290s-110 -290 -285 -290s-285 112 -285 290s110 290 285 290zM316 426
c-71 0 -110 -54 -110 -152s39 -152 110 -152s110 54 110 152s-39 152 -110 152z" />
    <glyph glyph-name="oe.smcp" horiz-adv-x="845" 
d="M798 418h-260v-79h240v-126h-240v-83h264v-130h-457c-197 0 -314 102 -314 274s117 274 314 274h453v-130zM381 418h-33c-93 0 -142 -54 -142 -144s49 -144 142 -144h33v288z" />
    <glyph glyph-name="p.smcp" horiz-adv-x="578" 
d="M68 548h261c153 0 228 -76 228 -194s-75 -193 -228 -193h-91v-161h-170v548zM238 422v-136h60c60 0 85 26 85 68c0 44 -26 68 -86 68h-59z" />
    <glyph glyph-name="thorn.smcp" horiz-adv-x="578" 
d="M238 474h91c153 0 228 -76 228 -195c0 -117 -75 -193 -228 -193h-91v-86h-170v548h170v-74zM238 348v-136h60c60 0 85 26 85 68c0 44 -26 68 -86 68h-59z" />
    <glyph glyph-name="q.smcp" horiz-adv-x="632" 
d="M601 274c0 -83 -24 -151 -66 -200l61 -65l-81 -76l-71 75c-37 -16 -80 -24 -128 -24c-175 0 -285 112 -285 290s110 290 285 290s285 -112 285 -290zM205 271c0 -100 41 -156 114 -156c10 0 19 1 28 3l-65 68l76 71l64 -69c9 23 13 51 13 83c0 100 -41 155 -115 155
s-115 -55 -115 -155z" />
    <glyph glyph-name="r.smcp" horiz-adv-x="598" 
d="M68 548h268c133 0 214 -46 214 -158c0 -66 -39 -114 -105 -134v-2c41 -15 61 -41 89 -113l54 -141h-181l-40 116c-19 53 -40 72 -90 72h-39v-188h-170v548zM238 429v-126h66c57 0 79 24 79 64c0 44 -30 62 -83 62h-62z" />
    <glyph glyph-name="racute.smcp" horiz-adv-x="598" 
d="M329 604h-128l78 148h191zM68 548h268c133 0 214 -46 214 -158c0 -66 -39 -114 -105 -134v-2c41 -15 61 -41 89 -113l54 -141h-181l-40 116c-19 53 -40 72 -90 72h-39v-188h-170v548zM238 429v-126h66c57 0 79 24 79 64c0 44 -30 62 -83 62h-62z" />
    <glyph glyph-name="rcaron.smcp" horiz-adv-x="598" 
d="M374 604h-156l-118 148h138l58 -76l58 76h138zM68 548h268c133 0 214 -46 214 -158c0 -66 -39 -114 -105 -134v-2c41 -15 61 -41 89 -113l54 -141h-181l-40 116c-19 53 -40 72 -90 72h-39v-188h-170v548zM238 429v-126h66c57 0 79 24 79 64c0 44 -30 62 -83 62h-62z" />
    <glyph glyph-name="rcommaaccent.smcp" horiz-adv-x="598" 
d="M68 548h268c133 0 214 -46 214 -158c0 -66 -39 -114 -105 -134v-2c41 -15 61 -41 89 -113l54 -141h-181l-40 116c-19 53 -40 72 -90 72h-39v-188h-170v548zM238 429v-126h66c57 0 79 24 79 64c0 44 -30 62 -83 62h-62zM379 -166l-71 -109h-63l46 109h-46v112h134v-112z
" />
    <glyph glyph-name="s.smcp" horiz-adv-x="543" 
d="M268 564c148 0 233 -62 233 -182h-164c0 43 -26 66 -77 66c-41 0 -67 -17 -67 -45c0 -32 28 -41 108 -59c114 -26 213 -58 213 -178c0 -113 -93 -182 -244 -182c-156 0 -248 71 -248 194h167c0 -49 28 -75 86 -75c47 0 75 20 75 51c0 34 -31 42 -104 61
c-112 27 -214 55 -214 173c0 106 88 176 236 176z" />
    <glyph glyph-name="sacute.smcp" horiz-adv-x="543" 
d="M300 604h-128l78 148h191zM268 564c148 0 233 -62 233 -182h-164c0 43 -26 66 -77 66c-41 0 -67 -17 -67 -45c0 -32 28 -41 108 -59c114 -26 213 -58 213 -178c0 -113 -93 -182 -244 -182c-156 0 -248 71 -248 194h167c0 -49 28 -75 86 -75c47 0 75 20 75 51
c0 34 -31 42 -104 61c-112 27 -214 55 -214 173c0 106 88 176 236 176z" />
    <glyph glyph-name="scaron.smcp" horiz-adv-x="543" 
d="M345 604h-156l-118 148h138l58 -76l58 76h138zM268 564c148 0 233 -62 233 -182h-164c0 43 -26 66 -77 66c-41 0 -67 -17 -67 -45c0 -32 28 -41 108 -59c114 -26 213 -58 213 -178c0 -113 -93 -182 -244 -182c-156 0 -248 71 -248 194h167c0 -49 28 -75 86 -75
c47 0 75 20 75 51c0 34 -31 42 -104 61c-112 27 -214 55 -214 173c0 106 88 176 236 176z" />
    <glyph glyph-name="scedilla.smcp" horiz-adv-x="543" 
d="M514 166c0 -105 -80 -172 -212 -181l-28 -45c9 3 22 5 33 5c51 0 87 -29 87 -78c0 -55 -43 -99 -128 -99c-41 0 -84 11 -120 32l26 53c30 -15 58 -22 81 -22c28 0 44 11 44 31c0 19 -16 33 -44 33c-11 0 -22 -2 -31 -6l-29 27l42 69c-135 10 -213 79 -213 193h167
c0 -49 28 -75 86 -75c47 0 75 20 75 51c0 34 -31 42 -104 61c-112 27 -214 55 -214 173c0 106 88 176 236 176s233 -62 233 -182h-164c0 43 -26 66 -77 66c-41 0 -67 -17 -67 -45c0 -32 28 -41 108 -59c114 -26 213 -58 213 -178z" />
    <glyph glyph-name="scircumflex.smcp" horiz-adv-x="543" 
d="M325 604l-58 76l-58 -76h-138l118 148h156l118 -148h-138zM268 564c148 0 233 -62 233 -182h-164c0 43 -26 66 -77 66c-41 0 -67 -17 -67 -45c0 -32 28 -41 108 -59c114 -26 213 -58 213 -178c0 -113 -93 -182 -244 -182c-156 0 -248 71 -248 194h167
c0 -49 28 -75 86 -75c47 0 75 20 75 51c0 34 -31 42 -104 61c-112 27 -214 55 -214 173c0 106 88 176 236 176z" />
    <glyph glyph-name="scommaaccent.smcp" horiz-adv-x="543" 
d="M268 564c148 0 233 -62 233 -182h-164c0 43 -26 66 -77 66c-41 0 -67 -17 -67 -45c0 -32 28 -41 108 -59c114 -26 213 -58 213 -178c0 -113 -93 -182 -244 -182c-156 0 -248 71 -248 194h167c0 -49 28 -75 86 -75c47 0 75 20 75 51c0 34 -31 42 -104 61
c-112 27 -214 55 -214 173c0 106 88 176 236 176zM337 -166l-71 -109h-63l46 109h-46v112h134v-112z" />
    <glyph glyph-name="germandbls.smcp" horiz-adv-x="704" 
d="M630 447l-110 -119c95 -30 148 -88 148 -176c0 -108 -84 -168 -212 -168c-127 0 -197 57 -197 176h144c0 -34 16 -51 50 -51c32 0 49 15 49 46c0 50 -52 74 -149 80v101l76 80c-18 12 -42 19 -71 19c-84 0 -129 -46 -129 -137v-298h-165v302c0 172 104 262 297 262
c114 0 211 -47 269 -117z" />
    <glyph glyph-name="t.smcp" horiz-adv-x="524" 
d="M515 408h-168v-408h-170v408h-168v140h506v-140z" />
    <glyph glyph-name="tbar.smcp" horiz-adv-x="524" 
d="M347 408v-110h93v-98h-93v-200h-170v200h-93v98h93v110h-168v140h506v-140h-168z" />
    <glyph glyph-name="tcaron.smcp" horiz-adv-x="524" 
d="M340 604h-156l-118 148h138l58 -76l58 76h138zM515 408h-168v-408h-170v408h-168v140h506v-140z" />
    <glyph glyph-name="tcedilla.smcp" horiz-adv-x="524" 
d="M515 408h-168v-408h-170v408h-168v140h506v-140zM329 -166l-71 -109h-63l46 109h-46v112h134v-112z" />
    <glyph glyph-name="tcommaaccent.smcp" horiz-adv-x="524" 
d="M515 408h-168v-408h-170v408h-168v140h506v-140zM329 -166l-71 -109h-63l46 109h-46v112h134v-112z" />
    <glyph glyph-name="u.smcp" horiz-adv-x="628" 
d="M566 548v-330c0 -149 -91 -234 -252 -234s-252 85 -252 234v330h170v-327c0 -59 28 -91 82 -91s82 32 82 91v327h170z" />
    <glyph glyph-name="uacute.smcp" horiz-adv-x="628" 
d="M346 604h-128l78 148h191zM566 548v-330c0 -149 -91 -234 -252 -234s-252 85 -252 234v330h170v-327c0 -59 28 -91 82 -91s82 32 82 91v327h170z" />
    <glyph glyph-name="ubreve.smcp" horiz-adv-x="628" 
d="M386 752h106c-5 -98 -70 -154 -178 -154s-173 56 -178 154h106c2 -37 28 -58 72 -58s69 21 72 58zM566 548v-330c0 -149 -91 -234 -252 -234s-252 85 -252 234v330h170v-327c0 -59 28 -91 82 -91s82 32 82 91v327h170z" />
    <glyph glyph-name="ucircumflex.smcp" horiz-adv-x="628" 
d="M372 604l-58 76l-58 -76h-138l118 148h156l118 -148h-138zM566 548v-330c0 -149 -91 -234 -252 -234s-252 85 -252 234v330h170v-327c0 -59 28 -91 82 -91s82 32 82 91v327h170z" />
    <glyph glyph-name="udieresis.smcp" horiz-adv-x="628" 
d="M272 621h-143v131h143v-131zM498 621h-142v131h142v-131zM566 548v-330c0 -149 -91 -234 -252 -234s-252 85 -252 234v330h170v-327c0 -59 28 -91 82 -91s82 32 82 91v327h170z" />
    <glyph glyph-name="ugrave.smcp" horiz-adv-x="628" 
d="M332 752l78 -148h-128l-141 148h191zM566 548v-330c0 -149 -91 -234 -252 -234s-252 85 -252 234v330h170v-327c0 -59 28 -91 82 -91s82 32 82 91v327h170z" />
    <glyph glyph-name="uhungarumlaut.smcp" horiz-adv-x="628" 
d="M247 604h-123l98 148h166zM453 604h-124l99 148h166zM566 548v-330c0 -149 -91 -234 -252 -234s-252 85 -252 234v330h170v-327c0 -59 28 -91 82 -91s82 32 82 91v327h170z" />
    <glyph glyph-name="umacron.smcp" horiz-adv-x="628" 
d="M493 629h-359v103h359v-103zM566 548v-330c0 -149 -91 -234 -252 -234s-252 85 -252 234v330h170v-327c0 -59 28 -91 82 -91s82 32 82 91v327h170z" />
    <glyph glyph-name="uogonek.smcp" horiz-adv-x="629" 
d="M566 548v-327c0 -88 -29 -150 -85 -205c-41 -41 -56 -67 -56 -94c0 -20 11 -31 34 -31c12 0 25 3 35 7v-82c-25 -9 -58 -15 -93 -15c-82 0 -122 34 -122 90c0 41 24 68 66 97v2c-9 -2 -19 -2 -30 -2c-161 0 -252 84 -252 233v327h169v-324c0 -59 29 -91 83 -91
c53 0 82 32 82 91v324h169z" />
    <glyph glyph-name="uring.smcp" horiz-adv-x="628" 
d="M314 820c63 0 114 -51 114 -114c0 -62 -51 -113 -114 -113s-114 51 -114 113c0 63 51 114 114 114zM314 762c-31 0 -56 -25 -56 -56s25 -56 56 -56s56 25 56 56s-25 56 -56 56zM566 548v-330c0 -149 -91 -234 -252 -234s-252 85 -252 234v330h170v-327
c0 -59 28 -91 82 -91s82 32 82 91v327h170z" />
    <glyph glyph-name="utilde.smcp" horiz-adv-x="628" 
d="M420 752h89c-5 -88 -48 -143 -125 -143c-63 0 -94 43 -134 43c-26 0 -39 -15 -42 -43h-89c4 88 47 143 124 143c64 0 95 -43 134 -43c27 0 39 14 43 43zM566 548v-330c0 -149 -91 -234 -252 -234s-252 85 -252 234v330h170v-327c0 -59 28 -91 82 -91s82 32 82 91v327h170
z" />
    <glyph glyph-name="v.smcp" horiz-adv-x="575" 
d="M404 0h-233l-167 548h179l56 -207c19 -67 36 -137 48 -205h2c11 68 27 138 47 205l56 207h179z" />
    <glyph glyph-name="w.smcp" horiz-adv-x="868" 
d="M749 0h-233l-45 219c-14 68 -26 136 -36 205h-2c-9 -69 -22 -137 -36 -205l-44 -219h-233l-112 548h165l35 -192c13 -72 24 -147 33 -220h2c11 73 25 147 40 220l42 192h219l42 -192c15 -73 28 -147 40 -220h2c8 73 20 148 33 220l35 192h165z" />
    <glyph glyph-name="wacute.smcp" horiz-adv-x="868" 
d="M467 604h-128l78 148h191zM749 0h-233l-45 219c-14 68 -26 136 -36 205h-2c-9 -69 -22 -137 -36 -205l-44 -219h-233l-112 548h165l35 -192c13 -72 24 -147 33 -220h2c11 73 25 147 40 220l42 192h219l42 -192c15 -73 28 -147 40 -220h2c8 73 20 148 33 220l35 192h165z
" />
    <glyph glyph-name="wcircumflex.smcp" horiz-adv-x="868" 
d="M492 604l-58 76l-58 -76h-138l118 148h156l118 -148h-138zM749 0h-233l-45 219c-14 68 -26 136 -36 205h-2c-9 -69 -22 -137 -36 -205l-44 -219h-233l-112 548h165l35 -192c13 -72 24 -147 33 -220h2c11 73 25 147 40 220l42 192h219l42 -192c15 -73 28 -147 40 -220h2
c8 73 20 148 33 220l35 192h165z" />
    <glyph glyph-name="wdieresis.smcp" horiz-adv-x="868" 
d="M393 621h-143v131h143v-131zM619 621h-142v131h142v-131zM749 0h-233l-45 219c-14 68 -26 136 -36 205h-2c-9 -69 -22 -137 -36 -205l-44 -219h-233l-112 548h165l35 -192c13 -72 24 -147 33 -220h2c11 73 25 147 40 220l42 192h219l42 -192c15 -73 28 -147 40 -220h2
c8 73 20 148 33 220l35 192h165z" />
    <glyph glyph-name="wgrave.smcp" horiz-adv-x="868" 
d="M452 752l78 -148h-128l-141 148h191zM749 0h-233l-45 219c-14 68 -26 136 -36 205h-2c-9 -69 -22 -137 -36 -205l-44 -219h-233l-112 548h165l35 -192c13 -72 24 -147 33 -220h2c11 73 25 147 40 220l42 192h219l42 -192c15 -73 28 -147 40 -220h2c8 73 20 148 33 220
l35 192h165z" />
    <glyph glyph-name="x.smcp" horiz-adv-x="568" 
d="M390 284l176 -284h-191l-90 178h-2l-91 -178h-191l176 284l-165 264h187l84 -171h2l83 171h188z" />
    <glyph glyph-name="y.smcp" horiz-adv-x="558" 
d="M363 196v-196h-169v196l-193 352h186l41 -96c20 -43 37 -88 50 -133h2c13 45 30 90 49 133l42 96h185z" />
    <glyph glyph-name="yacute.smcp" horiz-adv-x="558" 
d="M311 604h-128l78 148h191zM363 196v-196h-169v196l-193 352h186l41 -96c20 -43 37 -88 50 -133h2c13 45 30 90 49 133l42 96h185z" />
    <glyph glyph-name="ycircumflex.smcp" horiz-adv-x="558" 
d="M336 604l-58 76l-58 -76h-138l118 148h156l118 -148h-138zM363 196v-196h-169v196l-193 352h186l41 -96c20 -43 37 -88 50 -133h2c13 45 30 90 49 133l42 96h185z" />
    <glyph glyph-name="ydieresis.smcp" horiz-adv-x="558" 
d="M237 621h-143v131h143v-131zM463 621h-142v131h142v-131zM363 196v-196h-169v196l-193 352h186l41 -96c20 -43 37 -88 50 -133h2c13 45 30 90 49 133l42 96h185z" />
    <glyph glyph-name="ygrave.smcp" horiz-adv-x="558" 
d="M296 752l78 -148h-128l-141 148h191zM363 196v-196h-169v196l-193 352h186l41 -96c20 -43 37 -88 50 -133h2c13 45 30 90 49 133l42 96h185z" />
    <glyph glyph-name="z.smcp" horiz-adv-x="494" 
d="M463 404l-245 -264v-2h257v-138h-457v144l245 264v2h-232v138h432v-144z" />
    <glyph glyph-name="zacute.smcp" horiz-adv-x="494" 
d="M280 604h-128l78 148h191zM463 404l-245 -264v-2h257v-138h-457v144l245 264v2h-232v138h432v-144z" />
    <glyph glyph-name="zcaron.smcp" horiz-adv-x="494" 
d="M325 604h-156l-118 148h138l58 -76l58 76h138zM463 404l-245 -264v-2h257v-138h-457v144l245 264v2h-232v138h432v-144z" />
    <glyph glyph-name="zdotaccent.smcp" horiz-adv-x="494" 
d="M330 621h-166v131h166v-131zM463 404l-245 -264v-2h257v-138h-457v144l245 264v2h-232v138h432v-144z" />
    <glyph glyph-name="ccedilla.smcp.ss01" horiz-adv-x="612" 
d="M306 564c155 0 257 -80 263 -220h-175c-6 54 -38 82 -88 82c-61 0 -100 -55 -100 -152c0 -98 40 -152 101 -152c48 0 81 31 88 85h177c-12 -146 -114 -223 -265 -223c-172 0 -276 109 -276 290c0 180 105 290 275 290zM294 -217h-176l141 168h133z" />
    <glyph glyph-name="scedilla.smcp.ss01" horiz-adv-x="543" 
d="M268 564c148 0 233 -62 233 -182h-164c0 43 -26 66 -77 66c-41 0 -67 -17 -67 -45c0 -32 28 -41 108 -59c114 -26 213 -58 213 -178c0 -113 -93 -182 -244 -182c-156 0 -248 71 -248 194h167c0 -49 28 -75 86 -75c47 0 75 20 75 51c0 34 -31 42 -104 61
c-112 27 -214 55 -214 173c0 106 88 176 236 176zM257 -217h-176l141 168h133z" />
    <glyph glyph-name="tcedilla.smcp.ss01" horiz-adv-x="524" 
d="M515 408h-168v-408h-170v408h-168v140h506v-140zM249 -217h-176l141 168h133z" />
    <glyph glyph-name="ordfeminine" unicode="&#xaa;" horiz-adv-x="419" 
d="M206 697c118 0 173 -53 173 -148v-115c0 -48 4 -78 12 -104h-122c-4 13 -6 28 -6 45h-2c-28 -37 -69 -55 -118 -55c-80 0 -128 48 -128 112c0 63 41 100 149 116c27 4 63 8 84 9v13c0 35 -17 48 -44 48s-43 -15 -44 -45h-130c5 66 54 124 176 124zM248 477v12
c-15 0 -40 -3 -57 -7c-31 -7 -42 -20 -42 -41c0 -22 14 -37 40 -37c16 0 33 5 44 17c13 14 15 29 15 56z" />
    <glyph glyph-name="ordmasculine" unicode="&#xba;" horiz-adv-x="444" 
d="M222 697c123 0 201 -74 201 -189c0 -116 -78 -189 -201 -189c-122 0 -201 73 -201 189c0 115 79 189 201 189zM222 596c-38 0 -59 -33 -59 -88s21 -88 59 -88s59 33 59 88s-21 88 -59 88z" />
    <glyph glyph-name="Delta" unicode="&#x394;" horiz-adv-x="714" 
d="M713 0h-712l245 712h224zM489 141l-61 200c-25 85 -50 174 -71 259h-2c-21 -85 -46 -174 -71 -259l-60 -200h265z" />
    <glyph glyph-name="Omega" unicode="&#x3a9;" horiz-adv-x="747" 
d="M373 728c196 0 335 -101 335 -311c0 -118 -59 -199 -132 -269v-2h143v-146h-299v152c60 61 107 131 107 237c0 126 -64 189 -154 189c-89 0 -153 -63 -153 -189c0 -106 47 -176 107 -237v-152h-299v146h143v2c-74 70 -132 151 -132 269c0 210 139 311 334 311z" />
    <glyph glyph-name="mu" unicode="&#x3bc;" horiz-adv-x="626" 
d="M550 508v-330c0 -47 14 -61 43 -61c8 0 16 1 24 3v-115c-27 -9 -60 -14 -98 -14c-64 0 -104 26 -120 75h-2c-19 -45 -60 -72 -110 -72c-25 0 -46 6 -60 16v-195h-166v693h166v-291c0 -70 27 -101 73 -101c49 0 84 38 84 125v267h166z" />
    <glyph glyph-name="pi" unicode="&#x3c0;" horiz-adv-x="682" 
d="M665 387h-92v-205c0 -53 17 -67 51 -67c10 0 21 1 27 3v-116c-22 -7 -59 -11 -90 -11c-103 0 -154 43 -154 168v228h-145v-387h-166v387h-88v121h657v-121z" />
    <glyph glyph-name="zero.lf" horiz-adv-x="645" 
d="M323 690c181 0 282 -128 282 -353c0 -226 -101 -353 -282 -353s-282 127 -282 353c0 225 101 353 282 353zM323 556c-70 0 -108 -79 -108 -219c0 -141 38 -221 108 -221s107 80 107 221c0 140 -37 219 -107 219z" />
    <glyph glyph-name="one.lf" horiz-adv-x="433" 
d="M350 0h-172v435h-163v122c116 0 168 35 180 117h155v-674z" />
    <glyph glyph-name="two.lf" horiz-adv-x="629" 
d="M316 690c155 0 252 -81 252 -200s-72 -174 -175 -227c-120 -63 -142 -88 -145 -126h338v-137h-538c-1 9 -2 20 -2 31c0 137 41 220 194 305c96 53 153 87 153 152c0 42 -28 69 -76 69c-59 0 -90 -34 -91 -100h-171c3 151 99 233 261 233z" />
    <glyph glyph-name="three.lf" horiz-adv-x="619" 
d="M310 690c157 0 254 -74 254 -191c0 -74 -36 -120 -117 -149v-2c88 -29 127 -78 127 -162c0 -124 -104 -202 -262 -202c-179 0 -277 84 -277 240h173c0 -71 35 -107 104 -107c54 0 90 29 90 75c0 54 -39 82 -121 82h-20v128h22c70 0 112 32 112 80c0 46 -34 75 -88 75
c-60 0 -94 -34 -94 -101h-169c0 147 98 234 266 234z" />
    <glyph glyph-name="four.lf" horiz-adv-x="623" 
d="M607 140h-104v-140h-168v140h-320v136l265 398h223v-405h104v-129zM165 269h176v75c0 70 2 140 7 210h-2c-36 -65 -75 -128 -117 -191z" />
    <glyph glyph-name="five.lf" horiz-adv-x="623" 
d="M539 537h-310l-14 -136h2c35 33 82 50 134 50c134 0 226 -91 226 -223c0 -149 -109 -244 -273 -244c-156 0 -258 78 -258 207h172c1 -49 40 -77 88 -77c62 0 97 37 97 106s-38 104 -95 104c-48 0 -78 -27 -87 -65l-167 11l38 404h447v-137z" />
    <glyph glyph-name="six.lf" horiz-adv-x="616" 
d="M329 690c141 0 233 -76 241 -205h-171c-6 49 -33 76 -78 76c-64 0 -113 -54 -117 -186h2c39 43 89 65 153 65c130 0 220 -89 220 -218c0 -141 -108 -238 -264 -238c-173 0 -274 113 -274 336c0 235 107 370 288 370zM317 319c-54 0 -90 -42 -90 -105c0 -59 35 -99 89 -99
c55 0 90 41 90 101c0 62 -35 103 -89 103z" />
    <glyph glyph-name="seven.lf" horiz-adv-x="513" 
d="M497 674v-139c-97 -140 -171 -335 -205 -535h-184c44 224 135 421 222 534h-315v140h482z" />
    <glyph glyph-name="eight.lf" horiz-adv-x="619" 
d="M310 690c151 0 254 -74 254 -188c0 -73 -47 -131 -123 -151v-2c84 -20 138 -83 138 -166c0 -125 -104 -199 -269 -199c-166 0 -270 74 -270 199c0 83 54 146 138 166v2c-76 20 -123 78 -123 151c0 114 104 188 255 188zM310 561c-57 0 -93 -29 -93 -75
c0 -48 36 -78 93 -78s92 30 92 78c0 46 -36 75 -92 75zM310 282c-61 0 -99 -33 -99 -84s38 -83 99 -83c60 0 98 32 98 83s-38 84 -98 84z" />
    <glyph glyph-name="nine.lf" horiz-adv-x="616" 
d="M290 -16c-141 0 -233 76 -241 206h171c6 -50 33 -76 78 -76c64 0 113 53 117 185h-2c-39 -43 -89 -65 -153 -65c-130 0 -220 90 -220 218c0 142 108 238 264 238c173 0 274 -113 274 -336c0 -235 -107 -370 -288 -370zM302 355c54 0 90 42 90 105c0 60 -35 99 -89 99
c-55 0 -90 -40 -90 -100c0 -62 35 -104 89 -104z" />
    <glyph glyph-name="fraction" unicode="&#x2044;" horiz-adv-x="149" 
d="M-57 0h-100l363 674h100z" />
    <glyph glyph-name="onehalf" unicode="&#xbd;" horiz-adv-x="849" 
d="M242 270h-130v244h-103v89c69 0 103 25 115 71h118v-404zM231 0h-100l363 674h100zM644 414c105 0 167 -54 167 -126c0 -69 -46 -104 -113 -131c-73 -30 -86 -42 -89 -61h214v-96h-357c-1 8 -1 17 -1 25c0 87 28 138 121 184c62 29 99 47 99 82c0 19 -15 33 -41 33
c-30 0 -49 -19 -49 -55h-124c0 93 64 145 173 145z" />
    <glyph glyph-name="onequarter" unicode="&#xbc;" horiz-adv-x="824" 
d="M112 270v244h-103v89c69 0 103 25 115 71h118v-404h-130zM594 674l-363 -674h-100l363 674h100zM814 76h-70v-76h-121v76h-197v94l159 234h159v-236h70v-92zM532 168h97v37c0 39 1 81 4 120h-1c-19 -35 -40 -72 -64 -106z" />
    <glyph glyph-name="threequarters" unicode="&#xbe;" horiz-adv-x="942" 
d="M379 383c0 -78 -63 -123 -174 -123c-116 0 -184 51 -184 147h125c0 -38 20 -56 59 -56c31 0 52 15 52 38c0 26 -23 40 -66 40h-14v87h13c40 0 63 15 63 41c0 22 -19 37 -51 37c-35 0 -54 -20 -54 -53h-121c0 90 67 143 176 143c103 0 171 -46 171 -117
c0 -43 -22 -70 -74 -87v-1c55 -17 79 -46 79 -96zM712 674l-363 -674h-100l363 674h100zM932 76h-70v-76h-121v76h-197v94l159 234h159v-236h70v-92zM650 168h97v37c0 39 1 81 4 120h-1c-19 -35 -40 -72 -64 -106z" />
    <glyph glyph-name="oneeighth" unicode="&#x215b;" horiz-adv-x="839" 
d="M242 270h-130v244h-103v89c69 0 103 25 115 71h118v-404zM231 0h-100l363 674h100zM638 414c101 0 167 -46 167 -117c0 -42 -29 -75 -78 -86v-2c53 -10 88 -48 88 -97c0 -77 -66 -122 -177 -122s-177 45 -177 122c0 49 35 87 89 97v2c-50 11 -79 44 -79 86
c0 71 67 117 167 117zM638 328c-31 0 -51 -15 -51 -39s20 -40 51 -40s51 16 51 40s-20 39 -51 39zM638 163c-32 0 -53 -16 -53 -42s20 -43 53 -43s54 17 54 43s-22 42 -54 42z" />
    <glyph glyph-name="threeeighths" unicode="&#x215c;" horiz-adv-x="957" 
d="M203 684c103 0 171 -46 171 -117c0 -43 -22 -70 -74 -87v-1c55 -17 79 -46 79 -96c0 -78 -63 -123 -174 -123c-116 0 -184 51 -184 147h125c0 -38 20 -56 59 -56c31 0 52 15 52 38c0 26 -23 40 -66 40h-14v87h13c40 0 63 15 63 41c0 22 -19 37 -51 37
c-35 0 -54 -20 -54 -53h-121c0 90 67 143 176 143zM349 0h-100l363 674h100zM756 414c101 0 167 -46 167 -117c0 -42 -29 -75 -78 -86v-2c53 -10 88 -48 88 -97c0 -77 -66 -122 -177 -122s-177 45 -177 122c0 49 35 87 89 97v2c-50 11 -79 44 -79 86c0 71 67 117 167 117z
M756 328c-31 0 -51 -15 -51 -39s20 -40 51 -40s51 16 51 40s-20 39 -51 39zM756 163c-32 0 -53 -16 -53 -42s20 -43 53 -43s54 17 54 43s-22 42 -54 42z" />
    <glyph glyph-name="fiveeighths" unicode="&#x215d;" horiz-adv-x="958" 
d="M354 577h-195l-7 -64h2c22 18 51 27 85 27c83 0 142 -55 142 -135c0 -88 -71 -145 -177 -145s-176 48 -176 129h126c1 -26 20 -42 50 -42c35 0 54 22 54 57c0 34 -21 54 -52 54c-28 0 -45 -14 -50 -36l-121 7l23 245h296v-97zM350 0h-100l363 674h100zM757 414
c101 0 167 -46 167 -117c0 -42 -29 -75 -78 -86v-2c53 -10 88 -48 88 -97c0 -77 -66 -122 -177 -122s-177 45 -177 122c0 49 35 87 89 97v2c-50 11 -79 44 -79 86c0 71 67 117 167 117zM757 328c-31 0 -51 -15 -51 -39s20 -40 51 -40s51 16 51 40s-20 39 -51 39zM757 163
c-32 0 -53 -16 -53 -42s20 -43 53 -43s54 17 54 43s-22 42 -54 42z" />
    <glyph glyph-name="seveneighths" unicode="&#x215e;" horiz-adv-x="859" 
d="M348 674v-94c-63 -83 -109 -198 -132 -310h-133c27 120 83 234 143 306h-217v98h339zM251 0h-100l363 674h100zM658 414c101 0 167 -46 167 -117c0 -42 -29 -75 -78 -86v-2c53 -10 88 -48 88 -97c0 -77 -66 -122 -177 -122s-177 45 -177 122c0 49 35 87 89 97v2
c-50 11 -79 44 -79 86c0 71 67 117 167 117zM658 328c-31 0 -51 -15 -51 -39s20 -40 51 -40s51 16 51 40s-20 39 -51 39zM658 163c-32 0 -53 -16 -53 -42s20 -43 53 -43s54 17 54 43s-22 42 -54 42z" />
    <glyph glyph-name="zero.dnom" horiz-adv-x="419" 
d="M209 414c120 0 186 -76 186 -212s-66 -212 -186 -212c-118 0 -185 76 -185 212s67 212 185 212zM209 322c-38 0 -59 -43 -59 -120c0 -76 21 -119 59 -119c40 0 60 43 60 119c0 77 -20 120 -60 120z" />
    <glyph glyph-name="one.dnom" horiz-adv-x="288" 
d="M242 0h-130v244h-103v89c69 0 103 25 115 71h118v-404z" />
    <glyph glyph-name="two.dnom" horiz-adv-x="412" 
d="M207 414c105 0 167 -54 167 -126c0 -69 -46 -104 -113 -131c-73 -30 -86 -42 -89 -61h214v-96h-357c-1 8 -1 17 -1 25c0 87 28 138 121 184c62 29 99 47 99 82c0 19 -15 33 -41 33c-30 0 -49 -19 -49 -55h-124c0 93 64 145 173 145z" />
    <glyph glyph-name="three.dnom" horiz-adv-x="406" 
d="M203 414c103 0 171 -46 171 -117c0 -43 -22 -70 -74 -87v-1c55 -17 79 -46 79 -96c0 -78 -63 -123 -174 -123c-116 0 -184 51 -184 147h125c0 -38 20 -56 59 -56c31 0 52 15 52 38c0 26 -23 40 -66 40h-14v87h13c40 0 63 15 63 41c0 22 -19 37 -51 37
c-35 0 -54 -20 -54 -53h-121c0 90 67 143 176 143z" />
    <glyph glyph-name="four.dnom" horiz-adv-x="407" 
d="M397 76h-70v-76h-121v76h-197v94l159 234h159v-236h70v-92zM115 168h97v37c0 39 1 81 4 120h-1c-19 -35 -40 -72 -64 -106z" />
    <glyph glyph-name="five.dnom" horiz-adv-x="407" 
d="M353 307h-195l-7 -64h2c22 18 51 27 85 27c83 0 142 -55 142 -135c0 -88 -71 -145 -177 -145s-176 48 -176 129h126c1 -26 20 -42 50 -42c35 0 54 22 54 57c0 34 -21 54 -52 54c-28 0 -45 -14 -50 -36l-121 7l23 245h296v-97z" />
    <glyph glyph-name="six.dnom" horiz-adv-x="401" 
d="M212 414c94 0 156 -47 162 -129h-124c-3 27 -19 43 -44 43c-36 0 -60 -30 -62 -102h2c24 23 54 35 94 35c82 0 139 -53 139 -129c0 -84 -71 -142 -171 -142c-116 0 -184 70 -184 205c0 137 71 219 188 219zM208 179c-29 0 -49 -20 -49 -50c0 -29 19 -49 49 -49
c29 0 48 19 48 48c0 31 -19 51 -48 51z" />
    <glyph glyph-name="seven.dnom" horiz-adv-x="358" 
d="M348 404v-94c-63 -83 -109 -198 -132 -310h-133c27 120 83 234 143 306h-217v98h339z" />
    <glyph glyph-name="eight.dnom" horiz-adv-x="402" 
d="M201 414c101 0 167 -46 167 -117c0 -42 -29 -75 -78 -86v-2c53 -10 88 -48 88 -97c0 -77 -66 -122 -177 -122s-177 45 -177 122c0 49 35 87 89 97v2c-50 11 -79 44 -79 86c0 71 67 117 167 117zM201 328c-31 0 -51 -15 -51 -39s20 -40 51 -40s51 16 51 40s-20 39 -51 39z
M201 163c-32 0 -53 -16 -53 -42s20 -43 53 -43s54 17 54 43s-22 42 -54 42z" />
    <glyph glyph-name="nine.dnom" horiz-adv-x="401" 
d="M189 -9c-94 0 -156 47 -162 129h125c2 -27 18 -43 44 -43c35 0 59 30 61 102h-1c-24 -23 -55 -35 -95 -35c-81 0 -139 53 -139 129c0 84 71 142 171 142c117 0 184 -70 184 -205c0 -137 -71 -219 -188 -219zM193 226c29 0 49 20 49 50c0 29 -18 49 -49 49
c-28 0 -48 -19 -48 -48c0 -31 19 -51 48 -51z" />
    <glyph glyph-name="zero.numr" horiz-adv-x="419" 
d="M209 684c120 0 186 -76 186 -212s-66 -212 -186 -212c-118 0 -185 76 -185 212s67 212 185 212zM209 592c-38 0 -59 -43 -59 -120c0 -76 21 -119 59 -119c40 0 60 43 60 119c0 77 -20 120 -60 120z" />
    <glyph glyph-name="one.numr" horiz-adv-x="288" 
d="M242 270h-130v244h-103v89c69 0 103 25 115 71h118v-404z" />
    <glyph glyph-name="two.numr" horiz-adv-x="412" 
d="M207 684c105 0 167 -54 167 -126c0 -69 -46 -104 -113 -131c-73 -30 -86 -42 -89 -61h214v-96h-357c-1 8 -1 17 -1 25c0 87 28 138 121 184c62 29 99 47 99 82c0 19 -15 33 -41 33c-30 0 -49 -19 -49 -55h-124c0 93 64 145 173 145z" />
    <glyph glyph-name="three.numr" horiz-adv-x="406" 
d="M203 684c103 0 171 -46 171 -117c0 -43 -22 -70 -74 -87v-1c55 -17 79 -46 79 -96c0 -78 -63 -123 -174 -123c-116 0 -184 51 -184 147h125c0 -38 20 -56 59 -56c31 0 52 15 52 38c0 26 -23 40 -66 40h-14v87h13c40 0 63 15 63 41c0 22 -19 37 -51 37
c-35 0 -54 -20 -54 -53h-121c0 90 67 143 176 143z" />
    <glyph glyph-name="four.numr" horiz-adv-x="407" 
d="M397 346h-70v-76h-121v76h-197v94l159 234h159v-236h70v-92zM115 438h97v37c0 39 1 81 4 120h-1c-19 -35 -40 -72 -64 -106z" />
    <glyph glyph-name="five.numr" horiz-adv-x="407" 
d="M354 577h-195l-7 -64h2c22 18 51 27 85 27c83 0 142 -55 142 -135c0 -88 -71 -145 -177 -145s-176 48 -176 129h126c1 -26 20 -42 50 -42c35 0 54 22 54 57c0 34 -21 54 -52 54c-28 0 -45 -14 -50 -36l-121 7l23 245h296v-97z" />
    <glyph glyph-name="six.numr" horiz-adv-x="401" 
d="M212 684c94 0 156 -47 162 -129h-124c-3 27 -19 43 -44 43c-36 0 -60 -30 -62 -102h2c24 23 54 35 94 35c82 0 139 -53 139 -129c0 -84 -71 -142 -171 -142c-116 0 -184 70 -184 205c0 137 71 219 188 219zM208 449c-29 0 -49 -20 -49 -50c0 -29 19 -49 49 -49
c29 0 48 19 48 48c0 31 -19 51 -48 51z" />
    <glyph glyph-name="seven.numr" horiz-adv-x="358" 
d="M348 674v-94c-63 -83 -109 -198 -132 -310h-133c27 120 83 234 143 306h-217v98h339z" />
    <glyph glyph-name="eight.numr" horiz-adv-x="402" 
d="M201 684c101 0 167 -46 167 -117c0 -42 -29 -75 -78 -86v-2c53 -10 88 -48 88 -97c0 -77 -66 -122 -177 -122s-177 45 -177 122c0 49 35 87 89 97v2c-50 11 -79 44 -79 86c0 71 67 117 167 117zM201 598c-31 0 -51 -15 -51 -39s20 -40 51 -40s51 16 51 40s-20 39 -51 39z
M201 433c-32 0 -53 -16 -53 -42s20 -43 53 -43s54 17 54 43s-22 42 -54 42z" />
    <glyph glyph-name="nine.numr" horiz-adv-x="401" 
d="M189 261c-94 0 -156 47 -162 129h125c2 -27 18 -43 44 -43c35 0 59 30 61 102h-1c-24 -23 -55 -35 -95 -35c-81 0 -139 53 -139 129c0 84 71 142 171 142c117 0 184 -70 184 -205c0 -137 -71 -219 -188 -219zM193 496c29 0 49 20 49 50c0 29 -18 49 -49 49
c-28 0 -48 -19 -48 -48c0 -31 19 -51 48 -51z" />
    <glyph glyph-name="zeroinferior" unicode="&#x2080;" horiz-adv-x="481" 
d="M241 311c135 0 211 -90 211 -247c0 -158 -76 -247 -211 -247c-137 0 -212 89 -212 247c0 157 75 247 212 247zM241 208c-47 0 -71 -53 -71 -144c0 -92 24 -145 71 -145c46 0 69 53 69 145c0 91 -23 144 -69 144z" />
    <glyph glyph-name="oneinferior" unicode="&#x2081;" horiz-adv-x="335" 
d="M275 -172h-140v288h-125v101c89 0 130 24 140 83h125v-472z" />
    <glyph glyph-name="twoinferior" unicode="&#x2082;" horiz-adv-x="471" 
d="M236 311c119 0 192 -62 192 -145c0 -82 -54 -121 -130 -154c-84 -36 -100 -52 -102 -74h245v-110h-407c-1 8 -2 18 -2 28c0 100 33 161 141 214c68 33 112 56 112 96c0 26 -18 42 -48 42c-37 0 -58 -22 -59 -65h-140c1 108 74 168 198 168z" />
    <glyph glyph-name="threeinferior" unicode="&#x2083;" horiz-adv-x="464" 
d="M233 311c120 0 193 -52 193 -134c0 -51 -25 -82 -84 -103v-2c63 -20 90 -53 90 -110c0 -89 -77 -145 -198 -145c-135 0 -210 60 -210 170h142c0 -45 24 -68 68 -68c36 0 59 17 59 46c0 34 -26 51 -79 51h-13v99h16c44 0 71 19 71 49c0 27 -20 45 -56 45
c-42 0 -63 -24 -63 -65h-137c0 105 74 167 201 167z" />
    <glyph glyph-name="fourinferior" unicode="&#x2084;" horiz-adv-x="466" 
d="M454 -81h-81v-91h-136v91h-227v106l184 275h179v-280h81v-101zM128 20h115v48c0 45 2 91 5 136h-2c-22 -40 -47 -79 -74 -118z" />
    <glyph glyph-name="fiveinferior" unicode="&#x2085;" horiz-adv-x="466" 
d="M403 189h-224l-8 -78h2c26 21 60 32 98 32c96 0 163 -63 163 -153c0 -105 -81 -173 -203 -173c-121 0 -199 55 -199 150h140c1 -31 25 -50 59 -50c39 0 63 23 63 66s-25 65 -61 65c-33 0 -52 -18 -58 -42l-136 8l27 286h337v-111z" />
    <glyph glyph-name="sixinferior" unicode="&#x2086;" horiz-adv-x="460" 
d="M244 311c106 0 177 -54 184 -148h-140c-4 32 -21 49 -51 49c-43 0 -71 -35 -74 -118h2c27 27 63 41 110 41c94 0 159 -61 159 -150c0 -99 -81 -168 -197 -168c-131 0 -208 81 -208 238c0 160 81 256 215 256zM237 42c-35 0 -58 -25 -58 -63c0 -36 23 -60 58 -60
s59 24 59 61s-23 62 -59 62z" />
    <glyph glyph-name="seveninferior" unicode="&#x2087;" horiz-adv-x="414" 
d="M402 300v-108c-73 -97 -127 -231 -153 -364h-150c32 142 98 275 166 357h-255v115h392z" />
    <glyph glyph-name="eightinferior" unicode="&#x2088;" horiz-adv-x="461" 
d="M230 311c115 0 191 -53 191 -133c0 -51 -33 -91 -89 -104v-2c60 -12 101 -56 101 -115c0 -88 -76 -140 -203 -140c-126 0 -202 52 -202 140c0 59 41 103 101 115v2c-55 13 -90 53 -90 104c0 80 77 133 191 133zM230 212c-37 0 -60 -18 -60 -47c0 -30 23 -49 60 -49
c38 0 61 19 61 49c0 29 -23 47 -61 47zM230 20c-38 0 -63 -20 -63 -52c0 -31 25 -51 63 -51c40 0 64 20 64 51c0 32 -24 52 -64 52z" />
    <glyph glyph-name="nineinferior" unicode="&#x2089;" horiz-adv-x="460" 
d="M216 -183c-107 0 -177 54 -184 148h140c3 -32 21 -49 51 -49c43 0 71 35 74 118h-2c-27 -27 -64 -41 -110 -41c-94 0 -159 61 -159 150c0 99 80 168 197 168c131 0 208 -81 208 -238c0 -160 -81 -256 -215 -256zM222 86c35 0 59 25 59 63c0 36 -24 60 -59 60
s-58 -24 -58 -61s23 -62 58 -62z" />
    <glyph glyph-name="zerosuperior" unicode="&#x2070;" horiz-adv-x="481" 
d="M241 813c135 0 211 -90 211 -247c0 -158 -76 -247 -211 -247c-137 0 -212 89 -212 247c0 157 75 247 212 247zM241 710c-47 0 -71 -53 -71 -144c0 -92 24 -145 71 -145c46 0 69 53 69 145c0 91 -23 144 -69 144z" />
    <glyph glyph-name="onesuperior" unicode="&#xb9;" horiz-adv-x="335" 
d="M276 330h-140v288h-125v101c89 0 130 24 140 83h125v-472z" />
    <glyph glyph-name="twosuperior" unicode="&#xb2;" horiz-adv-x="471" 
d="M236 813c119 0 192 -62 192 -145c0 -82 -54 -121 -130 -154c-84 -36 -100 -52 -102 -74h245v-110h-407c-1 8 -2 18 -2 28c0 100 33 161 141 214c68 33 112 56 112 96c0 26 -18 42 -48 42c-37 0 -58 -22 -59 -65h-140c1 108 74 168 198 168z" />
    <glyph glyph-name="threesuperior" unicode="&#xb3;" horiz-adv-x="464" 
d="M233 813c120 0 193 -52 193 -134c0 -51 -25 -82 -84 -103v-2c63 -20 90 -53 90 -110c0 -89 -77 -145 -198 -145c-135 0 -210 60 -210 170h142c0 -45 24 -68 68 -68c36 0 59 17 59 46c0 34 -26 51 -79 51h-13v99h16c44 0 71 19 71 49c0 27 -20 45 -56 45
c-42 0 -63 -24 -63 -65h-137c0 105 74 167 201 167z" />
    <glyph glyph-name="foursuperior" unicode="&#x2074;" horiz-adv-x="466" 
d="M455 421h-81v-91h-136v91h-227v106l184 275h179v-280h81v-101zM129 522h115v48c0 45 2 91 5 136h-2c-22 -40 -47 -79 -74 -118z" />
    <glyph glyph-name="fivesuperior" unicode="&#x2075;" horiz-adv-x="466" 
d="M403 691h-224l-8 -78h2c26 21 60 32 98 32c96 0 163 -63 163 -153c0 -105 -81 -173 -203 -173c-121 0 -199 55 -199 150h140c1 -31 25 -50 59 -50c39 0 63 23 63 66s-25 65 -61 65c-33 0 -52 -18 -58 -42l-136 8l27 286h337v-111z" />
    <glyph glyph-name="sixsuperior" unicode="&#x2076;" horiz-adv-x="460" 
d="M244 813c106 0 177 -54 184 -148h-140c-4 32 -21 49 -51 49c-43 0 -71 -35 -74 -118h2c27 27 63 41 110 41c94 0 159 -61 159 -150c0 -99 -81 -168 -197 -168c-131 0 -208 81 -208 238c0 160 81 256 215 256zM237 544c-35 0 -58 -25 -58 -63c0 -36 23 -60 58 -60
s59 24 59 61s-23 62 -59 62z" />
    <glyph glyph-name="sevensuperior" unicode="&#x2077;" horiz-adv-x="414" 
d="M403 802v-108c-73 -97 -127 -231 -153 -364h-150c32 142 98 275 166 357h-255v115h392z" />
    <glyph glyph-name="eightsuperior" unicode="&#x2078;" horiz-adv-x="461" 
d="M230 813c115 0 191 -53 191 -133c0 -51 -33 -91 -89 -104v-2c60 -12 101 -56 101 -115c0 -88 -76 -140 -203 -140c-126 0 -202 52 -202 140c0 59 41 103 101 115v2c-55 13 -90 53 -90 104c0 80 77 133 191 133zM230 714c-37 0 -60 -18 -60 -47c0 -30 23 -49 60 -49
c38 0 61 19 61 49c0 29 -23 47 -61 47zM230 522c-38 0 -63 -20 -63 -52c0 -31 25 -51 63 -51c40 0 64 20 64 51c0 32 -24 52 -64 52z" />
    <glyph glyph-name="ninesuperior" unicode="&#x2079;" horiz-adv-x="460" 
d="M216 319c-107 0 -177 54 -184 148h140c3 -32 21 -49 51 -49c43 0 71 35 74 118h-2c-27 -27 -64 -41 -110 -41c-94 0 -159 61 -159 150c0 99 80 168 197 168c131 0 208 -81 208 -238c0 -160 -81 -256 -215 -256zM222 588c35 0 59 25 59 63c0 36 -24 60 -59 60
s-58 -24 -58 -61s23 -62 58 -62z" />
    <glyph glyph-name="zero.smcp" horiz-adv-x="531" 
d="M265 561c155 0 242 -104 242 -287s-87 -287 -242 -287c-154 0 -241 104 -241 287s87 287 241 287zM265 442c-51 0 -79 -61 -79 -168s28 -169 79 -169c52 0 79 62 79 169s-27 168 -79 168z" />
    <glyph glyph-name="one.smcp" horiz-adv-x="531" 
d="M378 0h-161v336h-139v115c99 0 145 29 156 97h144v-548z" />
    <glyph glyph-name="two.smcp" horiz-adv-x="531" 
d="M263 561c135 0 218 -71 218 -169c0 -94 -61 -140 -147 -178c-95 -43 -112 -61 -115 -87h277v-127h-464c-1 9 -1 20 -1 32c0 116 36 186 159 249c77 40 127 66 127 113c0 29 -19 48 -53 48c-41 0 -65 -25 -65 -76h-160c0 125 84 195 224 195z" />
    <glyph glyph-name="three.smcp" horiz-adv-x="531" 
d="M262 561c137 0 220 -61 220 -155c0 -60 -28 -96 -95 -120v-2c71 -23 103 -62 103 -129c0 -103 -88 -168 -226 -168c-155 0 -239 70 -239 198h162c0 -53 27 -79 77 -79c39 0 65 21 65 53c0 40 -28 59 -90 59h-14v115h18c50 0 81 22 81 56c0 32 -23 53 -63 53
c-46 0 -70 -27 -70 -75h-158c0 122 85 194 229 194z" />
    <glyph glyph-name="four.smcp" horiz-adv-x="531" 
d="M518 105h-91v-105h-157v105h-261v124l212 319h206v-325h91v-118zM145 223h131v56c0 53 2 106 6 159h-2c-25 -47 -53 -93 -84 -139z" />
    <glyph glyph-name="five.smcp" horiz-adv-x="531" 
d="M460 421h-255l-9 -92h2c30 26 68 39 110 39c110 0 186 -74 186 -180c0 -122 -92 -201 -231 -201c-137 0 -226 64 -226 174h162c1 -36 27 -58 65 -58c44 0 70 26 70 77c0 50 -28 76 -69 76c-36 0 -57 -21 -64 -49l-156 10l31 331h384v-127z" />
    <glyph glyph-name="six.smcp" horiz-adv-x="531" 
d="M281 561c122 0 202 -63 210 -171h-161c-4 37 -24 57 -57 57c-48 0 -79 -41 -83 -139h2c32 33 73 49 124 49c107 0 182 -72 182 -175c0 -115 -92 -195 -225 -195c-149 0 -237 94 -237 276c0 187 92 298 245 298zM273 248c-38 0 -64 -29 -64 -72s26 -72 65 -72
c38 0 64 30 64 72c0 43 -25 72 -65 72z" />
    <glyph glyph-name="seven.smcp" horiz-adv-x="531" 
d="M483 548v-127c-82 -113 -141 -268 -169 -421h-176c35 164 108 319 184 414h-284v134h445z" />
    <glyph glyph-name="eight.smcp" horiz-adv-x="531" 
d="M265 561c131 0 218 -62 218 -154c0 -60 -38 -106 -102 -122v-2c69 -14 115 -66 115 -134c0 -103 -87 -162 -231 -162c-143 0 -230 59 -230 162c0 68 45 120 114 134v2c-63 16 -101 62 -101 122c0 92 87 154 217 154zM265 447c-41 0 -67 -22 -67 -56c0 -33 26 -56 67 -56
c42 0 68 23 68 56c0 34 -26 56 -68 56zM265 223c-44 0 -70 -23 -70 -60s27 -61 70 -61c44 0 71 24 71 61s-27 60 -71 60z" />
    <glyph glyph-name="nine.smcp" horiz-adv-x="531" 
d="M250 -13c-122 0 -203 63 -211 171h161c5 -37 24 -57 57 -57c49 0 80 41 84 139h-2c-32 -33 -73 -49 -124 -49c-107 0 -182 72 -182 175c0 115 92 195 225 195c149 0 237 -94 237 -276c0 -187 -92 -298 -245 -298zM257 300c39 0 65 29 65 72s-27 72 -65 72
c-39 0 -65 -30 -65 -72c0 -43 26 -72 65 -72z" />
    <glyph glyph-name="zero.lf.smcp" horiz-adv-x="557" 
d="M278 561c155 0 242 -104 242 -287s-87 -287 -242 -287c-154 0 -241 104 -241 287s87 287 241 287zM278 442c-51 0 -79 -61 -79 -168s28 -169 79 -169c52 0 79 62 79 169s-27 168 -79 168z" />
    <glyph glyph-name="one.lf.smcp" horiz-adv-x="383" 
d="M313 0h-161v336h-139v115c99 0 145 29 156 97h144v-548z" />
    <glyph glyph-name="two.lf.smcp" horiz-adv-x="545" 
d="M274 561c135 0 218 -71 218 -169c0 -94 -61 -140 -147 -178c-96 -43 -112 -61 -115 -87h277v-127h-464c-1 9 -1 20 -1 32c0 116 36 186 159 249c77 40 127 66 127 113c0 29 -20 48 -53 48c-41 0 -66 -25 -66 -76h-159c0 125 83 195 224 195z" />
    <glyph glyph-name="three.lf.smcp" horiz-adv-x="538" 
d="M269 561c137 0 220 -61 220 -155c0 -60 -28 -96 -95 -120v-2c71 -23 103 -62 103 -129c0 -103 -88 -168 -226 -168c-155 0 -239 70 -239 198h162c0 -53 27 -79 77 -79c39 0 65 21 65 53c0 40 -28 59 -90 59h-14v115h18c50 0 81 22 81 56c0 32 -23 53 -63 53
c-46 0 -70 -27 -70 -75h-158c0 122 85 194 229 194z" />
    <glyph glyph-name="four.lf.smcp" horiz-adv-x="536" 
d="M522 105h-91v-105h-157v105h-260v124l211 319h206v-325h91v-118zM150 223h131v56c0 53 2 106 6 159h-2c-25 -47 -53 -93 -84 -139z" />
    <glyph glyph-name="five.lf.smcp" horiz-adv-x="540" 
d="M464 421h-254l-10 -92h2c30 26 68 39 111 39c110 0 186 -74 186 -180c0 -122 -92 -201 -232 -201c-137 0 -226 64 -226 174h162c1 -36 28 -58 65 -58c44 0 70 26 70 77c0 50 -28 76 -69 76c-36 0 -57 -21 -64 -49l-155 10l30 331h384v-127z" />
    <glyph glyph-name="six.lf.smcp" horiz-adv-x="532" 
d="M282 561c122 0 203 -63 211 -171h-161c-5 37 -24 57 -57 57c-49 0 -80 -41 -84 -139h2c32 33 73 49 124 49c107 0 182 -72 182 -175c0 -115 -92 -195 -225 -195c-149 0 -237 94 -237 276c0 187 92 298 245 298zM275 248c-39 0 -65 -29 -65 -72s27 -72 65 -72
c39 0 65 30 65 72c0 43 -26 72 -65 72z" />
    <glyph glyph-name="seven.lf.smcp" horiz-adv-x="472" 
d="M458 548v-127c-81 -113 -140 -268 -169 -421h-175c34 164 107 319 184 414h-285v134h445z" />
    <glyph glyph-name="eight.lf.smcp" horiz-adv-x="534" 
d="M267 561c131 0 218 -62 218 -154c0 -60 -38 -106 -102 -122v-2c69 -14 115 -66 115 -134c0 -103 -87 -162 -231 -162c-143 0 -230 59 -230 162c0 68 45 120 114 134v2c-63 16 -101 62 -101 122c0 92 87 154 217 154zM267 447c-41 0 -67 -22 -67 -56c0 -33 26 -56 67 -56
c42 0 68 23 68 56c0 34 -26 56 -68 56zM267 223c-44 0 -70 -23 -70 -60s27 -61 70 -61c44 0 71 24 71 61s-27 60 -71 60z" />
    <glyph glyph-name="nine.lf.smcp" horiz-adv-x="532" 
d="M250 -13c-122 0 -203 63 -211 171h161c5 -37 24 -57 57 -57c49 0 80 41 84 139h-2c-32 -33 -73 -49 -124 -49c-107 0 -182 72 -182 175c0 115 92 195 225 195c149 0 237 -94 237 -276c0 -187 -92 -298 -245 -298zM257 300c39 0 65 29 65 72s-27 72 -65 72
c-39 0 -65 -30 -65 -72c0 -43 26 -72 65 -72z" />
    <glyph glyph-name="periodcentered" unicode="&#xb7;" horiz-adv-x="274" 
d="M225 214h-176v183h176v-183z" />
    <glyph glyph-name="bullet" unicode="&#x2022;" horiz-adv-x="389" 
d="M195 201c-86 0 -155 70 -155 155c0 86 69 155 155 155c85 0 154 -69 154 -155c0 -85 -69 -155 -154 -155z" />
    <glyph glyph-name="ellipsis" unicode="&#x2026;" horiz-adv-x="943" 
d="M225 0h-176v184h176v-184zM560 0h-177v184h177v-184zM895 0h-177v184h177v-184z" />
    <glyph glyph-name="exclamdown" unicode="&#xa1;" horiz-adv-x="346" 
d="M84 508h177v-147h-177v147zM106 298h134l30 -502h-195z" />
    <glyph glyph-name="overline" unicode="&#x203e;" horiz-adv-x="500" 
d="M500 776h-500v103h500v-103z" />
    <glyph glyph-name="questiondown" unicode="&#xbf;" horiz-adv-x="542" 
d="M205 508h177v-147h-177v147zM283 -219c-155 0 -248 71 -248 189c0 68 21 106 99 171c72 61 89 91 89 169h140c2 -15 2 -32 2 -44c0 -85 -16 -119 -91 -187c-56 -51 -65 -70 -65 -106c0 -38 27 -62 74 -62c56 0 86 30 87 98h172c-3 -150 -97 -228 -259 -228z" />
    <glyph glyph-name="underscoredbl" unicode="&#x2017;" horiz-adv-x="500" 
d="M500 -134h-500v84h500v-84zM500 -291h-500v84h500v-84z" />
    <glyph glyph-name="periodcentered.case" horiz-adv-x="274" 
d="M225 264h-176v183h176v-183z" />
    <glyph glyph-name="exclamdown.case" horiz-adv-x="346" 
d="M84 712h177v-147h-177v147zM106 502h134l30 -502h-195z" />
    <glyph glyph-name="periodcentered.loclCAT.case" horiz-adv-x="83" 
d="M-1 345h-177v183h177v-183z" />
    <glyph glyph-name="questiondown.case" horiz-adv-x="570" 
d="M205 712h177v-147h-177v147zM283 -15c-155 0 -248 71 -248 189c0 68 21 106 99 171c72 61 89 91 89 169h140c2 -15 2 -32 2 -44c0 -85 -16 -119 -91 -187c-56 -51 -65 -70 -65 -106c0 -38 27 -62 74 -62c56 0 86 30 87 98h172c-3 -150 -97 -228 -259 -228z" />
    <glyph glyph-name="slash.case" horiz-adv-x="503" 
d="M187 0h-125l254 712h124z" />
    <glyph glyph-name="periodcentered.loclCAT" horiz-adv-x="225" 
d="M201 264h-177v183h177v-183z" />
    <glyph glyph-name="parenleftinferior" unicode="&#x208d;" horiz-adv-x="263" 
d="M134 347h108c-51 -113 -71 -207 -71 -311s20 -197 71 -311h-108c-75 103 -106 199 -106 311s31 209 106 311z" />
    <glyph glyph-name="parenleftsuperior" unicode="&#x207d;" horiz-adv-x="263" 
d="M134 849h108c-51 -113 -71 -207 -71 -311s20 -197 71 -311h-108c-75 103 -106 199 -106 311s31 209 106 311z" />
    <glyph glyph-name="parenrightinferior" unicode="&#x208e;" horiz-adv-x="263" 
d="M129 -275h-108c51 113 72 207 72 311s-21 197 -72 311h108c76 -103 106 -199 106 -311s-30 -209 -106 -311z" />
    <glyph glyph-name="parenrightsuperior" unicode="&#x207e;" horiz-adv-x="263" 
d="M129 227h-108c51 113 72 207 72 311s-21 197 -72 311h108c76 -103 106 -199 106 -311s-30 -209 -106 -311z" />
    <glyph glyph-name="braceleft.case" horiz-adv-x="361" 
d="M333 772v-95c-54 -2 -76 -21 -76 -84v-100c0 -78 -32 -118 -101 -135v-3c69 -18 101 -57 101 -135v-101c0 -63 22 -82 76 -84v-95h-25c-155 0 -201 55 -201 185v92c0 55 -16 76 -67 89v100c51 14 67 35 67 90v91c0 130 46 185 201 185h25z" />
    <glyph glyph-name="braceright.case" horiz-adv-x="361" 
d="M28 772h25c154 0 200 -55 200 -185v-91c0 -55 16 -76 68 -90v-100c-52 -13 -68 -34 -68 -89v-92c0 -130 -46 -185 -200 -185h-25v95c54 2 76 21 76 84v101c0 78 32 117 101 135v3c-69 17 -101 57 -101 135v100c0 63 -22 82 -76 84v95z" />
    <glyph glyph-name="bracketleft.case" horiz-adv-x="358" 
d="M338 667h-117v-623h117v-104h-273v832h273v-105z" />
    <glyph glyph-name="bracketright.case" horiz-adv-x="358" 
d="M293 772v-832h-273v104h117v623h-117v105h273z" />
    <glyph glyph-name="parenleft.case" horiz-adv-x="349" 
d="M185 772h134c-74 -147 -104 -271 -104 -416s30 -269 104 -416h-134c-101 133 -144 261 -144 416s43 283 144 416z" />
    <glyph glyph-name="parenright.case" horiz-adv-x="349" 
d="M30 772h134c101 -133 144 -261 144 -416s-43 -283 -144 -416h-134c74 147 104 271 104 416s-30 269 -104 416z" />
    <glyph glyph-name="bracketleft.sups" horiz-adv-x="273" 
d="M259 760h-86v-444h85v-89h-212v624h213v-91z" />
    <glyph glyph-name="bracketright.sups" horiz-adv-x="273" 
d="M227 851v-624h-212v89h85v444h-86v91h213z" />
    <glyph glyph-name="emdash" unicode="&#x2014;" horiz-adv-x="1000" 
d="M980 231h-960v122h960v-122z" />
    <glyph glyph-name="endash" unicode="&#x2013;" horiz-adv-x="500" 
d="M480 231h-460v122h460v-122z" />
    <glyph glyph-name="horizontalbar" unicode="&#x2015;" horiz-adv-x="1000" 
d="M980 231h-960v122h960v-122z" />
    <glyph glyph-name="hyphentwo" unicode="&#x2010;" horiz-adv-x="337" 
d="M307 231h-277v122h277v-122z" />
    <glyph glyph-name="softhyphen" unicode="&#xad;" horiz-adv-x="337" 
d="M307 231h-277v122h277v-122z" />
    <glyph glyph-name="emdash.case" horiz-adv-x="1000" 
d="M980 295h-960v122h960v-122z" />
    <glyph glyph-name="endash.case" horiz-adv-x="500" 
d="M480 295h-460v122h460v-122z" />
    <glyph glyph-name="hyphen.case" horiz-adv-x="337" 
d="M307 295h-277v122h277v-122z" />
    <glyph glyph-name="guillemetleft" unicode="&#xab;" horiz-adv-x="570" 
d="M193 254l106 -200h-142l-114 200l114 200h142zM422 254l106 -200h-143l-114 200l114 200h143z" />
    <glyph glyph-name="guillemetright" unicode="&#xbb;" horiz-adv-x="570" 
d="M185 454l114 -200l-114 -200h-142l106 200l-106 200h142zM414 454l114 -200l-114 -200h-143l106 200l-106 200h143z" />
    <glyph glyph-name="guilsinglleft" unicode="&#x2039;" horiz-adv-x="342" 
d="M193 254l106 -200h-142l-114 200l114 200h142z" />
    <glyph glyph-name="guilsinglright" unicode="&#x203a;" horiz-adv-x="342" 
d="M185 454l114 -200l-114 -200h-142l106 200l-106 200h142z" />
    <glyph glyph-name="quotedblbase" unicode="&#x201e;" horiz-adv-x="466" 
d="M207 0l-77 -152h-83l59 152h-49v156h150v-156zM407 0l-77 -152h-83l59 152h-49v156h150v-156z" />
    <glyph glyph-name="quotedblleft" unicode="&#x201c;" horiz-adv-x="466" 
d="M59 561l77 151h83l-59 -151h49v-157h-150v157zM259 561l77 151h83l-59 -151h49v-157h-150v157z" />
    <glyph glyph-name="quotedblright" unicode="&#x201d;" horiz-adv-x="466" 
d="M207 556l-77 -152h-83l59 152h-49v156h150v-156zM407 556l-77 -152h-83l59 152h-49v156h150v-156z" />
    <glyph glyph-name="quoteleft" unicode="&#x2018;" horiz-adv-x="266" 
d="M59 561l77 151h83l-59 -151h49v-157h-150v157z" />
    <glyph glyph-name="quoteright" unicode="&#x2019;" horiz-adv-x="266" 
d="M207 556l-77 -152h-83l59 152h-49v156h150v-156z" />
    <glyph glyph-name="quotesinglbase" unicode="&#x201a;" horiz-adv-x="266" 
d="M207 0l-77 -151h-83l59 151h-49v156h150v-156z" />
    <glyph glyph-name="guillemetleft.case" horiz-adv-x="570" 
d="M193 356l106 -200h-142l-114 200l114 200h142zM422 356l106 -200h-143l-114 200l114 200h143z" />
    <glyph glyph-name="guillemetright.case" horiz-adv-x="570" 
d="M185 556l114 -200l-114 -200h-142l106 200l-106 200h142zM414 556l114 -200l-114 -200h-143l106 200l-106 200h143z" />
    <glyph glyph-name="guilsinglleft.case" horiz-adv-x="342" 
d="M193 356l106 -200h-142l-114 200l114 200h142z" />
    <glyph glyph-name="guilsinglright.case" horiz-adv-x="342" 
d="M185 556l114 -200l-114 -200h-142l106 200l-106 200h142z" />
    <glyph glyph-name="quoteright.loclFRA" horiz-adv-x="292" 
d="M220 556l-77 -152h-83l59 152h-49v156h150v-156z" />
    <glyph glyph-name="periodcentered.loclCAT.smcp" horiz-adv-x="63" 
d="M17 277h-163v170h163v-170z" />
    <glyph glyph-name="nbspace" unicode="&#xa0;" horiz-adv-x="230" 
 />
    <glyph glyph-name="cent" unicode="&#xa2;" horiz-adv-x="628" 
d="M322 187c45 0 76 35 79 94h173c-9 -114 -81 -194 -192 -214v-95h-119v94c-128 22 -208 122 -208 266s80 242 208 264v95h119v-96c110 -21 183 -98 192 -204h-172c-5 54 -36 85 -81 85c-58 0 -92 -53 -92 -144c0 -92 35 -145 93 -145z" />
    <glyph glyph-name="currency" unicode="&#xa4;" horiz-adv-x="628" 
d="M532 291c0 -42 -10 -79 -27 -111l75 -80l-91 -85l-76 82c-29 -13 -62 -20 -99 -20s-70 7 -99 20l-76 -82l-92 85l76 81c-18 31 -27 68 -27 110s10 79 27 111l-76 80l92 85l76 -82c29 13 62 20 99 20s70 -7 99 -20l76 82l91 -85l-75 -80c17 -32 27 -69 27 -111zM314 187
c60 0 99 42 99 104s-39 104 -99 104s-100 -42 -100 -104s40 -104 100 -104z" />
    <glyph glyph-name="euro" unicode="&#x20ac;" horiz-adv-x="628" 
d="M446 214h169c-15 -144 -115 -230 -268 -230c-157 0 -257 93 -285 257h-61l14 73h40v23v15h-54l14 73h46c26 169 128 265 288 265c156 0 252 -87 262 -228h-166c-9 56 -43 90 -99 90c-63 0 -103 -43 -119 -127h210l-14 -73h-203v-15v-23h196l-14 -73h-173
c16 -79 56 -119 117 -119c55 0 91 35 100 92z" />
    <glyph glyph-name="florin" unicode="&#x192;" horiz-adv-x="628" 
d="M520 724c30 0 60 -4 83 -10v-120c-15 4 -35 6 -53 6c-53 0 -81 -23 -96 -84l-12 -48h111v-118h-139l-85 -334c-37 -148 -106 -208 -230 -208c-27 0 -53 3 -74 9v121c15 -4 32 -6 50 -6c51 0 77 19 96 98l82 320h-101v118h129l16 62c34 133 102 194 223 194z" />
    <glyph glyph-name="franc" unicode="&#x20a3;" horiz-adv-x="628" 
d="M272 529v-106h292v-144h-292v-78h164v-119h-164v-82h-173v82h-76v119h76v473h488v-145h-315z" />
    <glyph glyph-name="lira" unicode="&#x20a4;" horiz-adv-x="628" 
d="M223 135h367v-135h-567v137c52 0 82 23 88 94h-88v73h89v38h-89v73h89v27c0 163 89 248 249 248c144 0 235 -86 235 -222h-163c0 55 -27 86 -73 86c-53 0 -79 -36 -79 -111v-28h125v-73h-125v-38h125v-73h-126c-5 -46 -23 -74 -57 -94v-2z" />
    <glyph glyph-name="liraTurkish" unicode="&#x20ba;" horiz-adv-x="628" 
d="M429 325h181c0 -221 -129 -335 -350 -335c-51 0 -112 4 -162 10v236l-85 -47v95l85 47v59l-85 -47v95l85 47v189h174v-108l161 88v-95l-161 -88v-59l161 88v-95l-161 -87v-178c101 0 157 62 157 185z" />
    <glyph glyph-name="peseta" unicode="&#x20a7;" horiz-adv-x="937" 
d="M875 123c13 0 27 2 37 5v-125c-22 -6 -58 -11 -84 -11c-127 0 -183 49 -183 169v226h-43c-19 -114 -108 -186 -268 -186h-85v-201h-173v674h258c150 0 238 -63 264 -166h47v137h166v-137h96v-121h-96v-188c0 -54 18 -76 64 -76zM249 340h61c84 0 118 37 118 97
c0 61 -34 98 -118 98h-61v-195z" />
    <glyph glyph-name="ruble" unicode="&#x20bd;" horiz-adv-x="628" 
d="M86 674h267c168 0 250 -82 250 -209s-82 -210 -250 -210h-94v-51h175v-112h-175v-92h-173v92h-74v112h74v51h-74v122h74v297zM259 552v-175h69c69 0 97 34 97 88c0 53 -28 87 -97 87h-69z" />
    <glyph glyph-name="rupeeIndian" unicode="&#x20b9;" horiz-adv-x="628" 
d="M430 581v-2c25 -11 43 -30 53 -57h114l-25 -93h-85c-15 -68 -71 -113 -158 -129v-2c44 -17 77 -51 111 -121l87 -177h-199l-75 167c-32 69 -70 96 -127 96h-15v106h50c67 0 112 22 132 60h-262l26 93h241c-17 40 -61 59 -129 59h-138l26 93h540l-25 -93h-142z" />
    <glyph glyph-name="sterling" unicode="&#xa3;" horiz-adv-x="628" 
d="M223 135h367v-135h-567v137c58 0 89 29 89 121v15h-89v128h89v41c0 163 89 248 249 248c144 0 235 -86 235 -222h-163c0 55 -27 86 -73 86c-53 0 -79 -36 -79 -111v-42h125v-128h-125v-13c0 -64 -17 -99 -58 -123v-2z" />
    <glyph glyph-name="yen" unicode="&#xa5;" horiz-adv-x="628" 
d="M439 342h118v-73h-156v-38h156v-74h-156v-157h-174v157h-156v74h156v38h-156v73h118l-172 332h189l39 -87c25 -59 48 -119 68 -179h2c20 60 43 120 68 179l39 87h189z" />
    <glyph glyph-name="Ohm" unicode="&#x2126;" horiz-adv-x="747" 
d="M373 728c196 0 335 -101 335 -311c0 -118 -59 -199 -132 -269v-2h143v-146h-299v152c60 61 107 131 107 237c0 126 -64 189 -154 189c-89 0 -153 -63 -153 -189c0 -106 47 -176 107 -237v-152h-299v146h143v2c-74 70 -132 151 -132 269c0 210 139 311 334 311z" />
    <glyph glyph-name="approxequal" unicode="&#x2248;" horiz-adv-x="566" 
d="M197 520c74 0 120 -70 167 -70c30 0 47 23 47 57h98c0 -104 -55 -175 -140 -175c-74 0 -120 70 -167 70c-30 0 -47 -22 -47 -57h-98c0 104 54 175 140 175zM197 302c74 0 120 -70 167 -70c30 0 47 22 47 57h98c0 -104 -55 -175 -140 -175c-74 0 -120 70 -167 70
c-30 0 -47 -23 -47 -57h-98c0 104 54 175 140 175z" />
    <glyph glyph-name="bulletoperator" unicode="&#x2219;" horiz-adv-x="371" 
d="M274 214h-177v183h177v-183z" />
    <glyph glyph-name="divide" unicode="&#xf7;" horiz-adv-x="566" 
d="M353 441h-140v117h140v-117zM507 252h-448v129h448v-129zM353 75h-140v118h140v-118z" />
    <glyph glyph-name="divisionslash" unicode="&#x2215;" horiz-adv-x="503" 
d="M155 -89h-125l298 834h124z" />
    <glyph glyph-name="equalinferior" unicode="&#x208c;" horiz-adv-x="412" 
d="M370 76h-328v99h328v-99zM370 -76h-328v99h328v-99z" />
    <glyph glyph-name="equalsuperior" unicode="&#x207c;" horiz-adv-x="412" 
d="M370 578h-328v99h328v-99zM370 426h-328v99h328v-99z" />
    <glyph glyph-name="greaterequal" unicode="&#x2265;" horiz-adv-x="566" 
d="M507 429v-148l-448 -144v124l295 93v2l-295 94v124zM507 0h-448v117h448v-117z" />
    <glyph glyph-name="increment" unicode="&#x2206;" horiz-adv-x="714" 
d="M713 0h-712l245 712h224zM489 141l-61 200c-25 85 -50 174 -71 259h-2c-21 -85 -46 -174 -71 -259l-60 -200h265z" />
    <glyph glyph-name="infinity" unicode="&#x221e;" horiz-adv-x="706" 
d="M522 491c102 0 169 -72 169 -183s-67 -183 -169 -183c-79 0 -130 40 -169 88c-39 -48 -90 -88 -169 -88c-103 0 -169 72 -169 183s66 183 169 183c79 0 130 -40 169 -88c39 48 90 88 169 88zM199 247c35 0 60 26 86 61c-26 35 -51 61 -86 61c-37 0 -58 -24 -58 -61
c0 -36 21 -61 58 -61zM507 247c38 0 58 25 58 61c0 37 -20 61 -58 61c-35 0 -60 -26 -86 -61c26 -35 51 -61 86 -61z" />
    <glyph glyph-name="integral" unicode="&#x222b;" horiz-adv-x="372" 
d="M286 721c28 0 59 -4 79 -9v-114c-5 1 -15 2 -23 2c-49 0 -74 -20 -74 -75v-543c0 -118 -65 -176 -183 -176c-27 0 -58 4 -78 9v114c5 -1 15 -2 23 -2c49 0 74 20 74 75v543c0 118 65 176 182 176z" />
    <glyph glyph-name="lessequal" unicode="&#x2264;" horiz-adv-x="566" 
d="M507 450l-295 -94v-2l295 -93v-124l-448 144v148l448 145v-124zM507 117v-117h-448v117h448z" />
    <glyph glyph-name="logicalnot" unicode="&#xac;" horiz-adv-x="566" 
d="M507 126h-129v213h-319v129h448v-342z" />
    <glyph glyph-name="micro" unicode="&#xb5;" horiz-adv-x="626" 
d="M550 508v-330c0 -47 14 -61 43 -61c8 0 16 1 24 3v-115c-27 -9 -60 -14 -98 -14c-64 0 -104 26 -120 75h-2c-19 -45 -60 -72 -110 -72c-25 0 -46 6 -60 16v-195h-166v693h166v-291c0 -70 27 -101 73 -101c49 0 84 38 84 125v267h166z" />
    <glyph glyph-name="minus" unicode="&#x2212;" horiz-adv-x="566" 
d="M507 252h-448v129h448v-129z" />
    <glyph glyph-name="minusinferior" unicode="&#x208b;" horiz-adv-x="412" 
d="M370 -3h-328v105h328v-105z" />
    <glyph glyph-name="minussuperior" unicode="&#x207b;" horiz-adv-x="412" 
d="M370 499h-328v105h328v-105z" />
    <glyph glyph-name="multiply" unicode="&#xd7;" horiz-adv-x="566" 
d="M550 488l-176 -176l176 -175l-91 -92l-176 176l-175 -176l-91 92l175 175l-175 176l91 91l175 -175l176 175z" />
    <glyph glyph-name="notequal" unicode="&#x2260;" horiz-adv-x="566" 
d="M361 356l-43 -79h189v-124h-256l-62 -113h-113l61 113h-78v124h146l42 79h-188v124h256l61 113h114l-62 -113h79v-124h-146z" />
    <glyph glyph-name="partialdiff" unicode="&#x2202;" horiz-adv-x="632" 
d="M292 728c187 0 279 -125 279 -349c0 -278 -121 -395 -281 -395c-169 0 -257 99 -257 243s91 252 248 252c57 0 98 -19 124 -44h2c1 7 1 14 1 21c0 86 -46 144 -109 144c-45 0 -69 -25 -75 -69h-169c12 119 90 197 237 197zM304 366c-63 0 -99 -57 -99 -139
c0 -73 31 -115 90 -115c63 0 100 53 100 135c0 75 -33 119 -91 119z" />
    <glyph glyph-name="perthousand" unicode="&#x2030;" horiz-adv-x="1117" 
d="M232 -30h-102l402 734h102zM183 693c98 0 153 -64 153 -177c0 -114 -55 -177 -153 -177s-153 63 -153 177c0 113 55 177 153 177zM183 609c-30 0 -45 -33 -45 -93c0 -61 15 -93 45 -93s45 32 45 93c0 60 -15 93 -45 93zM583 335c98 0 153 -64 153 -177
c0 -114 -55 -177 -153 -177s-153 63 -153 177c0 113 55 177 153 177zM934 335c98 0 153 -64 153 -177c0 -114 -55 -177 -153 -177s-153 63 -153 177c0 113 55 177 153 177zM583 251c-29 0 -45 -33 -45 -93c0 -61 16 -93 45 -93c30 0 46 32 46 93c0 60 -16 93 -46 93z
M934 251c-30 0 -45 -33 -45 -93c0 -61 15 -93 45 -93s45 32 45 93c0 60 -15 93 -45 93z" />
    <glyph glyph-name="plusinferior" unicode="&#x208a;" horiz-adv-x="412" 
d="M260 102h110v-105h-110v-107h-108v107h-110v105h110v108h108v-108z" />
    <glyph glyph-name="plusminus" unicode="&#xb1;" horiz-adv-x="566" 
d="M347 433h160v-127h-160v-143h-128v143h-160v127h160v143h128v-143zM507 0h-448v127h448v-127z" />
    <glyph glyph-name="plussuperior" unicode="&#x207a;" horiz-adv-x="412" 
d="M260 604h110v-105h-110v-107h-108v107h-110v105h110v108h108v-108z" />
    <glyph glyph-name="product" unicode="&#x220f;" horiz-adv-x="702" 
d="M627 -120h-173v685h-205v-685h-173v832h551v-832z" />
    <glyph glyph-name="radical" unicode="&#x221a;" horiz-adv-x="674" 
d="M416 -120h-220l-88 373h-83v133h195l89 -372h2l199 698h144z" />
    <glyph glyph-name="summation" unicode="&#x2211;" horiz-adv-x="527" 
d="M492 564h-269l161 -268l-161 -267h269v-149h-457v149l165 267l-165 268v148h457v-148z" />
    <glyph glyph-name="lozenge" unicode="&#x25ca;" horiz-adv-x="668" 
d="M628 356l-184 -356h-221l-183 356l183 356h221zM210 356l124 -238l123 238l-123 238z" />
    <glyph glyph-name="apple" unicode="&#xf8ff;" horiz-adv-x="600" 
d="M151 777h346c84 0 137 -53 137 -137v-568c0 -84 -53 -137 -137 -137h-346c-84 0 -137 53 -137 137v568c0 84 53 137 137 137zM497 708h-346c-42 0 -68 -26 -68 -68v-568c0 -42 26 -68 68 -68h346c42 0 68 26 68 68v568c0 42 -26 68 -68 68zM325 647
c115 0 184 -57 184 -152c0 -54 -15 -85 -70 -136c-52 -49 -65 -73 -65 -134h-111c-1 13 -1 27 -1 38c0 65 10 91 63 145c40 40 47 56 47 85s-17 48 -47 48c-37 0 -57 -24 -57 -78h-135c1 120 72 184 192 184zM387 65h-136v119h136v-119z" />
    <glyph glyph-name="brokenbar" unicode="&#xa6;" horiz-adv-x="297" 
d="M219 382h-142v350h142v-350zM219 -205h-142v350h142v-350z" />
    <glyph glyph-name="paragraph" unicode="&#xb6;" horiz-adv-x="684" 
d="M656 602h-80v-722h-119v722h-76v-722h-118v403h-18c-125 0 -205 83 -205 214s80 215 205 215h411v-110z" />
    <glyph glyph-name="copyright" unicode="&#xa9;" horiz-adv-x="798" 
d="M399 727c217 0 361 -148 361 -371s-144 -371 -361 -371s-361 148 -361 371s144 371 361 371zM399 664c-180 0 -299 -123 -299 -308s119 -308 299 -308s300 123 300 308s-120 308 -300 308zM401 582c115 0 188 -65 193 -169h-114c-3 47 -31 77 -79 77
c-55 0 -89 -51 -89 -135c0 -82 34 -133 88 -133c47 0 77 31 82 80h115c-9 -110 -85 -172 -197 -172c-125 0 -202 86 -202 225c0 141 77 227 203 227z" />
    <glyph glyph-name="registered" unicode="&#xae;" horiz-adv-x="592" 
d="M296 728c151 0 251 -103 251 -258s-100 -258 -251 -258s-251 103 -251 258s100 258 251 258zM296 690c-128 0 -213 -88 -213 -220s85 -220 213 -220s213 88 213 220s-85 220 -213 220zM171 631h138c73 0 109 -34 109 -89c0 -38 -22 -67 -59 -77v-2c22 -6 34 -21 48 -59
l32 -86h-81l-26 73c-10 31 -25 42 -55 42h-29v-115h-77v313zM248 572v-82h40c38 0 55 17 55 43c0 24 -18 39 -53 39h-42z" />
    <glyph glyph-name="published" unicode="&#x2117;" horiz-adv-x="798" 
d="M399 727c217 0 361 -148 361 -371s-144 -371 -361 -371s-361 148 -361 371s144 371 361 371zM399 664c-180 0 -299 -123 -299 -308s119 -308 299 -308s300 123 300 308s-120 308 -300 308zM250 571h183c117 0 172 -58 172 -149s-55 -150 -172 -150h-73v-139h-110v438z
M360 481v-118h58c52 0 74 22 74 59s-24 59 -75 59h-57z" />
    <glyph glyph-name="section" unicode="&#xa7;" horiz-adv-x="656" 
d="M326 728c144 0 222 -64 230 -188h-161c-3 40 -25 65 -69 65c-34 0 -57 -18 -57 -46c0 -36 18 -44 114 -80c110 -40 209 -79 209 -210c0 -59 -25 -108 -83 -145v-2c33 -25 49 -62 49 -109c0 -108 -91 -177 -229 -177c-145 0 -234 62 -239 190h164c3 -43 27 -66 72 -66
c39 0 64 18 64 48c0 38 -23 50 -135 96c-106 45 -191 84 -191 202c0 62 31 111 84 142v2c-27 21 -46 55 -46 102c0 109 92 176 224 176zM244 388c-21 -14 -31 -35 -31 -60c0 -40 19 -63 105 -99c32 -13 66 -28 97 -42c19 12 31 34 31 61c0 38 -18 64 -101 97
c-31 13 -69 29 -101 43z" />
    <glyph glyph-name="trademark" unicode="&#x2122;" horiz-adv-x="857" 
d="M323 618h-103v-262h-112v262h-103v94h318v-94zM819 356h-99v161c0 43 0 85 2 128h-2c-9 -42 -18 -84 -28 -126l-38 -163h-131l-38 163c-9 42 -19 84 -27 126h-2c1 -43 2 -85 2 -128v-161h-99v356h169l34 -143c10 -42 19 -88 26 -131h2c6 43 15 89 25 131l34 143h170v-356
z" />
    <glyph glyph-name="degree" unicode="&#xb0;" horiz-adv-x="348" 
d="M174 722c78 0 141 -63 141 -141c0 -79 -63 -141 -141 -141s-142 62 -142 141c0 78 64 141 142 141zM174 644c-35 0 -63 -28 -63 -63s28 -63 63 -63s63 28 63 63s-28 63 -63 63z" />
    <glyph glyph-name="estimated" unicode="&#x212e;" horiz-adv-x="863" 
d="M432 690c243 0 383 -168 383 -362h-612c-8 0 -14 -6 -14 -13v-167c0 -20 3 -32 16 -44c58 -57 133 -91 227 -91c98 0 187 46 239 110h69c-45 -63 -145 -135 -308 -135c-233 0 -385 147 -385 349c0 199 145 353 385 353zM432 664c-94 0 -169 -36 -227 -94
c-13 -11 -16 -22 -16 -41v-167c0 -7 6 -12 14 -12h456c8 0 13 5 13 12v167c0 19 -3 30 -15 41c-69 68 -148 94 -225 94z" />
    <glyph glyph-name="literSign" unicode="&#x2113;" horiz-adv-x="452" 
d="M237 206v-26c0 -52 19 -74 64 -74c14 0 33 3 46 7v-112c-26 -7 -61 -11 -88 -11c-126 0 -184 58 -184 186v10c-17 1 -33 3 -47 6v84c15 -3 30 -5 47 -6v188c0 179 56 232 169 232c92 0 166 -52 166 -198c0 -159 -68 -248 -173 -286zM274 591c-26 0 -37 -19 -37 -93v-193
c50 34 81 94 81 189c0 74 -20 97 -44 97z" />
    <glyph glyph-name="dagger" unicode="&#x2020;" horiz-adv-x="606" 
d="M386 547h163v-139h-163v-528h-166v528h-163v138h163v166h166v-165z" />
    <glyph glyph-name="daggerdbl" unicode="&#x2021;" horiz-adv-x="606" 
d="M386 547h163v-136h-163v-230h163v-136h-163v-165h-166v165h-163v136h163v230h-163v136h163v165h166v-165z" />
    <glyph glyph-name="interrobang" unicode="&#x203d;" horiz-adv-x="570" 
d="M377 712l-4 -63c103 -23 162 -89 162 -186c0 -76 -23 -118 -106 -171c-63 -40 -82 -56 -82 -94h-140c-1 9 -2 18 -2 25c0 66 16 91 90 145c56 41 66 59 66 95c0 39 -27 65 -74 65c-56 0 -86 -27 -88 -90h-171c2 114 60 184 163 209l-3 65h189zM188 147h176v-147h-176v147
z" />
    <glyph glyph-name="ampersand.smcp" horiz-adv-x="636" 
d="M462 0l-39 37c-44 -31 -101 -49 -167 -49c-145 0 -220 64 -221 162c1 67 36 118 111 154c-44 44 -59 74 -59 118c0 85 72 142 178 142c109 0 179 -54 179 -134c0 -59 -33 -103 -103 -142l78 -74c11 18 16 44 16 80h141c-1 -69 -20 -124 -59 -173l127 -121h-182zM267 465
c-30 0 -46 -17 -47 -44c0 -22 9 -39 40 -67c39 26 50 46 49 69c1 25 -16 42 -42 42zM265 93c27 0 52 7 75 23l-114 107c-30 -19 -42 -39 -42 -67c1 -38 30 -63 81 -63z" />
    <glyph glyph-name="acute" unicode="&#xb4;" horiz-adv-x="369" 
d="M178 564h-128l78 148h191z" />
    <glyph glyph-name="breve" unicode="&#x2d8;" horiz-adv-x="456" 
d="M300 712h106c-5 -98 -70 -154 -178 -154s-173 56 -178 154h106c2 -37 28 -58 72 -58s69 21 72 58z" />
    <glyph glyph-name="caron" unicode="&#x2c7;" horiz-adv-x="492" 
d="M324 564h-156l-118 148h138l58 -76l58 76h138z" />
    <glyph glyph-name="cedilla" unicode="&#xb8;" horiz-adv-x="348" 
d="M215 0l-37 -60c9 3 22 5 33 5c51 0 87 -29 87 -78c0 -55 -43 -99 -128 -99c-41 0 -84 11 -120 32l26 53c30 -15 58 -22 81 -22c28 0 44 11 44 31c0 19 -16 33 -44 33c-11 0 -22 -2 -31 -6l-29 27l51 84h67z" />
    <glyph glyph-name="circumflex" unicode="&#x2c6;" horiz-adv-x="492" 
d="M304 564l-58 76l-58 -76h-138l118 148h156l118 -148h-138z" />
    <glyph glyph-name="dieresis" unicode="&#xa8;" horiz-adv-x="469" 
d="M193 581h-143v131h143v-131zM419 581h-142v131h142v-131z" />
    <glyph glyph-name="dotaccent" unicode="&#x2d9;" horiz-adv-x="266" 
d="M216 581h-166v131h166v-131z" />
    <glyph glyph-name="hungarumlaut" unicode="&#x2dd;" horiz-adv-x="569" 
d="M173 564h-123l98 148h166zM379 564h-124l99 148h166z" />
    <glyph glyph-name="macron" unicode="&#xaf;" horiz-adv-x="459" 
d="M409 589h-359v103h359v-103z" />
    <glyph glyph-name="ogonek" unicode="&#x2db;" horiz-adv-x="316" 
d="M134 0h129c-50 -33 -65 -55 -65 -79c0 -20 11 -30 33 -30c12 0 25 3 35 7v-82c-25 -9 -58 -15 -93 -15c-83 0 -123 35 -123 91c0 45 30 76 84 108z" />
    <glyph glyph-name="ring" unicode="&#x2da;" horiz-adv-x="328" 
d="M164 780c63 0 114 -51 114 -114c0 -62 -51 -113 -114 -113s-114 51 -114 113c0 63 51 114 114 114zM164 722c-31 0 -56 -25 -56 -56s25 -56 56 -56s56 25 56 56s-25 56 -56 56z" />
    <glyph glyph-name="tilde" unicode="&#x2dc;" horiz-adv-x="490" 
d="M351 712h89c-5 -88 -48 -143 -125 -143c-63 0 -94 43 -134 43c-26 0 -39 -15 -42 -43h-89c4 88 47 143 124 143c64 0 95 -43 134 -43c27 0 39 14 43 43z" />
    <glyph glyph-name="acute.case" horiz-adv-x="369" 
d="M178 760h-128l78 151h191z" />
    <glyph glyph-name="breve.case" horiz-adv-x="456" 
d="M300 911h106c-5 -98 -70 -154 -178 -154s-173 56 -178 154h106c2 -37 28 -58 72 -58s69 21 72 58z" />
    <glyph glyph-name="caron.alt" horiz-adv-x="254" 
d="M144 534h-94l24 178h130z" />
    <glyph glyph-name="caron.case" horiz-adv-x="492" 
d="M324 760h-156l-120 151h138l60 -79l60 79h138z" />
    <glyph glyph-name="caron.alt.case" horiz-adv-x="254" 
d="M144 483h-94l24 229h130z" />
    <glyph glyph-name="circumflex.case" horiz-adv-x="492" 
d="M168 911h156l120 -151h-138l-60 79l-60 -79h-138z" />
    <glyph glyph-name="dieresis.case" horiz-adv-x="469" 
d="M193 769h-143v131h143v-131zM419 769h-142v131h142v-131z" />
    <glyph glyph-name="dotaccent.case" horiz-adv-x="266" 
d="M216 769h-166v131h166v-131z" />
    <glyph glyph-name="grave.case" horiz-adv-x="369" 
d="M241 911l78 -151h-128l-141 151h191z" />
    <glyph glyph-name="hungarumlaut.case" horiz-adv-x="590" 
d="M173 760h-123l98 151h166zM379 760h-124l99 151h166z" />
    <glyph glyph-name="macron.case" horiz-adv-x="459" 
d="M409 776h-359v103h359v-103z" />
    <glyph glyph-name="breve.narrow" horiz-adv-x="424" 
d="M274 712h100c-4 -97 -62 -154 -162 -154s-158 56 -162 154h100c3 -39 24 -60 62 -60s59 21 62 60z" />
    <glyph glyph-name="circumflex.narrow" horiz-adv-x="462" 
d="M412 566h-130l-51 71l-50 -71h-131l108 146h146z" />
    <glyph glyph-name="dieresis.narrow" horiz-adv-x="413" 
d="M183 581h-133v131h133v-131zM363 581h-132v131h132v-131z" />
    <glyph glyph-name="macron.narrow" horiz-adv-x="400" 
d="M350 592h-300v103h300v-103z" />
    <glyph glyph-name="tilde.narrow" horiz-adv-x="445" 
d="M317 712h78c-5 -88 -43 -144 -115 -144c-57 0 -80 45 -117 45c-22 0 -34 -15 -36 -45h-77c4 88 42 144 113 144c57 0 81 -45 117 -45c23 0 34 15 37 45z" />
    <glyph glyph-name="ring.case" horiz-adv-x="328" 
d="M164 979c63 0 114 -51 114 -114c0 -62 -51 -113 -114 -113s-114 51 -114 113c0 63 51 114 114 114zM164 921c-31 0 -56 -25 -56 -56s25 -56 56 -56s56 25 56 56s-25 56 -56 56z" />
    <glyph glyph-name="cedilla.ss01" horiz-adv-x="374" 
d="M226 -217h-176l141 168h133z" />
    <glyph glyph-name="tilde.case" horiz-adv-x="490" 
d="M351 911h89c-5 -88 -48 -143 -125 -143c-63 0 -94 43 -134 43c-26 0 -39 -15 -42 -43h-89c4 88 47 143 124 143c64 0 95 -43 134 -43c27 0 39 14 43 43z" />
    <glyph glyph-name="commaaccent" unicode="&#x326;" horiz-adv-x="0" 
d="M184 -166l-71 -109h-63l46 109h-46v112h134v-112z" />
    <glyph glyph-name="commaturnedabovecomb" unicode="&#x312;" horiz-adv-x="0" 
d="M138 684h46v-112h-134v112l71 109h63z" />
    <glyph glyph-name="apostrophemod" unicode="&#x2bc;" horiz-adv-x="266" 
d="M207 556l-77 -152h-83l59 152h-49v156h150v-156z" />
    <glyph glyph-name="firsttonechinese" unicode="&#x2c9;" horiz-adv-x="459" 
d="M409 589h-359v103h359v-103z" />
    <glyph glyph-name="uniFEFF" unicode="&#xfeff;" horiz-adv-x="0" 
 />
    <glyph glyph-name="uni20BC" unicode="&#x20bc;" horiz-adv-x="759" 
d="M36 0v301c0 205 89 306 266 320v91h155v-91c177 -14 266 -115 266 -320v-301h-155v293c0 123 -30 175 -111 183v-476h-155v476c-80 -8 -112 -60 -112 -183v-293h-154z" />
    <glyph glyph-name="bracketleftinferior" horiz-adv-x="273" 
d="M259 258h-86v-444h85v-89h-212v624h213v-91z" />
    <glyph glyph-name="bracketrightinferior" horiz-adv-x="273" 
d="M227 349v-624h-212v89h85v444h-86v91h213z" />
    </font>
</defs>
</svg>
