<?xml version="1.0" standalone="no"?>
<!DOCTYPE svg PUBLIC "-//W3C//DTD SVG 1.1//EN" "http://www.w3.org/Graphics/SVG/1.1/DTD/svg11.dtd" >
<svg xmlns="http://www.w3.org/2000/svg" xmlns:xlink="http://www.w3.org/1999/xlink" version="1.1">
<metadata>
Created by FontForge 20170910 at Thu Feb  5 11:03:25 2015
 By Jimmy Wärting
Copyright (c) 2015 Monotype Imaging Inc.  All rights reserved.
</metadata>
<defs>
<font id="NeueHaasUnicaPro-XBlack" horiz-adv-x="624" >
  <font-face 
    font-family="Neue Haas Unica Pro"
    font-weight="1000"
    font-variant="small-caps"
    font-stretch="normal"
    units-per-em="1000"
    panose-1="2 11 11 4 3 2 6 2 2 3"
    ascent="764"
    descent="-236"
    x-height="508"
    cap-height="712"
    bbox="-181 -340 1139 1006"
    underline-thickness="50"
    underline-position="-100"
    stemh="158"
    stemv="224"
    unicode-range="U+0020-FEFF"
  />
<missing-glyph horiz-adv-x="660" 
d="M150 777h360c86 0 140 -54 140 -140v-562c0 -86 -54 -140 -140 -140h-360c-86 0 -140 54 -140 140v562c0 86 54 140 140 140zM510 697h-360c-37 0 -60 -23 -60 -60v-562c0 -37 23 -60 60 -60h360c37 0 60 23 60 60v562c0 37 -23 60 -60 60zM328 647
c122 0 194 -58 194 -155c0 -54 -17 -86 -67 -133c-52 -49 -66 -74 -66 -121h-127c-2 16 -3 35 -3 51c0 49 8 72 56 121c38 39 47 54 47 81c0 24 -14 39 -34 39c-26 0 -44 -22 -43 -72h-155c0 122 74 189 198 189zM402 65h-152v133h152v-133z" />
    <glyph glyph-name="f_f" unicode="ff" horiz-adv-x="765" 
d="M736 569c-47 0 -71 -17 -72 -61h90v-154h-90v-354h-218v354h-147v-354h-218v354h-75v154h75v20c0 131 77 195 215 195c34 0 73 -5 99 -11v-145c-4 1 -16 2 -24 2c-47 0 -71 -17 -72 -61h147v20c0 131 77 195 215 195c34 0 73 -5 99 -11v-145c-4 1 -16 2 -24 2z" />
    <glyph glyph-name="f_f_i" unicode="ffi" horiz-adv-x="1077" 
d="M446 508v20c0 131 77 195 215 195c34 0 73 -5 99 -11v-145c-4 1 -16 2 -24 2c-47 0 -71 -17 -72 -61h90v-154h-90v-354h-218v354h-147v-354h-218v354h-75v154h75v20c0 131 77 195 215 195c34 0 73 -5 99 -11v-145c-4 1 -16 2 -24 2c-47 0 -71 -17 -72 -61h147zM1030 712
v-152h-218v152h218zM812 508h218v-508h-218v508z" />
    <glyph glyph-name="f_f_l" unicode="ffl" horiz-adv-x="1077" 
d="M446 508v20c0 131 77 195 215 195c34 0 73 -5 99 -11v-145c-4 1 -16 2 -24 2c-47 0 -71 -17 -72 -61h90v-154h-90v-354h-218v354h-147v-354h-218v354h-75v154h75v20c0 131 77 195 215 195c34 0 73 -5 99 -11v-145c-4 1 -16 2 -24 2c-47 0 -71 -17 -72 -61h147zM1030 712
v-712h-218v712h218z" />
    <glyph glyph-name="f_i" unicode="fi" horiz-adv-x="712" 
d="M81 508v20c0 131 77 195 215 195c34 0 73 -5 99 -11v-145c-4 1 -16 2 -24 2c-47 0 -71 -17 -72 -61h90v-154h-90v-354h-218v354h-75v154h75zM665 712v-152h-218v152h218zM447 508h218v-508h-218v508z" />
    <glyph glyph-name="f_l" unicode="fl" horiz-adv-x="712" 
d="M81 508v20c0 131 77 195 215 195c34 0 73 -5 99 -11v-145c-4 1 -16 2 -24 2c-47 0 -71 -17 -72 -61h90v-154h-90v-354h-218v354h-75v154h75zM665 712v-712h-218v712h218z" />
    <glyph glyph-name=".notdef" horiz-adv-x="660" 
d="M150 777h360c86 0 140 -54 140 -140v-562c0 -86 -54 -140 -140 -140h-360c-86 0 -140 54 -140 140v562c0 86 54 140 140 140zM510 697h-360c-37 0 -60 -23 -60 -60v-562c0 -37 23 -60 60 -60h360c37 0 60 23 60 60v562c0 37 -23 60 -60 60zM328 647
c122 0 194 -58 194 -155c0 -54 -17 -86 -67 -133c-52 -49 -66 -74 -66 -121h-127c-2 16 -3 35 -3 51c0 49 8 72 56 121c38 39 47 54 47 81c0 24 -14 39 -34 39c-26 0 -44 -22 -43 -72h-155c0 122 74 189 198 189zM402 65h-152v133h152v-133z" />
    <glyph glyph-name="NULL" horiz-adv-x="600" 
 />
    <glyph glyph-name="space" unicode=" " horiz-adv-x="230" 
 />
    <glyph glyph-name="exclam" unicode="!" horiz-adv-x="389" 
d="M288 235h-186l-30 477h245zM306 0h-222v176h222v-176z" />
    <glyph glyph-name="quotedbl" unicode="&#x22;" horiz-adv-x="518" 
d="M219 418h-158l-25 294h209zM456 418h-158l-25 294h209z" />
    <glyph glyph-name="numbersign" unicode="#" horiz-adv-x="742" 
d="M590 387l-15 -99h93l-24 -144h-92l-23 -144h-164l23 144h-96l-23 -144h-164l23 144h-94l23 144h94l15 99h-93l23 144h93l23 143h164l-23 -143h96l23 143h164l-23 -143h94l-24 -144h-93zM427 387h-96l-16 -99h96z" />
    <glyph glyph-name="dollar" unicode="$" horiz-adv-x="684" 
d="M642 206c0 -124 -85 -201 -234 -218v-87h-141v88c-145 20 -227 101 -227 227h235c0 -44 23 -64 75 -64c44 0 65 16 65 41c0 33 -31 41 -112 63c-129 35 -248 74 -248 216c0 113 73 191 212 212v80h141v-77c138 -15 223 -88 223 -217h-227c0 40 -24 60 -67 60
c-41 0 -62 -16 -62 -42c0 -31 28 -39 110 -59c134 -32 257 -73 257 -223z" />
    <glyph glyph-name="percent" unicode="%" horiz-adv-x="980" 
d="M379 -30h-136l358 734h136zM235 698c121 0 190 -78 190 -216s-69 -216 -190 -216s-190 78 -190 216s69 216 190 216zM235 589c-29 0 -43 -36 -43 -107c0 -72 14 -107 43 -107s43 35 43 107c0 71 -14 107 -43 107zM745 408c121 0 190 -78 190 -216s-69 -216 -190 -216
s-190 78 -190 216s69 216 190 216zM745 299c-29 0 -43 -36 -43 -107c0 -72 14 -107 43 -107s43 35 43 107c0 71 -14 107 -43 107z" />
    <glyph glyph-name="ampersand" unicode="&#x26;" horiz-adv-x="809" 
d="M573 0l-46 44c-56 -38 -123 -60 -205 -60c-187 0 -288 85 -288 213c0 83 44 146 135 197c-56 56 -73 96 -73 150c0 110 96 184 231 184c143 0 237 -70 237 -172c0 -77 -47 -138 -129 -181l82 -78c7 17 10 42 10 74h203c0 -83 -22 -148 -70 -210l169 -161h-256zM327 593
c-26 0 -44 -19 -44 -46c0 -26 9 -47 37 -78c37 30 51 54 51 80c0 25 -19 44 -44 44zM336 129c30 0 55 9 74 28l-123 119c-25 -20 -36 -43 -36 -75c0 -43 34 -72 85 -72z" />
    <glyph glyph-name="quotesingle" unicode="'" horiz-adv-x="281" 
d="M219 418h-158l-25 294h209z" />
    <glyph glyph-name="parenleft" unicode="(" horiz-adv-x="391" 
d="M189 741h172c-72 -165 -99 -300 -99 -444s27 -277 99 -444h-172c-109 151 -150 289 -150 444s41 294 150 444z" />
    <glyph glyph-name="parenright" unicode=")" horiz-adv-x="391" 
d="M30 741h172c109 -150 150 -289 150 -444s-41 -293 -150 -444h-172c72 167 99 300 99 444s-27 279 -99 444z" />
    <glyph glyph-name="asterisk" unicode="*" horiz-adv-x="492" 
d="M293 563l131 79l50 -155l-152 -12l116 -101l-133 -96l-59 141l-58 -141l-133 96l116 101l-153 12l51 155l130 -79l-35 149h165z" />
    <glyph glyph-name="plus" unicode="+" horiz-adv-x="566" 
d="M371 402h145v-169h-145v-149h-176v149h-145v169h145v149h176v-149z" />
    <glyph glyph-name="comma" unicode="," horiz-adv-x="307" 
d="M265 0l-124 -191h-127l98 191h-70v217h223v-217z" />
    <glyph glyph-name="hyphen" unicode="-" horiz-adv-x="370" 
d="M340 219h-310v146h310v-146z" />
    <glyph glyph-name="period" unicode="." horiz-adv-x="306" 
d="M264 0h-222v217h222v-217z" />
    <glyph glyph-name="slash" unicode="/" horiz-adv-x="534" 
d="M186 -89h-156l297 834h156z" />
    <glyph glyph-name="zero" unicode="0" horiz-adv-x="668" 
d="M334 690c197 0 308 -128 308 -353s-111 -353 -308 -353s-308 128 -308 353s111 353 308 353zM334 531c-56 0 -84 -71 -84 -194s28 -194 84 -194s84 71 84 194s-28 194 -84 194z" />
    <glyph glyph-name="one" unicode="1" horiz-adv-x="668" 
d="M482 0h-226v391h-164v162c121 0 176 36 189 121h201v-674z" />
    <glyph glyph-name="two" unicode="2" horiz-adv-x="668" 
d="M331 690c177 0 282 -95 282 -215c0 -114 -76 -170 -185 -211c-113 -43 -130 -62 -135 -89h339v-175h-597c-1 12 -2 29 -2 48c0 149 49 238 194 308c91 44 159 74 159 125c0 30 -20 49 -53 49c-39 0 -68 -28 -68 -86h-223c-1 157 105 246 289 246z" />
    <glyph glyph-name="three" unicode="3" horiz-adv-x="668" 
d="M327 690c177 0 285 -75 285 -192c0 -72 -33 -116 -115 -146v-2c87 -28 124 -75 124 -154c0 -130 -114 -212 -291 -212c-200 0 -309 87 -309 248h228c0 -59 29 -88 80 -88c42 0 68 21 68 56c0 42 -29 63 -93 63h-16v154h24c50 0 80 23 80 58c0 34 -22 55 -64 55
c-52 0 -78 -33 -78 -83h-218c0 152 110 243 295 243z" />
    <glyph glyph-name="four" unicode="4" horiz-adv-x="668" 
d="M655 119h-122v-119h-216v119h-309v168l244 387h281v-394h122v-161zM190 280h137v61c0 60 2 121 7 181h-2c-24 -50 -52 -100 -83 -149z" />
    <glyph glyph-name="five" unicode="5" horiz-adv-x="668" 
d="M582 498h-311l-8 -90h2c40 31 85 47 138 47c133 0 226 -91 226 -220c0 -153 -118 -251 -298 -251c-176 0 -291 80 -291 220h226c0 -39 26 -65 69 -65c46 0 73 29 73 84c0 54 -29 82 -71 82c-40 0 -61 -25 -69 -56l-216 14l37 411h493v-176z" />
    <glyph glyph-name="six" unicode="6" horiz-adv-x="668" 
d="M350 690c157 0 262 -78 273 -216h-223c-4 42 -25 64 -60 64c-46 0 -78 -45 -82 -152h2c38 37 86 55 150 55c128 0 221 -89 221 -215c0 -142 -117 -242 -285 -242c-191 0 -306 118 -306 343c0 224 119 363 310 363zM346 295c-38 0 -65 -31 -65 -76s28 -77 67 -77
c38 0 65 33 65 75c0 46 -27 78 -67 78z" />
    <glyph glyph-name="seven" unicode="7" horiz-adv-x="668" 
d="M612 674v-168c-102 -138 -173 -325 -209 -506h-239c41 184 127 370 227 492h-347v182h568z" />
    <glyph glyph-name="eight" unicode="8" horiz-adv-x="668" 
d="M334 690c169 0 277 -77 277 -192c0 -72 -46 -130 -125 -147v-2c84 -16 142 -80 142 -163c0 -128 -107 -202 -294 -202s-294 74 -294 202c0 83 58 147 142 163v2c-79 17 -125 75 -125 147c0 115 108 192 277 192zM334 538c-43 0 -70 -25 -70 -63c0 -34 27 -59 70 -59
s70 25 70 59c0 38 -27 63 -70 63zM334 267c-45 0 -72 -24 -72 -64c0 -39 28 -65 72 -65s72 26 72 65c0 40 -27 64 -72 64z" />
    <glyph glyph-name="nine" unicode="9" horiz-adv-x="668" 
d="M328 -15c-157 0 -262 78 -273 216h223c4 -42 25 -64 60 -64c46 0 78 45 82 152h-2c-38 -37 -86 -55 -150 -55c-128 0 -221 89 -221 215c0 142 117 242 285 242c191 0 306 -118 306 -343c0 -224 -119 -363 -310 -363zM332 380c38 0 65 31 65 76s-28 77 -67 77
c-38 0 -65 -33 -65 -75c0 -46 27 -78 67 -78z" />
    <glyph glyph-name="colon" unicode=":" horiz-adv-x="306" 
d="M264 291h-222v217h222v-217zM264 0h-222v217h222v-217z" />
    <glyph glyph-name="semicolon" unicode=";" horiz-adv-x="307" 
d="M264 291h-222v217h222v-217zM265 0l-124 -191h-127l98 191h-70v217h223v-217z" />
    <glyph glyph-name="less" unicode="&#x3c;" horiz-adv-x="566" 
d="M516 412l-265 -94v-2l265 -94v-176l-466 166v210l466 166v-176z" />
    <glyph glyph-name="equal" unicode="=" horiz-adv-x="566" 
d="M516 354h-466v155h466v-155zM516 124h-466v155h466v-155z" />
    <glyph glyph-name="greater" unicode="&#x3e;" horiz-adv-x="566" 
d="M516 422v-210l-466 -166v176l265 94v2l-265 94v176z" />
    <glyph glyph-name="question" unicode="?" horiz-adv-x="615" 
d="M307 728c174 0 277 -73 277 -196c0 -67 -23 -107 -96 -165c-73 -60 -93 -91 -93 -144h-183c-3 21 -4 46 -4 66c0 60 13 87 83 149c52 46 63 62 63 93c0 30 -20 48 -47 48c-39 0 -62 -27 -60 -93h-224c0 158 105 242 284 242zM415 0h-222v176h222v-176z" />
    <glyph glyph-name="at" unicode="@" horiz-adv-x="865" 
d="M446 716c241 0 399 -153 399 -386c0 -182 -104 -267 -220 -267c-73 0 -121 27 -137 76h-2c-27 -49 -67 -76 -124 -76c-96 0 -154 69 -156 200c2 152 84 255 199 255c49 0 79 -22 96 -56h2l9 46h148c-23 -107 -41 -229 -41 -281c0 -33 12 -45 34 -45c44 0 85 46 85 148
c0 168 -115 279 -292 279c-208 0 -320 -144 -320 -330c0 -189 119 -301 305 -301c86 0 159 18 215 50l48 -95c-69 -39 -158 -62 -263 -62c-251 0 -412 153 -412 408c0 238 160 437 427 437zM434 381c-36 0 -67 -34 -67 -111c0 -45 16 -71 44 -71c36 0 66 44 66 115
c0 43 -16 67 -43 67z" />
    <glyph glyph-name="A" unicode="A" horiz-adv-x="748" 
d="M485 105h-222l-28 -105h-239l235 712h286l235 -712h-239zM440 278l-13 50c-19 71 -37 149 -52 221h-2c-15 -72 -33 -150 -52 -221l-13 -50h132z" />
    <glyph glyph-name="B" unicode="B" horiz-adv-x="691" 
d="M63 712h324c177 0 259 -74 259 -184c0 -83 -35 -131 -115 -157v-2c85 -20 134 -80 134 -166c0 -124 -101 -203 -273 -203h-329v712zM279 551v-116h63c58 0 84 19 84 58s-25 58 -79 58h-68zM279 284v-122h66c61 0 85 17 85 60s-26 62 -88 62h-63z" />
    <glyph glyph-name="C" unicode="C" horiz-adv-x="744" 
d="M375 728c200 0 332 -103 340 -290h-241c-7 64 -40 100 -99 100c-66 0 -109 -68 -109 -182c0 -112 44 -182 110 -182c56 0 94 40 100 107h243c-15 -194 -148 -297 -343 -297c-217 0 -348 141 -348 372c0 232 132 372 347 372z" />
    <glyph glyph-name="D" unicode="D" horiz-adv-x="759" 
d="M63 712h284c246 0 384 -128 384 -356s-138 -356 -384 -356h-284v712zM289 523v-334h50c98 0 155 62 155 167s-57 167 -155 167h-50z" />
    <glyph glyph-name="E" unicode="E" horiz-adv-x="636" 
d="M589 528h-300v-81h279v-179h-279v-84h305v-184h-531v712h526v-184z" />
    <glyph glyph-name="F" unicode="F" horiz-adv-x="604" 
d="M584 520h-295v-104h277v-190h-277v-226h-226v712h521v-192z" />
    <glyph glyph-name="G" unicode="G" horiz-adv-x="765" 
d="M388 728c187 0 317 -101 325 -253h-240c-6 47 -36 77 -86 77c-74 0 -121 -76 -121 -199c0 -125 47 -203 124 -203c64 0 106 45 110 107h-121v160h332v-417h-195v63h-2c-43 -53 -104 -78 -180 -78c-190 0 -306 140 -306 368c0 233 136 375 360 375z" />
    <glyph glyph-name="H" unicode="H" horiz-adv-x="782" 
d="M719 0h-226v270h-204v-270h-226v712h226v-253h204v253h226v-712z" />
    <glyph glyph-name="I" unicode="I" horiz-adv-x="352" 
d="M289 0h-226v712h226v-712z" />
    <glyph glyph-name="J" unicode="J" horiz-adv-x="446" 
d="M388 712v-444c0 -193 -87 -279 -269 -279c-37 0 -74 5 -104 12v182c11 -2 30 -4 42 -4c80 0 105 35 105 143v390h226z" />
    <glyph glyph-name="K" unicode="K" horiz-adv-x="743" 
d="M494 377l246 -377h-281l-168 311h-2v-311h-226v712h226v-294h2l162 294h276z" />
    <glyph glyph-name="L" unicode="L" horiz-adv-x="591" 
d="M289 189h295v-189h-521v712h226v-523z" />
    <glyph glyph-name="M" unicode="M" horiz-adv-x="1071" 
d="M1008 0h-208v335c0 86 2 172 6 257h-2c-15 -84 -33 -171 -52 -255l-77 -337h-279l-77 337c-19 84 -37 171 -52 255h-2c4 -85 6 -171 6 -257v-335h-208v712h359l67 -295c20 -87 35 -175 46 -262h2c10 87 26 175 45 262l68 295h358v-712z" />
    <glyph glyph-name="N" unicode="N" horiz-adv-x="852" 
d="M789 0h-331l-97 265c-32 87 -62 178 -88 267h-2c6 -94 8 -188 8 -282v-250h-216v712h331l97 -265c32 -87 62 -178 88 -267h2c-6 94 -8 188 -8 282v250h216v-712z" />
    <glyph glyph-name="O" unicode="O" horiz-adv-x="776" 
d="M388 728c219 0 360 -146 360 -372s-141 -372 -360 -372s-360 146 -360 372s141 372 360 372zM388 538c-80 0 -121 -63 -121 -182s41 -182 121 -182s121 63 121 182s-41 182 -121 182z" />
    <glyph glyph-name="P" unicode="P" horiz-adv-x="691" 
d="M63 712h317c199 0 293 -96 293 -250c0 -153 -94 -250 -293 -250h-91v-212h-226v712zM289 538v-152h59c65 0 92 29 92 76s-27 76 -92 76h-59z" />
    <glyph glyph-name="Q" unicode="Q" horiz-adv-x="776" 
d="M748 356c0 -108 -32 -197 -89 -261l73 -82l-111 -99l-86 96c-44 -17 -93 -26 -148 -26c-217 0 -359 146 -359 372c0 225 142 372 359 372c219 0 361 -147 361 -372zM394 158h9l-69 78l110 98l67 -75c7 26 10 56 10 90c0 123 -44 189 -127 189c-82 0 -127 -66 -127 -189
c0 -124 45 -191 127 -191z" />
    <glyph glyph-name="R" unicode="R" horiz-adv-x="724" 
d="M63 712h344c187 0 266 -75 266 -206c0 -88 -50 -147 -134 -174v-2c53 -19 80 -58 115 -153l64 -177h-238l-48 145c-23 66 -49 90 -109 90h-34v-235h-226v712zM289 547v-153h76c64 0 90 30 90 79c0 52 -34 74 -94 74h-72z" />
    <glyph glyph-name="S" unicode="S" horiz-adv-x="676" 
d="M342 728c182 0 297 -78 297 -231h-241c0 41 -24 63 -70 63c-42 0 -64 -17 -64 -44c0 -33 28 -42 116 -63c143 -35 270 -78 270 -236c0 -146 -116 -233 -316 -233c-201 0 -317 91 -317 245h248c0 -47 23 -70 78 -70c44 0 67 18 67 45c0 36 -30 45 -114 67
c-140 38 -263 77 -263 228c0 140 109 229 309 229z" />
    <glyph glyph-name="T" unicode="T" horiz-adv-x="650" 
d="M643 523h-205v-523h-226v523h-205v189h636v-189z" />
    <glyph glyph-name="U" unicode="U" horiz-adv-x="738" 
d="M681 712v-427c0 -190 -112 -301 -312 -301s-312 111 -312 301v427h226v-425c0 -70 30 -107 86 -107s86 37 86 107v425h226z" />
    <glyph glyph-name="V" unicode="V" horiz-adv-x="712" 
d="M511 0h-310l-200 712h242l62 -271c20 -84 38 -173 50 -258h2c12 85 30 174 50 258l62 271h242z" />
    <glyph glyph-name="W" unicode="W" horiz-adv-x="1060" 
d="M921 0h-309l-48 290c-13 84 -25 167 -33 250h-2c-8 -83 -20 -166 -33 -250l-48 -290h-309l-134 712h218l40 -252c14 -90 26 -184 36 -278h2c10 94 23 187 39 278l44 252h292l44 -252c16 -91 29 -184 39 -278h2c10 94 22 188 36 278l40 252h218z" />
    <glyph glyph-name="X" unicode="X" horiz-adv-x="748" 
d="M531 372l218 -372h-268l-106 233h-2l-106 -233h-268l218 372l-202 340h261l97 -221h2l97 221h261z" />
    <glyph glyph-name="Y" unicode="Y" horiz-adv-x="714" 
d="M470 252v-252h-226v252l-245 460h247l50 -120c23 -55 45 -116 60 -174h2c15 58 37 119 60 174l50 120h247z" />
    <glyph glyph-name="Z" unicode="Z" horiz-adv-x="616" 
d="M577 519l-285 -333v-2h301v-184h-573v193l286 333v2h-273v184h544v-193z" />
    <glyph glyph-name="bracketleft" unicode="[" horiz-adv-x="417" 
d="M387 588h-128v-594h127v-150h-331v897h332v-153z" />
    <glyph glyph-name="backslash" unicode="\" horiz-adv-x="534" 
d="M207 745l297 -834h-156l-297 834h156z" />
    <glyph glyph-name="bracketright" unicode="]" horiz-adv-x="417" 
d="M362 741v-897h-331v150h127v594h-128v153h332z" />
    <glyph glyph-name="asciicircum" unicode="^" horiz-adv-x="567" 
d="M563 371h-199l-79 172h-2l-79 -172h-200l166 341h227z" />
    <glyph glyph-name="underscore" unicode="_" horiz-adv-x="500" 
d="M500 -170h-500v120h500v-120z" />
    <glyph glyph-name="grave" unicode="`" horiz-adv-x="407" 
d="M276 712l81 -152h-164l-143 152h226z" />
    <glyph glyph-name="a" unicode="a" horiz-adv-x="590" 
d="M292 524c178 0 256 -80 256 -216v-156c0 -70 5 -114 17 -152h-197c-5 17 -8 40 -8 62h-2c-41 -51 -97 -77 -165 -77c-113 0 -179 70 -179 161c0 94 59 145 212 168c36 6 83 11 112 13v18c0 43 -19 60 -48 60c-30 0 -48 -17 -48 -59h-207c6 93 74 178 257 178zM338 207v18
c-16 -1 -47 -5 -66 -10c-34 -9 -46 -28 -46 -54c0 -28 16 -47 46 -47c17 0 36 6 48 21c15 18 18 38 18 72z" />
    <glyph glyph-name="b" unicode="b" horiz-adv-x="634" 
d="M265 466h2c30 39 79 58 128 58c134 0 219 -105 219 -270s-89 -270 -226 -270c-51 0 -100 22 -131 70h-2v-54h-208v712h218v-246zM319 360c-41 0 -66 -43 -66 -106s25 -106 66 -106s66 41 66 106s-25 106 -66 106z" />
    <glyph glyph-name="c" unicode="c" horiz-adv-x="602" 
d="M304 524c158 0 269 -83 282 -221h-225c-4 42 -25 61 -52 61c-38 0 -59 -36 -59 -107c0 -76 22 -112 60 -112c29 0 50 23 51 69h225c-11 -145 -120 -230 -281 -230c-174 0 -285 105 -285 273c0 164 110 267 284 267z" />
    <glyph glyph-name="d" unicode="d" horiz-adv-x="634" 
d="M587 0h-208v54h-2c-31 -48 -80 -70 -131 -70c-137 0 -226 105 -226 270s85 270 219 270c49 0 98 -19 128 -58h2v246h218v-712zM315 360c-41 0 -66 -41 -66 -106s25 -106 66 -106s66 43 66 106s-25 106 -66 106z" />
    <glyph glyph-name="e" unicode="e" horiz-adv-x="605" 
d="M301 120c31 0 52 16 54 39h222c-23 -101 -132 -175 -272 -175c-188 0 -285 122 -285 273c0 150 100 267 281 267c128 0 216 -56 258 -151c19 -43 26 -88 26 -163h-351c4 -73 32 -90 67 -90zM301 394c-31 0 -58 -16 -66 -77h131c-3 58 -32 77 -65 77z" />
    <glyph glyph-name="f" unicode="f" horiz-adv-x="400" 
d="M371 569c-47 0 -71 -17 -72 -61h90v-154h-90v-354h-218v354h-75v154h75v20c0 131 77 195 215 195c34 0 73 -5 99 -11v-145c-4 1 -16 2 -24 2z" />
    <glyph glyph-name="g" unicode="g" 
d="M231 523c57 0 114 -35 142 -83h2v68h202v-472c0 -165 -101 -234 -284 -234c-147 0 -237 60 -251 166h203c2 -27 20 -43 51 -43c42 0 69 25 69 100v51h-2c-27 -41 -83 -69 -138 -69c-127 0 -205 102 -205 258c0 157 81 258 211 258zM310 363c-42 0 -67 -39 -67 -98
c0 -58 25 -96 67 -96c38 0 62 37 62 96c0 60 -24 98 -62 98z" />
    <glyph glyph-name="h" unicode="h" 
d="M265 467h2c27 32 70 56 130 56c114 0 185 -73 185 -210v-313h-218v285c0 44 -13 71 -45 71c-37 0 -54 -32 -54 -110v-246h-218v712h218v-245z" />
    <glyph glyph-name="i" unicode="i" horiz-adv-x="312" 
d="M265 560h-218v152h218v-152zM265 0h-218v508h218v-508z" />
    <glyph glyph-name="j" unicode="j" horiz-adv-x="311" 
d="M264 560h-218v152h218v-152zM264 508v-482c0 -152 -91 -217 -214 -217c-41 0 -76 4 -103 12v147c7 -2 14 -3 24 -3c51 0 75 21 75 101v442h218z" />
    <glyph glyph-name="k" unicode="k" horiz-adv-x="612" 
d="M622 0h-266l-89 214h-2v-214h-218v712h218v-393h2l79 189h261l-158 -243z" />
    <glyph glyph-name="l" unicode="l" horiz-adv-x="312" 
d="M265 0h-218v712h218v-712z" />
    <glyph glyph-name="m" unicode="m" horiz-adv-x="930" 
d="M710 523c109 0 178 -73 178 -210v-313h-218v285c0 44 -12 71 -40 71c-34 0 -53 -28 -53 -105v-251h-218v288c0 52 -17 68 -41 68c-33 0 -53 -28 -53 -105v-251h-218v508h201v-58h2c31 44 83 73 147 73c62 0 117 -26 150 -90c31 53 89 90 163 90z" />
    <glyph glyph-name="n" unicode="n" 
d="M397 523c114 0 185 -73 185 -210v-313h-218v285c0 44 -13 71 -45 71c-37 0 -54 -32 -54 -110v-246h-218v508h202v-55h2c33 43 82 70 146 70z" />
    <glyph glyph-name="o" unicode="o" horiz-adv-x="632" 
d="M316 524c180 0 296 -105 296 -270s-116 -270 -296 -270s-296 105 -296 270s116 270 296 270zM316 363c-44 0 -66 -39 -66 -109s22 -109 66 -109s66 39 66 109s-22 109 -66 109z" />
    <glyph glyph-name="p" unicode="p" horiz-adv-x="634" 
d="M388 524c137 0 226 -105 226 -270s-85 -270 -219 -270c-49 0 -98 19 -128 58h-2v-227h-218v693h208v-54h2c31 48 80 70 131 70zM319 360c-41 0 -66 -43 -66 -106s25 -106 66 -106s66 41 66 106s-25 106 -66 106z" />
    <glyph glyph-name="q" unicode="q" horiz-adv-x="634" 
d="M246 524c51 0 100 -22 131 -70h2v54h208v-693h-218v227h-2c-30 -39 -79 -58 -128 -58c-134 0 -219 105 -219 270s89 270 226 270zM315 360c-41 0 -66 -41 -66 -106s25 -106 66 -106s66 43 66 106s-25 106 -66 106z" />
    <glyph glyph-name="r" unicode="r" horiz-adv-x="460" 
d="M404 516c17 0 36 -2 52 -6v-185c-18 4 -43 6 -65 6c-81 0 -126 -51 -126 -143v-188h-218v508h203v-67h2c38 53 87 75 152 75z" />
    <glyph glyph-name="s" unicode="s" horiz-adv-x="577" 
d="M288 524c152 0 248 -51 248 -166h-206c0 33 -17 47 -45 47c-24 0 -37 -9 -37 -27c0 -20 15 -28 94 -49c103 -27 213 -64 213 -175c0 -103 -90 -170 -259 -170c-183 0 -274 58 -274 181h217c0 -39 15 -55 57 -55c29 0 44 11 44 28c0 23 -23 33 -117 57
c-91 23 -188 53 -188 165c0 93 70 164 253 164z" />
    <glyph glyph-name="t" unicode="t" horiz-adv-x="419" 
d="M357 159c13 0 27 2 37 5v-160c-28 -8 -72 -14 -103 -14c-148 0 -213 54 -213 177v187h-74v154h74v147h218v-147h93v-154h-93v-122c0 -52 17 -73 61 -73z" />
    <glyph glyph-name="u" unicode="u" 
d="M227 -15c-114 0 -185 73 -185 210v313h218v-285c0 -44 13 -71 45 -71c37 0 54 32 54 110v246h218v-508h-202v55h-2c-33 -43 -82 -70 -146 -70z" />
    <glyph glyph-name="v" unicode="v" horiz-adv-x="578" 
d="M439 0h-300l-149 508h237l30 -157c13 -69 24 -139 31 -207h2c7 68 18 138 31 207l30 157h237z" />
    <glyph glyph-name="w" unicode="w" horiz-adv-x="924" 
d="M806 0h-281l-32 172c-13 68 -23 138 -30 207h-2c-7 -69 -17 -139 -30 -207l-32 -172h-281l-115 508h208l22 -168c10 -69 17 -138 21 -206h2c9 70 22 142 37 211l36 163h266l36 -163c15 -69 28 -141 37 -211h2c4 68 11 137 21 206l22 168h208z" />
    <glyph glyph-name="x" unicode="x" horiz-adv-x="588" 
d="M433 261l161 -261h-242l-57 146h-2l-57 -146h-242l161 261l-150 247h243l45 -136h2l45 136h243z" />
    <glyph glyph-name="y" unicode="y" horiz-adv-x="583" 
d="M593 508l-144 -474c-51 -169 -112 -227 -247 -227c-39 0 -82 4 -113 11v152c16 -4 33 -6 44 -6c30 0 47 9 47 34c0 14 -2 21 -36 110l-159 400h237l42 -169c16 -68 31 -140 42 -210h2c8 71 20 140 33 212l31 167h221z" />
    <glyph glyph-name="z" unicode="z" horiz-adv-x="539" 
d="M502 342l-196 -178v-2h202v-162h-477v166l196 178v2h-190v162h465v-166z" />
    <glyph glyph-name="braceleft" unicode="{" horiz-adv-x="406" 
d="M373 741v-124c-48 -2 -69 -17 -69 -72v-108c0 -84 -39 -126 -115 -142v-3c76 -17 115 -59 115 -143v-107c0 -56 21 -71 69 -73v-124h-27c-188 0 -236 59 -236 200v101c0 52 -16 71 -70 84v126c54 12 70 31 70 84v100c0 142 48 201 236 201h27z" />
    <glyph glyph-name="bar" unicode="|" horiz-adv-x="302" 
d="M238 -205h-174v937h174v-937z" />
    <glyph glyph-name="braceright" unicode="}" horiz-adv-x="406" 
d="M33 741h27c188 0 236 -59 236 -201v-100c0 -53 16 -72 70 -84v-126c-54 -13 -70 -32 -70 -84v-101c0 -141 -48 -200 -236 -200h-27v124c48 2 69 17 69 73v107c0 84 39 126 115 143v3c-76 16 -115 58 -115 142v108c0 55 -21 70 -69 72v124z" />
    <glyph glyph-name="asciitilde" unicode="~" horiz-adv-x="612" 
d="M217 437c83 0 137 -67 183 -67c28 0 48 24 48 61h139c0 -139 -80 -231 -192 -231c-84 0 -137 67 -183 67c-28 0 -48 -23 -48 -60h-139c0 138 81 230 192 230z" />
    <glyph glyph-name="Aacute" unicode="&#xc1;" horiz-adv-x="748" 
d="M421 760h-164l81 161h226zM485 105h-222l-28 -105h-239l235 712h286l235 -712h-239zM440 278l-13 50c-19 71 -37 149 -52 221h-2c-15 -72 -33 -150 -52 -221l-13 -50h132z" />
    <glyph glyph-name="Abreve" unicode="&#x102;" horiz-adv-x="748" 
d="M374 761c-117 0 -181 58 -184 160h128c1 -32 19 -45 56 -45s54 13 56 45h128c-3 -102 -67 -160 -184 -160zM485 105h-222l-28 -105h-239l235 712h286l235 -712h-239zM440 278l-13 50c-19 71 -37 149 -52 221h-2c-15 -72 -33 -150 -52 -221l-13 -50h132z" />
    <glyph glyph-name="Acircumflex" unicode="&#xc2;" horiz-adv-x="748" 
d="M315 760h-159l133 161h169l134 -161h-159l-59 84zM485 105h-222l-28 -105h-239l235 712h286l235 -712h-239zM440 278l-13 50c-19 71 -37 149 -52 221h-2c-15 -72 -33 -150 -52 -221l-13 -50h132z" />
    <glyph glyph-name="Adieresis" unicode="&#xc4;" horiz-adv-x="748" 
d="M342 769h-182v152h182v-152zM588 769h-182v152h182v-152zM485 105h-222l-28 -105h-239l235 712h286l235 -712h-239zM440 278l-13 50c-19 71 -37 149 -52 221h-2c-15 -72 -33 -150 -52 -221l-13 -50h132z" />
    <glyph glyph-name="Agrave" unicode="&#xc0;" horiz-adv-x="748" 
d="M327 760l-143 161h226l81 -161h-164zM485 105h-222l-28 -105h-239l235 712h286l235 -712h-239zM440 278l-13 50c-19 71 -37 149 -52 221h-2c-15 -72 -33 -150 -52 -221l-13 -50h132z" />
    <glyph glyph-name="Amacron" unicode="&#x100;" horiz-adv-x="748" 
d="M587 773h-426v127h426v-127zM485 105h-222l-28 -105h-239l235 712h286l235 -712h-239zM440 278l-13 50c-19 71 -37 149 -52 221h-2c-15 -72 -33 -150 -52 -221l-13 -50h132z" />
    <glyph glyph-name="Aogonek" unicode="&#x104;" horiz-adv-x="748" 
d="M724 -88c10 0 22 3 31 7v-104c-33 -11 -76 -18 -121 -18c-98 0 -144 38 -144 100c0 45 36 76 96 103h-73l-28 105h-222l-28 -105h-239l235 712h286l235 -712c-44 -26 -57 -43 -57 -62c0 -18 10 -26 29 -26zM440 278l-13 50c-19 71 -37 149 -52 221h-2
c-15 -72 -33 -150 -52 -221l-13 -50h132z" />
    <glyph glyph-name="Aring" unicode="&#xc5;" horiz-adv-x="748" 
d="M374 755c-69 0 -126 57 -126 125c0 69 57 126 126 126c70 0 125 -57 125 -126c0 -68 -55 -125 -125 -125zM374 940c-33 0 -60 -27 -60 -60s27 -60 60 -60s60 27 60 60s-27 60 -60 60zM485 105h-222l-28 -105h-239l235 712h286l235 -712h-239zM440 278l-13 50
c-19 71 -37 149 -52 221h-2c-15 -72 -33 -150 -52 -221l-13 -50h132z" />
    <glyph glyph-name="Atilde" unicode="&#xc3;" horiz-adv-x="748" 
d="M311 799c-22 0 -33 -14 -36 -38h-110c5 99 50 160 137 160c61 0 99 -37 134 -37c22 0 33 11 36 37h110c-5 -98 -50 -160 -137 -160c-61 0 -98 38 -134 38zM485 105h-222l-28 -105h-239l235 712h286l235 -712h-239zM440 278l-13 50c-19 71 -37 149 -52 221h-2
c-15 -72 -33 -150 -52 -221l-13 -50h132z" />
    <glyph glyph-name="AE" unicode="&#xc6;" horiz-adv-x="1001" 
d="M959 184v-184h-433l-17 123h-227l-47 -123h-241l290 712h674v-184h-295l12 -81h257v-179h-233l13 -84h247zM484 302l-32 224h-14l-86 -224h132z" />
    <glyph glyph-name="Cacute" unicode="&#x106;" horiz-adv-x="744" 
d="M422 760h-164l81 161h226zM375 728c200 0 332 -103 340 -290h-241c-7 64 -40 100 -99 100c-66 0 -109 -68 -109 -182c0 -112 44 -182 110 -182c56 0 94 40 100 107h243c-15 -194 -148 -297 -343 -297c-217 0 -348 141 -348 372c0 232 132 372 347 372z" />
    <glyph glyph-name="Ccaron" unicode="&#x10c;" horiz-adv-x="744" 
d="M460 760h-169l-134 161h159l59 -84l59 84h159zM375 728c200 0 332 -103 340 -290h-241c-7 64 -40 100 -99 100c-66 0 -109 -68 -109 -182c0 -112 44 -182 110 -182c56 0 94 40 100 107h243c-15 -194 -148 -297 -343 -297c-217 0 -348 141 -348 372c0 232 132 372 347 372
z" />
    <glyph glyph-name="Ccedilla" unicode="&#xc7;" horiz-adv-x="744" 
d="M476 281h243c-14 -182 -132 -284 -307 -296l-26 -43c11 3 22 5 33 5c63 0 93 -32 93 -82c0 -62 -47 -110 -140 -110c-44 0 -93 12 -133 37l34 70c31 -14 62 -23 83 -23c22 0 34 8 34 22s-11 24 -35 24c-10 0 -22 -3 -29 -7l-47 36l43 73c-185 22 -294 158 -294 369
c0 232 132 372 347 372c200 0 332 -103 340 -290h-241c-7 64 -40 100 -99 100c-66 0 -109 -68 -109 -182c0 -112 44 -182 110 -182c56 0 94 40 100 107z" />
    <glyph glyph-name="Ccircumflex" unicode="&#x108;" horiz-adv-x="744" 
d="M290 921h169l134 -161h-159l-59 84l-59 -84h-159zM375 728c200 0 332 -103 340 -290h-241c-7 64 -40 100 -99 100c-66 0 -109 -68 -109 -182c0 -112 44 -182 110 -182c56 0 94 40 100 107h243c-15 -194 -148 -297 -343 -297c-217 0 -348 141 -348 372
c0 232 132 372 347 372z" />
    <glyph glyph-name="Cdotaccent" unicode="&#x10a;" horiz-adv-x="744" 
d="M483 769h-218v152h218v-152zM375 728c200 0 332 -103 340 -290h-241c-7 64 -40 100 -99 100c-66 0 -109 -68 -109 -182c0 -112 44 -182 110 -182c56 0 94 40 100 107h243c-15 -194 -148 -297 -343 -297c-217 0 -348 141 -348 372c0 232 132 372 347 372z" />
    <glyph glyph-name="Eth" unicode="&#xd0;" horiz-adv-x="764" 
d="M68 712h284c246 0 384 -128 384 -356s-138 -356 -384 -356h-284v294h-58v130h58v288zM294 189h50c98 0 155 62 155 167s-57 167 -155 167h-50v-99h127v-130h-127v-105z" />
    <glyph glyph-name="Dcaron" unicode="&#x10e;" horiz-adv-x="759" 
d="M439 760h-169l-134 161h159l59 -84l59 84h159zM63 712h284c246 0 384 -128 384 -356s-138 -356 -384 -356h-284v712zM289 523v-334h50c98 0 155 62 155 167s-57 167 -155 167h-50z" />
    <glyph glyph-name="Dcroat" unicode="&#x110;" horiz-adv-x="764" 
d="M68 712h284c246 0 384 -128 384 -356s-138 -356 -384 -356h-284v294h-58v130h58v288zM294 189h50c98 0 155 62 155 167s-57 167 -155 167h-50v-99h127v-130h-127v-105z" />
    <glyph glyph-name="Eacute" unicode="&#xc9;" horiz-adv-x="636" 
d="M376 760h-164l81 161h226zM589 528h-300v-81h279v-179h-279v-84h305v-184h-531v712h526v-184z" />
    <glyph glyph-name="Ebreve" unicode="&#x114;" horiz-adv-x="636" 
d="M385 921h128c-3 -102 -67 -160 -184 -160s-181 58 -184 160h128c1 -32 19 -45 56 -45s54 13 56 45zM589 528h-300v-81h279v-179h-279v-84h305v-184h-531v712h526v-184z" />
    <glyph glyph-name="Ecaron" unicode="&#x11a;" horiz-adv-x="636" 
d="M414 760h-169l-134 161h159l59 -84l59 84h159zM589 528h-300v-81h279v-179h-279v-84h305v-184h-531v712h526v-184z" />
    <glyph glyph-name="Ecircumflex" unicode="&#xca;" horiz-adv-x="636" 
d="M244 921h169l134 -161h-159l-59 84l-59 -84h-159zM589 528h-300v-81h279v-179h-279v-84h305v-184h-531v712h526v-184z" />
    <glyph glyph-name="Edieresis" unicode="&#xcb;" horiz-adv-x="636" 
d="M297 769h-182v152h182v-152zM543 769h-182v152h182v-152zM589 528h-300v-81h279v-179h-279v-84h305v-184h-531v712h526v-184z" />
    <glyph glyph-name="Edotaccent" unicode="&#x116;" horiz-adv-x="636" 
d="M437 769h-218v152h218v-152zM589 528h-300v-81h279v-179h-279v-84h305v-184h-531v712h526v-184z" />
    <glyph glyph-name="Egrave" unicode="&#xc8;" horiz-adv-x="636" 
d="M365 921l81 -161h-164l-143 161h226zM589 528h-300v-81h279v-179h-279v-84h305v-184h-531v712h526v-184z" />
    <glyph glyph-name="Emacron" unicode="&#x112;" horiz-adv-x="636" 
d="M542 773h-426v127h426v-127zM589 528h-300v-81h279v-179h-279v-84h305v-184h-531v712h526v-184z" />
    <glyph glyph-name="Eogonek" unicode="&#x118;" horiz-adv-x="636" 
d="M567 -88c10 0 22 3 31 7v-104c-33 -11 -76 -18 -121 -18c-98 0 -144 38 -144 100c0 45 36 76 96 103h-366v712h526v-184h-300v-81h279v-179h-279v-84h305v-184h1c-44 -26 -57 -43 -57 -62c0 -18 10 -26 29 -26z" />
    <glyph glyph-name="Gbreve" unicode="&#x11e;" horiz-adv-x="765" 
d="M438 921h128c-3 -102 -67 -160 -184 -160s-181 58 -184 160h128c1 -32 19 -45 56 -45s54 13 56 45zM388 728c187 0 317 -101 325 -253h-240c-6 47 -36 77 -86 77c-74 0 -121 -76 -121 -199c0 -125 47 -203 124 -203c64 0 106 45 110 107h-121v160h332v-417h-195v63h-2
c-43 -53 -104 -78 -180 -78c-190 0 -306 140 -306 368c0 233 136 375 360 375z" />
    <glyph glyph-name="Gcircumflex" unicode="&#x11c;" horiz-adv-x="765" 
d="M297 921h169l134 -161h-159l-59 84l-59 -84h-159zM388 728c187 0 317 -101 325 -253h-240c-6 47 -36 77 -86 77c-74 0 -121 -76 -121 -199c0 -125 47 -203 124 -203c64 0 106 45 110 107h-121v160h332v-417h-195v63h-2c-43 -53 -104 -78 -180 -78
c-190 0 -306 140 -306 368c0 233 136 375 360 375z" />
    <glyph glyph-name="Gcommaaccent" unicode="&#x122;" horiz-adv-x="765" 
d="M388 728c187 0 317 -101 325 -253h-240c-6 47 -36 77 -86 77c-74 0 -121 -76 -121 -199c0 -125 47 -203 124 -203c64 0 106 45 110 107h-121v160h332v-417h-195v63h-2c-43 -53 -104 -78 -180 -78c-190 0 -306 140 -306 368c0 233 136 375 360 375zM464 -173l-76 -112h-77
l48 112h-48v129h153v-129z" />
    <glyph glyph-name="Gdotaccent" unicode="&#x120;" horiz-adv-x="765" 
d="M490 769h-218v152h218v-152zM388 728c187 0 317 -101 325 -253h-240c-6 47 -36 77 -86 77c-74 0 -121 -76 -121 -199c0 -125 47 -203 124 -203c64 0 106 45 110 107h-121v160h332v-417h-195v63h-2c-43 -53 -104 -78 -180 -78c-190 0 -306 140 -306 368
c0 233 136 375 360 375z" />
    <glyph glyph-name="Hbar" unicode="&#x126;" horiz-adv-x="782" 
d="M767 555h-48v-555h-226v270h-204v-270h-226v555h-48v98h48v59h226v-59h204v59h226v-59h48v-98zM493 555h-204v-96h204v96z" />
    <glyph glyph-name="Hcircumflex" unicode="&#x124;" horiz-adv-x="782" 
d="M306 921h169l134 -161h-159l-59 84l-59 -84h-159zM719 0h-226v270h-204v-270h-226v712h226v-253h204v253h226v-712z" />
    <glyph glyph-name="IJ" unicode="&#x132;" horiz-adv-x="798" 
d="M289 0h-226v712h226v-712zM740 712v-444c0 -193 -87 -279 -269 -279c-37 0 -74 5 -104 12v182c11 -2 30 -4 42 -4c80 0 105 35 105 143v390h226z" />
    <glyph glyph-name="Iacute" unicode="&#xcd;" horiz-adv-x="352" 
d="M222 760h-164l81 161h226zM289 0h-226v712h226v-712z" />
    <glyph glyph-name="Ibreve" unicode="&#x12c;" horiz-adv-x="352" 
d="M231 921h128c-3 -102 -67 -160 -184 -160s-181 58 -184 160h128c1 -32 19 -45 56 -45s54 13 56 45zM289 0h-226v712h226v-712z" />
    <glyph glyph-name="Icircumflex" unicode="&#xce;" horiz-adv-x="352" 
d="M90 921h169l134 -161h-159l-59 84l-59 -84h-159zM289 0h-226v712h226v-712z" />
    <glyph glyph-name="Idieresis" unicode="&#xcf;" horiz-adv-x="352" 
d="M143 769h-182v152h182v-152zM389 769h-182v152h182v-152zM289 0h-226v712h226v-712z" />
    <glyph glyph-name="Idotaccent" unicode="&#x130;" horiz-adv-x="352" 
d="M283 769h-218v152h218v-152zM289 0h-226v712h226v-712z" />
    <glyph glyph-name="Igrave" unicode="&#xcc;" horiz-adv-x="352" 
d="M211 921l81 -161h-164l-143 161h226zM289 0h-226v712h226v-712z" />
    <glyph glyph-name="Imacron" unicode="&#x12a;" horiz-adv-x="352" 
d="M388 773h-426v127h426v-127zM289 0h-226v712h226v-712z" />
    <glyph glyph-name="Iogonek" unicode="&#x12e;" horiz-adv-x="352" 
d="M261 -88c10 0 22 3 31 7v-104c-33 -11 -76 -18 -121 -18c-98 0 -144 38 -144 100c0 45 36 76 96 103h-60v712h226v-712c-44 -26 -57 -43 -57 -62c0 -18 10 -26 29 -26z" />
    <glyph glyph-name="Itilde" unicode="&#x128;" horiz-adv-x="352" 
d="M273 921h110c-5 -98 -50 -160 -137 -160c-61 0 -98 38 -134 38c-22 0 -33 -14 -36 -38h-110c5 99 50 160 137 160c61 0 99 -37 134 -37c22 0 33 11 36 37zM289 0h-226v712h226v-712z" />
    <glyph glyph-name="Jcircumflex" unicode="&#x134;" horiz-adv-x="446" 
d="M193 921h169l134 -161h-159l-59 84l-59 -84h-159zM388 712v-444c0 -193 -87 -279 -269 -279c-37 0 -74 5 -104 12v182c11 -2 30 -4 42 -4c80 0 105 35 105 143v390h226z" />
    <glyph glyph-name="Kcommaaccent" unicode="&#x136;" horiz-adv-x="743" 
d="M494 377l246 -377h-281l-168 311h-2v-311h-226v712h226v-294h2l162 294h276zM448 -173l-76 -112h-77l48 112h-48v129h153v-129z" />
    <glyph glyph-name="Lacute" unicode="&#x139;" horiz-adv-x="591" 
d="M253 760h-164l81 161h226zM289 189h295v-189h-521v712h226v-523z" />
    <glyph glyph-name="Lcaron" unicode="&#x13d;" horiz-adv-x="591" 
d="M289 189h295v-189h-521v712h226v-523zM441 473h-123l19 239h170z" />
    <glyph glyph-name="Lcommaaccent" unicode="&#x13b;" horiz-adv-x="591" 
d="M289 189h295v-189h-521v712h226v-523zM400 -173l-76 -112h-77l48 112h-48v129h153v-129z" />
    <glyph glyph-name="Ldot" unicode="&#x13f;" horiz-adv-x="679" 
d="M289 189h295v-189h-521v712h226v-523zM632 338h-222v217h222v-217z" />
    <glyph glyph-name="Lslash" unicode="&#x141;" horiz-adv-x="612" 
d="M605 189v-189h-521v275l-75 -45v157l75 45v280h226v-172l153 91v-158l-153 -90v-194h295z" />
    <glyph glyph-name="Nacute" unicode="&#x143;" horiz-adv-x="852" 
d="M473 760h-164l81 161h226zM789 0h-331l-97 265c-32 87 -62 178 -88 267h-2c6 -94 8 -188 8 -282v-250h-216v712h331l97 -265c32 -87 62 -178 88 -267h2c-6 94 -8 188 -8 282v250h216v-712z" />
    <glyph glyph-name="Ncaron" unicode="&#x147;" horiz-adv-x="852" 
d="M511 760h-169l-134 161h159l59 -84l59 84h159zM789 0h-331l-97 265c-32 87 -62 178 -88 267h-2c6 -94 8 -188 8 -282v-250h-216v712h331l97 -265c32 -87 62 -178 88 -267h2c-6 94 -8 188 -8 282v250h216v-712z" />
    <glyph glyph-name="Ncommaaccent" unicode="&#x145;" horiz-adv-x="852" 
d="M789 0h-331l-97 265c-32 87 -62 178 -88 267h-2c6 -94 8 -188 8 -282v-250h-216v712h331l97 -265c32 -87 62 -178 88 -267h2c-6 94 -8 188 -8 282v250h216v-712zM502 -173l-76 -112h-77l48 112h-48v129h153v-129z" />
    <glyph glyph-name="Eng" unicode="&#x14a;" horiz-adv-x="787" 
d="M724 712v-697c0 -149 -93 -211 -218 -211c-39 0 -72 3 -98 11v140c6 -2 14 -3 24 -3c42 0 64 12 64 46c0 22 -4 32 -43 106l-90 174c-35 70 -68 141 -94 211h-2c8 -82 12 -166 12 -249v-240h-216v712h278l82 -161c37 -69 68 -141 95 -212h2c-8 83 -12 167 -12 249v124
h216z" />
    <glyph glyph-name="Ntilde" unicode="&#xd1;" horiz-adv-x="852" 
d="M524 921h110c-5 -98 -50 -160 -137 -160c-61 0 -98 38 -134 38c-22 0 -33 -14 -36 -38h-110c5 99 50 160 137 160c61 0 99 -37 134 -37c22 0 33 11 36 37zM789 0h-331l-97 265c-32 87 -62 178 -88 267h-2c6 -94 8 -188 8 -282v-250h-216v712h331l97 -265
c32 -87 62 -178 88 -267h2c-6 94 -8 188 -8 282v250h216v-712z" />
    <glyph glyph-name="Oacute" unicode="&#xd3;" horiz-adv-x="776" 
d="M435 760h-164l81 161h226zM388 728c219 0 360 -146 360 -372s-141 -372 -360 -372s-360 146 -360 372s141 372 360 372zM388 538c-80 0 -121 -63 -121 -182s41 -182 121 -182s121 63 121 182s-41 182 -121 182z" />
    <glyph glyph-name="Obreve" unicode="&#x14e;" horiz-adv-x="776" 
d="M444 921h128c-3 -102 -67 -160 -184 -160s-181 58 -184 160h128c1 -32 19 -45 56 -45s54 13 56 45zM388 728c219 0 360 -146 360 -372s-141 -372 -360 -372s-360 146 -360 372s141 372 360 372zM388 538c-80 0 -121 -63 -121 -182s41 -182 121 -182s121 63 121 182
s-41 182 -121 182z" />
    <glyph glyph-name="Ocircumflex" unicode="&#xd4;" horiz-adv-x="776" 
d="M303 921h169l134 -161h-159l-59 84l-59 -84h-159zM388 728c219 0 360 -146 360 -372s-141 -372 -360 -372s-360 146 -360 372s141 372 360 372zM388 538c-80 0 -121 -63 -121 -182s41 -182 121 -182s121 63 121 182s-41 182 -121 182z" />
    <glyph glyph-name="Odieresis" unicode="&#xd6;" horiz-adv-x="776" 
d="M356 769h-182v152h182v-152zM602 769h-182v152h182v-152zM388 728c219 0 360 -146 360 -372s-141 -372 -360 -372s-360 146 -360 372s141 372 360 372zM388 538c-80 0 -121 -63 -121 -182s41 -182 121 -182s121 63 121 182s-41 182 -121 182z" />
    <glyph glyph-name="Ograve" unicode="&#xd2;" horiz-adv-x="776" 
d="M424 921l81 -161h-164l-143 161h226zM388 728c219 0 360 -146 360 -372s-141 -372 -360 -372s-360 146 -360 372s141 372 360 372zM388 538c-80 0 -121 -63 -121 -182s41 -182 121 -182s121 63 121 182s-41 182 -121 182z" />
    <glyph glyph-name="Ohungarumlaut" unicode="&#x150;" horiz-adv-x="776" 
d="M323 760h-150l101 161h192zM559 760h-150l101 161h192zM388 728c219 0 360 -146 360 -372s-141 -372 -360 -372s-360 146 -360 372s141 372 360 372zM388 538c-80 0 -121 -63 -121 -182s41 -182 121 -182s121 63 121 182s-41 182 -121 182z" />
    <glyph glyph-name="Omacron" unicode="&#x14c;" horiz-adv-x="776" 
d="M601 773h-426v127h426v-127zM388 728c219 0 360 -146 360 -372s-141 -372 -360 -372s-360 146 -360 372s141 372 360 372zM388 538c-80 0 -121 -63 -121 -182s41 -182 121 -182s121 63 121 182s-41 182 -121 182z" />
    <glyph glyph-name="Oslash" unicode="&#xd8;" horiz-adv-x="776" 
d="M713 709l-61 -84c61 -65 96 -157 96 -269c0 -226 -141 -372 -360 -372c-67 0 -126 13 -176 39l-60 -82l-88 62l61 83c-62 65 -97 158 -97 270c0 226 141 372 360 372c67 0 127 -14 177 -39l60 82zM254 356c0 -31 3 -58 8 -82l190 260c-18 10 -39 15 -64 15
c-87 0 -134 -68 -134 -193zM388 163c89 0 135 68 135 193c0 31 -3 58 -8 82l-190 -260c18 -10 39 -15 63 -15z" />
    <glyph glyph-name="Otilde" unicode="&#xd5;" horiz-adv-x="776" 
d="M486 921h110c-5 -98 -50 -160 -137 -160c-61 0 -98 38 -134 38c-22 0 -33 -14 -36 -38h-110c5 99 50 160 137 160c61 0 99 -37 134 -37c22 0 33 11 36 37zM388 728c219 0 360 -146 360 -372s-141 -372 -360 -372s-360 146 -360 372s141 372 360 372zM388 538
c-80 0 -121 -63 -121 -182s41 -182 121 -182s121 63 121 182s-41 182 -121 182z" />
    <glyph glyph-name="OE" unicode="&#x152;" horiz-adv-x="1023" 
d="M979 528h-303v-81h278v-179h-278v-84h305v-184h-563c-247 0 -390 131 -390 356s143 356 390 356h561v-184zM460 528h-40c-103 0 -155 -64 -155 -172c0 -107 52 -172 155 -172h40v344z" />
    <glyph glyph-name="Thorn" unicode="&#xde;" horiz-adv-x="691" 
d="M290 622h89c199 0 294 -98 294 -256c0 -159 -95 -258 -293 -258h-90v-108h-227v712h227v-90zM290 441v-151h46c73 0 104 19 104 75c0 57 -32 76 -104 76h-46z" />
    <glyph glyph-name="Racute" unicode="&#x154;" horiz-adv-x="724" 
d="M397 760h-164l81 161h226zM63 712h344c187 0 266 -75 266 -206c0 -88 -50 -147 -134 -174v-2c53 -19 80 -58 115 -153l64 -177h-238l-48 145c-23 66 -49 90 -109 90h-34v-235h-226v712zM289 547v-153h76c64 0 90 30 90 79c0 52 -34 74 -94 74h-72z" />
    <glyph glyph-name="Rcaron" unicode="&#x158;" horiz-adv-x="724" 
d="M435 760h-169l-134 161h159l59 -84l59 84h159zM63 712h344c187 0 266 -75 266 -206c0 -88 -50 -147 -134 -174v-2c53 -19 80 -58 115 -153l64 -177h-238l-48 145c-23 66 -49 90 -109 90h-34v-235h-226v712zM289 547v-153h76c64 0 90 30 90 79c0 52 -34 74 -94 74h-72z
" />
    <glyph glyph-name="Rcommaaccent" unicode="&#x156;" horiz-adv-x="724" 
d="M63 712h344c187 0 266 -75 266 -206c0 -88 -50 -147 -134 -174v-2c53 -19 80 -58 115 -153l64 -177h-238l-48 145c-23 66 -49 90 -109 90h-34v-235h-226v712zM289 547v-153h76c64 0 90 30 90 79c0 52 -34 74 -94 74h-72zM445 -173l-76 -112h-77l48 112h-48v129h153v-129z
" />
    <glyph glyph-name="Sacute" unicode="&#x15a;" horiz-adv-x="676" 
d="M389 760h-164l81 161h226zM342 728c182 0 297 -78 297 -231h-241c0 41 -24 63 -70 63c-42 0 -64 -17 -64 -44c0 -33 28 -42 116 -63c143 -35 270 -78 270 -236c0 -146 -116 -233 -316 -233c-201 0 -317 91 -317 245h248c0 -47 23 -70 78 -70c44 0 67 18 67 45
c0 36 -30 45 -114 67c-140 38 -263 77 -263 228c0 140 109 229 309 229z" />
    <glyph glyph-name="Scaron" unicode="&#x160;" horiz-adv-x="676" 
d="M427 760h-169l-134 161h159l59 -84l59 84h159zM342 728c182 0 297 -78 297 -231h-241c0 41 -24 63 -70 63c-42 0 -64 -17 -64 -44c0 -33 28 -42 116 -63c143 -35 270 -78 270 -236c0 -146 -116 -233 -316 -233c-201 0 -317 91 -317 245h248c0 -47 23 -70 78 -70
c44 0 67 18 67 45c0 36 -30 45 -114 67c-140 38 -263 77 -263 228c0 140 109 229 309 229z" />
    <glyph glyph-name="Scedilla" unicode="&#x15e;" horiz-adv-x="676" 
d="M650 217c0 -136 -101 -221 -278 -232l-26 -43c11 3 22 5 33 5c63 0 93 -32 93 -82c0 -62 -47 -110 -140 -110c-44 0 -93 12 -133 37l34 70c31 -14 62 -23 83 -23c22 0 34 8 34 22s-11 24 -35 24c-10 0 -22 -3 -29 -7l-47 36l42 72c-168 15 -264 103 -264 243h248
c0 -47 23 -70 78 -70c44 0 67 18 67 45c0 36 -30 45 -114 67c-140 38 -263 77 -263 228c0 140 109 229 309 229c182 0 297 -78 297 -231h-241c0 41 -24 63 -70 63c-42 0 -64 -17 -64 -44c0 -33 28 -42 116 -63c143 -35 270 -78 270 -236z" />
    <glyph glyph-name="Scircumflex" unicode="&#x15c;" horiz-adv-x="676" 
d="M257 921h169l134 -161h-159l-59 84l-59 -84h-159zM342 728c182 0 297 -78 297 -231h-241c0 41 -24 63 -70 63c-42 0 -64 -17 -64 -44c0 -33 28 -42 116 -63c143 -35 270 -78 270 -236c0 -146 -116 -233 -316 -233c-201 0 -317 91 -317 245h248c0 -47 23 -70 78 -70
c44 0 67 18 67 45c0 36 -30 45 -114 67c-140 38 -263 77 -263 228c0 140 109 229 309 229z" />
    <glyph glyph-name="Scommaaccent" unicode="&#x218;" horiz-adv-x="676" 
d="M342 728c182 0 297 -78 297 -231h-241c0 41 -24 63 -70 63c-42 0 -64 -17 -64 -44c0 -33 28 -42 116 -63c143 -35 270 -78 270 -236c0 -146 -116 -233 -316 -233c-201 0 -317 91 -317 245h248c0 -47 23 -70 78 -70c44 0 67 18 67 45c0 36 -30 45 -114 67
c-140 38 -263 77 -263 228c0 140 109 229 309 229zM411 -173l-76 -112h-77l48 112h-48v129h153v-129z" />
    <glyph glyph-name="Germandbls" unicode="&#x1e9e;" horiz-adv-x="840" 
d="M776 581l-139 -158c116 -38 182 -113 182 -225c0 -139 -107 -215 -270 -215c-158 0 -245 73 -245 228h186c0 -40 16 -61 52 -61c32 0 50 17 50 50c0 61 -61 91 -174 98v148l82 93c-18 9 -42 14 -72 14c-97 0 -149 -54 -149 -160v-393h-226v389c0 224 138 340 391 340
c141 0 261 -59 332 -148z" />
    <glyph glyph-name="Tbar" unicode="&#x166;" horiz-adv-x="650" 
d="M438 523v-147h125v-130h-125v-246h-226v246h-125v130h125v147h-205v189h636v-189h-205z" />
    <glyph glyph-name="Tcaron" unicode="&#x164;" horiz-adv-x="650" 
d="M410 760h-169l-134 161h159l59 -84l59 84h159zM643 523h-205v-523h-226v523h-205v189h636v-189z" />
    <glyph glyph-name="Tcedilla" unicode="&#x162;" horiz-adv-x="650" 
d="M643 523h-205v-523h-226v523h-205v189h636v-189zM401 -173l-76 -112h-77l48 112h-48v129h153v-129z" />
    <glyph glyph-name="Tcommaaccent" unicode="&#x21a;" horiz-adv-x="650" 
d="M643 523h-205v-523h-226v523h-205v189h636v-189zM401 -173l-76 -112h-77l48 112h-48v129h153v-129z" />
    <glyph glyph-name="Uacute" unicode="&#xda;" horiz-adv-x="738" 
d="M415 760h-164l81 161h226zM681 712v-427c0 -190 -112 -301 -312 -301s-312 111 -312 301v427h226v-425c0 -70 30 -107 86 -107s86 37 86 107v425h226z" />
    <glyph glyph-name="Ubreve" unicode="&#x16c;" horiz-adv-x="738" 
d="M424 921h128c-3 -102 -67 -160 -184 -160s-181 58 -184 160h128c1 -32 19 -45 56 -45s54 13 56 45zM681 712v-427c0 -190 -112 -301 -312 -301s-312 111 -312 301v427h226v-425c0 -70 30 -107 86 -107s86 37 86 107v425h226z" />
    <glyph glyph-name="Ucircumflex" unicode="&#xdb;" horiz-adv-x="738" 
d="M283 921h169l134 -161h-159l-59 84l-59 -84h-159zM681 712v-427c0 -190 -112 -301 -312 -301s-312 111 -312 301v427h226v-425c0 -70 30 -107 86 -107s86 37 86 107v425h226z" />
    <glyph glyph-name="Udieresis" unicode="&#xdc;" horiz-adv-x="738" 
d="M336 769h-182v152h182v-152zM582 769h-182v152h182v-152zM681 712v-427c0 -190 -112 -301 -312 -301s-312 111 -312 301v427h226v-425c0 -70 30 -107 86 -107s86 37 86 107v425h226z" />
    <glyph glyph-name="Ugrave" unicode="&#xd9;" horiz-adv-x="738" 
d="M404 921l81 -161h-164l-143 161h226zM681 712v-427c0 -190 -112 -301 -312 -301s-312 111 -312 301v427h226v-425c0 -70 30 -107 86 -107s86 37 86 107v425h226z" />
    <glyph glyph-name="Uhungarumlaut" unicode="&#x170;" horiz-adv-x="738" 
d="M303 760h-150l101 161h192zM539 760h-150l101 161h192zM681 712v-427c0 -190 -112 -301 -312 -301s-312 111 -312 301v427h226v-425c0 -70 30 -107 86 -107s86 37 86 107v425h226z" />
    <glyph glyph-name="Umacron" unicode="&#x16a;" horiz-adv-x="738" 
d="M581 773h-426v127h426v-127zM681 712v-427c0 -190 -112 -301 -312 -301s-312 111 -312 301v427h226v-425c0 -70 30 -107 86 -107s86 37 86 107v425h226z" />
    <glyph glyph-name="Uogonek" unicode="&#x172;" horiz-adv-x="738" 
d="M681 712v-427c0 -115 -39 -191 -115 -255c-45 -39 -61 -67 -61 -94c0 -20 11 -29 30 -29c10 0 23 3 31 7v-99c-31 -10 -71 -17 -113 -17c-95 0 -139 36 -139 97c0 39 24 65 65 87v2h-10c-200 0 -312 111 -312 301v427h226v-425c0 -70 30 -107 86 -107s86 37 86 107v425
h226z" />
    <glyph glyph-name="Uring" unicode="&#x16e;" horiz-adv-x="738" 
d="M368 1006c70 0 125 -57 125 -126c0 -68 -55 -125 -125 -125c-69 0 -126 57 -126 125c0 69 57 126 126 126zM368 940c-33 0 -60 -27 -60 -60s27 -60 60 -60s60 27 60 60s-27 60 -60 60zM681 712v-427c0 -190 -112 -301 -312 -301s-312 111 -312 301v427h226v-425
c0 -70 30 -107 86 -107s86 37 86 107v425h226z" />
    <glyph glyph-name="Utilde" unicode="&#x168;" horiz-adv-x="738" 
d="M466 921h110c-5 -98 -50 -160 -137 -160c-61 0 -98 38 -134 38c-22 0 -33 -14 -36 -38h-110c5 99 50 160 137 160c61 0 99 -37 134 -37c22 0 33 11 36 37zM681 712v-427c0 -190 -112 -301 -312 -301s-312 111 -312 301v427h226v-425c0 -70 30 -107 86 -107s86 37 86 107
v425h226z" />
    <glyph glyph-name="Wacute" unicode="&#x1e82;" horiz-adv-x="1060" 
d="M577 760h-164l81 161h226zM921 0h-309l-48 290c-13 84 -25 167 -33 250h-2c-8 -83 -20 -166 -33 -250l-48 -290h-309l-134 712h218l40 -252c14 -90 26 -184 36 -278h2c10 94 23 187 39 278l44 252h292l44 -252c16 -91 29 -184 39 -278h2c10 94 22 188 36 278l40 252h218z
" />
    <glyph glyph-name="Wcircumflex" unicode="&#x174;" horiz-adv-x="1060" 
d="M445 921h169l134 -161h-159l-59 84l-59 -84h-159zM921 0h-309l-48 290c-13 84 -25 167 -33 250h-2c-8 -83 -20 -166 -33 -250l-48 -290h-309l-134 712h218l40 -252c14 -90 26 -184 36 -278h2c10 94 23 187 39 278l44 252h292l44 -252c16 -91 29 -184 39 -278h2
c10 94 22 188 36 278l40 252h218z" />
    <glyph glyph-name="Wdieresis" unicode="&#x1e84;" horiz-adv-x="1060" 
d="M498 769h-182v152h182v-152zM744 769h-182v152h182v-152zM921 0h-309l-48 290c-13 84 -25 167 -33 250h-2c-8 -83 -20 -166 -33 -250l-48 -290h-309l-134 712h218l40 -252c14 -90 26 -184 36 -278h2c10 94 23 187 39 278l44 252h292l44 -252c16 -91 29 -184 39 -278h2
c10 94 22 188 36 278l40 252h218z" />
    <glyph glyph-name="Wgrave" unicode="&#x1e80;" horiz-adv-x="1060" 
d="M566 921l81 -161h-164l-143 161h226zM921 0h-309l-48 290c-13 84 -25 167 -33 250h-2c-8 -83 -20 -166 -33 -250l-48 -290h-309l-134 712h218l40 -252c14 -90 26 -184 36 -278h2c10 94 23 187 39 278l44 252h292l44 -252c16 -91 29 -184 39 -278h2c10 94 22 188 36 278
l40 252h218z" />
    <glyph glyph-name="Yacute" unicode="&#xdd;" horiz-adv-x="714" 
d="M404 760h-164l81 161h226zM470 252v-252h-226v252l-245 460h247l50 -120c23 -55 45 -116 60 -174h2c15 58 37 119 60 174l50 120h247z" />
    <glyph glyph-name="Ycircumflex" unicode="&#x176;" horiz-adv-x="714" 
d="M272 921h169l134 -161h-159l-59 84l-59 -84h-159zM470 252v-252h-226v252l-245 460h247l50 -120c23 -55 45 -116 60 -174h2c15 58 37 119 60 174l50 120h247z" />
    <glyph glyph-name="Ydieresis" unicode="&#x178;" horiz-adv-x="714" 
d="M325 769h-182v152h182v-152zM571 769h-182v152h182v-152zM470 252v-252h-226v252l-245 460h247l50 -120c23 -55 45 -116 60 -174h2c15 58 37 119 60 174l50 120h247z" />
    <glyph glyph-name="Ygrave" unicode="&#x1ef2;" horiz-adv-x="714" 
d="M393 921l81 -161h-164l-143 161h226zM470 252v-252h-226v252l-245 460h247l50 -120c23 -55 45 -116 60 -174h2c15 58 37 119 60 174l50 120h247z" />
    <glyph glyph-name="Zacute" unicode="&#x179;" horiz-adv-x="616" 
d="M353 760h-164l81 161h226zM577 519l-285 -333v-2h301v-184h-573v193l286 333v2h-273v184h544v-193z" />
    <glyph glyph-name="Zcaron" unicode="&#x17d;" horiz-adv-x="616" 
d="M391 760h-169l-134 161h159l59 -84l59 84h159zM577 519l-285 -333v-2h301v-184h-573v193l286 333v2h-273v184h544v-193z" />
    <glyph glyph-name="Zdotaccent" unicode="&#x17b;" horiz-adv-x="616" 
d="M414 769h-218v152h218v-152zM577 519l-285 -333v-2h301v-184h-573v193l286 333v2h-273v184h544v-193z" />
    <glyph glyph-name="J.acute.loclNLD" horiz-adv-x="446" 
d="M325 764h-164l81 152h226zM388 712v-444c0 -193 -87 -279 -269 -279c-37 0 -74 5 -104 12v182c11 -2 30 -4 42 -4c80 0 105 35 105 143v390h226z" />
    <glyph glyph-name="Ccedilla.ss01" horiz-adv-x="744" 
d="M375 728c200 0 332 -103 340 -290h-241c-7 64 -40 100 -99 100c-66 0 -109 -68 -109 -182c0 -112 44 -182 110 -182c56 0 94 40 100 107h243c-15 -194 -148 -297 -343 -297c-217 0 -348 141 -348 372c0 232 132 372 347 372zM383 -217h-201l143 168h160z" />
    <glyph glyph-name="Scedilla.ss01" horiz-adv-x="676" 
d="M342 728c182 0 297 -78 297 -231h-241c0 41 -24 63 -70 63c-42 0 -64 -17 -64 -44c0 -33 28 -42 116 -63c143 -35 270 -78 270 -236c0 -146 -116 -233 -316 -233c-201 0 -317 91 -317 245h248c0 -47 23 -70 78 -70c44 0 67 18 67 45c0 36 -30 45 -114 67
c-140 38 -263 77 -263 228c0 140 109 229 309 229zM343 -217h-201l143 168h160z" />
    <glyph glyph-name="Tcedilla.ss01" horiz-adv-x="650" 
d="M643 523h-205v-523h-226v523h-205v189h636v-189zM333 -217h-201l143 168h160z" />
    <glyph glyph-name="aacute" unicode="&#xe1;" horiz-adv-x="590" 
d="M333 560h-164l81 152h226zM292 524c178 0 256 -80 256 -216v-156c0 -70 5 -114 17 -152h-197c-5 17 -8 40 -8 62h-2c-41 -51 -97 -77 -165 -77c-113 0 -179 70 -179 161c0 94 59 145 212 168c36 6 83 11 112 13v18c0 43 -19 60 -48 60c-30 0 -48 -17 -48 -59h-207
c6 93 74 178 257 178zM338 207v18c-16 -1 -47 -5 -66 -10c-34 -9 -46 -28 -46 -54c0 -28 16 -47 46 -47c17 0 36 6 48 21c15 18 18 38 18 72z" />
    <glyph glyph-name="abreve" unicode="&#x103;" horiz-adv-x="590" 
d="M342 712h128c-3 -102 -67 -160 -184 -160s-181 58 -184 160h128c1 -32 19 -45 56 -45s54 13 56 45zM292 524c178 0 256 -80 256 -216v-156c0 -70 5 -114 17 -152h-197c-5 17 -8 40 -8 62h-2c-41 -51 -97 -77 -165 -77c-113 0 -179 70 -179 161c0 94 59 145 212 168
c36 6 83 11 112 13v18c0 43 -19 60 -48 60c-30 0 -48 -17 -48 -59h-207c6 93 74 178 257 178zM338 207v18c-16 -1 -47 -5 -66 -10c-34 -9 -46 -28 -46 -54c0 -28 16 -47 46 -47c17 0 36 6 48 21c15 18 18 38 18 72z" />
    <glyph glyph-name="acircumflex" unicode="&#xe2;" horiz-adv-x="590" 
d="M339 560l-53 75l-52 -75h-159l127 152h169l127 -152h-159zM292 524c178 0 256 -80 256 -216v-156c0 -70 5 -114 17 -152h-197c-5 17 -8 40 -8 62h-2c-41 -51 -97 -77 -165 -77c-113 0 -179 70 -179 161c0 94 59 145 212 168c36 6 83 11 112 13v18c0 43 -19 60 -48 60
c-30 0 -48 -17 -48 -59h-207c6 93 74 178 257 178zM338 207v18c-16 -1 -47 -5 -66 -10c-34 -9 -46 -28 -46 -54c0 -28 16 -47 46 -47c17 0 36 6 48 21c15 18 18 38 18 72z" />
    <glyph glyph-name="adieresis" unicode="&#xe4;" horiz-adv-x="590" 
d="M254 560h-182v152h182v-152zM500 560h-182v152h182v-152zM292 524c178 0 256 -80 256 -216v-156c0 -70 5 -114 17 -152h-197c-5 17 -8 40 -8 62h-2c-41 -51 -97 -77 -165 -77c-113 0 -179 70 -179 161c0 94 59 145 212 168c36 6 83 11 112 13v18c0 43 -19 60 -48 60
c-30 0 -48 -17 -48 -59h-207c6 93 74 178 257 178zM338 207v18c-16 -1 -47 -5 -66 -10c-34 -9 -46 -28 -46 -54c0 -28 16 -47 46 -47c17 0 36 6 48 21c15 18 18 38 18 72z" />
    <glyph glyph-name="agrave" unicode="&#xe0;" horiz-adv-x="590" 
d="M322 712l81 -152h-164l-143 152h226zM292 524c178 0 256 -80 256 -216v-156c0 -70 5 -114 17 -152h-197c-5 17 -8 40 -8 62h-2c-41 -51 -97 -77 -165 -77c-113 0 -179 70 -179 161c0 94 59 145 212 168c36 6 83 11 112 13v18c0 43 -19 60 -48 60c-30 0 -48 -17 -48 -59
h-207c6 93 74 178 257 178zM338 207v18c-16 -1 -47 -5 -66 -10c-34 -9 -46 -28 -46 -54c0 -28 16 -47 46 -47c17 0 36 6 48 21c15 18 18 38 18 72z" />
    <glyph glyph-name="amacron" unicode="&#x101;" horiz-adv-x="590" 
d="M499 572h-426v127h426v-127zM292 524c178 0 256 -80 256 -216v-156c0 -70 5 -114 17 -152h-197c-5 17 -8 40 -8 62h-2c-41 -51 -97 -77 -165 -77c-113 0 -179 70 -179 161c0 94 59 145 212 168c36 6 83 11 112 13v18c0 43 -19 60 -48 60c-30 0 -48 -17 -48 -59h-207
c6 93 74 178 257 178zM338 207v18c-16 -1 -47 -5 -66 -10c-34 -9 -46 -28 -46 -54c0 -28 16 -47 46 -47c17 0 36 6 48 21c15 18 18 38 18 72z" />
    <glyph glyph-name="aogonek" unicode="&#x105;" horiz-adv-x="590" 
d="M537 -88c10 0 22 3 31 7v-104c-33 -11 -76 -18 -121 -18c-98 0 -144 38 -144 100c0 45 36 76 96 103h-31c-5 17 -8 40 -8 62h-2c-41 -51 -97 -77 -165 -77c-113 0 -179 70 -179 161c0 94 59 145 212 168c36 6 83 11 112 13v18c0 43 -19 60 -48 60c-30 0 -48 -17 -48 -59
h-207c6 93 74 178 257 178c178 0 256 -80 256 -216v-156c0 -70 5 -114 17 -152c-44 -26 -57 -43 -57 -62c0 -18 10 -26 29 -26zM338 207v18c-16 -1 -47 -5 -66 -10c-34 -9 -46 -28 -46 -54c0 -28 16 -47 46 -47c17 0 36 6 48 21c15 18 18 38 18 72z" />
    <glyph glyph-name="aring" unicode="&#xe5;" horiz-adv-x="590" 
d="M286 797c70 0 125 -57 125 -126c0 -68 -55 -125 -125 -125c-69 0 -126 57 -126 125c0 69 57 126 126 126zM286 731c-33 0 -60 -27 -60 -60s27 -60 60 -60s60 27 60 60s-27 60 -60 60zM292 524c178 0 256 -80 256 -216v-156c0 -70 5 -114 17 -152h-197c-5 17 -8 40 -8 62
h-2c-41 -51 -97 -77 -165 -77c-113 0 -179 70 -179 161c0 94 59 145 212 168c36 6 83 11 112 13v18c0 43 -19 60 -48 60c-30 0 -48 -17 -48 -59h-207c6 93 74 178 257 178zM338 207v18c-16 -1 -47 -5 -66 -10c-34 -9 -46 -28 -46 -54c0 -28 16 -47 46 -47c17 0 36 6 48 21
c15 18 18 38 18 72z" />
    <glyph glyph-name="atilde" unicode="&#xe3;" horiz-adv-x="590" 
d="M384 712h110c-5 -98 -50 -160 -137 -160c-61 0 -98 38 -134 38c-22 0 -33 -14 -36 -38h-110c5 99 50 160 137 160c61 0 99 -37 134 -37c22 0 33 11 36 37zM292 524c178 0 256 -80 256 -216v-156c0 -70 5 -114 17 -152h-197c-5 17 -8 40 -8 62h-2
c-41 -51 -97 -77 -165 -77c-113 0 -179 70 -179 161c0 94 59 145 212 168c36 6 83 11 112 13v18c0 43 -19 60 -48 60c-30 0 -48 -17 -48 -59h-207c6 93 74 178 257 178zM338 207v18c-16 -1 -47 -5 -66 -10c-34 -9 -46 -28 -46 -54c0 -28 16 -47 46 -47c17 0 36 6 48 21
c15 18 18 38 18 72z" />
    <glyph glyph-name="ae" unicode="&#xe6;" horiz-adv-x="926" 
d="M622 120c31 0 52 16 54 39h222c-23 -101 -132 -175 -272 -175c-86 0 -152 30 -197 78c-40 -54 -104 -78 -192 -78c-149 0 -223 71 -223 162c0 139 113 174 328 174h9v25c0 40 -15 60 -54 60c-33 0 -54 -17 -54 -59h-207c6 93 76 178 262 178c73 0 128 -16 167 -45
c41 29 94 45 157 45c128 0 216 -56 258 -151c19 -43 26 -88 26 -163h-351c4 -73 32 -90 67 -90zM622 394c-30 0 -57 -16 -65 -77h130c-3 58 -32 77 -65 77zM351 222h-15c-76 0 -110 -24 -110 -63c0 -29 15 -51 48 -51c24 0 40 6 54 20c16 17 23 40 23 80v14z" />
    <glyph glyph-name="cacute" unicode="&#x107;" horiz-adv-x="602" 
d="M351 560h-164l81 152h226zM304 524c158 0 269 -83 282 -221h-225c-4 42 -25 61 -52 61c-38 0 -59 -36 -59 -107c0 -76 22 -112 60 -112c29 0 50 23 51 69h225c-11 -145 -120 -230 -281 -230c-174 0 -285 105 -285 273c0 164 110 267 284 267z" />
    <glyph glyph-name="ccaron" unicode="&#x10d;" horiz-adv-x="602" 
d="M389 560h-169l-127 152h159l52 -75l53 75h159zM304 524c158 0 269 -83 282 -221h-225c-4 42 -25 61 -52 61c-38 0 -59 -36 -59 -107c0 -76 22 -112 60 -112c29 0 50 23 51 69h225c-11 -145 -120 -230 -281 -230c-174 0 -285 105 -285 273c0 164 110 267 284 267z" />
    <glyph glyph-name="ccedilla" unicode="&#xe7;" horiz-adv-x="602" 
d="M310 145c29 0 50 23 51 69h225c-10 -134 -104 -217 -245 -228l-26 -44c11 3 22 5 33 5c63 0 93 -32 93 -82c0 -62 -47 -110 -140 -110c-44 0 -93 12 -133 37l34 70c31 -14 62 -23 83 -23c22 0 34 8 34 22s-11 24 -35 24c-10 0 -22 -3 -29 -7l-47 36l43 74
c-143 19 -231 119 -231 269c0 164 110 267 284 267c158 0 269 -83 282 -221h-225c-4 42 -25 61 -52 61c-38 0 -59 -36 -59 -107c0 -76 22 -112 60 -112z" />
    <glyph glyph-name="ccircumflex" unicode="&#x109;" horiz-adv-x="602" 
d="M357 560l-53 75l-52 -75h-159l127 152h169l127 -152h-159zM304 524c158 0 269 -83 282 -221h-225c-4 42 -25 61 -52 61c-38 0 -59 -36 -59 -107c0 -76 22 -112 60 -112c29 0 50 23 51 69h225c-11 -145 -120 -230 -281 -230c-174 0 -285 105 -285 273
c0 164 110 267 284 267z" />
    <glyph glyph-name="cdotaccent" unicode="&#x10b;" horiz-adv-x="602" 
d="M413 560h-218v152h218v-152zM304 524c158 0 269 -83 282 -221h-225c-4 42 -25 61 -52 61c-38 0 -59 -36 -59 -107c0 -76 22 -112 60 -112c29 0 50 23 51 69h225c-11 -145 -120 -230 -281 -230c-174 0 -285 105 -285 273c0 164 110 267 284 267z" />
    <glyph glyph-name="eth" unicode="&#xf0;" horiz-adv-x="612" 
d="M520 513c50 -77 72 -155 72 -247c0 -181 -115 -282 -294 -282c-169 0 -278 97 -278 248c0 159 90 261 230 261c19 0 36 -2 50 -5v2c-17 19 -37 38 -58 58l-131 -44l-30 85l80 27c-20 15 -39 28 -57 40l193 72c21 -13 42 -28 64 -45l121 41l30 -85l-74 -25
c31 -32 59 -66 82 -101zM310 138c39 0 59 40 59 111s-20 111 -59 111s-59 -40 -59 -111s20 -111 59 -111z" />
    <glyph glyph-name="dcaron" unicode="&#x10f;" horiz-adv-x="634" 
d="M587 0h-208v54h-2c-31 -48 -80 -70 -131 -70c-137 0 -226 105 -226 270s85 270 219 270c49 0 98 -19 128 -58h2v246h218v-712zM738 533h-123l19 179h170zM315 360c-41 0 -66 -41 -66 -106s25 -106 66 -106s66 43 66 106s-25 106 -66 106z" />
    <glyph glyph-name="dcroat" unicode="&#x111;" horiz-adv-x="633" 
d="M652 564h-65v-564h-208v54h-2c-31 -48 -80 -70 -131 -70c-137 0 -226 105 -226 270s85 270 219 270c49 0 98 -19 128 -58h2v98h-143v91h143v57h218v-57h65v-91zM315 148c41 0 66 43 66 106s-25 106 -66 106s-66 -41 -66 -106s25 -106 66 -106z" />
    <glyph glyph-name="eacute" unicode="&#xe9;" horiz-adv-x="605" 
d="M349 560h-164l81 152h226zM301 120c31 0 52 16 54 39h222c-23 -101 -132 -175 -272 -175c-188 0 -285 122 -285 273c0 150 100 267 281 267c128 0 216 -56 258 -151c19 -43 26 -88 26 -163h-351c4 -73 32 -90 67 -90zM301 394c-31 0 -58 -16 -66 -77h131
c-3 58 -32 77 -65 77z" />
    <glyph glyph-name="ebreve" unicode="&#x115;" horiz-adv-x="605" 
d="M302 552c-117 0 -181 58 -184 160h128c1 -32 19 -45 56 -45s54 13 56 45h128c-3 -102 -67 -160 -184 -160zM301 120c31 0 52 16 54 39h222c-23 -101 -132 -175 -272 -175c-188 0 -285 122 -285 273c0 150 100 267 281 267c128 0 216 -56 258 -151c19 -43 26 -88 26 -163
h-351c4 -73 32 -90 67 -90zM301 394c-31 0 -58 -16 -66 -77h131c-3 58 -32 77 -65 77z" />
    <glyph glyph-name="ecaron" unicode="&#x11b;" horiz-adv-x="605" 
d="M218 560l-127 152h159l52 -75l53 75h159l-127 -152h-169zM301 120c31 0 52 16 54 39h222c-23 -101 -132 -175 -272 -175c-188 0 -285 122 -285 273c0 150 100 267 281 267c128 0 216 -56 258 -151c19 -43 26 -88 26 -163h-351c4 -73 32 -90 67 -90zM301 394
c-31 0 -58 -16 -66 -77h131c-3 58 -32 77 -65 77z" />
    <glyph glyph-name="ecircumflex" unicode="&#xea;" horiz-adv-x="605" 
d="M250 560h-159l127 152h169l127 -152h-159l-53 75zM301 120c31 0 52 16 54 39h222c-23 -101 -132 -175 -272 -175c-188 0 -285 122 -285 273c0 150 100 267 281 267c128 0 216 -56 258 -151c19 -43 26 -88 26 -163h-351c4 -73 32 -90 67 -90zM301 394
c-31 0 -58 -16 -66 -77h131c-3 58 -32 77 -65 77z" />
    <glyph glyph-name="edieresis" unicode="&#xeb;" horiz-adv-x="605" 
d="M270 560h-182v152h182v-152zM516 560h-182v152h182v-152zM301 120c31 0 52 16 54 39h222c-23 -101 -132 -175 -272 -175c-188 0 -285 122 -285 273c0 150 100 267 281 267c128 0 216 -56 258 -151c19 -43 26 -88 26 -163h-351c4 -73 32 -90 67 -90zM301 394
c-31 0 -58 -16 -66 -77h131c-3 58 -32 77 -65 77z" />
    <glyph glyph-name="edotaccent" unicode="&#x117;" horiz-adv-x="605" 
d="M411 560h-218v152h218v-152zM301 120c31 0 52 16 54 39h222c-23 -101 -132 -175 -272 -175c-188 0 -285 122 -285 273c0 150 100 267 281 267c128 0 216 -56 258 -151c19 -43 26 -88 26 -163h-351c4 -73 32 -90 67 -90zM301 394c-31 0 -58 -16 -66 -77h131
c-3 58 -32 77 -65 77z" />
    <glyph glyph-name="egrave" unicode="&#xe8;" horiz-adv-x="605" 
d="M255 560l-143 152h226l81 -152h-164zM301 120c31 0 52 16 54 39h222c-23 -101 -132 -175 -272 -175c-188 0 -285 122 -285 273c0 150 100 267 281 267c128 0 216 -56 258 -151c19 -43 26 -88 26 -163h-351c4 -73 32 -90 67 -90zM301 394c-31 0 -58 -16 -66 -77h131
c-3 58 -32 77 -65 77z" />
    <glyph glyph-name="emacron" unicode="&#x113;" horiz-adv-x="605" 
d="M515 572h-426v127h426v-127zM301 120c31 0 52 16 54 39h222c-23 -101 -132 -175 -272 -175c-188 0 -285 122 -285 273c0 150 100 267 281 267c128 0 216 -56 258 -151c19 -43 26 -88 26 -163h-351c4 -73 32 -90 67 -90zM301 394c-31 0 -58 -16 -66 -77h131
c-3 58 -32 77 -65 77z" />
    <glyph glyph-name="eogonek" unicode="&#x119;" horiz-adv-x="605" 
d="M497 32c-35 -34 -44 -60 -44 -87c0 -23 10 -33 33 -33c9 0 22 3 30 7v-104c-33 -11 -76 -18 -121 -18c-98 0 -144 38 -144 100c0 37 24 63 66 86v2c-6 -1 -9 -1 -12 -1c-188 0 -285 122 -285 273c0 150 100 267 281 267c128 0 216 -56 258 -151c19 -43 26 -88 26 -163
h-351c4 -73 32 -90 67 -90c31 0 52 16 54 39h222c-9 -37 -30 -79 -80 -127zM301 394c-31 0 -58 -16 -66 -77h131c-3 58 -32 77 -65 77z" />
    <glyph glyph-name="gbreve" unicode="&#x11f;" 
d="M352 712h128c-3 -102 -67 -160 -184 -160s-181 58 -184 160h128c1 -32 19 -45 56 -45s54 13 56 45zM231 523c57 0 114 -35 142 -83h2v68h202v-472c0 -165 -101 -234 -284 -234c-147 0 -237 60 -251 166h203c2 -27 20 -43 51 -43c42 0 69 25 69 100v51h-2
c-27 -41 -83 -69 -138 -69c-127 0 -205 102 -205 258c0 157 81 258 211 258zM310 363c-42 0 -67 -39 -67 -98c0 -58 25 -96 67 -96c38 0 62 37 62 96c0 60 -24 98 -62 98z" />
    <glyph glyph-name="gcircumflex" unicode="&#x11d;" 
d="M349 560l-53 75l-52 -75h-159l127 152h169l127 -152h-159zM231 523c57 0 114 -35 142 -83h2v68h202v-472c0 -165 -101 -234 -284 -234c-147 0 -237 60 -251 166h203c2 -27 20 -43 51 -43c42 0 69 25 69 100v51h-2c-27 -41 -83 -69 -138 -69c-127 0 -205 102 -205 258
c0 157 81 258 211 258zM310 363c-42 0 -67 -39 -67 -98c0 -58 25 -96 67 -96c38 0 62 37 62 96c0 60 -24 98 -62 98z" />
    <glyph glyph-name="gcommaaccent" unicode="&#x123;" 
d="M324 691h48v-129h-153v129l76 112h77zM231 523c57 0 114 -35 142 -83h2v68h202v-472c0 -165 -101 -234 -284 -234c-147 0 -237 60 -251 166h203c2 -27 20 -43 51 -43c42 0 69 25 69 100v51h-2c-27 -41 -83 -69 -138 -69c-127 0 -205 102 -205 258c0 157 81 258 211 258z
M310 363c-42 0 -67 -39 -67 -98c0 -58 25 -96 67 -96c38 0 62 37 62 96c0 60 -24 98 -62 98z" />
    <glyph glyph-name="gdotaccent" unicode="&#x121;" 
d="M405 560h-218v152h218v-152zM231 523c57 0 114 -35 142 -83h2v68h202v-472c0 -165 -101 -234 -284 -234c-147 0 -237 60 -251 166h203c2 -27 20 -43 51 -43c42 0 69 25 69 100v51h-2c-27 -41 -83 -69 -138 -69c-127 0 -205 102 -205 258c0 157 81 258 211 258zM310 363
c-42 0 -67 -39 -67 -98c0 -58 25 -96 67 -96c38 0 62 37 62 96c0 60 -24 98 -62 98z" />
    <glyph glyph-name="hbar" unicode="&#x127;" 
d="M397 523c114 0 185 -73 185 -210v-313h-218v285c0 44 -13 71 -45 71c-37 0 -54 -32 -54 -110v-246h-218v564h-66v91h66v57h218v-57h142v-91h-142v-97h2c27 32 70 56 130 56z" />
    <glyph glyph-name="hcircumflex" unicode="&#x125;" 
d="M226 921h169l134 -161h-159l-59 84l-59 -84h-159zM265 467h2c27 32 70 56 130 56c114 0 185 -73 185 -210v-313h-218v285c0 44 -13 71 -45 71c-37 0 -54 -32 -54 -110v-246h-218v712h218v-245z" />
    <glyph glyph-name="dotlessi" unicode="&#x131;" horiz-adv-x="312" 
d="M265 0h-218v508h218v-508z" />
    <glyph glyph-name="iacute" unicode="&#xed;" horiz-adv-x="312" 
d="M203 560h-164l81 152h226zM265 0h-218v508h218v-508z" />
    <glyph glyph-name="ibreve" unicode="&#x12d;" horiz-adv-x="312" 
d="M199 712h125c-2 -102 -59 -160 -168 -160s-166 58 -168 160h125c1 -33 13 -45 43 -45s41 12 43 45zM265 0h-218v508h218v-508z" />
    <glyph glyph-name="icircumflex" unicode="&#xee;" horiz-adv-x="312" 
d="M353 564h-151l-46 58l-44 -58h-152l118 148h157zM265 0h-218v508h218v-508z" />
    <glyph glyph-name="idieresis" unicode="&#xef;" horiz-adv-x="312" 
d="M134 560h-152v152h152v-152zM330 560h-152v152h152v-152zM265 0h-218v508h218v-508z" />
    <glyph glyph-name="idotaccent" horiz-adv-x="312" 
d="M265 560h-218v152h218v-152zM265 0h-218v508h218v-508z" />
    <glyph glyph-name="igrave" unicode="&#xec;" horiz-adv-x="312" 
d="M192 712l81 -152h-164l-143 152h226zM265 0h-218v508h218v-508z" />
    <glyph glyph-name="ij" unicode="&#x133;" horiz-adv-x="623" 
d="M265 560h-218v152h218v-152zM576 560h-218v152h218v-152zM265 0h-218v508h218v-508zM576 508v-482c0 -152 -91 -217 -214 -217c-41 0 -76 4 -103 12v147c7 -2 14 -3 24 -3c51 0 75 21 75 101v442h218z" />
    <glyph glyph-name="imacron" unicode="&#x12b;" horiz-adv-x="312" 
d="M319 569h-327v128h327v-128zM265 0h-218v508h218v-508z" />
    <glyph glyph-name="iogonek" unicode="&#x12f;" horiz-adv-x="312" 
d="M265 560h-218v152h218v-152zM237 -88c10 0 22 3 31 7v-104c-33 -11 -76 -18 -121 -18c-98 0 -144 38 -144 100c0 45 36 76 96 103h-52v508h218v-508c-44 -26 -57 -43 -57 -62c0 -18 10 -26 29 -26z" />
    <glyph glyph-name="itilde" unicode="&#x129;" horiz-adv-x="312" 
d="M245 712h97c-5 -99 -47 -163 -127 -163c-53 0 -84 40 -119 40c-16 0 -28 -13 -30 -40h-96c5 100 46 163 126 163c53 0 85 -39 119 -39c17 0 28 12 30 39zM265 0h-218v508h218v-508z" />
    <glyph glyph-name="dotlessj" unicode="&#x237;" horiz-adv-x="311" 
d="M264 508v-482c0 -152 -91 -217 -214 -217c-41 0 -76 4 -103 12v147c7 -2 14 -3 24 -3c51 0 75 21 75 101v442h218z" />
    <glyph glyph-name="jcircumflex" unicode="&#x135;" horiz-adv-x="311" 
d="M352 564h-151l-46 58l-44 -58h-152l118 148h157zM264 508v-482c0 -152 -91 -217 -214 -217c-41 0 -76 4 -103 12v147c7 -2 14 -3 24 -3c51 0 75 21 75 101v442h218z" />
    <glyph glyph-name="kcommaaccent" unicode="&#x137;" horiz-adv-x="612" 
d="M265 0h-218v712h218v-393h2l79 189h261l-158 -243l173 -265h-266l-89 214h-2v-214zM232 -44h153v-129l-76 -112h-77l48 112h-48v129z" />
    <glyph glyph-name="kgreenlandic" unicode="&#x138;" horiz-adv-x="612" 
d="M622 0h-266l-89 214h-2v-214h-218v508h218v-189h2l79 189h261l-158 -243z" />
    <glyph glyph-name="lacute" unicode="&#x13a;" horiz-adv-x="312" 
d="M212 764h-164l81 152h226zM265 0h-218v712h218v-712z" />
    <glyph glyph-name="lcaron" unicode="&#x13e;" horiz-adv-x="312" 
d="M265 0h-218v712h218v-712zM416 533h-123l19 179h170z" />
    <glyph glyph-name="lcommaaccent" unicode="&#x13c;" horiz-adv-x="312" 
d="M265 0h-218v712h218v-712zM233 -173l-76 -112h-77l48 112h-48v129h153v-129z" />
    <glyph glyph-name="ldot" unicode="&#x140;" horiz-adv-x="572" 
d="M265 0h-218v712h218v-712zM553 247h-222v217h222v-217z" />
    <glyph glyph-name="lslash" unicode="&#x142;" horiz-adv-x="392" 
d="M382 399l-77 -46v-353h-218v250l-77 -46v149l77 46v313h218v-211l77 46v-148z" />
    <glyph glyph-name="nacute" unicode="&#x144;" 
d="M362 560h-164l81 152h226zM397 523c114 0 185 -73 185 -210v-313h-218v285c0 44 -13 71 -45 71c-37 0 -54 -32 -54 -110v-246h-218v508h202v-55h2c33 43 82 70 146 70z" />
    <glyph glyph-name="napostrophe" unicode="&#x149;" horiz-adv-x="833" 
d="M237 527l-105 -162h-108l84 162h-60v185h189v-185zM606 523c114 0 185 -73 185 -210v-313h-218v285c0 44 -13 71 -45 71c-37 0 -54 -32 -54 -110v-246h-218v508h202v-55h2c33 43 82 70 146 70z" />
    <glyph glyph-name="ncaron" unicode="&#x148;" 
d="M400 560h-169l-127 152h159l52 -75l53 75h159zM397 523c114 0 185 -73 185 -210v-313h-218v285c0 44 -13 71 -45 71c-37 0 -54 -32 -54 -110v-246h-218v508h202v-55h2c33 43 82 70 146 70z" />
    <glyph glyph-name="ncommaaccent" unicode="&#x146;" 
d="M397 523c114 0 185 -73 185 -210v-313h-218v285c0 44 -13 71 -45 71c-37 0 -54 -32 -54 -110v-246h-218v508h202v-55h2c33 43 82 70 146 70zM391 -173l-76 -112h-77l48 112h-48v129h153v-129z" />
    <glyph glyph-name="eng" unicode="&#x14b;" 
d="M399 524c53 0 96 -16 126 -45c37 -36 57 -83 57 -182v-269c0 -151 -91 -217 -214 -217c-41 0 -75 4 -103 12v147c7 -2 14 -3 24 -3c51 0 75 21 75 101v207c0 38 -5 58 -18 71c-9 8 -17 11 -27 11c-36 0 -54 -29 -54 -112v-245h-218v508h222v-37h2c36 34 79 53 128 53z
" />
    <glyph glyph-name="ntilde" unicode="&#xf1;" 
d="M413 712h110c-5 -98 -50 -160 -137 -160c-61 0 -98 38 -134 38c-22 0 -33 -14 -36 -38h-110c5 99 50 160 137 160c61 0 99 -37 134 -37c22 0 33 11 36 37zM397 523c114 0 185 -73 185 -210v-313h-218v285c0 44 -13 71 -45 71c-37 0 -54 -32 -54 -110v-246h-218v508h202
v-55h2c33 43 82 70 146 70z" />
    <glyph glyph-name="oacute" unicode="&#xf3;" horiz-adv-x="632" 
d="M363 560h-164l81 152h226zM316 524c180 0 296 -105 296 -270s-116 -270 -296 -270s-296 105 -296 270s116 270 296 270zM316 363c-44 0 -66 -39 -66 -109s22 -109 66 -109s66 39 66 109s-22 109 -66 109z" />
    <glyph glyph-name="obreve" unicode="&#x14f;" horiz-adv-x="632" 
d="M372 712h128c-3 -102 -67 -160 -184 -160s-181 58 -184 160h128c1 -32 19 -45 56 -45s54 13 56 45zM316 524c180 0 296 -105 296 -270s-116 -270 -296 -270s-296 105 -296 270s116 270 296 270zM316 363c-44 0 -66 -39 -66 -109s22 -109 66 -109s66 39 66 109
s-22 109 -66 109z" />
    <glyph glyph-name="ocircumflex" unicode="&#xf4;" horiz-adv-x="632" 
d="M369 560l-53 75l-52 -75h-159l127 152h169l127 -152h-159zM316 524c180 0 296 -105 296 -270s-116 -270 -296 -270s-296 105 -296 270s116 270 296 270zM316 363c-44 0 -66 -39 -66 -109s22 -109 66 -109s66 39 66 109s-22 109 -66 109z" />
    <glyph glyph-name="odieresis" unicode="&#xf6;" horiz-adv-x="632" 
d="M284 560h-182v152h182v-152zM530 560h-182v152h182v-152zM316 524c180 0 296 -105 296 -270s-116 -270 -296 -270s-296 105 -296 270s116 270 296 270zM316 363c-44 0 -66 -39 -66 -109s22 -109 66 -109s66 39 66 109s-22 109 -66 109z" />
    <glyph glyph-name="ograve" unicode="&#xf2;" horiz-adv-x="632" 
d="M352 712l81 -152h-164l-143 152h226zM316 524c180 0 296 -105 296 -270s-116 -270 -296 -270s-296 105 -296 270s116 270 296 270zM316 363c-44 0 -66 -39 -66 -109s22 -109 66 -109s66 39 66 109s-22 109 -66 109z" />
    <glyph glyph-name="ohungarumlaut" unicode="&#x151;" horiz-adv-x="632" 
d="M241 560h-150l101 152h192zM477 560h-150l101 152h192zM316 524c180 0 296 -105 296 -270s-116 -270 -296 -270s-296 105 -296 270s116 270 296 270zM316 363c-44 0 -66 -39 -66 -109s22 -109 66 -109s66 39 66 109s-22 109 -66 109z" />
    <glyph glyph-name="omacron" unicode="&#x14d;" horiz-adv-x="632" 
d="M529 572h-426v127h426v-127zM316 524c180 0 296 -105 296 -270s-116 -270 -296 -270s-296 105 -296 270s116 270 296 270zM316 363c-44 0 -66 -39 -66 -109s22 -109 66 -109s66 39 66 109s-22 109 -66 109z" />
    <glyph glyph-name="oslash" unicode="&#xf8;" horiz-adv-x="632" 
d="M569 523l-47 -64c58 -47 90 -118 90 -205c0 -165 -116 -270 -296 -270c-45 0 -86 7 -123 19l-53 -73l-76 55l46 64c-57 47 -90 118 -90 205c0 165 116 270 296 270c45 0 87 -7 123 -19l53 73zM316 374c-55 0 -82 -48 -82 -120c0 -17 2 -33 5 -47l114 158
c-11 6 -23 9 -37 9zM316 134c54 0 82 48 82 120c0 17 -1 33 -5 47l-113 -158c10 -6 22 -9 36 -9z" />
    <glyph glyph-name="otilde" unicode="&#xf5;" horiz-adv-x="632" 
d="M414 712h110c-5 -98 -50 -160 -137 -160c-61 0 -98 38 -134 38c-22 0 -33 -14 -36 -38h-110c5 99 50 160 137 160c61 0 99 -37 134 -37c22 0 33 11 36 37zM316 524c180 0 296 -105 296 -270s-116 -270 -296 -270s-296 105 -296 270s116 270 296 270zM316 363
c-44 0 -66 -39 -66 -109s22 -109 66 -109s66 39 66 109s-22 109 -66 109z" />
    <glyph glyph-name="oe" unicode="&#x153;" horiz-adv-x="958" 
d="M654 120c31 0 52 16 54 39h222c-23 -101 -132 -175 -272 -175c-75 0 -135 23 -178 61c-44 -39 -103 -61 -174 -61c-174 0 -286 105 -286 270s112 270 286 270c70 0 129 -21 173 -60c43 38 102 60 175 60c128 0 216 -56 258 -151c19 -43 26 -88 26 -163h-351
c4 -73 32 -90 67 -90zM654 394c-31 0 -58 -16 -66 -77h131c-3 58 -32 77 -65 77zM316 145c44 0 66 39 66 109s-22 109 -66 109s-66 -39 -66 -109s22 -109 66 -109z" />
    <glyph glyph-name="thorn" unicode="&#xfe;" horiz-adv-x="634" 
d="M265 466h2c30 39 79 58 128 58c134 0 219 -105 219 -270s-85 -270 -219 -270c-49 0 -98 19 -128 58h-2v-227h-218v897h218v-246zM319 360c-41 0 -66 -43 -66 -106s25 -106 66 -106s66 41 66 106s-25 106 -66 106z" />
    <glyph glyph-name="racute" unicode="&#x155;" horiz-adv-x="460" 
d="M288 560h-164l81 152h226zM404 516c17 0 36 -2 52 -6v-185c-18 4 -43 6 -65 6c-81 0 -126 -51 -126 -143v-188h-218v508h203v-67h2c38 53 87 75 152 75z" />
    <glyph glyph-name="rcaron" unicode="&#x159;" horiz-adv-x="460" 
d="M326 560h-169l-127 152h159l52 -75l53 75h159zM404 516c17 0 36 -2 52 -6v-185c-18 4 -43 6 -65 6c-81 0 -126 -51 -126 -143v-188h-218v508h203v-67h2c38 53 87 75 152 75z" />
    <glyph glyph-name="rcommaaccent" unicode="&#x157;" horiz-adv-x="460" 
d="M404 516c17 0 36 -2 52 -6v-185c-18 4 -43 6 -65 6c-81 0 -126 -51 -126 -143v-188h-218v508h203v-67h2c38 53 87 75 152 75zM233 -173l-76 -112h-77l48 112h-48v129h153v-129z" />
    <glyph glyph-name="sacute" unicode="&#x15b;" horiz-adv-x="577" 
d="M335 560h-164l81 152h226zM288 524c152 0 248 -51 248 -166h-206c0 33 -17 47 -45 47c-24 0 -37 -9 -37 -27c0 -20 15 -28 94 -49c103 -27 213 -64 213 -175c0 -103 -90 -170 -259 -170c-183 0 -274 58 -274 181h217c0 -39 15 -55 57 -55c29 0 44 11 44 28
c0 23 -23 33 -117 57c-91 23 -188 53 -188 165c0 93 70 164 253 164z" />
    <glyph glyph-name="scaron" unicode="&#x161;" horiz-adv-x="577" 
d="M373 560h-169l-127 152h159l52 -75l53 75h159zM288 524c152 0 248 -51 248 -166h-206c0 33 -17 47 -45 47c-24 0 -37 -9 -37 -27c0 -20 15 -28 94 -49c103 -27 213 -64 213 -175c0 -103 -90 -170 -259 -170c-183 0 -274 58 -274 181h217c0 -39 15 -55 57 -55
c29 0 44 11 44 28c0 23 -23 33 -117 57c-91 23 -188 53 -188 165c0 93 70 164 253 164z" />
    <glyph glyph-name="scedilla" unicode="&#x15f;" horiz-adv-x="577" 
d="M555 154c0 -95 -77 -160 -222 -169l-26 -43c11 3 22 5 33 5c63 0 93 -32 93 -82c0 -62 -47 -110 -140 -110c-44 0 -93 12 -133 37l34 70c31 -14 62 -23 83 -23c22 0 34 8 34 22s-11 24 -35 24c-10 0 -22 -3 -29 -7l-47 36l42 72c-147 11 -220 69 -220 179h217
c0 -39 15 -55 57 -55c29 0 44 11 44 28c0 23 -23 33 -117 57c-91 23 -188 53 -188 165c0 93 70 164 253 164c152 0 248 -51 248 -166h-206c0 33 -17 47 -45 47c-24 0 -37 -9 -37 -27c0 -20 15 -28 94 -49c103 -27 213 -64 213 -175z" />
    <glyph glyph-name="scircumflex" unicode="&#x15d;" horiz-adv-x="577" 
d="M341 560l-53 75l-52 -75h-159l127 152h169l127 -152h-159zM288 524c152 0 248 -51 248 -166h-206c0 33 -17 47 -45 47c-24 0 -37 -9 -37 -27c0 -20 15 -28 94 -49c103 -27 213 -64 213 -175c0 -103 -90 -170 -259 -170c-183 0 -274 58 -274 181h217c0 -39 15 -55 57 -55
c29 0 44 11 44 28c0 23 -23 33 -117 57c-91 23 -188 53 -188 165c0 93 70 164 253 164z" />
    <glyph glyph-name="scommaaccent" unicode="&#x219;" horiz-adv-x="577" 
d="M288 524c152 0 248 -51 248 -166h-206c0 33 -17 47 -45 47c-24 0 -37 -9 -37 -27c0 -20 15 -28 94 -49c103 -27 213 -64 213 -175c0 -103 -90 -170 -259 -170c-183 0 -274 58 -274 181h217c0 -39 15 -55 57 -55c29 0 44 11 44 28c0 23 -23 33 -117 57
c-91 23 -188 53 -188 165c0 93 70 164 253 164zM372 -173l-76 -112h-77l48 112h-48v129h153v-129z" />
    <glyph glyph-name="germandbls" unicode="&#xdf;" horiz-adv-x="611" 
d="M309 728c157 0 260 -69 260 -180c0 -81 -40 -128 -124 -155v-2c99 -30 148 -88 148 -188c0 -137 -83 -205 -268 -205c-10 0 -22 1 -30 2v159c6 -1 12 -1 15 -1c36 0 60 24 60 72s-24 72 -66 72h-9v168c46 0 69 20 69 55c0 31 -19 47 -47 47c-37 0 -52 -24 -52 -78v-494
h-218v508c0 137 101 220 262 220z" />
    <glyph glyph-name="longs" unicode="&#x17f;" horiz-adv-x="400" 
d="M296 723c34 0 73 -5 99 -11v-145c-4 1 -16 2 -24 2c-48 0 -72 -18 -72 -65v-504h-218v354h-75v154h75v20c0 131 77 195 215 195z" />
    <glyph glyph-name="tbar" unicode="&#x167;" horiz-adv-x="419" 
d="M357 149c13 0 27 2 37 5v-150c-28 -8 -72 -14 -103 -14c-148 0 -213 54 -213 177v42h-68v101h68v54h-74v144h74v147h218v-147h93v-144h-93v-54h86v-101h-86c3 -43 21 -60 61 -60z" />
    <glyph glyph-name="tcaron" unicode="&#x165;" horiz-adv-x="419" 
d="M512 712l-66 -179h-123l19 179h170zM296 354v-122c0 -52 17 -73 61 -73c13 0 27 2 37 5v-160c-28 -8 -72 -14 -103 -14c-148 0 -213 54 -213 177v187h-74v154h74v147h218v-147h93v-154h-93z" />
    <glyph glyph-name="tcedilla" unicode="&#x163;" horiz-adv-x="419" 
d="M357 159c13 0 27 2 37 5v-160c-28 -8 -72 -14 -103 -14c-148 0 -213 54 -213 177v187h-74v154h74v147h218v-147h93v-154h-93v-122c0 -52 17 -73 61 -73zM159 -44h153v-129l-76 -112h-77l48 112h-48v129z" />
    <glyph glyph-name="tcommaaccent" unicode="&#x21b;" horiz-adv-x="419" 
d="M357 159c13 0 27 2 37 5v-160c-28 -8 -72 -14 -103 -14c-148 0 -213 54 -213 177v187h-74v154h74v147h218v-147h93v-154h-93v-122c0 -52 17 -73 61 -73zM159 -44h153v-129l-76 -112h-77l48 112h-48v129z" />
    <glyph glyph-name="uacute" unicode="&#xfa;" 
d="M360 560h-164l81 152h226zM227 -15c-114 0 -185 73 -185 210v313h218v-285c0 -44 13 -71 45 -71c37 0 54 32 54 110v246h218v-508h-202v55h-2c-33 -43 -82 -70 -146 -70z" />
    <glyph glyph-name="ubreve" unicode="&#x16d;" 
d="M369 712h128c-3 -102 -67 -160 -184 -160s-181 58 -184 160h128c1 -32 19 -45 56 -45s54 13 56 45zM227 -15c-114 0 -185 73 -185 210v313h218v-285c0 -44 13 -71 45 -71c37 0 54 32 54 110v246h218v-508h-202v55h-2c-33 -43 -82 -70 -146 -70z" />
    <glyph glyph-name="ucircumflex" unicode="&#xfb;" 
d="M366 560l-53 75l-52 -75h-159l127 152h169l127 -152h-159zM227 -15c-114 0 -185 73 -185 210v313h218v-285c0 -44 13 -71 45 -71c37 0 54 32 54 110v246h218v-508h-202v55h-2c-33 -43 -82 -70 -146 -70z" />
    <glyph glyph-name="udieresis" unicode="&#xfc;" 
d="M281 560h-182v152h182v-152zM527 560h-182v152h182v-152zM227 -15c-114 0 -185 73 -185 210v313h218v-285c0 -44 13 -71 45 -71c37 0 54 32 54 110v246h218v-508h-202v55h-2c-33 -43 -82 -70 -146 -70z" />
    <glyph glyph-name="ugrave" unicode="&#xf9;" 
d="M349 712l81 -152h-164l-143 152h226zM227 -15c-114 0 -185 73 -185 210v313h218v-285c0 -44 13 -71 45 -71c37 0 54 32 54 110v246h218v-508h-202v55h-2c-33 -43 -82 -70 -146 -70z" />
    <glyph glyph-name="uhungarumlaut" unicode="&#x171;" 
d="M238 560h-150l101 152h192zM474 560h-150l101 152h192zM227 -15c-114 0 -185 73 -185 210v313h218v-285c0 -44 13 -71 45 -71c37 0 54 32 54 110v246h218v-508h-202v55h-2c-33 -43 -82 -70 -146 -70z" />
    <glyph glyph-name="umacron" unicode="&#x16b;" 
d="M526 572h-426v127h426v-127zM227 -15c-114 0 -185 73 -185 210v313h218v-285c0 -44 13 -71 45 -71c37 0 54 32 54 110v246h218v-508h-202v55h-2c-33 -43 -82 -70 -146 -70z" />
    <glyph glyph-name="uogonek" unicode="&#x173;" 
d="M550 -88c10 0 22 3 31 7v-104c-33 -11 -76 -18 -121 -18c-98 0 -144 38 -144 100c0 45 36 76 96 103h-37v55h-2c-33 -43 -82 -70 -146 -70c-114 0 -185 73 -185 210v313h218v-285c0 -44 13 -71 45 -71c37 0 54 32 54 110v246h218v-508h1c-44 -26 -57 -43 -57 -62
c0 -18 10 -26 29 -26z" />
    <glyph glyph-name="uring" unicode="&#x16f;" 
d="M313 797c70 0 125 -57 125 -126c0 -68 -55 -125 -125 -125c-69 0 -126 57 -126 125c0 69 57 126 126 126zM313 731c-33 0 -60 -27 -60 -60s27 -60 60 -60s60 27 60 60s-27 60 -60 60zM227 -15c-114 0 -185 73 -185 210v313h218v-285c0 -44 13 -71 45 -71
c37 0 54 32 54 110v246h218v-508h-202v55h-2c-33 -43 -82 -70 -146 -70z" />
    <glyph glyph-name="utilde" unicode="&#x169;" 
d="M411 712h110c-5 -98 -50 -160 -137 -160c-61 0 -98 38 -134 38c-22 0 -33 -14 -36 -38h-110c5 99 50 160 137 160c61 0 99 -37 134 -37c22 0 33 11 36 37zM227 -15c-114 0 -185 73 -185 210v313h218v-285c0 -44 13 -71 45 -71c37 0 54 32 54 110v246h218v-508h-202v55h-2
c-33 -43 -82 -70 -146 -70z" />
    <glyph glyph-name="wacute" unicode="&#x1e83;" horiz-adv-x="924" 
d="M509 560h-164l81 152h226zM806 0h-281l-32 172c-13 68 -23 138 -30 207h-2c-7 -69 -17 -139 -30 -207l-32 -172h-281l-115 508h208l22 -168c10 -69 17 -138 21 -206h2c9 70 22 142 37 211l36 163h266l36 -163c15 -69 28 -141 37 -211h2c4 68 11 137 21 206l22 168h208z
" />
    <glyph glyph-name="wcircumflex" unicode="&#x175;" horiz-adv-x="924" 
d="M515 560l-53 75l-52 -75h-159l127 152h169l127 -152h-159zM806 0h-281l-32 172c-13 68 -23 138 -30 207h-2c-7 -69 -17 -139 -30 -207l-32 -172h-281l-115 508h208l22 -168c10 -69 17 -138 21 -206h2c9 70 22 142 37 211l36 163h266l36 -163c15 -69 28 -141 37 -211h2
c4 68 11 137 21 206l22 168h208z" />
    <glyph glyph-name="wdieresis" unicode="&#x1e85;" horiz-adv-x="924" 
d="M430 560h-182v152h182v-152zM676 560h-182v152h182v-152zM806 0h-281l-32 172c-13 68 -23 138 -30 207h-2c-7 -69 -17 -139 -30 -207l-32 -172h-281l-115 508h208l22 -168c10 -69 17 -138 21 -206h2c9 70 22 142 37 211l36 163h266l36 -163c15 -69 28 -141 37 -211h2
c4 68 11 137 21 206l22 168h208z" />
    <glyph glyph-name="wgrave" unicode="&#x1e81;" horiz-adv-x="924" 
d="M498 712l81 -152h-164l-143 152h226zM806 0h-281l-32 172c-13 68 -23 138 -30 207h-2c-7 -69 -17 -139 -30 -207l-32 -172h-281l-115 508h208l22 -168c10 -69 17 -138 21 -206h2c9 70 22 142 37 211l36 163h266l36 -163c15 -69 28 -141 37 -211h2c4 68 11 137 21 206
l22 168h208z" />
    <glyph glyph-name="yacute" unicode="&#xfd;" horiz-adv-x="583" 
d="M344 560h-164l81 152h226zM593 508l-144 -474c-51 -169 -112 -227 -247 -227c-39 0 -82 4 -113 11v152c16 -4 33 -6 44 -6c30 0 47 9 47 34c0 14 -2 21 -36 110l-159 400h237l42 -169c16 -68 31 -140 42 -210h2c8 71 20 140 33 212l31 167h221z" />
    <glyph glyph-name="ycircumflex" unicode="&#x177;" horiz-adv-x="583" 
d="M350 560l-53 75l-52 -75h-159l127 152h169l127 -152h-159zM593 508l-144 -474c-51 -169 -112 -227 -247 -227c-39 0 -82 4 -113 11v152c16 -4 33 -6 44 -6c30 0 47 9 47 34c0 14 -2 21 -36 110l-159 400h237l42 -169c16 -68 31 -140 42 -210h2c8 71 20 140 33 212l31 167
h221z" />
    <glyph glyph-name="ydieresis" unicode="&#xff;" horiz-adv-x="583" 
d="M265 560h-182v152h182v-152zM511 560h-182v152h182v-152zM593 508l-144 -474c-51 -169 -112 -227 -247 -227c-39 0 -82 4 -113 11v152c16 -4 33 -6 44 -6c30 0 47 9 47 34c0 14 -2 21 -36 110l-159 400h237l42 -169c16 -68 31 -140 42 -210h2c8 71 20 140 33 212l31 167
h221z" />
    <glyph glyph-name="ygrave" unicode="&#x1ef3;" horiz-adv-x="583" 
d="M333 712l81 -152h-164l-143 152h226zM593 508l-144 -474c-51 -169 -112 -227 -247 -227c-39 0 -82 4 -113 11v152c16 -4 33 -6 44 -6c30 0 47 9 47 34c0 14 -2 21 -36 110l-159 400h237l42 -169c16 -68 31 -140 42 -210h2c8 71 20 140 33 212l31 167h221z" />
    <glyph glyph-name="zacute" unicode="&#x17a;" horiz-adv-x="539" 
d="M325 560h-164l81 152h226zM502 342l-196 -178v-2h202v-162h-477v166l196 178v2h-190v162h465v-166z" />
    <glyph glyph-name="zcaron" unicode="&#x17e;" horiz-adv-x="539" 
d="M363 560h-169l-127 152h159l52 -75l53 75h159zM502 342l-196 -178v-2h202v-162h-477v166l196 178v2h-190v162h465v-166z" />
    <glyph glyph-name="zdotaccent" unicode="&#x17c;" horiz-adv-x="539" 
d="M387 560h-218v152h218v-152zM502 342l-196 -178v-2h202v-162h-477v166l196 178v2h-190v162h465v-166z" />
    <glyph glyph-name="j.acute.loclNLD" horiz-adv-x="311" 
d="M202 560h-164l81 152h226zM264 508v-482c0 -152 -91 -217 -214 -217c-41 0 -76 4 -103 12v147c7 -2 14 -3 24 -3c51 0 75 21 75 101v442h218z" />
    <glyph glyph-name="ccedilla.ss01" horiz-adv-x="602" 
d="M304 524c158 0 269 -83 282 -221h-225c-4 42 -25 61 -52 61c-38 0 -59 -36 -59 -107c0 -76 22 -112 60 -112c29 0 50 23 51 69h225c-11 -145 -120 -230 -281 -230c-174 0 -285 105 -285 273c0 164 110 267 284 267zM312 -217h-201l143 168h160z" />
    <glyph glyph-name="scedilla.ss01" horiz-adv-x="577" 
d="M288 524c152 0 248 -51 248 -166h-206c0 33 -17 47 -45 47c-24 0 -37 -9 -37 -27c0 -20 15 -28 94 -49c103 -27 213 -64 213 -175c0 -103 -90 -170 -259 -170c-183 0 -274 58 -274 181h217c0 -39 15 -55 57 -55c29 0 44 11 44 28c0 23 -23 33 -117 57
c-91 23 -188 53 -188 165c0 93 70 164 253 164zM304 -217h-201l143 168h160z" />
    <glyph glyph-name="tcedilla.ss01" horiz-adv-x="419" 
d="M357 159c13 0 27 2 37 5v-160c-28 -8 -72 -14 -103 -14c-148 0 -213 54 -213 177v187h-74v154h74v147h218v-147h93v-154h-93v-122c0 -52 17 -73 61 -73zM186 -49h160l-102 -168h-201z" />
    <glyph glyph-name="a.sups" horiz-adv-x="435" 
d="M215 697c132 0 189 -58 189 -154v-104c0 -50 4 -82 13 -109h-151c-4 11 -6 27 -6 42h-2c-29 -35 -70 -53 -118 -53c-82 0 -130 50 -130 114c0 68 44 103 155 119c26 4 58 7 78 8v13c0 27 -11 37 -30 37s-30 -10 -30 -38h-158c5 64 53 125 190 125zM243 474v12
c-9 0 -31 -3 -43 -7c-21 -6 -28 -19 -28 -35c0 -18 10 -30 29 -30c11 0 23 4 31 14c9 12 11 23 11 46z" />
    <glyph glyph-name="b.sups" horiz-adv-x="464" 
d="M200 659h2c22 26 55 38 89 38c98 0 159 -73 159 -189s-64 -190 -164 -190c-36 0 -69 15 -92 48h-2v-36h-159v498h167v-169zM233 573c-27 0 -42 -28 -42 -65c0 -38 15 -65 42 -65c26 0 42 25 42 65s-16 65 -42 65z" />
    <glyph glyph-name="c.sups" horiz-adv-x="441" 
d="M222 697c116 0 199 -58 208 -158h-172c-3 28 -16 37 -32 37c-24 0 -36 -21 -36 -66c0 -49 13 -69 37 -69c18 0 31 12 32 41h171c-7 -104 -88 -163 -207 -163c-128 0 -209 73 -209 191c0 115 80 187 208 187z" />
    <glyph glyph-name="d.sups" horiz-adv-x="464" 
d="M431 828v-498h-159v36h-2c-23 -33 -56 -48 -92 -48c-100 0 -164 74 -164 190s61 189 159 189c34 0 67 -12 89 -38h2v169h167zM231 573c-26 0 -42 -25 -42 -65s16 -65 42 -65c27 0 42 27 42 65c0 37 -15 65 -42 65z" />
    <glyph glyph-name="e.sups" horiz-adv-x="443" 
d="M220 420c19 0 32 9 33 22h170c-17 -72 -98 -123 -200 -123c-139 0 -209 87 -209 191c0 105 73 187 206 187c94 0 158 -38 189 -103c15 -31 20 -64 20 -120h-251c3 -45 20 -54 42 -54zM220 600c-19 0 -36 -7 -42 -47h83c-2 37 -20 47 -41 47z" />
    <glyph glyph-name="egrave.sups" horiz-adv-x="443" 
d="M167 724l-120 104h189l77 -104h-146zM220 420c19 0 32 9 33 22h170c-17 -72 -98 -123 -200 -123c-139 0 -209 87 -209 191c0 105 73 187 206 187c94 0 158 -38 189 -103c15 -31 20 -64 20 -120h-251c3 -45 20 -54 42 -54zM220 600c-19 0 -36 -7 -42 -47h83
c-2 37 -20 47 -41 47z" />
    <glyph glyph-name="f.sups" horiz-adv-x="297" 
d="M276 720c-30 0 -47 -10 -50 -34h62v-117h-63v-239h-168v239h-53v117h53v9c0 95 58 142 161 142c25 0 55 -4 75 -9v-109c-3 1 -11 1 -17 1z" />
    <glyph glyph-name="g.sups" horiz-adv-x="457" 
d="M166 696c40 0 82 -25 101 -57h2v47h155v-330c0 -118 -74 -165 -210 -165c-107 0 -173 43 -184 121h154c1 -19 13 -31 32 -31c28 0 46 16 46 64v41h-2c-18 -26 -60 -46 -99 -46c-91 0 -147 71 -147 178c0 109 58 178 152 178zM226 577c-26 0 -42 -22 -42 -59
s16 -59 42 -59c25 0 41 22 41 59s-16 59 -41 59z" />
    <glyph glyph-name="h.sups" horiz-adv-x="456" 
d="M200 659h2c18 20 48 38 92 38c82 0 133 -52 133 -148v-219h-167v197c0 25 -7 43 -27 43c-24 0 -33 -20 -33 -72v-168h-167v498h167v-169z" />
    <glyph glyph-name="i.sups" horiz-adv-x="233" 
d="M200 717h-167v111h167v-111zM200 330h-167v356h167v-356z" />
    <glyph glyph-name="j.sups" horiz-adv-x="234" 
d="M201 717h-167v111h167v-111zM201 686v-331c0 -111 -68 -159 -160 -159c-31 0 -58 3 -78 9v111c5 -1 10 -2 17 -2c37 0 54 15 54 72v300h167z" />
    <glyph glyph-name="k.sups" horiz-adv-x="452" 
d="M459 330h-203l-54 146h-2v-146h-167v499h167v-273h2l46 130h201l-109 -172z" />
    <glyph glyph-name="l.sups" horiz-adv-x="233" 
d="M200 330h-167v498h167v-498z" />
    <glyph glyph-name="m.sups" horiz-adv-x="677" 
d="M520 697c78 0 128 -52 128 -148v-219h-167v197c0 25 -6 43 -24 43c-21 0 -33 -15 -33 -66v-174h-166v198c0 35 -11 42 -25 42c-20 0 -33 -15 -33 -66v-174h-167v356h153v-41h2c21 30 60 52 107 52c44 0 83 -17 108 -63c21 37 64 63 117 63z" />
    <glyph glyph-name="n.sups" horiz-adv-x="456" 
d="M294 697c82 0 133 -52 133 -148v-219h-167v197c0 25 -7 43 -27 43c-24 0 -33 -20 -33 -72v-168h-167v356h154v-37h2c24 29 59 48 105 48z" />
    <glyph glyph-name="o.sups" horiz-adv-x="456" 
d="M228 697c130 0 214 -73 214 -189s-84 -189 -214 -189s-214 73 -214 189s84 189 214 189zM228 575c-29 0 -42 -23 -42 -67s13 -67 42 -67s42 23 42 67s-13 67 -42 67z" />
    <glyph glyph-name="p.sups" horiz-adv-x="464" 
d="M286 697c100 0 164 -73 164 -189s-61 -190 -159 -190c-34 0 -68 12 -89 38h-2v-155h-167v485h159v-36h2c22 33 56 47 92 47zM233 573c-27 0 -42 -28 -42 -65c0 -38 15 -65 42 -65c26 0 42 25 42 65s-16 65 -42 65z" />
    <glyph glyph-name="q.sups" horiz-adv-x="464" 
d="M178 697c36 0 70 -14 92 -47h2v36h159v-485h-167v155h-2c-21 -26 -55 -38 -89 -38c-98 0 -159 74 -159 190s64 189 164 189zM231 573c-26 0 -42 -25 -42 -65s16 -65 42 -65c27 0 42 27 42 65c0 37 -15 65 -42 65z" />
    <glyph glyph-name="r.sups" horiz-adv-x="342" 
d="M301 691c13 0 27 -1 38 -4v-140c-13 2 -32 4 -49 4c-58 0 -90 -35 -90 -98v-123h-167v356h156v-46h2c28 36 63 51 110 51z" />
    <glyph glyph-name="s.sups" horiz-adv-x="424" 
d="M212 697c112 0 183 -35 183 -115h-157c0 19 -11 28 -28 28c-15 0 -23 -6 -23 -16c0 -13 9 -18 66 -33c76 -20 156 -46 156 -121c0 -74 -65 -121 -191 -121c-137 0 -203 40 -203 127h166c0 -24 10 -35 37 -35c18 0 28 7 28 17c0 17 -15 21 -85 38c-66 16 -137 37 -137 115
c0 65 49 116 188 116z" />
    <glyph glyph-name="t.sups" horiz-adv-x="310" 
d="M265 451c10 0 20 1 27 3v-121c-21 -6 -54 -11 -78 -11c-110 0 -159 39 -159 126v121h-52v117h52v105h167v-105h67v-117h-67v-68c0 -36 12 -50 43 -50z" />
    <glyph glyph-name="u.sups" horiz-adv-x="456" 
d="M162 319c-82 0 -133 52 -133 148v219h167v-197c0 -25 7 -43 27 -43c24 0 33 20 33 72v168h167v-356h-154v37h-2c-24 -29 -59 -48 -105 -48z" />
    <glyph glyph-name="v.sups" horiz-adv-x="428" 
d="M331 330h-234l-104 356h182l18 -103c8 -48 15 -96 20 -143h2c5 47 12 95 20 143l18 103h182z" />
    <glyph glyph-name="w.sups" horiz-adv-x="680" 
d="M595 330h-213l-21 116c-8 47 -15 95 -20 143h-2c-5 -48 -12 -96 -20 -143l-21 -116h-213l-83 356h159l13 -113c6 -48 11 -95 13 -142h2c6 49 15 99 26 147l25 108h200l25 -108c11 -48 20 -98 26 -147h2c2 47 7 94 13 142l13 113h159z" />
    <glyph glyph-name="x.sups" horiz-adv-x="434" 
d="M324 513l114 -183h-184l-36 98h-2l-36 -98h-184l114 183l-106 173h185l27 -93h2l27 93h185z" />
    <glyph glyph-name="y.sups" horiz-adv-x="432" 
d="M439 686l-95 -315c-41 -134 -85 -177 -185 -177c-29 0 -61 3 -84 8v113c10 -3 22 -4 31 -4c20 0 28 7 28 18s-3 17 -28 79l-117 278h183l29 -119c11 -47 21 -97 28 -146h2c5 50 11 97 20 148l19 117h169z" />
    <glyph glyph-name="z.sups" horiz-adv-x="394" 
d="M368 560l-135 -106v-2h139v-122h-350v125l134 107v2h-130v122h342v-126z" />
    <glyph glyph-name="ff" unicode="&#xfb00;" horiz-adv-x="765" 
d="M736 569c-47 0 -71 -17 -72 -61h90v-154h-90v-354h-218v354h-147v-354h-218v354h-75v154h75v20c0 131 77 195 215 195c34 0 73 -5 99 -11v-145c-4 1 -16 2 -24 2c-47 0 -71 -17 -72 -61h147v20c0 131 77 195 215 195c34 0 73 -5 99 -11v-145c-4 1 -16 2 -24 2z" />
    <glyph glyph-name="ffi" unicode="&#xfb03;" horiz-adv-x="1077" 
d="M446 508v20c0 131 77 195 215 195c34 0 73 -5 99 -11v-145c-4 1 -16 2 -24 2c-47 0 -71 -17 -72 -61h90v-154h-90v-354h-218v354h-147v-354h-218v354h-75v154h75v20c0 131 77 195 215 195c34 0 73 -5 99 -11v-145c-4 1 -16 2 -24 2c-47 0 -71 -17 -72 -61h147zM1030 712
v-152h-218v152h218zM812 508h218v-508h-218v508z" />
    <glyph glyph-name="ffl" unicode="&#xfb04;" horiz-adv-x="1077" 
d="M446 508v20c0 131 77 195 215 195c34 0 73 -5 99 -11v-145c-4 1 -16 2 -24 2c-47 0 -71 -17 -72 -61h90v-154h-90v-354h-218v354h-147v-354h-218v354h-75v154h75v20c0 131 77 195 215 195c34 0 73 -5 99 -11v-145c-4 1 -16 2 -24 2c-47 0 -71 -17 -72 -61h147zM1030 712
v-712h-218v712h218z" />
    <glyph glyph-name="fi" unicode="&#xfb01;" horiz-adv-x="712" 
d="M81 508v20c0 131 77 195 215 195c34 0 73 -5 99 -11v-145c-4 1 -16 2 -24 2c-47 0 -71 -17 -72 -61h90v-154h-90v-354h-218v354h-75v154h75zM665 712v-152h-218v152h218zM447 508h218v-508h-218v508z" />
    <glyph glyph-name="fl" unicode="&#xfb02;" horiz-adv-x="712" 
d="M81 508v20c0 131 77 195 215 195c34 0 73 -5 99 -11v-145c-4 1 -16 2 -24 2c-47 0 -71 -17 -72 -61h90v-154h-90v-354h-218v354h-75v154h75zM665 712v-712h-218v712h218z" />
    <glyph glyph-name="a.smcp" horiz-adv-x="668" 
d="M423 77h-178l-21 -77h-228l192 548h292l192 -548h-228zM386 210l-10 39c-15 50 -29 107 -41 159h-2c-12 -52 -28 -109 -41 -159l-11 -39h105z" />
    <glyph glyph-name="aacute.smcp" horiz-adv-x="668" 
d="M381 600h-164l81 152h226zM423 77h-178l-21 -77h-228l192 548h292l192 -548h-228zM386 210l-10 39c-15 50 -29 107 -41 159h-2c-12 -52 -28 -109 -41 -159l-11 -39h105z" />
    <glyph glyph-name="abreve.smcp" horiz-adv-x="668" 
d="M334 592c-117 0 -181 58 -184 160h128c1 -32 19 -45 56 -45s54 13 56 45h128c-3 -102 -67 -160 -184 -160zM423 77h-178l-21 -77h-228l192 548h292l192 -548h-228zM386 210l-10 39c-15 50 -29 107 -41 159h-2c-12 -52 -28 -109 -41 -159l-11 -39h105z" />
    <glyph glyph-name="acircumflex.smcp" horiz-adv-x="668" 
d="M282 600h-159l127 152h169l127 -152h-159l-53 75zM423 77h-178l-21 -77h-228l192 548h292l192 -548h-228zM386 210l-10 39c-15 50 -29 107 -41 159h-2c-12 -52 -28 -109 -41 -159l-11 -39h105z" />
    <glyph glyph-name="adieresis.smcp" horiz-adv-x="668" 
d="M302 600h-182v152h182v-152zM548 600h-182v152h182v-152zM423 77h-178l-21 -77h-228l192 548h292l192 -548h-228zM386 210l-10 39c-15 50 -29 107 -41 159h-2c-12 -52 -28 -109 -41 -159l-11 -39h105z" />
    <glyph glyph-name="agrave.smcp" horiz-adv-x="668" 
d="M287 600l-143 152h226l81 -152h-164zM423 77h-178l-21 -77h-228l192 548h292l192 -548h-228zM386 210l-10 39c-15 50 -29 107 -41 159h-2c-12 -52 -28 -109 -41 -159l-11 -39h105z" />
    <glyph glyph-name="amacron.smcp" horiz-adv-x="668" 
d="M547 612h-426v127h426v-127zM423 77h-178l-21 -77h-228l192 548h292l192 -548h-228zM386 210l-10 39c-15 50 -29 107 -41 159h-2c-12 -52 -28 -109 -41 -159l-11 -39h105z" />
    <glyph glyph-name="aogonek.smcp" horiz-adv-x="668" 
d="M644 -88c10 0 22 3 31 7v-104c-33 -11 -76 -18 -121 -18c-98 0 -144 38 -144 100c0 45 36 76 96 103h-62l-21 77h-178l-21 -77h-228l192 548h292l192 -548c-44 -26 -57 -43 -57 -62c0 -18 10 -26 29 -26zM386 210l-10 39c-15 50 -29 107 -41 159h-2
c-12 -52 -28 -109 -41 -159l-11 -39h105z" />
    <glyph glyph-name="aring.smcp" horiz-adv-x="668" 
d="M334 586c-69 0 -126 57 -126 125c0 69 57 126 126 126c70 0 125 -57 125 -126c0 -68 -55 -125 -125 -125zM334 771c-33 0 -60 -27 -60 -60s27 -60 60 -60s60 27 60 60s-27 60 -60 60zM423 77h-178l-21 -77h-228l192 548h292l192 -548h-228zM386 210l-10 39
c-15 50 -29 107 -41 159h-2c-12 -52 -28 -109 -41 -159l-11 -39h105z" />
    <glyph glyph-name="atilde.smcp" horiz-adv-x="668" 
d="M271 630c-22 0 -33 -14 -36 -38h-110c5 99 50 160 137 160c61 0 99 -37 134 -37c22 0 33 11 36 37h110c-5 -98 -50 -160 -137 -160c-61 0 -98 38 -134 38zM423 77h-178l-21 -77h-228l192 548h292l192 -548h-228zM386 210l-10 39c-15 50 -29 107 -41 159h-2
c-12 -52 -28 -109 -41 -159l-11 -39h105z" />
    <glyph glyph-name="ae.smcp" horiz-adv-x="827" 
d="M789 150v-150h-355l-14 87h-190l-36 -87h-199l235 548h558v-150h-241l9 -52h212v-144h-190l9 -52h202zM396 232l-26 163h-12l-68 -163h106z" />
    <glyph glyph-name="b.smcp" horiz-adv-x="634" 
d="M56 548h321c149 0 218 -57 218 -142c0 -62 -28 -97 -93 -118v-2c68 -16 109 -64 109 -128c0 -97 -86 -158 -232 -158h-323v548zM268 422v-88h50c45 0 65 15 65 44s-20 44 -61 44h-54zM268 218v-92h52c47 0 66 13 66 45s-21 47 -68 47h-50z" />
    <glyph glyph-name="c.smcp" horiz-adv-x="621" 
d="M310 564c167 0 279 -79 285 -235h-227c-5 48 -23 70 -58 70c-37 0 -62 -37 -62 -126c0 -86 27 -124 64 -124c32 0 54 27 58 74h228c-12 -159 -123 -239 -286 -239c-180 0 -287 108 -287 289c0 182 108 291 285 291z" />
    <glyph glyph-name="cacute.smcp" horiz-adv-x="621" 
d="M357 600h-164l81 152h226zM310 564c167 0 279 -79 285 -235h-227c-5 48 -23 70 -58 70c-37 0 -62 -37 -62 -126c0 -86 27 -124 64 -124c32 0 54 27 58 74h228c-12 -159 -123 -239 -286 -239c-180 0 -287 108 -287 289c0 182 108 291 285 291z" />
    <glyph glyph-name="ccaron.smcp" horiz-adv-x="621" 
d="M395 600h-169l-127 152h159l52 -75l53 75h159zM310 564c167 0 279 -79 285 -235h-227c-5 48 -23 70 -58 70c-37 0 -62 -37 -62 -126c0 -86 27 -124 64 -124c32 0 54 27 58 74h228c-12 -159 -123 -239 -286 -239c-180 0 -287 108 -287 289c0 182 108 291 285 291z" />
    <glyph glyph-name="ccedilla.smcp" horiz-adv-x="621" 
d="M370 223h228c-11 -147 -106 -226 -249 -238l-26 -43c11 3 22 5 33 5c63 0 93 -32 93 -82c0 -62 -47 -110 -140 -110c-44 0 -93 12 -133 37l34 70c31 -14 62 -23 83 -23c22 0 34 8 34 22s-11 24 -35 24c-10 0 -22 -3 -29 -7l-47 36l43 73c-148 20 -234 124 -234 286
c0 182 108 291 285 291c167 0 279 -79 285 -235h-227c-5 48 -23 70 -58 70c-37 0 -62 -37 -62 -126c0 -86 27 -124 64 -124c32 0 54 27 58 74z" />
    <glyph glyph-name="ccircumflex.smcp" horiz-adv-x="621" 
d="M363 600l-53 75l-52 -75h-159l127 152h169l127 -152h-159zM310 564c167 0 279 -79 285 -235h-227c-5 48 -23 70 -58 70c-37 0 -62 -37 -62 -126c0 -86 27 -124 64 -124c32 0 54 27 58 74h228c-12 -159 -123 -239 -286 -239c-180 0 -287 108 -287 289
c0 182 108 291 285 291z" />
    <glyph glyph-name="cdotaccent.smcp" horiz-adv-x="621" 
d="M419 600h-218v152h218v-152zM310 564c167 0 279 -79 285 -235h-227c-5 48 -23 70 -58 70c-37 0 -62 -37 -62 -126c0 -86 27 -124 64 -124c32 0 54 27 58 74h228c-12 -159 -123 -239 -286 -239c-180 0 -287 108 -287 289c0 182 108 291 285 291z" />
    <glyph glyph-name="d.smcp" horiz-adv-x="664" 
d="M56 548h259c207 0 324 -98 324 -274c0 -175 -117 -274 -324 -274h-259v548zM276 390v-232h32c68 0 108 45 108 116s-40 116 -108 116h-32z" />
    <glyph glyph-name="eth.smcp" horiz-adv-x="671" 
d="M63 548h259c207 0 324 -98 324 -274c0 -175 -117 -274 -324 -274h-259v224h-53v104h53v220zM273 148h42c74 0 118 49 118 126s-44 126 -118 126h-42v-72h87v-104h-87v-76z" />
    <glyph glyph-name="dcaron.smcp" horiz-adv-x="664" 
d="M414 600h-169l-127 152h159l52 -75l53 75h159zM56 548h259c207 0 324 -98 324 -274c0 -175 -117 -274 -324 -274h-259v548zM276 390v-232h32c68 0 108 45 108 116s-40 116 -108 116h-32z" />
    <glyph glyph-name="dcroat.smcp" horiz-adv-x="671" 
d="M63 548h259c207 0 324 -98 324 -274c0 -175 -117 -274 -324 -274h-259v224h-53v104h53v220zM273 148h42c74 0 118 49 118 126s-44 126 -118 126h-42v-72h87v-104h-87v-76z" />
    <glyph glyph-name="e.smcp" horiz-adv-x="533" 
d="M494 398h-246v-52h226v-144h-226v-52h247v-150h-438v548h437v-150z" />
    <glyph glyph-name="eacute.smcp" horiz-adv-x="533" 
d="M323 600h-164l81 152h226zM494 398h-246v-52h226v-144h-226v-52h247v-150h-438v548h437v-150z" />
    <glyph glyph-name="ebreve.smcp" horiz-adv-x="533" 
d="M332 752h128c-3 -102 -67 -160 -184 -160s-181 58 -184 160h128c1 -32 19 -45 56 -45s54 13 56 45zM494 398h-246v-52h226v-144h-226v-52h247v-150h-438v548h437v-150z" />
    <glyph glyph-name="ecaron.smcp" horiz-adv-x="533" 
d="M361 600h-169l-127 152h159l52 -75l53 75h159zM494 398h-246v-52h226v-144h-226v-52h247v-150h-438v548h437v-150z" />
    <glyph glyph-name="ecircumflex.smcp" horiz-adv-x="533" 
d="M329 600l-53 75l-52 -75h-159l127 152h169l127 -152h-159zM494 398h-246v-52h226v-144h-226v-52h247v-150h-438v548h437v-150z" />
    <glyph glyph-name="edieresis.smcp" horiz-adv-x="533" 
d="M244 600h-182v152h182v-152zM490 600h-182v152h182v-152zM494 398h-246v-52h226v-144h-226v-52h247v-150h-438v548h437v-150z" />
    <glyph glyph-name="edotaccent.smcp" horiz-adv-x="533" 
d="M385 600h-218v152h218v-152zM494 398h-246v-52h226v-144h-226v-52h247v-150h-438v548h437v-150z" />
    <glyph glyph-name="egrave.smcp" horiz-adv-x="533" 
d="M312 752l81 -152h-164l-143 152h226zM494 398h-246v-52h226v-144h-226v-52h247v-150h-438v548h437v-150z" />
    <glyph glyph-name="emacron.smcp" horiz-adv-x="533" 
d="M489 612h-426v127h426v-127zM494 398h-246v-52h226v-144h-226v-52h247v-150h-438v548h437v-150z" />
    <glyph glyph-name="eogonek.smcp" horiz-adv-x="533" 
d="M467 -88c10 0 22 3 31 7v-104c-33 -11 -76 -18 -121 -18c-98 0 -144 38 -144 100c0 45 36 76 96 103h-272v548h437v-150h-246v-52h226v-144h-226v-52h247v-150c-44 -26 -57 -43 -57 -62c0 -18 10 -26 29 -26z" />
    <glyph glyph-name="f.smcp" horiz-adv-x="505" 
d="M487 393h-240v-71h225v-154h-225v-168h-191v548h431v-155z" />
    <glyph glyph-name="fi.smcp" horiz-adv-x="839" 
d="M487 393h-240v-71h225v-154h-225v-168h-191v548h431v-155zM782 0h-220v548h220v-548z" />
    <glyph glyph-name="fl.smcp" horiz-adv-x="1028" 
d="M487 393h-240v-71h225v-154h-225v-168h-191v548h431v-155zM782 178h239v-178h-459v548h220v-370z" />
    <glyph glyph-name="g.smcp" horiz-adv-x="659" 
d="M333 564c161 0 274 -83 279 -202h-225c-3 29 -24 51 -57 51c-50 0 -82 -42 -82 -141c0 -97 33 -143 88 -143c40 0 69 22 76 58h-87l-1 134h287v-321h-183v42h-2c-37 -41 -86 -56 -142 -56c-161 0 -259 109 -259 286c0 180 116 292 308 292z" />
    <glyph glyph-name="gbreve.smcp" horiz-adv-x="659" 
d="M385 752h128c-3 -102 -67 -160 -184 -160s-181 58 -184 160h128c1 -32 19 -45 56 -45s54 13 56 45zM333 564c161 0 274 -83 279 -202h-225c-3 29 -24 51 -57 51c-50 0 -82 -42 -82 -141c0 -97 33 -143 88 -143c40 0 69 22 76 58h-87l-1 134h287v-321h-183v42h-2
c-37 -41 -86 -56 -142 -56c-161 0 -259 109 -259 286c0 180 116 292 308 292z" />
    <glyph glyph-name="gcircumflex.smcp" horiz-adv-x="659" 
d="M382 600l-53 75l-52 -75h-159l127 152h169l127 -152h-159zM333 564c161 0 274 -83 279 -202h-225c-3 29 -24 51 -57 51c-50 0 -82 -42 -82 -141c0 -97 33 -143 88 -143c40 0 69 22 76 58h-87l-1 134h287v-321h-183v42h-2c-37 -41 -86 -56 -142 -56
c-161 0 -259 109 -259 286c0 180 116 292 308 292z" />
    <glyph glyph-name="gcommaaccent.smcp" horiz-adv-x="659" 
d="M333 564c161 0 274 -83 279 -202h-225c-3 29 -24 51 -57 51c-50 0 -82 -42 -82 -141c0 -97 33 -143 88 -143c40 0 69 22 76 58h-87l-1 134h287v-321h-183v42h-2c-37 -41 -86 -56 -142 -56c-161 0 -259 109 -259 286c0 180 116 292 308 292zM400 -173l-76 -112h-77l48 112
h-48v129h153v-129z" />
    <glyph glyph-name="gdotaccent.smcp" horiz-adv-x="659" 
d="M438 600h-218v152h218v-152zM333 564c161 0 274 -83 279 -202h-225c-3 29 -24 51 -57 51c-50 0 -82 -42 -82 -141c0 -97 33 -143 88 -143c40 0 69 22 76 58h-87l-1 134h287v-321h-183v42h-2c-37 -41 -86 -56 -142 -56c-161 0 -259 109 -259 286c0 180 116 292 308 292z
" />
    <glyph glyph-name="h.smcp" horiz-adv-x="705" 
d="M648 0h-220v191h-151v-191h-220v548h220v-179h151v179h220v-548z" />
    <glyph glyph-name="hbar.smcp" horiz-adv-x="705" 
d="M692 425h-44v-425h-220v191h-151v-191h-220v425h-44v80h44v43h220v-43h151v43h220v-43h44v-80zM428 425h-151v-56h151v56z" />
    <glyph glyph-name="hcircumflex.smcp" horiz-adv-x="705" 
d="M406 600l-53 75l-52 -75h-159l127 152h169l127 -152h-159zM648 0h-220v191h-151v-191h-220v548h220v-179h151v179h220v-548z" />
    <glyph glyph-name="i.smcp" horiz-adv-x="334" 
d="M277 0h-220v548h220v-548z" />
    <glyph glyph-name="iacute.smcp" horiz-adv-x="334" 
d="M214 600h-164l81 152h226zM277 0h-220v548h220v-548z" />
    <glyph glyph-name="ibreve.smcp" horiz-adv-x="334" 
d="M210 752h125c-2 -102 -59 -160 -168 -160s-166 58 -168 160h125c1 -33 13 -45 43 -45s41 12 43 45zM277 0h-220v548h220v-548z" />
    <glyph glyph-name="icircumflex.smcp" horiz-adv-x="334" 
d="M364 604h-151l-46 58l-44 -58h-152l118 148h157zM277 0h-220v548h220v-548z" />
    <glyph glyph-name="idieresis.smcp" horiz-adv-x="334" 
d="M145 600h-152v152h152v-152zM341 600h-152v152h152v-152zM277 0h-220v548h220v-548z" />
    <glyph glyph-name="idotaccent.smcp" horiz-adv-x="334" 
d="M276 600h-218v152h218v-152zM277 0h-220v548h220v-548z" />
    <glyph glyph-name="igrave.smcp" horiz-adv-x="334" 
d="M203 752l81 -152h-164l-143 152h226zM277 0h-220v548h220v-548z" />
    <glyph glyph-name="ij.smcp" horiz-adv-x="740" 
d="M277 0h-220v548h220v-548zM688 548v-334c0 -155 -79 -223 -244 -223c-34 0 -68 4 -96 10v171c10 -2 24 -3 34 -3c66 0 86 29 86 111v268h220z" />
    <glyph glyph-name="imacron.smcp" horiz-adv-x="334" 
d="M330 609h-327v128h327v-128zM277 0h-220v548h220v-548z" />
    <glyph glyph-name="iogonek.smcp" horiz-adv-x="334" 
d="M249 -88c10 0 22 3 31 7v-104c-33 -11 -76 -18 -121 -18c-98 0 -144 38 -144 100c0 45 36 76 96 103h-54v548h220v-548c-44 -26 -57 -43 -57 -62c0 -18 10 -26 29 -26z" />
    <glyph glyph-name="itilde.smcp" horiz-adv-x="334" 
d="M256 752h97c-5 -99 -47 -163 -127 -163c-53 0 -84 40 -119 40c-16 0 -28 -13 -30 -40h-96c5 100 46 163 126 163c53 0 85 -39 119 -39c17 0 28 12 30 39zM277 0h-220v548h220v-548z" />
    <glyph glyph-name="j.smcp" horiz-adv-x="406" 
d="M354 548v-334c0 -155 -79 -223 -244 -223c-34 0 -68 4 -96 10v171c10 -2 24 -3 34 -3c66 0 86 29 86 111v268h220z" />
    <glyph glyph-name="jcircumflex.smcp" horiz-adv-x="406" 
d="M429 604h-151l-46 58l-44 -58h-152l118 148h157zM354 548v-334c0 -155 -79 -223 -244 -223c-34 0 -68 4 -96 10v171c10 -2 24 -3 34 -3c66 0 86 29 86 111v268h220z" />
    <glyph glyph-name="k.smcp" horiz-adv-x="681" 
d="M480 291l198 -291h-267l-132 235h-2v-235h-220v548h220v-222h2l127 222h264z" />
    <glyph glyph-name="kcommaaccent.smcp" horiz-adv-x="681" 
d="M480 291l198 -291h-267l-132 235h-2v-235h-220v548h220v-222h2l127 222h264zM420 -173l-76 -112h-77l48 112h-48v129h153v-129z" />
    <glyph glyph-name="l.smcp" horiz-adv-x="523" 
d="M277 178h239v-178h-459v548h220v-370z" />
    <glyph glyph-name="lacute.smcp" horiz-adv-x="523" 
d="M253 600h-164l81 152h226zM277 178h239v-178h-459v548h220v-370z" />
    <glyph glyph-name="lcaron.smcp" horiz-adv-x="523" 
d="M277 178h239v-178h-459v548h220v-370zM424 369h-123l19 179h170z" />
    <glyph glyph-name="lcommaaccent.smcp" horiz-adv-x="523" 
d="M277 178h239v-178h-459v548h220v-370zM342 -173l-76 -112h-77l48 112h-48v129h153v-129z" />
    <glyph glyph-name="ldot.smcp" horiz-adv-x="593" 
d="M277 178h239v-178h-459v548h220v-370zM553 288h-180v175h180v-175z" />
    <glyph glyph-name="j.acute.loclNLD.smcp" horiz-adv-x="406" 
d="M279 600h-164l81 152h226zM354 548v-334c0 -155 -79 -223 -244 -223c-34 0 -68 4 -96 10v171c10 -2 24 -3 34 -3c66 0 86 29 86 111v268h220z" />
    <glyph glyph-name="lslash.smcp" horiz-adv-x="528" 
d="M521 178v-178h-459v205l-54 -30v128l54 30v215h220v-108l105 59v-129l-105 -57v-135h239z" />
    <glyph glyph-name="m.smcp" horiz-adv-x="1002" 
d="M945 0h-205v254c0 66 1 131 4 196h-2c-12 -64 -26 -131 -41 -195l-61 -255h-278l-61 255c-15 64 -29 131 -41 195h-2c3 -65 4 -130 4 -196v-254h-205v548h354l53 -221c16 -67 28 -134 36 -201h2c8 67 20 134 36 201l53 221h354v-548z" />
    <glyph glyph-name="n.smcp" horiz-adv-x="809" 
d="M752 0h-341l-77 199c-25 66 -49 134 -69 201h-2c5 -71 6 -142 6 -212v-188h-212v548h341l76 -199c26 -66 49 -134 69 -200h3c-5 70 -6 141 -6 211v188h212v-548z" />
    <glyph glyph-name="nacute.smcp" horiz-adv-x="809" 
d="M452 600h-164l81 152h226zM752 0h-341l-77 199c-25 66 -49 134 -69 201h-2c5 -71 6 -142 6 -212v-188h-212v548h341l76 -199c26 -66 49 -134 69 -200h3c-5 70 -6 141 -6 211v188h212v-548z" />
    <glyph glyph-name="ncaron.smcp" horiz-adv-x="809" 
d="M490 600h-169l-127 152h159l52 -75l53 75h159zM752 0h-341l-77 199c-25 66 -49 134 -69 201h-2c5 -71 6 -142 6 -212v-188h-212v548h341l76 -199c26 -66 49 -134 69 -200h3c-5 70 -6 141 -6 211v188h212v-548z" />
    <glyph glyph-name="ncommaaccent.smcp" horiz-adv-x="809" 
d="M752 0h-341l-77 199c-25 66 -49 134 -69 201h-2c5 -71 6 -142 6 -212v-188h-212v548h341l76 -199c26 -66 49 -134 69 -200h3c-5 70 -6 141 -6 211v188h212v-548zM481 -173l-76 -112h-77l48 112h-48v129h153v-129z" />
    <glyph glyph-name="eng.smcp" horiz-adv-x="699" 
d="M642 548v-537c0 -126 -88 -181 -204 -181c-38 0 -69 4 -94 12v135c6 -2 15 -3 24 -3c27 0 43 14 43 35c0 14 -2 21 -25 64l-63 121c-24 46 -44 92 -60 138h-2c6 -57 8 -116 8 -174v-158h-212v548h263l52 -101c24 -47 45 -93 64 -140h2c-6 59 -8 118 -8 174v67h212z" />
    <glyph glyph-name="ntilde.smcp" horiz-adv-x="809" 
d="M503 752h110c-5 -98 -50 -160 -137 -160c-61 0 -98 38 -134 38c-22 0 -33 -14 -36 -38h-110c5 99 50 160 137 160c61 0 99 -37 134 -37c22 0 33 11 36 37zM752 0h-341l-77 199c-25 66 -49 134 -69 201h-2c5 -71 6 -142 6 -212v-188h-212v548h341l76 -199
c26 -66 49 -134 69 -200h3c-5 70 -6 141 -6 211v188h212v-548z" />
    <glyph glyph-name="o.smcp" horiz-adv-x="639" 
d="M320 564c178 0 294 -115 294 -290s-116 -290 -294 -290s-294 115 -294 290s116 290 294 290zM320 395c-48 0 -71 -37 -71 -121s23 -121 70 -121c49 0 72 37 72 121s-23 121 -71 121z" />
    <glyph glyph-name="oacute.smcp" horiz-adv-x="639" 
d="M367 600h-164l81 152h226zM320 564c178 0 294 -115 294 -290s-116 -290 -294 -290s-294 115 -294 290s116 290 294 290zM320 395c-48 0 -71 -37 -71 -121s23 -121 70 -121c49 0 72 37 72 121s-23 121 -71 121z" />
    <glyph glyph-name="obreve.smcp" horiz-adv-x="639" 
d="M376 752h128c-3 -102 -67 -160 -184 -160s-181 58 -184 160h128c1 -32 19 -45 56 -45s54 13 56 45zM320 564c178 0 294 -115 294 -290s-116 -290 -294 -290s-294 115 -294 290s116 290 294 290zM320 395c-48 0 -71 -37 -71 -121s23 -121 70 -121c49 0 72 37 72 121
s-23 121 -71 121z" />
    <glyph glyph-name="ocircumflex.smcp" horiz-adv-x="639" 
d="M373 600l-53 75l-52 -75h-159l127 152h169l127 -152h-159zM320 564c178 0 294 -115 294 -290s-116 -290 -294 -290s-294 115 -294 290s116 290 294 290zM320 395c-48 0 -71 -37 -71 -121s23 -121 70 -121c49 0 72 37 72 121s-23 121 -71 121z" />
    <glyph glyph-name="odieresis.smcp" horiz-adv-x="639" 
d="M288 600h-182v152h182v-152zM534 600h-182v152h182v-152zM320 564c178 0 294 -115 294 -290s-116 -290 -294 -290s-294 115 -294 290s116 290 294 290zM320 395c-48 0 -71 -37 -71 -121s23 -121 70 -121c49 0 72 37 72 121s-23 121 -71 121z" />
    <glyph glyph-name="ograve.smcp" horiz-adv-x="639" 
d="M356 752l81 -152h-164l-143 152h226zM320 564c178 0 294 -115 294 -290s-116 -290 -294 -290s-294 115 -294 290s116 290 294 290zM320 395c-48 0 -71 -37 -71 -121s23 -121 70 -121c49 0 72 37 72 121s-23 121 -71 121z" />
    <glyph glyph-name="ohungarumlaut.smcp" horiz-adv-x="639" 
d="M245 600h-150l101 152h192zM481 600h-150l101 152h192zM320 564c178 0 294 -115 294 -290s-116 -290 -294 -290s-294 115 -294 290s116 290 294 290zM320 395c-48 0 -71 -37 -71 -121s23 -121 70 -121c49 0 72 37 72 121s-23 121 -71 121z" />
    <glyph glyph-name="omacron.smcp" horiz-adv-x="639" 
d="M533 612h-426v127h426v-127zM320 564c178 0 294 -115 294 -290s-116 -290 -294 -290s-294 115 -294 290s116 290 294 290zM320 395c-48 0 -71 -37 -71 -121s23 -121 70 -121c49 0 72 37 72 121s-23 121 -71 121z" />
    <glyph glyph-name="oslash.smcp" horiz-adv-x="645" 
d="M588 543l-47 -61c51 -51 79 -122 79 -208c0 -175 -118 -290 -297 -290c-52 0 -98 10 -139 27l-50 -66l-76 57l48 63c-51 51 -80 122 -80 209c0 175 118 290 297 290c53 0 100 -10 140 -28l49 64zM323 405c-62 0 -93 -45 -93 -131c0 -21 2 -39 5 -55l134 175
c-13 7 -28 11 -46 11zM323 143c62 0 93 44 93 131c0 20 -2 38 -5 53l-132 -174c12 -7 27 -10 44 -10z" />
    <glyph glyph-name="otilde.smcp" horiz-adv-x="639" 
d="M418 752h110c-5 -98 -50 -160 -137 -160c-61 0 -98 38 -134 38c-22 0 -33 -14 -36 -38h-110c5 99 50 160 137 160c61 0 99 -37 134 -37c22 0 33 11 36 37zM320 564c178 0 294 -115 294 -290s-116 -290 -294 -290s-294 115 -294 290s116 290 294 290zM320 395
c-48 0 -71 -37 -71 -121s23 -121 70 -121c49 0 72 37 72 121s-23 121 -71 121z" />
    <glyph glyph-name="oe.smcp" horiz-adv-x="842" 
d="M803 398h-246v-52h226v-144h-226v-52h247v-150h-458c-202 0 -320 100 -320 274s118 274 320 274h457v-150zM374 398h-26c-66 0 -99 -48 -99 -124s33 -124 99 -124h26v248z" />
    <glyph glyph-name="p.smcp" horiz-adv-x="638" 
d="M57 548h322c166 0 243 -77 243 -203c0 -125 -77 -203 -243 -203h-102v-142h-220v548zM277 404v-118h46c50 0 72 22 72 59s-22 59 -72 59h-46z" />
    <glyph glyph-name="thorn.smcp" horiz-adv-x="638" 
d="M277 485h102c166 0 243 -77 243 -203c0 -125 -77 -203 -243 -203h-102v-79h-220v548h220v-63zM277 342v-118h46c50 0 72 22 72 59s-22 59 -72 59h-46z" />
    <glyph glyph-name="q.smcp" horiz-adv-x="639" 
d="M614 274c0 -78 -23 -144 -64 -193l61 -65l-95 -88l-72 78c-37 -14 -78 -22 -124 -22c-178 0 -294 115 -294 290s116 290 294 290s294 -115 294 -290zM246 269c0 -87 26 -126 80 -126h5l-48 52l80 73l42 -45c2 14 3 29 3 46c0 87 -26 126 -81 126s-81 -39 -81 -126z" />
    <glyph glyph-name="r.smcp" horiz-adv-x="656" 
d="M57 548h337c134 0 219 -43 219 -159c0 -68 -41 -113 -111 -134v-2c45 -15 68 -46 97 -121l52 -132h-233l-38 107c-17 49 -35 67 -78 67h-25v-174h-220v548zM277 412v-108h56c47 0 66 22 66 56c0 37 -25 52 -69 52h-53z" />
    <glyph glyph-name="racute.smcp" horiz-adv-x="656" 
d="M372 600h-164l81 152h226zM57 548h337c134 0 219 -43 219 -159c0 -68 -41 -113 -111 -134v-2c45 -15 68 -46 97 -121l52 -132h-233l-38 107c-17 49 -35 67 -78 67h-25v-174h-220v548zM277 412v-108h56c47 0 66 22 66 56c0 37 -25 52 -69 52h-53z" />
    <glyph glyph-name="rcaron.smcp" horiz-adv-x="656" 
d="M410 600h-169l-127 152h159l52 -75l53 75h159zM57 548h337c134 0 219 -43 219 -159c0 -68 -41 -113 -111 -134v-2c45 -15 68 -46 97 -121l52 -132h-233l-38 107c-17 49 -35 67 -78 67h-25v-174h-220v548zM277 412v-108h56c47 0 66 22 66 56c0 37 -25 52 -69 52h-53z" />
    <glyph glyph-name="rcommaaccent.smcp" horiz-adv-x="656" 
d="M57 548h337c134 0 219 -43 219 -159c0 -68 -41 -113 -111 -134v-2c45 -15 68 -46 97 -121l52 -132h-233l-38 107c-17 49 -35 67 -78 67h-25v-174h-220v548zM277 412v-108h56c47 0 66 22 66 56c0 37 -25 52 -69 52h-53zM416 -173l-76 -112h-77l48 112h-48v129h153v-129z
" />
    <glyph glyph-name="s.smcp" horiz-adv-x="561" 
d="M285 564c150 0 245 -61 245 -181h-204c0 31 -18 47 -53 47c-33 0 -49 -12 -49 -34s22 -28 92 -43c118 -25 222 -62 222 -184c0 -117 -94 -185 -261 -185c-168 0 -262 72 -262 191h210c0 -35 17 -52 60 -52c34 0 51 15 51 34c0 23 -24 30 -91 47c-115 29 -216 61 -216 177
c0 112 88 183 256 183z" />
    <glyph glyph-name="sacute.smcp" horiz-adv-x="561" 
d="M332 600h-164l81 152h226zM285 564c150 0 245 -61 245 -181h-204c0 31 -18 47 -53 47c-33 0 -49 -12 -49 -34s22 -28 92 -43c118 -25 222 -62 222 -184c0 -117 -94 -185 -261 -185c-168 0 -262 72 -262 191h210c0 -35 17 -52 60 -52c34 0 51 15 51 34c0 23 -24 30 -91 47
c-115 29 -216 61 -216 177c0 112 88 183 256 183z" />
    <glyph glyph-name="scaron.smcp" horiz-adv-x="561" 
d="M370 600h-169l-127 152h159l52 -75l53 75h159zM285 564c150 0 245 -61 245 -181h-204c0 31 -18 47 -53 47c-33 0 -49 -12 -49 -34s22 -28 92 -43c118 -25 222 -62 222 -184c0 -117 -94 -185 -261 -185c-168 0 -262 72 -262 191h210c0 -35 17 -52 60 -52c34 0 51 15 51 34
c0 23 -24 30 -91 47c-115 29 -216 61 -216 177c0 112 88 183 256 183z" />
    <glyph glyph-name="scedilla.smcp" horiz-adv-x="561" 
d="M538 169c0 -108 -80 -174 -224 -184l-26 -43c11 3 22 5 33 5c63 0 93 -32 93 -82c0 -62 -47 -110 -140 -110c-44 0 -93 12 -133 37l34 70c31 -14 62 -23 83 -23c22 0 34 8 34 22s-11 24 -35 24c-10 0 -22 -3 -29 -7l-47 36l42 73c-134 14 -208 82 -208 188h210
c0 -35 17 -52 60 -52c34 0 51 15 51 34c0 23 -24 30 -91 47c-115 29 -216 61 -216 177c0 112 88 183 256 183c150 0 245 -61 245 -181h-204c0 31 -18 47 -53 47c-33 0 -49 -12 -49 -34s22 -28 92 -43c118 -25 222 -62 222 -184z" />
    <glyph glyph-name="scircumflex.smcp" horiz-adv-x="561" 
d="M338 600l-53 75l-52 -75h-159l127 152h169l127 -152h-159zM285 564c150 0 245 -61 245 -181h-204c0 31 -18 47 -53 47c-33 0 -49 -12 -49 -34s22 -28 92 -43c118 -25 222 -62 222 -184c0 -117 -94 -185 -261 -185c-168 0 -262 72 -262 191h210c0 -35 17 -52 60 -52
c34 0 51 15 51 34c0 23 -24 30 -91 47c-115 29 -216 61 -216 177c0 112 88 183 256 183z" />
    <glyph glyph-name="scommaaccent.smcp" horiz-adv-x="561" 
d="M285 564c150 0 245 -61 245 -181h-204c0 31 -18 47 -53 47c-33 0 -49 -12 -49 -34s22 -28 92 -43c118 -25 222 -62 222 -184c0 -117 -94 -185 -261 -185c-168 0 -262 72 -262 191h210c0 -35 17 -52 60 -52c34 0 51 15 51 34c0 23 -24 30 -91 47c-115 29 -216 61 -216 177
c0 112 88 183 256 183zM353 -173l-76 -112h-77l48 112h-48v129h153v-129z" />
    <glyph glyph-name="germandbls.smcp" horiz-adv-x="728" 
d="M672 443l-106 -117c89 -31 139 -88 139 -172c0 -109 -90 -170 -226 -170c-131 0 -203 58 -203 185h170c0 -24 8 -35 30 -35c20 0 28 8 28 22c0 39 -48 60 -138 65v112l59 64c-12 5 -27 7 -47 7c-76 0 -117 -40 -117 -117v-287h-208v292c0 178 114 272 325 272
c125 0 231 -49 294 -121z" />
    <glyph glyph-name="t.smcp" horiz-adv-x="540" 
d="M533 370h-153v-370h-220v370h-153v178h526v-178z" />
    <glyph glyph-name="tbar.smcp" horiz-adv-x="540" 
d="M380 370v-85h80v-109h-80v-176h-220v176h-80v109h80v85h-153v178h526v-178h-153z" />
    <glyph glyph-name="tcaron.smcp" horiz-adv-x="540" 
d="M355 600h-169l-127 152h159l52 -75l53 75h159zM533 370h-153v-370h-220v370h-153v178h526v-178z" />
    <glyph glyph-name="tcedilla.smcp" horiz-adv-x="540" 
d="M533 370h-153v-370h-220v370h-153v178h526v-178zM346 -173l-76 -112h-77l48 112h-48v129h153v-129z" />
    <glyph glyph-name="tcommaaccent.smcp" horiz-adv-x="540" 
d="M533 370h-153v-370h-220v370h-153v178h526v-178zM346 -173l-76 -112h-77l48 112h-48v129h153v-129z" />
    <glyph glyph-name="u.smcp" horiz-adv-x="660" 
d="M609 548v-315c0 -155 -101 -249 -279 -249s-279 94 -279 249v315h220v-312c0 -43 20 -65 59 -65s59 22 59 65v312h220z" />
    <glyph glyph-name="uacute.smcp" horiz-adv-x="660" 
d="M377 600h-164l81 152h226zM609 548v-315c0 -155 -101 -249 -279 -249s-279 94 -279 249v315h220v-312c0 -43 20 -65 59 -65s59 22 59 65v312h220z" />
    <glyph glyph-name="ubreve.smcp" horiz-adv-x="660" 
d="M386 752h128c-3 -102 -67 -160 -184 -160s-181 58 -184 160h128c1 -32 19 -45 56 -45s54 13 56 45zM609 548v-315c0 -155 -101 -249 -279 -249s-279 94 -279 249v315h220v-312c0 -43 20 -65 59 -65s59 22 59 65v312h220z" />
    <glyph glyph-name="ucircumflex.smcp" horiz-adv-x="660" 
d="M383 600l-53 75l-52 -75h-159l127 152h169l127 -152h-159zM609 548v-315c0 -155 -101 -249 -279 -249s-279 94 -279 249v315h220v-312c0 -43 20 -65 59 -65s59 22 59 65v312h220z" />
    <glyph glyph-name="udieresis.smcp" horiz-adv-x="660" 
d="M298 600h-182v152h182v-152zM544 600h-182v152h182v-152zM609 548v-315c0 -155 -101 -249 -279 -249s-279 94 -279 249v315h220v-312c0 -43 20 -65 59 -65s59 22 59 65v312h220z" />
    <glyph glyph-name="ugrave.smcp" horiz-adv-x="660" 
d="M366 752l81 -152h-164l-143 152h226zM609 548v-315c0 -155 -101 -249 -279 -249s-279 94 -279 249v315h220v-312c0 -43 20 -65 59 -65s59 22 59 65v312h220z" />
    <glyph glyph-name="uhungarumlaut.smcp" horiz-adv-x="660" 
d="M255 600h-150l101 152h192zM491 600h-150l101 152h192zM609 548v-315c0 -155 -101 -249 -279 -249s-279 94 -279 249v315h220v-312c0 -43 20 -65 59 -65s59 22 59 65v312h220z" />
    <glyph glyph-name="umacron.smcp" horiz-adv-x="660" 
d="M543 612h-426v127h426v-127zM609 548v-315c0 -155 -101 -249 -279 -249s-279 94 -279 249v315h220v-312c0 -43 20 -65 59 -65s59 22 59 65v312h220z" />
    <glyph glyph-name="uogonek.smcp" horiz-adv-x="660" 
d="M609 548v-312c0 -88 -31 -151 -83 -213c-31 -37 -40 -58 -40 -81c0 -21 12 -30 34 -30c10 0 22 3 31 7v-104c-33 -11 -76 -18 -121 -18c-95 0 -140 36 -140 96c0 41 24 69 66 93v2c-7 -1 -16 -1 -26 -1c-178 0 -279 94 -279 249v312h220v-309c0 -43 20 -65 59 -65
s59 22 59 65v309h220z" />
    <glyph glyph-name="uring.smcp" horiz-adv-x="660" 
d="M330 837c70 0 125 -57 125 -126c0 -68 -55 -125 -125 -125c-69 0 -126 57 -126 125c0 69 57 126 126 126zM330 771c-33 0 -60 -27 -60 -60s27 -60 60 -60s60 27 60 60s-27 60 -60 60zM609 548v-315c0 -155 -101 -249 -279 -249s-279 94 -279 249v315h220v-312
c0 -43 20 -65 59 -65s59 22 59 65v312h220z" />
    <glyph glyph-name="utilde.smcp" horiz-adv-x="660" 
d="M428 752h110c-5 -98 -50 -160 -137 -160c-61 0 -98 38 -134 38c-22 0 -33 -14 -36 -38h-110c5 99 50 160 137 160c61 0 99 -37 134 -37c22 0 33 11 36 37zM609 548v-315c0 -155 -101 -249 -279 -249s-279 94 -279 249v315h220v-312c0 -43 20 -65 59 -65s59 22 59 65v312
h220z" />
    <glyph glyph-name="v.smcp" horiz-adv-x="650" 
d="M487 0h-324l-162 548h235l49 -207c16 -63 30 -129 39 -192h2c9 63 23 129 39 192l49 207h235z" />
    <glyph glyph-name="w.smcp" horiz-adv-x="980" 
d="M866 0h-312l-38 225c-10 61 -19 121 -25 182h-2c-6 -61 -15 -121 -25 -182l-38 -225h-312l-109 548h214l32 -192c11 -67 21 -138 28 -209h2c8 71 18 141 30 209l35 192h288l35 -192c12 -68 22 -138 30 -209h2c7 71 17 142 28 209l32 192h214z" />
    <glyph glyph-name="wacute.smcp" horiz-adv-x="980" 
d="M537 600h-164l81 152h226zM866 0h-312l-38 225c-10 61 -19 121 -25 182h-2c-6 -61 -15 -121 -25 -182l-38 -225h-312l-109 548h214l32 -192c11 -67 21 -138 28 -209h2c8 71 18 141 30 209l35 192h288l35 -192c12 -68 22 -138 30 -209h2c7 71 17 142 28 209l32 192h214z
" />
    <glyph glyph-name="wcircumflex.smcp" horiz-adv-x="980" 
d="M543 600l-53 75l-52 -75h-159l127 152h169l127 -152h-159zM866 0h-312l-38 225c-10 61 -19 121 -25 182h-2c-6 -61 -15 -121 -25 -182l-38 -225h-312l-109 548h214l32 -192c11 -67 21 -138 28 -209h2c8 71 18 141 30 209l35 192h288l35 -192c12 -68 22 -138 30 -209h2
c7 71 17 142 28 209l32 192h214z" />
    <glyph glyph-name="wdieresis.smcp" horiz-adv-x="980" 
d="M458 600h-182v152h182v-152zM704 600h-182v152h182v-152zM866 0h-312l-38 225c-10 61 -19 121 -25 182h-2c-6 -61 -15 -121 -25 -182l-38 -225h-312l-109 548h214l32 -192c11 -67 21 -138 28 -209h2c8 71 18 141 30 209l35 192h288l35 -192c12 -68 22 -138 30 -209h2
c7 71 17 142 28 209l32 192h214z" />
    <glyph glyph-name="wgrave.smcp" horiz-adv-x="980" 
d="M526 752l81 -152h-164l-143 152h226zM866 0h-312l-38 225c-10 61 -19 121 -25 182h-2c-6 -61 -15 -121 -25 -182l-38 -225h-312l-109 548h214l32 -192c11 -67 21 -138 28 -209h2c8 71 18 141 30 209l35 192h288l35 -192c12 -68 22 -138 30 -209h2c7 71 17 142 28 209
l32 192h214z" />
    <glyph glyph-name="x.smcp" horiz-adv-x="622" 
d="M447 287l176 -287h-234l-77 169h-2l-78 -169h-233l175 287l-162 261h228l70 -160h2l69 160h229z" />
    <glyph glyph-name="y.smcp" horiz-adv-x="592" 
d="M406 180v-180h-220v180l-187 368h239l27 -93c12 -40 23 -86 30 -128h2c7 42 19 88 30 128l27 93h239z" />
    <glyph glyph-name="yacute.smcp" horiz-adv-x="592" 
d="M343 600h-164l81 152h226zM406 180v-180h-220v180l-187 368h239l27 -93c12 -40 23 -86 30 -128h2c7 42 19 88 30 128l27 93h239z" />
    <glyph glyph-name="ycircumflex.smcp" horiz-adv-x="592" 
d="M349 600l-53 75l-52 -75h-159l127 152h169l127 -152h-159zM406 180v-180h-220v180l-187 368h239l27 -93c12 -40 23 -86 30 -128h2c7 42 19 88 30 128l27 93h239z" />
    <glyph glyph-name="ydieresis.smcp" horiz-adv-x="592" 
d="M264 600h-182v152h182v-152zM510 600h-182v152h182v-152zM406 180v-180h-220v180l-187 368h239l27 -93c12 -40 23 -86 30 -128h2c7 42 19 88 30 128l27 93h239z" />
    <glyph glyph-name="ygrave.smcp" horiz-adv-x="592" 
d="M332 752l81 -152h-164l-143 152h226zM406 180v-180h-220v180l-187 368h239l27 -93c12 -40 23 -86 30 -128h2c7 42 19 88 30 128l27 93h239z" />
    <glyph glyph-name="z.smcp" horiz-adv-x="511" 
d="M478 367l-205 -192v-2h217v-173h-472v181l206 192v2h-195v173h449v-181z" />
    <glyph glyph-name="zacute.smcp" horiz-adv-x="511" 
d="M301 600h-164l81 152h226zM478 367l-205 -192v-2h217v-173h-472v181l206 192v2h-195v173h449v-181z" />
    <glyph glyph-name="zcaron.smcp" horiz-adv-x="511" 
d="M339 600h-169l-127 152h159l52 -75l53 75h159zM478 367l-205 -192v-2h217v-173h-472v181l206 192v2h-195v173h449v-181z" />
    <glyph glyph-name="zdotaccent.smcp" horiz-adv-x="511" 
d="M363 600h-218v152h218v-152zM478 367l-205 -192v-2h217v-173h-472v181l206 192v2h-195v173h449v-181z" />
    <glyph glyph-name="ccedilla.smcp.ss01" horiz-adv-x="621" 
d="M310 564c167 0 279 -79 285 -235h-227c-5 48 -23 70 -58 70c-37 0 -62 -37 -62 -126c0 -86 27 -124 64 -124c32 0 54 27 58 74h228c-12 -159 -123 -239 -286 -239c-180 0 -287 108 -287 289c0 182 108 291 285 291zM320 -217h-201l143 168h160z" />
    <glyph glyph-name="scedilla.smcp.ss01" horiz-adv-x="561" 
d="M285 564c150 0 245 -61 245 -181h-204c0 31 -18 47 -53 47c-33 0 -49 -12 -49 -34s22 -28 92 -43c118 -25 222 -62 222 -184c0 -117 -94 -185 -261 -185c-168 0 -262 72 -262 191h210c0 -35 17 -52 60 -52c34 0 51 15 51 34c0 23 -24 30 -91 47c-115 29 -216 61 -216 177
c0 112 88 183 256 183zM285 -217h-201l143 168h160z" />
    <glyph glyph-name="tcedilla.smcp.ss01" horiz-adv-x="540" 
d="M533 370h-153v-370h-220v370h-153v178h526v-178zM278 -217h-201l143 168h160z" />
    <glyph glyph-name="ordfeminine" unicode="&#xaa;" horiz-adv-x="435" 
d="M215 697c132 0 189 -58 189 -154v-104c0 -50 4 -82 13 -109h-151c-4 11 -6 27 -6 42h-2c-29 -35 -70 -53 -118 -53c-82 0 -130 50 -130 114c0 68 44 103 155 119c26 4 58 7 78 8v13c0 27 -11 37 -30 37s-30 -10 -30 -38h-158c5 64 53 125 190 125zM243 474v12
c-9 0 -31 -3 -43 -7c-21 -6 -28 -19 -28 -35c0 -18 10 -30 29 -30c11 0 23 4 31 14c9 12 11 23 11 46z" />
    <glyph glyph-name="ordmasculine" unicode="&#xba;" horiz-adv-x="456" 
d="M228 697c130 0 214 -73 214 -189s-84 -189 -214 -189s-214 73 -214 189s84 189 214 189zM228 575c-29 0 -42 -23 -42 -67s13 -67 42 -67s42 23 42 67s-13 67 -42 67z" />
    <glyph glyph-name="Delta" unicode="&#x394;" horiz-adv-x="746" 
d="M750 0h-754l239 712h276zM469 172l-42 156c-19 72 -38 150 -53 223h-2c-15 -73 -34 -151 -53 -223l-41 -156h191z" />
    <glyph glyph-name="Omega" unicode="&#x3a9;" horiz-adv-x="772" 
d="M386 728c207 0 353 -100 353 -306c0 -104 -53 -173 -117 -231v-2h128v-189h-325v195c42 43 75 100 75 187c0 104 -48 155 -114 155s-114 -51 -114 -155c0 -87 33 -144 75 -187v-195h-325v189h128v2c-64 58 -117 127 -117 231c0 206 146 306 353 306z" />
    <glyph glyph-name="mu" unicode="&#x3bc;" horiz-adv-x="653" 
d="M580 508v-310c0 -37 14 -49 40 -49c8 0 17 1 25 3v-145c-34 -12 -75 -19 -124 -19c-66 0 -113 22 -139 64h-2c-19 -37 -48 -57 -88 -57c-9 0 -19 1 -27 4v-184h-218v693h218v-276c0 -57 15 -80 45 -80c32 0 52 23 52 98v258h218z" />
    <glyph glyph-name="pi" unicode="&#x3c0;" horiz-adv-x="701" 
d="M686 354h-76v-154c0 -40 12 -50 40 -50c9 0 20 1 26 3v-151c-28 -8 -73 -13 -111 -13c-118 0 -173 46 -173 180v185h-90v-354h-218v354h-78v154h680v-154z" />
    <glyph glyph-name="zero.lf" horiz-adv-x="684" 
d="M342 690c197 0 308 -128 308 -353s-111 -353 -308 -353s-308 128 -308 353s111 353 308 353zM342 531c-56 0 -84 -71 -84 -194s28 -194 84 -194s84 71 84 194s-28 194 -84 194z" />
    <glyph glyph-name="one.lf" horiz-adv-x="476" 
d="M405 0h-226v391h-164v162c121 0 176 36 189 121h201v-674z" />
    <glyph glyph-name="two.lf" horiz-adv-x="674" 
d="M337 690c177 0 282 -95 282 -215c0 -114 -76 -170 -185 -211c-113 -43 -130 -62 -135 -89h339v-175h-597c-1 12 -2 29 -2 48c0 149 49 238 194 308c91 44 159 74 159 125c0 30 -20 49 -53 49c-39 0 -68 -28 -68 -86h-223c-1 157 105 246 289 246z" />
    <glyph glyph-name="three.lf" horiz-adv-x="660" 
d="M327 690c177 0 285 -75 285 -192c0 -72 -33 -116 -115 -146v-2c87 -28 124 -75 124 -154c0 -130 -114 -212 -291 -212c-200 0 -309 87 -309 248h228c0 -59 29 -88 80 -88c42 0 68 21 68 56c0 42 -29 63 -93 63h-16v154h24c50 0 80 23 80 58c0 34 -22 55 -64 55
c-52 0 -78 -33 -78 -83h-218c0 152 110 243 295 243z" />
    <glyph glyph-name="four.lf" horiz-adv-x="678" 
d="M662 119h-122v-119h-216v119h-309v168l244 387h281v-394h122v-161zM197 280h137v61c0 60 2 121 7 181h-2c-24 -50 -52 -100 -83 -149z" />
    <glyph glyph-name="five.lf" horiz-adv-x="668" 
d="M582 498h-311l-8 -90h2c40 31 85 47 138 47c133 0 226 -91 226 -220c0 -153 -118 -251 -298 -251c-176 0 -291 80 -291 220h226c0 -39 26 -65 69 -65c46 0 73 29 73 84c0 54 -29 82 -71 82c-40 0 -61 -25 -69 -56l-216 14l37 411h493v-176z" />
    <glyph glyph-name="six.lf" horiz-adv-x="655" 
d="M344 690c157 0 262 -78 273 -216h-223c-4 42 -25 64 -60 64c-46 0 -78 -45 -82 -152h2c38 37 86 55 150 55c128 0 221 -89 221 -215c0 -142 -117 -242 -285 -242c-191 0 -306 118 -306 343c0 224 119 363 310 363zM340 295c-38 0 -65 -31 -65 -76s28 -77 67 -77
c38 0 65 33 65 75c0 46 -27 78 -67 78z" />
    <glyph glyph-name="seven.lf" horiz-adv-x="550" 
d="M534 674v-168c-103 -138 -173 -325 -209 -506h-240c42 186 127 375 228 498h-298v176h519z" />
    <glyph glyph-name="eight.lf" horiz-adv-x="654" 
d="M327 690c169 0 277 -77 277 -192c0 -72 -46 -130 -125 -147v-2c84 -16 142 -80 142 -163c0 -128 -107 -202 -294 -202s-294 74 -294 202c0 83 58 147 142 163v2c-79 17 -125 75 -125 147c0 115 108 192 277 192zM327 538c-43 0 -70 -25 -70 -63c0 -34 27 -59 70 -59
s70 25 70 59c0 38 -27 63 -70 63zM327 267c-45 0 -72 -24 -72 -64c0 -39 28 -65 72 -65s72 26 72 65c0 40 -27 64 -72 64z" />
    <glyph glyph-name="nine.lf" horiz-adv-x="655" 
d="M321 -15c-157 0 -262 78 -273 216h223c4 -42 25 -64 60 -64c46 0 78 45 82 152h-2c-38 -37 -86 -55 -150 -55c-128 0 -221 89 -221 215c0 142 117 242 285 242c191 0 306 -118 306 -343c0 -224 -119 -363 -310 -363zM325 380c38 0 65 31 65 76s-28 77 -67 77
c-38 0 -65 -33 -65 -75c0 -46 27 -78 67 -78z" />
    <glyph glyph-name="fraction" unicode="&#x2044;" horiz-adv-x="151" 
d="M-40 0h-119l350 674h119z" />
    <glyph glyph-name="onehalf" unicode="&#xbd;" horiz-adv-x="887" 
d="M267 270h-156v227h-102v105c70 0 106 25 118 72h140v-404zM270 0h-119l350 674h119zM676 414c112 0 177 -60 177 -132c0 -67 -47 -101 -116 -124c-70 -23 -81 -31 -85 -47h213v-111h-380c-1 10 -1 21 -1 32c0 91 32 141 121 182c64 29 101 46 101 72c0 17 -11 27 -31 27
c-22 0 -40 -16 -40 -49h-145c0 95 67 150 186 150z" />
    <glyph glyph-name="onequarter" unicode="&#xbc;" horiz-adv-x="871" 
d="M111 270v227h-102v105c70 0 106 25 118 72h140v-404h-156zM620 674l-350 -674h-119l350 674h119zM861 67h-79v-67h-140v67h-192v107l150 230h182v-235h79v-102zM571 169h79v29c0 35 1 76 4 111h-2c-14 -30 -31 -61 -50 -91z" />
    <glyph glyph-name="threequarters" unicode="&#xbe;" horiz-adv-x="979" 
d="M394 388c0 -83 -64 -128 -185 -128c-124 0 -197 52 -197 152h146c0 -36 18 -51 51 -51c26 0 42 13 42 32c0 21 -17 31 -53 31h-14v97h13c35 0 51 9 51 31c0 19 -16 31 -42 31c-31 0 -48 -19 -48 -47h-139c0 93 71 148 189 148c108 0 181 -47 181 -119
c0 -42 -21 -70 -73 -84v-2c55 -16 78 -44 78 -91zM728 674l-350 -674h-119l350 674h119zM969 67h-79v-67h-140v67h-192v107l150 230h182v-235h79v-102zM679 169h79v29c0 35 1 76 4 111h-2c-14 -30 -31 -61 -50 -91z" />
    <glyph glyph-name="oneeighth" unicode="&#x215b;" horiz-adv-x="873" 
d="M267 270h-156v227h-102v105c70 0 106 25 118 72h140v-404zM270 0h-119l350 674h119zM667 414c107 0 175 -47 175 -119c0 -42 -29 -74 -79 -84v-2c54 -9 90 -47 90 -96c0 -78 -67 -123 -186 -123s-186 45 -186 123c0 49 36 87 90 96v2c-50 10 -79 42 -79 84
c0 72 68 119 175 119zM667 319c-25 0 -41 -13 -41 -33c0 -19 16 -33 41 -33s41 14 41 33c0 20 -16 33 -41 33zM667 157c-25 0 -42 -12 -42 -34s17 -36 42 -36s42 14 42 36s-17 34 -42 34z" />
    <glyph glyph-name="threeeighths" unicode="&#x215c;" horiz-adv-x="981" 
d="M208 684c108 0 181 -47 181 -119c0 -42 -21 -70 -73 -84v-2c55 -16 78 -44 78 -91c0 -83 -64 -128 -185 -128c-124 0 -197 52 -197 152h146c0 -36 18 -51 51 -51c26 0 42 13 42 32c0 21 -17 31 -53 31h-14v97h13c35 0 51 9 51 31c0 19 -16 31 -42 31
c-31 0 -48 -19 -48 -47h-139c0 93 71 148 189 148zM378 0h-119l350 674h119zM775 414c107 0 175 -47 175 -119c0 -42 -29 -74 -79 -84v-2c54 -9 90 -47 90 -96c0 -78 -67 -123 -186 -123s-186 45 -186 123c0 49 36 87 90 96v2c-50 10 -79 42 -79 84c0 72 68 119 175 119z
M775 319c-25 0 -41 -13 -41 -33c0 -19 16 -33 41 -33s41 14 41 33c0 20 -16 33 -41 33zM775 157c-25 0 -42 -12 -42 -34s17 -36 42 -36s42 14 42 36s-17 34 -42 34z" />
    <glyph glyph-name="fiveeighths" unicode="&#x215d;" horiz-adv-x="985" 
d="M368 562h-191l-5 -50h2c21 17 47 26 84 26c82 0 141 -54 141 -131c0 -90 -75 -147 -188 -147c-112 0 -187 48 -187 134h148c0 -22 14 -39 42 -39c29 0 44 20 44 51c0 28 -17 46 -43 46c-22 0 -35 -13 -39 -33l-143 8l23 247h312v-112zM382 0h-119l350 674h119zM779 414
c107 0 175 -47 175 -119c0 -42 -29 -74 -79 -84v-2c54 -9 90 -47 90 -96c0 -78 -67 -123 -186 -123s-186 45 -186 123c0 49 36 87 90 96v2c-50 10 -79 42 -79 84c0 72 68 119 175 119zM779 319c-25 0 -41 -13 -41 -33c0 -19 16 -33 41 -33s41 14 41 33c0 20 -16 33 -41 33z
M779 157c-25 0 -42 -12 -42 -34s17 -36 42 -36s42 14 42 36s-17 34 -42 34z" />
    <glyph glyph-name="seveneighths" unicode="&#x215e;" horiz-adv-x="882" 
d="M359 674v-105c-65 -83 -109 -195 -131 -299h-156c26 105 79 217 142 292h-205v112h350zM279 0h-119l350 674h119zM676 414c107 0 175 -47 175 -119c0 -42 -29 -74 -79 -84v-2c54 -9 90 -47 90 -96c0 -78 -67 -123 -186 -123s-186 45 -186 123c0 49 36 87 90 96v2
c-50 10 -79 42 -79 84c0 72 68 119 175 119zM676 319c-25 0 -41 -13 -41 -33c0 -19 16 -33 41 -33s41 14 41 33c0 20 -16 33 -41 33zM676 157c-25 0 -42 -12 -42 -34s17 -36 42 -36s42 14 42 36s-17 34 -42 34z" />
    <glyph glyph-name="zero.dnom" horiz-adv-x="432" 
d="M216 414c126 0 196 -77 196 -212s-70 -212 -196 -212s-196 77 -196 212s70 212 196 212zM216 313c-34 0 -50 -39 -50 -111c0 -70 16 -111 50 -111s50 41 50 111c0 72 -16 111 -50 111z" />
    <glyph glyph-name="one.dnom" horiz-adv-x="310" 
d="M267 0h-156v227h-102v105c70 0 106 25 118 72h140v-404z" />
    <glyph glyph-name="two.dnom" horiz-adv-x="426" 
d="M215 414c112 0 177 -60 177 -132c0 -67 -47 -101 -116 -124c-70 -23 -81 -31 -85 -47h213v-111h-380c-1 10 -1 21 -1 32c0 91 32 141 121 182c64 29 101 46 101 72c0 17 -11 27 -31 27c-22 0 -40 -16 -40 -49h-145c0 95 67 150 186 150z" />
    <glyph glyph-name="three.dnom" horiz-adv-x="418" 
d="M209 414c108 0 181 -47 181 -119c0 -42 -21 -70 -73 -84v-2c55 -16 78 -44 78 -91c0 -83 -64 -128 -185 -128c-124 0 -197 52 -197 152h146c0 -36 18 -51 51 -51c26 0 42 13 42 32c0 21 -17 31 -53 31h-14v97h13c35 0 51 9 51 31c0 19 -16 31 -42 31
c-31 0 -48 -19 -48 -47h-139c0 93 71 148 189 148z" />
    <glyph glyph-name="four.dnom" horiz-adv-x="430" 
d="M420 67h-79v-67h-140v67h-192v107l150 230h182v-235h79v-102zM130 169h79v29c0 35 1 76 4 111h-2c-14 -30 -31 -61 -50 -91z" />
    <glyph glyph-name="five.dnom" horiz-adv-x="422" 
d="M368 292h-191l-5 -50h2c21 17 47 26 84 26c82 0 141 -54 141 -131c0 -90 -75 -147 -188 -147c-112 0 -187 48 -187 134h148c0 -22 14 -39 42 -39c29 0 44 20 44 51c0 28 -17 46 -43 46c-22 0 -35 -13 -39 -33l-143 8l23 247h312v-112z" />
    <glyph glyph-name="six.dnom" horiz-adv-x="413" 
d="M216 414c100 0 167 -48 174 -131h-145c-2 22 -15 36 -36 36c-29 0 -50 -25 -52 -89h2c24 21 54 32 95 32c83 0 141 -51 141 -125c0 -86 -75 -147 -179 -147c-123 0 -196 72 -196 207c0 134 76 217 196 217zM216 175c-21 0 -39 -16 -39 -42c0 -25 16 -43 39 -43
c22 0 38 16 38 42c0 27 -15 43 -38 43z" />
    <glyph glyph-name="seven.dnom" horiz-adv-x="369" 
d="M359 404v-105c-65 -83 -109 -195 -131 -299h-156c26 105 79 217 142 292h-205v112h350z" />
    <glyph glyph-name="eight.dnom" horiz-adv-x="412" 
d="M206 414c107 0 175 -47 175 -119c0 -42 -29 -74 -79 -84v-2c54 -9 90 -47 90 -96c0 -78 -67 -123 -186 -123s-186 45 -186 123c0 49 36 87 90 96v2c-50 10 -79 42 -79 84c0 72 68 119 175 119zM206 319c-25 0 -41 -13 -41 -33c0 -19 16 -33 41 -33s41 14 41 33
c0 20 -16 33 -41 33zM206 157c-25 0 -42 -12 -42 -34s17 -36 42 -36s42 14 42 36s-17 34 -42 34z" />
    <glyph glyph-name="nine.dnom" horiz-adv-x="413" 
d="M198 -9c-100 0 -167 48 -174 131h145c2 -22 15 -36 36 -36c29 0 50 25 52 89h-2c-24 -21 -54 -32 -95 -32c-83 0 -141 51 -141 125c0 86 75 147 179 147c123 0 196 -72 196 -207c0 -134 -76 -217 -196 -217zM198 230c21 0 39 16 39 42c0 25 -16 43 -39 43
c-22 0 -38 -16 -38 -42c0 -27 15 -43 38 -43z" />
    <glyph glyph-name="zero.numr" horiz-adv-x="432" 
d="M216 684c126 0 196 -77 196 -212s-70 -212 -196 -212s-196 77 -196 212s70 212 196 212zM216 583c-34 0 -50 -39 -50 -111c0 -70 16 -111 50 -111s50 41 50 111c0 72 -16 111 -50 111z" />
    <glyph glyph-name="one.numr" horiz-adv-x="310" 
d="M267 270h-156v227h-102v105c70 0 106 25 118 72h140v-404z" />
    <glyph glyph-name="two.numr" horiz-adv-x="426" 
d="M215 684c112 0 177 -60 177 -132c0 -67 -47 -101 -116 -124c-70 -23 -81 -31 -85 -47h213v-111h-380c-1 10 -1 21 -1 32c0 91 32 141 121 182c64 29 101 46 101 72c0 17 -11 27 -31 27c-22 0 -40 -16 -40 -49h-145c0 95 67 150 186 150z" />
    <glyph glyph-name="three.numr" horiz-adv-x="418" 
d="M208 684c108 0 181 -47 181 -119c0 -42 -21 -70 -73 -84v-2c55 -16 78 -44 78 -91c0 -83 -64 -128 -185 -128c-124 0 -197 52 -197 152h146c0 -36 18 -51 51 -51c26 0 42 13 42 32c0 21 -17 31 -53 31h-14v97h13c35 0 51 9 51 31c0 19 -16 31 -42 31
c-31 0 -48 -19 -48 -47h-139c0 93 71 148 189 148z" />
    <glyph glyph-name="four.numr" horiz-adv-x="430" 
d="M420 337h-79v-67h-140v67h-192v107l150 230h182v-235h79v-102zM130 439h79v29c0 35 1 76 4 111h-2c-14 -30 -31 -61 -50 -91z" />
    <glyph glyph-name="five.numr" horiz-adv-x="422" 
d="M368 562h-191l-5 -50h2c21 17 47 26 84 26c82 0 141 -54 141 -131c0 -90 -75 -147 -188 -147c-112 0 -187 48 -187 134h148c0 -22 14 -39 42 -39c29 0 44 20 44 51c0 28 -17 46 -43 46c-22 0 -35 -13 -39 -33l-143 8l23 247h312v-112z" />
    <glyph glyph-name="six.numr" horiz-adv-x="413" 
d="M216 684c100 0 167 -48 174 -131h-145c-2 22 -15 36 -36 36c-29 0 -50 -25 -52 -89h2c24 21 54 32 95 32c83 0 141 -51 141 -125c0 -86 -75 -147 -179 -147c-123 0 -196 72 -196 207c0 134 76 217 196 217zM216 445c-21 0 -39 -16 -39 -42c0 -25 16 -43 39 -43
c22 0 38 16 38 42c0 27 -15 43 -38 43z" />
    <glyph glyph-name="seven.numr" horiz-adv-x="369" 
d="M359 674v-105c-65 -83 -109 -195 -131 -299h-156c26 105 79 217 142 292h-205v112h350z" />
    <glyph glyph-name="eight.numr" horiz-adv-x="412" 
d="M206 684c107 0 175 -47 175 -119c0 -42 -29 -74 -79 -84v-2c54 -9 90 -47 90 -96c0 -78 -67 -123 -186 -123s-186 45 -186 123c0 49 36 87 90 96v2c-50 10 -79 42 -79 84c0 72 68 119 175 119zM206 589c-25 0 -41 -13 -41 -33c0 -19 16 -33 41 -33s41 14 41 33
c0 20 -16 33 -41 33zM206 427c-25 0 -42 -12 -42 -34s17 -36 42 -36s42 14 42 36s-17 34 -42 34z" />
    <glyph glyph-name="nine.numr" horiz-adv-x="413" 
d="M197 261c-100 0 -167 48 -174 131h145c2 -22 15 -36 36 -36c29 0 50 25 52 89h-2c-24 -21 -54 -32 -95 -32c-83 0 -141 51 -141 125c0 86 75 147 179 147c123 0 196 -72 196 -207c0 -134 -76 -217 -196 -217zM197 500c21 0 39 16 39 42c0 25 -16 43 -39 43
c-22 0 -38 -16 -38 -42c0 -27 15 -43 38 -43z" />
    <glyph glyph-name="zeroinferior" unicode="&#x2080;" horiz-adv-x="504" 
d="M252 311c146 0 228 -90 228 -247s-82 -247 -228 -247s-228 90 -228 247s82 247 228 247zM252 193c-39 0 -57 -47 -57 -129s18 -129 57 -129s57 47 57 129s-18 129 -57 129z" />
    <glyph glyph-name="oneinferior" unicode="&#x2081;" horiz-adv-x="352" 
d="M301 -172h-173v262h-118v124c88 0 128 26 137 86h154v-472z" />
    <glyph glyph-name="twoinferior" unicode="&#x2082;" horiz-adv-x="497" 
d="M248 311c133 0 210 -70 210 -154c0 -79 -55 -119 -136 -144s-93 -37 -97 -53h247v-132h-443c-1 9 -2 23 -2 38c0 107 37 171 141 214c66 27 117 48 117 80c0 21 -13 32 -35 32c-25 0 -46 -18 -46 -56h-171c-1 111 78 175 215 175z" />
    <glyph glyph-name="threeinferior" unicode="&#x2083;" horiz-adv-x="488" 
d="M242 311c132 0 213 -53 213 -135c0 -49 -24 -80 -83 -101v-2c63 -20 89 -51 89 -105c0 -93 -85 -151 -216 -151c-149 0 -230 61 -230 175h175c0 -41 20 -60 54 -60c29 0 46 13 46 36c0 28 -20 41 -63 41h-11v115h18c33 0 53 15 53 37c0 21 -14 35 -43 35
c-37 0 -54 -25 -54 -57h-167c0 107 82 172 219 172z" />
    <glyph glyph-name="fourinferior" unicode="&#x2084;" horiz-adv-x="501" 
d="M489 -94h-92v-78h-165v78h-222v126l173 268h214v-273h92v-121zM147 27h93v39c0 39 2 80 5 119h-2c-16 -31 -34 -62 -54 -93z" />
    <glyph glyph-name="fiveinferior" unicode="&#x2085;" horiz-adv-x="493" 
d="M430 166h-226l-5 -51h2c30 18 62 27 101 27c96 0 164 -61 164 -148c0 -108 -87 -177 -221 -177c-131 0 -217 56 -217 157h173c0 -25 17 -42 47 -42c31 0 50 18 50 53c0 34 -20 52 -48 52s-42 -17 -48 -37l-165 10l27 290h366v-134z" />
    <glyph glyph-name="sixinferior" unicode="&#x2086;" horiz-adv-x="483" 
d="M253 311c116 0 195 -55 203 -154h-170c-3 28 -17 42 -41 42c-29 0 -51 -29 -54 -97h2c27 21 62 32 109 32c94 0 160 -59 160 -147c0 -99 -86 -170 -210 -170c-142 0 -228 84 -228 242c0 154 88 252 229 252zM252 30c-27 0 -45 -19 -45 -48s18 -48 45 -48s45 19 45 48
s-18 48 -45 48z" />
    <glyph glyph-name="seveninferior" unicode="&#x2087;" horiz-adv-x="442" 
d="M430 300v-125c-75 -96 -125 -225 -152 -347h-182c29 119 90 246 164 334h-250v138h420z" />
    <glyph glyph-name="eightinferior" unicode="&#x2088;" horiz-adv-x="482" 
d="M241 311c126 0 205 -55 205 -135c0 -50 -33 -91 -91 -102v-2c61 -10 104 -55 104 -113c0 -90 -78 -142 -218 -142s-218 52 -218 142c0 58 43 103 104 113v2c-58 11 -91 52 -91 102c0 80 79 135 205 135zM241 199c-30 0 -48 -15 -48 -39s18 -39 48 -39s48 15 48 39
s-18 39 -48 39zM241 11c-30 0 -48 -15 -48 -40s18 -40 48 -40s48 15 48 40s-18 40 -48 40z" />
    <glyph glyph-name="nineinferior" unicode="&#x2089;" horiz-adv-x="483" 
d="M230 -183c-116 0 -195 55 -203 154h170c3 -28 17 -42 41 -42c29 0 51 29 54 97h-2c-27 -21 -62 -32 -109 -32c-94 0 -160 59 -160 147c0 99 86 170 210 170c142 0 228 -84 228 -242c0 -154 -88 -252 -229 -252zM231 98c27 0 45 19 45 48s-18 48 -45 48s-45 -19 -45 -48
s18 -48 45 -48z" />
    <glyph glyph-name="zerosuperior" unicode="&#x2070;" horiz-adv-x="504" 
d="M252 813c146 0 228 -90 228 -247s-82 -247 -228 -247s-228 90 -228 247s82 247 228 247zM252 695c-39 0 -57 -47 -57 -129s18 -129 57 -129s57 47 57 129s-18 129 -57 129z" />
    <glyph glyph-name="onesuperior" unicode="&#xb9;" horiz-adv-x="352" 
d="M302 330h-173v262h-118v124c88 0 128 26 137 86h154v-472z" />
    <glyph glyph-name="twosuperior" unicode="&#xb2;" horiz-adv-x="497" 
d="M248 813c133 0 210 -70 210 -154c0 -79 -55 -119 -136 -144s-93 -37 -97 -53h247v-132h-443c-1 9 -2 23 -2 38c0 107 37 171 141 214c66 27 117 48 117 80c0 21 -13 32 -35 32c-25 0 -46 -18 -46 -56h-171c-1 111 78 175 215 175z" />
    <glyph glyph-name="threesuperior" unicode="&#xb3;" horiz-adv-x="488" 
d="M242 813c132 0 213 -53 213 -135c0 -49 -24 -80 -83 -101v-2c63 -20 89 -51 89 -105c0 -93 -85 -151 -216 -151c-149 0 -230 61 -230 175h175c0 -41 20 -60 54 -60c29 0 46 13 46 36c0 28 -20 41 -63 41h-11v115h18c33 0 53 15 53 37c0 21 -14 35 -43 35
c-37 0 -54 -25 -54 -57h-167c0 107 82 172 219 172z" />
    <glyph glyph-name="foursuperior" unicode="&#x2074;" horiz-adv-x="501" 
d="M490 408h-92v-78h-165v78h-222v126l173 268h214v-273h92v-121zM148 529h93v39c0 39 2 80 5 119h-2c-16 -31 -34 -62 -54 -93z" />
    <glyph glyph-name="fivesuperior" unicode="&#x2075;" horiz-adv-x="493" 
d="M430 668h-226l-5 -51h2c30 18 62 27 101 27c96 0 164 -61 164 -148c0 -108 -87 -177 -221 -177c-131 0 -217 56 -217 157h173c0 -25 17 -42 47 -42c31 0 50 18 50 53c0 34 -20 52 -48 52s-42 -17 -48 -37l-165 10l27 290h366v-134z" />
    <glyph glyph-name="sixsuperior" unicode="&#x2076;" horiz-adv-x="483" 
d="M253 813c116 0 195 -55 203 -154h-170c-3 28 -17 42 -41 42c-29 0 -51 -29 -54 -97h2c27 21 62 32 109 32c94 0 160 -59 160 -147c0 -99 -86 -170 -210 -170c-142 0 -228 84 -228 242c0 154 88 252 229 252zM252 532c-27 0 -45 -19 -45 -48s18 -48 45 -48s45 19 45 48
s-18 48 -45 48z" />
    <glyph glyph-name="sevensuperior" unicode="&#x2077;" horiz-adv-x="442" 
d="M431 802v-125c-75 -96 -125 -225 -152 -347h-182c29 119 90 246 164 334h-250v138h420z" />
    <glyph glyph-name="eightsuperior" unicode="&#x2078;" horiz-adv-x="482" 
d="M241 813c126 0 205 -55 205 -135c0 -50 -33 -91 -91 -102v-2c61 -10 104 -55 104 -113c0 -90 -78 -142 -218 -142s-218 52 -218 142c0 58 43 103 104 113v2c-58 11 -91 52 -91 102c0 80 79 135 205 135zM241 701c-30 0 -48 -15 -48 -39s18 -39 48 -39s48 15 48 39
s-18 39 -48 39zM241 513c-30 0 -48 -15 -48 -40s18 -40 48 -40s48 15 48 40s-18 40 -48 40z" />
    <glyph glyph-name="ninesuperior" unicode="&#x2079;" horiz-adv-x="483" 
d="M230 319c-116 0 -195 55 -203 154h170c3 -28 17 -42 41 -42c29 0 51 29 54 97h-2c-27 -21 -62 -32 -109 -32c-94 0 -160 59 -160 147c0 99 86 170 210 170c142 0 228 -84 228 -242c0 -154 -88 -252 -229 -252zM231 600c27 0 45 19 45 48s-18 48 -45 48s-45 -19 -45 -48
s18 -48 45 -48z" />
    <glyph glyph-name="zero.smcp" horiz-adv-x="568" 
d="M284 561c167 0 262 -104 262 -287s-95 -287 -262 -287s-262 104 -262 287s95 287 262 287zM284 426c-46 0 -69 -56 -69 -152s23 -152 69 -152s69 56 69 152s-23 152 -69 152z" />
    <glyph glyph-name="one.smcp" horiz-adv-x="568" 
d="M421 0h-195v308h-138v141c102 0 148 29 159 99h174v-548z" />
    <glyph glyph-name="two.smcp" horiz-adv-x="568" 
d="M281 561c152 0 241 -80 241 -178c0 -92 -64 -138 -157 -168c-95 -31 -109 -45 -113 -64h286v-151h-509c-1 10 -2 25 -2 43c0 123 43 197 164 251c76 34 135 57 135 96c0 21 -17 35 -43 35c-31 0 -55 -21 -55 -67h-193c-2 129 89 203 246 203z" />
    <glyph glyph-name="three.smcp" horiz-adv-x="568" 
d="M277 561c151 0 244 -61 244 -156c0 -58 -28 -94 -97 -118v-2c73 -23 104 -60 104 -123c0 -107 -97 -175 -248 -175c-171 0 -264 71 -264 203h198c0 -45 23 -67 65 -67c34 0 55 15 55 41c0 32 -23 47 -76 47h-13v131h21c40 0 64 17 64 43c0 25 -17 40 -52 40
c-43 0 -64 -27 -64 -63h-189c0 124 94 199 252 199z" />
    <glyph glyph-name="four.smcp" horiz-adv-x="568" 
d="M559 92h-105v-92h-187v92h-259v144l204 312h242v-318h105v-138zM164 230h112v46c0 47 2 95 6 141h-2c-19 -37 -41 -75 -66 -112z" />
    <glyph glyph-name="five.smcp" horiz-adv-x="568" 
d="M495 396h-263l-6 -63h2c34 25 72 38 117 38c112 0 190 -74 190 -178c0 -126 -100 -206 -254 -206c-150 0 -248 65 -248 182h196c0 -30 20 -51 56 -51c38 0 60 22 60 64c0 41 -24 62 -58 62c-33 0 -50 -20 -57 -44l-186 12l31 336h420v-152z" />
    <glyph glyph-name="six.smcp" horiz-adv-x="568" 
d="M297 561c133 0 223 -64 233 -178h-193c-3 33 -20 49 -49 49c-37 0 -63 -34 -66 -115h2c32 29 72 42 126 42c108 0 187 -72 187 -174c0 -116 -100 -198 -243 -198c-163 0 -261 97 -261 280c0 180 101 294 264 294zM294 235c-31 0 -53 -23 -53 -56s23 -58 55 -58
c31 0 53 26 53 56c0 34 -23 58 -55 58z" />
    <glyph glyph-name="seven.smcp" horiz-adv-x="568" 
d="M516 548v-150c-82 -111 -135 -261 -162 -398h-217c30 135 96 284 178 383h-274v165h475z" />
    <glyph glyph-name="eight.smcp" horiz-adv-x="568" 
d="M284 561c144 0 235 -63 235 -157c0 -58 -38 -106 -105 -119v-1c71 -12 120 -65 120 -132c0 -105 -91 -165 -250 -165s-250 60 -250 165c0 67 49 120 120 132v1c-67 13 -105 61 -105 119c0 94 91 157 235 157zM284 432c-35 0 -57 -19 -57 -48c0 -25 22 -44 57 -44
s57 19 57 44c0 29 -22 48 -57 48zM284 214c-36 0 -58 -18 -58 -48c0 -29 23 -49 58 -49s58 20 58 49c0 30 -22 48 -58 48z" />
    <glyph glyph-name="nine.smcp" horiz-adv-x="568" 
d="M271 -13c-133 0 -223 64 -233 178h193c3 -33 20 -49 49 -49c37 0 63 34 66 115h-2c-32 -29 -72 -42 -126 -42c-108 0 -187 72 -187 174c0 116 100 198 243 198c163 0 261 -97 261 -280c0 -180 -101 -294 -264 -294zM274 313c31 0 53 23 53 56s-23 58 -55 58
c-31 0 -53 -26 -53 -56c0 -34 23 -58 55 -58z" />
    <glyph glyph-name="zero.lf.smcp" horiz-adv-x="586" 
d="M293 561c167 0 262 -104 262 -287s-95 -287 -262 -287s-262 104 -262 287s95 287 262 287zM293 426c-46 0 -69 -56 -69 -152s23 -152 69 -152s69 56 69 152s-23 152 -69 152z" />
    <glyph glyph-name="one.lf.smcp" horiz-adv-x="410" 
d="M346 0h-195v308h-138v141c102 0 148 29 159 99h174v-548z" />
    <glyph glyph-name="two.lf.smcp" horiz-adv-x="578" 
d="M289 561c152 0 241 -80 241 -178c0 -92 -64 -138 -157 -168c-95 -31 -109 -45 -113 -64h286v-151h-509c-1 10 -2 25 -2 43c0 123 43 197 164 251c76 34 135 57 135 96c0 21 -17 35 -43 35c-31 0 -55 -21 -55 -67h-193c-2 129 89 203 246 203z" />
    <glyph glyph-name="three.lf.smcp" horiz-adv-x="566" 
d="M280 561c151 0 244 -61 244 -156c0 -58 -28 -94 -97 -118v-2c73 -23 104 -60 104 -123c0 -107 -97 -175 -248 -175c-171 0 -264 71 -264 203h198c0 -45 23 -67 65 -67c34 0 55 15 55 41c0 32 -23 47 -76 47h-13v131h21c40 0 64 17 64 43c0 25 -17 40 -52 40
c-43 0 -64 -27 -64 -63h-189c0 124 94 199 252 199z" />
    <glyph glyph-name="four.lf.smcp" horiz-adv-x="579" 
d="M565 92h-105v-92h-187v92h-259v144l204 312h242v-318h105v-138zM170 230h112v46c0 47 2 95 6 141h-2c-19 -37 -41 -75 -66 -112z" />
    <glyph glyph-name="five.lf.smcp" horiz-adv-x="573" 
d="M498 396h-263l-6 -63h2c34 25 72 38 117 38c112 0 190 -74 190 -178c0 -126 -100 -206 -254 -206c-150 0 -248 65 -248 182h196c0 -30 20 -51 56 -51c38 0 60 22 60 64c0 41 -24 62 -58 62c-33 0 -50 -20 -57 -44l-186 12l31 336h420v-152z" />
    <glyph glyph-name="six.lf.smcp" horiz-adv-x="562" 
d="M295 561c133 0 223 -64 233 -178h-193c-3 33 -20 49 -49 49c-37 0 -63 -34 -66 -115h2c32 29 72 42 126 42c108 0 187 -72 187 -174c0 -116 -100 -198 -243 -198c-163 0 -261 97 -261 280c0 180 101 294 264 294zM292 235c-31 0 -53 -23 -53 -56s23 -58 55 -58
c31 0 53 26 53 56c0 34 -23 58 -55 58z" />
    <glyph glyph-name="seven.lf.smcp" horiz-adv-x="502" 
d="M488 548v-150c-82 -111 -135 -261 -162 -398h-217c30 135 96 284 178 383h-274v165h475z" />
    <glyph glyph-name="eight.lf.smcp" horiz-adv-x="559" 
d="M280 561c144 0 235 -63 235 -157c0 -58 -38 -106 -105 -119v-1c71 -12 120 -65 120 -132c0 -105 -91 -165 -250 -165s-250 60 -250 165c0 67 49 120 120 132v1c-67 13 -105 61 -105 119c0 94 91 157 235 157zM280 432c-35 0 -57 -19 -57 -48c0 -25 22 -44 57 -44
s57 19 57 44c0 29 -22 48 -57 48zM280 214c-36 0 -58 -18 -58 -48c0 -29 23 -49 58 -49s58 20 58 49c0 30 -22 48 -58 48z" />
    <glyph glyph-name="nine.lf.smcp" horiz-adv-x="562" 
d="M267 -13c-133 0 -223 64 -233 178h193c3 -33 20 -49 49 -49c37 0 63 34 66 115h-2c-32 -29 -72 -42 -126 -42c-108 0 -187 72 -187 174c0 116 100 198 243 198c163 0 261 -97 261 -280c0 -180 -101 -294 -264 -294zM270 313c31 0 53 23 53 56s-23 58 -55 58
c-31 0 -53 -26 -53 -56c0 -34 23 -58 55 -58z" />
    <glyph glyph-name="periodcentered" unicode="&#xb7;" horiz-adv-x="306" 
d="M264 197h-222v217h222v-217z" />
    <glyph glyph-name="bullet" unicode="&#x2022;" horiz-adv-x="448" 
d="M224 172c-102 0 -184 82 -184 184s82 184 184 184c100 0 184 -82 184 -184s-84 -184 -184 -184z" />
    <glyph glyph-name="ellipsis" unicode="&#x2026;" horiz-adv-x="1034" 
d="M264 0h-222v217h222v-217zM628 0h-222v217h222v-217zM992 0h-222v217h222v-217z" />
    <glyph glyph-name="exclamdown" unicode="&#xa1;" horiz-adv-x="389" 
d="M83 508h222v-176h-222v176zM101 273h186l30 -477h-245z" />
    <glyph glyph-name="overline" unicode="&#x203e;" horiz-adv-x="500" 
d="M500 773h-500v127h500v-127z" />
    <glyph glyph-name="questiondown" unicode="&#xbf;" horiz-adv-x="592" 
d="M200 508h222v-176h-222v176zM308 -220c-174 0 -277 73 -277 196c0 67 23 107 96 165c73 60 93 91 93 144h183c3 -21 4 -46 4 -66c0 -60 -13 -87 -83 -149c-52 -46 -63 -62 -63 -93c0 -30 20 -48 47 -48c39 0 62 27 60 93h224c0 -158 -105 -242 -284 -242z" />
    <glyph glyph-name="underscoredbl" unicode="&#x2017;" horiz-adv-x="500" 
d="M500 -160h-500v110h500v-110zM500 -340h-500v110h500v-110z" />
    <glyph glyph-name="periodcentered.case" horiz-adv-x="306" 
d="M264 247h-222v217h222v-217z" />
    <glyph glyph-name="exclamdown.case" horiz-adv-x="389" 
d="M83 712h222v-176h-222v176zM101 477h186l30 -477h-245z" />
    <glyph glyph-name="periodcentered.loclCAT.case" horiz-adv-x="88" 
d="M41 338h-222v217h222v-217z" />
    <glyph glyph-name="questiondown.case" horiz-adv-x="615" 
d="M200 712h222v-176h-222v176zM308 -16c-174 0 -277 73 -277 196c0 67 23 107 96 165c73 60 93 91 93 144h183c3 -21 4 -46 4 -66c0 -60 -13 -87 -83 -149c-52 -46 -63 -62 -63 -93c0 -30 20 -48 47 -48c39 0 62 27 60 93h224c0 -158 -105 -242 -284 -242z" />
    <glyph glyph-name="slash.case" horiz-adv-x="534" 
d="M218 0h-156l253 712h156z" />
    <glyph glyph-name="periodcentered.loclCAT" horiz-adv-x="260" 
d="M241 247h-222v217h222v-217z" />
    <glyph glyph-name="parenleftinferior" unicode="&#x208d;" horiz-adv-x="288" 
d="M136 347h131c-50 -118 -69 -213 -69 -311s19 -191 69 -311h-131c-80 108 -109 205 -109 311s29 204 109 311z" />
    <glyph glyph-name="parenleftsuperior" unicode="&#x207d;" horiz-adv-x="288" 
d="M136 849h131c-50 -118 -69 -213 -69 -311s19 -191 69 -311h-131c-80 108 -109 205 -109 311s29 204 109 311z" />
    <glyph glyph-name="parenrightinferior" unicode="&#x208e;" horiz-adv-x="288" 
d="M152 -275h-131c50 118 69 213 69 311s-19 191 -69 311h131c80 -108 109 -205 109 -311s-29 -204 -109 -311z" />
    <glyph glyph-name="parenrightsuperior" unicode="&#x207e;" horiz-adv-x="288" 
d="M152 227h-131c50 118 69 213 69 311s-19 191 -69 311h131c80 -108 109 -205 109 -311s-29 -204 -109 -311z" />
    <glyph glyph-name="braceleft.case" horiz-adv-x="406" 
d="M373 772v-124c-48 -2 -69 -16 -69 -72v-76c0 -84 -39 -126 -115 -143v-3c76 -16 115 -58 115 -142v-76c0 -55 21 -70 69 -72v-124h-27c-188 0 -236 59 -236 200v69c0 52 -16 71 -70 84v126c54 12 70 31 70 84v69c0 141 48 200 236 200h27z" />
    <glyph glyph-name="braceright.case" horiz-adv-x="406" 
d="M33 772h27c188 0 236 -59 236 -200v-69c0 -53 16 -72 70 -84v-126c-54 -13 -70 -32 -70 -84v-69c0 -141 -48 -200 -236 -200h-27v124c48 2 69 17 69 72v76c0 84 39 126 115 142v3c-76 17 -115 59 -115 143v76c0 56 -21 70 -69 72v124z" />
    <glyph glyph-name="bracketleft.case" horiz-adv-x="417" 
d="M387 619h-128v-529h127v-150h-331v832h332v-153z" />
    <glyph glyph-name="bracketright.case" horiz-adv-x="417" 
d="M362 772v-832h-331v150h127v529h-128v153h332z" />
    <glyph glyph-name="parenleft.case" horiz-adv-x="391" 
d="M189 772h172c-72 -155 -99 -281 -99 -416c0 -136 27 -261 99 -416h-172c-109 140 -150 270 -150 416s41 274 150 416z" />
    <glyph glyph-name="parenright.case" horiz-adv-x="391" 
d="M30 772h172c109 -142 150 -270 150 -416s-41 -276 -150 -416h-172c72 155 99 280 99 416c0 135 -27 261 -99 416z" />
    <glyph glyph-name="bracketleft.sups" horiz-adv-x="307" 
d="M286 736h-92v-393h92v-116h-247v629h247v-120z" />
    <glyph glyph-name="bracketright.sups" horiz-adv-x="307" 
d="M268 856v-629h-247v116h92v393h-92v120h247z" />
    <glyph glyph-name="emdash" unicode="&#x2014;" horiz-adv-x="1000" 
d="M980 219h-960v146h960v-146z" />
    <glyph glyph-name="endash" unicode="&#x2013;" horiz-adv-x="500" 
d="M480 219h-460v146h460v-146z" />
    <glyph glyph-name="horizontalbar" unicode="&#x2015;" horiz-adv-x="1000" 
d="M980 219h-960v146h960v-146z" />
    <glyph glyph-name="hyphentwo" unicode="&#x2010;" horiz-adv-x="370" 
d="M340 219h-310v146h310v-146z" />
    <glyph glyph-name="softhyphen" unicode="&#xad;" horiz-adv-x="370" 
d="M340 219h-310v146h310v-146z" />
    <glyph glyph-name="emdash.case" horiz-adv-x="1000" 
d="M980 283h-960v146h960v-146z" />
    <glyph glyph-name="endash.case" horiz-adv-x="500" 
d="M480 283h-460v146h460v-146z" />
    <glyph glyph-name="hyphen.case" horiz-adv-x="370" 
d="M340 283h-310v146h310v-146z" />
    <glyph glyph-name="guillemetleft" unicode="&#xab;" horiz-adv-x="647" 
d="M235 254l102 -200h-183l-114 200l114 200h183zM505 254l102 -200h-183l-114 200l114 200h183z" />
    <glyph glyph-name="guillemetright" unicode="&#xbb;" horiz-adv-x="647" 
d="M223 454l114 -200l-114 -200h-183l102 200l-102 200h183zM493 454l114 -200l-114 -200h-183l102 200l-102 200h183z" />
    <glyph glyph-name="guilsinglleft" unicode="&#x2039;" horiz-adv-x="377" 
d="M235 254l102 -200h-183l-114 200l114 200h183z" />
    <glyph glyph-name="guilsinglright" unicode="&#x203a;" horiz-adv-x="377" 
d="M223 455l114 -200l-114 -200h-183l102 200l-102 200h183z" />
    <glyph glyph-name="quotedblbase" unicode="&#x201e;" horiz-adv-x="525" 
d="M237 0l-105 -162h-108l84 162h-60v185h189v-185zM473 0l-105 -162h-108l84 162h-60v185h189v-185z" />
    <glyph glyph-name="quotedblleft" unicode="&#x201c;" horiz-adv-x="525" 
d="M52 550l105 162h108l-84 -162h60v-185h-189v185zM288 550l105 162h108l-84 -162h60v-185h-189v185z" />
    <glyph glyph-name="quotedblright" unicode="&#x201d;" horiz-adv-x="525" 
d="M237 527l-105 -162h-108l84 162h-60v185h189v-185zM473 527l-105 -162h-108l84 162h-60v185h189v-185z" />
    <glyph glyph-name="quoteleft" unicode="&#x2018;" horiz-adv-x="289" 
d="M52 550l105 162h108l-84 -162h60v-185h-189v185z" />
    <glyph glyph-name="quoteright" unicode="&#x2019;" horiz-adv-x="289" 
d="M237 527l-105 -162h-108l84 162h-60v185h189v-185z" />
    <glyph glyph-name="quotesinglbase" unicode="&#x201a;" horiz-adv-x="289" 
d="M237 0l-105 -162h-108l84 162h-60v185h189v-185z" />
    <glyph glyph-name="guillemetleft.case" horiz-adv-x="647" 
d="M235 356l102 -200h-183l-114 200l114 200h183zM505 356l102 -200h-183l-114 200l114 200h183z" />
    <glyph glyph-name="guillemetright.case" horiz-adv-x="647" 
d="M223 556l114 -200l-114 -200h-183l102 200l-102 200h183zM493 556l114 -200l-114 -200h-183l102 200l-102 200h183z" />
    <glyph glyph-name="guilsinglleft.case" horiz-adv-x="377" 
d="M235 356l102 -200h-183l-114 200l114 200h183z" />
    <glyph glyph-name="guilsinglright.case" horiz-adv-x="377" 
d="M223 556l114 -200l-114 -200h-183l102 200l-102 200h183z" />
    <glyph glyph-name="quoteright.loclFRA" horiz-adv-x="309" 
d="M247 527l-105 -162h-108l84 162h-60v185h189v-185z" />
    <glyph glyph-name="periodcentered.loclCAT.smcp" horiz-adv-x="70" 
d="M30 288h-180v175h180v-175z" />
    <glyph glyph-name="nbspace" unicode="&#xa0;" horiz-adv-x="230" 
 />
    <glyph glyph-name="cent" unicode="&#xa2;" horiz-adv-x="684" 
d="M351 221c29 0 50 23 51 69h225c-9 -123 -89 -203 -212 -224v-97h-141v98c-132 25 -213 123 -213 266c0 140 81 236 213 261v99h141v-99c120 -21 201 -98 212 -215h-225c-4 42 -25 61 -52 61c-38 0 -59 -36 -59 -107c0 -76 22 -112 60 -112z" />
    <glyph glyph-name="currency" unicode="&#xa4;" horiz-adv-x="684" 
d="M514 10l-85 91c-26 -10 -55 -15 -87 -15s-62 5 -88 15l-85 -91l-101 92l83 90c-14 28 -22 62 -22 99c0 38 8 71 22 100l-83 89l101 92l85 -91c26 10 56 15 88 15s61 -5 87 -15l85 91l100 -92l-83 -89c14 -29 22 -62 22 -100c0 -37 -8 -71 -22 -99l84 -90zM341 204
c50 0 83 35 83 87s-33 87 -83 87s-83 -35 -83 -87s33 -87 83 -87z" />
    <glyph glyph-name="euro" unicode="&#x20ac;" horiz-adv-x="684" 
d="M448 221h224c-19 -152 -128 -237 -295 -237c-166 0 -278 94 -310 252h-66l16 80h40v21v13h-56l16 80h48c30 163 143 260 312 260c172 0 278 -90 290 -238h-221c-8 39 -33 61 -77 61c-46 0 -77 -26 -91 -83h190l-15 -80h-185v-13v-21h179l-15 -80h-152
c16 -52 47 -75 93 -75c43 0 69 22 75 60z" />
    <glyph glyph-name="florin" unicode="&#x192;" horiz-adv-x="684" 
d="M561 726c32 0 66 -4 91 -11v-145c-17 4 -39 6 -60 6c-51 0 -77 -24 -88 -68l-10 -40h112v-146h-147l-72 -286c-40 -158 -133 -229 -266 -229c-32 0 -64 4 -89 11v145c17 -4 34 -6 52 -6c54 0 83 23 102 99l68 266h-100v146h135l16 60c33 130 115 198 256 198z" />
    <glyph glyph-name="franc" unicode="&#x20a3;" horiz-adv-x="684" 
d="M319 492v-66h277v-180h-277v-52h164v-141h-164v-53h-226v53h-71v141h71v480h521v-182h-295z" />
    <glyph glyph-name="lira" unicode="&#x20a4;" horiz-adv-x="684" 
d="M271 174h369v-174h-618v174c41 0 67 12 78 48h-78v80h85v34h-85v80h85v9c0 166 103 265 275 265c155 0 261 -92 261 -233h-207c0 41 -19 65 -55 65c-43 0 -61 -28 -61 -96v-10h133v-80h-133v-34h133v-80h-143c-8 -19 -21 -35 -39 -46v-2z" />
    <glyph glyph-name="liraTurkish" unicode="&#x20ba;" horiz-adv-x="684" 
d="M425 330h238c0 -227 -134 -343 -364 -343c-64 0 -142 5 -206 13v220l-80 -44v104l80 44v44l-80 -44v104l80 44v202h229v-98l152 83v-104l-152 -83v-43l152 83v-104l-152 -83v-148c66 0 103 51 103 153z" />
    <glyph glyph-name="peseta" unicode="&#x20a7;" horiz-adv-x="1020" 
d="M958 159c13 0 27 2 37 5v-160c-28 -8 -72 -14 -103 -14c-148 0 -213 54 -213 177v187h-33c-26 -112 -119 -180 -286 -180h-71v-174h-226v674h297c160 0 252 -62 282 -166h37v147h218v-147h93v-154h-93v-122c0 -52 17 -73 61 -73zM289 348h39c65 0 92 29 92 76
s-27 76 -92 76h-39v-152z" />
    <glyph glyph-name="ruble" unicode="&#x20bd;" horiz-adv-x="684" 
d="M81 674h299c186 0 272 -80 272 -209c0 -128 -86 -210 -272 -210h-74v-44h163v-126h-163v-85h-225v85h-62v126h62v44h-62v142h62v277zM306 532v-135h41c51 0 72 27 72 68s-21 67 -72 67h-41z" />
    <glyph glyph-name="rupeeIndian" unicode="&#x20b9;" horiz-adv-x="684" 
d="M491 568v-2c17 -9 30 -23 39 -41h116l-29 -106h-78c-14 -69 -69 -112 -157 -130v-2c41 -16 73 -48 107 -117l83 -170h-260l-70 160c-26 59 -60 82 -106 82h-13v132h57c54 0 92 17 111 45h-253l29 106h225c-18 29 -55 43 -108 43h-146l29 106h579l-29 -106h-126z" />
    <glyph glyph-name="sterling" unicode="&#xa3;" horiz-adv-x="684" 
d="M271 174h369v-174h-618v174c54 0 82 21 85 91h-85v151h85v9c0 166 103 265 275 265c155 0 261 -92 261 -233h-207c0 41 -19 65 -55 65c-43 0 -61 -28 -61 -96v-10h133v-151h-133c-3 -39 -18 -71 -49 -89v-2z" />
    <glyph glyph-name="yen" unicode="&#xa5;" horiz-adv-x="684" 
d="M494 332h110v-80h-149v-34h149v-80h-149v-138h-226v138h-149v80h149v34h-149v80h110l-166 342h243l24 -70c20 -57 37 -116 50 -173h2c13 57 30 116 50 173l24 70h243z" />
    <glyph glyph-name="Ohm" unicode="&#x2126;" horiz-adv-x="772" 
d="M386 728c207 0 353 -100 353 -306c0 -104 -53 -173 -117 -231v-2h128v-189h-325v195c42 43 75 100 75 187c0 104 -48 155 -114 155s-114 -51 -114 -155c0 -87 33 -144 75 -187v-195h-325v189h128v2c-64 58 -117 127 -117 231c0 206 146 306 353 306z" />
    <glyph glyph-name="approxequal" unicode="&#x2248;" horiz-adv-x="566" 
d="M204 539c64 0 115 -56 151 -56c25 0 38 17 38 43h122c0 -115 -60 -194 -153 -194c-64 0 -114 56 -151 56c-26 0 -39 -17 -39 -43h-121c0 115 59 194 153 194zM204 302c64 0 115 -56 151 -56c25 0 38 17 38 43h122c0 -115 -60 -194 -153 -194c-64 0 -114 56 -151 56
c-26 0 -39 -17 -39 -43h-121c0 115 59 194 153 194z" />
    <glyph glyph-name="bulletoperator" unicode="&#x2219;" horiz-adv-x="390" 
d="M306 197h-222v217h222v-217z" />
    <glyph glyph-name="divide" unicode="&#xf7;" horiz-adv-x="566" 
d="M376 440h-186v133h186v-133zM516 233h-466v169h466v-169zM376 61h-186v134h186v-134z" />
    <glyph glyph-name="divisionslash" unicode="&#x2215;" horiz-adv-x="534" 
d="M186 -89h-156l297 834h156z" />
    <glyph glyph-name="equalinferior" unicode="&#x208c;" horiz-adv-x="410" 
d="M375 75h-340v117h340v-117zM375 -93h-340v117h340v-117z" />
    <glyph glyph-name="equalsuperior" unicode="&#x207c;" horiz-adv-x="410" 
d="M375 577h-340v117h340v-117zM375 409h-340v117h340v-117z" />
    <glyph glyph-name="greaterequal" unicode="&#x2265;" horiz-adv-x="566" 
d="M516 465v-175l-466 -137v151l265 73v2l-265 73v151zM516 0h-466v142h466v-142z" />
    <glyph glyph-name="increment" unicode="&#x2206;" horiz-adv-x="746" 
d="M750 0h-754l239 712h276zM469 172l-42 156c-19 72 -38 150 -53 223h-2c-15 -73 -34 -151 -53 -223l-41 -156h191z" />
    <glyph glyph-name="infinity" unicode="&#x221e;" horiz-adv-x="771" 
d="M562 518c119 0 194 -82 194 -210s-75 -210 -194 -210c-81 0 -135 37 -176 82c-41 -45 -96 -82 -177 -82c-119 0 -194 82 -194 210s75 210 194 210c81 0 136 -37 177 -82c41 45 95 82 176 82zM229 262c25 0 45 19 65 46c-20 27 -40 46 -65 46c-30 0 -46 -18 -46 -46
c0 -26 16 -46 46 -46zM542 262c30 0 46 20 46 46c0 28 -16 46 -46 46c-25 0 -45 -19 -65 -46c20 -27 40 -46 65 -46z" />
    <glyph glyph-name="integral" unicode="&#x222b;" horiz-adv-x="412" 
d="M309 723c35 0 73 -5 99 -11v-145c-4 1 -14 2 -21 2c-49 0 -74 -18 -74 -67v-503c0 -131 -75 -195 -211 -195c-34 0 -72 5 -98 11v145c4 -1 14 -2 21 -2c49 0 74 18 74 67v503c0 131 75 195 210 195z" />
    <glyph glyph-name="lessequal" unicode="&#x2264;" horiz-adv-x="566" 
d="M516 452l-265 -73v-2l265 -73v-151l-466 137v175l466 138v-151zM516 142v-142h-466v142h466z" />
    <glyph glyph-name="logicalnot" unicode="&#xac;" horiz-adv-x="566" 
d="M516 114h-169v196h-297v170h466v-366z" />
    <glyph glyph-name="micro" unicode="&#xb5;" horiz-adv-x="653" 
d="M580 508v-310c0 -37 14 -49 40 -49c8 0 17 1 25 3v-145c-34 -12 -75 -19 -124 -19c-66 0 -113 22 -139 64h-2c-19 -37 -48 -57 -88 -57c-9 0 -19 1 -27 4v-184h-218v693h218v-276c0 -57 15 -80 45 -80c32 0 52 23 52 98v258h218z" />
    <glyph glyph-name="minus" unicode="&#x2212;" horiz-adv-x="566" 
d="M516 233h-466v169h466v-169z" />
    <glyph glyph-name="minusinferior" unicode="&#x208b;" horiz-adv-x="410" 
d="M375 -14h-340v129h340v-129z" />
    <glyph glyph-name="minussuperior" unicode="&#x207b;" horiz-adv-x="410" 
d="M375 488h-340v129h340v-129z" />
    <glyph glyph-name="multiply" unicode="&#xd7;" horiz-adv-x="566" 
d="M560 479l-157 -156l157 -156l-119 -121l-157 157l-157 -157l-119 121l157 156l-157 156l119 121l157 -157l157 157z" />
    <glyph glyph-name="notequal" unicode="&#x2260;" horiz-adv-x="566" 
d="M374 354l-38 -75h180v-155h-257l-51 -103h-145l51 103h-64v155h141l37 75h-178v155h255l52 105h146l-52 -105h65v-155h-142z" />
    <glyph glyph-name="partialdiff" unicode="&#x2202;" horiz-adv-x="647" 
d="M305 728c201 0 291 -132 291 -350c0 -274 -121 -394 -295 -394c-185 0 -278 100 -278 248c0 142 92 247 251 247c45 0 80 -10 104 -27h2c1 5 1 10 1 15c0 63 -24 110 -69 110c-31 0 -48 -19 -51 -56h-218c14 127 103 207 262 207zM313 349c-44 0 -65 -42 -65 -117
c0 -63 19 -97 57 -97c44 0 65 42 65 117c0 63 -19 97 -57 97z" />
    <glyph glyph-name="perthousand" unicode="&#x2030;" horiz-adv-x="1169" 
d="M290 -30h-137l366 734h137zM197 698c108 0 167 -66 167 -189s-59 -189 -167 -189s-167 66 -167 189s59 189 167 189zM197 596c-25 0 -36 -27 -36 -87s11 -87 36 -87s36 27 36 87s-11 87 -36 87zM618 352c108 0 167 -66 167 -189s-59 -189 -167 -189s-167 66 -167 189
s59 189 167 189zM972 352c108 0 167 -66 167 -189s-59 -189 -167 -189s-167 66 -167 189s59 189 167 189zM618 250c-25 0 -36 -27 -36 -87s11 -87 36 -87s36 27 36 87s-11 87 -36 87zM972 250c-25 0 -36 -27 -36 -87s11 -87 36 -87s36 27 36 87s-11 87 -36 87z" />
    <glyph glyph-name="plusinferior" unicode="&#x208a;" horiz-adv-x="410" 
d="M273 115h102v-129h-102v-101h-135v101h-103v129h103v101h135v-101z" />
    <glyph glyph-name="plusminus" unicode="&#xb1;" horiz-adv-x="566" 
d="M368 477h148v-163h-148v-118h-170v118h-148v163h148v118h170v-118zM516 0h-466v163h466v-163z" />
    <glyph glyph-name="plussuperior" unicode="&#x207a;" horiz-adv-x="410" 
d="M273 617h102v-129h-102v-101h-135v101h-103v129h103v101h135v-101z" />
    <glyph glyph-name="product" unicode="&#x220f;" horiz-adv-x="749" 
d="M686 -120h-227v643h-169v-643h-227v832h623v-832z" />
    <glyph glyph-name="radical" unicode="&#x221a;" horiz-adv-x="740" 
d="M482 -120h-290l-83 350h-84v173h230l85 -356h2l189 665h189z" />
    <glyph glyph-name="summation" unicode="&#x2211;" horiz-adv-x="552" 
d="M517 524h-243l137 -226l-136 -229h242v-189h-482v189l142 229l-142 226v188h482v-188z" />
    <glyph glyph-name="lozenge" unicode="&#x25ca;" horiz-adv-x="715" 
d="M675 356l-172 -356h-292l-171 356l171 356h292zM263 356l94 -202l94 202l-94 202z" />
    <glyph glyph-name="apple" unicode="&#xf8ff;" horiz-adv-x="600" 
d="M150 777h360c86 0 140 -54 140 -140v-562c0 -86 -54 -140 -140 -140h-360c-86 0 -140 54 -140 140v562c0 86 54 140 140 140zM510 697h-360c-37 0 -60 -23 -60 -60v-562c0 -37 23 -60 60 -60h360c37 0 60 23 60 60v562c0 37 -23 60 -60 60zM328 647
c122 0 194 -58 194 -155c0 -54 -17 -86 -67 -133c-52 -49 -66 -74 -66 -121h-127c-2 16 -3 35 -3 51c0 49 8 72 56 121c38 39 47 54 47 81c0 24 -14 39 -34 39c-26 0 -44 -22 -43 -72h-155c0 122 74 189 198 189zM402 65h-152v133h152v-133z" />
    <glyph glyph-name="brokenbar" unicode="&#xa6;" horiz-adv-x="302" 
d="M238 382h-174v350h174v-350zM238 -205h-174v350h174v-350z" />
    <glyph glyph-name="paragraph" unicode="&#xb6;" horiz-adv-x="741" 
d="M703 574h-80v-694h-149v694h-65v-694h-148v388h-9c-129 0 -212 86 -212 222c0 135 83 222 212 222h451v-138z" />
    <glyph glyph-name="copyright" unicode="&#xa9;" horiz-adv-x="790" 
d="M395 729c218 0 363 -149 363 -373s-145 -373 -363 -373s-363 149 -363 373s145 373 363 373zM395 649c-171 0 -285 -117 -285 -293s114 -293 285 -293s285 117 285 293s-114 293 -285 293zM397 571c117 0 193 -60 198 -169h-148c-3 35 -21 52 -50 52
c-32 0 -54 -36 -54 -98c0 -60 22 -98 55 -98c28 0 46 20 49 55h150c-8 -114 -86 -172 -199 -172c-126 0 -202 81 -202 215s76 215 201 215z" />
    <glyph glyph-name="registered" unicode="&#xae;" horiz-adv-x="592" 
d="M296 728c151 0 251 -103 251 -258s-100 -258 -251 -258s-251 103 -251 258s100 258 251 258zM296 686c-125 0 -209 -86 -209 -216s84 -216 209 -216s209 86 209 216s-84 216 -209 216zM160 629h159c71 0 108 -33 108 -87c0 -40 -23 -64 -62 -77v-2c24 -7 36 -23 53 -65
l30 -76h-100l-25 64c-10 29 -24 40 -52 40h-15v-104h-96v307zM256 561v-70h33c32 0 46 14 46 37c0 20 -15 33 -44 33h-35z" />
    <glyph glyph-name="published" unicode="&#x2117;" horiz-adv-x="790" 
d="M395 729c218 0 363 -149 363 -373s-145 -373 -363 -373s-363 149 -363 373s145 373 363 373zM395 649c-171 0 -285 -117 -285 -293s114 -293 285 -293s285 117 285 293s-114 293 -285 293zM234 558h192c121 0 177 -58 177 -151c0 -94 -56 -152 -177 -152h-50v-107h-142
v410zM376 445v-76h31c37 0 50 14 50 38c0 27 -19 38 -53 38h-28z" />
    <glyph glyph-name="section" unicode="&#xa7;" horiz-adv-x="675" 
d="M331 728c156 0 240 -71 248 -191h-203c-1 29 -15 47 -43 47c-24 0 -37 -14 -37 -34c0 -26 16 -36 108 -68c90 -31 207 -71 207 -210c0 -61 -25 -109 -72 -139v-2c36 -29 54 -68 54 -115c0 -116 -99 -196 -251 -196c-160 0 -246 70 -251 202h206c0 -37 15 -55 42 -55
s40 13 40 34c0 29 -15 38 -115 81c-111 48 -200 83 -200 211c0 62 30 107 73 127v2c-32 26 -50 62 -50 113c0 121 95 193 244 193zM257 363c-13 -14 -19 -28 -19 -46c0 -30 13 -43 82 -74c36 -16 71 -31 106 -47c14 13 20 28 20 47c0 31 -14 47 -86 76
c-31 12 -73 30 -103 44z" />
    <glyph glyph-name="trademark" unicode="&#x2122;" horiz-adv-x="912" 
d="M338 597h-97v-241h-138v241h-98v115h333v-115zM880 356h-117v158c0 41 -1 83 0 124h-2c-6 -41 -14 -82 -22 -123l-33 -159h-164l-33 159c-8 41 -16 82 -22 123h-2c1 -41 0 -83 0 -124v-158h-117v356h204l31 -146c8 -42 15 -88 20 -131h2c4 43 12 89 20 131l30 146h205
v-356z" />
    <glyph glyph-name="degree" unicode="&#xb0;" horiz-adv-x="365" 
d="M183 722c85 0 153 -68 153 -154c0 -85 -68 -153 -153 -153s-154 68 -154 153c0 86 69 154 154 154zM183 627c-33 0 -59 -26 -59 -59c0 -32 26 -59 59 -59s59 27 59 59c0 33 -26 59 -59 59z" />
    <glyph glyph-name="estimated" unicode="&#x212e;" horiz-adv-x="863" 
d="M432 690c243 0 383 -168 383 -362h-612c-8 0 -14 -6 -14 -13v-167c0 -20 3 -32 16 -44c58 -57 133 -91 227 -91c98 0 187 46 239 110h69c-45 -63 -145 -135 -308 -135c-233 0 -385 147 -385 349c0 199 145 353 385 353zM432 664c-94 0 -169 -36 -227 -94
c-13 -11 -16 -22 -16 -41v-167c0 -7 6 -12 14 -12h456c8 0 13 5 13 12v167c0 19 -3 30 -15 41c-69 68 -148 94 -225 94z" />
    <glyph glyph-name="literSign" unicode="&#x2113;" horiz-adv-x="457" 
d="M264 211v-8c0 -44 17 -62 58 -62c14 0 32 2 44 6v-147c-28 -7 -68 -11 -98 -11c-139 0 -208 62 -212 195c-15 1 -30 3 -43 6v99c14 -3 28 -5 43 -6v158c0 191 67 249 199 249c100 0 180 -53 180 -200c0 -150 -67 -238 -171 -279zM293 572c-20 0 -29 -16 -29 -72v-168
c40 35 63 88 63 164c0 57 -16 76 -34 76z" />
    <glyph glyph-name="dagger" unicode="&#x2020;" horiz-adv-x="690" 
d="M455 568h172v-194h-172v-494h-220v494h-172v192h172v146h220v-144z" />
    <glyph glyph-name="daggerdbl" unicode="&#x2021;" horiz-adv-x="690" 
d="M455 568h172v-185h-172v-174h172v-185h-172v-144h-220v144h-172v185h172v174h-172v185h172v144h220v-144z" />
    <glyph glyph-name="interrobang" unicode="&#x203d;" horiz-adv-x="615" 
d="M426 712l-4 -66c103 -26 162 -90 162 -184c0 -68 -23 -109 -102 -156c-67 -39 -87 -55 -87 -83h-183c-1 7 -2 15 -2 24c0 51 12 77 80 128c54 41 64 58 64 87c0 30 -20 48 -47 48c-39 0 -62 -25 -62 -85h-222c0 114 58 188 162 218l-4 69h245zM193 176h222v-176h-222v176
z" />
    <glyph glyph-name="ampersand.smcp" horiz-adv-x="658" 
d="M463 0l-36 33c-45 -29 -97 -45 -163 -45c-157 0 -233 65 -234 165c1 65 36 112 105 149c-43 43 -56 74 -56 115c0 87 78 147 187 147c117 0 194 -57 194 -137c0 -59 -40 -108 -102 -137l58 -53c4 9 7 24 7 43h170c0 -61 -16 -107 -55 -154l138 -126h-213zM266 455
c-20 0 -31 -14 -32 -34c0 -18 6 -34 27 -56c27 20 37 38 37 58c1 19 -11 32 -32 32zM272 104c24 0 43 6 56 19l-95 87c-16 -14 -24 -30 -24 -53c0 -32 26 -53 63 -53z" />
    <glyph glyph-name="acute" unicode="&#xb4;" horiz-adv-x="407" 
d="M214 560h-164l81 152h226z" />
    <glyph glyph-name="breve" unicode="&#x2d8;" horiz-adv-x="468" 
d="M290 712h128c-3 -102 -67 -160 -184 -160s-181 58 -184 160h128c1 -32 19 -45 56 -45s54 13 56 45z" />
    <glyph glyph-name="caron" unicode="&#x2c7;" horiz-adv-x="523" 
d="M346 560h-169l-127 152h159l52 -75l53 75h159z" />
    <glyph glyph-name="cedilla" unicode="&#xb8;" horiz-adv-x="373" 
d="M232 0l-35 -58c11 3 22 5 33 5c63 0 93 -32 93 -82c0 -62 -47 -110 -140 -110c-44 0 -93 12 -133 37l34 70c31 -14 62 -23 83 -23c22 0 34 8 34 22s-11 24 -35 24c-10 0 -22 -3 -29 -7l-47 36l50 86h92z" />
    <glyph glyph-name="circumflex" unicode="&#x2c6;" horiz-adv-x="523" 
d="M314 560l-53 75l-52 -75h-159l127 152h169l127 -152h-159z" />
    <glyph glyph-name="dieresis" unicode="&#xa8;" horiz-adv-x="528" 
d="M232 560h-182v152h182v-152zM478 560h-182v152h182v-152z" />
    <glyph glyph-name="dotaccent" unicode="&#x2d9;" horiz-adv-x="318" 
d="M268 560h-218v152h218v-152z" />
    <glyph glyph-name="hungarumlaut" unicode="&#x2dd;" horiz-adv-x="628" 
d="M200 560h-150l101 152h192zM436 560h-150l101 152h192z" />
    <glyph glyph-name="macron" unicode="&#xaf;" horiz-adv-x="526" 
d="M476 572h-426v127h426v-127z" />
    <glyph glyph-name="ogonek" unicode="&#x2db;" horiz-adv-x="365" 
d="M146 0h166c-44 -26 -57 -43 -57 -62c0 -18 10 -26 29 -26c10 0 22 3 31 7v-104c-33 -11 -76 -18 -121 -18c-98 0 -144 38 -144 100c0 45 36 76 96 103z" />
    <glyph glyph-name="ring" unicode="&#x2da;" horiz-adv-x="351" 
d="M176 797c70 0 125 -57 125 -126c0 -68 -55 -125 -125 -125c-69 0 -126 57 -126 125c0 69 57 126 126 126zM176 731c-33 0 -60 -27 -60 -60s27 -60 60 -60s60 27 60 60s-27 60 -60 60z" />
    <glyph glyph-name="tilde" unicode="&#x2dc;" horiz-adv-x="517" 
d="M357 712h110c-5 -98 -50 -160 -137 -160c-61 0 -98 38 -134 38c-22 0 -33 -14 -36 -38h-110c5 99 50 160 137 160c61 0 99 -37 134 -37c22 0 33 11 36 37z" />
    <glyph glyph-name="acute.case" horiz-adv-x="407" 
d="M214 760h-164l81 161h226z" />
    <glyph glyph-name="breve.case" horiz-adv-x="468" 
d="M290 921h128c-3 -102 -67 -160 -184 -160s-181 58 -184 160h128c1 -32 19 -45 56 -45s54 13 56 45z" />
    <glyph glyph-name="caron.alt" horiz-adv-x="289" 
d="M173 533h-123l19 179h170z" />
    <glyph glyph-name="caron.case" horiz-adv-x="523" 
d="M346 760h-169l-134 161h159l59 -84l59 84h159z" />
    <glyph glyph-name="caron.alt.case" horiz-adv-x="289" 
d="M173 473h-123l19 239h170z" />
    <glyph glyph-name="circumflex.case" horiz-adv-x="523" 
d="M176 921h169l134 -161h-159l-59 84l-59 -84h-159z" />
    <glyph glyph-name="dieresis.case" horiz-adv-x="528" 
d="M232 769h-182v152h182v-152zM478 769h-182v152h182v-152z" />
    <glyph glyph-name="dotaccent.case" horiz-adv-x="318" 
d="M268 769h-218v152h218v-152z" />
    <glyph glyph-name="grave.case" horiz-adv-x="407" 
d="M276 921l81 -161h-164l-143 161h226z" />
    <glyph glyph-name="hungarumlaut.case" horiz-adv-x="609" 
d="M200 760h-150l101 161h192zM436 760h-150l101 161h192z" />
    <glyph glyph-name="macron.case" horiz-adv-x="526" 
d="M476 773h-426v127h426v-127z" />
    <glyph glyph-name="breve.narrow" horiz-adv-x="436" 
d="M261 712h125c-2 -102 -59 -160 -168 -160s-166 58 -168 160h125c1 -33 13 -45 43 -45s41 12 43 45z" />
    <glyph glyph-name="circumflex.narrow" horiz-adv-x="493" 
d="M443 564h-151l-46 58l-44 -58h-152l118 148h157z" />
    <glyph glyph-name="dieresis.narrow" horiz-adv-x="448" 
d="M202 560h-152v152h152v-152zM398 560h-152v152h152v-152z" />
    <glyph glyph-name="macron.narrow" horiz-adv-x="427" 
d="M377 569h-327v128h327v-128z" />
    <glyph glyph-name="tilde.narrow" horiz-adv-x="472" 
d="M325 712h97c-5 -99 -47 -163 -127 -163c-53 0 -84 40 -119 40c-16 0 -28 -13 -30 -40h-96c5 100 46 163 126 163c53 0 85 -39 119 -39c17 0 28 12 30 39z" />
    <glyph glyph-name="ring.case" horiz-adv-x="351" 
d="M176 1006c70 0 125 -57 125 -126c0 -68 -55 -125 -125 -125c-69 0 -126 57 -126 125c0 69 57 126 126 126zM176 940c-33 0 -60 -27 -60 -60s27 -60 60 -60s60 27 60 60s-27 60 -60 60z" />
    <glyph glyph-name="cedilla.ss01" horiz-adv-x="403" 
d="M251 -217h-201l143 168h160z" />
    <glyph glyph-name="tilde.case" horiz-adv-x="517" 
d="M357 921h110c-5 -98 -50 -160 -137 -160c-61 0 -98 38 -134 38c-22 0 -33 -14 -36 -38h-110c5 99 50 160 137 160c61 0 99 -37 134 -37c22 0 33 11 36 37z" />
    <glyph glyph-name="commaaccent" unicode="&#x326;" horiz-adv-x="0" 
d="M203 -173l-76 -112h-77l48 112h-48v129h153v-129z" />
    <glyph glyph-name="commaturnedabovecomb" unicode="&#x312;" horiz-adv-x="0" 
d="M155 691h48v-129h-153v129l76 112h77z" />
    <glyph glyph-name="apostrophemod" unicode="&#x2bc;" horiz-adv-x="289" 
d="M237 527l-105 -162h-108l84 162h-60v185h189v-185z" />
    <glyph glyph-name="firsttonechinese" unicode="&#x2c9;" horiz-adv-x="526" 
d="M476 572h-426v127h426v-127z" />
    <glyph glyph-name="uniFEFF" unicode="&#xfeff;" horiz-adv-x="0" 
 />
    <glyph glyph-name="uni20BC" unicode="&#x20bc;" horiz-adv-x="844" 
d="M27 0v308c0 197 107 303 295 317v87h200v-87c190 -14 295 -120 295 -317v-308h-200v292c0 105 -28 146 -95 153v-445h-200v445c-66 -7 -95 -48 -95 -153v-292h-200z" />
    <glyph glyph-name="bracketleftinferior" horiz-adv-x="307" 
d="M286 234h-92v-393h92v-116h-247v629h247v-120z" />
    <glyph glyph-name="bracketrightinferior" horiz-adv-x="307" 
d="M268 354v-629h-247v116h92v393h-92v120h247z" />
    </font>
</defs>
</svg>
