<?xml version="1.0" standalone="no"?>
<!DOCTYPE svg PUBLIC "-//W3C//DTD SVG 1.1//EN" "http://www.w3.org/Graphics/SVG/1.1/DTD/svg11.dtd" >
<svg xmlns="http://www.w3.org/2000/svg" xmlns:xlink="http://www.w3.org/1999/xlink" version="1.1">
<metadata>
Created by FontForge 20170910 at Thu Feb  5 11:03:25 2015
 By Jimmy Wärting
Copyright (c) 2015 Monotype Imaging Inc.  All rights reserved.
</metadata>
<defs>
<font id="NeueHaasUnicaPro-Thin" horiz-adv-x="549" >
  <font-face 
    font-family="Neue Haas Unica Pro"
    font-weight="300"
    font-variant="small-caps"
    font-stretch="normal"
    units-per-em="1000"
    panose-1="2 11 3 4 3 2 6 2 2 3"
    ascent="764"
    descent="-236"
    x-height="508"
    cap-height="712"
    bbox="-155 -275 980 940"
    underline-thickness="50"
    underline-position="-100"
    stemh="33"
    stemv="36"
    unicode-range="U+0020-FEFF"
  />
<missing-glyph horiz-adv-x="596" 
d="M150 777h295c77 0 124 -47 124 -124v-594c0 -77 -47 -124 -124 -124h-295c-76 0 -123 47 -123 124v594c0 77 47 124 123 124zM445 749h-295c-59 0 -96 -37 -96 -96v-594c0 -59 37 -96 96 -96h295c59 0 96 37 96 96v594c0 59 -37 96 -96 96zM294 644
c94 0 160 -58 160 -141c0 -56 -15 -86 -87 -147c-63 -54 -74 -77 -74 -172h-33v21c0 86 15 117 81 174c63 55 74 79 74 124c0 64 -49 106 -121 106c-77 0 -124 -43 -129 -122h-37c7 102 67 157 166 157zM298 65h-45v68h45v-68z" />
    <glyph glyph-name="f_f" unicode="ff" horiz-adv-x="501" 
d="M457 683c-52 0 -78 -29 -78 -98v-77h105v-32h-105v-476h-36v476h-198v-476h-36v476h-94v32h94v80c0 86 39 127 110 127c12 0 24 -1 33 -3v-33c-7 2 -18 4 -29 4c-52 0 -78 -29 -78 -98v-77h198v80c0 86 39 127 110 127c11 0 24 -1 33 -3v-33c-7 2 -19 4 -29 4z" />
    <glyph glyph-name="f_f_i" unicode="ffi" horiz-adv-x="712" 
d="M343 508v80c0 86 39 127 110 127c11 0 24 -1 33 -3v-33c-7 2 -19 4 -29 4c-52 0 -78 -29 -78 -98v-77h105v-32h-105v-476h-36v476h-198v-476h-36v476h-94v32h94v80c0 86 39 127 110 127c12 0 24 -1 33 -3v-33c-7 2 -18 4 -29 4c-52 0 -78 -29 -78 -98v-77h198zM625 712
v-81h-36v81h36zM589 508h36v-508h-36v508z" />
    <glyph glyph-name="f_f_l" unicode="ffl" horiz-adv-x="712" 
d="M343 508v80c0 86 39 127 110 127c11 0 24 -1 33 -3v-33c-7 2 -19 4 -29 4c-52 0 -78 -29 -78 -98v-77h105v-32h-105v-476h-36v476h-198v-476h-36v476h-94v32h94v80c0 86 39 127 110 127c12 0 24 -1 33 -3v-33c-7 2 -18 4 -29 4c-52 0 -78 -29 -78 -98v-77h198zM625 712
v-712h-36v712h36z" />
    <glyph glyph-name="f_i" unicode="fi" horiz-adv-x="478" 
d="M109 508v80c0 86 39 127 110 127c12 0 24 -1 33 -3v-33c-7 2 -18 4 -29 4c-52 0 -78 -29 -78 -98v-77h106v-32h-106v-476h-36v476h-94v32h94zM391 712v-81h-36v81h36zM355 508h36v-508h-36v508z" />
    <glyph glyph-name="f_l" unicode="fl" horiz-adv-x="478" 
d="M109 508v80c0 86 39 127 110 127c12 0 24 -1 33 -3v-33c-7 2 -18 4 -29 4c-52 0 -78 -29 -78 -98v-77h106v-32h-106v-476h-36v476h-94v32h94zM391 712v-712h-36v712h36z" />
    <glyph glyph-name=".notdef" horiz-adv-x="596" 
d="M150 777h295c77 0 124 -47 124 -124v-594c0 -77 -47 -124 -124 -124h-295c-76 0 -123 47 -123 124v594c0 77 47 124 123 124zM445 749h-295c-59 0 -96 -37 -96 -96v-594c0 -59 37 -96 96 -96h295c59 0 96 37 96 96v594c0 59 -37 96 -96 96zM294 644
c94 0 160 -58 160 -141c0 -56 -15 -86 -87 -147c-63 -54 -74 -77 -74 -172h-33v21c0 86 15 117 81 174c63 55 74 79 74 124c0 64 -49 106 -121 106c-77 0 -124 -43 -129 -122h-37c7 102 67 157 166 157zM298 65h-45v68h45v-68z" />
    <glyph glyph-name="NULL" horiz-adv-x="293" 
 />
    <glyph glyph-name="space" unicode=" " horiz-adv-x="230" 
 />
    <glyph glyph-name="exclam" unicode="!" horiz-adv-x="223" 
d="M126 149h-29l-9 563h47zM134 0h-45v80h45v-80z" />
    <glyph glyph-name="quotedbl" unicode="&#x22;" horiz-adv-x="305" 
d="M109 462h-27l-6 250h39zM223 462h-26l-6 250h38z" />
    <glyph glyph-name="numbersign" unicode="#" horiz-adv-x="627" 
d="M452 438l-32 -199h136l-6 -30h-135l-33 -209h-33l33 209h-178l-33 -209h-32l33 209h-137l5 30h137l32 199h-138l5 30h137l33 206h32l-33 -206h178l33 206h33l-33 -206h136l-6 -30h-134zM419 438h-178l-32 -199h178z" />
    <glyph glyph-name="dollar" unicode="$" horiz-adv-x="520" 
d="M472 170c0 -107 -73 -177 -196 -181v-88h-34v89c-129 8 -194 87 -195 230h39c0 -123 50 -188 156 -195v309c-98 28 -182 57 -182 183c0 102 64 163 182 168v79h34v-79c125 -7 189 -76 189 -219h-39c0 123 -50 178 -150 183v-284c106 -29 196 -58 196 -195zM99 517
c0 -94 54 -117 143 -142v275c-95 -4 -143 -49 -143 -133zM276 324v-300c100 4 157 57 157 146c0 105 -64 128 -157 154z" />
    <glyph glyph-name="percent" unicode="%" horiz-adv-x="792" 
d="M226 -30h-38l378 734h38zM181 685c87 0 136 -66 136 -183c0 -116 -49 -181 -136 -181s-136 65 -136 181c0 117 49 183 136 183zM181 652c-63 0 -98 -53 -98 -150c0 -96 35 -148 98 -148c62 0 97 52 97 148c0 97 -35 150 -97 150zM611 353c87 0 136 -66 136 -183
c0 -116 -49 -181 -136 -181s-136 65 -136 181c0 117 49 183 136 183zM611 320c-63 0 -97 -53 -97 -150c0 -96 34 -148 97 -148s97 52 97 148c0 97 -34 150 -97 150z" />
    <glyph glyph-name="ampersand" unicode="&#x26;" horiz-adv-x="712" 
d="M648 0l-111 109c-61 -75 -141 -121 -242 -121c-140 0 -228 83 -228 197c0 96 56 158 175 216c-79 79 -97 117 -97 179c0 83 61 143 147 143c90 0 148 -62 148 -145c0 -80 -37 -132 -141 -184l234 -229c36 60 56 136 56 231h38c0 -105 -25 -190 -68 -257l142 -139h-53z
M180 580c0 -53 18 -87 95 -163c102 50 130 96 130 161c0 64 -44 111 -113 111c-67 0 -112 -44 -112 -109zM295 23c91 0 163 41 217 111l-246 244c-117 -57 -160 -108 -160 -193c0 -94 72 -162 189 -162z" />
    <glyph glyph-name="quotesingle" unicode="'" horiz-adv-x="191" 
d="M109 462h-27l-6 250h39z" />
    <glyph glyph-name="parenleft" unicode="(" horiz-adv-x="250" 
d="M184 741h36c-85 -138 -125 -268 -125 -444s40 -306 125 -444h-36c-84 129 -128 261 -128 444s44 315 128 444z" />
    <glyph glyph-name="parenright" unicode=")" horiz-adv-x="250" 
d="M30 741h36c84 -129 128 -261 128 -444s-44 -315 -128 -444h-36c85 138 125 268 125 444s-40 306 -125 444z" />
    <glyph glyph-name="asterisk" unicode="*" horiz-adv-x="383" 
d="M203 572l129 52l14 -41l-135 -31l88 -106l-34 -26l-74 119l-73 -119l-34 26l88 106l-135 31l14 41l129 -52l-9 140h41z" />
    <glyph glyph-name="plus" unicode="+" horiz-adv-x="566" 
d="M300 334h191v-34h-191v-191h-34v191h-191v34h191v191h34v-191z" />
    <glyph glyph-name="comma" unicode="," horiz-adv-x="171" 
d="M114 0l-37 -127h-27l30 127h-13v79h47v-79z" />
    <glyph glyph-name="hyphen" unicode="-" horiz-adv-x="281" 
d="M251 274h-221v36h221v-36z" />
    <glyph glyph-name="period" unicode="." horiz-adv-x="171" 
d="M110 0h-49v79h49v-79z" />
    <glyph glyph-name="slash" unicode="/" horiz-adv-x="416" 
d="M68 -89h-38l297 834h38z" />
    <glyph glyph-name="zero" unicode="0" horiz-adv-x="530" 
d="M265 685c146 0 222 -120 222 -348c0 -229 -76 -348 -222 -348s-222 119 -222 348c0 228 76 348 222 348zM265 649c-121 0 -184 -106 -184 -312c0 -207 63 -313 184 -313s183 106 183 313c0 206 -62 312 -183 312z" />
    <glyph glyph-name="one" unicode="1" horiz-adv-x="530" 
d="M297 0h-38v577h-1c-27 -33 -74 -48 -144 -48v33c97 0 139 30 151 112h32v-674z" />
    <glyph glyph-name="two" unicode="2" horiz-adv-x="530" 
d="M265 685c117 0 196 -75 196 -181c0 -114 -72 -161 -194 -231c-154 -88 -181 -147 -181 -238h390v-35h-426c-1 8 -1 13 -1 17c0 119 30 188 199 287c117 67 174 102 174 200c0 85 -62 145 -157 145c-104 0 -160 -61 -168 -160h-38c7 121 84 196 206 196z" />
    <glyph glyph-name="three" unicode="3" horiz-adv-x="530" 
d="M253 685c126 0 208 -72 208 -177c0 -88 -46 -139 -125 -163v-1c88 -24 138 -78 138 -171c0 -107 -92 -184 -218 -184c-132 0 -208 78 -208 197h38c0 -101 61 -162 170 -162c104 0 179 62 179 150c0 98 -70 152 -187 152h-39v35h39c110 0 174 56 174 145
c0 86 -67 144 -170 144c-100 0 -162 -56 -162 -160h-38c0 124 80 195 201 195z" />
    <glyph glyph-name="four" unicode="4" horiz-adv-x="530" 
d="M504 197h-130v-197h-37v197h-316v40l301 437h52v-442h130v-35zM59 232h278v105v296h-2l-184 -268z" />
    <glyph glyph-name="five" unicode="5" horiz-adv-x="530" 
d="M441 639h-308l-27 -283h1c30 49 85 79 155 79c128 0 209 -84 209 -219c0 -137 -85 -227 -217 -227c-117 0 -194 69 -194 185h38c1 -95 63 -149 156 -149c110 0 178 75 178 190c0 114 -66 185 -171 185c-80 0 -138 -41 -162 -121l-37 2l38 393h341v-35z" />
    <glyph glyph-name="six" unicode="6" horiz-adv-x="530" 
d="M281 685c108 0 174 -65 189 -171h-39c-15 86 -65 135 -150 135c-118 0 -194 -107 -193 -344h2c26 76 91 132 183 132c124 0 208 -89 208 -221c0 -136 -85 -227 -210 -227c-142 0 -219 104 -219 317c0 251 86 379 229 379zM270 401c-99 0 -170 -76 -170 -180
c0 -114 61 -196 171 -196c103 0 171 75 171 191c0 111 -68 185 -172 185z" />
    <glyph glyph-name="seven" unicode="7" horiz-adv-x="530" 
d="M477 674v-36c-107 -158 -208 -358 -269 -638h-41c69 297 169 490 269 639h-394v35h435z" />
    <glyph glyph-name="eight" unicode="8" horiz-adv-x="530" 
d="M265 685c117 0 202 -73 202 -179c0 -80 -52 -134 -126 -157v-1c83 -24 140 -81 140 -167c0 -113 -90 -192 -216 -192c-127 0 -216 79 -216 192c0 86 56 143 139 167v1c-73 23 -125 77 -125 157c0 106 84 179 202 179zM265 649c-96 0 -163 -57 -163 -143
c0 -84 64 -141 163 -141s163 57 163 141c0 86 -67 143 -163 143zM265 330c-103 0 -178 -63 -178 -148c0 -94 74 -157 178 -157s177 63 177 157c0 85 -74 148 -177 148z" />
    <glyph glyph-name="nine" unicode="9" horiz-adv-x="530" 
d="M248 -11c-107 0 -173 65 -188 171h38c16 -86 66 -135 150 -135c119 0 194 107 194 344h-2c-26 -76 -92 -132 -183 -132c-124 0 -208 89 -208 221c0 136 84 227 209 227c142 0 220 -104 220 -317c0 -251 -86 -379 -230 -379zM260 273c99 0 170 76 170 180
c0 114 -61 196 -172 196c-102 0 -171 -75 -171 -191c0 -111 69 -185 173 -185z" />
    <glyph glyph-name="colon" unicode=":" horiz-adv-x="171" 
d="M110 429h-49v79h49v-79zM110 0h-49v79h49v-79z" />
    <glyph glyph-name="semicolon" unicode=";" horiz-adv-x="172" 
d="M115 429h-48v79h48v-79zM114 0l-37 -127h-27l30 127h-13v79h47v-79z" />
    <glyph glyph-name="less" unicode="&#x3c;" horiz-adv-x="566" 
d="M491 486l-381 -168v-2l381 -168v-38l-416 184v46l416 184v-38z" />
    <glyph glyph-name="equal" unicode="=" horiz-adv-x="566" 
d="M491 368h-416v34h416v-34zM491 231h-416v34h416v-34z" />
    <glyph glyph-name="greater" unicode="&#x3e;" horiz-adv-x="566" 
d="M491 340v-46l-416 -184v38l381 168v2l-381 168v38z" />
    <glyph glyph-name="question" unicode="?" horiz-adv-x="483" 
d="M242 723c117 0 201 -72 201 -174c0 -70 -20 -108 -112 -184c-80 -68 -96 -99 -96 -220h-33v25c0 108 20 147 103 218c84 71 99 102 99 161c0 83 -67 139 -162 139c-100 0 -162 -56 -170 -159h-36c8 126 84 194 206 194zM241 0h-45v80h45v-80z" />
    <glyph glyph-name="at" unicode="@" horiz-adv-x="851" 
d="M434 679c216 0 357 -140 357 -354c0 -166 -79 -243 -168 -243c-58 0 -93 34 -97 107h-1c-29 -73 -80 -107 -145 -107c-88 0 -141 66 -141 188c0 147 75 248 182 248c71 0 113 -43 125 -106h1l18 96h35c-24 -114 -43 -244 -43 -300c0 -66 25 -93 70 -93
c67 0 129 65 129 210c0 195 -127 321 -322 321c-217 0 -339 -165 -339 -372c0 -209 127 -333 324 -333c88 0 164 21 224 59l16 -28c-64 -40 -145 -64 -240 -64c-218 0 -359 137 -359 366c0 224 137 405 374 405zM425 485c-87 0 -150 -86 -150 -215c0 -102 42 -155 112 -155
c74 0 144 67 144 237c0 84 -39 133 -106 133z" />
    <glyph glyph-name="A" unicode="A" horiz-adv-x="648" 
d="M499 250h-351l-102 -250h-40l292 712h51l292 -712h-40zM485 285l-36 88c-43 104 -83 204 -125 306h-1c-42 -102 -82 -202 -125 -306l-36 -88h323z" />
    <glyph glyph-name="B" unicode="B" horiz-adv-x="600" 
d="M104 712h207c150 0 221 -71 221 -177c0 -87 -50 -148 -133 -169v-1c88 -15 149 -79 149 -173c0 -117 -80 -192 -218 -192h-226v712zM141 678v-297h166c135 0 187 67 187 150c0 90 -56 147 -186 147h-167zM141 347v-313h185c119 0 183 59 183 158c0 90 -59 155 -202 155
h-166z" />
    <glyph glyph-name="C" unicode="C" horiz-adv-x="671" 
d="M347 723c164 0 259 -109 267 -245h-39c-9 120 -92 209 -228 209c-161 0 -262 -127 -262 -331s99 -331 258 -331c133 0 221 87 236 212h39c-15 -147 -116 -248 -275 -248c-183 0 -296 141 -296 367s116 367 300 367z" />
    <glyph glyph-name="D" unicode="D" horiz-adv-x="712" 
d="M104 712h200c233 0 362 -129 362 -356s-129 -356 -362 -356h-200v712zM141 677v-642h163c209 0 323 115 323 321s-114 321 -323 321h-163z" />
    <glyph glyph-name="E" unicode="E" horiz-adv-x="597" 
d="M527 677h-386v-294h368v-35h-368v-313h399v-35h-436v712h423v-35z" />
    <glyph glyph-name="F" unicode="F" horiz-adv-x="552" 
d="M517 677h-376v-296h356v-35h-356v-346h-37v712h413v-35z" />
    <glyph glyph-name="G" unicode="G" horiz-adv-x="710" 
d="M356 723c155 0 253 -88 265 -218h-39c-14 111 -95 182 -226 182c-168 0 -271 -126 -271 -334c0 -205 98 -328 259 -328c128 0 243 75 243 302h-225v35h261v-362h-36v159h-1c-31 -103 -123 -170 -245 -170c-182 0 -294 138 -294 364c0 229 117 370 309 370z" />
    <glyph glyph-name="H" unicode="H" horiz-adv-x="717" 
d="M614 0h-38v352h-435v-352h-37v712h37v-325h435v325h38v-712z" />
    <glyph glyph-name="I" unicode="I" horiz-adv-x="245" 
d="M141 0h-37v712h37v-712z" />
    <glyph glyph-name="J" unicode="J" horiz-adv-x="318" 
d="M220 712v-531c0 -123 -62 -185 -165 -185c-15 0 -30 2 -40 5v36c14 -3 27 -5 40 -5c81 0 127 48 127 149v531h38z" />
    <glyph glyph-name="K" unicode="K" horiz-adv-x="567" 
d="M184 373l378 -373h-54l-366 363h-1v-363h-37v712h37v-329h1l335 329h53z" />
    <glyph glyph-name="L" unicode="L" horiz-adv-x="538" 
d="M141 35h390v-35h-427v712h37v-677z" />
    <glyph glyph-name="M" unicode="M" horiz-adv-x="876" 
d="M772 0h-37v377v293h-2c-40 -100 -81 -199 -121 -299l-152 -371h-45l-151 371c-40 100 -81 199 -122 299h-1v-293v-377h-37v712h61l158 -389l114 -282h2l114 282l158 389h61v-712z" />
    <glyph glyph-name="N" unicode="N" horiz-adv-x="730" 
d="M627 0h-59l-205 326l-221 349h-1v-373v-302h-37v712h58l205 -326l221 -349h1v373v302h38v-712z" />
    <glyph glyph-name="O" unicode="O" horiz-adv-x="712" 
d="M356 723c189 0 309 -143 309 -367s-120 -367 -309 -367s-309 143 -309 367s120 367 309 367zM356 687c-165 0 -271 -129 -271 -331s106 -331 271 -331s270 129 270 331s-105 331 -270 331z" />
    <glyph glyph-name="P" unicode="P" horiz-adv-x="589" 
d="M104 712h228c151 0 227 -81 227 -197s-76 -197 -227 -197h-191v-318h-37v712zM141 677v-324h191c127 0 188 66 188 162s-61 162 -188 162h-191z" />
    <glyph glyph-name="Q" unicode="Q" horiz-adv-x="711" 
d="M665 356c0 -120 -34 -217 -95 -281l80 -87l-26 -25l-80 88c-49 -40 -112 -62 -185 -62c-191 0 -312 143 -312 367s121 367 312 367c187 0 306 -143 306 -367zM359 25c62 0 116 19 159 54l-92 100l26 26l92 -101c53 58 82 144 82 252c0 202 -104 331 -267 331
c-167 0 -274 -129 -274 -331s107 -331 274 -331z" />
    <glyph glyph-name="R" unicode="R" horiz-adv-x="607" 
d="M104 712h195c161 0 236 -70 236 -184c0 -99 -59 -165 -147 -181v-2c54 -14 79 -44 111 -133l77 -212h-41l-73 205c-33 93 -66 125 -153 125h-168v-330h-37v712zM141 677v-312h168c131 0 188 72 188 163c0 96 -67 149 -198 149h-158z" />
    <glyph glyph-name="S" unicode="S" horiz-adv-x="586" 
d="M276 723c157 0 237 -80 237 -235h-38c0 137 -69 200 -199 200c-110 0 -176 -57 -176 -148c0 -96 63 -125 192 -156c143 -35 233 -67 233 -203c0 -119 -88 -192 -231 -192c-157 0 -245 82 -245 249h38c0 -148 76 -214 207 -214c124 0 193 59 193 157
c0 107 -70 131 -203 164c-142 35 -222 72 -222 195c0 109 82 183 214 183z" />
    <glyph glyph-name="T" unicode="T" horiz-adv-x="579" 
d="M571 677h-263v-677h-37v677h-264v35h564v-35z" />
    <glyph glyph-name="U" unicode="U" horiz-adv-x="684" 
d="M586 712v-450c0 -180 -86 -273 -244 -273s-244 93 -244 273v450h37v-450c0 -160 75 -237 207 -237s207 77 207 237v450h37z" />
    <glyph glyph-name="V" unicode="V" horiz-adv-x="610" 
d="M331 0h-51l-272 712h39l130 -341c43 -111 85 -223 127 -334h2c43 111 85 223 127 334l130 341h40z" />
    <glyph glyph-name="W" unicode="W" horiz-adv-x="876" 
d="M675 0h-58l-88 334l-90 342h-2l-90 -342l-88 -334h-58l-189 712h37l88 -326l93 -350h1c31 117 62 235 92 352l86 324h58l86 -324c30 -117 61 -235 92 -352h1l93 350l88 326h38z" />
    <glyph glyph-name="X" unicode="X" horiz-adv-x="604" 
d="M326 366l267 -366h-46l-244 335h-2l-244 -335h-46l268 366l-253 346h46l229 -314h2l229 314h46z" />
    <glyph glyph-name="Y" unicode="Y" horiz-adv-x="585" 
d="M311 312v-312h-37v312l-268 400h45l108 -163c44 -67 88 -133 132 -199h2c44 67 89 134 134 201l107 161h45z" />
    <glyph glyph-name="Z" unicode="Z" horiz-adv-x="551" 
d="M513 670l-455 -633v-2h476v-35h-517v42l455 633v2h-449v35h490v-42z" />
    <glyph glyph-name="bracketleft" unicode="[" horiz-adv-x="258" 
d="M238 710h-122v-827h122v-31h-158v889h158v-31z" />
    <glyph glyph-name="backslash" unicode="\" horiz-adv-x="416" 
d="M89 745l297 -834h-38l-297 834h38z" />
    <glyph glyph-name="bracketright" unicode="]" horiz-adv-x="258" 
d="M178 741v-889h-158v31h122v827h-122v31h158z" />
    <glyph glyph-name="asciicircum" unicode="^" horiz-adv-x="402" 
d="M388 371h-36l-150 310h-2l-150 -310h-36l166 341h42z" />
    <glyph glyph-name="underscore" unicode="_" horiz-adv-x="500" 
d="M500 -76h-500v26h500v-26z" />
    <glyph glyph-name="grave" unicode="`" horiz-adv-x="241" 
d="M99 712l92 -139h-36l-105 139h49z" />
    <glyph glyph-name="a" unicode="a" horiz-adv-x="508" 
d="M249 519c105 0 178 -58 178 -189v-211c0 -44 4 -91 10 -119h-34c-5 26 -8 65 -8 96h-1c-33 -65 -94 -106 -186 -106c-101 0 -168 57 -168 143c0 80 46 130 183 151c47 7 118 16 169 20v29c0 109 -60 154 -143 154c-97 0 -146 -55 -151 -132h-37c6 97 72 164 188 164z
M392 219v53c-49 -4 -121 -13 -165 -20c-113 -17 -150 -55 -150 -118c0 -68 53 -112 137 -112c56 0 100 20 129 52c36 39 49 69 49 145z" />
    <glyph glyph-name="b" unicode="b" horiz-adv-x="554" 
d="M124 400h1c27 74 89 119 169 119c131 0 213 -101 213 -265c0 -163 -82 -264 -213 -264c-81 0 -142 45 -169 119h-1v-109h-36v712h36v-312zM290 487c-103 0 -168 -89 -168 -233c0 -143 65 -232 168 -232c111 0 180 89 180 232c0 144 -69 233 -180 233z" />
    <glyph glyph-name="c" unicode="c" horiz-adv-x="505" 
d="M266 519c110 0 188 -72 197 -179h-38c-7 86 -70 146 -159 146c-113 0 -182 -87 -182 -232c0 -146 69 -232 182 -232c89 0 151 64 159 151h38c-9 -108 -86 -184 -197 -184c-136 0 -219 100 -219 265s83 265 219 265z" />
    <glyph glyph-name="d" unicode="d" horiz-adv-x="554" 
d="M466 0h-36v109h-1c-27 -74 -88 -119 -169 -119c-131 0 -213 101 -213 264c0 164 82 265 213 265c80 0 142 -45 169 -119h1v312h36v-712zM263 487c-110 0 -179 -89 -179 -233c0 -143 69 -232 179 -232c104 0 169 89 169 232c0 144 -65 233 -169 233z" />
    <glyph glyph-name="e" unicode="e" horiz-adv-x="526" 
d="M270 21c91 0 153 52 166 129h38c-15 -92 -88 -161 -204 -161c-138 0 -223 107 -223 275c0 152 83 255 217 255c112 0 189 -70 209 -183c5 -25 6 -54 6 -85h-396c2 -146 77 -230 187 -230zM264 487c-109 0 -176 -81 -181 -204h361c-4 131 -77 204 -180 204z" />
    <glyph glyph-name="f" unicode="f" horiz-adv-x="267" 
d="M223 683c-52 0 -78 -29 -78 -98v-77h106v-32h-106v-476h-36v476h-94v32h94v80c0 86 39 127 110 127c12 0 24 -1 33 -3v-33c-7 2 -18 4 -29 4z" />
    <glyph glyph-name="g" unicode="g" horiz-adv-x="554" 
d="M261 519c78 0 137 -42 168 -118h1v107h36v-477c0 -145 -69 -221 -205 -221c-119 0 -194 58 -194 158h36c1 -81 63 -126 158 -126c115 0 169 63 169 190v92h-1c-31 -76 -90 -118 -168 -118c-132 0 -214 99 -214 256c0 158 82 257 214 257zM261 487
c-109 0 -177 -87 -177 -225c0 -137 68 -224 177 -224c106 0 171 85 171 224c0 140 -65 225 -171 225z" />
    <glyph glyph-name="h" unicode="h" 
d="M124 417h1c33 66 97 101 166 101c112 0 177 -69 177 -209v-309h-36v308c0 127 -55 178 -145 178c-87 0 -163 -67 -163 -175v-311h-36v712h36v-295z" />
    <glyph glyph-name="i" unicode="i" horiz-adv-x="211" 
d="M124 631h-36v81h36v-81zM124 0h-36v508h36v-508z" />
    <glyph glyph-name="j" unicode="j" horiz-adv-x="220" 
d="M133 631h-36v81h36v-81zM133 508v-552c0 -108 -47 -144 -120 -144c-9 0 -18 1 -25 3v33c7 -1 15 -2 23 -2c54 0 86 25 86 110v552h36z" />
    <glyph glyph-name="k" unicode="k" horiz-adv-x="457" 
d="M462 0h-52l-285 268h-1v-268h-36v712h36v-424h1l256 220h52l-269 -229z" />
    <glyph glyph-name="l" unicode="l" horiz-adv-x="211" 
d="M124 0h-36v712h36v-712z" />
    <glyph glyph-name="m" unicode="m" horiz-adv-x="826" 
d="M586 518c100 0 159 -66 159 -201v-317h-36v316c0 121 -48 170 -127 170c-87 0 -148 -68 -148 -169v-317h-36v334c0 94 -47 152 -125 152c-86 0 -149 -70 -149 -183v-303h-36v508h36v-87h1c29 58 82 97 151 97c73 0 128 -43 148 -113c27 70 84 113 162 113z" />
    <glyph glyph-name="n" unicode="n" 
d="M291 518c112 0 177 -69 177 -209v-309h-36v308c0 127 -55 178 -145 178c-87 0 -163 -67 -163 -175v-311h-36v508h36v-91h1c30 63 93 101 166 101z" />
    <glyph glyph-name="o" unicode="o" horiz-adv-x="539" 
d="M269 519c139 0 223 -100 223 -265s-84 -265 -223 -265c-138 0 -222 100 -222 265s84 265 222 265zM269 486c-116 0 -185 -87 -185 -232s69 -232 185 -232c117 0 186 87 186 232s-69 232 -186 232z" />
    <glyph glyph-name="p" unicode="p" horiz-adv-x="554" 
d="M294 519c131 0 213 -101 213 -265c0 -163 -82 -264 -213 -264c-81 0 -142 45 -169 119h-1v-294h-36v693h36v-108h1c27 74 89 119 169 119zM290 487c-103 0 -168 -89 -168 -233c0 -143 65 -232 168 -232c111 0 180 89 180 232c0 144 -69 233 -180 233z" />
    <glyph glyph-name="q" unicode="q" horiz-adv-x="554" 
d="M260 519c80 0 142 -45 169 -119h1v108h36v-693h-36v294h-1c-27 -74 -88 -119 -169 -119c-131 0 -213 101 -213 264c0 164 82 265 213 265zM263 487c-110 0 -179 -89 -179 -233c0 -143 69 -232 179 -232c104 0 169 89 169 232c0 144 -65 233 -169 233z" />
    <glyph glyph-name="r" unicode="r" horiz-adv-x="331" 
d="M288 511c9 0 21 -1 30 -3v-35c-8 1 -20 2 -29 2c-100 0 -165 -65 -165 -193v-282h-36v508h36v-99h1c30 65 87 102 163 102z" />
    <glyph glyph-name="s" unicode="s" horiz-adv-x="461" 
d="M221 519c113 0 180 -65 181 -174h-37c0 89 -53 141 -144 141c-76 0 -131 -39 -131 -102c0 -68 44 -82 138 -103c113 -25 189 -48 189 -150c0 -84 -73 -142 -178 -142c-124 0 -195 68 -196 184h36c0 -96 58 -151 160 -151c82 0 142 43 142 107c0 75 -48 92 -163 118
c-94 21 -164 41 -164 135c0 83 71 137 167 137z" />
    <glyph glyph-name="t" unicode="t" horiz-adv-x="284" 
d="M218 31c12 0 27 2 35 4v-33c-10 -2 -27 -4 -39 -4c-75 0 -106 36 -106 125v353h-95v32h95v117h36v-117h104v-32h-104v-353c0 -66 20 -92 74 -92z" />
    <glyph glyph-name="u" unicode="u" 
d="M258 -10c-111 0 -176 69 -176 209v309h36v-308c0 -127 54 -178 144 -178c88 0 164 67 164 175v311h36v-508h-36v91h-2c-30 -63 -92 -101 -166 -101z" />
    <glyph glyph-name="v" unicode="v" horiz-adv-x="438" 
d="M243 0h-48l-196 508h39l88 -230l92 -242h2l93 242l88 230h39z" />
    <glyph glyph-name="w" unicode="w" horiz-adv-x="744" 
d="M575 0h-52l-79 248l-71 226h-2l-71 -226l-79 -248h-52l-160 508h37l74 -235l74 -238h2c25 78 50 158 75 237l73 236h56l73 -236c25 -79 50 -159 75 -237h2l74 238l74 235h37z" />
    <glyph glyph-name="x" unicode="x" horiz-adv-x="452" 
d="M248 265l202 -265h-45l-178 237h-2l-178 -237h-45l203 265l-185 243h44l161 -216h2l160 216h45z" />
    <glyph glyph-name="y" unicode="y" horiz-adv-x="442" 
d="M443 508l-211 -523c-57 -141 -99 -174 -183 -174c-15 0 -27 2 -38 6v33c11 -4 23 -6 38 -6c69 0 99 26 151 155l-201 509h39l180 -461h1l185 461h39z" />
    <glyph glyph-name="z" unicode="z" horiz-adv-x="450" 
d="M418 469l-353 -434v-2h363v-33h-406v39l353 434v2h-343v33h386v-39z" />
    <glyph glyph-name="braceleft" unicode="{" horiz-adv-x="279" 
d="M258 741v-29c-81 0 -114 -34 -114 -120v-174c0 -66 -18 -100 -75 -120v-2c57 -20 75 -54 75 -120v-175c0 -86 33 -120 114 -120v-29h-12c-93 0 -137 46 -137 151v172c0 63 -18 89 -69 105v33c51 17 69 42 69 105v172c0 105 44 151 137 151h12z" />
    <glyph glyph-name="bar" unicode="|" horiz-adv-x="248" 
d="M141 -205h-34v937h34v-937z" />
    <glyph glyph-name="braceright" unicode="}" horiz-adv-x="279" 
d="M21 741h12c93 0 137 -46 137 -151v-172c0 -63 18 -88 69 -105v-33c-51 -16 -69 -42 -69 -105v-172c0 -105 -44 -151 -137 -151h-12v29c81 0 114 34 114 120v175c0 66 18 100 75 120v2c-57 20 -75 54 -75 120v174c0 86 -33 120 -114 120v29z" />
    <glyph glyph-name="asciitilde" unicode="~" horiz-adv-x="571" 
d="M155 399c118 0 159 -130 262 -130c60 0 99 47 99 118h30c0 -91 -52 -153 -130 -153c-118 0 -159 131 -261 131c-61 0 -99 -47 -99 -118h-31c0 91 52 152 130 152z" />
    <glyph glyph-name="Aacute" unicode="&#xc1;" horiz-adv-x="648" 
d="M305 760h-37l99 130h50zM499 250h-351l-102 -250h-40l292 712h51l292 -712h-40zM485 285l-36 88c-43 104 -83 204 -125 306h-1c-42 -102 -82 -202 -125 -306l-36 -88h323z" />
    <glyph glyph-name="Abreve" unicode="&#x102;" horiz-adv-x="648" 
d="M324 758c-85 0 -136 48 -144 132h32c8 -66 47 -101 112 -101s104 35 112 101h32c-8 -84 -59 -132 -144 -132zM499 250h-351l-102 -250h-40l292 712h51l292 -712h-40zM485 285l-36 88c-43 104 -83 204 -125 306h-1c-42 -102 -82 -202 -125 -306l-36 -88h323z" />
    <glyph glyph-name="Acircumflex" unicode="&#xc2;" horiz-adv-x="648" 
d="M230 760h-43l117 130h40l118 -130h-43l-95 104zM499 250h-351l-102 -250h-40l292 712h51l292 -712h-40zM485 285l-36 88c-43 104 -83 204 -125 306h-1c-42 -102 -82 -202 -125 -306l-36 -88h323z" />
    <glyph glyph-name="Adieresis" unicode="&#xc4;" horiz-adv-x="648" 
d="M250 779h-36v81h36v-81zM433 779h-36v81h36v-81zM499 250h-351l-102 -250h-40l292 712h51l292 -712h-40zM485 285l-36 88c-43 104 -83 204 -125 306h-1c-42 -102 -82 -202 -125 -306l-36 -88h323z" />
    <glyph glyph-name="Agrave" unicode="&#xc0;" horiz-adv-x="648" 
d="M342 760l-111 130h49l100 -130h-38zM499 250h-351l-102 -250h-40l292 712h51l292 -712h-40zM485 285l-36 88c-43 104 -83 204 -125 306h-1c-42 -102 -82 -202 -125 -306l-36 -88h323z" />
    <glyph glyph-name="Amacron" unicode="&#x100;" horiz-adv-x="648" 
d="M445 798h-242v32h242v-32zM499 250h-351l-102 -250h-40l292 712h51l292 -712h-40zM485 285l-36 88c-43 104 -83 204 -125 306h-1c-42 -102 -82 -202 -125 -306l-36 -88h323z" />
    <glyph glyph-name="Aogonek" unicode="&#x104;" horiz-adv-x="648" 
d="M608 -161c13 0 26 2 36 6v-29c-10 -4 -23 -6 -39 -6c-56 0 -81 27 -81 70s23 76 77 120l-102 250h-351l-102 -250h-40l292 712h51l292 -712c-63 -50 -82 -81 -82 -117c0 -28 16 -44 49 -44zM485 285l-36 88c-43 104 -83 204 -125 306h-1c-42 -102 -82 -202 -125 -306
l-36 -88h323z" />
    <glyph glyph-name="Aring" unicode="&#xc5;" horiz-adv-x="648" 
d="M324 760c-50 0 -90 40 -90 90c0 49 40 90 90 90c49 0 90 -41 90 -90c0 -50 -41 -90 -90 -90zM324 914c-36 0 -64 -28 -64 -64s28 -64 64 -64s64 28 64 64s-28 64 -64 64zM499 250h-351l-102 -250h-40l292 712h51l292 -712h-40zM485 285l-36 88c-43 104 -83 204 -125 306
h-1c-42 -102 -82 -202 -125 -306l-36 -88h323z" />
    <glyph glyph-name="Atilde" unicode="&#xc3;" horiz-adv-x="648" 
d="M251 848c-29 0 -46 -21 -49 -60h-31c4 60 35 92 80 92c60 0 97 -60 146 -60c29 0 47 21 50 60h31c-4 -60 -35 -92 -80 -92c-60 0 -97 60 -147 60zM499 250h-351l-102 -250h-40l292 712h51l292 -712h-40zM485 285l-36 88c-43 104 -83 204 -125 306h-1
c-42 -102 -82 -202 -125 -306l-36 -88h323z" />
    <glyph glyph-name="AE" unicode="&#xc6;" horiz-adv-x="913" 
d="M855 35v-35h-341l-42 268h-296l-140 -268h-42l371 712h477v-35h-396l46 -294h332v-35h-327l49 -313h309zM467 303l-58 374h-19l-196 -374h273z" />
    <glyph glyph-name="Cacute" unicode="&#x106;" horiz-adv-x="671" 
d="M328 760h-37l99 130h50zM347 723c164 0 259 -109 267 -245h-39c-9 120 -92 209 -228 209c-161 0 -262 -127 -262 -331s99 -331 258 -331c133 0 221 87 236 212h39c-15 -147 -116 -248 -275 -248c-183 0 -296 141 -296 367s116 367 300 367z" />
    <glyph glyph-name="Ccaron" unicode="&#x10c;" horiz-adv-x="671" 
d="M367 760h-40l-117 130h43l94 -104l95 104h43zM347 723c164 0 259 -109 267 -245h-39c-9 120 -92 209 -228 209c-161 0 -262 -127 -262 -331s99 -331 258 -331c133 0 221 87 236 212h39c-15 -147 -116 -248 -275 -248c-183 0 -296 141 -296 367s116 367 300 367z" />
    <glyph glyph-name="Ccedilla" unicode="&#xc7;" horiz-adv-x="671" 
d="M579 237h39c-14 -138 -104 -235 -246 -247l-37 -56c5 1 13 2 21 2c48 0 80 -26 80 -69c0 -44 -33 -78 -97 -78c-35 0 -66 10 -92 25l11 22c25 -14 51 -20 78 -20c43 0 67 19 67 50c0 30 -21 48 -61 48c-12 0 -23 -2 -32 -5l-13 14l45 66c-183 1 -295 142 -295 367
c0 226 116 367 300 367c164 0 259 -109 267 -245h-39c-9 120 -92 209 -228 209c-161 0 -262 -127 -262 -331s99 -331 258 -331c133 0 221 87 236 212z" />
    <glyph glyph-name="Ccircumflex" unicode="&#x108;" horiz-adv-x="671" 
d="M327 890h40l118 -130h-43l-95 104l-94 -104h-43zM347 723c164 0 259 -109 267 -245h-39c-9 120 -92 209 -228 209c-161 0 -262 -127 -262 -331s99 -331 258 -331c133 0 221 87 236 212h39c-15 -147 -116 -248 -275 -248c-183 0 -296 141 -296 367s116 367 300 367z" />
    <glyph glyph-name="Cdotaccent" unicode="&#x10a;" horiz-adv-x="671" 
d="M365 769h-36v81h36v-81zM347 723c164 0 259 -109 267 -245h-39c-9 120 -92 209 -228 209c-161 0 -262 -127 -262 -331s99 -331 258 -331c133 0 221 87 236 212h39c-15 -147 -116 -248 -275 -248c-183 0 -296 141 -296 367s116 367 300 367z" />
    <glyph glyph-name="Eth" unicode="&#xd0;" horiz-adv-x="712" 
d="M104 712h200c233 0 362 -129 362 -356s-129 -356 -362 -356h-200v344h-63v33h63v335zM141 35h163c209 0 323 115 323 321s-114 321 -323 321h-163v-300h240v-33h-240v-309z" />
    <glyph glyph-name="Dcaron" unicode="&#x10e;" horiz-adv-x="712" 
d="M343 760h-40l-117 130h43l94 -104l95 104h43zM104 712h200c233 0 362 -129 362 -356s-129 -356 -362 -356h-200v712zM141 677v-642h163c209 0 323 115 323 321s-114 321 -323 321h-163z" />
    <glyph glyph-name="Dcroat" unicode="&#x110;" horiz-adv-x="712" 
d="M104 712h200c233 0 362 -129 362 -356s-129 -356 -362 -356h-200v344h-63v33h63v335zM141 35h163c209 0 323 115 323 321s-114 321 -323 321h-163v-300h240v-33h-240v-309z" />
    <glyph glyph-name="Eacute" unicode="&#xc9;" horiz-adv-x="597" 
d="M296 760h-37l99 130h50zM527 677h-386v-294h368v-35h-368v-313h399v-35h-436v712h423v-35z" />
    <glyph glyph-name="Ebreve" unicode="&#x114;" horiz-adv-x="597" 
d="M427 890h32c-8 -84 -59 -132 -144 -132s-136 48 -144 132h32c8 -66 47 -101 112 -101s104 35 112 101zM527 677h-386v-294h368v-35h-368v-313h399v-35h-436v712h423v-35z" />
    <glyph glyph-name="Ecaron" unicode="&#x11a;" horiz-adv-x="597" 
d="M335 760h-40l-117 130h43l94 -104l95 104h43zM527 677h-386v-294h368v-35h-368v-313h399v-35h-436v712h423v-35z" />
    <glyph glyph-name="Ecircumflex" unicode="&#xca;" horiz-adv-x="597" 
d="M295 890h40l118 -130h-43l-95 104l-94 -104h-43zM527 677h-386v-294h368v-35h-368v-313h399v-35h-436v712h423v-35z" />
    <glyph glyph-name="Edieresis" unicode="&#xcb;" horiz-adv-x="597" 
d="M242 779h-36v81h36v-81zM425 779h-36v81h36v-81zM527 677h-386v-294h368v-35h-368v-313h399v-35h-436v712h423v-35z" />
    <glyph glyph-name="Edotaccent" unicode="&#x116;" horiz-adv-x="597" 
d="M333 769h-36v81h36v-81zM527 677h-386v-294h368v-35h-368v-313h399v-35h-436v712h423v-35z" />
    <glyph glyph-name="Egrave" unicode="&#xc8;" horiz-adv-x="597" 
d="M272 890l100 -130h-38l-111 130h49zM527 677h-386v-294h368v-35h-368v-313h399v-35h-436v712h423v-35z" />
    <glyph glyph-name="Emacron" unicode="&#x112;" horiz-adv-x="597" 
d="M436 798h-242v32h242v-32zM527 677h-386v-294h368v-35h-368v-313h399v-35h-436v712h423v-35z" />
    <glyph glyph-name="Eogonek" unicode="&#x118;" horiz-adv-x="597" 
d="M507 -161c13 0 26 2 36 6v-29c-10 -4 -23 -6 -39 -6c-56 0 -81 27 -81 70s23 76 77 120h-396v712h423v-35h-386v-294h368v-35h-368v-313h399v-35c-63 -50 -82 -81 -82 -117c0 -28 16 -44 49 -44z" />
    <glyph glyph-name="Gbreve" unicode="&#x11e;" horiz-adv-x="710" 
d="M461 890h32c-8 -84 -59 -132 -144 -132s-136 48 -144 132h32c8 -66 47 -101 112 -101s104 35 112 101zM356 723c155 0 253 -88 265 -218h-39c-14 111 -95 182 -226 182c-168 0 -271 -126 -271 -334c0 -205 98 -328 259 -328c128 0 243 75 243 302h-225v35h261v-362h-36
v159h-1c-31 -103 -123 -170 -245 -170c-182 0 -294 138 -294 364c0 229 117 370 309 370z" />
    <glyph glyph-name="Gcircumflex" unicode="&#x11c;" horiz-adv-x="710" 
d="M329 890h40l118 -130h-43l-95 104l-94 -104h-43zM356 723c155 0 253 -88 265 -218h-39c-14 111 -95 182 -226 182c-168 0 -271 -126 -271 -334c0 -205 98 -328 259 -328c128 0 243 75 243 302h-225v35h261v-362h-36v159h-1c-31 -103 -123 -170 -245 -170
c-182 0 -294 138 -294 364c0 229 117 370 309 370z" />
    <glyph glyph-name="Gcommaaccent" unicode="&#x122;" horiz-adv-x="710" 
d="M356 723c155 0 253 -88 265 -218h-39c-14 111 -95 182 -226 182c-168 0 -271 -126 -271 -334c0 -205 98 -328 259 -328c128 0 243 75 243 302h-225v35h261v-362h-36v159h-1c-31 -103 -123 -170 -245 -170c-182 0 -294 138 -294 364c0 229 117 370 309 370zM369 -146
l-39 -98h-20l31 98h-13v72h41v-72z" />
    <glyph glyph-name="Gdotaccent" unicode="&#x120;" horiz-adv-x="710" 
d="M367 769h-36v81h36v-81zM356 723c155 0 253 -88 265 -218h-39c-14 111 -95 182 -226 182c-168 0 -271 -126 -271 -334c0 -205 98 -328 259 -328c128 0 243 75 243 302h-225v35h261v-362h-36v159h-1c-31 -103 -123 -170 -245 -170c-182 0 -294 138 -294 364
c0 229 117 370 309 370z" />
    <glyph glyph-name="Hbar" unicode="&#x126;" horiz-adv-x="717" 
d="M674 587h-60v-587h-38v352h-435v-352h-37v587h-60v33h60v92h37v-92h435v92h38v-92h60v-33zM576 587h-435v-200h435v200z" />
    <glyph glyph-name="Hcircumflex" unicode="&#x124;" horiz-adv-x="717" 
d="M339 890h40l118 -130h-43l-95 104l-94 -104h-43zM614 0h-38v352h-435v-352h-37v712h37v-325h435v325h38v-712z" />
    <glyph glyph-name="IJ" unicode="&#x132;" horiz-adv-x="563" 
d="M141 0h-37v712h37v-712zM465 712v-531c0 -123 -62 -185 -165 -185c-15 0 -30 2 -40 5v36c14 -3 27 -5 40 -5c81 0 127 48 127 149v531h38z" />
    <glyph glyph-name="Iacute" unicode="&#xcd;" horiz-adv-x="245" 
d="M103 760h-37l99 130h50zM141 0h-37v712h37v-712z" />
    <glyph glyph-name="Ibreve" unicode="&#x12c;" horiz-adv-x="245" 
d="M234 890h32c-8 -84 -59 -132 -144 -132s-136 48 -144 132h32c8 -66 47 -101 112 -101s104 35 112 101zM141 0h-37v712h37v-712z" />
    <glyph glyph-name="Icircumflex" unicode="&#xce;" horiz-adv-x="245" 
d="M102 890h40l118 -130h-43l-95 104l-94 -104h-43zM141 0h-37v712h37v-712z" />
    <glyph glyph-name="Idieresis" unicode="&#xcf;" horiz-adv-x="245" 
d="M49 779h-36v81h36v-81zM232 779h-36v81h36v-81zM141 0h-37v712h37v-712z" />
    <glyph glyph-name="Idotaccent" unicode="&#x130;" horiz-adv-x="245" 
d="M140 769h-36v81h36v-81zM141 0h-37v712h37v-712z" />
    <glyph glyph-name="Igrave" unicode="&#xcc;" horiz-adv-x="245" 
d="M79 890l100 -130h-38l-111 130h49zM141 0h-37v712h37v-712z" />
    <glyph glyph-name="Imacron" unicode="&#x12a;" horiz-adv-x="245" 
d="M243 798h-242v32h242v-32zM141 0h-37v712h37v-712z" />
    <glyph glyph-name="Iogonek" unicode="&#x12e;" horiz-adv-x="245" 
d="M108 -161c13 0 26 2 36 6v-29c-10 -4 -23 -6 -39 -6c-56 0 -81 27 -81 70c0 44 24 77 80 123v709h37v-712c-63 -50 -82 -81 -82 -117c0 -28 16 -44 49 -44z" />
    <glyph glyph-name="Itilde" unicode="&#x128;" horiz-adv-x="245" 
d="M245 880h31c-4 -60 -35 -92 -80 -92c-60 0 -97 60 -147 60c-29 0 -46 -21 -49 -60h-31c4 60 35 92 80 92c60 0 97 -60 146 -60c29 0 47 21 50 60zM141 0h-37v712h37v-712z" />
    <glyph glyph-name="Jcircumflex" unicode="&#x134;" horiz-adv-x="318" 
d="M181 890h40l118 -130h-43l-95 104l-94 -104h-43zM220 712v-531c0 -123 -62 -185 -165 -185c-15 0 -30 2 -40 5v36c14 -3 27 -5 40 -5c81 0 127 48 127 149v531h38z" />
    <glyph glyph-name="Kcommaaccent" unicode="&#x136;" horiz-adv-x="567" 
d="M184 373l378 -373h-54l-366 363h-1v-363h-37v712h37v-329h1l335 329h53zM337 -146l-39 -98h-20l31 98h-13v72h41v-72z" />
    <glyph glyph-name="Lacute" unicode="&#x139;" horiz-adv-x="538" 
d="M140 760h-37l99 130h50zM141 35h390v-35h-427v712h37v-677z" />
    <glyph glyph-name="Lcaron" unicode="&#x13d;" horiz-adv-x="538" 
d="M141 35h390v-35h-427v712h37v-677zM242 498h-26l36 214h39z" />
    <glyph glyph-name="Lcommaaccent" unicode="&#x13b;" horiz-adv-x="538" 
d="M141 35h390v-35h-427v712h37v-677zM338 -146l-39 -98h-20l31 98h-13v72h41v-72z" />
    <glyph glyph-name="Ldot" unicode="&#x13f;" horiz-adv-x="618" 
d="M141 35h390v-35h-427v712h37v-677zM457 356h-49v79h49v-79z" />
    <glyph glyph-name="Lslash" unicode="&#x141;" horiz-adv-x="538" 
d="M531 35v-35h-427v319l-83 -49v38l83 49v355h37v-337l159 95v-38l-159 -95v-302h390z" />
    <glyph glyph-name="Nacute" unicode="&#x143;" horiz-adv-x="730" 
d="M346 760h-37l99 130h50zM627 0h-59l-205 326l-221 349h-1v-373v-302h-37v712h58l205 -326l221 -349h1v373v302h38v-712z" />
    <glyph glyph-name="Ncaron" unicode="&#x147;" horiz-adv-x="730" 
d="M385 760h-40l-117 130h43l94 -104l95 104h43zM627 0h-59l-205 326l-221 349h-1v-373v-302h-37v712h58l205 -326l221 -349h1v373v302h38v-712z" />
    <glyph glyph-name="Ncommaaccent" unicode="&#x145;" horiz-adv-x="730" 
d="M627 0h-59l-205 326l-221 349h-1v-373v-302h-37v712h58l205 -326l221 -349h1v373v302h38v-712zM386 -146l-39 -98h-20l31 98h-13v72h41v-72z" />
    <glyph glyph-name="Eng" unicode="&#x14a;" horiz-adv-x="730" 
d="M627 712v-760c0 -105 -48 -140 -121 -140c-9 0 -18 1 -26 3v33c8 -1 16 -2 24 -2c54 0 85 24 85 106v48l-228 345c-73 109 -146 220 -219 330h-1v-360v-315h-37v712h58l207 -314c73 -109 146 -220 219 -329h1v359v284h38z" />
    <glyph glyph-name="Ntilde" unicode="&#xd1;" horiz-adv-x="730" 
d="M488 880h31c-4 -60 -35 -92 -80 -92c-60 0 -97 60 -147 60c-29 0 -46 -21 -49 -60h-31c4 60 35 92 80 92c60 0 97 -60 146 -60c29 0 47 21 50 60zM627 0h-59l-205 326l-221 349h-1v-373v-302h-37v712h58l205 -326l221 -349h1v373v302h38v-712z" />
    <glyph glyph-name="Oacute" unicode="&#xd3;" horiz-adv-x="712" 
d="M337 760h-37l99 130h50zM356 723c189 0 309 -143 309 -367s-120 -367 -309 -367s-309 143 -309 367s120 367 309 367zM356 687c-165 0 -271 -129 -271 -331s106 -331 271 -331s270 129 270 331s-105 331 -270 331z" />
    <glyph glyph-name="Obreve" unicode="&#x14e;" horiz-adv-x="712" 
d="M468 890h32c-8 -84 -59 -132 -144 -132s-136 48 -144 132h32c8 -66 47 -101 112 -101s104 35 112 101zM356 723c189 0 309 -143 309 -367s-120 -367 -309 -367s-309 143 -309 367s120 367 309 367zM356 687c-165 0 -271 -129 -271 -331s106 -331 271 -331
s270 129 270 331s-105 331 -270 331z" />
    <glyph glyph-name="Ocircumflex" unicode="&#xd4;" horiz-adv-x="712" 
d="M336 890h40l118 -130h-43l-95 104l-94 -104h-43zM356 723c189 0 309 -143 309 -367s-120 -367 -309 -367s-309 143 -309 367s120 367 309 367zM356 687c-165 0 -271 -129 -271 -331s106 -331 271 -331s270 129 270 331s-105 331 -270 331z" />
    <glyph glyph-name="Odieresis" unicode="&#xd6;" horiz-adv-x="712" 
d="M282 779h-36v81h36v-81zM465 779h-36v81h36v-81zM356 723c189 0 309 -143 309 -367s-120 -367 -309 -367s-309 143 -309 367s120 367 309 367zM356 687c-165 0 -271 -129 -271 -331s106 -331 271 -331s270 129 270 331s-105 331 -270 331z" />
    <glyph glyph-name="Ograve" unicode="&#xd2;" horiz-adv-x="712" 
d="M312 890l100 -130h-38l-111 130h49zM356 723c189 0 309 -143 309 -367s-120 -367 -309 -367s-309 143 -309 367s120 367 309 367zM356 687c-165 0 -271 -129 -271 -331s106 -331 271 -331s270 129 270 331s-105 331 -270 331z" />
    <glyph glyph-name="Ohungarumlaut" unicode="&#x150;" horiz-adv-x="712" 
d="M291 757h-36l117 133h49zM411 757h-36l117 133h48zM356 723c189 0 309 -143 309 -367s-120 -367 -309 -367s-309 143 -309 367s120 367 309 367zM356 687c-165 0 -271 -129 -271 -331s106 -331 271 -331s270 129 270 331s-105 331 -270 331z" />
    <glyph glyph-name="Omacron" unicode="&#x14c;" horiz-adv-x="712" 
d="M477 798h-242v32h242v-32zM356 723c189 0 309 -143 309 -367s-120 -367 -309 -367s-309 143 -309 367s120 367 309 367zM356 687c-165 0 -271 -129 -271 -331s106 -331 271 -331s270 129 270 331s-105 331 -270 331z" />
    <glyph glyph-name="Oslash" unicode="&#xd8;" horiz-adv-x="712" 
d="M647 710l-66 -86c54 -64 84 -156 84 -268c0 -224 -120 -367 -309 -367c-81 0 -150 26 -201 74l-62 -81l-27 21l65 85c-54 64 -84 156 -84 268c0 224 120 367 309 367c81 0 150 -26 201 -74l62 81zM85 356c0 -98 25 -179 70 -236l379 498c-46 44 -106 69 -178 69
c-165 0 -271 -129 -271 -331zM356 25c165 0 270 129 270 331c0 98 -25 179 -69 236l-379 -498c46 -45 106 -69 178 -69z" />
    <glyph glyph-name="Otilde" unicode="&#xd5;" horiz-adv-x="712" 
d="M479 880h31c-4 -60 -35 -92 -80 -92c-60 0 -97 60 -147 60c-29 0 -46 -21 -49 -60h-31c4 60 35 92 80 92c60 0 97 -60 146 -60c29 0 47 21 50 60zM356 723c189 0 309 -143 309 -367s-120 -367 -309 -367s-309 143 -309 367s120 367 309 367zM356 687
c-165 0 -271 -129 -271 -331s106 -331 271 -331s270 129 270 331s-105 331 -270 331z" />
    <glyph glyph-name="OE" unicode="&#x152;" horiz-adv-x="974" 
d="M904 677h-386v-294h368v-35h-368v-313h399v-35h-520c-224 0 -350 128 -350 356s126 356 350 356h507v-35zM481 677h-84c-200 0 -312 -115 -312 -321s112 -321 312 -321h84v642z" />
    <glyph glyph-name="Thorn" unicode="&#xde;" horiz-adv-x="589" 
d="M141 566h191c151 0 227 -81 227 -197s-76 -197 -227 -197h-191v-172h-37v712h37v-146zM141 531v-324h191c127 0 188 66 188 162s-61 162 -188 162h-191z" />
    <glyph glyph-name="Racute" unicode="&#x154;" horiz-adv-x="607" 
d="M282 760h-37l99 130h50zM104 712h195c161 0 236 -70 236 -184c0 -99 -59 -165 -147 -181v-2c54 -14 79 -44 111 -133l77 -212h-41l-73 205c-33 93 -66 125 -153 125h-168v-330h-37v712zM141 677v-312h168c131 0 188 72 188 163c0 96 -67 149 -198 149h-158z" />
    <glyph glyph-name="Rcaron" unicode="&#x158;" horiz-adv-x="607" 
d="M321 760h-40l-117 130h43l94 -104l95 104h43zM104 712h195c161 0 236 -70 236 -184c0 -99 -59 -165 -147 -181v-2c54 -14 79 -44 111 -133l77 -212h-41l-73 205c-33 93 -66 125 -153 125h-168v-330h-37v712zM141 677v-312h168c131 0 188 72 188 163
c0 96 -67 149 -198 149h-158z" />
    <glyph glyph-name="Rcommaaccent" unicode="&#x156;" horiz-adv-x="607" 
d="M104 712h195c161 0 236 -70 236 -184c0 -99 -59 -165 -147 -181v-2c54 -14 79 -44 111 -133l77 -212h-41l-73 205c-33 93 -66 125 -153 125h-168v-330h-37v712zM141 677v-312h168c131 0 188 72 188 163c0 96 -67 149 -198 149h-158zM349 -146l-39 -98h-20l31 98h-13v72
h41v-72z" />
    <glyph glyph-name="Sacute" unicode="&#x15a;" horiz-adv-x="586" 
d="M257 760h-37l99 130h50zM276 723c157 0 237 -80 237 -235h-38c0 137 -69 200 -199 200c-110 0 -176 -57 -176 -148c0 -96 63 -125 192 -156c143 -35 233 -67 233 -203c0 -119 -88 -192 -231 -192c-157 0 -245 82 -245 249h38c0 -148 76 -214 207 -214
c124 0 193 59 193 157c0 107 -70 131 -203 164c-142 35 -222 72 -222 195c0 109 82 183 214 183z" />
    <glyph glyph-name="Scaron" unicode="&#x160;" horiz-adv-x="586" 
d="M296 760h-40l-117 130h43l94 -104l95 104h43zM276 723c157 0 237 -80 237 -235h-38c0 137 -69 200 -199 200c-110 0 -176 -57 -176 -148c0 -96 63 -125 192 -156c143 -35 233 -67 233 -203c0 -119 -88 -192 -231 -192c-157 0 -245 82 -245 249h38
c0 -148 76 -214 207 -214c124 0 193 59 193 157c0 107 -70 131 -203 164c-142 35 -222 72 -222 195c0 109 82 183 214 183z" />
    <glyph glyph-name="Scedilla" unicode="&#x15e;" horiz-adv-x="586" 
d="M525 181c0 -111 -77 -182 -204 -191l-37 -56c5 1 13 2 21 2c48 0 80 -26 80 -69c0 -44 -33 -78 -97 -78c-35 0 -66 10 -92 25l11 22c25 -14 51 -20 78 -20c43 0 67 19 67 50c0 30 -21 48 -61 48c-12 0 -23 -2 -32 -5l-13 14l45 66c-155 1 -242 83 -242 249h38
c0 -148 76 -214 207 -214c124 0 193 59 193 157c0 107 -70 131 -203 164c-142 35 -222 72 -222 195c0 109 82 183 214 183c157 0 237 -80 237 -235h-38c0 137 -69 200 -199 200c-110 0 -176 -57 -176 -148c0 -96 63 -125 192 -156c143 -35 233 -67 233 -203z" />
    <glyph glyph-name="Scircumflex" unicode="&#x15c;" horiz-adv-x="586" 
d="M256 890h40l118 -130h-43l-95 104l-94 -104h-43zM276 723c157 0 237 -80 237 -235h-38c0 137 -69 200 -199 200c-110 0 -176 -57 -176 -148c0 -96 63 -125 192 -156c143 -35 233 -67 233 -203c0 -119 -88 -192 -231 -192c-157 0 -245 82 -245 249h38
c0 -148 76 -214 207 -214c124 0 193 59 193 157c0 107 -70 131 -203 164c-142 35 -222 72 -222 195c0 109 82 183 214 183z" />
    <glyph glyph-name="Scommaaccent" unicode="&#x218;" horiz-adv-x="586" 
d="M276 723c157 0 237 -80 237 -235h-38c0 137 -69 200 -199 200c-110 0 -176 -57 -176 -148c0 -96 63 -125 192 -156c143 -35 233 -67 233 -203c0 -119 -88 -192 -231 -192c-157 0 -245 82 -245 249h38c0 -148 76 -214 207 -214c124 0 193 59 193 157
c0 107 -70 131 -203 164c-142 35 -222 72 -222 195c0 109 82 183 214 183zM311 -146l-39 -98h-20l31 98h-13v72h41v-72z" />
    <glyph glyph-name="Germandbls" unicode="&#x1e9e;" horiz-adv-x="733" 
d="M624 610l-191 -196c157 -22 248 -91 248 -226c0 -129 -87 -198 -219 -198c-131 0 -204 63 -204 176h39c0 -90 57 -141 165 -141c110 0 181 56 181 163c0 125 -90 183 -255 197v32l188 191c-48 49 -120 80 -205 80c-157 0 -240 -84 -240 -249v-439h-37v439
c0 184 98 284 277 284c108 0 198 -46 253 -113z" />
    <glyph glyph-name="Tbar" unicode="&#x166;" horiz-adv-x="579" 
d="M308 677v-261h152v-33h-152v-383h-37v383h-152v33h152v261h-264v35h564v-35h-263z" />
    <glyph glyph-name="Tcaron" unicode="&#x164;" horiz-adv-x="579" 
d="M309 760h-40l-117 130h43l94 -104l95 104h43zM571 677h-263v-677h-37v677h-264v35h564v-35z" />
    <glyph glyph-name="Tcedilla" unicode="&#x162;" horiz-adv-x="579" 
d="M571 677h-263v-677h-37v677h-264v35h564v-35zM310 -146l-39 -98h-20l31 98h-13v72h41v-72z" />
    <glyph glyph-name="Tcommaaccent" unicode="&#x21a;" horiz-adv-x="579" 
d="M571 677h-263v-677h-37v677h-264v35h564v-35zM310 -146l-39 -98h-20l31 98h-13v72h41v-72z" />
    <glyph glyph-name="Uacute" unicode="&#xda;" horiz-adv-x="684" 
d="M323 760h-37l99 130h50zM586 712v-450c0 -180 -86 -273 -244 -273s-244 93 -244 273v450h37v-450c0 -160 75 -237 207 -237s207 77 207 237v450h37z" />
    <glyph glyph-name="Ubreve" unicode="&#x16c;" horiz-adv-x="684" 
d="M454 890h32c-8 -84 -59 -132 -144 -132s-136 48 -144 132h32c8 -66 47 -101 112 -101s104 35 112 101zM586 712v-450c0 -180 -86 -273 -244 -273s-244 93 -244 273v450h37v-450c0 -160 75 -237 207 -237s207 77 207 237v450h37z" />
    <glyph glyph-name="Ucircumflex" unicode="&#xdb;" horiz-adv-x="684" 
d="M322 890h40l118 -130h-43l-95 104l-94 -104h-43zM586 712v-450c0 -180 -86 -273 -244 -273s-244 93 -244 273v450h37v-450c0 -160 75 -237 207 -237s207 77 207 237v450h37z" />
    <glyph glyph-name="Udieresis" unicode="&#xdc;" horiz-adv-x="684" 
d="M268 779h-36v81h36v-81zM451 779h-36v81h36v-81zM586 712v-450c0 -180 -86 -273 -244 -273s-244 93 -244 273v450h37v-450c0 -160 75 -237 207 -237s207 77 207 237v450h37z" />
    <glyph glyph-name="Ugrave" unicode="&#xd9;" horiz-adv-x="684" 
d="M298 890l100 -130h-38l-111 130h49zM586 712v-450c0 -180 -86 -273 -244 -273s-244 93 -244 273v450h37v-450c0 -160 75 -237 207 -237s207 77 207 237v450h37z" />
    <glyph glyph-name="Uhungarumlaut" unicode="&#x170;" horiz-adv-x="684" 
d="M277 757h-36l117 133h49zM397 757h-36l117 133h48zM586 712v-450c0 -180 -86 -273 -244 -273s-244 93 -244 273v450h37v-450c0 -160 75 -237 207 -237s207 77 207 237v450h37z" />
    <glyph glyph-name="Umacron" unicode="&#x16a;" horiz-adv-x="684" 
d="M463 798h-242v32h242v-32zM586 712v-450c0 -180 -86 -273 -244 -273s-244 93 -244 273v450h37v-450c0 -160 75 -237 207 -237s207 77 207 237v450h37z" />
    <glyph glyph-name="Uogonek" unicode="&#x172;" horiz-adv-x="684" 
d="M586 712v-450c0 -127 -40 -196 -113 -255c-63 -51 -83 -81 -83 -118c0 -32 16 -50 50 -50c12 0 25 2 36 6v-29c-10 -4 -24 -6 -40 -6c-55 0 -80 29 -80 76c0 43 22 74 74 117v2c-25 -10 -55 -16 -88 -16c-158 0 -244 93 -244 273v450h37v-450c0 -160 75 -237 207 -237
s207 77 207 237v450h37z" />
    <glyph glyph-name="Uring" unicode="&#x16e;" horiz-adv-x="684" 
d="M342 940c49 0 90 -41 90 -90c0 -50 -41 -90 -90 -90c-50 0 -90 40 -90 90c0 49 40 90 90 90zM342 914c-36 0 -64 -28 -64 -64s28 -64 64 -64s64 28 64 64s-28 64 -64 64zM586 712v-450c0 -180 -86 -273 -244 -273s-244 93 -244 273v450h37v-450c0 -160 75 -237 207 -237
s207 77 207 237v450h37z" />
    <glyph glyph-name="Utilde" unicode="&#x168;" horiz-adv-x="684" 
d="M465 880h31c-4 -60 -35 -92 -80 -92c-60 0 -97 60 -147 60c-29 0 -46 -21 -49 -60h-31c4 60 35 92 80 92c60 0 97 -60 146 -60c29 0 47 21 50 60zM586 712v-450c0 -180 -86 -273 -244 -273s-244 93 -244 273v450h37v-450c0 -160 75 -237 207 -237s207 77 207 237v450h37z
" />
    <glyph glyph-name="Wacute" unicode="&#x1e82;" horiz-adv-x="876" 
d="M420 760h-37l99 130h50zM675 0h-58l-88 334l-90 342h-2l-90 -342l-88 -334h-58l-189 712h37l88 -326l93 -350h1c31 117 62 235 92 352l86 324h58l86 -324c30 -117 61 -235 92 -352h1l93 350l88 326h38z" />
    <glyph glyph-name="Wcircumflex" unicode="&#x174;" horiz-adv-x="876" 
d="M419 890h40l118 -130h-43l-95 104l-94 -104h-43zM675 0h-58l-88 334l-90 342h-2l-90 -342l-88 -334h-58l-189 712h37l88 -326l93 -350h1c31 117 62 235 92 352l86 324h58l86 -324c30 -117 61 -235 92 -352h1l93 350l88 326h38z" />
    <glyph glyph-name="Wdieresis" unicode="&#x1e84;" horiz-adv-x="876" 
d="M365 779h-36v81h36v-81zM548 779h-36v81h36v-81zM675 0h-58l-88 334l-90 342h-2l-90 -342l-88 -334h-58l-189 712h37l88 -326l93 -350h1c31 117 62 235 92 352l86 324h58l86 -324c30 -117 61 -235 92 -352h1l93 350l88 326h38z" />
    <glyph glyph-name="Wgrave" unicode="&#x1e80;" horiz-adv-x="876" 
d="M395 890l100 -130h-38l-111 130h49zM675 0h-58l-88 334l-90 342h-2l-90 -342l-88 -334h-58l-189 712h37l88 -326l93 -350h1c31 117 62 235 92 352l86 324h58l86 -324c30 -117 61 -235 92 -352h1l93 350l88 326h38z" />
    <glyph glyph-name="Yacute" unicode="&#xdd;" horiz-adv-x="585" 
d="M273 760h-37l99 130h50zM311 312v-312h-37v312l-268 400h45l108 -163c44 -67 88 -133 132 -199h2c44 67 89 134 134 201l107 161h45z" />
    <glyph glyph-name="Ycircumflex" unicode="&#x176;" horiz-adv-x="585" 
d="M272 890h40l118 -130h-43l-95 104l-94 -104h-43zM311 312v-312h-37v312l-268 400h45l108 -163c44 -67 88 -133 132 -199h2c44 67 89 134 134 201l107 161h45z" />
    <glyph glyph-name="Ydieresis" unicode="&#x178;" horiz-adv-x="585" 
d="M219 779h-36v81h36v-81zM402 779h-36v81h36v-81zM311 312v-312h-37v312l-268 400h45l108 -163c44 -67 88 -133 132 -199h2c44 67 89 134 134 201l107 161h45z" />
    <glyph glyph-name="Ygrave" unicode="&#x1ef2;" horiz-adv-x="585" 
d="M249 890l100 -130h-38l-111 130h49zM311 312v-312h-37v312l-268 400h45l108 -163c44 -67 88 -133 132 -199h2c44 67 89 134 134 201l107 161h45z" />
    <glyph glyph-name="Zacute" unicode="&#x179;" horiz-adv-x="551" 
d="M249 760h-37l99 130h50zM513 670l-455 -633v-2h476v-35h-517v42l455 633v2h-449v35h490v-42z" />
    <glyph glyph-name="Zcaron" unicode="&#x17d;" horiz-adv-x="551" 
d="M288 760h-40l-117 130h43l94 -104l95 104h43zM513 670l-455 -633v-2h476v-35h-517v42l455 633v2h-449v35h490v-42z" />
    <glyph glyph-name="Zdotaccent" unicode="&#x17b;" horiz-adv-x="551" 
d="M286 769h-36v81h36v-81zM513 670l-455 -633v-2h476v-35h-517v42l455 633v2h-449v35h490v-42z" />
    <glyph glyph-name="J.acute.loclNLD" horiz-adv-x="318" 
d="M185 777h-36l93 139h48zM220 712v-531c0 -123 -62 -185 -165 -185c-15 0 -30 2 -40 5v36c14 -3 27 -5 40 -5c81 0 127 48 127 149v531h38z" />
    <glyph glyph-name="Ccedilla.ss01" horiz-adv-x="671" 
d="M347 723c164 0 259 -109 267 -245h-39c-9 120 -92 209 -228 209c-161 0 -262 -127 -262 -331s99 -331 258 -331c133 0 221 87 236 212h39c-15 -147 -116 -248 -275 -248c-183 0 -296 141 -296 367s116 367 300 367zM267 -207h-49l125 158h36z" />
    <glyph glyph-name="Scedilla.ss01" horiz-adv-x="586" 
d="M276 723c157 0 237 -80 237 -235h-38c0 137 -69 200 -199 200c-110 0 -176 -57 -176 -148c0 -96 63 -125 192 -156c143 -35 233 -67 233 -203c0 -119 -88 -192 -231 -192c-157 0 -245 82 -245 249h38c0 -148 76 -214 207 -214c124 0 193 59 193 157
c0 107 -70 131 -203 164c-142 35 -222 72 -222 195c0 109 82 183 214 183zM216 -207h-49l125 158h36z" />
    <glyph glyph-name="Tcedilla.ss01" horiz-adv-x="579" 
d="M571 677h-263v-677h-37v677h-264v35h564v-35zM214 -207h-49l125 158h36z" />
    <glyph glyph-name="aacute" unicode="&#xe1;" horiz-adv-x="508" 
d="M226 573h-36l93 139h48zM249 519c105 0 178 -58 178 -189v-211c0 -44 4 -91 10 -119h-34c-5 26 -8 65 -8 96h-1c-33 -65 -94 -106 -186 -106c-101 0 -168 57 -168 143c0 80 46 130 183 151c47 7 118 16 169 20v29c0 109 -60 154 -143 154c-97 0 -146 -55 -151 -132h-37
c6 97 72 164 188 164zM392 219v53c-49 -4 -121 -13 -165 -20c-113 -17 -150 -55 -150 -118c0 -68 53 -112 137 -112c56 0 100 20 129 52c36 39 49 69 49 145z" />
    <glyph glyph-name="abreve" unicode="&#x103;" horiz-adv-x="508" 
d="M354 712h32c-8 -83 -59 -132 -144 -132s-136 49 -144 132h32c8 -66 47 -101 112 -101s104 35 112 101zM249 519c105 0 178 -58 178 -189v-211c0 -44 4 -91 10 -119h-34c-5 26 -8 65 -8 96h-1c-33 -65 -94 -106 -186 -106c-101 0 -168 57 -168 143c0 80 46 130 183 151
c47 7 118 16 169 20v29c0 109 -60 154 -143 154c-97 0 -146 -55 -151 -132h-37c6 97 72 164 188 164zM392 219v53c-49 -4 -121 -13 -165 -20c-113 -17 -150 -55 -150 -118c0 -68 53 -112 137 -112c56 0 100 20 129 52c36 39 49 69 49 145z" />
    <glyph glyph-name="acircumflex" unicode="&#xe2;" horiz-adv-x="508" 
d="M336 573l-94 113l-95 -113h-42l117 139h40l117 -139h-43zM249 519c105 0 178 -58 178 -189v-211c0 -44 4 -91 10 -119h-34c-5 26 -8 65 -8 96h-1c-33 -65 -94 -106 -186 -106c-101 0 -168 57 -168 143c0 80 46 130 183 151c47 7 118 16 169 20v29c0 109 -60 154 -143 154
c-97 0 -146 -55 -151 -132h-37c6 97 72 164 188 164zM392 219v53c-49 -4 -121 -13 -165 -20c-113 -17 -150 -55 -150 -118c0 -68 53 -112 137 -112c56 0 100 20 129 52c36 39 49 69 49 145z" />
    <glyph glyph-name="adieresis" unicode="&#xe4;" horiz-adv-x="508" 
d="M168 631h-36v81h36v-81zM351 631h-36v81h36v-81zM249 519c105 0 178 -58 178 -189v-211c0 -44 4 -91 10 -119h-34c-5 26 -8 65 -8 96h-1c-33 -65 -94 -106 -186 -106c-101 0 -168 57 -168 143c0 80 46 130 183 151c47 7 118 16 169 20v29c0 109 -60 154 -143 154
c-97 0 -146 -55 -151 -132h-37c6 97 72 164 188 164zM392 219v53c-49 -4 -121 -13 -165 -20c-113 -17 -150 -55 -150 -118c0 -68 53 -112 137 -112c56 0 100 20 129 52c36 39 49 69 49 145z" />
    <glyph glyph-name="agrave" unicode="&#xe0;" horiz-adv-x="508" 
d="M202 712l92 -139h-36l-105 139h49zM249 519c105 0 178 -58 178 -189v-211c0 -44 4 -91 10 -119h-34c-5 26 -8 65 -8 96h-1c-33 -65 -94 -106 -186 -106c-101 0 -168 57 -168 143c0 80 46 130 183 151c47 7 118 16 169 20v29c0 109 -60 154 -143 154
c-97 0 -146 -55 -151 -132h-37c6 97 72 164 188 164zM392 219v53c-49 -4 -121 -13 -165 -20c-113 -17 -150 -55 -150 -118c0 -68 53 -112 137 -112c56 0 100 20 129 52c36 39 49 69 49 145z" />
    <glyph glyph-name="amacron" unicode="&#x101;" horiz-adv-x="508" 
d="M363 637h-242v32h242v-32zM249 519c105 0 178 -58 178 -189v-211c0 -44 4 -91 10 -119h-34c-5 26 -8 65 -8 96h-1c-33 -65 -94 -106 -186 -106c-101 0 -168 57 -168 143c0 80 46 130 183 151c47 7 118 16 169 20v29c0 109 -60 154 -143 154c-97 0 -146 -55 -151 -132h-37
c6 97 72 164 188 164zM392 219v53c-49 -4 -121 -13 -165 -20c-113 -17 -150 -55 -150 -118c0 -68 53 -112 137 -112c56 0 100 20 129 52c36 39 49 69 49 145z" />
    <glyph glyph-name="aogonek" unicode="&#x105;" horiz-adv-x="508" 
d="M404 -161c13 0 26 2 36 6v-29c-10 -4 -23 -6 -39 -6c-56 0 -81 27 -81 70c0 45 25 78 82 124c-4 26 -7 63 -7 92h-1c-33 -65 -94 -106 -186 -106c-101 0 -168 57 -168 143c0 80 46 130 183 151c47 7 118 16 169 20v29c0 109 -60 154 -143 154c-97 0 -146 -55 -151 -132
h-37c6 97 72 164 188 164c105 0 178 -58 178 -189v-211c0 -44 4 -91 10 -119c-63 -50 -82 -81 -82 -117c0 -28 16 -44 49 -44zM392 219v53c-49 -4 -121 -13 -165 -20c-113 -17 -150 -55 -150 -118c0 -68 53 -112 137 -112c56 0 100 20 129 52c36 39 49 69 49 145z" />
    <glyph glyph-name="aring" unicode="&#xe5;" horiz-adv-x="508" 
d="M242 762c49 0 90 -40 90 -90s-41 -90 -90 -90c-50 0 -90 40 -90 90s40 90 90 90zM242 736c-36 0 -64 -28 -64 -64s28 -64 64 -64s64 28 64 64s-28 64 -64 64zM249 519c105 0 178 -58 178 -189v-211c0 -44 4 -91 10 -119h-34c-5 26 -8 65 -8 96h-1
c-33 -65 -94 -106 -186 -106c-101 0 -168 57 -168 143c0 80 46 130 183 151c47 7 118 16 169 20v29c0 109 -60 154 -143 154c-97 0 -146 -55 -151 -132h-37c6 97 72 164 188 164zM392 219v53c-49 -4 -121 -13 -165 -20c-113 -17 -150 -55 -150 -118c0 -68 53 -112 137 -112
c56 0 100 20 129 52c36 39 49 69 49 145z" />
    <glyph glyph-name="atilde" unicode="&#xe3;" horiz-adv-x="508" 
d="M365 702h31c-4 -60 -35 -92 -80 -92c-60 0 -97 60 -147 60c-29 0 -46 -21 -49 -60h-31c4 60 35 92 80 92c60 0 97 -60 146 -60c29 0 47 21 50 60zM249 519c105 0 178 -58 178 -189v-211c0 -44 4 -91 10 -119h-34c-5 26 -8 65 -8 96h-1c-33 -65 -94 -106 -186 -106
c-101 0 -168 57 -168 143c0 80 46 130 183 151c47 7 118 16 169 20v29c0 109 -60 154 -143 154c-97 0 -146 -55 -151 -132h-37c6 97 72 164 188 164zM392 219v53c-49 -4 -121 -13 -165 -20c-113 -17 -150 -55 -150 -118c0 -68 53 -112 137 -112c56 0 100 20 129 52
c36 39 49 69 49 145z" />
    <glyph glyph-name="ae" unicode="&#xe6;" horiz-adv-x="833" 
d="M592 21c83 0 139 52 151 129h38c-13 -92 -81 -161 -189 -161c-90 0 -155 55 -185 147c-24 -93 -103 -147 -201 -147c-99 0 -166 57 -166 144c0 92 58 150 217 150h130v50c0 107 -56 154 -140 154c-90 0 -144 -55 -149 -132h-37c6 97 77 164 186 164
c83 0 145 -38 165 -124c30 77 90 124 174 124c102 0 177 -72 195 -183c4 -25 6 -54 6 -85h-367c2 -146 71 -230 172 -230zM586 487c-100 0 -162 -81 -166 -204h331c-3 131 -71 204 -165 204zM387 251h-127c-133 0 -183 -41 -183 -117c0 -69 53 -113 135 -113
c52 0 100 20 130 54c33 38 45 69 45 144v32z" />
    <glyph glyph-name="cacute" unicode="&#x107;" horiz-adv-x="505" 
d="M250 573h-36l93 139h48zM266 519c110 0 188 -72 197 -179h-38c-7 86 -70 146 -159 146c-113 0 -182 -87 -182 -232c0 -146 69 -232 182 -232c89 0 151 64 159 151h38c-9 -108 -86 -184 -197 -184c-136 0 -219 100 -219 265s83 265 219 265z" />
    <glyph glyph-name="ccaron" unicode="&#x10d;" horiz-adv-x="505" 
d="M287 573h-40l-117 139h42l95 -113l94 113h43zM266 519c110 0 188 -72 197 -179h-38c-7 86 -70 146 -159 146c-113 0 -182 -87 -182 -232c0 -146 69 -232 182 -232c89 0 151 64 159 151h38c-9 -108 -86 -184 -197 -184c-136 0 -219 100 -219 265s83 265 219 265z" />
    <glyph glyph-name="ccedilla" unicode="&#xe7;" horiz-adv-x="505" 
d="M266 22c89 0 151 64 159 151h38c-8 -97 -71 -169 -165 -182l-38 -57c5 1 13 2 21 2c48 0 80 -26 80 -69c0 -44 -33 -78 -97 -78c-35 0 -66 10 -92 25l11 22c25 -14 51 -20 78 -20c43 0 67 19 67 50c0 30 -21 48 -61 48c-12 0 -23 -2 -32 -5l-13 14l44 66
c-136 0 -219 100 -219 265s83 265 219 265c110 0 188 -72 197 -179h-38c-7 86 -70 146 -159 146c-113 0 -182 -87 -182 -232c0 -146 69 -232 182 -232z" />
    <glyph glyph-name="ccircumflex" unicode="&#x109;" horiz-adv-x="505" 
d="M361 573l-94 113l-95 -113h-42l117 139h40l117 -139h-43zM266 519c110 0 188 -72 197 -179h-38c-7 86 -70 146 -159 146c-113 0 -182 -87 -182 -232c0 -146 69 -232 182 -232c89 0 151 64 159 151h38c-9 -108 -86 -184 -197 -184c-136 0 -219 100 -219 265
s83 265 219 265z" />
    <glyph glyph-name="cdotaccent" unicode="&#x10b;" horiz-adv-x="505" 
d="M284 631h-36v81h36v-81zM266 519c110 0 188 -72 197 -179h-38c-7 86 -70 146 -159 146c-113 0 -182 -87 -182 -232c0 -146 69 -232 182 -232c89 0 151 64 159 151h38c-9 -108 -86 -184 -197 -184c-136 0 -219 100 -219 265s83 265 219 265z" />
    <glyph glyph-name="eth" unicode="&#xf0;" horiz-adv-x="539" 
d="M382 542c73 -91 111 -179 111 -288c0 -165 -85 -265 -224 -265c-138 0 -222 100 -222 264s83 263 219 263c54 0 100 -20 135 -55v2c-37 57 -87 110 -143 159l-131 -67l-13 27l119 61c-25 21 -51 40 -77 59l23 21c27 -18 56 -40 85 -65l120 62l13 -28l-109 -55
c37 -33 71 -67 94 -95zM269 22c117 0 187 87 187 231s-70 231 -187 231c-115 0 -185 -87 -185 -231s70 -231 185 -231z" />
    <glyph glyph-name="dcaron" unicode="&#x10f;" horiz-adv-x="554" 
d="M466 0h-36v109h-1c-27 -74 -88 -119 -169 -119c-131 0 -213 101 -213 264c0 164 82 265 213 265c80 0 142 -45 169 -119h1v312h36v-712zM541 537h-26l36 175h39zM263 487c-110 0 -179 -89 -179 -233c0 -143 69 -232 179 -232c104 0 169 89 169 232
c0 144 -65 233 -169 233z" />
    <glyph glyph-name="dcroat" unicode="&#x111;" horiz-adv-x="551" 
d="M526 590h-60v-590h-36v109h-1c-27 -74 -88 -119 -169 -119c-131 0 -213 101 -213 264c0 164 82 265 213 265c80 0 142 -45 169 -119h1v190h-147v30h147v92h36v-92h60v-30zM263 22c104 0 169 89 169 232c0 144 -65 233 -169 233c-110 0 -179 -89 -179 -233
c0 -143 69 -232 179 -232z" />
    <glyph glyph-name="eacute" unicode="&#xe9;" horiz-adv-x="526" 
d="M246 573h-36l93 139h48zM270 21c91 0 153 52 166 129h38c-15 -92 -88 -161 -204 -161c-138 0 -223 107 -223 275c0 152 83 255 217 255c112 0 189 -70 209 -183c5 -25 6 -54 6 -85h-396c2 -146 77 -230 187 -230zM264 487c-109 0 -176 -81 -181 -204h361
c-4 131 -77 204 -180 204z" />
    <glyph glyph-name="ebreve" unicode="&#x115;" horiz-adv-x="526" 
d="M262 580c-85 0 -136 49 -144 132h32c8 -66 47 -101 112 -101s104 35 112 101h32c-8 -83 -59 -132 -144 -132zM270 21c91 0 153 52 166 129h38c-15 -92 -88 -161 -204 -161c-138 0 -223 107 -223 275c0 152 83 255 217 255c112 0 189 -70 209 -183c5 -25 6 -54 6 -85h-396
c2 -146 77 -230 187 -230zM264 487c-109 0 -176 -81 -181 -204h361c-4 131 -77 204 -180 204z" />
    <glyph glyph-name="ecaron" unicode="&#x11b;" horiz-adv-x="526" 
d="M243 573l-117 139h42l95 -113l94 113h43l-117 -139h-40zM270 21c91 0 153 52 166 129h38c-15 -92 -88 -161 -204 -161c-138 0 -223 107 -223 275c0 152 83 255 217 255c112 0 189 -70 209 -183c5 -25 6 -54 6 -85h-396c2 -146 77 -230 187 -230zM264 487
c-109 0 -176 -81 -181 -204h361c-4 131 -77 204 -180 204z" />
    <glyph glyph-name="ecircumflex" unicode="&#xea;" horiz-adv-x="526" 
d="M168 573h-42l117 139h40l117 -139h-43l-94 113zM270 21c91 0 153 52 166 129h38c-15 -92 -88 -161 -204 -161c-138 0 -223 107 -223 275c0 152 83 255 217 255c112 0 189 -70 209 -183c5 -25 6 -54 6 -85h-396c2 -146 77 -230 187 -230zM264 487
c-109 0 -176 -81 -181 -204h361c-4 131 -77 204 -180 204z" />
    <glyph glyph-name="edieresis" unicode="&#xeb;" horiz-adv-x="526" 
d="M189 631h-36v81h36v-81zM372 631h-36v81h36v-81zM270 21c91 0 153 52 166 129h38c-15 -92 -88 -161 -204 -161c-138 0 -223 107 -223 275c0 152 83 255 217 255c112 0 189 -70 209 -183c5 -25 6 -54 6 -85h-396c2 -146 77 -230 187 -230zM264 487
c-109 0 -176 -81 -181 -204h361c-4 131 -77 204 -180 204z" />
    <glyph glyph-name="edotaccent" unicode="&#x117;" horiz-adv-x="526" 
d="M280 631h-36v81h36v-81zM270 21c91 0 153 52 166 129h38c-15 -92 -88 -161 -204 -161c-138 0 -223 107 -223 275c0 152 83 255 217 255c112 0 189 -70 209 -183c5 -25 6 -54 6 -85h-396c2 -146 77 -230 187 -230zM264 487c-109 0 -176 -81 -181 -204h361
c-4 131 -77 204 -180 204z" />
    <glyph glyph-name="egrave" unicode="&#xe8;" horiz-adv-x="526" 
d="M278 573l-105 139h49l92 -139h-36zM270 21c91 0 153 52 166 129h38c-15 -92 -88 -161 -204 -161c-138 0 -223 107 -223 275c0 152 83 255 217 255c112 0 189 -70 209 -183c5 -25 6 -54 6 -85h-396c2 -146 77 -230 187 -230zM264 487c-109 0 -176 -81 -181 -204h361
c-4 131 -77 204 -180 204z" />
    <glyph glyph-name="emacron" unicode="&#x113;" horiz-adv-x="526" 
d="M383 637h-242v32h242v-32zM270 21c91 0 153 52 166 129h38c-15 -92 -88 -161 -204 -161c-138 0 -223 107 -223 275c0 152 83 255 217 255c112 0 189 -70 209 -183c5 -25 6 -54 6 -85h-396c2 -146 77 -230 187 -230zM264 487c-109 0 -176 -81 -181 -204h361
c-4 131 -77 204 -180 204z" />
    <glyph glyph-name="eogonek" unicode="&#x119;" horiz-adv-x="526" 
d="M270 21c91 0 153 52 166 129h38c-9 -54 -31 -88 -75 -126c-68 -60 -90 -96 -90 -139c0 -30 16 -46 50 -46c12 0 25 2 36 6v-29c-10 -4 -24 -6 -40 -6c-55 0 -80 27 -80 70s18 77 60 117v2c-20 -7 -41 -10 -65 -10c-138 0 -223 107 -223 275c0 152 83 255 217 255
c112 0 189 -70 209 -183c5 -25 6 -54 6 -85h-396c2 -146 77 -230 187 -230zM264 487c-109 0 -176 -81 -181 -204h361c-4 131 -77 204 -180 204z" />
    <glyph glyph-name="gbreve" unicode="&#x11f;" horiz-adv-x="554" 
d="M379 712h32c-8 -83 -59 -132 -144 -132s-136 49 -144 132h32c8 -66 47 -101 112 -101s104 35 112 101zM261 519c78 0 137 -42 168 -118h1v107h36v-477c0 -145 -69 -221 -205 -221c-119 0 -194 58 -194 158h36c1 -81 63 -126 158 -126c115 0 169 63 169 190v92h-1
c-31 -76 -90 -118 -168 -118c-132 0 -214 99 -214 256c0 158 82 257 214 257zM261 487c-109 0 -177 -87 -177 -225c0 -137 68 -224 177 -224c106 0 171 85 171 224c0 140 -65 225 -171 225z" />
    <glyph glyph-name="gcircumflex" unicode="&#x11d;" horiz-adv-x="554" 
d="M361 573l-94 113l-95 -113h-42l117 139h40l117 -139h-43zM261 519c78 0 137 -42 168 -118h1v107h36v-477c0 -145 -69 -221 -205 -221c-119 0 -194 58 -194 158h36c1 -81 63 -126 158 -126c115 0 169 63 169 190v92h-1c-31 -76 -90 -118 -168 -118
c-132 0 -214 99 -214 256c0 158 82 257 214 257zM261 487c-109 0 -177 -87 -177 -225c0 -137 68 -224 177 -224c106 0 171 85 171 224c0 140 -65 225 -171 225z" />
    <glyph glyph-name="gcommaaccent" unicode="&#x123;" horiz-adv-x="554" 
d="M265 659h13v-72h-41v72l39 98h20zM261 519c78 0 137 -42 168 -118h1v107h36v-477c0 -145 -69 -221 -205 -221c-119 0 -194 58 -194 158h36c1 -81 63 -126 158 -126c115 0 169 63 169 190v92h-1c-31 -76 -90 -118 -168 -118c-132 0 -214 99 -214 256c0 158 82 257 214 257
zM261 487c-109 0 -177 -87 -177 -225c0 -137 68 -224 177 -224c106 0 171 85 171 224c0 140 -65 225 -171 225z" />
    <glyph glyph-name="gdotaccent" unicode="&#x121;" horiz-adv-x="554" 
d="M285 631h-36v81h36v-81zM261 519c78 0 137 -42 168 -118h1v107h36v-477c0 -145 -69 -221 -205 -221c-119 0 -194 58 -194 158h36c1 -81 63 -126 158 -126c115 0 169 63 169 190v92h-1c-31 -76 -90 -118 -168 -118c-132 0 -214 99 -214 256c0 158 82 257 214 257zM261 487
c-109 0 -177 -87 -177 -225c0 -137 68 -224 177 -224c106 0 171 85 171 224c0 140 -65 225 -171 225z" />
    <glyph glyph-name="hbar" unicode="&#x127;" 
d="M291 518c112 0 177 -69 177 -209v-309h-36v308c0 127 -55 178 -145 178c-87 0 -163 -67 -163 -175v-311h-36v590h-63v30h63v92h36v-92h143v-30h-143v-173h1c33 66 97 101 166 101z" />
    <glyph glyph-name="hcircumflex" unicode="&#x125;" 
d="M255 890h40l118 -130h-43l-95 104l-94 -104h-43zM124 417h1c33 66 97 101 166 101c112 0 177 -69 177 -209v-309h-36v308c0 127 -55 178 -145 178c-87 0 -163 -67 -163 -175v-311h-36v712h36v-295z" />
    <glyph glyph-name="dotlessi" unicode="&#x131;" horiz-adv-x="211" 
d="M124 0h-36v508h36v-508z" />
    <glyph glyph-name="iacute" unicode="&#xed;" horiz-adv-x="211" 
d="M90 573h-36l93 139h48zM124 0h-36v508h36v-508z" />
    <glyph glyph-name="ibreve" unicode="&#x12d;" horiz-adv-x="211" 
d="M196 712h32c-5 -83 -48 -132 -123 -132c-74 0 -117 49 -122 132h32c5 -66 36 -101 90 -101c55 0 86 35 91 101zM124 0h-36v508h36v-508z" />
    <glyph glyph-name="icircumflex" unicode="&#xee;" horiz-adv-x="211" 
d="M224 574h-41l-77 112l-77 -112h-42l97 138h43zM124 0h-36v508h36v-508z" />
    <glyph glyph-name="idieresis" unicode="&#xef;" horiz-adv-x="211" 
d="M52 635h-36v77h36v-77zM195 635h-36v77h36v-77zM124 0h-36v508h36v-508z" />
    <glyph glyph-name="idotaccent" horiz-adv-x="211" 
d="M124 631h-36v81h36v-81zM124 0h-36v508h36v-508z" />
    <glyph glyph-name="igrave" unicode="&#xec;" horiz-adv-x="211" 
d="M66 712l92 -139h-36l-105 139h49zM124 0h-36v508h36v-508z" />
    <glyph glyph-name="ij" unicode="&#x133;" horiz-adv-x="431" 
d="M124 631h-36v81h36v-81zM344 631h-36v81h36v-81zM124 0h-36v508h36v-508zM344 508v-552c0 -108 -47 -144 -120 -144c-9 0 -18 1 -25 3v33c7 -1 15 -2 23 -2c54 0 86 25 86 110v552h36z" />
    <glyph glyph-name="imacron" unicode="&#x12b;" horiz-adv-x="211" 
d="M212 637h-212v32h212v-32zM124 0h-36v508h36v-508z" />
    <glyph glyph-name="iogonek" unicode="&#x12f;" horiz-adv-x="211" 
d="M124 631h-36v81h36v-81zM91 -161c13 0 26 2 36 6v-29c-10 -4 -23 -6 -39 -6c-56 0 -81 27 -81 70c0 44 24 77 81 123v505h36v-508c-63 -50 -82 -81 -82 -117c0 -28 16 -44 49 -44z" />
    <glyph glyph-name="itilde" unicode="&#x129;" horiz-adv-x="211" 
d="M210 702h29c-3 -60 -32 -92 -74 -92c-51 0 -79 60 -120 60c-26 0 -41 -20 -44 -60h-29c3 60 31 92 73 92c52 0 80 -60 120 -60c27 0 42 20 45 60zM124 0h-36v508h36v-508z" />
    <glyph glyph-name="dotlessj" unicode="&#x237;" horiz-adv-x="220" 
d="M133 508v-552c0 -108 -47 -144 -120 -144c-9 0 -18 1 -25 3v33c7 -1 15 -2 23 -2c54 0 86 25 86 110v552h36z" />
    <glyph glyph-name="jcircumflex" unicode="&#x135;" horiz-adv-x="220" 
d="M233 574h-41l-77 112l-77 -112h-42l97 138h43zM133 508v-552c0 -108 -47 -144 -120 -144c-9 0 -18 1 -25 3v33c7 -1 15 -2 23 -2c54 0 86 25 86 110v552h36z" />
    <glyph glyph-name="kcommaaccent" unicode="&#x137;" horiz-adv-x="457" 
d="M462 0h-52l-285 268h-1v-268h-36v712h36v-424h1l256 220h52l-269 -229zM235 -74h41v-72l-39 -98h-20l31 98h-13v72z" />
    <glyph glyph-name="kgreenlandic" unicode="&#x138;" horiz-adv-x="472" 
d="M462 0h-52l-285 268h-1v-268h-36v508h36v-220h1l256 220h52l-269 -229z" />
    <glyph glyph-name="lacute" unicode="&#x13a;" horiz-adv-x="211" 
d="M120 777h-36l93 139h48zM124 0h-36v712h36v-712z" />
    <glyph glyph-name="lcaron" unicode="&#x13e;" horiz-adv-x="211" 
d="M124 0h-36v712h36v-712zM200 537h-26l36 175h39z" />
    <glyph glyph-name="lcommaaccent" unicode="&#x13c;" horiz-adv-x="211" 
d="M124 0h-36v712h36v-712zM126 -146l-39 -98h-20l31 98h-13v72h41v-72z" />
    <glyph glyph-name="ldot" unicode="&#x140;" horiz-adv-x="325" 
d="M124 0h-36v712h36v-712zM293 315h-49v79h49v-79z" />
    <glyph glyph-name="lslash" unicode="&#x142;" horiz-adv-x="246" 
d="M236 459l-95 -57v-402h-36v384l-95 -57v36l95 57v292h36v-274l95 57v-36z" />
    <glyph glyph-name="nacute" unicode="&#x144;" 
d="M260 573h-36l93 139h48zM291 518c112 0 177 -69 177 -209v-309h-36v308c0 127 -55 178 -145 178c-87 0 -163 -67 -163 -175v-311h-36v508h36v-91h1c30 63 93 101 166 101z" />
    <glyph glyph-name="napostrophe" unicode="&#x149;" horiz-adv-x="618" 
d="M124 633l-37 -127h-27l30 127h-13v79h47v-79zM361 518c111 0 176 -69 176 -209v-309h-36v308c0 127 -55 178 -145 178c-87 0 -163 -67 -163 -175v-311h-36v508h36v-91h1c30 63 93 101 167 101z" />
    <glyph glyph-name="ncaron" unicode="&#x148;" 
d="M296 573h-40l-117 139h42l95 -113l94 113h43zM291 518c112 0 177 -69 177 -209v-309h-36v308c0 127 -55 178 -145 178c-87 0 -163 -67 -163 -175v-311h-36v508h36v-91h1c30 63 93 101 166 101z" />
    <glyph glyph-name="ncommaaccent" unicode="&#x146;" 
d="M291 518c112 0 177 -69 177 -209v-309h-36v308c0 127 -55 178 -145 178c-87 0 -163 -67 -163 -175v-311h-36v508h36v-91h1c30 63 93 101 166 101zM296 -146l-39 -98h-20l31 98h-13v72h41v-72z" />
    <glyph glyph-name="eng" unicode="&#x14b;" 
d="M291 518c56 0 98 -18 130 -52c35 -39 47 -86 47 -166v-348c0 -105 -47 -140 -120 -140c-9 0 -17 1 -25 3v33c7 -1 15 -2 23 -2c54 0 86 24 86 106v347c0 75 -11 113 -38 143c-26 29 -60 44 -107 44c-87 0 -163 -67 -163 -175v-311h-36v508h36v-91h1c33 66 97 101 166 101
z" />
    <glyph glyph-name="ntilde" unicode="&#xf1;" 
d="M399 702h31c-4 -60 -35 -92 -80 -92c-60 0 -97 60 -147 60c-29 0 -46 -21 -49 -60h-31c4 60 35 92 80 92c60 0 97 -60 146 -60c29 0 47 21 50 60zM291 518c112 0 177 -69 177 -209v-309h-36v308c0 127 -55 178 -145 178c-87 0 -163 -67 -163 -175v-311h-36v508h36v-91h1
c30 63 93 101 166 101z" />
    <glyph glyph-name="oacute" unicode="&#xf3;" horiz-adv-x="539" 
d="M253 573h-36l93 139h48zM269 519c139 0 223 -100 223 -265s-84 -265 -223 -265c-138 0 -222 100 -222 265s84 265 222 265zM269 486c-116 0 -185 -87 -185 -232s69 -232 185 -232c117 0 186 87 186 232s-69 232 -186 232z" />
    <glyph glyph-name="obreve" unicode="&#x14f;" horiz-adv-x="539" 
d="M381 712h32c-8 -83 -59 -132 -144 -132s-136 49 -144 132h32c8 -66 47 -101 112 -101s104 35 112 101zM269 519c139 0 223 -100 223 -265s-84 -265 -223 -265c-138 0 -222 100 -222 265s84 265 222 265zM269 486c-116 0 -185 -87 -185 -232s69 -232 185 -232
c117 0 186 87 186 232s-69 232 -186 232z" />
    <glyph glyph-name="ocircumflex" unicode="&#xf4;" horiz-adv-x="539" 
d="M364 573l-94 113l-95 -113h-42l117 139h40l117 -139h-43zM269 519c139 0 223 -100 223 -265s-84 -265 -223 -265c-138 0 -222 100 -222 265s84 265 222 265zM269 486c-116 0 -185 -87 -185 -232s69 -232 185 -232c117 0 186 87 186 232s-69 232 -186 232z" />
    <glyph glyph-name="odieresis" unicode="&#xf6;" horiz-adv-x="539" 
d="M196 631h-36v81h36v-81zM379 631h-36v81h36v-81zM269 519c139 0 223 -100 223 -265s-84 -265 -223 -265c-138 0 -222 100 -222 265s84 265 222 265zM269 486c-116 0 -185 -87 -185 -232s69 -232 185 -232c117 0 186 87 186 232s-69 232 -186 232z" />
    <glyph glyph-name="ograve" unicode="&#xf2;" horiz-adv-x="539" 
d="M229 712l92 -139h-36l-105 139h49zM269 519c139 0 223 -100 223 -265s-84 -265 -223 -265c-138 0 -222 100 -222 265s84 265 222 265zM269 486c-116 0 -185 -87 -185 -232s69 -232 185 -232c117 0 186 87 186 232s-69 232 -186 232z" />
    <glyph glyph-name="ohungarumlaut" unicode="&#x151;" horiz-adv-x="539" 
d="M204 573h-36l117 139h49zM324 573h-36l117 139h48zM269 519c139 0 223 -100 223 -265s-84 -265 -223 -265c-138 0 -222 100 -222 265s84 265 222 265zM269 486c-116 0 -185 -87 -185 -232s69 -232 185 -232c117 0 186 87 186 232s-69 232 -186 232z" />
    <glyph glyph-name="omacron" unicode="&#x14d;" horiz-adv-x="539" 
d="M390 637h-242v32h242v-32zM269 519c139 0 223 -100 223 -265s-84 -265 -223 -265c-138 0 -222 100 -222 265s84 265 222 265zM269 486c-116 0 -185 -87 -185 -232s69 -232 185 -232c117 0 186 87 186 232s-69 232 -186 232z" />
    <glyph glyph-name="oslash" unicode="&#xf8;" horiz-adv-x="539" 
d="M490 518l-55 -72c38 -46 58 -111 58 -192c0 -165 -85 -265 -224 -265c-58 0 -107 18 -144 51l-51 -68l-25 19l54 72c-36 46 -56 111 -56 191c0 165 84 265 222 265c58 0 107 -18 144 -50l52 68zM269 486c-115 0 -185 -87 -185 -232c0 -67 15 -121 42 -161l266 347
c-31 30 -73 46 -123 46zM269 22c117 0 187 87 187 232c0 68 -16 123 -44 163l-265 -349c31 -30 72 -46 122 -46z" />
    <glyph glyph-name="otilde" unicode="&#xf5;" horiz-adv-x="539" 
d="M392 702h31c-4 -60 -35 -92 -80 -92c-60 0 -97 60 -147 60c-29 0 -46 -21 -49 -60h-31c4 60 35 92 80 92c60 0 97 -60 146 -60c29 0 47 21 50 60zM269 519c139 0 223 -100 223 -265s-84 -265 -223 -265c-138 0 -222 100 -222 265s84 265 222 265zM269 486
c-116 0 -185 -87 -185 -232s69 -232 185 -232c117 0 186 87 186 232s-69 232 -186 232z" />
    <glyph glyph-name="oe" unicode="&#x153;" horiz-adv-x="865" 
d="M624 21c84 0 139 52 152 129h37c-13 -92 -81 -161 -189 -161c-92 0 -158 57 -187 154c-27 -98 -93 -154 -186 -154c-127 0 -204 100 -204 265s77 265 204 265c91 0 156 -54 184 -148c28 91 92 148 183 148c102 0 177 -72 195 -183c4 -25 6 -54 6 -85h-367
c2 -146 71 -230 172 -230zM618 487c-100 0 -162 -81 -166 -204h332c-4 131 -72 204 -166 204zM251 22c104 0 169 88 169 232s-65 232 -169 232s-167 -88 -167 -232s63 -232 167 -232z" />
    <glyph glyph-name="thorn" unicode="&#xfe;" horiz-adv-x="554" 
d="M124 400h1c27 74 89 119 169 119c131 0 213 -101 213 -265c0 -163 -82 -264 -213 -264c-81 0 -142 45 -169 119h-1v-294h-36v897h36v-312zM290 487c-103 0 -168 -89 -168 -233c0 -143 65 -232 168 -232c111 0 180 89 180 232c0 144 -69 233 -180 233z" />
    <glyph glyph-name="racute" unicode="&#x155;" horiz-adv-x="331" 
d="M182 573h-36l93 139h48zM288 511c9 0 21 -1 30 -3v-35c-8 1 -20 2 -29 2c-100 0 -165 -65 -165 -193v-282h-36v508h36v-99h1c30 65 87 102 163 102z" />
    <glyph glyph-name="rcaron" unicode="&#x159;" horiz-adv-x="331" 
d="M219 573h-40l-117 139h42l95 -113l94 113h43zM288 511c9 0 21 -1 30 -3v-35c-8 1 -20 2 -29 2c-100 0 -165 -65 -165 -193v-282h-36v508h36v-99h1c30 65 87 102 163 102z" />
    <glyph glyph-name="rcommaaccent" unicode="&#x157;" horiz-adv-x="331" 
d="M288 511c9 0 21 -1 30 -3v-35c-8 1 -20 2 -29 2c-100 0 -165 -65 -165 -193v-282h-36v508h36v-99h1c30 65 87 102 163 102zM126 -146l-39 -98h-20l31 98h-13v72h41v-72z" />
    <glyph glyph-name="sacute" unicode="&#x15b;" horiz-adv-x="461" 
d="M205 573h-36l93 139h48zM221 519c113 0 180 -65 181 -174h-37c0 89 -53 141 -144 141c-76 0 -131 -39 -131 -102c0 -68 44 -82 138 -103c113 -25 189 -48 189 -150c0 -84 -73 -142 -178 -142c-124 0 -195 68 -196 184h36c0 -96 58 -151 160 -151c82 0 142 43 142 107
c0 75 -48 92 -163 118c-94 21 -164 41 -164 135c0 83 71 137 167 137z" />
    <glyph glyph-name="scaron" unicode="&#x161;" horiz-adv-x="461" 
d="M242 573h-40l-117 139h42l95 -113l94 113h43zM221 519c113 0 180 -65 181 -174h-37c0 89 -53 141 -144 141c-76 0 -131 -39 -131 -102c0 -68 44 -82 138 -103c113 -25 189 -48 189 -150c0 -84 -73 -142 -178 -142c-124 0 -195 68 -196 184h36c0 -96 58 -151 160 -151
c82 0 142 43 142 107c0 75 -48 92 -163 118c-94 21 -164 41 -164 135c0 83 71 137 167 137z" />
    <glyph glyph-name="scedilla" unicode="&#x15f;" horiz-adv-x="461" 
d="M417 131c0 -77 -61 -132 -153 -141l-37 -56c5 1 13 2 21 2c48 0 80 -26 80 -69c0 -44 -33 -78 -97 -78c-35 0 -66 10 -92 25l11 22c25 -14 51 -20 78 -20c43 0 67 19 67 50c0 30 -21 48 -61 48c-12 0 -23 -2 -32 -5l-13 14l45 66c-121 2 -190 70 -191 184h36
c0 -96 58 -151 160 -151c82 0 142 43 142 107c0 75 -48 92 -163 118c-94 21 -164 41 -164 135c0 83 71 137 167 137c113 0 180 -65 181 -174h-37c0 89 -53 141 -144 141c-76 0 -131 -39 -131 -102c0 -68 44 -82 138 -103c113 -25 189 -48 189 -150z" />
    <glyph glyph-name="scircumflex" unicode="&#x15d;" horiz-adv-x="461" 
d="M316 573l-94 113l-95 -113h-42l117 139h40l117 -139h-43zM221 519c113 0 180 -65 181 -174h-37c0 89 -53 141 -144 141c-76 0 -131 -39 -131 -102c0 -68 44 -82 138 -103c113 -25 189 -48 189 -150c0 -84 -73 -142 -178 -142c-124 0 -195 68 -196 184h36
c0 -96 58 -151 160 -151c82 0 142 43 142 107c0 75 -48 92 -163 118c-94 21 -164 41 -164 135c0 83 71 137 167 137z" />
    <glyph glyph-name="scommaaccent" unicode="&#x219;" horiz-adv-x="461" 
d="M221 519c113 0 180 -65 181 -174h-37c0 89 -53 141 -144 141c-76 0 -131 -39 -131 -102c0 -68 44 -82 138 -103c113 -25 189 -48 189 -150c0 -84 -73 -142 -178 -142c-124 0 -195 68 -196 184h36c0 -96 58 -151 160 -151c82 0 142 43 142 107c0 75 -48 92 -163 118
c-94 21 -164 41 -164 135c0 83 71 137 167 137zM254 -146l-39 -98h-20l31 98h-13v72h41v-72z" />
    <glyph glyph-name="germandbls" unicode="&#xdf;" horiz-adv-x="537" 
d="M275 723c111 0 183 -67 183 -167c0 -82 -42 -133 -119 -153v-1c86 -14 154 -77 154 -196c0 -133 -85 -212 -233 -212c-19 0 -38 2 -55 7v34c16 -5 35 -7 55 -7c124 0 196 66 196 178s-71 178 -180 178h-16v35c111 0 161 54 161 135c0 83 -56 136 -146 136
c-98 0 -151 -65 -151 -182v-508h-36v509c0 135 67 214 187 214z" />
    <glyph glyph-name="longs" unicode="&#x17f;" horiz-adv-x="267" 
d="M219 715c12 0 24 -1 33 -3v-33c-7 2 -18 4 -29 4c-52 0 -78 -29 -78 -98v-585h-36v476h-94v32h94v80c0 86 39 127 110 127z" />
    <glyph glyph-name="tbar" unicode="&#x167;" horiz-adv-x="282" 
d="M218 31c12 0 27 2 35 4v-33c-10 -2 -27 -4 -39 -4c-75 0 -106 36 -106 125v140h-92v30h92v183h-95v32h95v117h36v-117h104v-32h-104v-183h102v-30h-102v-140c0 -66 20 -92 74 -92z" />
    <glyph glyph-name="tcaron" unicode="&#x165;" horiz-adv-x="284" 
d="M219 537h-26l36 175h39zM144 476v-353c0 -66 20 -92 74 -92c12 0 27 2 35 4v-33c-10 -2 -27 -4 -39 -4c-75 0 -106 36 -106 125v353h-95v32h95v117h36v-117h104v-32h-104z" />
    <glyph glyph-name="tcedilla" unicode="&#x163;" horiz-adv-x="284" 
d="M218 31c12 0 27 2 35 4v-33c-10 -2 -27 -4 -39 -4c-75 0 -106 36 -106 125v353h-95v32h95v117h36v-117h104v-32h-104v-353c0 -66 20 -92 74 -92zM139 -74h41v-72l-39 -98h-20l31 98h-13v72z" />
    <glyph glyph-name="tcommaaccent" unicode="&#x21b;" horiz-adv-x="284" 
d="M218 31c12 0 27 2 35 4v-33c-10 -2 -27 -4 -39 -4c-75 0 -106 36 -106 125v353h-95v32h95v117h36v-117h104v-32h-104v-353c0 -66 20 -92 74 -92zM139 -74h41v-72l-39 -98h-20l31 98h-13v72z" />
    <glyph glyph-name="uacute" unicode="&#xfa;" 
d="M259 573h-36l93 139h48zM258 -10c-111 0 -176 69 -176 209v309h36v-308c0 -127 54 -178 144 -178c88 0 164 67 164 175v311h36v-508h-36v91h-2c-30 -63 -92 -101 -166 -101z" />
    <glyph glyph-name="ubreve" unicode="&#x16d;" 
d="M387 712h32c-8 -83 -59 -132 -144 -132s-136 49 -144 132h32c8 -66 47 -101 112 -101s104 35 112 101zM258 -10c-111 0 -176 69 -176 209v309h36v-308c0 -127 54 -178 144 -178c88 0 164 67 164 175v311h36v-508h-36v91h-2c-30 -63 -92 -101 -166 -101z" />
    <glyph glyph-name="ucircumflex" unicode="&#xfb;" 
d="M369 573l-94 113l-95 -113h-42l117 139h40l117 -139h-43zM258 -10c-111 0 -176 69 -176 209v309h36v-308c0 -127 54 -178 144 -178c88 0 164 67 164 175v311h36v-508h-36v91h-2c-30 -63 -92 -101 -166 -101z" />
    <glyph glyph-name="udieresis" unicode="&#xfc;" 
d="M201 631h-36v81h36v-81zM384 631h-36v81h36v-81zM258 -10c-111 0 -176 69 -176 209v309h36v-308c0 -127 54 -178 144 -178c88 0 164 67 164 175v311h36v-508h-36v91h-2c-30 -63 -92 -101 -166 -101z" />
    <glyph glyph-name="ugrave" unicode="&#xf9;" 
d="M235 712l92 -139h-36l-105 139h49zM258 -10c-111 0 -176 69 -176 209v309h36v-308c0 -127 54 -178 144 -178c88 0 164 67 164 175v311h36v-508h-36v91h-2c-30 -63 -92 -101 -166 -101z" />
    <glyph glyph-name="uhungarumlaut" unicode="&#x171;" 
d="M210 573h-36l117 139h49zM330 573h-36l117 139h48zM258 -10c-111 0 -176 69 -176 209v309h36v-308c0 -127 54 -178 144 -178c88 0 164 67 164 175v311h36v-508h-36v91h-2c-30 -63 -92 -101 -166 -101z" />
    <glyph glyph-name="umacron" unicode="&#x16b;" 
d="M396 637h-242v32h242v-32zM258 -10c-111 0 -176 69 -176 209v309h36v-308c0 -127 54 -178 144 -178c88 0 164 67 164 175v311h36v-508h-36v91h-2c-30 -63 -92 -101 -166 -101z" />
    <glyph glyph-name="uogonek" unicode="&#x173;" 
d="M429 -161c13 0 26 2 36 6v-29c-10 -4 -23 -6 -39 -6c-56 0 -81 27 -81 70c0 44 24 77 81 123v88h-2c-30 -63 -92 -101 -166 -101c-111 0 -176 69 -176 209v309h36v-308c0 -127 54 -178 144 -178c88 0 164 67 164 175v311h36v-508c-63 -50 -82 -81 -82 -117
c0 -28 16 -44 49 -44z" />
    <glyph glyph-name="uring" unicode="&#x16f;" 
d="M275 762c49 0 90 -40 90 -90s-41 -90 -90 -90c-50 0 -90 40 -90 90s40 90 90 90zM275 736c-36 0 -64 -28 -64 -64s28 -64 64 -64s64 28 64 64s-28 64 -64 64zM258 -10c-111 0 -176 69 -176 209v309h36v-308c0 -127 54 -178 144 -178c88 0 164 67 164 175v311h36v-508h-36
v91h-2c-30 -63 -92 -101 -166 -101z" />
    <glyph glyph-name="utilde" unicode="&#x169;" 
d="M398 702h31c-4 -60 -35 -92 -80 -92c-60 0 -97 60 -147 60c-29 0 -46 -21 -49 -60h-31c4 60 35 92 80 92c60 0 97 -60 146 -60c29 0 47 21 50 60zM258 -10c-111 0 -176 69 -176 209v309h36v-308c0 -127 54 -178 144 -178c88 0 164 67 164 175v311h36v-508h-36v91h-2
c-30 -63 -92 -101 -166 -101z" />
    <glyph glyph-name="wacute" unicode="&#x1e83;" horiz-adv-x="744" 
d="M356 573h-36l93 139h48zM575 0h-52l-79 248l-71 226h-2l-71 -226l-79 -248h-52l-160 508h37l74 -235l74 -238h2c25 78 50 158 75 237l73 236h56l73 -236c25 -79 50 -159 75 -237h2l74 238l74 235h37z" />
    <glyph glyph-name="wcircumflex" unicode="&#x175;" horiz-adv-x="744" 
d="M466 573l-94 113l-95 -113h-42l117 139h40l117 -139h-43zM575 0h-52l-79 248l-71 226h-2l-71 -226l-79 -248h-52l-160 508h37l74 -235l74 -238h2c25 78 50 158 75 237l73 236h56l73 -236c25 -79 50 -159 75 -237h2l74 238l74 235h37z" />
    <glyph glyph-name="wdieresis" unicode="&#x1e85;" horiz-adv-x="744" 
d="M298 631h-36v81h36v-81zM481 631h-36v81h36v-81zM575 0h-52l-79 248l-71 226h-2l-71 -226l-79 -248h-52l-160 508h37l74 -235l74 -238h2c25 78 50 158 75 237l73 236h56l73 -236c25 -79 50 -159 75 -237h2l74 238l74 235h37z" />
    <glyph glyph-name="wgrave" unicode="&#x1e81;" horiz-adv-x="744" 
d="M332 712l92 -139h-36l-105 139h49zM575 0h-52l-79 248l-71 226h-2l-71 -226l-79 -248h-52l-160 508h37l74 -235l74 -238h2c25 78 50 158 75 237l73 236h56l73 -236c25 -79 50 -159 75 -237h2l74 238l74 235h37z" />
    <glyph glyph-name="yacute" unicode="&#xfd;" horiz-adv-x="442" 
d="M205 573h-36l93 139h48zM443 508l-211 -523c-57 -141 -99 -174 -183 -174c-15 0 -27 2 -38 6v33c11 -4 23 -6 38 -6c69 0 99 26 151 155l-201 509h39l180 -461h1l185 461h39z" />
    <glyph glyph-name="ycircumflex" unicode="&#x177;" horiz-adv-x="442" 
d="M316 573l-94 113l-95 -113h-42l117 139h40l117 -139h-43zM443 508l-211 -523c-57 -141 -99 -174 -183 -174c-15 0 -27 2 -38 6v33c11 -4 23 -6 38 -6c69 0 99 26 151 155l-201 509h39l180 -461h1l185 461h39z" />
    <glyph glyph-name="ydieresis" unicode="&#xff;" horiz-adv-x="442" 
d="M148 631h-36v81h36v-81zM331 631h-36v81h36v-81zM443 508l-211 -523c-57 -141 -99 -174 -183 -174c-15 0 -27 2 -38 6v33c11 -4 23 -6 38 -6c69 0 99 26 151 155l-201 509h39l180 -461h1l185 461h39z" />
    <glyph glyph-name="ygrave" unicode="&#x1ef3;" horiz-adv-x="442" 
d="M181 712l92 -139h-36l-105 139h49zM443 508l-211 -523c-57 -141 -99 -174 -183 -174c-15 0 -27 2 -38 6v33c11 -4 23 -6 38 -6c69 0 99 26 151 155l-201 509h39l180 -461h1l185 461h39z" />
    <glyph glyph-name="zacute" unicode="&#x17a;" horiz-adv-x="450" 
d="M205 573h-36l93 139h48zM418 469l-353 -434v-2h363v-33h-406v39l353 434v2h-343v33h386v-39z" />
    <glyph glyph-name="zcaron" unicode="&#x17e;" horiz-adv-x="450" 
d="M241 573h-40l-117 139h42l95 -113l94 113h43zM418 469l-353 -434v-2h363v-33h-406v39l353 434v2h-343v33h386v-39z" />
    <glyph glyph-name="zdotaccent" unicode="&#x17c;" horiz-adv-x="450" 
d="M238 631h-36v81h36v-81zM418 469l-353 -434v-2h363v-33h-406v39l353 434v2h-343v33h386v-39z" />
    <glyph glyph-name="j.acute.loclNLD" horiz-adv-x="220" 
d="M99 573h-36l93 139h48zM133 508v-552c0 -108 -47 -144 -120 -144c-9 0 -18 1 -25 3v33c7 -1 15 -2 23 -2c54 0 86 25 86 110v552h36z" />
    <glyph glyph-name="ccedilla.ss01" horiz-adv-x="505" 
d="M266 519c110 0 188 -72 197 -179h-38c-7 86 -70 146 -159 146c-113 0 -182 -87 -182 -232c0 -146 69 -232 182 -232c89 0 151 64 159 151h38c-9 -108 -86 -184 -197 -184c-136 0 -219 100 -219 265s83 265 219 265zM191 -207h-49l125 158h36z" />
    <glyph glyph-name="scedilla.ss01" horiz-adv-x="461" 
d="M221 519c113 0 180 -65 181 -174h-37c0 89 -53 141 -144 141c-76 0 -131 -39 -131 -102c0 -68 44 -82 138 -103c113 -25 189 -48 189 -150c0 -84 -73 -142 -178 -142c-124 0 -195 68 -196 184h36c0 -96 58 -151 160 -151c82 0 142 43 142 107c0 75 -48 92 -163 118
c-94 21 -164 41 -164 135c0 83 71 137 167 137zM159 -207h-49l125 158h36z" />
    <glyph glyph-name="tcedilla.ss01" horiz-adv-x="284" 
d="M218 31c12 0 27 2 35 4v-33c-10 -2 -27 -4 -39 -4c-75 0 -106 36 -106 125v353h-95v32h95v117h36v-117h104v-32h-104v-353c0 -66 20 -92 74 -92zM161 -49h36l-112 -158h-49z" />
    <glyph glyph-name="a.sups" horiz-adv-x="369" 
d="M181 694c78 0 131 -41 131 -134v-146c0 -33 3 -64 8 -84h-30c-3 18 -6 44 -6 64h-1c-24 -44 -68 -71 -133 -71c-73 0 -122 41 -122 101c0 57 34 92 135 107c34 5 82 11 118 14v18c0 73 -42 103 -100 103c-67 0 -100 -37 -104 -87h-33c4 67 52 115 137 115zM281 483v34
c-34 -3 -82 -9 -114 -14c-78 -12 -104 -35 -104 -78c0 -45 35 -74 93 -74c38 0 70 13 90 34c26 27 35 47 35 98z" />
    <glyph glyph-name="b.sups" horiz-adv-x="400" 
d="M94 616h1c19 47 63 78 119 78c95 0 154 -72 154 -186s-59 -185 -154 -185c-56 0 -100 31 -119 78h-1v-71h-32v498h32v-212zM210 666c-72 0 -118 -61 -118 -158c0 -96 46 -157 118 -157c77 0 125 61 125 157c0 97 -48 158 -125 158z" />
    <glyph glyph-name="c.sups" horiz-adv-x="367" 
d="M193 694c85 0 138 -58 144 -128h-33c-5 52 -47 98 -111 98c-79 0 -126 -59 -126 -156c0 -98 47 -156 126 -156c62 0 106 44 111 101h33c-6 -76 -62 -131 -144 -131c-99 0 -160 70 -160 186c0 115 61 186 160 186z" />
    <glyph glyph-name="d.sups" horiz-adv-x="401" 
d="M339 828v-498h-32v71h-1c-19 -47 -63 -78 -120 -78c-94 0 -153 71 -153 185s59 186 153 186c57 0 101 -31 120 -78h1v212h32zM190 666c-76 0 -124 -61 -124 -158c0 -96 48 -157 124 -157c73 0 119 61 119 157c0 97 -46 158 -119 158z" />
    <glyph glyph-name="e.sups" horiz-adv-x="381" 
d="M196 351c64 0 106 34 116 84h33c-10 -63 -62 -113 -149 -113c-101 0 -163 75 -163 193c0 106 60 179 159 179c81 0 137 -49 152 -128c4 -18 5 -40 5 -63h-283c2 -99 55 -152 130 -152zM192 665c-75 0 -123 -52 -126 -135h252c-4 87 -55 135 -126 135z" />
    <glyph glyph-name="egrave.sups" horiz-adv-x="381" 
d="M198 732l-85 96h47l72 -96h-34zM196 351c64 0 106 34 116 84h33c-10 -63 -62 -113 -149 -113c-101 0 -163 75 -163 193c0 106 60 179 159 179c81 0 137 -49 152 -128c4 -18 5 -40 5 -63h-283c2 -99 55 -152 130 -152zM192 665c-75 0 -123 -52 -126 -135h252
c-4 87 -55 135 -126 135z" />
    <glyph glyph-name="f.sups" horiz-adv-x="197" 
d="M164 802c-36 0 -54 -19 -54 -66v-50h76v-29h-76v-327h-32v327h-67v29h67v53c0 62 29 92 83 92c9 0 19 -1 26 -3v-29c-7 2 -14 3 -23 3z" />
    <glyph glyph-name="g.sups" horiz-adv-x="401" 
d="M188 694c53 0 95 -27 118 -76h2v68h32v-334c0 -102 -52 -156 -152 -156c-86 0 -140 42 -140 112h32c1 -54 43 -84 108 -84c82 0 120 42 120 129v58h-2c-23 -48 -65 -75 -118 -75c-95 0 -155 70 -155 179s60 179 155 179zM188 666c-75 0 -122 -59 -122 -151
s47 -150 122 -150c76 0 121 56 121 150s-45 151 -121 151z" />
    <glyph glyph-name="h.sups" horiz-adv-x="397" 
d="M94 627h1c24 44 70 66 117 66c82 0 128 -49 128 -147v-216h-32v215c0 87 -37 119 -101 119c-60 0 -113 -44 -113 -119v-215h-32v498h32v-201z" />
    <glyph glyph-name="i.sups" horiz-adv-x="155" 
d="M94 770h-32v58h32v-58zM94 330h-32v356h32v-356z" />
    <glyph glyph-name="j.sups" horiz-adv-x="163" 
d="M101 770h-32v58h32v-58zM101 686v-390c0 -73 -35 -98 -89 -98c-6 0 -14 1 -20 3v29c6 -1 13 -2 18 -2c38 0 59 16 59 68v390h32z" />
    <glyph glyph-name="k.sups" horiz-adv-x="334" 
d="M338 330h-46l-197 186h-1v-186h-32v498h32v-295h1l176 153h46l-187 -161z" />
    <glyph glyph-name="l.sups" horiz-adv-x="155" 
d="M94 330h-32v498h32v-498z" />
    <glyph glyph-name="m.sups" horiz-adv-x="598" 
d="M423 693c76 0 118 -47 118 -141v-222h-32v220c0 83 -33 114 -90 114c-61 0 -102 -47 -102 -116v-218h-32v232c0 64 -33 102 -89 102c-61 0 -102 -48 -102 -124v-210h-32v356h32v-57h1c22 39 56 64 104 64c52 0 94 -28 109 -76c21 47 61 76 115 76z" />
    <glyph glyph-name="n.sups" horiz-adv-x="397" 
d="M212 693c82 0 128 -49 128 -147v-216h-32v215c0 87 -37 119 -101 119c-60 0 -113 -44 -113 -119v-215h-32v356h32v-59h1c22 40 66 66 117 66z" />
    <glyph glyph-name="o.sups" horiz-adv-x="392" 
d="M196 694c101 0 163 -71 163 -186c0 -116 -62 -186 -163 -186c-100 0 -163 70 -163 186c0 115 63 186 163 186zM196 665c-80 0 -129 -59 -129 -157s49 -157 129 -157c82 0 130 59 130 157s-48 157 -130 157z" />
    <glyph glyph-name="p.sups" horiz-adv-x="400" 
d="M214 694c95 0 154 -72 154 -186s-59 -185 -154 -185c-56 0 -100 31 -119 78h-1v-200h-32v485h32v-70h1c19 47 63 78 119 78zM210 666c-72 0 -118 -61 -118 -158c0 -96 46 -157 118 -157c77 0 125 61 125 157c0 97 -48 158 -125 158z" />
    <glyph glyph-name="q.sups" horiz-adv-x="401" 
d="M186 694c57 0 101 -31 120 -78h1v70h32v-485h-32v200h-1c-19 -47 -63 -78 -120 -78c-94 0 -153 71 -153 185s59 186 153 186zM190 666c-76 0 -124 -61 -124 -158c0 -96 48 -157 124 -157c73 0 119 61 119 157c0 97 -46 158 -119 158z" />
    <glyph glyph-name="r.sups" horiz-adv-x="242" 
d="M210 688c7 0 16 -1 23 -2v-32c-6 1 -15 2 -22 2c-73 0 -117 -46 -117 -133v-193h-32v356h32v-67h1c23 45 63 69 115 69z" />
    <glyph glyph-name="s.sups" horiz-adv-x="336" 
d="M161 694c83 0 132 -45 133 -122h-33c0 59 -36 93 -100 93c-53 0 -90 -26 -90 -66c0 -47 31 -54 97 -69c76 -16 137 -32 137 -107c0 -61 -53 -101 -131 -101c-90 0 -143 47 -144 128h33c0 -63 40 -99 111 -99c57 0 99 28 99 70c0 50 -33 61 -115 79
c-65 14 -119 27 -119 97c0 58 51 97 122 97z" />
    <glyph glyph-name="t.sups" horiz-adv-x="208" 
d="M162 357c9 0 19 2 25 3v-29c-8 -2 -20 -3 -29 -3c-57 0 -82 27 -82 91v238h-67v29h67v82h32v-82h75v-29h-75v-238c0 -44 15 -62 54 -62z" />
    <glyph glyph-name="u.sups" horiz-adv-x="397" 
d="M185 323c-82 0 -128 49 -128 147v216h32v-215c0 -87 37 -119 101 -119c61 0 114 44 114 119v215h32v-356h-32v59h-2c-21 -40 -65 -66 -117 -66z" />
    <glyph glyph-name="v.sups" horiz-adv-x="320" 
d="M182 330h-43l-140 356h35l61 -158c22 -56 43 -109 64 -165h2c21 56 43 109 64 165l62 158h34z" />
    <glyph glyph-name="w.sups" horiz-adv-x="536" 
d="M418 330h-46l-53 167l-50 158h-2l-50 -158l-52 -167h-47l-111 356h33l50 -160l51 -165h2c16 53 34 109 50 162l51 163h49l50 -163c17 -53 34 -109 51 -162h1l52 165l50 160h33z" />
    <glyph glyph-name="x.sups" horiz-adv-x="330" 
d="M185 516l144 -186h-40l-123 161h-2l-122 -161h-40l144 186l-131 170h39l110 -147h2l110 147h40z" />
    <glyph glyph-name="y.sups" horiz-adv-x="323" 
d="M324 686l-152 -369c-40 -96 -70 -119 -135 -119c-10 0 -18 1 -26 3v30c8 -3 17 -4 26 -4c52 0 72 18 107 102l-145 357h35l126 -315h2l128 315h34z" />
    <glyph glyph-name="z.sups" horiz-adv-x="325" 
d="M302 654l-247 -293v-2h254v-29h-293v32l247 293v2h-240v29h279v-32z" />
    <glyph glyph-name="ff" unicode="&#xfb00;" horiz-adv-x="501" 
d="M457 683c-52 0 -78 -29 -78 -98v-77h105v-32h-105v-476h-36v476h-198v-476h-36v476h-94v32h94v80c0 86 39 127 110 127c12 0 24 -1 33 -3v-33c-7 2 -18 4 -29 4c-52 0 -78 -29 -78 -98v-77h198v80c0 86 39 127 110 127c11 0 24 -1 33 -3v-33c-7 2 -19 4 -29 4z" />
    <glyph glyph-name="ffi" unicode="&#xfb03;" horiz-adv-x="712" 
d="M343 508v80c0 86 39 127 110 127c11 0 24 -1 33 -3v-33c-7 2 -19 4 -29 4c-52 0 -78 -29 -78 -98v-77h105v-32h-105v-476h-36v476h-198v-476h-36v476h-94v32h94v80c0 86 39 127 110 127c12 0 24 -1 33 -3v-33c-7 2 -18 4 -29 4c-52 0 -78 -29 -78 -98v-77h198zM625 712
v-81h-36v81h36zM589 508h36v-508h-36v508z" />
    <glyph glyph-name="ffl" unicode="&#xfb04;" horiz-adv-x="712" 
d="M343 508v80c0 86 39 127 110 127c11 0 24 -1 33 -3v-33c-7 2 -19 4 -29 4c-52 0 -78 -29 -78 -98v-77h105v-32h-105v-476h-36v476h-198v-476h-36v476h-94v32h94v80c0 86 39 127 110 127c12 0 24 -1 33 -3v-33c-7 2 -18 4 -29 4c-52 0 -78 -29 -78 -98v-77h198zM625 712
v-712h-36v712h36z" />
    <glyph glyph-name="fi" unicode="&#xfb01;" horiz-adv-x="478" 
d="M109 508v80c0 86 39 127 110 127c12 0 24 -1 33 -3v-33c-7 2 -18 4 -29 4c-52 0 -78 -29 -78 -98v-77h106v-32h-106v-476h-36v476h-94v32h94zM391 712v-81h-36v81h36zM355 508h36v-508h-36v508z" />
    <glyph glyph-name="fl" unicode="&#xfb02;" horiz-adv-x="478" 
d="M109 508v80c0 86 39 127 110 127c12 0 24 -1 33 -3v-33c-7 2 -18 4 -29 4c-52 0 -78 -29 -78 -98v-77h106v-32h-106v-476h-36v476h-94v32h94zM391 712v-712h-36v712h36z" />
    <glyph glyph-name="a.smcp" horiz-adv-x="537" 
d="M411 186h-285l-80 -186h-40l237 548h51l237 -548h-40zM396 221l-27 63c-35 79 -66 153 -100 232h-1c-34 -79 -65 -153 -100 -232l-27 -63h255z" />
    <glyph glyph-name="aacute.smcp" horiz-adv-x="537" 
d="M253 613h-36l93 139h48zM411 186h-285l-80 -186h-40l237 548h51l237 -548h-40zM396 221l-27 63c-35 79 -66 153 -100 232h-1c-34 -79 -65 -153 -100 -232l-27 -63h255z" />
    <glyph glyph-name="abreve.smcp" horiz-adv-x="537" 
d="M269 620c-85 0 -136 49 -144 132h32c8 -66 47 -101 112 -101s104 35 112 101h32c-8 -83 -59 -132 -144 -132zM411 186h-285l-80 -186h-40l237 548h51l237 -548h-40zM396 221l-27 63c-35 79 -66 153 -100 232h-1c-34 -79 -65 -153 -100 -232l-27 -63h255z" />
    <glyph glyph-name="acircumflex.smcp" horiz-adv-x="537" 
d="M174 613h-42l117 139h40l117 -139h-43l-94 113zM411 186h-285l-80 -186h-40l237 548h51l237 -548h-40zM396 221l-27 63c-35 79 -66 153 -100 232h-1c-34 -79 -65 -153 -100 -232l-27 -63h255z" />
    <glyph glyph-name="adieresis.smcp" horiz-adv-x="537" 
d="M195 671h-36v81h36v-81zM378 671h-36v81h36v-81zM411 186h-285l-80 -186h-40l237 548h51l237 -548h-40zM396 221l-27 63c-35 79 -66 153 -100 232h-1c-34 -79 -65 -153 -100 -232l-27 -63h255z" />
    <glyph glyph-name="agrave.smcp" horiz-adv-x="537" 
d="M285 613l-105 139h49l92 -139h-36zM411 186h-285l-80 -186h-40l237 548h51l237 -548h-40zM396 221l-27 63c-35 79 -66 153 -100 232h-1c-34 -79 -65 -153 -100 -232l-27 -63h255z" />
    <glyph glyph-name="amacron.smcp" horiz-adv-x="537" 
d="M390 677h-242v32h242v-32zM411 186h-285l-80 -186h-40l237 548h51l237 -548h-40zM396 221l-27 63c-35 79 -66 153 -100 232h-1c-34 -79 -65 -153 -100 -232l-27 -63h255z" />
    <glyph glyph-name="aogonek.smcp" horiz-adv-x="537" 
d="M498 -161c13 0 26 2 36 6v-29c-10 -4 -23 -6 -39 -6c-56 0 -81 27 -81 70s23 76 77 120l-80 186h-285l-80 -186h-40l237 548h51l237 -548c-63 -50 -82 -81 -82 -117c0 -28 16 -44 49 -44zM396 221l-27 63c-35 79 -66 153 -100 232h-1c-34 -79 -65 -153 -100 -232l-27 -63
h255z" />
    <glyph glyph-name="aring.smcp" horiz-adv-x="537" 
d="M269 622c-50 0 -90 40 -90 90s40 90 90 90c49 0 90 -40 90 -90s-41 -90 -90 -90zM269 776c-36 0 -64 -28 -64 -64s28 -64 64 -64s64 28 64 64s-28 64 -64 64zM411 186h-285l-80 -186h-40l237 548h51l237 -548h-40zM396 221l-27 63c-35 79 -66 153 -100 232h-1
c-34 -79 -65 -153 -100 -232l-27 -63h255z" />
    <glyph glyph-name="atilde.smcp" horiz-adv-x="537" 
d="M196 710c-29 0 -46 -21 -49 -60h-31c4 60 35 92 80 92c60 0 97 -60 146 -60c29 0 47 21 50 60h31c-4 -60 -35 -92 -80 -92c-60 0 -97 60 -147 60zM411 186h-285l-80 -186h-40l237 548h51l237 -548h-40zM396 221l-27 63c-35 79 -66 153 -100 232h-1
c-34 -79 -65 -153 -100 -232l-27 -63h255z" />
    <glyph glyph-name="ae.smcp" horiz-adv-x="761" 
d="M704 35v-35h-284l-33 199h-240l-110 -199h-42l301 548h398v-35h-321l36 -214h270v-35h-265l39 -229h251zM381 234l-46 279h-15l-154 -279h215z" />
    <glyph glyph-name="b.smcp" horiz-adv-x="520" 
d="M93 548h173c125 0 184 -56 184 -138c0 -65 -40 -112 -107 -128v-1c71 -13 119 -62 119 -132c0 -91 -66 -149 -182 -149h-187v548zM130 514v-217h131c109 0 151 47 151 109c0 67 -45 108 -149 108h-133zM130 263v-229h146c97 0 147 42 147 115c0 68 -47 114 -162 114h-131
z" />
    <glyph glyph-name="c.smcp" horiz-adv-x="564" 
d="M289 559c136 0 215 -83 222 -190h-39c-8 91 -76 154 -183 154c-129 0 -209 -95 -209 -249s79 -249 206 -249c105 0 177 63 189 157h39c-12 -115 -96 -193 -228 -193c-151 0 -244 109 -244 285s95 285 247 285z" />
    <glyph glyph-name="cacute.smcp" horiz-adv-x="564" 
d="M274 613h-36l93 139h48zM289 559c136 0 215 -83 222 -190h-39c-8 91 -76 154 -183 154c-129 0 -209 -95 -209 -249s79 -249 206 -249c105 0 177 63 189 157h39c-12 -115 -96 -193 -228 -193c-151 0 -244 109 -244 285s95 285 247 285z" />
    <glyph glyph-name="ccaron.smcp" horiz-adv-x="564" 
d="M310 613h-40l-117 139h42l95 -113l94 113h43zM289 559c136 0 215 -83 222 -190h-39c-8 91 -76 154 -183 154c-129 0 -209 -95 -209 -249s79 -249 206 -249c105 0 177 63 189 157h39c-12 -115 -96 -193 -228 -193c-151 0 -244 109 -244 285s95 285 247 285z" />
    <glyph glyph-name="ccedilla.smcp" horiz-adv-x="564" 
d="M475 182h39c-11 -106 -83 -180 -197 -192l-38 -56c5 1 13 2 21 2c48 0 80 -26 80 -69c0 -44 -33 -78 -97 -78c-35 0 -66 10 -92 25l11 22c25 -14 51 -20 78 -20c43 0 67 19 67 50c0 30 -21 48 -61 48c-12 0 -23 -2 -32 -5l-13 14l45 66c-151 0 -244 109 -244 285
s95 285 247 285c136 0 215 -83 222 -190h-39c-8 91 -76 154 -183 154c-129 0 -209 -95 -209 -249s79 -249 206 -249c105 0 177 63 189 157z" />
    <glyph glyph-name="ccircumflex.smcp" horiz-adv-x="564" 
d="M384 613l-94 113l-95 -113h-42l117 139h40l117 -139h-43zM289 559c136 0 215 -83 222 -190h-39c-8 91 -76 154 -183 154c-129 0 -209 -95 -209 -249s79 -249 206 -249c105 0 177 63 189 157h39c-12 -115 -96 -193 -228 -193c-151 0 -244 109 -244 285s95 285 247 285z
" />
    <glyph glyph-name="cdotaccent.smcp" horiz-adv-x="564" 
d="M307 671h-36v81h36v-81zM289 559c136 0 215 -83 222 -190h-39c-8 91 -76 154 -183 154c-129 0 -209 -95 -209 -249s79 -249 206 -249c105 0 177 63 189 157h39c-12 -115 -96 -193 -228 -193c-151 0 -244 109 -244 285s95 285 247 285z" />
    <glyph glyph-name="d.smcp" horiz-adv-x="598" 
d="M93 548h165c191 0 298 -99 298 -274s-107 -274 -298 -274h-165v548zM130 513v-478h128c167 0 259 85 259 239s-92 239 -259 239h-128z" />
    <glyph glyph-name="eth.smcp" horiz-adv-x="599" 
d="M94 548h165c191 0 298 -99 298 -274s-107 -274 -298 -274h-165v261h-61v33h61v254zM131 35h128c167 0 259 85 259 239s-92 239 -259 239h-128v-219h184v-33h-184v-226z" />
    <glyph glyph-name="dcaron.smcp" horiz-adv-x="598" 
d="M294 613h-40l-117 139h42l95 -113l94 113h43zM93 548h165c191 0 298 -99 298 -274s-107 -274 -298 -274h-165v548zM130 513v-478h128c167 0 259 85 259 239s-92 239 -259 239h-128z" />
    <glyph glyph-name="dcroat.smcp" horiz-adv-x="599" 
d="M94 548h165c191 0 298 -99 298 -274s-107 -274 -298 -274h-165v261h-61v33h61v254zM131 35h128c167 0 259 85 259 239s-92 239 -259 239h-128v-219h184v-33h-184v-226z" />
    <glyph glyph-name="e.smcp" horiz-adv-x="507" 
d="M446 513h-315v-214h300v-35h-300v-229h325v-35h-362v548h352v-35z" />
    <glyph glyph-name="eacute.smcp" horiz-adv-x="507" 
d="M254 613h-36l93 139h48zM446 513h-315v-214h300v-35h-300v-229h325v-35h-362v548h352v-35z" />
    <glyph glyph-name="ebreve.smcp" horiz-adv-x="507" 
d="M382 752h32c-8 -83 -59 -132 -144 -132s-136 49 -144 132h32c8 -66 47 -101 112 -101s104 35 112 101zM446 513h-315v-214h300v-35h-300v-229h325v-35h-362v548h352v-35z" />
    <glyph glyph-name="ecaron.smcp" horiz-adv-x="507" 
d="M290 613h-40l-117 139h42l95 -113l94 113h43zM446 513h-315v-214h300v-35h-300v-229h325v-35h-362v548h352v-35z" />
    <glyph glyph-name="ecircumflex.smcp" horiz-adv-x="507" 
d="M364 613l-94 113l-95 -113h-42l117 139h40l117 -139h-43zM446 513h-315v-214h300v-35h-300v-229h325v-35h-362v548h352v-35z" />
    <glyph glyph-name="edieresis.smcp" horiz-adv-x="507" 
d="M196 671h-36v81h36v-81zM379 671h-36v81h36v-81zM446 513h-315v-214h300v-35h-300v-229h325v-35h-362v548h352v-35z" />
    <glyph glyph-name="edotaccent.smcp" horiz-adv-x="507" 
d="M288 671h-36v81h36v-81zM446 513h-315v-214h300v-35h-300v-229h325v-35h-362v548h352v-35z" />
    <glyph glyph-name="egrave.smcp" horiz-adv-x="507" 
d="M230 752l92 -139h-36l-105 139h49zM446 513h-315v-214h300v-35h-300v-229h325v-35h-362v548h352v-35z" />
    <glyph glyph-name="emacron.smcp" horiz-adv-x="507" 
d="M391 677h-242v32h242v-32zM446 513h-315v-214h300v-35h-300v-229h325v-35h-362v548h352v-35z" />
    <glyph glyph-name="eogonek.smcp" horiz-adv-x="507" 
d="M423 -161c13 0 26 2 36 6v-29c-10 -4 -23 -6 -39 -6c-56 0 -81 27 -81 70s23 76 77 120h-322v548h352v-35h-315v-214h300v-35h-300v-229h325v-35c-63 -50 -82 -81 -82 -117c0 -28 16 -44 49 -44z" />
    <glyph glyph-name="f.smcp" horiz-adv-x="469" 
d="M437 513h-307v-219h290v-35h-290v-259h-37v548h344v-35z" />
    <glyph glyph-name="fi.smcp" horiz-adv-x="693" 
d="M437 513h-307v-219h290v-35h-290v-259h-37v548h344v-35zM600 0h-37v548h37v-548z" />
    <glyph glyph-name="fl.smcp" horiz-adv-x="924" 
d="M437 513h-307v-219h290v-35h-290v-259h-37v548h344v-35zM600 35h317v-35h-354v548h37v-513z" />
    <glyph glyph-name="g.smcp" horiz-adv-x="596" 
d="M296 559c127 0 211 -67 221 -169h-39c-13 83 -78 133 -182 133c-133 0 -216 -95 -216 -251c0 -153 80 -245 207 -245c104 0 195 56 195 220h-181v35h217v-282h-36v111h-1c-27 -73 -102 -120 -197 -120c-149 0 -242 107 -242 281c0 178 97 287 254 287z" />
    <glyph glyph-name="gbreve.smcp" horiz-adv-x="596" 
d="M402 752h32c-8 -83 -59 -132 -144 -132s-136 49 -144 132h32c8 -66 47 -101 112 -101s104 35 112 101zM296 559c127 0 211 -67 221 -169h-39c-13 83 -78 133 -182 133c-133 0 -216 -95 -216 -251c0 -153 80 -245 207 -245c104 0 195 56 195 220h-181v35h217v-282h-36v111
h-1c-27 -73 -102 -120 -197 -120c-149 0 -242 107 -242 281c0 178 97 287 254 287z" />
    <glyph glyph-name="gcircumflex.smcp" horiz-adv-x="596" 
d="M384 613l-94 113l-95 -113h-42l117 139h40l117 -139h-43zM296 559c127 0 211 -67 221 -169h-39c-13 83 -78 133 -182 133c-133 0 -216 -95 -216 -251c0 -153 80 -245 207 -245c104 0 195 56 195 220h-181v35h217v-282h-36v111h-1c-27 -73 -102 -120 -197 -120
c-149 0 -242 107 -242 281c0 178 97 287 254 287z" />
    <glyph glyph-name="gcommaaccent.smcp" horiz-adv-x="596" 
d="M296 559c127 0 211 -67 221 -169h-39c-13 83 -78 133 -182 133c-133 0 -216 -95 -216 -251c0 -153 80 -245 207 -245c104 0 195 56 195 220h-181v35h217v-282h-36v111h-1c-27 -73 -102 -120 -197 -120c-149 0 -242 107 -242 281c0 178 97 287 254 287zM312 -146l-39 -98
h-20l31 98h-13v72h41v-72z" />
    <glyph glyph-name="gdotaccent.smcp" horiz-adv-x="596" 
d="M308 671h-36v81h36v-81zM296 559c127 0 211 -67 221 -169h-39c-13 83 -78 133 -182 133c-133 0 -216 -95 -216 -251c0 -153 80 -245 207 -245c104 0 195 56 195 220h-181v35h217v-282h-36v111h-1c-27 -73 -102 -120 -197 -120c-149 0 -242 107 -242 281
c0 178 97 287 254 287z" />
    <glyph glyph-name="h.smcp" horiz-adv-x="610" 
d="M517 0h-38v267h-348v-267h-37v548h37v-246h348v246h38v-548z" />
    <glyph glyph-name="hbar.smcp" horiz-adv-x="610" 
d="M565 448h-48v-448h-38v267h-348v-267h-37v448h-50v33h50v67h37v-67h348v67h38v-67h48v-33zM479 448h-348v-146h348v146z" />
    <glyph glyph-name="hcircumflex.smcp" horiz-adv-x="610" 
d="M400 613l-94 113l-95 -113h-42l117 139h40l117 -139h-43zM517 0h-38v267h-348v-267h-37v548h37v-246h348v246h38v-548z" />
    <glyph glyph-name="i.smcp" horiz-adv-x="224" 
d="M131 0h-37v548h37v-548z" />
    <glyph glyph-name="iacute.smcp" horiz-adv-x="224" 
d="M96 613h-36l93 139h48zM131 0h-37v548h37v-548z" />
    <glyph glyph-name="ibreve.smcp" horiz-adv-x="224" 
d="M203 752h32c-5 -83 -48 -132 -123 -132c-74 0 -117 49 -122 132h32c5 -66 36 -101 90 -101c55 0 86 35 91 101zM131 0h-37v548h37v-548z" />
    <glyph glyph-name="icircumflex.smcp" horiz-adv-x="224" 
d="M230 614h-41l-77 112l-77 -112h-42l97 138h43zM131 0h-37v548h37v-548z" />
    <glyph glyph-name="idieresis.smcp" horiz-adv-x="224" 
d="M59 675h-36v77h36v-77zM202 675h-36v77h36v-77zM131 0h-37v548h37v-548z" />
    <glyph glyph-name="idotaccent.smcp" horiz-adv-x="224" 
d="M130 671h-36v81h36v-81zM131 0h-37v548h37v-548z" />
    <glyph glyph-name="igrave.smcp" horiz-adv-x="224" 
d="M72 752l92 -139h-36l-105 139h49zM131 0h-37v548h37v-548z" />
    <glyph glyph-name="ij.smcp" horiz-adv-x="500" 
d="M131 0h-37v548h37v-548zM411 548v-405c0 -97 -52 -146 -140 -146c-12 0 -25 1 -33 4v35c10 -2 21 -3 32 -3c67 0 104 35 104 110v405h37z" />
    <glyph glyph-name="imacron.smcp" horiz-adv-x="224" 
d="M218 677h-212v32h212v-32zM131 0h-37v548h37v-548z" />
    <glyph glyph-name="iogonek.smcp" horiz-adv-x="224" 
d="M98 -161c13 0 26 2 36 6v-29c-10 -4 -23 -6 -39 -6c-56 0 -81 27 -81 70c0 44 24 77 80 123v545h37v-548c-63 -50 -82 -81 -82 -117c0 -28 16 -44 49 -44z" />
    <glyph glyph-name="itilde.smcp" horiz-adv-x="224" 
d="M216 742h29c-3 -60 -32 -92 -74 -92c-51 0 -79 60 -120 60c-26 0 -41 -20 -44 -60h-29c3 60 31 92 73 92c52 0 80 -60 120 -60c27 0 42 20 45 60zM131 0h-37v548h37v-548z" />
    <glyph glyph-name="j.smcp" horiz-adv-x="276" 
d="M187 548v-405c0 -97 -52 -146 -140 -146c-12 0 -25 1 -33 4v35c10 -2 21 -3 32 -3c67 0 104 35 104 110v405h37z" />
    <glyph glyph-name="jcircumflex.smcp" horiz-adv-x="276" 
d="M286 614h-41l-77 112l-77 -112h-42l97 138h43zM187 548v-405c0 -97 -52 -146 -140 -146c-12 0 -25 1 -33 4v35c10 -2 21 -3 32 -3c67 0 104 35 104 110v405h37z" />
    <glyph glyph-name="k.smcp" horiz-adv-x="486" 
d="M175 287l306 -287h-54l-295 277h-1v-277h-37v548h37v-252h1l270 252h53z" />
    <glyph glyph-name="kcommaaccent.smcp" horiz-adv-x="486" 
d="M175 287l306 -287h-54l-295 277h-1v-277h-37v548h37v-252h1l270 252h53zM292 -146l-39 -98h-20l31 98h-13v72h41v-72z" />
    <glyph glyph-name="l.smcp" horiz-adv-x="455" 
d="M131 35h317v-35h-354v548h37v-513z" />
    <glyph glyph-name="lacute.smcp" horiz-adv-x="455" 
d="M135 613h-36l93 139h48zM131 35h317v-35h-354v548h37v-513z" />
    <glyph glyph-name="lcaron.smcp" horiz-adv-x="455" 
d="M131 35h317v-35h-354v548h37v-513zM220 373h-26l36 175h39z" />
    <glyph glyph-name="lcommaaccent.smcp" horiz-adv-x="455" 
d="M131 35h317v-35h-354v548h37v-513zM291 -146l-39 -98h-20l31 98h-13v72h41v-72z" />
    <glyph glyph-name="ldot.smcp" horiz-adv-x="515" 
d="M131 35h317v-35h-354v548h37v-513zM394 279h-49v80h49v-80z" />
    <glyph glyph-name="j.acute.loclNLD.smcp" horiz-adv-x="276" 
d="M152 613h-36l93 139h48zM187 548v-405c0 -97 -52 -146 -140 -146c-12 0 -25 1 -33 4v35c10 -2 21 -3 32 -3c67 0 104 35 104 110v405h37z" />
    <glyph glyph-name="lslash.smcp" horiz-adv-x="448" 
d="M441 35v-35h-354v246l-68 -38v37l68 38v265h37v-248l130 73v-37l-130 -73v-228h317z" />
    <glyph glyph-name="m.smcp" horiz-adv-x="745" 
d="M652 0h-37v286v219h-2l-96 -224l-122 -281h-45l-121 281c-32 75 -64 149 -97 224h-1v-219v-286h-37v548h61l125 -291c30 -70 62 -144 92 -215h2c30 71 62 145 92 215l125 291h61v-548z" />
    <glyph glyph-name="n.smcp" horiz-adv-x="621" 
d="M528 0h-59l-163 248c-58 88 -116 175 -174 262h-1v-281v-229h-37v548h58l163 -248c58 -88 116 -175 174 -262h1v281v229h38v-548z" />
    <glyph glyph-name="nacute.smcp" horiz-adv-x="621" 
d="M295 613h-36l93 139h48zM528 0h-59l-163 248c-58 88 -116 175 -174 262h-1v-281v-229h-37v548h58l163 -248c58 -88 116 -175 174 -262h1v281v229h38v-548z" />
    <glyph glyph-name="ncaron.smcp" horiz-adv-x="621" 
d="M331 613h-40l-117 139h42l95 -113l94 113h43zM528 0h-59l-163 248c-58 88 -116 175 -174 262h-1v-281v-229h-37v548h58l163 -248c58 -88 116 -175 174 -262h1v281v229h38v-548z" />
    <glyph glyph-name="ncommaaccent.smcp" horiz-adv-x="621" 
d="M528 0h-59l-163 248c-58 88 -116 175 -174 262h-1v-281v-229h-37v548h58l163 -248c58 -88 116 -175 174 -262h1v281v229h38v-548zM331 -146l-39 -98h-20l31 98h-13v72h41v-72z" />
    <glyph glyph-name="eng.smcp" horiz-adv-x="621" 
d="M528 548v-583c0 -85 -41 -115 -103 -115c-8 0 -16 1 -24 3v32c8 -1 15 -2 21 -2c43 0 68 20 68 82v35l-183 261c-58 84 -116 166 -175 250h-1v-275v-236h-37v548h58l162 -231c58 -82 116 -165 175 -248h1v273v206h38z" />
    <glyph glyph-name="ntilde.smcp" horiz-adv-x="621" 
d="M434 742h31c-4 -60 -35 -92 -80 -92c-60 0 -97 60 -147 60c-29 0 -46 -21 -49 -60h-31c4 60 35 92 80 92c60 0 97 -60 146 -60c29 0 47 21 50 60zM528 0h-59l-163 248c-58 88 -116 175 -174 262h-1v-281v-229h-37v548h58l163 -248c58 -88 116 -175 174 -262h1v281v229h38
v-548z" />
    <glyph glyph-name="o.smcp" horiz-adv-x="595" 
d="M297 559c156 0 256 -111 256 -285s-100 -285 -256 -285c-155 0 -255 111 -255 285s100 285 255 285zM297 523c-132 0 -216 -97 -216 -249s84 -249 216 -249c133 0 217 97 217 249s-84 249 -217 249z" />
    <glyph glyph-name="oacute.smcp" horiz-adv-x="595" 
d="M281 613h-36l93 139h48zM297 559c156 0 256 -111 256 -285s-100 -285 -256 -285c-155 0 -255 111 -255 285s100 285 255 285zM297 523c-132 0 -216 -97 -216 -249s84 -249 216 -249c133 0 217 97 217 249s-84 249 -217 249z" />
    <glyph glyph-name="obreve.smcp" horiz-adv-x="595" 
d="M409 752h32c-8 -83 -59 -132 -144 -132s-136 49 -144 132h32c8 -66 47 -101 112 -101s104 35 112 101zM297 559c156 0 256 -111 256 -285s-100 -285 -256 -285c-155 0 -255 111 -255 285s100 285 255 285zM297 523c-132 0 -216 -97 -216 -249s84 -249 216 -249
c133 0 217 97 217 249s-84 249 -217 249z" />
    <glyph glyph-name="ocircumflex.smcp" horiz-adv-x="595" 
d="M392 613l-94 113l-95 -113h-42l117 139h40l117 -139h-43zM297 559c156 0 256 -111 256 -285s-100 -285 -256 -285c-155 0 -255 111 -255 285s100 285 255 285zM297 523c-132 0 -216 -97 -216 -249s84 -249 216 -249c133 0 217 97 217 249s-84 249 -217 249z" />
    <glyph glyph-name="odieresis.smcp" horiz-adv-x="595" 
d="M224 671h-36v81h36v-81zM407 671h-36v81h36v-81zM297 559c156 0 256 -111 256 -285s-100 -285 -256 -285c-155 0 -255 111 -255 285s100 285 255 285zM297 523c-132 0 -216 -97 -216 -249s84 -249 216 -249c133 0 217 97 217 249s-84 249 -217 249z" />
    <glyph glyph-name="ograve.smcp" horiz-adv-x="595" 
d="M257 752l92 -139h-36l-105 139h49zM297 559c156 0 256 -111 256 -285s-100 -285 -256 -285c-155 0 -255 111 -255 285s100 285 255 285zM297 523c-132 0 -216 -97 -216 -249s84 -249 216 -249c133 0 217 97 217 249s-84 249 -217 249z" />
    <glyph glyph-name="ohungarumlaut.smcp" horiz-adv-x="595" 
d="M232 613h-36l117 139h49zM352 613h-36l117 139h48zM297 559c156 0 256 -111 256 -285s-100 -285 -256 -285c-155 0 -255 111 -255 285s100 285 255 285zM297 523c-132 0 -216 -97 -216 -249s84 -249 216 -249c133 0 217 97 217 249s-84 249 -217 249z" />
    <glyph glyph-name="omacron.smcp" horiz-adv-x="595" 
d="M418 677h-242v32h242v-32zM297 559c156 0 256 -111 256 -285s-100 -285 -256 -285c-155 0 -255 111 -255 285s100 285 255 285zM297 523c-132 0 -216 -97 -216 -249s84 -249 216 -249c133 0 217 97 217 249s-84 249 -217 249z" />
    <glyph glyph-name="oslash.smcp" horiz-adv-x="595" 
d="M540 545l-53 -66c42 -50 66 -120 66 -205c0 -174 -99 -285 -255 -285c-65 0 -121 20 -163 55l-50 -61l-27 21l52 65c-43 49 -67 120 -67 205c0 174 99 285 255 285c66 0 121 -20 164 -55l49 61zM298 523c-133 0 -217 -97 -217 -249c0 -72 19 -132 53 -175l303 375
c-35 32 -83 49 -139 49zM298 25c133 0 216 97 216 249c0 72 -19 131 -52 174l-304 -374c36 -32 84 -49 140 -49z" />
    <glyph glyph-name="otilde.smcp" horiz-adv-x="595" 
d="M420 742h31c-4 -60 -35 -92 -80 -92c-60 0 -97 60 -147 60c-29 0 -46 -21 -49 -60h-31c4 60 35 92 80 92c60 0 97 -60 146 -60c29 0 47 21 50 60zM297 559c156 0 256 -111 256 -285s-100 -285 -256 -285c-155 0 -255 111 -255 285s100 285 255 285zM297 523
c-132 0 -216 -97 -216 -249s84 -249 216 -249c133 0 217 97 217 249s-84 249 -217 249z" />
    <glyph glyph-name="oe.smcp" horiz-adv-x="817" 
d="M751 513h-315v-214h300v-35h-300v-229h325v-35h-429c-185 0 -289 99 -289 274s104 274 289 274h419v-35zM399 513h-67c-160 0 -251 -86 -251 -239s91 -239 251 -239h67v478z" />
    <glyph glyph-name="p.smcp" horiz-adv-x="501" 
d="M94 548h187c126 0 191 -62 191 -155s-65 -155 -191 -155h-150v-238h-37v548zM131 513v-240h150c102 0 152 47 152 120s-50 120 -152 120h-150z" />
    <glyph glyph-name="thorn.smcp" horiz-adv-x="501" 
d="M131 437h150c126 0 191 -62 191 -155s-65 -155 -191 -155h-150v-127h-37v548h37v-111zM131 402v-240h150c102 0 152 47 152 120s-50 120 -152 120h-150z" />
    <glyph glyph-name="q.smcp" horiz-adv-x="595" 
d="M553 274c0 -90 -27 -163 -74 -213l64 -66l-27 -26l-65 67c-41 -30 -93 -47 -153 -47c-156 0 -255 111 -255 285s99 285 255 285c155 0 255 -111 255 -285zM81 274c0 -153 85 -249 217 -249c49 0 92 13 126 38l-75 77l27 27l76 -78c40 43 62 106 62 185
c0 152 -84 249 -216 249s-217 -97 -217 -249z" />
    <glyph glyph-name="r.smcp" horiz-adv-x="515" 
d="M94 548h163c130 0 196 -50 196 -143c0 -74 -47 -127 -119 -139v-2c45 -11 64 -34 90 -102l63 -162h-41l-59 156c-26 70 -54 93 -123 93h-133v-249h-37v548zM131 513v-229h133c105 0 151 53 151 121c0 72 -54 108 -158 108h-126z" />
    <glyph glyph-name="racute.smcp" horiz-adv-x="515" 
d="M243 613h-36l93 139h48zM94 548h163c130 0 196 -50 196 -143c0 -74 -47 -127 -119 -139v-2c45 -11 64 -34 90 -102l63 -162h-41l-59 156c-26 70 -54 93 -123 93h-133v-249h-37v548zM131 513v-229h133c105 0 151 53 151 121c0 72 -54 108 -158 108h-126z" />
    <glyph glyph-name="rcaron.smcp" horiz-adv-x="515" 
d="M279 613h-40l-117 139h42l95 -113l94 113h43zM94 548h163c130 0 196 -50 196 -143c0 -74 -47 -127 -119 -139v-2c45 -11 64 -34 90 -102l63 -162h-41l-59 156c-26 70 -54 93 -123 93h-133v-249h-37v548zM131 513v-229h133c105 0 151 53 151 121c0 72 -54 108 -158 108
h-126z" />
    <glyph glyph-name="rcommaaccent.smcp" horiz-adv-x="515" 
d="M94 548h163c130 0 196 -50 196 -143c0 -74 -47 -127 -119 -139v-2c45 -11 64 -34 90 -102l63 -162h-41l-59 156c-26 70 -54 93 -123 93h-133v-249h-37v548zM131 513v-229h133c105 0 151 53 151 121c0 72 -54 108 -158 108h-126zM301 -146l-39 -98h-20l31 98h-13v72h41
v-72z" />
    <glyph glyph-name="s.smcp" horiz-adv-x="499" 
d="M233 559c130 0 197 -62 197 -182h-38c0 101 -56 147 -159 147c-88 0 -139 -42 -139 -109c0 -71 50 -91 153 -115c115 -26 193 -51 193 -157c0 -95 -74 -154 -193 -154c-128 0 -202 65 -202 194h38c0 -111 62 -159 164 -159c99 0 155 44 155 118c0 76 -57 95 -163 120
c-114 27 -183 53 -183 152c0 85 67 145 177 145z" />
    <glyph glyph-name="sacute.smcp" horiz-adv-x="499" 
d="M217 613h-36l93 139h48zM233 559c130 0 197 -62 197 -182h-38c0 101 -56 147 -159 147c-88 0 -139 -42 -139 -109c0 -71 50 -91 153 -115c115 -26 193 -51 193 -157c0 -95 -74 -154 -193 -154c-128 0 -202 65 -202 194h38c0 -111 62 -159 164 -159c99 0 155 44 155 118
c0 76 -57 95 -163 120c-114 27 -183 53 -183 152c0 85 67 145 177 145z" />
    <glyph glyph-name="scaron.smcp" horiz-adv-x="499" 
d="M253 613h-40l-117 139h42l95 -113l94 113h43zM233 559c130 0 197 -62 197 -182h-38c0 101 -56 147 -159 147c-88 0 -139 -42 -139 -109c0 -71 50 -91 153 -115c115 -26 193 -51 193 -157c0 -95 -74 -154 -193 -154c-128 0 -202 65 -202 194h38c0 -111 62 -159 164 -159
c99 0 155 44 155 118c0 76 -57 95 -163 120c-114 27 -183 53 -183 152c0 85 67 145 177 145z" />
    <glyph glyph-name="scedilla.smcp" horiz-adv-x="499" 
d="M440 143c0 -87 -61 -143 -162 -153l-38 -56c5 1 13 2 21 2c48 0 80 -26 80 -69c0 -44 -33 -78 -97 -78c-35 0 -66 10 -92 25l11 22c25 -14 51 -20 78 -20c43 0 67 19 67 50c0 30 -21 48 -61 48c-12 0 -23 -2 -32 -5l-13 14l45 66c-128 0 -202 65 -202 194h38
c0 -111 62 -159 164 -159c99 0 155 44 155 118c0 76 -57 95 -163 120c-114 27 -183 53 -183 152c0 85 67 145 177 145c130 0 197 -62 197 -182h-38c0 101 -56 147 -159 147c-88 0 -139 -42 -139 -109c0 -71 50 -91 153 -115c115 -26 193 -51 193 -157z" />
    <glyph glyph-name="scircumflex.smcp" horiz-adv-x="499" 
d="M327 613l-94 113l-95 -113h-42l117 139h40l117 -139h-43zM233 559c130 0 197 -62 197 -182h-38c0 101 -56 147 -159 147c-88 0 -139 -42 -139 -109c0 -71 50 -91 153 -115c115 -26 193 -51 193 -157c0 -95 -74 -154 -193 -154c-128 0 -202 65 -202 194h38
c0 -111 62 -159 164 -159c99 0 155 44 155 118c0 76 -57 95 -163 120c-114 27 -183 53 -183 152c0 85 67 145 177 145z" />
    <glyph glyph-name="scommaaccent.smcp" horiz-adv-x="499" 
d="M233 559c130 0 197 -62 197 -182h-38c0 101 -56 147 -159 147c-88 0 -139 -42 -139 -109c0 -71 50 -91 153 -115c115 -26 193 -51 193 -157c0 -95 -74 -154 -193 -154c-128 0 -202 65 -202 194h38c0 -111 62 -159 164 -159c99 0 155 44 155 118c0 76 -57 95 -163 120
c-114 27 -183 53 -183 152c0 85 67 145 177 145zM267 -146l-39 -98h-20l31 98h-13v72h41v-72z" />
    <glyph glyph-name="germandbls.smcp" horiz-adv-x="634" 
d="M529 467l-150 -146c124 -18 197 -71 197 -174c0 -102 -72 -158 -181 -158c-108 0 -168 51 -168 142h39c0 -67 44 -107 129 -107c87 0 143 43 143 123c0 93 -73 134 -206 145v32l146 141c-37 36 -93 59 -159 59c-126 0 -193 -64 -193 -189v-335h-37v335
c0 144 82 224 230 224c90 0 164 -38 210 -92z" />
    <glyph glyph-name="t.smcp" horiz-adv-x="478" 
d="M471 513h-213v-513h-37v513h-214v35h464v-35z" />
    <glyph glyph-name="tbar.smcp" horiz-adv-x="479" 
d="M258 513v-196h122v-33h-122v-284h-37v284h-123v33h123v196h-214v35h464v-35h-213z" />
    <glyph glyph-name="tcaron.smcp" horiz-adv-x="478" 
d="M260 613h-40l-117 139h42l95 -113l94 113h43zM471 513h-213v-513h-37v513h-214v35h464v-35z" />
    <glyph glyph-name="tcedilla.smcp" horiz-adv-x="478" 
d="M471 513h-213v-513h-37v513h-214v35h464v-35zM260 -146l-39 -98h-20l31 98h-13v72h41v-72z" />
    <glyph glyph-name="tcommaaccent.smcp" horiz-adv-x="478" 
d="M471 513h-213v-513h-37v513h-214v35h464v-35zM260 -146l-39 -98h-20l31 98h-13v72h41v-72z" />
    <glyph glyph-name="u.smcp" horiz-adv-x="583" 
d="M495 548v-347c0 -139 -72 -212 -203 -212c-132 0 -203 73 -203 212v347h37v-347c0 -119 61 -176 166 -176s166 57 166 176v347h37z" />
    <glyph glyph-name="uacute.smcp" horiz-adv-x="583" 
d="M276 613h-36l93 139h48zM495 548v-347c0 -139 -72 -212 -203 -212c-132 0 -203 73 -203 212v347h37v-347c0 -119 61 -176 166 -176s166 57 166 176v347h37z" />
    <glyph glyph-name="ubreve.smcp" horiz-adv-x="583" 
d="M404 752h32c-8 -83 -59 -132 -144 -132s-136 49 -144 132h32c8 -66 47 -101 112 -101s104 35 112 101zM495 548v-347c0 -139 -72 -212 -203 -212c-132 0 -203 73 -203 212v347h37v-347c0 -119 61 -176 166 -176s166 57 166 176v347h37z" />
    <glyph glyph-name="ucircumflex.smcp" horiz-adv-x="583" 
d="M386 613l-94 113l-95 -113h-42l117 139h40l117 -139h-43zM495 548v-347c0 -139 -72 -212 -203 -212c-132 0 -203 73 -203 212v347h37v-347c0 -119 61 -176 166 -176s166 57 166 176v347h37z" />
    <glyph glyph-name="udieresis.smcp" horiz-adv-x="583" 
d="M218 671h-36v81h36v-81zM401 671h-36v81h36v-81zM495 548v-347c0 -139 -72 -212 -203 -212c-132 0 -203 73 -203 212v347h37v-347c0 -119 61 -176 166 -176s166 57 166 176v347h37z" />
    <glyph glyph-name="ugrave.smcp" horiz-adv-x="583" 
d="M252 752l92 -139h-36l-105 139h49zM495 548v-347c0 -139 -72 -212 -203 -212c-132 0 -203 73 -203 212v347h37v-347c0 -119 61 -176 166 -176s166 57 166 176v347h37z" />
    <glyph glyph-name="uhungarumlaut.smcp" horiz-adv-x="583" 
d="M227 613h-36l117 139h49zM347 613h-36l117 139h48zM495 548v-347c0 -139 -72 -212 -203 -212c-132 0 -203 73 -203 212v347h37v-347c0 -119 61 -176 166 -176s166 57 166 176v347h37z" />
    <glyph glyph-name="umacron.smcp" horiz-adv-x="583" 
d="M413 677h-242v32h242v-32zM495 548v-347c0 -139 -72 -212 -203 -212c-132 0 -203 73 -203 212v347h37v-347c0 -119 61 -176 166 -176s166 57 166 176v347h37z" />
    <glyph glyph-name="uogonek.smcp" horiz-adv-x="582" 
d="M495 548v-345c0 -95 -32 -150 -95 -201s-82 -82 -82 -119c0 -28 16 -44 49 -44c13 0 26 2 36 6v-29c-10 -4 -23 -6 -39 -6c-56 0 -81 27 -81 70c0 44 24 77 79 121v2c-20 -9 -43 -12 -71 -12c-131 0 -203 73 -203 212v345h37v-345c0 -119 62 -176 166 -176
c105 0 166 57 166 176v345h38z" />
    <glyph glyph-name="uring.smcp" horiz-adv-x="583" 
d="M292 802c49 0 90 -40 90 -90s-41 -90 -90 -90c-50 0 -90 40 -90 90s40 90 90 90zM292 776c-36 0 -64 -28 -64 -64s28 -64 64 -64s64 28 64 64s-28 64 -64 64zM495 548v-347c0 -139 -72 -212 -203 -212c-132 0 -203 73 -203 212v347h37v-347c0 -119 61 -176 166 -176
s166 57 166 176v347h37z" />
    <glyph glyph-name="utilde.smcp" horiz-adv-x="583" 
d="M415 742h31c-4 -60 -35 -92 -80 -92c-60 0 -97 60 -147 60c-29 0 -46 -21 -49 -60h-31c4 60 35 92 80 92c60 0 97 -60 146 -60c29 0 47 21 50 60zM495 548v-347c0 -139 -72 -212 -203 -212c-132 0 -203 73 -203 212v347h37v-347c0 -119 61 -176 166 -176s166 57 166 176
v347h37z" />
    <glyph glyph-name="v.smcp" horiz-adv-x="504" 
d="M278 0h-52l-219 548h39l105 -263c34 -83 67 -166 100 -248h1c34 82 67 165 100 248l105 263h40z" />
    <glyph glyph-name="w.smcp" horiz-adv-x="727" 
d="M565 0h-59l-70 255c-25 86 -48 171 -72 257h-1l-71 -257l-71 -255h-59l-151 548h38l68 -244c25 -89 50 -180 74 -268h2c24 90 49 181 74 270l67 242h59l67 -242c25 -89 50 -180 74 -270h2c24 88 49 179 74 268l68 244h39z" />
    <glyph glyph-name="wacute.smcp" horiz-adv-x="727" 
d="M348 613h-36l93 139h48zM565 0h-59l-70 255c-25 86 -48 171 -72 257h-1l-71 -257l-71 -255h-59l-151 548h38l68 -244c25 -89 50 -180 74 -268h2c24 90 49 181 74 270l67 242h59l67 -242c25 -89 50 -180 74 -270h2c24 88 49 179 74 268l68 244h39z" />
    <glyph glyph-name="wcircumflex.smcp" horiz-adv-x="727" 
d="M458 613l-94 113l-95 -113h-42l117 139h40l117 -139h-43zM565 0h-59l-70 255c-25 86 -48 171 -72 257h-1l-71 -257l-71 -255h-59l-151 548h38l68 -244c25 -89 50 -180 74 -268h2c24 90 49 181 74 270l67 242h59l67 -242c25 -89 50 -180 74 -270h2c24 88 49 179 74 268
l68 244h39z" />
    <glyph glyph-name="wdieresis.smcp" horiz-adv-x="727" 
d="M290 671h-36v81h36v-81zM473 671h-36v81h36v-81zM565 0h-59l-70 255c-25 86 -48 171 -72 257h-1l-71 -257l-71 -255h-59l-151 548h38l68 -244c25 -89 50 -180 74 -268h2c24 90 49 181 74 270l67 242h59l67 -242c25 -89 50 -180 74 -270h2c24 88 49 179 74 268l68 244h39z
" />
    <glyph glyph-name="wgrave.smcp" horiz-adv-x="727" 
d="M324 752l92 -139h-36l-105 139h49zM565 0h-59l-70 255c-25 86 -48 171 -72 257h-1l-71 -257l-71 -255h-59l-151 548h38l68 -244c25 -89 50 -180 74 -268h2c24 90 49 181 74 270l67 242h59l67 -242c25 -89 50 -180 74 -270h2c24 88 49 179 74 268l68 244h39z" />
    <glyph glyph-name="x.smcp" horiz-adv-x="502" 
d="M275 282l217 -282h-47l-193 251h-2l-194 -251h-46l218 282l-206 266h46l182 -234h2l182 234h46z" />
    <glyph glyph-name="y.smcp" horiz-adv-x="486" 
d="M262 238v-238h-38v238l-219 310h45l86 -122c36 -50 71 -101 106 -150h2c35 49 70 100 106 150l85 122h45z" />
    <glyph glyph-name="yacute.smcp" horiz-adv-x="486" 
d="M227 613h-36l93 139h48zM262 238v-238h-38v238l-219 310h45l86 -122c36 -50 71 -101 106 -150h2c35 49 70 100 106 150l85 122h45z" />
    <glyph glyph-name="ycircumflex.smcp" horiz-adv-x="486" 
d="M337 613l-94 113l-95 -113h-42l117 139h40l117 -139h-43zM262 238v-238h-38v238l-219 310h45l86 -122c36 -50 71 -101 106 -150h2c35 49 70 100 106 150l85 122h45z" />
    <glyph glyph-name="ydieresis.smcp" horiz-adv-x="486" 
d="M169 671h-36v81h36v-81zM352 671h-36v81h36v-81zM262 238v-238h-38v238l-219 310h45l86 -122c36 -50 71 -101 106 -150h2c35 49 70 100 106 150l85 122h45z" />
    <glyph glyph-name="ygrave.smcp" horiz-adv-x="486" 
d="M203 752l92 -139h-36l-105 139h49zM262 238v-238h-38v238l-219 310h45l86 -122c36 -50 71 -101 106 -150h2c35 49 70 100 106 150l85 122h45z" />
    <glyph glyph-name="z.smcp" horiz-adv-x="456" 
d="M424 507l-366 -470v-2h383v-35h-425v41l366 470v2h-361v35h403v-41z" />
    <glyph glyph-name="zacute.smcp" horiz-adv-x="456" 
d="M207 613h-36l93 139h48zM424 507l-366 -470v-2h383v-35h-425v41l366 470v2h-361v35h403v-41z" />
    <glyph glyph-name="zcaron.smcp" horiz-adv-x="456" 
d="M243 613h-40l-117 139h42l95 -113l94 113h43zM424 507l-366 -470v-2h383v-35h-425v41l366 470v2h-361v35h403v-41z" />
    <glyph glyph-name="zdotaccent.smcp" horiz-adv-x="456" 
d="M241 671h-36v81h36v-81zM424 507l-366 -470v-2h383v-35h-425v41l366 470v2h-361v35h403v-41z" />
    <glyph glyph-name="ccedilla.smcp.ss01" horiz-adv-x="564" 
d="M289 559c136 0 215 -83 222 -190h-39c-8 91 -76 154 -183 154c-129 0 -209 -95 -209 -249s79 -249 206 -249c105 0 177 63 189 157h39c-12 -115 -96 -193 -228 -193c-151 0 -244 109 -244 285s95 285 247 285zM211 -207h-49l125 158h36z" />
    <glyph glyph-name="scedilla.smcp.ss01" horiz-adv-x="499" 
d="M233 559c130 0 197 -62 197 -182h-38c0 101 -56 147 -159 147c-88 0 -139 -42 -139 -109c0 -71 50 -91 153 -115c115 -26 193 -51 193 -157c0 -95 -74 -154 -193 -154c-128 0 -202 65 -202 194h38c0 -111 62 -159 164 -159c99 0 155 44 155 118c0 76 -57 95 -163 120
c-114 27 -183 53 -183 152c0 85 67 145 177 145zM172 -207h-49l125 158h36z" />
    <glyph glyph-name="tcedilla.smcp.ss01" horiz-adv-x="478" 
d="M471 513h-213v-513h-37v513h-214v35h464v-35zM164 -207h-49l125 158h36z" />
    <glyph glyph-name="ordfeminine" unicode="&#xaa;" horiz-adv-x="369" 
d="M181 694c78 0 131 -41 131 -134v-146c0 -33 3 -64 8 -84h-30c-3 18 -6 44 -6 64h-1c-24 -44 -68 -71 -133 -71c-73 0 -122 41 -122 101c0 57 34 92 135 107c34 5 82 11 118 14v18c0 73 -42 103 -100 103c-67 0 -100 -37 -104 -87h-33c4 67 52 115 137 115zM281 483v34
c-34 -3 -82 -9 -114 -14c-78 -12 -104 -35 -104 -78c0 -45 35 -74 93 -74c38 0 70 13 90 34c26 27 35 47 35 98z" />
    <glyph glyph-name="ordmasculine" unicode="&#xba;" horiz-adv-x="392" 
d="M196 694c101 0 163 -71 163 -186c0 -116 -62 -186 -163 -186c-100 0 -163 70 -163 186c0 115 63 186 163 186zM196 665c-80 0 -129 -59 -129 -157s49 -157 129 -157c82 0 130 59 130 157s-48 157 -130 157z" />
    <glyph glyph-name="Delta" unicode="&#x394;" horiz-adv-x="647" 
d="M641 0h-635l292 712h51zM586 35l-137 338c-43 104 -83 204 -125 306h-1c-42 -102 -82 -202 -125 -306l-138 -338h526z" />
    <glyph glyph-name="Omega" unicode="&#x3a9;" horiz-adv-x="720" 
d="M360 723c178 0 304 -102 304 -316c0 -152 -80 -265 -182 -370v-2h193v-35h-238v36c106 109 188 217 188 370c0 190 -110 281 -265 281s-266 -91 -266 -281c0 -153 83 -261 189 -370v-36h-238v35h193v2c-102 105 -182 218 -182 370c0 214 126 316 304 316z" />
    <glyph glyph-name="mu" unicode="&#x3bc;" horiz-adv-x="556" 
d="M464 508v-388c0 -73 13 -91 49 -91c9 0 16 1 24 4v-32c-11 -3 -21 -5 -34 -5c-49 0 -71 24 -74 97h-1c-27 -62 -90 -102 -164 -102c-70 0 -117 30 -140 83v-259h-36v693h36v-306c0 -127 53 -178 142 -178c87 0 162 64 162 177v307h36z" />
    <glyph glyph-name="pi" unicode="&#x3c0;" horiz-adv-x="632" 
d="M613 476h-134v-338c0 -86 31 -109 80 -109c11 0 23 2 31 5v-32c-10 -3 -26 -6 -40 -6c-65 0 -107 34 -107 140v340h-279v-476h-36v476h-114v32h599v-32z" />
    <glyph glyph-name="zero.lf" horiz-adv-x="556" 
d="M278 685c146 0 222 -120 222 -348c0 -229 -76 -348 -222 -348s-222 119 -222 348c0 228 76 348 222 348zM278 649c-121 0 -184 -106 -184 -312c0 -207 63 -313 184 -313s183 106 183 313c0 206 -62 312 -183 312z" />
    <glyph glyph-name="one.lf" horiz-adv-x="313" 
d="M197 0h-37v577h-1c-27 -33 -74 -48 -144 -48v33c97 0 139 30 151 112h31v-674z" />
    <glyph glyph-name="two.lf" horiz-adv-x="538" 
d="M273 685c117 0 196 -75 196 -181c0 -114 -72 -161 -194 -231c-154 -88 -181 -147 -181 -238h390v-35h-426c-1 8 -1 13 -1 17c0 119 30 188 199 287c117 67 174 102 174 200c0 85 -62 145 -157 145c-104 0 -160 -61 -168 -160h-38c7 121 84 196 206 196z" />
    <glyph glyph-name="three.lf" horiz-adv-x="533" 
d="M253 685c126 0 208 -72 208 -177c0 -88 -46 -139 -125 -163v-1c88 -24 138 -78 138 -171c0 -107 -92 -184 -218 -184c-132 0 -208 78 -208 197h38c0 -101 61 -162 170 -162c104 0 179 62 179 150c0 98 -70 152 -187 152h-39v35h39c110 0 174 56 174 145
c0 86 -67 144 -170 144c-100 0 -162 -56 -162 -160h-38c0 124 80 195 201 195z" />
    <glyph glyph-name="four.lf" horiz-adv-x="513" 
d="M497 197h-130v-197h-37v197h-315v40l300 437h52v-442h130v-35zM53 232h277v105v296h-1c-62 -90 -123 -178 -184 -268z" />
    <glyph glyph-name="five.lf" horiz-adv-x="530" 
d="M441 639h-308l-27 -283h1c30 49 85 79 155 79c128 0 209 -84 209 -219c0 -137 -85 -227 -217 -227c-117 0 -194 69 -194 185h38c1 -95 63 -149 156 -149c110 0 178 75 178 190c0 114 -66 185 -171 185c-80 0 -138 -41 -162 -121l-37 2l38 393h341v-35z" />
    <glyph glyph-name="six.lf" horiz-adv-x="535" 
d="M285 685c108 0 174 -65 189 -171h-39c-15 86 -65 135 -150 135c-118 0 -194 -107 -194 -344h2c27 76 92 132 184 132c124 0 208 -89 208 -221c0 -136 -85 -227 -210 -227c-142 0 -219 104 -219 317c0 251 86 379 229 379zM274 401c-99 0 -170 -76 -170 -180
c0 -114 61 -196 171 -196c103 0 171 75 171 191c0 111 -68 185 -172 185z" />
    <glyph glyph-name="seven.lf" horiz-adv-x="457" 
d="M441 674v-36c-108 -158 -209 -358 -269 -638h-42c69 297 169 490 269 639h-384v35h426z" />
    <glyph glyph-name="eight.lf" horiz-adv-x="538" 
d="M269 685c117 0 202 -73 202 -179c0 -80 -52 -134 -126 -157v-1c83 -24 140 -81 140 -167c0 -113 -90 -192 -216 -192s-216 79 -216 192c0 86 56 143 139 167v1c-73 23 -125 77 -125 157c0 106 85 179 202 179zM269 649c-96 0 -163 -57 -163 -143c0 -84 64 -141 163 -141
s163 57 163 141c0 86 -67 143 -163 143zM269 330c-103 0 -178 -63 -178 -148c0 -94 74 -157 178 -157s177 63 177 157c0 85 -74 148 -177 148z" />
    <glyph glyph-name="nine.lf" horiz-adv-x="536" 
d="M250 -11c-107 0 -173 65 -188 171h38c16 -86 66 -135 150 -135c119 0 194 107 194 344h-2c-26 -76 -92 -132 -183 -132c-125 0 -208 89 -208 221c0 136 84 227 209 227c142 0 220 -104 220 -317c0 -251 -86 -379 -230 -379zM262 273c99 0 170 76 170 180
c0 114 -61 196 -172 196c-102 0 -171 -75 -171 -191c0 -111 69 -185 173 -185z" />
    <glyph glyph-name="fraction" unicode="&#x2044;" horiz-adv-x="124" 
d="M-115 0h-40l394 674h40z" />
    <glyph glyph-name="onehalf" unicode="&#xbd;" horiz-adv-x="663" 
d="M133 270h-34v332h-1c-18 -16 -48 -24 -89 -24v29c61 0 88 18 95 67h29v-404zM87 0h-40l394 674h40zM498 412c74 0 124 -46 124 -110c0 -70 -49 -103 -120 -142c-89 -50 -107 -82 -107 -128h236v-32h-270v11c0 75 18 117 124 176c66 38 102 59 102 115c0 45 -35 77 -89 77
c-61 0 -90 -33 -95 -88h-34c4 75 54 121 129 121z" />
    <glyph glyph-name="onequarter" unicode="&#xbc;" horiz-adv-x="628" 
d="M99 602h-1c-18 -16 -48 -24 -89 -24v29c61 0 88 18 95 67h29v-404h-34v332zM481 674l-394 -674h-40l394 674h40zM619 113h-76v-113h-33v113h-195v35l182 256h46v-260h76v-31zM351 144h159v59v162h-2c-36 -50 -70 -99 -106 -148z" />
    <glyph glyph-name="threequarters" unicode="&#xbe;" horiz-adv-x="761" 
d="M299 375c0 -66 -56 -113 -136 -113c-85 0 -134 48 -134 123h34c0 -59 36 -90 100 -90c60 0 102 32 102 80c0 55 -41 85 -112 85h-20v31h20c64 0 104 31 104 81c0 47 -37 77 -96 77s-95 -29 -95 -88h-35c0 77 52 121 131 121c80 0 129 -44 129 -108c0 -50 -24 -79 -72 -97
v-1c53 -16 80 -48 80 -101zM614 674l-394 -674h-40l394 674h40zM752 113h-76v-113h-33v113h-195v35l182 256h46v-260h76v-31zM484 144h159v59v162h-2c-36 -50 -70 -99 -106 -148z" />
    <glyph glyph-name="oneeighth" unicode="&#x215b;" horiz-adv-x="664" 
d="M133 270h-34v332h-1c-18 -16 -48 -24 -89 -24v29c61 0 88 18 95 67h29v-404zM87 0h-40l394 674h40zM495 412c76 0 129 -45 129 -110c0 -45 -29 -77 -72 -92v-1c51 -16 80 -49 80 -100c0 -69 -55 -116 -137 -116c-83 0 -137 47 -137 116c0 51 29 84 80 100v1
c-43 15 -72 47 -72 92c0 65 52 110 129 110zM495 379c-57 0 -95 -30 -95 -76c0 -48 38 -79 95 -79s95 31 95 79c0 46 -38 76 -95 76zM495 193c-60 0 -103 -34 -103 -83c0 -52 40 -85 103 -85c62 0 103 33 103 85c0 49 -43 83 -103 83z" />
    <glyph glyph-name="threeeighths" unicode="&#x215c;" horiz-adv-x="797" 
d="M162 682c80 0 129 -44 129 -108c0 -50 -24 -79 -72 -97v-1c53 -16 80 -48 80 -101c0 -66 -56 -113 -136 -113c-85 0 -134 48 -134 123h34c0 -59 36 -90 100 -90c60 0 102 32 102 80c0 55 -41 85 -112 85h-20v31h20c64 0 104 31 104 81c0 47 -37 77 -96 77
s-95 -29 -95 -88h-35c0 77 52 121 131 121zM220 0h-40l394 674h40zM628 412c76 0 129 -45 129 -110c0 -45 -29 -77 -72 -92v-1c51 -16 80 -49 80 -100c0 -69 -55 -116 -137 -116c-83 0 -137 47 -137 116c0 51 29 84 80 100v1c-43 15 -72 47 -72 92c0 65 52 110 129 110z
M628 379c-57 0 -95 -30 -95 -76c0 -48 38 -79 95 -79s95 31 95 79c0 46 -38 76 -95 76zM628 193c-60 0 -103 -34 -103 -83c0 -52 40 -85 103 -85c62 0 103 33 103 85c0 49 -43 83 -103 83z" />
    <glyph glyph-name="fiveeighths" unicode="&#x215d;" horiz-adv-x="796" 
d="M280 642h-188l-14 -146h1c18 23 48 38 88 38c81 0 131 -52 131 -135s-53 -137 -137 -137c-75 0 -125 43 -125 113h34c1 -51 38 -80 91 -80c64 0 103 41 103 105c0 63 -38 101 -99 101c-47 0 -80 -22 -92 -66l-35 2l23 237h219v-32zM219 0h-40l394 674h40zM627 412
c76 0 129 -45 129 -110c0 -45 -29 -77 -72 -92v-1c51 -16 80 -49 80 -100c0 -69 -55 -116 -137 -116c-83 0 -137 47 -137 116c0 51 29 84 80 100v1c-43 15 -72 47 -72 92c0 65 52 110 129 110zM627 379c-57 0 -95 -30 -95 -76c0 -48 38 -79 95 -79s95 31 95 79
c0 46 -38 76 -95 76zM627 193c-60 0 -103 -34 -103 -83c0 -52 40 -85 103 -85c62 0 103 33 103 85c0 49 -43 83 -103 83z" />
    <glyph glyph-name="seveneighths" unicode="&#x215e;" horiz-adv-x="705" 
d="M283 674v-32c-66 -91 -126 -214 -161 -372h-36c42 173 103 290 159 372h-236v32h274zM128 0h-40l394 674h40zM536 412c76 0 129 -45 129 -110c0 -45 -29 -77 -72 -92v-1c51 -16 80 -49 80 -100c0 -69 -55 -116 -137 -116c-83 0 -137 47 -137 116c0 51 29 84 80 100v1
c-43 15 -72 47 -72 92c0 65 52 110 129 110zM536 379c-57 0 -95 -30 -95 -76c0 -48 38 -79 95 -79s95 31 95 79c0 46 -38 76 -95 76zM536 193c-60 0 -103 -34 -103 -83c0 -52 40 -85 103 -85c62 0 103 33 103 85c0 49 -43 83 -103 83z" />
    <glyph glyph-name="zero.dnom" horiz-adv-x="350" 
d="M175 412c93 0 141 -73 141 -210s-48 -210 -141 -210s-141 73 -141 210s48 210 141 210zM175 379c-71 0 -107 -60 -107 -177s36 -177 107 -177s107 60 107 177s-36 177 -107 177z" />
    <glyph glyph-name="one.dnom" horiz-adv-x="202" 
d="M133 0h-34v332h-1c-18 -16 -48 -24 -89 -24v29c61 0 88 18 95 67h29v-404z" />
    <glyph glyph-name="two.dnom" horiz-adv-x="338" 
d="M172 412c74 0 124 -46 124 -110c0 -70 -49 -103 -120 -142c-89 -50 -107 -82 -107 -128h236v-32h-270v11c0 75 18 117 124 176c66 38 102 59 102 115c0 45 -35 77 -89 77c-61 0 -90 -33 -95 -88h-34c4 75 54 121 129 121z" />
    <glyph glyph-name="three.dnom" horiz-adv-x="335" 
d="M162 412c80 0 129 -44 129 -108c0 -50 -24 -79 -72 -97v-1c53 -16 80 -48 80 -101c0 -66 -56 -113 -136 -113c-85 0 -134 48 -134 123h34c0 -59 36 -90 100 -90c60 0 102 32 102 80c0 55 -41 85 -112 85h-20v31h20c64 0 104 31 104 81c0 47 -37 77 -96 77
s-95 -29 -95 -88h-35c0 77 52 121 131 121z" />
    <glyph glyph-name="four.dnom" horiz-adv-x="322" 
d="M313 113h-76v-113h-33v113h-195v35l182 256h46v-260h76v-31zM45 144h159v59v162h-2c-36 -50 -70 -99 -106 -148z" />
    <glyph glyph-name="five.dnom" horiz-adv-x="334" 
d="M280 372h-188l-14 -146h1c18 23 48 38 88 38c81 0 131 -52 131 -135s-53 -137 -137 -137c-75 0 -125 43 -125 113h34c1 -51 38 -80 91 -80c64 0 103 41 103 105c0 63 -38 101 -99 101c-47 0 -80 -22 -92 -66l-35 2l23 237h219v-32z" />
    <glyph glyph-name="six.dnom" horiz-adv-x="336" 
d="M179 412c70 0 113 -41 121 -107h-35c-9 48 -38 74 -86 74c-67 0 -111 -55 -111 -180h1c18 39 56 64 108 64c77 0 129 -53 129 -133c0 -82 -54 -137 -134 -137c-89 0 -138 63 -138 191c0 150 53 228 145 228zM174 231c-58 0 -99 -42 -99 -100c0 -64 37 -106 97 -106
s100 41 100 105c0 61 -39 101 -98 101z" />
    <glyph glyph-name="seven.dnom" horiz-adv-x="292" 
d="M283 404v-32c-66 -91 -126 -214 -161 -372h-36c42 173 103 290 159 372h-236v32h274z" />
    <glyph glyph-name="eight.dnom" horiz-adv-x="338" 
d="M169 412c76 0 129 -45 129 -110c0 -45 -29 -77 -72 -92v-1c51 -16 80 -49 80 -100c0 -69 -55 -116 -137 -116c-83 0 -137 47 -137 116c0 51 29 84 80 100v1c-43 15 -72 47 -72 92c0 65 52 110 129 110zM169 379c-57 0 -95 -30 -95 -76c0 -48 38 -79 95 -79s95 31 95 79
c0 46 -38 76 -95 76zM169 193c-60 0 -103 -34 -103 -83c0 -52 40 -85 103 -85c62 0 103 33 103 85c0 49 -43 83 -103 83z" />
    <glyph glyph-name="nine.dnom" horiz-adv-x="336" 
d="M157 -7c-70 0 -112 41 -120 107h34c9 -48 39 -74 86 -74c68 0 111 55 112 180h-1c-19 -39 -56 -64 -109 -64c-77 0 -129 53 -129 133c0 82 54 137 134 137c89 0 139 -63 139 -191c0 -150 -54 -228 -146 -228zM162 174c59 0 100 42 100 100c0 64 -37 106 -98 106
c-60 0 -99 -41 -99 -105c0 -61 38 -101 97 -101z" />
    <glyph glyph-name="zero.numr" horiz-adv-x="350" 
d="M175 682c93 0 141 -73 141 -210s-48 -210 -141 -210s-141 73 -141 210s48 210 141 210zM175 649c-71 0 -107 -60 -107 -177s36 -177 107 -177s107 60 107 177s-36 177 -107 177z" />
    <glyph glyph-name="one.numr" horiz-adv-x="202" 
d="M133 270h-34v332h-1c-18 -16 -48 -24 -89 -24v29c61 0 88 18 95 67h29v-404z" />
    <glyph glyph-name="two.numr" horiz-adv-x="338" 
d="M172 682c74 0 124 -46 124 -110c0 -70 -49 -103 -120 -142c-89 -50 -107 -82 -107 -128h236v-32h-270v11c0 75 18 117 124 176c66 38 102 59 102 115c0 45 -35 77 -89 77c-61 0 -90 -33 -95 -88h-34c4 75 54 121 129 121z" />
    <glyph glyph-name="three.numr" horiz-adv-x="335" 
d="M162 682c80 0 129 -44 129 -108c0 -50 -24 -79 -72 -97v-1c53 -16 80 -48 80 -101c0 -66 -56 -113 -136 -113c-85 0 -134 48 -134 123h34c0 -59 36 -90 100 -90c60 0 102 32 102 80c0 55 -41 85 -112 85h-20v31h20c64 0 104 31 104 81c0 47 -37 77 -96 77
s-95 -29 -95 -88h-35c0 77 52 121 131 121z" />
    <glyph glyph-name="four.numr" horiz-adv-x="322" 
d="M313 383h-76v-113h-33v113h-195v35l182 256h46v-260h76v-31zM45 414h159v59v162h-2c-36 -50 -70 -99 -106 -148z" />
    <glyph glyph-name="five.numr" horiz-adv-x="334" 
d="M280 642h-188l-14 -146h1c18 23 48 38 88 38c81 0 131 -52 131 -135s-53 -137 -137 -137c-75 0 -125 43 -125 113h34c1 -51 38 -80 91 -80c64 0 103 41 103 105c0 63 -38 101 -99 101c-47 0 -80 -22 -92 -66l-35 2l23 237h219v-32z" />
    <glyph glyph-name="six.numr" horiz-adv-x="336" 
d="M178 682c70 0 113 -41 121 -107h-35c-9 48 -38 74 -86 74c-67 0 -111 -55 -111 -180h1c18 39 56 64 108 64c77 0 129 -53 129 -133c0 -82 -54 -137 -134 -137c-89 0 -138 63 -138 191c0 150 53 228 145 228zM173 501c-58 0 -99 -42 -99 -100c0 -64 37 -106 97 -106
s100 41 100 105c0 61 -39 101 -98 101z" />
    <glyph glyph-name="seven.numr" horiz-adv-x="292" 
d="M283 674v-32c-66 -91 -126 -214 -161 -372h-36c42 173 103 290 159 372h-236v32h274z" />
    <glyph glyph-name="eight.numr" horiz-adv-x="338" 
d="M169 682c76 0 129 -45 129 -110c0 -45 -29 -77 -72 -92v-1c51 -16 80 -49 80 -100c0 -69 -55 -116 -137 -116c-83 0 -137 47 -137 116c0 51 29 84 80 100v1c-43 15 -72 47 -72 92c0 65 52 110 129 110zM169 649c-57 0 -95 -30 -95 -76c0 -48 38 -79 95 -79s95 31 95 79
c0 46 -38 76 -95 76zM169 463c-60 0 -103 -34 -103 -83c0 -52 40 -85 103 -85c62 0 103 33 103 85c0 49 -43 83 -103 83z" />
    <glyph glyph-name="nine.numr" horiz-adv-x="336" 
d="M157 263c-70 0 -112 41 -120 107h34c9 -48 39 -74 86 -74c68 0 111 55 112 180h-1c-19 -39 -56 -64 -109 -64c-77 0 -129 53 -129 133c0 82 54 137 134 137c89 0 139 -63 139 -191c0 -150 -54 -228 -146 -228zM162 444c59 0 100 42 100 100c0 64 -37 106 -98 106
c-60 0 -99 -41 -99 -105c0 -61 38 -101 97 -101z" />
    <glyph glyph-name="zeroinferior" unicode="&#x2080;" horiz-adv-x="402" 
d="M201 308c106 0 162 -84 162 -244s-56 -244 -162 -244s-162 84 -162 244s56 244 162 244zM201 276c-83 0 -127 -73 -127 -212c0 -141 44 -214 127 -214c84 0 127 73 127 214c0 139 -43 212 -127 212z" />
    <glyph glyph-name="oneinferior" unicode="&#x2081;" horiz-adv-x="229" 
d="M147 -172h-33v402h-2c-16 -26 -47 -37 -103 -37v28c71 0 102 21 110 79h28v-472z" />
    <glyph glyph-name="twoinferior" unicode="&#x2082;" horiz-adv-x="389" 
d="M198 308c85 0 143 -53 143 -128c0 -80 -55 -116 -140 -163c-106 -60 -127 -99 -127 -158h277v-31h-309c-2 5 -2 9 -2 13c0 85 22 134 144 203c81 45 122 70 122 136c0 57 -43 96 -109 96c-72 0 -110 -41 -115 -107h-35c5 86 63 139 151 139z" />
    <glyph glyph-name="threeinferior" unicode="&#x2083;" horiz-adv-x="385" 
d="M184 308c93 0 151 -51 151 -125c0 -60 -31 -95 -87 -113v-1c63 -19 96 -55 96 -119c0 -76 -66 -130 -158 -130c-97 0 -153 54 -153 141h35c0 -70 42 -110 118 -110c72 0 123 41 123 99c0 67 -48 103 -131 103h-25v31h25c77 0 123 37 123 97c0 58 -47 95 -118 95
c-70 0 -112 -36 -112 -107h-35c0 88 59 139 148 139z" />
    <glyph glyph-name="fourinferior" unicode="&#x2084;" horiz-adv-x="372" 
d="M360 -38h-91v-134h-32v134h-227v35l214 303h45v-307h91v-31zM44 -7h193v72v198h-2l-127 -180z" />
    <glyph glyph-name="fiveinferior" unicode="&#x2085;" horiz-adv-x="383" 
d="M321 269h-220l-18 -185h1c22 31 60 50 107 50c93 0 151 -59 151 -154c0 -97 -61 -160 -158 -160c-85 0 -142 49 -142 130h34c1 -62 45 -98 108 -98c77 0 124 50 124 127s-46 124 -118 124c-56 0 -96 -28 -112 -81l-34 2l27 276h250v-31z" />
    <glyph glyph-name="sixinferior" unicode="&#x2086;" horiz-adv-x="388" 
d="M206 308c79 0 129 -47 139 -123h-35c-11 58 -45 91 -104 91c-81 0 -134 -71 -135 -226h2c18 50 64 84 129 84c89 0 150 -62 150 -155c0 -95 -62 -159 -153 -159c-103 0 -160 73 -160 222c0 176 62 266 167 266zM199 103c-69 0 -118 -51 -118 -121c0 -77 43 -130 118 -130
c71 0 119 50 119 127c0 74 -47 124 -119 124z" />
    <glyph glyph-name="seveninferior" unicode="&#x2087;" horiz-adv-x="338" 
d="M326 300v-32c-77 -109 -148 -250 -189 -440h-38c49 205 121 341 190 441h-279v31h316z" />
    <glyph glyph-name="eightinferior" unicode="&#x2088;" horiz-adv-x="390" 
d="M194 308c86 0 148 -52 148 -127c0 -53 -36 -90 -87 -109v-1c59 -18 97 -57 97 -116c0 -80 -66 -135 -158 -135s-158 55 -158 135c0 59 38 98 97 116v1c-51 19 -87 56 -87 109c0 75 62 127 148 127zM194 276c-67 0 -113 -38 -113 -94c0 -57 44 -95 113 -95s113 38 113 95
c0 56 -46 94 -113 94zM194 56c-71 0 -123 -42 -123 -100c0 -63 50 -104 123 -104s123 41 123 104c0 58 -52 100 -123 100z" />
    <glyph glyph-name="nineinferior" unicode="&#x2089;" horiz-adv-x="388" 
d="M181 -180c-79 0 -128 47 -138 123h35c11 -58 45 -91 103 -91c82 0 134 71 136 226h-2c-19 -50 -64 -84 -129 -84c-90 0 -150 62 -150 155c0 95 62 159 153 159c103 0 160 -73 160 -222c0 -176 -63 -266 -168 -266zM188 25c70 0 119 51 119 121c0 77 -43 130 -118 130
c-71 0 -119 -50 -119 -127c0 -74 47 -124 118 -124z" />
    <glyph glyph-name="zerosuperior" unicode="&#x2070;" horiz-adv-x="402" 
d="M201 810c106 0 162 -84 162 -244s-56 -244 -162 -244s-162 84 -162 244s56 244 162 244zM201 778c-83 0 -127 -73 -127 -212c0 -141 44 -214 127 -214c84 0 127 73 127 214c0 139 -43 212 -127 212z" />
    <glyph glyph-name="onesuperior" unicode="&#xb9;" horiz-adv-x="229" 
d="M148 330h-33v402h-2c-16 -26 -47 -37 -103 -37v28c71 0 102 21 110 79h28v-472z" />
    <glyph glyph-name="twosuperior" unicode="&#xb2;" horiz-adv-x="389" 
d="M198 810c85 0 143 -53 143 -128c0 -80 -55 -116 -140 -163c-106 -60 -127 -99 -127 -158h277v-31h-309c-2 5 -2 9 -2 13c0 85 22 134 144 203c81 45 122 70 122 136c0 57 -43 96 -109 96c-72 0 -110 -41 -115 -107h-35c5 86 63 139 151 139z" />
    <glyph glyph-name="threesuperior" unicode="&#xb3;" horiz-adv-x="385" 
d="M184 810c93 0 151 -51 151 -125c0 -60 -31 -95 -87 -113v-1c63 -19 96 -55 96 -119c0 -76 -66 -130 -158 -130c-97 0 -153 54 -153 141h35c0 -70 42 -110 118 -110c72 0 123 41 123 99c0 67 -48 103 -131 103h-25v31h25c77 0 123 37 123 97c0 58 -47 95 -118 95
c-70 0 -112 -36 -112 -107h-35c0 88 59 139 148 139z" />
    <glyph glyph-name="foursuperior" unicode="&#x2074;" horiz-adv-x="372" 
d="M361 464h-91v-134h-32v134h-227v35l214 303h45v-307h91v-31zM45 495h193v72v198h-2l-127 -180z" />
    <glyph glyph-name="fivesuperior" unicode="&#x2075;" horiz-adv-x="383" 
d="M321 771h-220l-18 -185h1c22 31 60 50 107 50c93 0 151 -59 151 -154c0 -97 -61 -160 -158 -160c-85 0 -142 49 -142 130h34c1 -62 45 -98 108 -98c77 0 124 50 124 127s-46 124 -118 124c-56 0 -96 -28 -112 -81l-34 2l27 276h250v-31z" />
    <glyph glyph-name="sixsuperior" unicode="&#x2076;" horiz-adv-x="388" 
d="M206 810c79 0 129 -47 139 -123h-35c-11 58 -45 91 -104 91c-81 0 -134 -71 -135 -226h2c18 50 64 84 129 84c89 0 150 -62 150 -155c0 -95 -62 -159 -153 -159c-103 0 -160 73 -160 222c0 176 62 266 167 266zM199 605c-69 0 -118 -51 -118 -121c0 -77 43 -130 118 -130
c71 0 119 50 119 127c0 74 -47 124 -119 124z" />
    <glyph glyph-name="sevensuperior" unicode="&#x2077;" horiz-adv-x="338" 
d="M327 802v-32c-77 -109 -148 -250 -189 -440h-38c49 205 121 341 190 441h-279v31h316z" />
    <glyph glyph-name="eightsuperior" unicode="&#x2078;" horiz-adv-x="390" 
d="M195 810c86 0 148 -52 148 -127c0 -53 -36 -90 -87 -109v-1c59 -18 97 -57 97 -116c0 -80 -66 -135 -158 -135s-158 55 -158 135c0 59 38 98 97 116v1c-51 19 -87 56 -87 109c0 75 62 127 148 127zM195 778c-67 0 -113 -38 -113 -94c0 -57 44 -95 113 -95s113 38 113 95
c0 56 -46 94 -113 94zM195 558c-71 0 -123 -42 -123 -100c0 -63 50 -104 123 -104s123 41 123 104c0 58 -52 100 -123 100z" />
    <glyph glyph-name="ninesuperior" unicode="&#x2079;" horiz-adv-x="388" 
d="M181 322c-79 0 -128 47 -138 123h35c11 -58 45 -91 103 -91c82 0 134 71 136 226h-2c-19 -50 -64 -84 -129 -84c-90 0 -150 62 -150 155c0 95 62 159 153 159c103 0 160 -73 160 -222c0 -176 -63 -266 -168 -266zM188 527c70 0 119 51 119 121c0 77 -43 130 -118 130
c-71 0 -119 -50 -119 -127c0 -74 47 -124 118 -124z" />
    <glyph glyph-name="zero.smcp" horiz-adv-x="448" 
d="M224 557c123 0 188 -97 188 -283c0 -185 -65 -283 -188 -283s-188 98 -188 283c0 186 65 283 188 283zM224 521c-98 0 -150 -84 -150 -247c0 -164 52 -248 150 -248s149 84 149 248c0 163 -51 247 -149 247z" />
    <glyph glyph-name="one.smcp" horiz-adv-x="448" 
d="M255 0h-38v468h-1c-18 -29 -56 -44 -121 -44v33c82 -1 118 24 128 91h32v-548z" />
    <glyph glyph-name="two.smcp" horiz-adv-x="448" 
d="M224 557c99 0 166 -61 166 -148c0 -93 -63 -134 -163 -190c-126 -69 -149 -115 -149 -184h325v-35h-361c-1 6 -1 12 -1 16c0 99 26 153 168 234c95 53 142 82 142 159c0 66 -50 112 -127 112c-85 0 -130 -47 -136 -125h-39c6 100 72 161 175 161z" />
    <glyph glyph-name="three.smcp" horiz-adv-x="448" 
d="M218 557c105 0 173 -59 173 -145c0 -69 -37 -110 -103 -131v-1c74 -22 113 -65 113 -139c0 -88 -77 -150 -184 -150c-112 0 -177 63 -177 162h38c0 -81 50 -127 139 -127c85 0 145 47 145 116c0 77 -57 120 -154 120h-31v34h31c90 0 144 44 144 114
c0 67 -54 112 -135 112c-84 0 -135 -43 -135 -126h-38c0 103 69 161 174 161z" />
    <glyph glyph-name="four.smcp" horiz-adv-x="448" 
d="M426 157h-107v-157h-37v157h-264v39l250 352h51v-356h107v-35zM56 192h226v83v231h-1c-50 -71 -99 -139 -150 -210z" />
    <glyph glyph-name="five.smcp" horiz-adv-x="448" 
d="M374 513h-257l-22 -218h1c25 38 71 60 127 60c108 0 176 -68 176 -178c0 -113 -72 -186 -183 -186c-100 0 -167 56 -167 151h39c0 -74 52 -115 127 -115c89 0 145 58 145 148s-53 145 -139 145c-65 0 -112 -32 -132 -95l-37 2l31 321h291v-35z" />
    <glyph glyph-name="six.smcp" horiz-adv-x="448" 
d="M237 557c92 0 149 -53 161 -141h-39c-13 68 -53 105 -122 105c-96 0 -158 -83 -158 -267h1c24 62 76 102 152 102c104 0 175 -73 175 -180c0 -111 -72 -185 -178 -185c-121 0 -186 85 -186 258c0 204 72 308 194 308zM228 320c-81 0 -139 -59 -139 -141
c0 -90 51 -152 140 -152c83 0 139 58 139 149c0 86 -55 144 -140 144z" />
    <glyph glyph-name="seven.smcp" horiz-adv-x="448" 
d="M403 548v-36c-89 -126 -173 -291 -222 -512h-42c57 238 141 396 223 513h-327v35h368z" />
    <glyph glyph-name="eight.smcp" horiz-adv-x="448" 
d="M224 557c99 0 172 -60 172 -146c0 -64 -42 -106 -103 -127v-1c69 -21 114 -66 114 -135c0 -93 -76 -157 -183 -157c-108 0 -183 64 -183 157c0 69 44 114 113 135v1c-60 21 -102 63 -102 127c0 86 72 146 172 146zM224 521c-78 0 -133 -44 -133 -110
c0 -67 53 -111 133 -111s132 44 132 111c0 66 -54 110 -132 110zM224 265c-84 0 -145 -49 -145 -116c0 -74 60 -122 145 -122s144 48 144 122c0 67 -60 116 -144 116z" />
    <glyph glyph-name="nine.smcp" horiz-adv-x="448" 
d="M210 -9c-91 0 -148 53 -160 141h38c14 -68 54 -105 122 -105c97 0 159 83 159 267h-1c-24 -62 -77 -102 -152 -102c-104 0 -175 73 -175 180c0 111 71 185 177 185c121 0 187 -85 187 -258c0 -204 -72 -308 -195 -308zM219 228c82 0 140 59 140 141
c0 90 -51 152 -141 152c-82 0 -139 -58 -139 -149c0 -86 56 -144 140 -144z" />
    <glyph glyph-name="zero.lf.smcp" horiz-adv-x="477" 
d="M238 557c123 0 189 -97 189 -283c0 -185 -66 -283 -189 -283s-188 98 -188 283c0 186 65 283 188 283zM238 521c-98 0 -149 -84 -149 -247c0 -164 51 -248 149 -248c99 0 150 84 150 248c0 163 -51 247 -150 247z" />
    <glyph glyph-name="one.lf.smcp" horiz-adv-x="276" 
d="M172 0h-37v468h-1c-18 -29 -56 -44 -121 -44v33c82 -1 118 24 128 91h31v-548z" />
    <glyph glyph-name="two.lf.smcp" horiz-adv-x="462" 
d="M234 557c99 0 166 -61 166 -148c0 -93 -63 -134 -163 -190c-126 -69 -149 -115 -149 -184h325v-35h-361c-1 6 -1 12 -1 16c0 99 26 153 168 234c95 53 142 82 142 159c0 66 -50 112 -127 112c-85 0 -130 -47 -136 -125h-39c6 100 72 161 175 161z" />
    <glyph glyph-name="three.lf.smcp" horiz-adv-x="457" 
d="M221 557c105 0 173 -59 173 -145c0 -69 -37 -110 -103 -131v-1c74 -22 113 -65 113 -139c0 -88 -77 -150 -184 -150c-112 0 -177 63 -177 162h38c0 -81 50 -127 139 -127c85 0 145 47 145 116c0 77 -57 120 -154 120h-31v34h31c90 0 144 44 144 114
c0 67 -54 112 -135 112c-84 0 -135 -43 -135 -126h-38c0 103 69 161 174 161z" />
    <glyph glyph-name="four.lf.smcp" horiz-adv-x="435" 
d="M421 157h-107v-157h-37v157h-264v39l250 352h51v-356h107v-35zM51 192h226v83v231h-1c-50 -71 -99 -139 -150 -210z" />
    <glyph glyph-name="five.lf.smcp" horiz-adv-x="457" 
d="M378 513h-257l-22 -218h2c25 38 71 60 126 60c108 0 177 -68 177 -178c0 -113 -73 -186 -184 -186c-100 0 -166 56 -166 151h38c1 -74 52 -115 128 -115c89 0 144 58 144 148s-53 145 -139 145c-65 0 -112 -32 -132 -95l-37 2l32 321h290v-35z" />
    <glyph glyph-name="six.lf.smcp" horiz-adv-x="460" 
d="M245 557c91 0 149 -53 161 -141h-39c-14 68 -53 105 -122 105c-97 0 -159 -83 -159 -267h1c25 62 77 102 152 102c105 0 176 -73 176 -180c0 -111 -72 -185 -178 -185c-121 0 -187 85 -187 258c0 204 72 308 195 308zM236 320c-81 0 -140 -59 -140 -141
c0 -90 52 -152 141 -152c83 0 139 58 139 149c0 86 -56 144 -140 144z" />
    <glyph glyph-name="seven.lf.smcp" horiz-adv-x="395" 
d="M381 548v-36c-89 -126 -173 -291 -222 -512h-42c57 238 141 396 223 513h-327v35h368z" />
    <glyph glyph-name="eight.lf.smcp" horiz-adv-x="462" 
d="M231 557c99 0 172 -60 172 -146c0 -64 -42 -106 -103 -127v-1c69 -21 114 -66 114 -135c0 -93 -76 -157 -183 -157s-183 64 -183 157c0 69 44 114 113 135v1c-60 21 -102 63 -102 127c0 86 73 146 172 146zM231 521c-78 0 -132 -44 -132 -110c0 -67 52 -111 132 -111
s132 44 132 111c0 66 -54 110 -132 110zM231 265c-84 0 -145 -49 -145 -116c0 -74 60 -122 145 -122s144 48 144 122c0 67 -60 116 -144 116z" />
    <glyph glyph-name="nine.lf.smcp" horiz-adv-x="460" 
d="M215 -9c-91 0 -148 53 -160 141h38c14 -68 54 -105 122 -105c97 0 159 83 159 267h-1c-25 -62 -77 -102 -152 -102c-105 0 -175 73 -175 180c0 111 71 185 177 185c121 0 187 -85 187 -258c0 -204 -72 -308 -195 -308zM224 228c82 0 140 59 140 141
c0 90 -51 152 -141 152c-82 0 -139 -58 -139 -149c0 -86 56 -144 140 -144z" />
    <glyph glyph-name="periodcentered" unicode="&#xb7;" horiz-adv-x="171" 
d="M110 266h-49v79h49v-79z" />
    <glyph glyph-name="bullet" unicode="&#x2022;" horiz-adv-x="310" 
d="M155 261c-52 0 -95 43 -95 95s43 95 95 95s95 -43 95 -95s-43 -95 -95 -95z" />
    <glyph glyph-name="ellipsis" unicode="&#x2026;" horiz-adv-x="569" 
d="M110 0h-49v79h49v-79zM309 0h-49v79h49v-79zM508 0h-49v79h49v-79z" />
    <glyph glyph-name="exclamdown" unicode="&#xa1;" horiz-adv-x="223" 
d="M89 508h45v-80h-45v80zM97 359h29l9 -563h-47z" />
    <glyph glyph-name="overline" unicode="&#x203e;" horiz-adv-x="500" 
d="M500 798h-500v32h500v-32z" />
    <glyph glyph-name="questiondown" unicode="&#xbf;" horiz-adv-x="447" 
d="M242 508h45v-80h-45v80zM240 -215c-117 0 -200 72 -200 174c0 70 20 108 112 184c80 68 96 99 96 220h33v-25c0 -108 -20 -147 -104 -218c-83 -71 -98 -102 -98 -161c0 -83 67 -139 161 -139c101 0 163 56 170 159h37c-8 -126 -84 -194 -207 -194z" />
    <glyph glyph-name="underscoredbl" unicode="&#x2017;" horiz-adv-x="500" 
d="M500 -76h-500v26h500v-26zM500 -196h-500v26h500v-26z" />
    <glyph glyph-name="periodcentered.case" horiz-adv-x="171" 
d="M110 316h-49v79h49v-79z" />
    <glyph glyph-name="exclamdown.case" horiz-adv-x="223" 
d="M89 712h45v-80h-45v80zM97 563h29l9 -563h-47z" />
    <glyph glyph-name="periodcentered.loclCAT.case" horiz-adv-x="80" 
d="M-82 356h-49v80h49v-80z" />
    <glyph glyph-name="questiondown.case" horiz-adv-x="483" 
d="M242 712h45v-80h-45v80zM240 -11c-117 0 -200 72 -200 174c0 70 20 108 112 184c80 68 96 99 96 220h33v-25c0 -108 -20 -147 -104 -218c-83 -71 -98 -102 -98 -161c0 -83 67 -139 161 -139c101 0 163 56 170 159h37c-8 -126 -84 -194 -207 -194z" />
    <glyph glyph-name="slash.case" horiz-adv-x="416" 
d="M100 0h-38l253 712h38z" />
    <glyph glyph-name="periodcentered.loclCAT" horiz-adv-x="124" 
d="M86 315h-49v79h49v-79z" />
    <glyph glyph-name="parenleftinferior" unicode="&#x208d;" horiz-adv-x="184" 
d="M132 347h31c-60 -99 -89 -190 -89 -311s29 -213 89 -311h-31c-61 90 -93 184 -93 311s32 220 93 311z" />
    <glyph glyph-name="parenleftsuperior" unicode="&#x207d;" horiz-adv-x="184" 
d="M132 849h31c-60 -99 -89 -190 -89 -311s29 -213 89 -311h-31c-61 90 -93 184 -93 311s32 220 93 311z" />
    <glyph glyph-name="parenrightinferior" unicode="&#x208e;" horiz-adv-x="184" 
d="M52 -275h-31c61 99 89 190 89 311s-28 213 -89 311h31c61 -90 93 -184 93 -311s-32 -220 -93 -311z" />
    <glyph glyph-name="parenrightsuperior" unicode="&#x207e;" horiz-adv-x="184" 
d="M52 227h-31c61 99 89 190 89 311s-28 213 -89 311h31c61 -90 93 -184 93 -311s-32 -220 -93 -311z" />
    <glyph glyph-name="braceleft.case" horiz-adv-x="279" 
d="M258 772v-29c-81 0 -114 -34 -114 -120v-146c0 -66 -18 -100 -75 -120v-2c57 -20 75 -54 75 -120v-146c0 -86 33 -120 114 -120v-29h-12c-93 0 -137 46 -137 151v144c0 63 -18 88 -69 105v33c51 16 69 42 69 105v143c0 105 44 151 137 151h12z" />
    <glyph glyph-name="braceright.case" horiz-adv-x="279" 
d="M21 772h12c93 0 137 -46 137 -151v-143c0 -63 18 -89 69 -105v-33c-51 -17 -69 -42 -69 -105v-144c0 -105 -44 -151 -137 -151h-12v29c81 0 114 34 114 120v146c0 66 18 100 75 120v2c-57 20 -75 54 -75 120v146c0 86 -33 120 -114 120v29z" />
    <glyph glyph-name="bracketleft.case" horiz-adv-x="258" 
d="M238 741h-122v-770h122v-31h-158v831h158v-30z" />
    <glyph glyph-name="bracketright.case" horiz-adv-x="258" 
d="M178 771v-831h-158v31h122v770h-122v30h158z" />
    <glyph glyph-name="parenleft.case" horiz-adv-x="250" 
d="M184 772h36c-85 -129 -125 -251 -125 -416s40 -287 125 -416h-36c-84 121 -128 245 -128 416s44 295 128 416z" />
    <glyph glyph-name="parenright.case" horiz-adv-x="250" 
d="M30 772h36c84 -121 128 -245 128 -416s-44 -295 -128 -416h-36c85 129 125 251 125 416s-40 287 -125 416z" />
    <glyph glyph-name="bracketleft.sups" horiz-adv-x="186" 
d="M172 820h-83v-564h83v-29h-116v622h116v-29z" />
    <glyph glyph-name="bracketright.sups" horiz-adv-x="186" 
d="M130 849v-622h-116v29h84v564h-84v29h116z" />
    <glyph glyph-name="emdash" unicode="&#x2014;" horiz-adv-x="1000" 
d="M980 274h-960v36h960v-36z" />
    <glyph glyph-name="endash" unicode="&#x2013;" horiz-adv-x="500" 
d="M480 274h-460v36h460v-36z" />
    <glyph glyph-name="horizontalbar" unicode="&#x2015;" horiz-adv-x="1000" 
d="M980 274h-960v36h960v-36z" />
    <glyph glyph-name="hyphentwo" unicode="&#x2010;" horiz-adv-x="281" 
d="M251 274h-221v36h221v-36z" />
    <glyph glyph-name="softhyphen" unicode="&#xad;" horiz-adv-x="281" 
d="M251 274h-221v36h221v-36z" />
    <glyph glyph-name="emdash.case" horiz-adv-x="1000" 
d="M980 337h-960v37h960v-37z" />
    <glyph glyph-name="endash.case" horiz-adv-x="500" 
d="M480 337h-460v37h460v-37z" />
    <glyph glyph-name="hyphen.case" horiz-adv-x="281" 
d="M251 337h-221v37h221v-37z" />
    <glyph glyph-name="guillemetleft" unicode="&#xab;" horiz-adv-x="391" 
d="M91 254l114 -200h-38l-114 200l114 200h38zM225 254l113 -200h-38l-114 200l114 200h38z" />
    <glyph glyph-name="guillemetright" unicode="&#xbb;" horiz-adv-x="391" 
d="M91 454l114 -200l-114 -200h-38l113 200l-113 200h38zM224 454l114 -200l-114 -200h-38l114 200l-114 200h38z" />
    <glyph glyph-name="guilsinglleft" unicode="&#x2039;" horiz-adv-x="257" 
d="M91 254l114 -200h-38l-114 200l114 200h38z" />
    <glyph glyph-name="guilsinglright" unicode="&#x203a;" horiz-adv-x="257" 
d="M91 454l114 -200l-114 -200h-38l113 200l-113 200h38z" />
    <glyph glyph-name="quotedblbase" unicode="&#x201e;" horiz-adv-x="315" 
d="M124 -9l-37 -127h-27l30 127h-13v79h47v-79zM248 -9l-37 -127h-27l30 127h-13v79h47v-79z" />
    <glyph glyph-name="quotedblleft" unicode="&#x201c;" horiz-adv-x="315" 
d="M66 585l37 127h28l-31 -127h14v-79h-48v79zM191 585l37 127h27l-30 -127h13v-79h-47v79z" />
    <glyph glyph-name="quotedblright" unicode="&#x201d;" horiz-adv-x="315" 
d="M124 633l-37 -127h-27l30 127h-13v79h47v-79zM249 633l-37 -127h-28l31 127h-14v79h48v-79z" />
    <glyph glyph-name="quoteleft" unicode="&#x2018;" horiz-adv-x="191" 
d="M66 585l37 127h28l-31 -127h14v-79h-48v79z" />
    <glyph glyph-name="quoteright" unicode="&#x2019;" horiz-adv-x="191" 
d="M124 633l-37 -127h-27l30 127h-13v79h47v-79z" />
    <glyph glyph-name="quotesinglbase" unicode="&#x201a;" horiz-adv-x="191" 
d="M124 -9l-37 -127h-27l30 127h-13v79h47v-79z" />
    <glyph glyph-name="guillemetleft.case" horiz-adv-x="391" 
d="M91 356l114 -200h-38l-114 200l114 200h38zM225 356l113 -200h-38l-114 200l114 200h38z" />
    <glyph glyph-name="guillemetright.case" horiz-adv-x="391" 
d="M91 556l114 -200l-114 -200h-38l113 200l-113 200h38zM224 556l114 -200l-114 -200h-38l114 200l-114 200h38z" />
    <glyph glyph-name="guilsinglleft.case" horiz-adv-x="257" 
d="M91 356l114 -200h-38l-114 200l114 200h38z" />
    <glyph glyph-name="guilsinglright.case" horiz-adv-x="257" 
d="M91 556l114 -200l-114 -200h-38l113 200l-113 200h38z" />
    <glyph glyph-name="quoteright.loclFRA" horiz-adv-x="236" 
d="M147 633l-37 -127h-28l31 127h-14v79h48v-79z" />
    <glyph glyph-name="periodcentered.loclCAT.smcp" horiz-adv-x="60" 
d="M-61 279h-49v80h49v-80z" />
    <glyph glyph-name="nbspace" unicode="&#xa0;" horiz-adv-x="230" 
 />
    <glyph glyph-name="cent" unicode="&#xa2;" horiz-adv-x="520" 
d="M290 565v-463c79 8 134 70 141 151h37c-9 -102 -77 -176 -178 -184v-89h-34v88c-127 8 -204 107 -204 265c0 159 77 258 204 266v86h34v-87c100 -7 170 -78 178 -178h-37c-7 80 -62 138 -141 145zM90 333c0 -138 62 -224 166 -231v463c-104 -7 -166 -93 -166 -232z" />
    <glyph glyph-name="currency" unicode="&#xa4;" horiz-adv-x="520" 
d="M462 291c0 -58 -17 -107 -47 -143l79 -83l-27 -25l-77 83c-34 -27 -78 -43 -130 -43s-96 15 -130 43l-78 -83l-27 25l79 83c-30 37 -47 86 -47 143s17 106 47 143l-79 83l27 25l78 -83c34 28 78 43 130 43s96 -16 130 -43l77 83l27 -25l-79 -83c30 -36 47 -85 47 -143z
M260 115c100 0 166 69 166 176s-66 176 -166 176c-101 0 -166 -69 -166 -176s65 -176 166 -176z" />
    <glyph glyph-name="euro" unicode="&#x20ac;" horiz-adv-x="520" 
d="M464 197h38c-18 -137 -93 -208 -216 -208c-137 0 -218 94 -235 275h-50l6 33h42c-1 13 -1 26 -1 40l1 34h-48l6 33h44c15 185 98 281 237 281c125 0 198 -70 210 -205h-38c-12 112 -71 169 -172 169c-118 0 -184 -84 -198 -245h282l-7 -33h-277l-1 -34c0 -14 0 -27 1 -40
h264l-6 -33h-256c15 -157 82 -239 196 -239c101 0 162 59 178 172z" />
    <glyph glyph-name="florin" unicode="&#x192;" horiz-adv-x="520" 
d="M465 715c10 0 22 -2 30 -4v-34c-7 2 -18 3 -29 3c-64 0 -91 -31 -114 -120l-23 -92h104v-31h-112l-115 -457c-33 -128 -72 -167 -154 -167c-9 0 -18 1 -27 2v35c9 -2 18 -3 26 -3c58 0 90 27 120 141l113 449h-101v31h109l25 98c28 111 64 149 148 149z" />
    <glyph glyph-name="franc" unicode="&#x20a3;" horiz-adv-x="520" 
d="M146 639v-252h319v-35h-319v-160h180v-34h-180v-158h-38v158h-80v34h80v482h377v-35h-339z" />
    <glyph glyph-name="lira" unicode="&#x20a4;" horiz-adv-x="520" 
d="M108 34h368v-34h-452v34c67 0 106 45 106 139v82h-106v34h106v75h-106v34h106v90c0 129 65 197 174 197c107 0 173 -74 173 -196h-36c0 103 -52 161 -137 161c-88 0 -138 -57 -138 -162v-90h132v-34h-132v-75h132v-34h-132v-82c0 -82 -27 -119 -58 -138v-1z" />
    <glyph glyph-name="liraTurkish" unicode="&#x20ba;" horiz-adv-x="520" 
d="M450 312h38c0 -209 -121 -314 -330 -314c-12 0 -25 0 -36 1v320l-97 -53v38l97 53v105l-97 -53v38l97 53v174h37v-158l169 92v-38l-169 -92v-105l169 92v-38l-169 -92v-302c184 0 291 92 291 279z" />
    <glyph glyph-name="peseta" unicode="&#x20a7;" horiz-adv-x="775" 
d="M709 31c12 0 27 2 35 4v-33c-10 -2 -27 -4 -39 -4c-74 0 -106 36 -106 125v353h-85c0 -115 -76 -196 -227 -196h-146v-280h-37v674h183c137 0 212 -67 225 -166h87v117h36v-117h104v-32h-104v-353c0 -66 20 -92 74 -92zM141 315h146c127 0 188 66 188 162
s-61 162 -188 162h-146v-324z" />
    <glyph glyph-name="ruble" unicode="&#x20bd;" horiz-adv-x="520" 
d="M95 674h187c138 0 207 -76 207 -187s-69 -188 -207 -188h-151v-93h211v-34h-211v-172h-36v172h-83v34h83v93h-83v34h83v341zM131 640v-307h151c114 0 170 62 170 154s-56 153 -170 153h-151z" />
    <glyph glyph-name="rupeeIndian" unicode="&#x20b9;" horiz-adv-x="520" 
d="M289 640v-1c50 -17 82 -51 91 -105h112l-10 -33h-100c-1 -89 -69 -155 -183 -172v-2c50 -21 84 -58 120 -131l96 -196h-42l-90 185c-46 95 -98 132 -175 132h-15v34h36c137 0 213 63 215 150h-317l10 33h304c-14 72 -83 106 -198 106h-116l10 34h455l-10 -34h-193z" />
    <glyph glyph-name="sterling" unicode="&#xa3;" horiz-adv-x="520" 
d="M108 34h368v-34h-452v34c67 0 106 45 106 139v137h-106v33h106v145c0 129 65 197 174 197c107 0 173 -74 173 -196h-36c0 103 -52 161 -137 161c-88 0 -138 -57 -138 -162v-145h132v-33h-132v-137c0 -82 -27 -119 -58 -138v-1z" />
    <glyph glyph-name="yen" unicode="&#xa5;" horiz-adv-x="520" 
d="M301 356h163v-34h-186v-78h186v-34h-186v-210h-37v210h-185v34h185v78h-185v34h162l-212 318h44l77 -115c44 -67 88 -133 132 -199h1l135 201l74 113h45z" />
    <glyph glyph-name="Ohm" unicode="&#x2126;" horiz-adv-x="720" 
d="M360 723c178 0 304 -102 304 -316c0 -152 -80 -265 -182 -370v-2h193v-35h-238v36c106 109 188 217 188 370c0 190 -110 281 -265 281s-266 -91 -266 -281c0 -153 83 -261 189 -370v-36h-238v35h193v2c-102 105 -182 218 -182 370c0 214 126 316 304 316z" />
    <glyph glyph-name="approxequal" unicode="&#x2248;" horiz-adv-x="566" 
d="M180 472c95 0 128 -105 206 -105c46 0 75 37 75 92h33c0 -75 -43 -126 -108 -126c-94 0 -128 105 -206 105c-46 0 -75 -36 -75 -92h-33c0 75 43 126 108 126zM180 301c95 0 128 -105 206 -105c46 0 75 36 75 92h33c0 -75 -43 -126 -108 -126c-94 0 -128 105 -206 105
c-46 0 -75 -37 -75 -92h-33c0 75 43 126 108 126z" />
    <glyph glyph-name="bulletoperator" unicode="&#x2219;" horiz-adv-x="293" 
d="M171 266h-49v79h49v-79z" />
    <glyph glyph-name="divide" unicode="&#xf7;" horiz-adv-x="566" 
d="M302 438h-38v65h38v-65zM491 300h-416v34h416v-34zM302 131h-38v65h38v-65z" />
    <glyph glyph-name="divisionslash" unicode="&#x2215;" horiz-adv-x="416" 
d="M68 -89h-38l297 834h38z" />
    <glyph glyph-name="equalinferior" unicode="&#x208c;" horiz-adv-x="405" 
d="M352 85h-300v30h300v-30zM352 -15h-300v30h300v-30z" />
    <glyph glyph-name="equalsuperior" unicode="&#x207c;" horiz-adv-x="405" 
d="M353 587h-300v30h300v-30zM353 487h-300v30h300v-30z" />
    <glyph glyph-name="greaterequal" unicode="&#x2265;" horiz-adv-x="566" 
d="M491 340v-46l-416 -184v38l381 168v2l-381 168v38zM491 0h-416v34h416v-34z" />
    <glyph glyph-name="increment" unicode="&#x2206;" horiz-adv-x="647" 
d="M641 0h-635l292 712h51zM586 35l-137 338c-43 104 -83 204 -125 306h-1c-42 -102 -82 -202 -125 -306l-138 -338h526z" />
    <glyph glyph-name="infinity" unicode="&#x221e;" horiz-adv-x="574" 
d="M440 438c70 0 119 -53 119 -130s-49 -130 -119 -130c-74 0 -116 49 -153 102c-37 -53 -78 -102 -152 -102c-71 0 -120 53 -120 130s49 130 120 130c74 0 115 -49 152 -102c37 53 79 102 153 102zM137 212c61 0 96 46 131 96c-35 50 -70 96 -131 96c-53 0 -87 -37 -87 -96
s34 -96 87 -96zM437 212c54 0 88 37 88 96s-34 96 -88 96c-61 0 -96 -46 -131 -96c35 -50 70 -96 131 -96z" />
    <glyph glyph-name="integral" unicode="&#x222b;" horiz-adv-x="277" 
d="M231 715c11 0 24 -1 33 -3v-33c-7 2 -19 4 -29 4c-52 0 -78 -29 -78 -98v-646c0 -86 -39 -127 -111 -127c-11 0 -23 1 -32 3v33c6 -2 18 -4 28 -4c53 0 79 29 79 98v646c0 86 38 127 110 127z" />
    <glyph glyph-name="lessequal" unicode="&#x2264;" horiz-adv-x="566" 
d="M491 486l-381 -168v-2l381 -168v-38l-416 184v46l416 184v-38zM491 34v-34h-416v34h416z" />
    <glyph glyph-name="logicalnot" unicode="&#xac;" horiz-adv-x="566" 
d="M491 152h-34v256h-382v34h416v-290z" />
    <glyph glyph-name="micro" unicode="&#xb5;" horiz-adv-x="556" 
d="M464 508v-388c0 -73 13 -91 49 -91c9 0 16 1 24 4v-32c-11 -3 -21 -5 -34 -5c-49 0 -71 24 -74 97h-1c-27 -62 -90 -102 -164 -102c-70 0 -117 30 -140 83v-259h-36v693h36v-306c0 -127 53 -178 142 -178c87 0 162 64 162 177v307h36z" />
    <glyph glyph-name="minus" unicode="&#x2212;" horiz-adv-x="566" 
d="M491 300h-416v34h416v-34z" />
    <glyph glyph-name="minusinferior" unicode="&#x208b;" horiz-adv-x="405" 
d="M352 35h-300v30h300v-30z" />
    <glyph glyph-name="minussuperior" unicode="&#x207b;" horiz-adv-x="405" 
d="M353 537h-300v30h300v-30z" />
    <glyph glyph-name="multiply" unicode="&#xd7;" horiz-adv-x="566" 
d="M510 510l-204 -204l204 -204l-23 -23l-204 204l-203 -203l-23 23l203 203l-203 203l23 23l203 -203l204 204z" />
    <glyph glyph-name="notequal" unicode="&#x2260;" horiz-adv-x="566" 
d="M339 368l-72 -103h224v-34h-248l-98 -141h-39l98 141h-129v34h153l71 103h-224v34h248l98 141h40l-98 -141h128v-34h-152z" />
    <glyph glyph-name="partialdiff" unicode="&#x2202;" horiz-adv-x="576" 
d="M264 723c151 0 236 -122 236 -363c0 -261 -107 -371 -238 -371c-136 0 -208 92 -208 230c0 144 81 255 219 255c102 0 168 -63 186 -149h2c1 16 1 33 1 51c0 201 -73 311 -198 311c-93 0 -136 -51 -146 -132h-39c10 100 67 168 185 168zM275 438
c-114 0 -182 -94 -182 -220c0 -118 56 -193 169 -193c118 0 184 104 184 222c0 112 -66 191 -171 191z" />
    <glyph glyph-name="perthousand" unicode="&#x2030;" horiz-adv-x="904" 
d="M110 -30h-39l424 734h39zM149 686c76 0 120 -57 120 -159c0 -103 -44 -160 -120 -160s-119 57 -119 160c0 102 43 159 119 159zM149 654c-53 0 -83 -45 -83 -127c0 -83 30 -128 83 -128c54 0 83 45 83 128c0 82 -29 127 -83 127zM456 309c75 0 119 -58 119 -160
s-44 -160 -119 -160c-76 0 -120 58 -120 160s44 160 120 160zM755 309c76 0 119 -58 119 -160s-43 -160 -119 -160s-119 58 -119 160s43 160 119 160zM456 276c-54 0 -83 -45 -83 -127s29 -127 83 -127c53 0 82 45 82 127s-29 127 -82 127zM755 276c-53 0 -83 -45 -83 -127
s30 -127 83 -127s83 45 83 127s-30 127 -83 127z" />
    <glyph glyph-name="plusinferior" unicode="&#x208a;" horiz-adv-x="405" 
d="M217 65h135v-30h-135v-131h-29v131h-136v30h136v131h29v-131z" />
    <glyph glyph-name="plusminus" unicode="&#xb1;" horiz-adv-x="566" 
d="M300 338h191v-34h-191v-190h-34v190h-191v34h191v192h34v-192zM491 0h-416v34h416v-34z" />
    <glyph glyph-name="plussuperior" unicode="&#x207a;" horiz-adv-x="405" 
d="M217 567h136v-30h-136v-131h-29v131h-135v30h135v131h29v-131z" />
    <glyph glyph-name="product" unicode="&#x220f;" horiz-adv-x="637" 
d="M534 -120h-38v797h-355v-797h-37v832h430v-832z" />
    <glyph glyph-name="radical" unicode="&#x221a;" horiz-adv-x="508" 
d="M250 -120h-42l-103 431h-80v32h106l98 -414h2l223 783h34z" />
    <glyph glyph-name="summation" unicode="&#x2211;" horiz-adv-x="456" 
d="M421 678h-345l229 -387l-229 -377h345v-34h-386v34l230 377l-230 387v34h386v-34z" />
    <glyph glyph-name="lozenge" unicode="&#x25ca;" horiz-adv-x="550" 
d="M510 356l-213 -356h-44l-213 356l213 356h44zM78 356l197 -327l197 327l-197 327z" />
    <glyph glyph-name="apple" unicode="&#xf8ff;" horiz-adv-x="600" 
d="M150 777h295c77 0 124 -47 124 -124v-594c0 -77 -47 -124 -124 -124h-295c-76 0 -123 47 -123 124v594c0 77 47 124 123 124zM445 749h-295c-59 0 -96 -37 -96 -96v-594c0 -59 37 -96 96 -96h295c59 0 96 37 96 96v594c0 59 -37 96 -96 96zM294 644
c94 0 160 -58 160 -141c0 -56 -15 -86 -87 -147c-63 -54 -74 -77 -74 -172h-33v21c0 86 15 117 81 174c63 55 74 79 74 124c0 64 -49 106 -121 106c-77 0 -124 -43 -129 -122h-37c7 102 67 157 166 157zM298 65h-45v68h45v-68z" />
    <glyph glyph-name="brokenbar" unicode="&#xa6;" horiz-adv-x="248" 
d="M141 382h-34v350h34v-350zM141 -205h-34v350h34v-350z" />
    <glyph glyph-name="paragraph" unicode="&#xb6;" horiz-adv-x="521" 
d="M500 683h-80v-803h-30v803h-91v-803h-30v445h-46c-112 0 -183 76 -183 194s71 193 183 193h277v-29z" />
    <glyph glyph-name="copyright" unicode="&#xa9;" horiz-adv-x="819" 
d="M409 722c214 0 357 -147 357 -366s-143 -366 -357 -366c-213 0 -356 147 -356 366s143 366 356 366zM409 694c-197 0 -328 -135 -328 -338s131 -338 328 -338s329 135 329 338s-132 338 -329 338zM410 609c113 0 178 -75 184 -168h-38c-6 75 -59 132 -146 132
c-104 0 -168 -83 -168 -218c0 -133 63 -216 165 -216c86 0 143 56 152 135h38c-11 -101 -81 -171 -190 -171c-125 0 -204 97 -204 252c0 157 80 254 207 254z" />
    <glyph glyph-name="registered" unicode="&#xae;" horiz-adv-x="580" 
d="M290 723c146 0 245 -101 245 -251c0 -151 -99 -252 -245 -252c-147 0 -245 101 -245 252c0 150 98 251 245 251zM290 700c-133 0 -221 -92 -221 -228c0 -137 88 -229 221 -229s221 92 221 229c0 136 -88 228 -221 228zM188 635h100c71 0 105 -34 105 -88
c0 -40 -24 -71 -61 -78v-2c22 -5 33 -18 46 -54l34 -98h-33l-30 89c-12 38 -29 51 -65 51h-66v-140h-30v320zM218 607v-124h66c54 0 78 27 78 64c0 36 -23 60 -78 60h-66z" />
    <glyph glyph-name="published" unicode="&#x2117;" horiz-adv-x="819" 
d="M409 722c214 0 357 -147 357 -366s-143 -366 -357 -366c-213 0 -356 147 -356 366s143 366 356 366zM409 694c-197 0 -328 -135 -328 -338s131 -338 328 -338s329 135 329 338s-132 338 -329 338zM277 594h163c110 0 168 -56 168 -141s-58 -141 -168 -141h-125v-208h-38
v490zM315 558v-210h125c85 0 129 40 129 105s-44 105 -129 105h-125z" />
    <glyph glyph-name="section" unicode="&#xa7;" horiz-adv-x="513" 
d="M246 723c102 0 158 -55 160 -159h-36c-2 85 -43 126 -124 126c-70 0 -115 -40 -115 -103c0 -68 30 -82 145 -138c145 -71 173 -103 173 -181c0 -58 -28 -106 -85 -143v-1c39 -31 53 -66 53 -119c0 -92 -61 -148 -163 -148c-112 0 -169 58 -169 171h36
c0 -91 40 -138 133 -138c80 0 126 43 126 115c0 79 -38 99 -155 157c-125 62 -161 94 -161 176c0 55 28 104 82 141v1c-36 28 -52 57 -52 107c0 81 61 136 152 136zM173 462c-52 -38 -74 -77 -74 -121c0 -62 30 -92 144 -148c36 -17 73 -37 95 -51c47 31 76 74 76 123
c0 61 -23 90 -148 149c-31 15 -67 33 -93 48z" />
    <glyph glyph-name="trademark" unicode="&#x2122;" horiz-adv-x="754" 
d="M291 682h-127v-326h-32v326h-127v30h286v-30zM702 356h-32v182v136h-1c-19 -46 -36 -91 -55 -137l-71 -181h-37l-71 181c-19 46 -36 91 -55 137h-1v-136v-182h-32v356h52l70 -181l55 -139h1l54 139l71 181h52v-356z" />
    <glyph glyph-name="degree" unicode="&#xb0;" horiz-adv-x="298" 
d="M149 722c58 0 106 -47 106 -106c0 -58 -48 -105 -106 -105s-105 47 -105 105c0 59 47 106 105 106zM149 693c-42 0 -76 -35 -76 -77c0 -41 34 -76 76 -76s77 35 77 76c0 42 -35 77 -77 77z" />
    <glyph glyph-name="estimated" unicode="&#x212e;" horiz-adv-x="857" 
d="M429 685c241 0 381 -166 381 -360h-609c-8 0 -13 -5 -13 -12v-166c0 -20 3 -32 15 -43c58 -57 133 -91 226 -91c98 0 185 45 238 109h68c-45 -63 -144 -134 -306 -134c-232 0 -382 146 -382 347c0 197 144 350 382 350zM429 659c-93 0 -168 -35 -226 -93
c-12 -11 -15 -22 -15 -40v-166c0 -8 5 -13 13 -13h453c8 0 13 5 13 13v166c0 18 -2 29 -15 40c-68 67 -146 93 -223 93z" />
    <glyph glyph-name="literSign" unicode="&#x2113;" horiz-adv-x="433" 
d="M162 205v-80c0 -71 24 -100 82 -100c15 0 36 3 51 9v-33c-17 -6 -40 -9 -57 -9c-76 0 -112 41 -112 133v76h-10c-18 0 -37 2 -52 5v28c16 -3 34 -5 52 -5h10v267c0 146 34 189 102 189c60 0 109 -49 109 -188c0 -186 -71 -273 -175 -292zM162 500v-266
c87 19 145 97 145 263c0 118 -35 157 -78 157c-46 0 -67 -33 -67 -154z" />
    <glyph glyph-name="dagger" unicode="&#x2020;" horiz-adv-x="510" 
d="M274 505h182v-33h-182v-592h-38v592h-182v33h182v207h38v-207z" />
    <glyph glyph-name="daggerdbl" unicode="&#x2021;" horiz-adv-x="510" 
d="M274 506h182v-34h-182v-277h182v-34h-182v-281h-38v281h-182v34h182v277h-182v34h182v206h38v-206z" />
    <glyph glyph-name="interrobang" unicode="&#x203d;" horiz-adv-x="483" 
d="M261 712l-1 -74c107 -5 183 -69 183 -159c0 -69 -19 -107 -109 -181c-63 -51 -78 -69 -78 -153h-30l-7 457c-87 -9 -140 -60 -147 -149h-36c7 110 74 174 182 184l-1 75h44zM312 321c78 69 92 100 92 158c0 72 -59 120 -145 124l-5 -346h2c9 20 25 37 56 64zM218 80h45
v-80h-45v80z" />
    <glyph glyph-name="ampersand.smcp" horiz-adv-x="584" 
d="M521 0l-83 79c-48 -55 -114 -89 -191 -89c-117 0 -186 65 -187 153c1 77 43 124 137 167c-61 57 -75 87 -75 136c0 66 51 113 122 113c75 0 123 -48 123 -114c0 -61 -29 -102 -112 -142l178 -169c28 46 43 104 43 171h38c0 -77 -20 -143 -54 -197l114 -108h-53zM157 445
c0 -39 14 -63 73 -120c82 39 102 72 102 119c0 46 -33 82 -88 82c-52 0 -87 -32 -87 -81zM247 25c69 0 124 29 165 79l-192 182c-90 -41 -121 -81 -121 -143c0 -68 56 -118 148 -118z" />
    <glyph glyph-name="acute" unicode="&#xb4;" horiz-adv-x="241" 
d="M86 573h-36l93 139h48z" />
    <glyph glyph-name="breve" unicode="&#x2d8;" horiz-adv-x="388" 
d="M306 712h32c-8 -83 -59 -132 -144 -132s-136 49 -144 132h32c8 -66 47 -101 112 -101s104 35 112 101z" />
    <glyph glyph-name="caron" unicode="&#x2c7;" horiz-adv-x="374" 
d="M207 573h-40l-117 139h42l95 -113l94 113h43z" />
    <glyph glyph-name="cedilla" unicode="&#xb8;" horiz-adv-x="289" 
d="M182 0l-44 -66c5 1 13 2 21 2c48 0 80 -26 80 -69c0 -44 -33 -78 -97 -78c-35 0 -66 10 -92 25l11 22c25 -14 51 -20 78 -20c43 0 67 19 67 50c0 30 -21 48 -61 48c-12 0 -23 -2 -32 -5l-13 14l52 77h30z" />
    <glyph glyph-name="circumflex" unicode="&#x2c6;" horiz-adv-x="374" 
d="M281 573l-94 113l-95 -113h-42l117 139h40l117 -139h-43z" />
    <glyph glyph-name="dieresis" unicode="&#xa8;" horiz-adv-x="319" 
d="M86 631h-36v81h36v-81zM269 631h-36v81h36v-81z" />
    <glyph glyph-name="dotaccent" unicode="&#x2d9;" horiz-adv-x="136" 
d="M86 631h-36v81h36v-81z" />
    <glyph glyph-name="hungarumlaut" unicode="&#x2dd;" horiz-adv-x="385" 
d="M86 573h-36l117 139h49zM206 573h-36l117 139h48z" />
    <glyph glyph-name="macron" unicode="&#xaf;" horiz-adv-x="342" 
d="M292 637h-242v32h242v-32z" />
    <glyph glyph-name="ogonek" unicode="&#x2db;" horiz-adv-x="220" 
d="M133 5l34 -5c-63 -50 -82 -81 -82 -117c0 -28 16 -44 49 -44c13 0 26 2 36 6v-29c-10 -4 -23 -6 -39 -6c-56 0 -81 27 -81 70c0 45 25 78 83 125z" />
    <glyph glyph-name="ring" unicode="&#x2da;" horiz-adv-x="280" 
d="M140 762c49 0 90 -40 90 -90s-41 -90 -90 -90c-50 0 -90 40 -90 90s40 90 90 90zM140 736c-36 0 -64 -28 -64 -64s28 -64 64 -64s64 28 64 64s-28 64 -64 64z" />
    <glyph glyph-name="tilde" unicode="&#x2dc;" horiz-adv-x="407" 
d="M326 702h31c-4 -60 -35 -92 -80 -92c-60 0 -97 60 -147 60c-29 0 -46 -21 -49 -60h-31c4 60 35 92 80 92c60 0 97 -60 146 -60c29 0 47 21 50 60z" />
    <glyph glyph-name="acute.case" horiz-adv-x="249" 
d="M87 760h-37l99 130h50z" />
    <glyph glyph-name="breve.case" horiz-adv-x="388" 
d="M306 890h32c-8 -84 -59 -132 -144 -132s-136 48 -144 132h32c8 -66 47 -101 112 -101s104 35 112 101z" />
    <glyph glyph-name="caron.alt" horiz-adv-x="175" 
d="M76 537h-26l36 175h39z" />
    <glyph glyph-name="caron.case" horiz-adv-x="375" 
d="M207 760h-40l-117 130h43l94 -104l95 104h43z" />
    <glyph glyph-name="caron.alt.case" horiz-adv-x="175" 
d="M76 498h-26l36 214h39z" />
    <glyph glyph-name="circumflex.case" horiz-adv-x="374" 
d="M167 890h40l118 -130h-43l-95 104l-94 -104h-43z" />
    <glyph glyph-name="dieresis.case" horiz-adv-x="319" 
d="M86 779h-36v81h36v-81zM269 779h-36v81h36v-81z" />
    <glyph glyph-name="dotaccent.case" horiz-adv-x="136" 
d="M86 769h-36v81h36v-81z" />
    <glyph glyph-name="grave.case" horiz-adv-x="249" 
d="M99 890l100 -130h-38l-111 130h49z" />
    <glyph glyph-name="hungarumlaut.case" horiz-adv-x="385" 
d="M86 757h-36l117 133h49zM206 757h-36l117 133h48z" />
    <glyph glyph-name="macron.case" horiz-adv-x="342" 
d="M292 798h-242v32h242v-32z" />
    <glyph glyph-name="breve.narrow" horiz-adv-x="345" 
d="M263 712h32c-5 -83 -48 -132 -123 -132c-74 0 -117 49 -122 132h32c5 -66 36 -101 90 -101c55 0 86 35 91 101z" />
    <glyph glyph-name="circumflex.narrow" horiz-adv-x="337" 
d="M287 574h-41l-77 112l-77 -112h-42l97 138h43z" />
    <glyph glyph-name="dieresis.narrow" horiz-adv-x="279" 
d="M86 635h-36v77h36v-77zM229 635h-36v77h36v-77z" />
    <glyph glyph-name="macron.narrow" horiz-adv-x="312" 
d="M262 637h-212v32h212v-32z" />
    <glyph glyph-name="tilde.narrow" horiz-adv-x="367" 
d="M288 702h29c-3 -60 -32 -92 -74 -92c-51 0 -79 60 -120 60c-26 0 -41 -20 -44 -60h-29c3 60 31 92 73 92c52 0 80 -60 120 -60c27 0 42 20 45 60z" />
    <glyph glyph-name="ring.case" horiz-adv-x="280" 
d="M140 940c49 0 90 -41 90 -90c0 -50 -41 -90 -90 -90c-50 0 -90 40 -90 90c0 49 40 90 90 90zM140 914c-36 0 -64 -28 -64 -64s28 -64 64 -64s64 28 64 64s-28 64 -64 64z" />
    <glyph glyph-name="cedilla.ss01" horiz-adv-x="261" 
d="M99 -207h-49l125 158h36z" />
    <glyph glyph-name="tilde.case" horiz-adv-x="407" 
d="M326 880h31c-4 -60 -35 -92 -80 -92c-60 0 -97 60 -147 60c-29 0 -46 -21 -49 -60h-31c4 60 35 92 80 92c60 0 97 -60 146 -60c29 0 47 21 50 60z" />
    <glyph glyph-name="commaaccent" unicode="&#x326;" horiz-adv-x="0" 
d="M109 -146l-39 -98h-20l31 98h-13v72h41v-72z" />
    <glyph glyph-name="commaturnedabovecomb" unicode="&#x312;" horiz-adv-x="0" 
d="M78 659h13v-72h-41v72l39 98h20z" />
    <glyph glyph-name="apostrophemod" unicode="&#x2bc;" horiz-adv-x="191" 
d="M124 633l-37 -127h-27l30 127h-13v79h47v-79z" />
    <glyph glyph-name="firsttonechinese" unicode="&#x2c9;" horiz-adv-x="342" 
d="M292 637h-242v32h242v-32z" />
    <glyph glyph-name="uniFEFF" unicode="&#xfeff;" horiz-adv-x="0" 
 />
    <glyph glyph-name="uni20BC" unicode="&#x20bc;" horiz-adv-x="600" 
d="M50 0v315c0 196 69 266 231 271v126h37v-126c162 -5 232 -75 232 -271v-315h-38v315c0 172 -55 229 -194 233v-548h-37v548c-139 -4 -194 -61 -194 -233v-315h-37z" />
    <glyph glyph-name="bracketleftinferior" horiz-adv-x="186" 
d="M172 318h-83v-564h83v-29h-116v622h116v-29z" />
    <glyph glyph-name="bracketrightinferior" horiz-adv-x="186" 
d="M130 347v-622h-116v29h84v564h-84v29h116z" />
    </font>
</defs>
</svg>
