<?xml version="1.0" encoding="UTF-8"?>
<!DOCTYPE svg PUBLIC "-//W3C//DTD SVG 1.1//EN" "http://www.w3.org/Graphics/SVG/1.1/DTD/svg11.dtd">
<!-- Creator: CorelDRAW X6 -->
<svg xmlns="http://www.w3.org/2000/svg" xml:space="preserve" width="10.6667in" height="6.45833in" version="1.1" style="shape-rendering:geometricPrecision; text-rendering:geometricPrecision; image-rendering:optimizeQuality; fill-rule:evenodd; clip-rule:evenodd"
viewBox="0 0 10667 6458"
 xmlns:xlink="http://www.w3.org/1999/xlink">
 <defs>
  <style type="text/css">
   <![CDATA[
    .fil0 {fill:white;fill-rule:nonzero}
   ]]>
  </style>
 </defs>
 <g id="Layer_x0020_1">
  <metadata id="CorelCorpID_0Corel-Layer"/>
  <path class="fil0" d="M1316 3811l0 316c0,50 15,85 153,85 116,0 218,-41 220,-183 0,-155 -109,-218 -262,-218l-111 0zm0 -61l116 0c129,0 216,-46 216,-172 -2,-140 -111,-175 -227,-172 -79,0 -105,7 -105,55l0 288zm168 -404c236,-2 349,66 349,218 0,105 -72,187 -216,205l0 6c122,11 257,72 262,242 2,183 -139,255 -349,257l-534 0 0 -52c133,-7 142,-9 142,-105l0 -613c0,-96 -11,-98 -142,-105l0 -52 488 0z"/>
  <path class="fil0" d="M2879 3346l0 233 -52 0c-20,-153 -90,-172 -229,-172l-135 0c-31,0 -41,13 -41,46l0 308 183 0c120,0 144,-22 157,-122l52 0 0 305 -52 0c-13,-100 -37,-122 -157,-122l-183 0 0 264c0,54 9,85 30,102 20,15 79,24 164,24 103,0 168,-11 201,-41 28,-28 50,-92 61,-150l52 0 -17 251 -811 0 0 -52c133,-7 142,-9 142,-105l0 -613c0,-96 -11,-98 -142,-105l0 -52 776 0z"/>
  <path class="fil0" d="M3763 3597c-35,-159 -109,-212 -231,-212 -111,0 -174,61 -174,155 0,116 124,144 211,172 105,33 310,85 310,294 0,155 -107,290 -369,290 -96,0 -231,-26 -303,-81l-13 -249 52 0c42,163 126,270 279,270 118,0 192,-61 192,-168 0,-124 -105,-161 -201,-190 -155,-46 -310,-111 -310,-275 0,-163 120,-277 344,-277 100,0 199,20 266,61l0 212 -52 0z"/>
  <path class="fil0" d="M4729 3597c-35,-159 -109,-212 -231,-212 -111,0 -174,61 -174,155 0,116 124,144 211,172 105,33 310,85 310,294 0,155 -107,290 -369,290 -96,0 -231,-26 -303,-81l-13 -249 52 0c42,163 126,270 279,270 118,0 192,-61 192,-168 0,-124 -105,-161 -201,-190 -155,-46 -310,-111 -310,-275 0,-163 120,-277 344,-277 100,0 199,20 266,61l0 212 -52 0z"/>
  <path class="fil0" d="M5859 3346l0 233 -52 0c-20,-153 -91,-172 -229,-172l-135 0c-31,0 -41,13 -41,46l0 308 183 0c120,0 144,-22 157,-122l52 0 0 305 -52 0c-13,-100 -37,-122 -157,-122l-183 0 0 264c0,54 9,85 30,102 20,15 79,24 164,24 103,0 168,-11 201,-41 28,-28 50,-92 61,-150l52 0 -17 251 -811 0 0 -52c133,-7 142,-9 142,-105l0 -613c0,-96 -11,-98 -142,-105l0 -52 776 0z"/>
  <path class="fil0" d="M6171 4273l0 -52 59 -6c31,-4 61,-18 66,-55 6,-42 9,-92 9,-163l0 -495c0,-96 -11,-98 -142,-105l0 -52 358 0c42,107 87,214 131,321l151 364 6 0 155 -364c46,-107 92,-214 135,-321l351 0 0 52c-133,7 -142,9 -142,105l0 613c0,96 11,98 142,105l0 52 -451 0 0 -52c129,-7 139,-9 139,-105l0 -656 -7 0 -347 813 -54 0 -345 -813 -4 0 0 537c0,70 4,120 9,163 6,37 31,50 79,55l65 6 0 52 -364 0z"/>
  <path class="fil0" d="M8459 3346l0 233 -52 0c-20,-153 -91,-172 -229,-172l-135 0c-31,0 -41,13 -41,46l0 308 183 0c120,0 144,-22 157,-122l52 0 0 305 -52 0c-13,-100 -37,-122 -157,-122l-183 0 0 264c0,54 9,85 30,102 20,15 79,24 164,24 103,0 168,-11 201,-41 28,-28 50,-92 61,-150l52 0 -17 251 -811 0 0 -52c133,-7 142,-9 142,-105l0 -613c0,-96 -11,-98 -142,-105l0 -52 776 0z"/>
  <path class="fil0" d="M9182 3784c126,0 199,-57 199,-187 0,-159 -113,-190 -205,-190 -87,0 -124,7 -124,57l0 320 129 0zm-129 61l0 272c0,96 11,98 142,105l0 52 -462 0 0 -52c133,-7 142,-9 142,-105l0 -613c0,-96 -11,-98 -142,-105l0 -52 499 0c251,0 340,102 340,240 0,129 -96,211 -227,225l0 4c148,33 172,120 190,236 11,66 33,109 54,135 20,26 61,35 96,35l0 52 -144 0c-85,0 -135,-35 -161,-109 -30,-81 -39,-196 -65,-251 -20,-44 -65,-68 -144,-68l-118 0z"/>
  <path class="fil0" d="M3604 5346c0,71 8,72 126,78l0 38 -382 0 0 -38c119,-5 126,-7 126,-78l0 -524 -70 0c-108,0 -137,30 -149,137l-38 0 0 -182 644 0 0 182 -38 0c-12,-106 -41,-137 -149,-137l-70 0 0 524z"/>
  <path class="fil0" d="M4429 5100c93,0 147,-42 147,-138 0,-117 -83,-141 -152,-141 -64,0 -91,5 -91,42l0 236 96 0zm-96 45l0 201c0,71 8,72 105,78l0 38 -341 0 0 -38c98,-5 105,-7 105,-78l0 -453c0,-71 -8,-72 -105,-78l0 -38 369 0c186,0 251,75 251,177 0,96 -71,156 -168,167l0 3c109,25 127,89 141,175 8,49 25,81 40,100 15,19 45,26 71,26l0 38 -106 0c-63,0 -100,-26 -119,-81 -22,-60 -29,-145 -48,-186 -15,-33 -48,-51 -106,-51l-87 0z"/>
  <path class="fil0" d="M5776 4776l0 38c-97,5 -105,7 -105,78l0 313c0,101 -27,169 -78,212 -49,40 -127,61 -225,61 -98,0 -176,-22 -225,-61 -51,-42 -78,-111 -78,-212l0 -313c0,-71 -8,-72 -105,-78l0 -38 341 0 0 38c-98,5 -105,7 -105,78l0 319c0,139 46,221 172,221 126,0 172,-82 172,-221l0 -319c0,-71 -7,-72 -105,-78l0 -38 341 0z"/>
  <path class="fil0" d="M6416 4962c-26,-117 -81,-157 -171,-157 -82,0 -128,45 -128,115 0,86 92,106 156,127 78,25 229,63 229,217 0,115 -79,214 -273,214 -71,0 -171,-19 -224,-60l-10 -184 38 0c31,120 93,199 206,199 87,0 142,-45 142,-124 0,-91 -78,-119 -149,-141 -115,-34 -229,-82 -229,-203 0,-120 89,-205 254,-205 74,0 147,15 197,45l0 157 -38 0z"/>
  <path class="fil0" d="M7130 5346c0,71 8,72 126,78l0 38 -382 0 0 -38c119,-5 126,-7 126,-78l0 -524 -70 0c-108,0 -137,30 -149,137l-38 0 0 -182 644 0 0 182 -38 0c-12,-106 -41,-137 -149,-137l-70 0 0 524z"/>
  <path class="fil0" d="M5458 2710c-200,0 -236,-52 -236,-269l0 -595c7,0 14,0 21,0 78,-1 290,-5 387,28 155,64 256,197 256,405 0,302 -195,430 -428,430zm211 -927l0 -6c134,-33 362,-151 362,-392 0,-137 -49,-236 -143,-302 -91,-63 -217,-96 -400,-96l-716 0 0 38c217,30 233,63 236,359l0 327 214 0 0 -583c0,-55 8,-66 25,-74 22,-11 60,-14 151,-14 324,0 392,208 392,373 0,234 -127,355 -381,359l-803 0 -4 192 27 0c72,-142 212,-121 380,-120l0 526c0,296 -22,329 -252,359l0 38 660 0c190,-4 349,-33 476,-104 159,-91 255,-228 255,-422 0,-277 -225,-425 -477,-461z"/>
 </g>
</svg>
