<svg width="248" height="130" xmlns="http://www.w3.org/2000/svg">
 <!-- Created with Method Draw - http://github.com/duopixel/Method-Draw/ -->

 <g>
  <title>background</title>
  <rect fill="none" id="canvas_background" height="132" width="250" y="-1" x="-1"/>
  <g display="none" overflow="visible" y="0" x="0" height="100%" width="100%" id="canvasGrid">
   <rect fill="url(#gridpattern)" stroke-width="0" y="0" x="0" height="100%" width="100%"/>
  </g>
 </g>
 <g>
  <title>Layer 1</title>
  <defs>
   <style type="text/css">
    <![CDATA[
    .fil0 {fill:white;fill-rule:nonzero}
   ]]>
   </style>
  </defs>
  <g stroke="null" id="svg_22">
   <g stroke="null" transform="matrix(0.028356549644759362,0,0,0.028356549644759362,-52220.55130459694,-36035.31518183043) " id="svg_5">
    <metadata stroke="null" transform="translate(35.23834228515625,2.3283064365386963e-10) translate(-0.02688000537455082,2.3283064365386963e-10) translate(0.09812000393867493,2.3283064365386963e-10) translate(0,-141.03460693359375) translate(0,-0.09870855510234833) translate(0,0.02628304436802864) translate(0,0.02628304436802864) translate(-0.02688000537455082,2.3283064365386963e-10) translate(0,0.02628304436802864) translate(0,-0.09870855510234833) translate(0,0.02628304436802864) translate(-0.02688000537455082,2.3283064365386963e-10) translate(-0.02688000537455082,2.3283064365386963e-10) translate(-0.02688000537455082,2.3283064365386963e-10) translate(-105.7768783569336,2.3283064365386963e-10) translate(-105.73120880126953,2.3283064365386963e-10) translate(105.81444549560547,2.3283064365386963e-10) translate(105.76878356933594,2.3283064365386963e-10) translate(-0.02688000537455082,2.3283064365386963e-10) translate(105.84811401367188,2.3283064365386963e-10) translate(105.80244445800781,2.3283064365386963e-10) translate(105.75678253173828,2.3283064365386963e-10) translate(105.83612060546875,2.3283064365386963e-10) translate(-0.084549680352211,2.3283064365386963e-10) translate(-105.70953369140625,2.3283064365386963e-10) translate(-105.78888702392578,2.3283064365386963e-10) translate(-211.61819458007812,2.3283064365386963e-10) translate(-0.02688000537455082,2.3283064365386963e-10) translate(-105.7768783569336,2.3283064365386963e-10) translate(0.01878741756081581,2.3283064365386963e-10) translate(-105.856201171875,2.3283064365386963e-10) translate(-105.81053161621094,2.3283064365386963e-10) translate(-0.014865138567984104,2.3283064365386963e-10) translate(-105.76485443115234,2.3283064365386963e-10) translate(0.030806487426161766,2.3283064365386963e-10) translate(-105.84419250488281,2.3283064365386963e-10) translate(-105.79855346679688,2.3283064365386963e-10) translate(-105.75288391113281,2.3283064365386963e-10) translate(-105.83219146728516,2.3283064365386963e-10) translate(-105.78651428222656,2.3283064365386963e-10) translate(-105.7408447265625,2.3283064365386963e-10) translate(-105.82014465332031,2.3283064365386963e-10) translate(-211.6495819091797,2.3283064365386963e-10) translate(-105.68319702148438,2.3283064365386963e-10) translate(-211.63746643066406,2.3283064365386963e-10) translate(-105.79620361328125,2.3283064365386963e-10) translate(-105.7504653930664,2.3283064365386963e-10) translate(-105.829833984375,2.3283064365386963e-10) translate(-105.78423309326172,2.3283064365386963e-10) translate(-211.61338806152344,2.3283064365386963e-10) translate(-211.6472930908203,2.3283064365386963e-10) translate(-493.6808166503906,2.3283064365386963e-10) translate(-705.3426513671875,2.3283064365386963e-10) translate(-705.2882690429688,2.3283064365386963e-10) translate(-599.4840087890625,2.3283064365386963e-10) translate(-105.85001373291016,2.3283064365386963e-10) translate(0.07049170136451721,2.3283064365386963e-10) translate(211.5708770751953,2.3283064365386963e-10) translate(211.604248046875,2.3283064365386963e-10) translate(0.012914509512484074,2.3283064365386963e-10) translate(0.012914509512484074,2.3283064365386963e-10) translate(0.012914509512484074,2.3283064365386963e-10) translate(-105.86185455322266,2.3283064365386963e-10) translate(-105.81610870361328,2.3283064365386963e-10) translate(0.10439229011535645,2.3283064365386963e-10) translate(-105.895751953125,2.3283064365386963e-10) translate(0.02475281059741974,2.3283064365386963e-10) translate(-105.72517395019531,2.3283064365386963e-10) translate(-0.05434856191277504,2.3283064365386963e-10) translate(-105.80427551269531,2.3283064365386963e-10) translate(-0.008609673008322716,2.3283064365386963e-10) translate(-0.008609673008322716,2.3283064365386963e-10) translate(-0.008609673008322716,2.3283064365386963e-10) translate(-211.50845336914062,2.3283064365386963e-10) translate(-105.79243469238281,2.3283064365386963e-10) translate(-317.49676513671875,2.3283064365386963e-10) translate(-105.73485565185547,2.3283064365386963e-10) translate(-317.4391784667969,2.3283064365386963e-10) translate(-211.5520477294922,2.3283064365386963e-10) translate(-211.5854034423828,2.3283064365386963e-10) translate(-105.74454498291016,2.3283064365386963e-10) translate(-211.6984100341797,2.3283064365386963e-10) translate(-105.73217010498047,2.3283064365386963e-10) translate(-0.06188202649354935,2.3283064365386963e-10) translate(-105.68643188476562,2.3283064365386963e-10) translate(-105.89090728759766,2.3283064365386963e-10) translate(-105.72032928466797,2.3283064365386963e-10) translate(-0.04950562119483948,2.3283064365386963e-10) translate(-211.5493621826172,2.3283064365386963e-10) translate(-0.08340620994567871,2.3283064365386963e-10) translate(-105.70848846435547,2.3283064365386963e-10) translate(-105.78759002685547,2.3283064365386963e-10) translate(-211.61715698242188,2.3283064365386963e-10) translate(-0.025829019024968147,2.3283064365386963e-10) translate(-105.7757568359375,2.3283064365386963e-10) translate(0.019909869879484177,2.3283064365386963e-10) translate(0.019909869879484177,2.3283064365386963e-10) translate(-0.10493039339780807,2.3283064365386963e-10) translate(-211.4799346923828,2.3283064365386963e-10) translate(-0.013452613726258278,2.3283064365386963e-10) translate(-0.013452613726258278,2.3283064365386963e-10) translate(-105.76337432861328,2.3283064365386963e-10) translate(-0.09309209138154984,2.3283064365386963e-10) translate(-105.71817779541016,2.3283064365386963e-10) translate(-211.6720428466797,2.3283064365386963e-10) translate(-105.70580291748047,2.3283064365386963e-10) translate(-11.16028881072998,2.3283064365386963e-10) translate(0,0.02628304436802864) translate(0,0.02628304436802864) translate(0,0.02628304436802864) translate(0,-105.84870147705078) translate(0,-105.80303192138672) translate(0,-105.75735473632812) translate(0,-105.8366928100586) translate(0,-105.79102325439453) translate(0,-105.74535369873047) translate(0,-105.82472229003906) translate(0,-105.779052734375) translate(0,-105.85835266113281) translate(0,-105.81275177001953) translate(0,-211.51707458496094) translate(0,-105.80064392089844) translate(0,-105.75503540039062) translate(0,-105.83440399169922) translate(0,-105.78866577148438) translate(0,-105.8680419921875) translate(0,-211.57235717773438) translate(0,-105.73095703125) translate(0,-105.81046295166016) translate(0,-211.63975524902344) translate(0,-493.67327880859375) translate(0,-811.0852661132812) translate(0,-1022.7349853515625) translate(0,-1022.6688232421875) translate(0,-599.4769897460938) translate(0,-105.84355163574219) translate(0,105.8274154663086) translate(0,211.53160095214844) translate(0,493.69049072265625) translate(0,811.1022338867188) translate(0,811.1270141601562) translate(0,599.5267944335938) translate(0,599.5181884765625) translate(0,387.88433837890625) translate(0,0.09201588481664658) translate(0,-0.03309343010187149) translate(0,-105.78302001953125) translate(0,-105.86238861083984) translate(0,-105.816650390625) translate(0,-211.52110290527344) translate(0,-211.5547332763672) translate(0,-211.58836364746094) translate(0,-105.87207794189453) translate(0,0.048698462545871735) translate(0,-0.07641085237264633) translate(0,0.048698462545871735) translate(0,0.048698462545871735) translate(0,-0.07641085237264633) translate(0,211.6736602783203) translate(0,317.33209228515625) translate(0,105.82014465332031) translate(0,387.8996887207031) translate(0,317.35711669921875) translate(0,-0.029864802956581116) translate(0,0.09497545659542084) translate(0,-105.77979278564453) translate(0,-211.6090850830078) translate(0,-493.7679748535156) translate(0,-317.4297790527344) translate(0,-387.9176940917969) translate(0,-211.50038146972656) translate(0,-0.03390058875083923) translate(0,-0.03390058875083923) translate(0,0.09093967080116272) translate(0,-0.03390058875083923) translate(0,-0.03390058875083923) translate(0,-0.03390058875083923) translate(0,-105.78409576416016) translate(0,-105.73835754394531) translate(0,-0.06753212213516235) translate(0,-105.69261932373047) translate(0,-105.8968276977539) translate(0,0.02367660216987133) translate(0,0.02367660216987133) translate(0,0.02367660216987133) translate(0,0.02367660216987133) translate(0,-105.85108947753906) translate(0,-105.8058853149414) translate(0,-105.76014709472656) translate(0,-105.83924865722656) translate(0,0.0812537893652916) translate(0,-0.04358647018671036) translate(0,-0.04358647018671036) translate(0,0.0812537893652916) translate(0,12.456583023071289) translate(0,-35.265220642089844) translate(0,-35.265220642089844) translate(0,-35.265220642089844) translate(0,-35.265220642089844) translate(0,-35.265220642089844) translate(0,-35.265220642089844) translate(0,-35.265220642089844) translate(0,-35.265220642089844) translate(0,-35.265220642089844) translate(0,-35.265220642089844) translate(0,-35.265220642089844) translate(0,-35.265220642089844) translate(0,-35.265220642089844) translate(0,-35.265220642089844) translate(0,-35.265220642089844) translate(0,-35.265220642089844) translate(0,-35.265220642089844) translate(0,-35.265220642089844) translate(0,-35.265220642089844) translate(0,-35.265220642089844) translate(0,-35.265220642089844) translate(0,-35.265220642089844) translate(0,-35.265220642089844) translate(0,-35.265220642089844) translate(0,-35.265220642089844) translate(0,-35.265220642089844) translate(0,-35.265220642089844) translate(0,-35.265220642089844) translate(0,-35.265220642089844) translate(0,-35.265220642089844) translate(0,-35.265220642089844) translate(0,-35.265220642089844) translate(0,-35.265220642089844) translate(0,-35.265220642089844) translate(0,-35.265220642089844) translate(0,-35.265220642089844) translate(0,-35.265220642089844) translate(0,-35.265220642089844) translate(0,-35.265220642089844) translate(0,-35.265220642089844) translate(0,-35.265220642089844) translate(0,-35.265220642089844) translate(0,-35.265220642089844) translate(0,-35.265220642089844) translate(0,-35.265220642089844) translate(0,-35.265220642089844) translate(0,-35.265220642089844) translate(0,-35.265220642089844) translate(0,-35.265220642089844) translate(0,-35.265220642089844) translate(0,-35.265220642089844) translate(0,-35.265220642089844) translate(0,-35.265220642089844) translate(0,-35.265220642089844) translate(0,-35.265220642089844) translate(0,-35.265220642089844) translate(0,-35.265220642089844) translate(0,-35.265220642089844) translate(0,-35.265220642089844) translate(0,-35.265220642089844) translate(0,-35.265220642089844) translate(-35.265220642089844,2.3283064365386963e-10) translate(-35.265220642089844,2.3283064365386963e-10) translate(-35.265220642089844,2.3283064365386963e-10) translate(-35.265220642089844,2.3283064365386963e-10) translate(-35.265220642089844,2.3283064365386963e-10) translate(-35.265220642089844,2.3283064365386963e-10) translate(-35.265220642089844,2.3283064365386963e-10) translate(-35.265220642089844,2.3283064365386963e-10) translate(-35.265220642089844,2.3283064365386963e-10) translate(-35.265220642089844,2.3283064365386963e-10) translate(-35.265220642089844,2.3283064365386963e-10) translate(-35.265220642089844,2.3283064365386963e-10) translate(-35.265220642089844,2.3283064365386963e-10) translate(-35.265220642089844,2.3283064365386963e-10) translate(-35.265220642089844,2.3283064365386963e-10) translate(-35.265220642089844,2.3283064365386963e-10) translate(-35.265220642089844,2.3283064365386963e-10) translate(-35.265220642089844,2.3283064365386963e-10) translate(-35.265220642089844,2.3283064365386963e-10) translate(-35.265220642089844,2.3283064365386963e-10) translate(-35.265220642089844,2.3283064365386963e-10) translate(-35.265220642089844,2.3283064365386963e-10) translate(-35.265220642089844,2.3283064365386963e-10) translate(-35.265220642089844,2.3283064365386963e-10) translate(-35.265220642089844,2.3283064365386963e-10) translate(-35.265220642089844,2.3283064365386963e-10) translate(-35.265220642089844,2.3283064365386963e-10) translate(-35.265220642089844,2.3283064365386963e-10) translate(-35.265220642089844,2.3283064365386963e-10) translate(-35.265220642089844,2.3283064365386963e-10) translate(-35.265220642089844,2.3283064365386963e-10) translate(-35.265220642089844,2.3283064365386963e-10) translate(-35.265220642089844,2.3283064365386963e-10) translate(-35.265220642089844,2.3283064365386963e-10) translate(-35.265220642089844,2.3283064365386963e-10) translate(-35.265220642089844,2.3283064365386963e-10) translate(1850776.125,0) translate(0,1276848) " id="svg_6"/>
    <path stroke="null" id="svg_8" d="m1841889.360838,1273618.433467l0,316c0,50 15,85 153,85c116,0 218,-41 220,-183c0,-155 -109,-218 -262,-218l-111,0zm0,-61l116,0c129,0 216,-46 216,-172c-2,-140 -111,-175 -227,-172c-79,0 -105,7 -105,55l0,288l0,1zm168,-404c236,-2 349,66 349,218c0,105 -72,187 -216,205l0,6c122,11 257,72 262,242c2,183 -139,255 -349,257l-534,0l0,-52c133,-7 142,-9 142,-105l0,-613c0,-96 -11,-98 -142,-105l0,-52l488,0l0,-1z" class="fil0"/>
    <path stroke="null" id="svg_9" d="m1843452.360838,1273153.433467l0,233l-52,0c-20,-153 -90,-172 -229,-172l-135,0c-31,0 -41,13 -41,46l0,308l183,0c120,0 144,-22 157,-122l52,0l0,305l-52,0c-13,-100 -37,-122 -157,-122l-183,0l0,264c0,54 9,85 30,102c20,15 79,24 164,24c103,0 168,-11 201,-41c28,-28 50,-92 61,-150l52,0l-17,251l-811,0l0,-52c133,-7 142,-9 142,-105l0,-613c0,-96 -11,-98 -142,-105l0,-52l776,0l1,1z" class="fil0"/>
    <path stroke="null" id="svg_10" d="m1844336.360838,1273404.433467c-35,-159 -109,-212 -231,-212c-111,0 -174,61 -174,155c0,116 124,144 211,172c105,33 310,85 310,294c0,155 -107,290 -369,290c-96,0 -231,-26 -303,-81l-13,-249l52,0c42,163 126,270 279,270c118,0 192,-61 192,-168c0,-124 -105,-161 -201,-190c-155,-46 -310,-111 -310,-275c0,-163 120,-277 344,-277c100,0 199,20 266,61l0,212l-52,0l-1,-2z" class="fil0"/>
    <path stroke="null" id="svg_11" d="m1845302.360838,1273404.433467c-35,-159 -109,-212 -231,-212c-111,0 -174,61 -174,155c0,116 124,144 211,172c105,33 310,85 310,294c0,155 -107,290 -369,290c-96,0 -231,-26 -303,-81l-13,-249l52,0c42,163 126,270 279,270c118,0 192,-61 192,-168c0,-124 -105,-161 -201,-190c-155,-46 -310,-111 -310,-275c0,-163 120,-277 344,-277c100,0 199,20 266,61l0,212l-52,0l-1,-2z" class="fil0"/>
    <path stroke="null" id="svg_12" d="m1846432.360838,1273153.433467l0,233l-52,0c-20,-153 -91,-172 -229,-172l-135,0c-31,0 -41,13 -41,46l0,308l183,0c120,0 144,-22 157,-122l52,0l0,305l-52,0c-13,-100 -37,-122 -157,-122l-183,0l0,264c0,54 9,85 30,102c20,15 79,24 164,24c103,0 168,-11 201,-41c28,-28 50,-92 61,-150l52,0l-17,251l-811,0l0,-52c133,-7 142,-9 142,-105l0,-613c0,-96 -11,-98 -142,-105l0,-52l776,0l1,1z" class="fil0"/>
    <path stroke="null" id="svg_13" d="m1846744.360838,1274080.433467l0,-52l59,-6c31,-4 61,-18 66,-55c6,-42 9,-92 9,-163l0,-495c0,-96 -11,-98 -142,-105l0,-52l358,0c42,107 87,214 131,321l151,364l6,0l155,-364c46,-107 92,-214 135,-321l351,0l0,52c-133,7 -142,9 -142,105l0,613c0,96 11,98 142,105l0,52l-451,0l0,-52c129,-7 139,-9 139,-105l0,-656l-7,0l-347,813l-54,0l-345,-813l-4,0l0,537c0,70 4,120 9,163c6,37 31,50 79,55l65,6l0,52l-364,0l1,1z" class="fil0"/>
    <path stroke="null" id="svg_14" d="m1849032.360838,1273153.433467l0,233l-52,0c-20,-153 -91,-172 -229,-172l-135,0c-31,0 -41,13 -41,46l0,308l183,0c120,0 144,-22 157,-122l52,0l0,305l-52,0c-13,-100 -37,-122 -157,-122l-183,0l0,264c0,54 9,85 30,102c20,15 79,24 164,24c103,0 168,-11 201,-41c28,-28 50,-92 61,-150l52,0l-17,251l-811,0l0,-52c133,-7 142,-9 142,-105l0,-613c0,-96 -11,-98 -142,-105l0,-52l776,0l1,1z" class="fil0"/>
    <path stroke="null" id="svg_15" d="m1849755.360838,1273591.433467c126,0 199,-57 199,-187c0,-159 -113,-190 -205,-190c-87,0 -124,7 -124,57l0,320l129,0l1,0zm-130,61l0,272c0,96 11,98 142,105l0,52l-462,0l0,-52c133,-7 142,-9 142,-105l0,-613c0,-96 -11,-98 -142,-105l0,-52l499,0c251,0 340,102 340,240c0,129 -96,211 -227,225l0,4c148,33 172,120 190,236c11,66 33,109 54,135c20,26 61,35 96,35l0,52l-144,0c-85,0 -135,-35 -161,-109c-30,-81 -39,-196 -65,-251c-20,-44 -65,-68 -144,-68l-118,0l0,-1z" class="fil0"/>
    <path stroke="null" id="svg_16" d="m1844177.360838,1275153.433467c0,71 8,72 126,78l0,38l-382,0l0,-38c119,-5 126,-7 126,-78l0,-524l-70,0c-108,0 -137,30 -149,137l-38,0l0,-182l644,0l0,182l-38,0c-12,-106 -41,-137 -149,-137l-70,0l0,524z" class="fil0"/>
    <path stroke="null" id="svg_17" d="m1845002.360838,1274907.433467c93,0 147,-42 147,-138c0,-117 -83,-141 -152,-141c-64,0 -91,5 -91,42l0,236l96,0l0,1zm-96,44l0,201c0,71 8,72 105,78l0,38l-341,0l0,-38c98,-5 105,-7 105,-78l0,-453c0,-71 -8,-72 -105,-78l0,-38l369,0c186,0 251,75 251,177c0,96 -71,156 -168,167l0,3c109,25 127,89 141,175c8,49 25,81 40,100c15,19 45,26 71,26l0,38l-106,0c-63,0 -100,-26 -119,-81c-22,-60 -29,-145 -48,-186c-15,-33 -48,-51 -106,-51l-87,0l-2,0z" class="fil0"/>
    <path stroke="null" id="svg_18" d="m1846349.360838,1274583.433467l0,38c-97,5 -105,7 -105,78l0,313c0,101 -27,169 -78,212c-49,40 -127,61 -225,61c-98,0 -176,-22 -225,-61c-51,-42 -78,-111 -78,-212l0,-313c0,-71 -8,-72 -105,-78l0,-38l341,0l0,38c-98,5 -105,7 -105,78l0,319c0,139 46,221 172,221c126,0 172,-82 172,-221l0,-319c0,-71 -7,-72 -105,-78l0,-38l341,0z" class="fil0"/>
    <path stroke="null" id="svg_19" d="m1846989.360838,1274769.433467c-26,-117 -81,-157 -171,-157c-82,0 -128,45 -128,115c0,86 92,106 156,127c78,25 229,63 229,217c0,115 -79,214 -273,214c-71,0 -171,-19 -224,-60l-10,-184l38,0c31,120 93,199 206,199c87,0 142,-45 142,-124c0,-91 -78,-119 -149,-141c-115,-34 -229,-82 -229,-203c0,-120 89,-205 254,-205c74,0 147,15 197,45l0,157l-38,0z" class="fil0"/>
    <path stroke="null" id="svg_20" d="m1847703.360838,1275153.433467c0,71 8,72 126,78l0,38l-382,0l0,-38c119,-5 126,-7 126,-78l0,-524l-70,0c-108,0 -137,30 -149,137l-38,0l0,-182l644,0l0,182l-38,0c-12,-106 -41,-137 -149,-137l-70,0l0,524z" class="fil0"/>
    <path stroke="null" id="svg_21" d="m1846031.360838,1272517.433467c-200,0 -236,-52 -236,-269l0,-595c7,0 14,0 21,0c78,-1 290,-5 387,28c155,64 256,197 256,405c0,302 -195,430 -428,430l0,1zm211,-928l0,-6c134,-33 362,-151 362,-392c0,-137 -49,-236 -143,-302c-91,-63 -217,-96 -400,-96l-716,0l0,38c217,30 233,63 236,359l0,327l214,0l0,-583c0,-55 8,-66 25,-74c22,-11 60,-14 151,-14c324,0 392,208 392,373c0,234 -127,355 -381,359l-803,0l-4,192l27,0c72,-142 212,-121 380,-120l0,526c0,296 -22,329 -252,359l0,38l660,0c190,-4 349,-33 476,-104c159,-91 255,-228 255,-422c0,-277 -225,-425 -477,-461l-2,3z" class="fil0"/>
   </g>
  </g>
 </g>
</svg>