<?xml version="1.0" encoding="UTF-8" standalone="no"?>
<svg width="575px" height="327px" viewBox="0 0 575 327" version="1.1" xmlns="http://www.w3.org/2000/svg" xmlns:xlink="http://www.w3.org/1999/xlink">
    <!-- Generator: Sketch 47 (45396) - http://www.bohemiancoding.com/sketch -->
    <title>Group 2</title>
    <desc>Created with Sketch.</desc>
    <defs></defs>
    <g id="BESSEMER-CLIENT-CASE-STUDY-PAGE" stroke="none" stroke-width="1" fill="none" fill-rule="evenodd">
        <g id="MR-Desktop-BESSEMER-CC-FINAL-REV-EXPANDED-RESULTS-SECTION-APPROVED" transform="translate(-238.000000, -240.000000)">
            <g id="Group-2" transform="translate(234.000000, 240.000000)">
                <path d="M54,237 L578,237" id="Line-Copy-81" stroke="#F5F6F8" opacity="0.5" stroke-linecap="square"></path>
                <path d="M54,183 L578,183" id="Line-Copy-82" stroke="#F5F6F8" opacity="0.5" stroke-linecap="square"></path>
                <path d="M54,128 L578,128" id="Line-Copy-85" stroke="#F5F6F8" opacity="0.5" stroke-linecap="square"></path>
                <path d="M54,69 L578,69" id="Line-Copy-88" stroke="#F5F6F8" opacity="0.5" stroke-linecap="square"></path>
                <path d="M54,8 L578,8" id="Line-Copy-95" stroke="#F5F6F8" opacity="0.5" stroke-linecap="square"></path>
                <path d="M54,290 L578,290" id="Line-Copy-97" stroke="#F5F6F8" opacity="0.5" stroke-linecap="square"></path>
                <path d="M44,290 L53.9999922,290" id="Line-Copy-98" stroke="#FFFFFF" stroke-linecap="square"></path>
                <path d="M44,237 L53.9999922,237" id="Line-Copy-99" stroke="#FFFFFF" stroke-linecap="square"></path>
                <path d="M44,183 L53.9999922,183" id="Line-Copy-100" stroke="#FFFFFF" stroke-linecap="square"></path>
                <path d="M44,128 L53.9999922,128" id="Line-Copy-101" stroke="#FFFFFF" stroke-linecap="square"></path>
                <path d="M44,69 L53.9999922,69" id="Line-Copy-102" stroke="#FFFFFF" stroke-linecap="square"></path>
                <path d="M44,8 L53.9999922,8" id="Line-Copy-103" stroke="#FFFFFF" stroke-linecap="square"></path>
                <path d="M544.000004,307.999996 L553.999996,307.999996" id="Line-Copy-104" stroke="#FFFFFF" stroke-linecap="square" transform="translate(549.000000, 307.999996) rotate(-90.000000) translate(-549.000000, -307.999996) "></path>
                <path d="M450.000004,307.999996 L459.999996,307.999996" id="Line-Copy-106" stroke="#FFFFFF" stroke-linecap="square" transform="translate(455.000000, 307.999996) rotate(-90.000000) translate(-455.000000, -307.999996) "></path>
                <path d="M358.000004,307.999996 L367.999996,307.999996" id="Line-Copy-107" stroke="#FFFFFF" stroke-linecap="square" transform="translate(363.000000, 307.999996) rotate(-90.000000) translate(-363.000000, -307.999996) "></path>
                <path d="M264.000004,307.999996 L273.999996,307.999996" id="Line-Copy-108" stroke="#FFFFFF" stroke-linecap="square" transform="translate(269.000000, 307.999996) rotate(-90.000000) translate(-269.000000, -307.999996) "></path>
                <path d="M171.000004,307.999996 L180.999996,307.999996" id="Line-Copy-109" stroke="#FFFFFF" stroke-linecap="square" transform="translate(176.000000, 307.999996) rotate(-90.000000) translate(-176.000000, -307.999996) "></path>
                <path d="M79.0000039,307.999996 L88.9999961,307.999996" id="Line-Copy-110" stroke="#FFFFFF" stroke-linecap="square" transform="translate(84.000000, 307.999996) rotate(-90.000000) translate(-84.000000, -307.999996) "></path>
                <polyline id="Path-2-Copy-3" stroke="#FFFFFF" points="54 3 54 303 578 303"></polyline>
                <path d="M30.23,285.854 C32.21,285.854 33.302,287.366 33.302,290.078 C33.302,292.79 32.21,294.302 30.23,294.302 C28.238,294.302 27.146,292.79 27.146,290.078 C27.146,287.366 28.238,285.854 30.23,285.854 Z M30.23,287.066 C29.186,287.066 28.622,288.134 28.622,290.078 C28.622,292.034 29.186,293.114 30.23,293.114 C31.262,293.114 31.826,292.034 31.826,290.078 C31.826,288.134 31.262,287.066 30.23,287.066 Z" id="0-copy-3" fill="#FFFFFF" transform="translate(30.224000, 290.078000) rotate(-90.000000) translate(-30.224000, -290.078000) "></path>
                <path d="M29.8420342,240.488636 L28.6368137,240.488636 L28.6368137,242.329545 L27.2560756,242.329545 L27.2560756,240.488636 L23.5,240.488636 L23.5,239.329545 L26.7880288,234.670455 L28.6368137,234.670455 L28.6368137,239.409091 L29.8420342,239.409091 L29.8420342,240.488636 Z M24.7988299,239.409091 L27.2911791,239.409091 L27.2911791,238.420455 C27.2911791,237.522727 27.3145815,236.625 27.349685,235.727273 L27.3262826,235.727273 C26.7880288,236.579545 26.2146715,237.409091 25.629613,238.25 L24.7988299,239.409091 Z M33.5045005,234.5 C35.4351935,234.5 36.5,235.931818 36.5,238.5 C36.5,241.068182 35.4351935,242.5 33.5045005,242.5 C31.5621062,242.5 30.4972997,241.068182 30.4972997,238.5 C30.4972997,235.931818 31.5621062,234.5 33.5045005,234.5 Z M33.5045005,235.647727 C32.4864986,235.647727 31.9365437,236.659091 31.9365437,238.5 C31.9365437,240.352273 32.4864986,241.375 33.5045005,241.375 C34.5108011,241.375 35.0607561,240.352273 35.0607561,238.5 C35.0607561,236.659091 34.5108011,235.647727 33.5045005,235.647727 Z" id="40-copy-3" fill="#FFFFFF" transform="translate(30.000000, 238.500000) rotate(-90.000000) translate(-30.000000, -238.500000) "></path>
                <path d="M26.686864,179.5 C28.2141536,179.5 29.1762257,180.329545 29.2844588,181.704545 L27.8413506,181.704545 C27.7331175,181 27.3122109,180.625 26.6267345,180.625 C25.6165587,180.625 24.8950046,181.397727 24.846901,183.215909 L24.8709528,183.215909 C25.339963,182.647727 25.9893617,182.329545 26.7950971,182.329545 C28.3584644,182.329545 29.4047179,183.352273 29.4047179,184.840909 C29.4047179,186.431818 28.2141536,187.5 26.4944496,187.5 C24.5823312,187.5 23.5,186.25 23.5,183.761364 C23.5,181 24.6785384,179.5 26.686864,179.5 Z M26.5185014,183.386364 C25.6526364,183.386364 25.0874191,184 25.0874191,184.897727 C25.0874191,185.795455 25.6165587,186.375 26.4944496,186.375 C27.3603145,186.375 27.9255319,185.795455 27.9255319,184.875 C27.9255319,183.977273 27.3723404,183.386364 26.5185014,183.386364 Z M33.4213691,179.5 C35.4056429,179.5 36.5,180.931818 36.5,183.5 C36.5,186.068182 35.4056429,187.5 33.4213691,187.5 C31.4250694,187.5 30.3307123,186.068182 30.3307123,183.5 C30.3307123,180.931818 31.4250694,179.5 33.4213691,179.5 Z M33.4213691,180.647727 C32.3751156,180.647727 31.8098982,181.659091 31.8098982,183.5 C31.8098982,185.352273 32.3751156,186.375 33.4213691,186.375 C34.4555967,186.375 35.0208141,185.352273 35.0208141,183.5 C35.0208141,181.659091 34.4555967,180.647727 33.4213691,180.647727 Z" id="60-copy-3" fill="#FFFFFF" transform="translate(30.000000, 183.500000) rotate(-90.000000) translate(-30.000000, -183.500000) "></path>
                <path d="M26.4621771,124.5 C28.0811808,124.5 29.2444649,125.340909 29.2444649,126.602273 C29.2444649,127.443182 28.6928044,128.068182 27.8053506,128.340909 L27.8053506,128.363636 C28.8127306,128.636364 29.4123616,129.318182 29.4123616,130.261364 C29.4123616,131.636364 28.2250923,132.5 26.4621771,132.5 C24.6872694,132.5 23.5,131.636364 23.5,130.261364 C23.5,129.318182 24.099631,128.636364 25.1070111,128.363636 L25.1070111,128.340909 C24.2195572,128.068182 23.6678967,127.443182 23.6678967,126.602273 C23.6678967,125.340909 24.8311808,124.5 26.4621771,124.5 Z M26.4621771,125.613636 C25.6107011,125.613636 25.047048,126.034091 25.047048,126.693182 C25.047048,127.397727 25.5867159,127.840909 26.4621771,127.840909 C27.3256458,127.840909 27.8653137,127.397727 27.8653137,126.693182 C27.8653137,126.034091 27.3016605,125.613636 26.4621771,125.613636 Z M26.4621771,128.931818 C25.5387454,128.931818 24.9391144,129.431818 24.9391144,130.147727 C24.9391144,130.897727 25.5267528,131.363636 26.4621771,131.363636 C27.3856089,131.363636 27.9852399,130.897727 27.9852399,130.147727 C27.9852399,129.431818 27.3736162,128.931818 26.4621771,128.931818 Z M33.4298893,124.5 C35.4086716,124.5 36.5,125.931818 36.5,128.5 C36.5,131.068182 35.4086716,132.5 33.4298893,132.5 C31.4391144,132.5 30.347786,131.068182 30.347786,128.5 C30.347786,125.931818 31.4391144,124.5 33.4298893,124.5 Z M33.4298893,125.647727 C32.3865314,125.647727 31.8228782,126.659091 31.8228782,128.5 C31.8228782,130.352273 32.3865314,131.375 33.4298893,131.375 C34.4612546,131.375 35.0249077,130.352273 35.0249077,128.5 C35.0249077,126.659091 34.4612546,125.647727 33.4298893,125.647727 Z" id="80-copy-3" fill="#FFFFFF" transform="translate(30.000000, 128.500000) rotate(-90.000000) translate(-30.000000, -128.500000) "></path>
                <path d="M23.7473586,74.3295455 L23.7473586,66.6704545 L22.507458,66.6704545 C22.3657551,67.5909091 21.7989434,67.9659091 20.5,67.9659091 L20.5,68.9431818 L22.3539466,68.9431818 L22.3539466,74.3295455 L23.7473586,74.3295455 Z M29.6162213,66.5 C31.5646364,66.5 32.6392169,67.9318182 32.6392169,70.5 C32.6392169,73.0681818 31.5646364,74.5 29.6162213,74.5 C27.6559975,74.5 26.581417,73.0681818 26.581417,70.5 C26.581417,67.9318182 27.6559975,66.5 29.6162213,66.5 Z M29.6162213,67.6477273 C28.5888751,67.6477273 28.033872,68.6590909 28.033872,70.5 C28.033872,72.3522727 28.5888751,73.375 29.6162213,73.375 C30.6317589,73.375 31.186762,72.3522727 31.186762,70.5 C31.186762,68.6590909 30.6317589,67.6477273 29.6162213,67.6477273 Z M36.4770044,66.5 C38.4254195,66.5 39.5,67.9318182 39.5,70.5 C39.5,73.0681818 38.4254195,74.5 36.4770044,74.5 C34.5167806,74.5 33.4422001,73.0681818 33.4422001,70.5 C33.4422001,67.9318182 34.5167806,66.5 36.4770044,66.5 Z M36.4770044,67.6477273 C35.4496582,67.6477273 34.8946551,68.6590909 34.8946551,70.5 C34.8946551,72.3522727 35.4496582,73.375 36.4770044,73.375 C37.492542,73.375 38.0475451,72.3522727 38.0475451,70.5 C38.0475451,68.6590909 37.492542,67.6477273 36.4770044,67.6477273 Z" id="100-copy-3" fill="#FFFFFF" transform="translate(30.000000, 70.500000) rotate(-90.000000) translate(-30.000000, -70.500000) "></path>
                <path d="M23.7473586,13.3295455 L23.7473586,5.67045455 L22.507458,5.67045455 C22.3657551,6.59090909 21.7989434,6.96590909 20.5,6.96590909 L20.5,7.94318182 L22.3539466,7.94318182 L22.3539466,13.3295455 L23.7473586,13.3295455 Z M29.6044127,5.5 C27.9275948,5.5 26.8648229,6.38636364 26.8175886,7.98863636 L28.2228092,7.98863636 C28.2582349,7.125 28.6833437,6.63636364 29.6044127,6.63636364 C30.3601616,6.63636364 30.8206961,7.06818182 30.8206961,7.71590909 C30.8206961,8.59090909 30.2066501,9.01136364 29.0257924,9.67045455 C27.112803,10.7386364 26.7113114,11.6136364 26.7113114,13.0909091 C26.7113114,13.1590909 26.7113114,13.2386364 26.72312,13.3295455 L32.4620883,13.3295455 L32.4620883,12.2159091 L28.3290864,12.2159091 C28.3527035,11.6022727 28.647918,11.1931818 30.1712244,10.3295455 C31.3993163,9.64772727 32.273151,9.02272727 32.273151,7.65909091 C32.273151,6.35227273 31.2221877,5.5 29.6044127,5.5 Z M36.4770044,5.5 C38.4254195,5.5 39.5,6.93181818 39.5,9.5 C39.5,12.0681818 38.4254195,13.5 36.4770044,13.5 C34.5167806,13.5 33.4422001,12.0681818 33.4422001,9.5 C33.4422001,6.93181818 34.5167806,5.5 36.4770044,5.5 Z M36.4770044,6.64772727 C35.4496582,6.64772727 34.8946551,7.65909091 34.8946551,9.5 C34.8946551,11.3522727 35.4496582,12.375 36.4770044,12.375 C37.492542,12.375 38.0475451,11.3522727 38.0475451,9.5 C38.0475451,7.65909091 37.492542,6.64772727 36.4770044,6.64772727 Z" id="120-copy-3" fill="#FFFFFF" transform="translate(30.000000, 9.500000) rotate(-90.000000) translate(-30.000000, -9.500000) "></path>
                <circle id="Oval-2-Copy-4" fill="#FFFFFF" cx="84" cy="222" r="3"></circle>
                <circle id="Oval-2-Copy-5" fill="#FFFFFF" cx="549" cy="36" r="3"></circle>
                <text id="2007" font-family="NeueHaasUnicaPro-Medium, Neue Haas Unica Pro" font-size="12" font-weight="400" line-spacing="16" fill="#FFFFFF">
                    <tspan x="70" y="327">2007</tspan>
                </text>
                <text id="Revenue-in-Billions" transform="translate(8.000000, 152.500000) rotate(-90.000000) translate(-8.000000, -152.500000) " font-family="NeueHaasUnicaPro-Medium, Neue Haas Unica Pro" font-size="12" font-weight="400" line-spacing="16" fill="#FFFFFF">
                    <tspan x="-45.5" y="158.5">Revenue in Billions</tspan>
                </text>
                <text id="2009" font-family="NeueHaasUnicaPro-Medium, Neue Haas Unica Pro" font-size="12" font-weight="400" line-spacing="16" fill="#FFFFFF">
                    <tspan x="162" y="327">2009</tspan>
                </text>
                <text id="2011" font-family="NeueHaasUnicaPro-Medium, Neue Haas Unica Pro" font-size="12" font-weight="400" line-spacing="16" fill="#FFFFFF">
                    <tspan x="255" y="327">2011</tspan>
                </text>
                <text id="2013" font-family="NeueHaasUnicaPro-Medium, Neue Haas Unica Pro" font-size="12" font-weight="400" line-spacing="16" fill="#FFFFFF">
                    <tspan x="349" y="327">2013</tspan>
                </text>
                <text id="2015" font-family="NeueHaasUnicaPro-Medium, Neue Haas Unica Pro" font-size="12" font-weight="400" line-spacing="16" fill="#FFFFFF">
                    <tspan x="441" y="327">2015</tspan>
                </text>
                <text id="2017" font-family="NeueHaasUnicaPro-Medium, Neue Haas Unica Pro" font-size="12" font-weight="400" line-spacing="16" fill="#FFFFFF">
                    <tspan x="535" y="327">2017</tspan>
                </text>
                <path d="M84,221.783687 L549,36.1323384" id="Line" stroke="#FFFFFF" stroke-width="2" stroke-linecap="square"></path>
            </g>
        </g>
    </g>
</svg>