<svg width="180" height="30" xmlns="http://www.w3.org/2000/svg">
 <!-- Created with Method Draw - http://github.com/duopixel/Method-Draw/ -->

 <g>
  <title>background</title>
  <rect fill="none" id="canvas_background" height="32" width="182" y="-1" x="-1"/>
  <g display="none" overflow="visible" y="0" x="0" height="100%" width="100%" id="canvasGrid">
   <rect fill="url(#gridpattern)" stroke-width="0" y="0" x="0" height="100%" width="100%"/>
  </g>
 </g>
 <g>
  <title>Layer 1</title>
  <g stroke="null" id="svg_15">
   <g stroke="null" transform="matrix(1.1921609015244645,0,0,1.1921609015244645,-1454.9342185113608,-1044.7514196774318) " id="svg_5">
    <path stroke="null" id="svg_6" d="m1244.669653,900.799966c-0.664,-0.102 -2.226,-0.167 -3.157,-0.167c-1.295,0 -2.324,0.033 -3.221,0.167c-0.133,0.03 -0.067,-0.399 0,-0.399c1.728,-0.165 2.092,-0.399 2.092,-2.924l0,-4.783c0,-3.122 -0.697,-4.152 -2.292,-4.152c-1.096,0 -2.358,0.4 -4.22,1.695c0.035,0.264 0.035,0.53 0.035,0.798l0,6.442c0,2.359 0.297,2.79 2.16,2.924c0.064,0 0.097,0.43 -0.033,0.399c-0.666,-0.102 -2.127,-0.167 -3.058,-0.167c-1.295,0 -2.425,0.033 -3.354,0.167c-0.102,0.03 -0.035,-0.399 0,-0.399c1.759,-0.165 2.092,-0.399 2.092,-2.924l0,-4.982c0,-3.122 -0.599,-4.153 -2.458,-4.153c-0.831,0 -2.16,0.632 -4.02,1.794l0,7.342c0,2.359 0.298,2.759 2.092,2.924c0.066,0 0.132,0.43 0,0.399c-0.664,-0.102 -2.126,-0.167 -3.057,-0.167c-1.263,0 -2.821,0.033 -3.72,0.167c-0.133,0.03 -0.066,-0.399 -0.033,-0.399c2.293,-0.232 2.525,-0.332 2.525,-2.924l0,-5.58c0,-2.226 -0.4,-2.625 -2.127,-2.028c-0.065,0 -0.199,-0.264 -0.101,-0.33c1.363,-0.731 2.892,-1.859 3.987,-2.856c0.034,-0.035 0.266,0.098 0.266,0.199c0.065,0.563 0.133,1.96 0.167,2.724c1.859,-1.396 4.087,-2.592 5.381,-2.592c1.794,0 2.823,0.863 3.188,2.724c1.827,-1.429 3.987,-2.558 5.549,-2.558c2.191,0 3.222,1.263 3.222,4.054l0,6.244c0,2.359 0.267,2.79 2.126,2.924c0.069,-0.003 0.102,0.427 -0.031,0.397" fill="#717073"/>
    <path stroke="null" id="svg_7" d="m1257.295653,901.164966c-0.564,0 -0.897,-1.162 -0.897,-2.957c-1.429,1.462 -3.589,2.889 -5.282,2.889c-2.059,0 -3.554,-1.261 -3.521,-4.02l0.099,-6.311c0,-1.761 -0.132,-1.994 -2.126,-2.06c-0.032,0 -0.166,-0.299 -0.066,-0.299c1.363,-0.264 2.924,-0.83 3.985,-1.462c0.035,0 0.268,0.167 0.3,0.266c0.067,0.6 0.134,1.994 0.1,3.188l-0.064,5.217c-0.035,3.188 0.598,4.119 2.591,4.119c1.195,0 2.392,-0.631 3.985,-2.059l0.1,-7.077c0.033,-1.759 -0.067,-1.991 -2.093,-2.127c-0.066,0 -0.2,-0.299 -0.1,-0.299c1.361,-0.23 2.923,-0.73 3.986,-1.328c0.032,-0.033 0.267,0.166 0.3,0.267c0.066,0.597 0.132,2.093 0.1,3.287l-0.067,7.575c0,1.659 0.632,1.86 2.69,1.295c0.034,0 0.166,0.299 0.067,0.331c-1.131,0.602 -3.357,1.565 -4.087,1.565" fill="#717073"/>
    <path stroke="null" id="svg_8" d="m1274.793653,900.631966c-1.294,0 -2.292,0.034 -3.222,0.166c-0.132,0.035 -0.066,-0.398 0,-0.398c1.729,-0.164 2.094,-0.398 2.094,-2.923l0,-4.983c0,-2.922 -0.5,-4.15 -2.427,-4.15c-1.062,0 -1.859,0.265 -4.352,1.793l0,7.341c0,2.359 0.3,2.759 2.094,2.923c0.067,0 0.133,0.434 0,0.398c-0.664,-0.1 -2.127,-0.166 -3.057,-0.166c-1.262,0 -2.823,0.034 -3.72,0.166c-0.134,0.035 -0.067,-0.398 -0.034,-0.398c2.292,-0.231 2.523,-0.331 2.523,-2.923l0,-5.58c0,-2.226 -0.397,-2.625 -2.124,-2.027c-0.065,0 -0.199,-0.265 -0.101,-0.331c1.363,-0.731 2.892,-1.859 3.986,-2.857c0.033,-0.033 0.266,0.099 0.266,0.2c0.066,0.563 0.133,1.96 0.166,2.724c2.759,-1.96 4.286,-2.592 5.814,-2.592c2.325,0 3.154,1.496 3.154,4.02l0,6.444c0,2.392 0.135,2.759 2.493,2.923c0.066,0 0.1,0.434 0,0.398c-0.664,-0.102 -2.622,-0.168 -3.553,-0.168" fill="#717073"/>
    <path stroke="null" id="svg_9" d="m1292.085653,900.631966c-1.297,0 -2.295,0.034 -3.224,0.166c-0.133,0.035 -0.067,-0.398 0,-0.398c1.728,-0.164 2.092,-0.398 2.092,-2.923l0,-4.983c0,-2.922 -0.497,-4.15 -2.425,-4.15c-1.064,0 -1.86,0.265 -4.352,1.793l0,7.341c0,2.359 0.299,2.759 2.095,2.923c0.065,0 0.133,0.434 0,0.398c-0.666,-0.1 -2.128,-0.166 -3.058,-0.166c-1.263,0 -2.824,0.034 -3.72,0.166c-0.135,0.035 -0.066,-0.398 -0.035,-0.398c2.293,-0.231 2.526,-0.331 2.526,-2.923l0,-5.58c0,-2.226 -0.399,-2.625 -2.127,-2.027c-0.067,0 -0.199,-0.265 -0.101,-0.331c1.364,-0.731 2.892,-1.859 3.987,-2.857c0.033,-0.033 0.266,0.099 0.266,0.2c0.066,0.563 0.133,1.96 0.166,2.724c2.759,-1.96 4.287,-2.592 5.813,-2.592c2.326,0 3.157,1.496 3.157,4.02l0,6.444c0,2.392 0.133,2.759 2.49,2.923c0.065,0 0.098,0.434 0,0.398c-0.664,-0.102 -2.622,-0.168 -3.55,-0.168" fill="#717073"/>
    <path stroke="null" id="svg_10" d="m1312.451653,889.937966c-0.5,0 -1.299,-0.997 -2.262,-0.997c-0.764,0 -1.428,0.365 -2.555,1.76l0,6.776c0,2.326 0.363,2.824 3.354,2.957c0.031,0 0.1,0.399 -0.033,0.364c-0.664,-0.1 -3.357,-0.165 -4.287,-0.165c-1.295,0 -2.82,0.033 -3.754,0.165c-0.1,0.035 -0.064,-0.364 0,-0.364c2.26,-0.266 2.494,-0.365 2.494,-2.957l0,-5.615c0,-2.19 -0.4,-2.59 -2.127,-1.992c-0.033,0 -0.168,-0.233 -0.066,-0.298c1.33,-0.765 2.924,-1.928 3.986,-2.924c0.033,-0.033 0.266,0.1 0.299,0.166c0.066,0.565 0.135,2.027 0.135,3.224c1.957,-2.426 3.453,-3.39 4.248,-3.39c0.863,0 1.629,1.197 1.629,1.562c0,0.597 -0.766,1.728 -1.061,1.728" fill="#717073"/>
    <path stroke="null" id="svg_11" d="m1317.600653,898.072966c0,1.264 0.896,1.795 2.125,1.795c1.131,0 1.893,-0.399 2.988,-1.295l0.133,-3.389c-4.448,0.3 -5.246,1.561 -5.246,2.889m7.242,3.124c-1.164,0 -1.996,-0.764 -2.029,-2.126c-1.328,1.263 -3.088,2.025 -4.682,2.025c-1.793,0 -2.891,-1.162 -2.891,-2.724c0,-1.792 2.027,-3.354 7.643,-3.653c0.029,-1.261 0.098,-3.089 0.064,-3.754c0,-0.996 -0.299,-1.894 -0.93,-2.259c-0.436,-0.233 -1.064,-0.364 -1.928,-0.364c-1.062,0 -2.023,0.53 -2.023,1.029c0,0.432 0.164,0.598 0.164,1.028c0,0.632 -1.031,1.263 -2.025,1.263c-0.432,0 -0.666,-0.267 -0.666,-0.598c0.066,-1.229 3.654,-4.052 6.643,-4.052c1.662,0 2.926,1.228 2.955,3.387c0.037,1.461 -0.197,6.313 -0.162,8.14c0,1.296 0.73,1.827 2.889,1.062c0,-0.032 0.133,0.234 0.035,0.3c-1.096,0.83 -2.096,1.296 -3.057,1.296" fill="#717073"/>
    <path stroke="null" id="svg_12" d="m1336.215653,888.706966c-1.195,0 -2.492,0.433 -3.355,0.964l0,8.802c0.896,1.097 2.525,1.429 4.053,1.429c2.592,0 4.053,-1.828 4.053,-5.448c-0.001,-3.853 -1.993,-5.747 -4.751,-5.747m-0.733,12.39c-2.023,0 -3.154,-0.763 -4.883,-0.431c-0.23,0.032 -0.299,-0.267 -0.23,-0.467c0.131,-0.363 0.264,-1.526 0.264,-3.952l0,-14.781c0,-2.193 -0.398,-2.593 -2.125,-2.027c-0.064,0.033 -0.166,-0.231 -0.064,-0.298c1.326,-0.733 3.287,-1.762 4.348,-2.759c0.035,-0.031 0.303,0.066 0.303,0.167c-0.17,0.632 -0.268,3.555 -0.234,4.783l0,7.674c1.727,-1.096 3.158,-1.694 5.084,-1.694c2.955,0 5.445,2.691 5.445,6.247c-0.001,3.753 -3.49,7.538 -7.908,7.538" fill="#717073"/>
    <path stroke="null" id="svg_13" d="m1356.979653,885.052966l-3.754,-5.017l-3.59,5.017c-0.098,0.134 -0.396,0.033 -0.297,-0.1l3.789,-6.743c0.064,-0.1 0.299,-0.1 0.363,0.033l3.787,6.71c0.1,0.133 -0.199,0.234 -0.298,0.1m-4.319,2.691c-2.691,0 -4.055,2.457 -4.055,5.214c0,4.62 2.062,7.409 5.152,7.409c2.689,0 4.02,-2.458 4.02,-5.217c0,-4.615 -2.06,-7.406 -5.117,-7.406m0.365,13.353c-4.152,0 -6.809,-3.255 -6.809,-6.811c0,-3.751 2.725,-7.273 7.172,-7.273c4.152,0 6.812,3.256 6.812,6.81c0.001,3.755 -2.723,7.274 -7.175,7.274" fill="#717073"/>
    <path stroke="null" id="svg_14" d="m1366.840653,901.096966c-2.059,0 -2.924,-0.961 -2.891,-3.154l0.135,-9.136c-0.766,0 -1.793,0 -2.129,0.034c-0.129,0 -0.162,-0.367 -0.098,-0.399c1.629,-1.13 3.021,-2.525 4.42,-4.087c0.031,-0.032 0.264,0.069 0.264,0.167c-0.066,0.665 -0.232,2.425 -0.264,3.088l1.791,0c1.396,0 2.459,-0.031 2.891,-0.165c0.268,-0.066 0.098,1.496 -0.268,1.462c-0.363,-0.034 -0.959,-0.065 -2.189,-0.1l-2.225,0l-0.135,8.37c-0.033,2.027 0.93,2.659 2.393,2.659c0.697,0 1.594,-0.135 2.393,-0.334c0.031,0 0.166,0.267 0.064,0.301c-1.361,0.863 -3.222,1.294 -4.152,1.294" fill="#717073"/>
   </g>
  </g>
 </g>
</svg>