<?xml version="1.0" encoding="UTF-8" standalone="no"?>
<svg width="244px" height="244px" viewBox="0 0 244 244" version="1.1" xmlns="http://www.w3.org/2000/svg" xmlns:xlink="http://www.w3.org/1999/xlink">
    <!-- Generator: Sketch 47.1 (45422) - http://www.bohemiancoding.com/sketch -->
    <title>Page 1 Copy 3</title>
    <desc>Created with Sketch.</desc>
    <defs></defs>
    <g id="CONCEPT-CLIENT-CASE-LAYOUTS" stroke="none" stroke-width="1" fill="none" fill-rule="evenodd">
        <g id="LP-Desktop-HD-New-NYP-CLIENT-PAGE" transform="translate(-1086.000000, -160.000000)">
            <g id="Page-1-Copy-3" transform="translate(1086.562500, 160.828571)">
                <polygon id="Fill-1" fill="#EE3224" points="0 0 242.578125 0 242.578125 242.404886 0 242.404886"></polygon>
                <g id="Group-33" transform="translate(12.128906, 25.595714)" fill="#FFFFFF">
                    <path d="M15.1732617,11.8966186 C14.5937695,10.2477157 14.1476953,8.78471857 13.7919141,7.09001286 L13.7433984,7.09001286 C13.3862695,8.65404571 12.8970703,10.3851243 12.3256641,12.1162029 L9.61013672,19.76528 L17.9750391,19.76528 L15.1732617,11.8966186 Z M21.5759766,30.4804543 L19.4830664,24.3496071 L8.14119141,24.3496071 L6.05232422,30.4804543 L0.22640625,30.4804543 L10.7259961,0.467458571 L17.2594336,0.467458571 L27.9786914,30.4804543 L21.5759766,30.4804543 L21.5759766,30.4804543 Z" id="Fill-3"></path>
                    <path d="M60.0111328,30.4804543 L57.8750977,16.16302 C57.4290234,13.3165071 57.1662305,11.0937214 56.9465625,9.00834429 L56.8549219,9.00834429 C56.4519727,10.91994 55.9627734,13.0538143 55.2026953,15.4045786 L50.4495117,30.4804543 L44.7098437,30.4804543 L40.1237695,16.5617743 C39.3246094,14.1194043 38.5726172,11.4049114 38.2154883,9.00834429 L38.126543,9.00834429 C37.945957,11.67434 37.6319531,14.0304929 37.2802148,16.6547271 L35.5916016,30.4804543 L29.717168,30.4804543 L34.3409766,0.467458571 L41.1075586,0.467458571 L46.1329687,15.8976329 C46.8445312,18.0355486 47.3795508,20.0805114 47.7798047,22.2157329 L47.8674023,22.2157329 C48.3107812,19.8999943 48.7959375,18.20933 49.5573633,15.9892386 L54.7134961,0.467458571 L61.4342578,0.467458571 L66.1079297,30.4804543 L60.0111328,30.4804543" id="Fill-5"></path>
                    <path d="M82.8849023,11.8966186 C82.3040625,10.2477157 81.855293,8.78471857 81.5008594,7.09001286 L81.4550391,7.09001286 C81.1046484,8.65404571 80.6087109,10.3851243 80.0386523,12.1162029 L77.3217773,19.76528 L85.6826367,19.76528 L82.8849023,11.8966186 Z M89.2876172,30.4804543 L87.19875,24.3496071 L75.852832,24.3496071 L73.7639648,30.4804543 L67.9380469,30.4804543 L78.4349414,0.467458571 L84.9751172,0.467458571 L95.690332,30.4804543 L89.2876172,30.4804543 L89.2876172,30.4804543 Z" id="Fill-6"></path>
                    <path d="M97.3034766,30.4804543 L97.3034766,26.0348829 L108.11168,8.43176714 C108.731602,7.40524429 109.356914,6.51343571 110.067129,5.58256 C108.99709,5.62432143 107.579355,5.67012429 104.595645,5.67012429 L97.6579102,5.67012429 L97.6579102,0.467458571 L117.052031,0.467458571 L117.052031,5.09085286 L105.622559,23.1466086 C105.176484,23.8579 104.772188,24.5233886 104.241211,25.2373743 C104.995898,25.1457686 107.038945,25.1457686 110.735566,25.1457686 L117.232617,25.1457686 L117.232617,30.4804543 L97.3034766,30.4804543" id="Fill-7"></path>
                    <polygon id="Fill-8" points="121.642148 0.467458571 127.424941 0.467458571 127.424941 30.4804543 121.642148 30.4804543"></polygon>
                    <path d="M150.193594,30.4804543 L141.38666,15.3197086 C140.05248,13.0538143 139.028262,10.8283343 138.136113,8.87093571 C138.316699,11.44802 138.401602,16.16302 138.401602,19.76528 L138.401602,30.4804543 L132.799395,30.4804543 L132.799395,0.467458571 L140.317969,0.467458571 L148.681523,14.7889343 C150.060176,17.0938957 151.25959,19.5888043 152.374102,21.8546986 C152.154434,18.83171 152.062793,13.49433 152.062793,9.80854714 L152.062793,0.467458571 L157.669043,0.467458571 L157.669043,30.4804543 L150.193594,30.4804543" id="Fill-9"></path>
                    <path d="M185.698945,6.68991143 C183.296074,5.76307714 180.533379,5.18245857 177.732949,5.18245857 C171.815391,5.18245857 167.547363,8.92078 167.547363,15.6308986 C167.547363,21.9894129 171.021621,25.7236929 177.115723,25.7236929 C178.536152,25.7236929 179.781387,25.54587 180.937676,25.1929186 L180.937676,14.7431314 L186.719121,14.7431314 L186.719121,29.0605657 C183.738105,30.2649114 180.052266,30.9263586 176.440547,30.9263586 C166.924746,30.9263586 161.274023,25.3235914 161.274023,16.16302 C161.274023,6.73571429 167.682129,0.0255957143 178.087383,0.0255957143 C181.073789,0.0255957143 184.006289,0.552328571 186.588398,1.31077 L185.698945,6.68991143" id="Fill-10"></path>
                    <polyline id="Fill-11" points="13.6975781 44.9393386 13.6975781 70.0217914 7.91882812 70.0217914 7.91882812 44.9393386 0.132070312 44.9393386 0.132070312 40.0061014 21.4910742 40.0061014 21.4910742 44.9393386 13.6975781 44.9393386"></polyline>
                    <polyline id="Fill-12" points="42.8891602 70.0217914 42.8891602 56.9895314 30.1699805 56.9895314 30.1699805 70.0217914 24.3831445 70.0217914 24.3831445 40.0061014 30.1699805 40.0061014 30.1699805 52.0118386 42.8891602 52.0118386 42.8891602 40.0061014 48.6692578 40.0061014 48.6692578 70.0217914 42.8891602 70.0217914"></polyline>
                    <polygon id="Fill-13" points="54.2283398 40.0061014 60.0138281 40.0061014 60.0138281 70.0231386 54.2283398 70.0231386"></polygon>
                    <path d="M82.9185937,70.0217914 L74.1076172,54.8583514 C72.7707422,52.5897629 71.7532617,50.3629357 70.8638086,48.4095786 C71.0376562,50.9893571 71.1292969,55.7043571 71.1292969,59.3066171 L71.1292969,70.0217914 L65.5243945,70.0217914 L65.5243945,40.0061014 L73.0389258,40.0061014 L81.4024805,54.3275771 C82.7838281,56.6352329 83.9805469,59.1207114 85.0923633,61.3919943 C84.8726953,58.3730471 84.787793,53.0316257 84.787793,49.3391071 L84.787793,40.0061014 L90.39,40.0061014 L90.39,70.0217914 L82.9185937,70.0217914" id="Fill-14"></path>
                    <path d="M118.419902,46.2312486 C116.012988,45.2976786 113.261074,44.71706 110.460645,44.71706 C104.543086,44.71706 100.272363,48.45134 100.272363,55.1695414 C100.272363,61.5267086 103.742578,65.26503 109.829941,65.26503 C111.257109,65.26503 112.502344,65.0845129 113.661328,64.7342557 L113.661328,54.2804271 L119.444121,54.2804271 L119.444121,68.6019029 C116.465801,69.8022071 112.773223,70.4650014 109.168242,70.4650014 C99.6483984,70.4650014 94.0017188,64.8608871 94.0017188,55.7043571 C94.0017188,46.2770514 100.407129,39.5601971 110.81373,39.5601971 C113.794746,39.5601971 116.733984,40.0909714 119.309355,40.8453714 L118.419902,46.2312486" id="Fill-15"></path>
                    <path d="M129.99627,70.5108043 C127.860234,70.5108043 125.725547,70.29122 123.859043,69.8022071 L124.213477,64.4190243 C125.906133,64.9956014 128.303613,65.4846143 130.480078,65.4846143 C133.419316,65.4846143 135.692813,64.28431 135.692813,61.5267086 C135.692813,55.7892271 123.10166,58.41885 123.10166,48.5429457 C123.10166,43.20826 127.325215,39.5170886 134.535176,39.5170886 C136.223789,39.5170886 138.181934,39.7366729 139.959492,40.0505571 L139.641445,45.11312 C137.955527,44.6281486 136.089023,44.3196529 134.265645,44.3196529 C130.930195,44.3196529 129.237539,45.8311471 129.237539,47.9623271 C129.237539,53.3468571 141.874512,51.3436557 141.874512,60.7278529 C141.874512,66.3723814 137.37873,70.5108043 129.99627,70.5108043" id="Fill-16"></path>
                    <path d="M15.1732617,90.9725571 C14.5937695,89.32096 14.1476953,87.85931 13.7919141,86.1672986 L13.7433984,86.1672986 C13.3862695,87.7232486 12.8970703,89.4543271 12.3256641,91.1988771 L9.61013672,98.8425657 L17.9750391,98.8425657 L15.1732617,90.9725571 Z M21.5759766,109.553699 L19.4830664,103.421504 L8.14119141,103.421504 L6.05232422,109.553699 L0.22640625,109.553699 L10.7259961,79.5407029 L17.2594336,79.5407029 L27.9786914,109.553699 L21.5759766,109.553699 L21.5759766,109.553699 Z" id="Fill-17"></path>
                    <path d="M38.0874609,84.0751857 C37.2451758,84.0751857 36.3948047,84.1236829 35.8207031,84.2099 L35.8207031,92.8841529 C36.2169141,92.9272614 37.0187695,92.9676757 37.906875,92.9676757 C41.3811328,92.9676757 43.5158203,91.1988771 43.5158203,88.3887371 C43.5158203,85.4977686 41.7382617,84.0751857 38.0874609,84.0751857 Z M44.4052734,109.553699 L36.0403711,97.1505543 L35.8207031,97.1505543 L35.8207031,109.553699 L30.0352148,109.553699 L30.0352148,79.5407029 C32.3936133,79.4019471 35.1980859,79.3669214 38.6642578,79.3669214 C45.2893359,79.3669214 49.5600586,81.6786186 49.5600586,87.8135071 C49.5600586,92.2577314 46.4442773,95.4612371 41.9121094,96.1698343 C42.7611328,97.2812271 43.6007227,98.4451586 44.3621484,99.4649457 L51.5586328,109.553699 L44.4052734,109.553699 L44.4052734,109.553699 Z" id="Fill-18"></path>
                    <polyline id="Fill-19" points="54.6771094 109.553699 54.6771094 79.5407029 71.0026172 79.5407029 71.0026172 84.3917643 60.4639453 84.3917643 60.4639453 91.7660243 70.470293 91.7660243 70.470293 96.48776 60.4639453 96.48776 60.4639453 104.62585 71.0026172 104.62585 71.0026172 109.553699 54.6771094 109.553699"></polyline>
                    <polyline id="Fill-20" points="18.7283789 149.099077 18.7283789 136.058734 6.00919922 136.058734 6.00919922 149.099077 0.22640625 149.099077 0.22640625 119.079346 6.00919922 119.079346 6.00919922 131.085083 18.7283789 131.085083 18.7283789 119.079346 24.5152148 119.079346 24.5152148 149.099077 18.7283789 149.099077"></polyline>
                    <path d="M41.6008008,130.508506 C41.0226562,128.864991 40.580625,127.38987 40.2261914,125.705941 L40.1803711,125.705941 C39.8218945,127.255156 39.334043,128.997011 38.7599414,130.730784 L36.0403711,138.377167 L44.4052734,138.377167 L41.6008008,130.508506 Z M48.0062109,149.099077 L45.9200391,142.953411 L34.5741211,142.953411 L32.4812109,149.099077 L26.6566406,149.099077 L37.1521875,119.079346 L43.6923633,119.079346 L54.4116211,149.099077 L48.0062109,149.099077 L48.0062109,149.099077 Z" id="Fill-21"></path>
                    <path d="M64.5594727,123.616523 C63.8479102,123.616523 63.182168,123.616523 62.5204687,123.65559 L62.5204687,133.662167 C63.0932227,133.753773 63.6686719,133.79284 64.2063867,133.79284 C67.7682422,133.753773 70.2155859,131.79368 70.2155859,128.551107 C70.2155859,125.528119 68.4798047,123.616523 64.5594727,123.616523 Z M64.4745703,138.596751 C63.9368555,138.596751 63.2279883,138.596751 62.5204688,138.510534 L62.5204688,149.099077 L56.7268945,149.099077 L56.7268945,119.079346 C59.1809766,118.947326 61.8506836,118.898829 64.7831836,118.898829 C72.1696875,118.898829 76.2166992,122.328654 76.2166992,128.196809 C76.2166992,134.01916 71.7653906,138.596751 64.4745703,138.596751 L64.4745703,138.596751 Z" id="Fill-22"></path>
                    <path d="M86.8510547,123.616523 C86.1394922,123.616523 85.4764453,123.616523 84.8080078,123.65559 L84.8080078,133.662167 C85.3875,133.753773 85.9656445,133.79284 86.4966211,133.79284 C90.0517383,133.753773 92.5058203,131.79368 92.5058203,128.551107 C92.5058203,125.528119 90.7700391,123.616523 86.8510547,123.616523 Z M86.7688477,138.596751 C86.2297852,138.596751 85.5195703,138.596751 84.8080078,138.510534 L84.8080078,149.099077 L79.0252148,149.099077 L79.0252148,119.079346 C81.4712109,118.947326 84.1382227,118.898829 87.0761133,118.898829 C94.4612695,118.898829 98.5082812,122.328654 98.5082812,128.196809 C98.5082812,134.01916 94.059668,138.596751 86.7688477,138.596751 L86.7688477,138.596751 Z" id="Fill-23"></path>
                    <polyline id="Fill-24" points="101.319492 149.099077 101.319492 119.079346 117.646348 119.079346 117.646348 123.923671 107.102285 123.923671 107.102285 131.304667 117.105938 131.304667 117.105938 136.023709 107.102285 136.023709 107.102285 144.160451 117.646348 144.160451 117.646348 149.099077 101.319492 149.099077"></polyline>
                    <path d="M139.805859,149.099077 L130.99623,133.931596 C129.660703,131.658966 128.631094,129.442916 127.748379,127.485517 C127.922227,130.065296 128.013867,134.777601 128.013867,138.377167 L128.013867,149.099077 L122.404922,149.099077 L122.404922,119.079346 L129.926191,119.079346 L138.289746,133.399474 C139.672441,135.704436 140.867812,138.200691 141.983672,140.466586 C141.757266,137.44225 141.675059,132.107564 141.675059,128.412351 L141.675059,119.079346 L147.27457,119.079346 L147.27457,149.099077 L139.805859,149.099077" id="Fill-25"></path>
                    <polygon id="Fill-26" points="152.787832 119.079346 158.57332 119.079346 158.57332 149.099077 152.787832 149.099077"></polygon>
                    <path d="M181.478086,149.099077 L172.671152,133.931596 C171.33293,131.658966 170.306016,129.442916 169.424648,127.485517 C169.598496,130.065296 169.686094,134.777601 169.686094,138.377167 L169.686094,149.099077 L164.08793,149.099077 L164.08793,119.079346 L171.602461,119.079346 L179.966016,133.399474 C181.344668,135.704436 182.544082,138.200691 183.651855,140.466586 C183.432187,137.44225 183.347285,132.107564 183.347285,128.412351 L183.347285,119.079346 L188.949492,119.079346 L188.949492,149.099077 L181.478086,149.099077" id="Fill-27"></path>
                    <path d="M216.980742,125.301799 C214.580566,124.366881 211.821914,123.790304 209.020137,123.790304 C203.106621,123.790304 198.831855,127.524584 198.831855,134.241439 C198.831855,140.599953 202.30207,144.340969 208.39752,144.340969 C209.816602,144.340969 211.065879,144.160451 212.224863,143.806153 L212.224863,133.350977 L218.007656,133.350977 L218.007656,147.668411 C215.029336,148.868716 211.331367,149.534204 207.731777,149.534204 C198.211934,149.534204 192.565254,143.938173 192.565254,134.777601 C192.565254,125.347601 198.963926,118.6294 209.377266,118.6294 C212.358281,118.6294 215.288086,119.16691 217.872891,119.926699 L216.980742,125.301799" id="Fill-28"></path>
                    <polyline id="Fill-29" points="18.7283789 188.626943 18.7283789 175.601419 6.00919922 175.601419 6.00919922 188.626943 0.22640625 188.626943 0.22640625 158.616641 6.00919922 158.616641 6.00919922 170.622379 18.7283789 170.622379 18.7283789 158.616641 24.5152148 158.616641 24.5152148 188.626943 18.7283789 188.626943"></polyline>
                    <polyline id="Fill-30" points="30.0702539 188.626943 30.0702539 158.616641 46.3957617 158.616641 46.3957617 163.462314 35.8570898 163.462314 35.8570898 170.839269 45.8674805 170.839269 45.8674805 175.561004 35.8570898 175.561004 35.8570898 183.691011 46.3957617 183.691011 46.3957617 188.626943 30.0702539 188.626943"></polyline>
                    <path d="M59.6176172,163.151124 C58.7672461,163.151124 57.920918,163.194233 57.3441211,163.285839 L57.3441211,171.957397 C57.744375,172.000506 58.5475781,172.043614 59.4370312,172.043614 C62.9072461,172.043614 65.0419336,170.262691 65.0419336,167.463329 C65.0419336,164.566971 63.264375,163.151124 59.6176172,163.151124 Z M65.9313867,188.626943 L57.5705273,176.223799 L57.3441211,176.223799 L57.3441211,188.626943 L51.5586328,188.626943 L51.5586328,158.616641 C53.9237695,158.483274 56.7241992,158.436124 60.1944141,158.436124 C66.8167969,158.436124 71.0902148,160.750516 71.0902148,166.889446 C71.0902148,171.339059 67.9771289,174.535829 63.4422656,175.239037 C64.2845508,176.357166 65.1308789,177.513014 65.8855664,178.53819 L73.0941797,188.626943 L65.9313867,188.626943 L65.9313867,188.626943 Z" id="Fill-31"></path>
                    <polyline id="Fill-32" points="76.2072656 188.626943 76.2072656 158.616641 92.5287305 158.616641 92.5287305 163.462314 81.9900586 163.462314 81.9900586 170.839269 92.0004492 170.839269 92.0004492 175.561004 81.9900586 175.561004 81.9900586 183.691011 92.5287305 183.691011 92.5287305 188.626943 76.2072656 188.626943"></polyline>
                </g>
            </g>
        </g>
    </g>
</svg>