<?xml version="1.0" encoding="UTF-8" standalone="no"?>
<svg width="277px" height="204px" viewBox="0 0 277 204" version="1.1" xmlns="http://www.w3.org/2000/svg" xmlns:xlink="http://www.w3.org/1999/xlink">
    <!-- Generator: Sketch 47.1 (45422) - http://www.bohemiancoding.com/sketch -->
    <title>Group 8</title>
    <desc>Created with Sketch.</desc>
    <defs></defs>
    <g id="BESSEMER-CLIENT-CASE-STUDY-PAGE" stroke="none" stroke-width="1" fill="none" fill-rule="evenodd">
        <g id="Mobile-Portrait-BESSEMER-CC-RECOVERY-EXPANDED-SECTION-APPROVED" transform="translate(-24.000000, -292.000000)">
            <g id="Group-8" transform="translate(20.000000, 292.000000)">
                <g id="Group-2">
                    <g id="Group-7">
                        <path d="M39,18 L280,18" id="Line-Copy-95" stroke="#F5F6F8" stroke-width="0.54" opacity="0.5" stroke-linecap="square"></path>
                        <path d="M39,57 L280,57" id="Line-Copy-96" stroke="#F5F6F8" stroke-width="0.54" opacity="0.5" stroke-linecap="square"></path>
                        <path d="M39,87 L280,87" id="Line-Copy-98" stroke="#F5F6F8" stroke-width="0.54" opacity="0.5" stroke-linecap="square"></path>
                        <path d="M39,117 L280,117" id="Line-Copy-99" stroke="#F5F6F8" stroke-width="0.54" opacity="0.5" stroke-linecap="square"></path>
                        <path d="M39,147 L280,147" id="Line-Copy-100" stroke="#F5F6F8" stroke-width="0.54" opacity="0.5" stroke-linecap="square"></path>
                        <path d="M39,177 L280,177" id="Line-Copy-101" stroke="#F5F6F8" stroke-width="0.54" opacity="0.5" stroke-linecap="square"></path>
                        <path d="M35,57 L39,57" id="Line-Copy-102" stroke="#FFFFFF" stroke-width="0.54" stroke-linecap="square"></path>
                        <path d="M35,87 L39,87" id="Line-Copy-104" stroke="#FFFFFF" stroke-width="0.54" stroke-linecap="square"></path>
                        <path d="M35,117 L39,117" id="Line-Copy-105" stroke="#FFFFFF" stroke-width="0.54" stroke-linecap="square"></path>
                        <path d="M35,147 L39,147" id="Line-Copy-106" stroke="#FFFFFF" stroke-width="0.54" stroke-linecap="square"></path>
                        <path d="M35,177 L39,177" id="Line-Copy-107" stroke="#FFFFFF" stroke-width="0.54" stroke-linecap="square"></path>
                        <path d="M35,18 L39,18" id="Line-Copy-103" stroke="#FFFFFF" stroke-width="0.54" stroke-linecap="square"></path>
                        <path d="M48,190 L52,190" id="Line-Copy-110" stroke="#FFFFFF" stroke-width="0.54" stroke-linecap="square" transform="translate(50.000000, 190.000000) rotate(-90.000000) translate(-50.000000, -190.000000) "></path>
                        <path d="M93,190 L97,190" id="Line-Copy-111" stroke="#FFFFFF" stroke-width="0.54" stroke-linecap="square" transform="translate(95.000000, 190.000000) rotate(-90.000000) translate(-95.000000, -190.000000) "></path>
                        <path d="M137,190 L141,190" id="Line-Copy-112" stroke="#FFFFFF" stroke-width="0.54" stroke-linecap="square" transform="translate(139.000000, 190.000000) rotate(-90.000000) translate(-139.000000, -190.000000) "></path>
                        <path d="M181,190 L185,190" id="Line-Copy-113" stroke="#FFFFFF" stroke-width="0.54" stroke-linecap="square" transform="translate(183.000000, 190.000000) rotate(-90.000000) translate(-183.000000, -190.000000) "></path>
                        <path d="M225,190 L229,190" id="Line-Copy-114" stroke="#FFFFFF" stroke-width="0.54" stroke-linecap="square" transform="translate(227.000000, 190.000000) rotate(-90.000000) translate(-227.000000, -190.000000) "></path>
                        <path d="M266,190 L270,190" id="Line-Copy-115" stroke="#FFFFFF" stroke-width="0.54" stroke-linecap="square" transform="translate(268.000000, 190.000000) rotate(-90.000000) translate(-268.000000, -190.000000) "></path>
                        <polyline id="Path-2-Copy-3" stroke="#FFFFFF" stroke-width="0.75" points="39 0 39 188 280 188"></polyline>
                        <circle id="Oval-2-Copy-4" fill="#FFFFFF" cx="50" cy="141" r="2"></circle>
                        <circle id="Oval-2-Copy-5" fill="#FFFFFF" cx="268" cy="39" r="2"></circle>
                        <path d="M50.4210088,140.677553 L268.5,38.5" id="Line" stroke="#FFFFFF" stroke-linecap="square"></path>
                        <text id="2013" font-family="NeueHaasUnicaPro-Medium, Neue Haas Unica Pro" font-size="10" font-weight="400" line-spacing="16" fill="#FFFFFF">
                            <tspan x="171" y="203">2013</tspan>
                        </text>
                        <text id="2015" font-family="NeueHaasUnicaPro-Medium, Neue Haas Unica Pro" font-size="10" font-weight="400" line-spacing="16" fill="#FFFFFF">
                            <tspan x="215" y="203">2015</tspan>
                        </text>
                        <text id="2017" font-family="NeueHaasUnicaPro-Medium, Neue Haas Unica Pro" font-size="10" font-weight="400" line-spacing="16" fill="#FFFFFF">
                            <tspan x="256" y="203">2017</tspan>
                        </text>
                        <text id="2011" font-family="NeueHaasUnicaPro-Medium, Neue Haas Unica Pro" font-size="10" font-weight="400" line-spacing="16" fill="#FFFFFF">
                            <tspan x="127" y="203">2011</tspan>
                        </text>
                        <text id="2009" font-family="NeueHaasUnicaPro-Medium, Neue Haas Unica Pro" font-size="10" font-weight="400" line-spacing="16" fill="#FFFFFF">
                            <tspan x="83" y="203">2009</tspan>
                        </text>
                        <text id="2007" font-family="NeueHaasUnicaPro-Medium, Neue Haas Unica Pro" font-size="10" font-weight="400" line-spacing="16" fill="#FFFFFF">
                            <tspan x="39" y="203">2007</tspan>
                        </text>
                        <path d="M29.5048733,173 C31.1130604,173 32,174.252841 32,176.5 C32,178.747159 31.1130604,180 29.5048733,180 C27.8869396,180 27,178.747159 27,176.5 C27,174.252841 27.8869396,173 29.5048733,173 Z M29.5048733,174.004261 C28.6569201,174.004261 28.1988304,174.889205 28.1988304,176.5 C28.1988304,178.120739 28.6569201,179.015625 29.5048733,179.015625 C30.3430799,179.015625 30.8011696,178.120739 30.8011696,176.5 C30.8011696,174.889205 30.3430799,174.004261 29.5048733,174.004261 Z" id="0-copy" fill="#FFFFFF" transform="translate(29.500000, 176.500000) rotate(-90.000000) translate(-29.500000, -176.500000) "></path>
                        <path d="M29.385,149.305 L28.355,149.305 L28.355,150.925 L27.175,150.925 L27.175,149.305 L23.965,149.305 L23.965,148.285 L26.775,144.185 L28.355,144.185 L28.355,148.355 L29.385,148.355 L29.385,149.305 Z M25.075,148.355 L27.205,148.355 L27.205,147.485 C27.205,146.695 27.225,145.905 27.255,145.115 L27.235,145.115 C26.775,145.865 26.285,146.595 25.785,147.335 L25.075,148.355 Z M32.515,144.035 C34.165,144.035 35.075,145.295 35.075,147.555 C35.075,149.815 34.165,151.075 32.515,151.075 C30.855,151.075 29.945,149.815 29.945,147.555 C29.945,145.295 30.855,144.035 32.515,144.035 Z M32.515,145.045 C31.645,145.045 31.175,145.935 31.175,147.555 C31.175,149.185 31.645,150.085 32.515,150.085 C33.375,150.085 33.845,149.185 33.845,147.555 C33.845,145.935 33.375,145.045 32.515,145.045 Z" id="40" fill="#FFFFFF" transform="translate(29.520000, 147.555000) rotate(-90.000000) translate(-29.520000, -147.555000) "></path>
                        <path d="M26.765,113.885 C28.035,113.885 28.835,114.615 28.925,115.825 L27.725,115.825 C27.635,115.205 27.285,114.875 26.715,114.875 C25.875,114.875 25.275,115.555 25.235,117.155 L25.255,117.155 C25.645,116.655 26.185,116.375 26.855,116.375 C28.155,116.375 29.025,117.275 29.025,118.585 C29.025,119.985 28.035,120.925 26.605,120.925 C25.015,120.925 24.115,119.825 24.115,117.635 C24.115,115.205 25.095,113.885 26.765,113.885 Z M26.625,117.305 C25.905,117.305 25.435,117.845 25.435,118.635 C25.435,119.425 25.875,119.935 26.605,119.935 C27.325,119.935 27.795,119.425 27.795,118.615 C27.795,117.825 27.335,117.305 26.625,117.305 Z M32.365,113.885 C34.015,113.885 34.925,115.145 34.925,117.405 C34.925,119.665 34.015,120.925 32.365,120.925 C30.705,120.925 29.795,119.665 29.795,117.405 C29.795,115.145 30.705,113.885 32.365,113.885 Z M32.365,114.895 C31.495,114.895 31.025,115.785 31.025,117.405 C31.025,119.035 31.495,119.935 32.365,119.935 C33.225,119.935 33.695,119.035 33.695,117.405 C33.695,115.785 33.225,114.895 32.365,114.895 Z" id="60" fill="#FFFFFF" transform="translate(29.520000, 117.405000) rotate(-90.000000) translate(-29.520000, -117.405000) "></path>
                        <path d="M26.57,83.9 C27.92,83.9 28.89,84.64 28.89,85.75 C28.89,86.49 28.43,87.04 27.69,87.28 L27.69,87.3 C28.53,87.54 29.03,88.14 29.03,88.97 C29.03,90.18 28.04,90.94 26.57,90.94 C25.09,90.94 24.1,90.18 24.1,88.97 C24.1,88.14 24.6,87.54 25.44,87.3 L25.44,87.28 C24.7,87.04 24.24,86.49 24.24,85.75 C24.24,84.64 25.21,83.9 26.57,83.9 Z M26.57,84.88 C25.86,84.88 25.39,85.25 25.39,85.83 C25.39,86.45 25.84,86.84 26.57,86.84 C27.29,86.84 27.74,86.45 27.74,85.83 C27.74,85.25 27.27,84.88 26.57,84.88 Z M26.57,87.8 C25.8,87.8 25.3,88.24 25.3,88.87 C25.3,89.53 25.79,89.94 26.57,89.94 C27.34,89.94 27.84,89.53 27.84,88.87 C27.84,88.24 27.33,87.8 26.57,87.8 Z M32.38,83.9 C34.03,83.9 34.94,85.16 34.94,87.42 C34.94,89.68 34.03,90.94 32.38,90.94 C30.72,90.94 29.81,89.68 29.81,87.42 C29.81,85.16 30.72,83.9 32.38,83.9 Z M32.38,84.91 C31.51,84.91 31.04,85.8 31.04,87.42 C31.04,89.05 31.51,89.95 32.38,89.95 C33.24,89.95 33.71,89.05 33.71,87.42 C33.71,85.8 33.24,84.91 32.38,84.91 Z" id="80" fill="#FFFFFF" transform="translate(29.520000, 87.420000) rotate(-90.000000) translate(-29.520000, -87.420000) "></path>
                        <path d="M24.225,60.415 L24.225,53.675 L23.175,53.675 C23.055,54.485 22.575,54.815 21.475,54.815 L21.475,55.675 L23.045,55.675 L23.045,60.415 L24.225,60.415 Z M29.195,53.525 C30.845,53.525 31.755,54.785 31.755,57.045 C31.755,59.305 30.845,60.565 29.195,60.565 C27.535,60.565 26.625,59.305 26.625,57.045 C26.625,54.785 27.535,53.525 29.195,53.525 Z M29.195,54.535 C28.325,54.535 27.855,55.425 27.855,57.045 C27.855,58.675 28.325,59.575 29.195,59.575 C30.055,59.575 30.525,58.675 30.525,57.045 C30.525,55.425 30.055,54.535 29.195,54.535 Z M35.005,53.525 C36.655,53.525 37.565,54.785 37.565,57.045 C37.565,59.305 36.655,60.565 35.005,60.565 C33.345,60.565 32.435,59.305 32.435,57.045 C32.435,54.785 33.345,53.525 35.005,53.525 Z M35.005,54.535 C34.135,54.535 33.665,55.425 33.665,57.045 C33.665,58.675 34.135,59.575 35.005,59.575 C35.865,59.575 36.335,58.675 36.335,57.045 C36.335,55.425 35.865,54.535 35.005,54.535 Z" id="100" fill="#FFFFFF" transform="translate(29.520000, 57.045000) rotate(-90.000000) translate(-29.520000, -57.045000) "></path>
                        <path d="M24.225,21.415 L24.225,14.675 L23.175,14.675 C23.055,15.485 22.575,15.815 21.475,15.815 L21.475,16.675 L23.045,16.675 L23.045,21.415 L24.225,21.415 Z M29.185,14.525 C27.765,14.525 26.865,15.305 26.825,16.715 L28.015,16.715 C28.045,15.955 28.405,15.525 29.185,15.525 C29.825,15.525 30.215,15.905 30.215,16.475 C30.215,17.245 29.695,17.615 28.695,18.195 C27.075,19.135 26.735,19.905 26.735,21.205 C26.735,21.265 26.735,21.335 26.745,21.415 L31.605,21.415 L31.605,20.435 L28.105,20.435 C28.125,19.895 28.375,19.535 29.665,18.775 C30.705,18.175 31.445,17.625 31.445,16.425 C31.445,15.275 30.555,14.525 29.185,14.525 Z M35.005,14.525 C36.655,14.525 37.565,15.785 37.565,18.045 C37.565,20.305 36.655,21.565 35.005,21.565 C33.345,21.565 32.435,20.305 32.435,18.045 C32.435,15.785 33.345,14.525 35.005,14.525 Z M35.005,15.535 C34.135,15.535 33.665,16.425 33.665,18.045 C33.665,19.675 34.135,20.575 35.005,20.575 C35.865,20.575 36.335,19.675 36.335,18.045 C36.335,16.425 35.865,15.535 35.005,15.535 Z" id="120" fill="#FFFFFF" transform="translate(29.520000, 18.045000) rotate(-90.000000) translate(-29.520000, -18.045000) "></path>
                        <text id="Revenue-in-Billions-Copy-2" transform="translate(8.000000, 93.500000) rotate(-90.000000) translate(-8.000000, -93.500000) " font-family="NeueHaasUnicaPro-Medium, Neue Haas Unica Pro" font-size="10" font-weight="400" line-spacing="16" fill="#FFFFFF">
                            <tspan x="-35.5" y="97.5">Revenue in Billions</tspan>
                        </text>
                    </g>
                </g>
                <g id="Group-3" transform="translate(48.000000, 51.000000)"></g>
            </g>
        </g>
    </g>
</svg>