<?xml version="1.0" encoding="UTF-8" standalone="no"?>
<svg width="626px" height="361px" viewBox="0 0 626 361" version="1.1" xmlns="http://www.w3.org/2000/svg" xmlns:xlink="http://www.w3.org/1999/xlink">
    <!-- Generator: Sketch 48.2 (47327) - http://www.bohemiancoding.com/sketch -->
    <title>Group 10</title>
    <desc>Created with Sketch.</desc>
    <defs></defs>
    <g id="MR-Desktop-HD-BESSEMER-CC-FINAL-REV-EXPANDED-RESULTS-SECTION-APPROVED" stroke="none" stroke-width="1" fill="none" fill-rule="evenodd" transform="translate(-301.000000, -276.000000)">
        <g id="Group-10" transform="translate(297.000000, 276.000000)">
            <g id="Group-9">
                <g id="Group-11">
                    <path d="M30.084,313 C32.064,313 33.156,314.62 33.156,317.525714 C33.156,320.431429 32.064,322.051429 30.084,322.051429 C28.092,322.051429 27,320.431429 27,317.525714 C27,314.62 28.092,313 30.084,313 Z M30.084,314.298571 C29.04,314.298571 28.476,315.442857 28.476,317.525714 C28.476,319.621429 29.04,320.778571 30.084,320.778571 C31.116,320.778571 31.68,319.621429 31.68,317.525714 C31.68,315.442857 31.116,314.298571 30.084,314.298571 Z" id="0-copy-3" fill="#FFFFFF" transform="translate(30.078000, 317.525714) rotate(-90.000000) translate(-30.078000, -317.525714) "></path>
                    <path d="M32.9250868,326.084671 C32.9250868,327.249151 32.1123985,328.035962 30.810139,328.151361 L30.810139,329.053571 L30.1051564,329.053571 L30.1051564,328.161852 C28.7637312,328.035962 28,327.196697 28,325.707002 L29.0868482,325.707002 C29.0868482,326.609212 29.4589223,327.081298 30.1051564,327.207188 L30.1051564,324.857246 C29.1358053,324.563503 28.0979143,324.175343 28.0979143,322.801047 C28.0979143,321.657548 28.8714368,320.90221 30.1051564,320.797302 L30.1051564,320 L30.810139,320 L30.810139,320.807793 C32.0732328,320.933682 32.7488411,321.699512 32.7488411,323.126262 L31.6717844,323.126262 C31.6717844,322.297488 31.3584588,321.877855 30.810139,321.751966 L30.810139,323.902582 C31.8676129,324.206816 32.9250868,324.563503 32.9250868,326.084671 Z M29.2141367,322.70663 C29.2141367,323.283624 29.5274623,323.503931 30.1051564,323.703257 L30.1051564,321.730984 C29.5372537,321.814911 29.2141367,322.140126 29.2141367,322.70663 Z M30.810139,325.077553 L30.810139,327.217679 C31.4759559,327.123262 31.8186558,326.724611 31.8186558,326.137125 C31.8186558,325.528658 31.4465816,325.29786 30.810139,325.077553 Z" id="$-copy" fill="#FFFFFF" transform="translate(30.462543, 324.526786) rotate(-90.000000) translate(-30.462543, -324.526786) "></path>
                    <path d="M29.8420342,262.913068 L28.6368137,262.913068 L28.6368137,264.846023 L27.2560756,264.846023 L27.2560756,262.913068 L23.5,262.913068 L23.5,261.696023 L26.7880288,256.803977 L28.6368137,256.803977 L28.6368137,261.779545 L29.8420342,261.779545 L29.8420342,262.913068 Z M24.7988299,261.779545 L27.2911791,261.779545 L27.2911791,260.741477 C27.2911791,259.798864 27.3145815,258.85625 27.349685,257.913636 L27.3262826,257.913636 C26.7880288,258.808523 26.2146715,259.679545 25.629613,260.5625 L24.7988299,261.779545 Z M33.5045005,256.625 C35.4351935,256.625 36.5,258.128409 36.5,260.825 C36.5,263.521591 35.4351935,265.025 33.5045005,265.025 C31.5621062,265.025 30.4972997,263.521591 30.4972997,260.825 C30.4972997,258.128409 31.5621062,256.625 33.5045005,256.625 Z M33.5045005,257.830114 C32.4864986,257.830114 31.9365437,258.892045 31.9365437,260.825 C31.9365437,262.769886 32.4864986,263.84375 33.5045005,263.84375 C34.5108011,263.84375 35.0607561,262.769886 35.0607561,260.825 C35.0607561,258.892045 34.5108011,257.830114 33.5045005,257.830114 Z" id="40-copy-3" fill="#FFFFFF" transform="translate(30.000000, 260.825000) rotate(-90.000000) translate(-30.000000, -260.825000) "></path>
                    <path d="M32.6875433,273.862399 C32.6875433,275.003589 31.874855,275.774664 30.5725955,275.887755 L30.5725955,276.77192 L29.8676129,276.77192 L29.8676129,275.898036 C28.5261877,275.774664 27.7624565,274.952184 27.7624565,273.492283 L28.8493047,273.492283 C28.8493047,274.376448 29.2213788,274.839093 29.8676129,274.962465 L29.8676129,272.659522 C28.8982618,272.371654 27.8603708,271.991257 27.8603708,270.644447 C27.8603708,269.523818 28.6338933,268.783586 29.8676129,268.680776 L29.8676129,267.899421 L30.5725955,267.899421 L30.5725955,268.691057 C31.8356893,268.814429 32.5112977,269.564942 32.5112977,270.963158 L31.4342409,270.963158 C31.4342409,270.150959 31.1209153,269.739719 30.5725955,269.616347 L30.5725955,271.723951 C31.6300694,272.0221 32.6875433,272.371654 32.6875433,273.862399 Z M28.9765932,270.551918 C28.9765932,271.117373 29.2899188,271.333273 29.8676129,271.528612 L29.8676129,269.595785 C29.2997102,269.678033 28.9765932,269.996744 28.9765932,270.551918 Z M30.5725955,272.875423 L30.5725955,274.972746 C31.2384124,274.880217 31.5811123,274.489539 31.5811123,273.913803 C31.5811123,273.317506 31.2090381,273.091324 30.5725955,272.875423 Z" id="$-copy-2" fill="#FFFFFF" transform="translate(30.225000, 272.335671) rotate(-90.000000) translate(-30.225000, -272.335671) "></path>
                    <path d="M26.686864,197.56843 C28.2141536,197.56843 29.1762257,198.437477 29.2844588,199.877954 L27.8413506,199.877954 C27.7331175,199.139858 27.3122109,198.747001 26.6267345,198.747001 C25.6165587,198.747001 24.8950046,199.556525 24.846901,201.461287 L24.8709528,201.461287 C25.339963,200.866049 25.9893617,200.532715 26.7950971,200.532715 C28.3584644,200.532715 29.4047179,201.604144 29.4047179,203.163668 C29.4047179,204.830334 28.2141536,205.949382 26.4944496,205.949382 C24.5823312,205.949382 23.5,204.639858 23.5,202.032715 C23.5,199.139858 24.6785384,197.56843 26.686864,197.56843 Z M26.5185014,201.639858 C25.6526364,201.639858 25.0874191,202.282715 25.0874191,203.223192 C25.0874191,204.163668 25.6165587,204.770811 26.4944496,204.770811 C27.3603145,204.770811 27.9255319,204.163668 27.9255319,203.199382 C27.9255319,202.258906 27.3723404,201.639858 26.5185014,201.639858 Z M33.4213691,197.56843 C35.4056429,197.56843 36.5,199.06843 36.5,201.758906 C36.5,204.449382 35.4056429,205.949382 33.4213691,205.949382 C31.4250694,205.949382 30.3307123,204.449382 30.3307123,201.758906 C30.3307123,199.06843 31.4250694,197.56843 33.4213691,197.56843 Z M33.4213691,198.770811 C32.3751156,198.770811 31.8098982,199.830334 31.8098982,201.758906 C31.8098982,203.699382 32.3751156,204.770811 33.4213691,204.770811 C34.4555967,204.770811 35.0208141,203.699382 35.0208141,201.758906 C35.0208141,199.830334 34.4555967,198.770811 33.4213691,198.770811 Z" id="60-copy-3" fill="#FFFFFF" transform="translate(30.000000, 201.758906) rotate(-90.000000) translate(-30.000000, -201.758906) "></path>
                    <path d="M32.6875433,214.766741 C32.6875433,215.905344 31.874855,216.67467 30.5725955,216.787505 L30.5725955,217.669666 L29.8676129,217.669666 L29.8676129,216.797762 C28.5261877,216.67467 27.7624565,215.854056 27.7624565,214.397465 L28.8493047,214.397465 C28.8493047,215.279625 29.2213788,215.741221 29.8676129,215.864313 L29.8676129,213.566592 C28.8982618,213.279377 27.8603708,212.899843 27.8603708,211.556086 C27.8603708,210.437999 28.6338933,209.699446 29.8676129,209.596869 L29.8676129,208.817285 L30.5725955,208.817285 L30.5725955,209.607126 C31.8356893,209.730219 32.5112977,210.479029 32.5112977,211.874074 L31.4342409,211.874074 C31.4342409,211.063717 31.1209153,210.65341 30.5725955,210.530318 L30.5725955,212.633143 C31.6300694,212.930616 32.6875433,213.279377 32.6875433,214.766741 Z M28.9765932,211.463767 C28.9765932,212.02794 29.2899188,212.243351 29.8676129,212.438247 L29.8676129,210.509803 C29.2997102,210.591864 28.9765932,210.909852 28.9765932,211.463767 Z M30.5725955,213.782004 L30.5725955,215.874571 C31.2384124,215.782252 31.5811123,215.39246 31.5811123,214.81803 C31.5811123,214.223084 31.2090381,213.997415 30.5725955,213.782004 Z" id="$-copy-3" fill="#FFFFFF" transform="translate(30.225000, 213.243475) rotate(-90.000000) translate(-30.225000, -213.243475) "></path>
                    <path d="M26.4621771,136.625 C28.0811808,136.625 29.2444649,137.507955 29.2444649,138.832386 C29.2444649,139.715341 28.6928044,140.371591 27.8053506,140.657955 L27.8053506,140.681818 C28.8127306,140.968182 29.4123616,141.684091 29.4123616,142.674432 C29.4123616,144.118182 28.2250923,145.025 26.4621771,145.025 C24.6872694,145.025 23.5,144.118182 23.5,142.674432 C23.5,141.684091 24.099631,140.968182 25.1070111,140.681818 L25.1070111,140.657955 C24.2195572,140.371591 23.6678967,139.715341 23.6678967,138.832386 C23.6678967,137.507955 24.8311808,136.625 26.4621771,136.625 Z M26.4621771,137.794318 C25.6107011,137.794318 25.047048,138.235795 25.047048,138.927841 C25.047048,139.667614 25.5867159,140.132955 26.4621771,140.132955 C27.3256458,140.132955 27.8653137,139.667614 27.8653137,138.927841 C27.8653137,138.235795 27.3016605,137.794318 26.4621771,137.794318 Z M26.4621771,141.278409 C25.5387454,141.278409 24.9391144,141.803409 24.9391144,142.555114 C24.9391144,143.342614 25.5267528,143.831818 26.4621771,143.831818 C27.3856089,143.831818 27.9852399,143.342614 27.9852399,142.555114 C27.9852399,141.803409 27.3736162,141.278409 26.4621771,141.278409 Z M33.4298893,136.625 C35.4086716,136.625 36.5,138.128409 36.5,140.825 C36.5,143.521591 35.4086716,145.025 33.4298893,145.025 C31.4391144,145.025 30.347786,143.521591 30.347786,140.825 C30.347786,138.128409 31.4391144,136.625 33.4298893,136.625 Z M33.4298893,137.830114 C32.3865314,137.830114 31.8228782,138.892045 31.8228782,140.825 C31.8228782,142.769886 32.3865314,143.84375 33.4298893,143.84375 C34.4612546,143.84375 35.0249077,142.769886 35.0249077,140.825 C35.0249077,138.892045 34.4612546,137.830114 33.4298893,137.830114 Z" id="80-copy-3" fill="#FFFFFF" transform="translate(30.000000, 140.825000) rotate(-90.000000) translate(-30.000000, -140.825000) "></path>
                    <path d="M32.6875433,153.862399 C32.6875433,155.003589 31.874855,155.774664 30.5725955,155.887755 L30.5725955,156.77192 L29.8676129,156.77192 L29.8676129,155.898036 C28.5261877,155.774664 27.7624565,154.952184 27.7624565,153.492283 L28.8493047,153.492283 C28.8493047,154.376448 29.2213788,154.839093 29.8676129,154.962465 L29.8676129,152.659522 C28.8982618,152.371654 27.8603708,151.991257 27.8603708,150.644447 C27.8603708,149.523818 28.6338933,148.783586 29.8676129,148.680776 L29.8676129,147.899421 L30.5725955,147.899421 L30.5725955,148.691057 C31.8356893,148.814429 32.5112977,149.564942 32.5112977,150.963158 L31.4342409,150.963158 C31.4342409,150.150959 31.1209153,149.739719 30.5725955,149.616347 L30.5725955,151.723951 C31.6300694,152.0221 32.6875433,152.371654 32.6875433,153.862399 Z M28.9765932,150.551918 C28.9765932,151.117373 29.2899188,151.333273 29.8676129,151.528612 L29.8676129,149.595785 C29.2997102,149.678033 28.9765932,149.996744 28.9765932,150.551918 Z M30.5725955,152.875423 L30.5725955,154.972746 C31.2384124,154.880217 31.5811123,154.489539 31.5811123,153.913803 C31.5811123,153.317506 31.2090381,153.091324 30.5725955,152.875423 Z" id="$-copy-4" fill="#FFFFFF" transform="translate(30.225000, 152.335671) rotate(-90.000000) translate(-30.225000, -152.335671) "></path>
                    <path d="M23.7473586,13.8422203 L23.7473586,5.88854895 L22.507458,5.88854895 C22.3657551,6.84440559 21.7989434,7.23382867 20.5,7.23382867 L20.5,8.24868881 L22.3539466,8.24868881 L22.3539466,13.8422203 L23.7473586,13.8422203 Z M29.6044127,5.71153846 C27.9275948,5.71153846 26.8648229,6.63199301 26.8175886,8.29589161 L28.2228092,8.29589161 C28.2582349,7.39903846 28.6833437,6.89160839 29.6044127,6.89160839 C30.3601616,6.89160839 30.8206961,7.34003497 30.8206961,8.01267483 C30.8206961,8.92132867 30.2066501,9.35795455 29.0257924,10.0423951 C27.112803,11.1516608 26.7113114,12.0603147 26.7113114,13.5944056 C26.7113114,13.6652098 26.7113114,13.7478147 26.72312,13.8422203 L32.4620883,13.8422203 L32.4620883,12.6857517 L28.3290864,12.6857517 C28.3527035,12.048514 28.647918,11.6236888 30.1712244,10.7268357 C31.3993163,10.0187937 32.273151,9.36975524 32.273151,7.95367133 C32.273151,6.59659091 31.2221877,5.71153846 29.6044127,5.71153846 Z M36.4770044,5.71153846 C38.4254195,5.71153846 39.5,7.19842657 39.5,9.86538462 C39.5,12.5323427 38.4254195,14.0192308 36.4770044,14.0192308 C34.5167806,14.0192308 33.4422001,12.5323427 33.4422001,9.86538462 C33.4422001,7.19842657 34.5167806,5.71153846 36.4770044,5.71153846 Z M36.4770044,6.90340909 C35.4496582,6.90340909 34.8946551,7.95367133 34.8946551,9.86538462 C34.8946551,11.7888986 35.4496582,12.8509615 36.4770044,12.8509615 C37.492542,12.8509615 38.0475451,11.7888986 38.0475451,9.86538462 C38.0475451,7.95367133 37.492542,6.90340909 36.4770044,6.90340909 Z" id="120-copy-3" fill="#FFFFFF" transform="translate(30.000000, 9.865385) rotate(-90.000000) translate(-30.000000, -9.865385) "></path>
                    <path d="M32.6875433,25.8748996 C32.6875433,27.0035497 31.874855,27.766151 30.5725955,27.8779992 L30.5725955,28.7524488 L29.8676129,28.7524488 L29.8676129,27.8881673 C28.5261877,27.766151 27.7624565,26.9527096 27.7624565,25.508851 L28.8493047,25.508851 C28.8493047,26.3833005 29.2213788,26.8408614 29.8676129,26.9628776 L29.8676129,24.6852415 C28.8982618,24.400537 27.8603708,24.0243203 27.8603708,22.6923099 C27.8603708,21.5839959 28.6338933,20.8518986 29.8676129,20.7502184 L29.8676129,19.977449 L30.5725955,19.977449 L30.5725955,20.7603864 C31.8356893,20.8824026 32.5112977,21.624668 32.5112977,23.0075185 L31.4342409,23.0075185 C31.4342409,22.204245 31.1209153,21.7975243 30.5725955,21.6755081 L30.5725955,23.7599518 C31.6300694,24.0548244 32.6875433,24.400537 32.6875433,25.8748996 Z M28.9765932,22.6007977 C28.9765932,23.1600387 29.2899188,23.3735671 29.8676129,23.5667595 L29.8676129,21.655172 C29.2997102,21.7365162 28.9765932,22.0517247 28.9765932,22.6007977 Z M30.5725955,24.8987699 L30.5725955,26.9730456 C31.2384124,26.8815334 31.5811123,26.4951487 31.5811123,25.9257397 C31.5811123,25.3359947 31.2090381,25.1122983 30.5725955,24.8987699 Z" id="$-copy-6" fill="#FFFFFF" transform="translate(30.225000, 24.364949) rotate(-90.000000) translate(-30.225000, -24.364949) "></path>
                    <path d="M23.7473586,79.8422203 L23.7473586,71.888549 L22.507458,71.888549 C22.3657551,72.8444056 21.7989434,73.2338287 20.5,73.2338287 L20.5,74.2486888 L22.3539466,74.2486888 L22.3539466,79.8422203 L23.7473586,79.8422203 Z M29.6162213,71.7115385 C31.5646364,71.7115385 32.6392169,73.1984266 32.6392169,75.8653846 C32.6392169,78.5323427 31.5646364,80.0192308 29.6162213,80.0192308 C27.6559975,80.0192308 26.581417,78.5323427 26.581417,75.8653846 C26.581417,73.1984266 27.6559975,71.7115385 29.6162213,71.7115385 Z M29.6162213,72.9034091 C28.5888751,72.9034091 28.033872,73.9536713 28.033872,75.8653846 C28.033872,77.7888986 28.5888751,78.8509615 29.6162213,78.8509615 C30.6317589,78.8509615 31.186762,77.7888986 31.186762,75.8653846 C31.186762,73.9536713 30.6317589,72.9034091 29.6162213,72.9034091 Z M36.4770044,71.7115385 C38.4254195,71.7115385 39.5,73.1984266 39.5,75.8653846 C39.5,78.5323427 38.4254195,80.0192308 36.4770044,80.0192308 C34.5167806,80.0192308 33.4422001,78.5323427 33.4422001,75.8653846 C33.4422001,73.1984266 34.5167806,71.7115385 36.4770044,71.7115385 Z M36.4770044,72.9034091 C35.4496582,72.9034091 34.8946551,73.9536713 34.8946551,75.8653846 C34.8946551,77.7888986 35.4496582,78.8509615 36.4770044,78.8509615 C37.492542,78.8509615 38.0475451,77.7888986 38.0475451,75.8653846 C38.0475451,73.9536713 37.492542,72.9034091 36.4770044,72.9034091 Z" id="100-copy-3" fill="#FFFFFF" transform="translate(30.000000, 75.865385) rotate(-90.000000) translate(-30.000000, -75.865385) "></path>
                    <path d="M32.6875433,91.9526941 C32.6875433,93.0813441 31.874855,93.8439455 30.5725955,93.9557937 L30.5725955,94.8302433 L29.8676129,94.8302433 L29.8676129,93.9659617 C28.5261877,93.8439455 27.7624565,93.0305041 27.7624565,91.5866455 L28.8493047,91.5866455 C28.8493047,92.461095 29.2213788,92.9186559 29.8676129,93.0406721 L29.8676129,90.763036 C28.8982618,90.4783315 27.8603708,90.1021148 27.8603708,88.7701044 C27.8603708,87.6617904 28.6338933,86.9296931 29.8676129,86.8280129 L29.8676129,86.0552435 L30.5725955,86.0552435 L30.5725955,86.8381809 C31.8356893,86.9601971 32.5112977,87.7024625 32.5112977,89.085313 L31.4342409,89.085313 C31.4342409,88.2820395 31.1209153,87.8753188 30.5725955,87.7533026 L30.5725955,89.8377463 C31.6300694,90.1326188 32.6875433,90.4783315 32.6875433,91.9526941 Z M28.9765932,88.6785922 C28.9765932,89.2378332 29.2899188,89.4513616 29.8676129,89.644554 L29.8676129,87.7329665 C29.2997102,87.8143107 28.9765932,88.1295192 28.9765932,88.6785922 Z M30.5725955,90.9765644 L30.5725955,93.0508401 C31.2384124,92.9593279 31.5811123,92.5729432 31.5811123,92.0035342 C31.5811123,91.4137891 31.2090381,91.1900927 30.5725955,90.9765644 Z" id="$-copy-5" fill="#FFFFFF" transform="translate(30.225000, 90.442743) rotate(-90.000000) translate(-30.225000, -90.442743) "></path>
                    <text id="AUM-in-Billions" transform="translate(8.000000, 184.000000) rotate(-90.000000) translate(-8.000000, -184.000000) " font-family="NeueHaasUnicaPro-Medium, Neue Haas Unica Pro" font-size="12" font-weight="400" line-spacing="16" fill="#FFFFFF">
                        <tspan x="-34" y="190">AUM in Billions</tspan>
                    </text>
                    <path d="M56.0881459,263.331307 L629.462006,263.331307" id="Line-Copy-81" stroke="#F5F6F8" opacity="0.5" stroke-linecap="square"></path>
                    <path d="M56.0881459,204.243161 L629.462006,204.243161" id="Line-Copy-82" stroke="#F5F6F8" opacity="0.5" stroke-linecap="square"></path>
                    <path d="M56.0881459,144.06079 L629.462006,144.06079" id="Line-Copy-85" stroke="#F5F6F8" opacity="0.5" stroke-linecap="square"></path>
                    <path d="M56.0881459,79.5015198 L629.462006,79.5015198" id="Line-Copy-88" stroke="#F5F6F8" opacity="0.5" stroke-linecap="square"></path>
                    <path d="M56.0881459,12.7537994 L629.462006,12.7537994" id="Line-Copy-95" stroke="#F5F6F8" opacity="0.5" stroke-linecap="square"></path>
                    <path d="M56.0881459,321.325228 L629.462006,321.325228" id="Line-Copy-97" stroke="#F5F6F8" opacity="0.5" stroke-linecap="square"></path>
                    <path d="M45.1458967,321.325228 L56.0881374,321.325228" id="Line-Copy-98" stroke="#FFFFFF" stroke-linecap="square"></path>
                    <path d="M45.1458967,263.331307 L56.0881374,263.331307" id="Line-Copy-99" stroke="#FFFFFF" stroke-linecap="square"></path>
                    <path d="M45.1458967,204.243161 L56.0881374,204.243161" id="Line-Copy-100" stroke="#FFFFFF" stroke-linecap="square"></path>
                    <path d="M45.1458967,144.06079 L56.0881374,144.06079" id="Line-Copy-101" stroke="#FFFFFF" stroke-linecap="square"></path>
                    <path d="M45.1458967,79.5015198 L56.0881374,79.5015198" id="Line-Copy-102" stroke="#FFFFFF" stroke-linecap="square"></path>
                    <path d="M45.1458967,12.7537994 L56.0881374,12.7537994" id="Line-Copy-103" stroke="#FFFFFF" stroke-linecap="square"></path>
                    <path d="M592.258363,341.021272 L603.200604,341.021272" id="Line-Copy-104" stroke="#FFFFFF" stroke-linecap="square" transform="translate(597.729483, 341.021272) rotate(-90.000000) translate(-597.729483, -341.021272) "></path>
                    <path d="M489.40122,341.021272 L500.343461,341.021272" id="Line-Copy-106" stroke="#FFFFFF" stroke-linecap="square" transform="translate(494.872340, 341.021272) rotate(-90.000000) translate(-494.872340, -341.021272) "></path>
                    <path d="M388.732527,341.021272 L399.674768,341.021272" id="Line-Copy-107" stroke="#FFFFFF" stroke-linecap="square" transform="translate(394.203647, 341.021272) rotate(-90.000000) translate(-394.203647, -341.021272) "></path>
                    <path d="M285.875384,341.021272 L296.817625,341.021272" id="Line-Copy-108" stroke="#FFFFFF" stroke-linecap="square" transform="translate(291.346505, 341.021272) rotate(-90.000000) translate(-291.346505, -341.021272) "></path>
                    <path d="M184.112466,341.021272 L195.054707,341.021272" id="Line-Copy-109" stroke="#FFFFFF" stroke-linecap="square" transform="translate(189.583587, 341.021272) rotate(-90.000000) translate(-189.583587, -341.021272) "></path>
                    <path d="M83.4437733,341.021272 L94.386014,341.021272" id="Line-Copy-110" stroke="#FFFFFF" stroke-linecap="square" transform="translate(88.914894, 341.021272) rotate(-90.000000) translate(-88.914894, -341.021272) "></path>
                    <polyline id="Path-2-Copy-3" stroke="#FFFFFF" points="56.0881459 7.28267477 56.0881459 335.550152 629.462006 335.550152"></polyline>
                    <circle id="Oval-2-Copy-4" fill="#FFFFFF" cx="88.9148936" cy="246.917933" r="3.28267477"></circle>
                    <circle id="Oval-2-Copy-5" fill="#FFFFFF" cx="597.729483" cy="43.3920973" r="3.28267477"></circle>
                    <text id="2007" font-family="NeueHaasUnicaPro-Medium, Neue Haas Unica Pro" font-size="12" font-weight="400" line-spacing="16" fill="#FFFFFF">
                        <tspan x="73.5957447" y="360.492401">2007</tspan>
                    </text>
                    <text id="2009" font-family="NeueHaasUnicaPro-Medium, Neue Haas Unica Pro" font-size="12" font-weight="400" line-spacing="16" fill="#FFFFFF">
                        <tspan x="174.264438" y="360.492401">2009</tspan>
                    </text>
                    <text id="2011" font-family="NeueHaasUnicaPro-Medium, Neue Haas Unica Pro" font-size="12" font-weight="400" line-spacing="16" fill="#FFFFFF">
                        <tspan x="276.027356" y="360.492401">2011</tspan>
                    </text>
                    <text id="2013" font-family="NeueHaasUnicaPro-Medium, Neue Haas Unica Pro" font-size="12" font-weight="400" line-spacing="16" fill="#FFFFFF">
                        <tspan x="378.884498" y="360.492401">2013</tspan>
                    </text>
                    <text id="2015" font-family="NeueHaasUnicaPro-Medium, Neue Haas Unica Pro" font-size="12" font-weight="400" line-spacing="16" fill="#FFFFFF">
                        <tspan x="479.553191" y="360.492401">2015</tspan>
                    </text>
                    <text id="2017" font-family="NeueHaasUnicaPro-Medium, Neue Haas Unica Pro" font-size="12" font-weight="400" line-spacing="16" fill="#FFFFFF">
                        <tspan x="582.410334" y="360.492401">2017</tspan>
                    </text>
                    <path d="M88.9148936,246.681238 L597.729483,43.5369052" id="Line" stroke="#FFFFFF" stroke-width="2" stroke-linecap="square"></path>
                </g>
            </g>
        </g>
    </g>
</svg>